<?xml version="1.0" encoding="utf-8"?>
<!-- Generator: Adobe Illustrator 27.5.0, SVG Export Plug-In . SVG Version: 6.00 Build 0)  -->
<svg version="1.1" xmlns="http://www.w3.org/2000/svg" xmlns:xlink="http://www.w3.org/1999/xlink" x="0px" y="0px"
	 viewBox="0 0 500 500" style="enable-background:new 0 0 500 500;" xml:space="preserve">
<g id="BACKGROUND">
</g>
<g id="OBJECTS">
	<g>
		<path style="opacity:0.15;fill:#83AAD3;" d="M377.303,169.055c-11.494-15.325-31.239-23.32-50.388-22.805
			s-37.555,8.844-52.41,20.938c-17.711,14.418-32.227,34.841-54.358,40.478c-13.496,3.437-27.547,0.64-41.121,3.204
			c-14.629,2.764-29.212,6.588-42.514,13.429c-16.146,8.304-33.101,22.395-38.116,40.568c-5.326,19.305,8.86,37.448,20.445,51.29
			c14.259,17.038,23.412,41.23,25.395,63.404c1.382,15.449-0.769,31.88,6.168,45.753c4.501,9.002,12.437,15.886,21.092,21.022
			c24.367,14.46,55.955,15.945,81.571,3.836c9.127-4.314,17.71-10.463,22.954-19.09c6.858-11.283,7.201-25.197,7.607-38.394
			c1.083-35.253,4.515-72.05,23.355-101.866c13.09-20.716,32.546-36.573,51.508-51.672c14.069-11.203,26.433-16.589,28.239-36.294
			C387.82,190.949,384.493,178.641,377.303,169.055z"/>
		<path style="fill:#E9AFBD;" d="M154.751,206.28c4.053-8.112,9.501-15.702,16.828-21.046c11.796-8.605,27.09-10.545,41.675-11.23
			c14.815-0.696,30.504-0.16,43.149,7.591c10.25,6.283,17.477,16.73,27.879,22.759c8.669,5.025,19.277,6.6,29.033,4.311
			c8.017-1.881,15.236-6.188,22.998-8.934c27.356-9.678,59.824,2.31,77.219,25.536c16.951,22.634,26.11,53.746,16.152,80.109
			c-10.8,28.595-48.613,20.253-74.784,50.828c-11.075,12.938-36.654,60.875-70.242,56.174
			c-15.448-2.162-28.308-12.592-34.628-26.702c-6.705-14.971-20.514-21.421-33.185-30.905
			c-14.583-10.916-28.91-22.174-42.995-33.726c-18.42-15.107-26.61-43.423-28.179-66.281
			C144.529,238.154,147.277,221.237,154.751,206.28z"/>
		<g>
			<g style="opacity:0.15;">
				<path style="fill:#313169;" d="M402.702,269.157l-45.871-53.929c-7.48-8.832-19.795-11.723-29.945-7.031L108.798,309.403
					c-6.979,4.657-13.961,17.63-8.674,29.957l23.942,71.273c7.015,20.49,26.01,24.077,38.819,17.931L393.34,313.021
					C413.971,303.637,410.396,279.034,402.702,269.157z"/>
				<path style="fill:#313169;" d="M402.702,269.157l-49.52-57.527c-7.07-8.409-18.931-10.973-28.843-6.235L114.291,305.781
					c-11.549,5.52-16.77,19.105-11.889,30.938l26.05,72.761c5.324,12.908,20.466,18.606,32.979,12.411l233.517-115.621
					C408.951,299.337,412.758,281.117,402.702,269.157z"/>
				<path style="fill:#313169;" d="M402.702,269.157l-46.207-56.811c-7.07-8.409-22.244-11.689-32.156-6.952L114.291,305.781
					c-11.549,5.52-16.77,19.105-11.889,30.938l26.05,72.761c5.324,12.908,20.466,18.606,32.979,12.411l233.517-115.621
					C408.951,299.337,412.758,281.117,402.702,269.157z"/>
				<path style="fill:#313169;" d="M394.948,306.271c3.171-1.785,5.967-4.175,8.102-7.057c2.135-2.875,3.665-6.198,4.365-9.705
					c0.761-3.493,0.692-7.151-0.115-10.641c-0.802-3.496-2.407-6.805-4.598-9.711c0.58,0.698,1.157,1.405,1.728,2.121
					c0.515,0.752,0.979,1.542,1.474,2.317c0.435,0.806,0.779,1.66,1.173,2.492c0.342,0.852,0.585,1.743,0.883,2.616
					c0.971,3.562,1.041,7.359,0.32,10.987c-0.795,3.612-2.375,7.065-4.694,9.938c-0.622,0.681-1.201,1.4-1.856,2.044
					c-0.694,0.604-1.351,1.249-2.073,1.813c-0.763,0.512-1.505,1.051-2.278,1.534C396.571,305.447,395.759,305.863,394.948,306.271z
					"/>
				<path style="fill:#313169;" d="M133.838,415.033c6.128,7.081,16.277,9.121,24.678,4.961l233.518-115.621
					c5.694-2.819,9.706-8.004,11.006-14.224c1.299-6.221-0.301-12.578-4.39-17.441l-49.715-57.754
					c-6.043-6.982-16.081-9.078-24.415-5.095L114.473,310.246c-9.853,4.709-14.308,16.304-10.145,26.397l26.111,72.918
					C131.23,411.471,132.395,413.365,133.838,415.033z"/>
				<path style="fill:#313169;" d="M158.897,420.388l33.552-16.132l33.471-16.296l66.814-32.851l66.632-33.218l33.251-16.74
					c5.685-2.837,9.858-8.391,11.018-14.569c1.266-6.16-0.502-12.801-4.603-17.48c3.991,4.778,5.56,11.391,4.179,17.392
					c-1.281,6.026-5.463,11.287-10.978,13.881l-33.471,16.296l-66.812,32.854l-66.63,33.221l-33.251,16.74L158.897,420.388z"/>
				<path style="fill:#313169;" d="M390.529,254.765c0,0-10.903,6.016-14.977,1.863c-4.074-4.153-19.582-21.114-20.384-24.26
					c-0.802-3.145,6.622-10.713,7.47-9.872C363.816,223.666,390.529,254.765,390.529,254.765z"/>
				<path style="fill:#313169;" d="M361.009,328.183L361.009,328.183c0.71,1.409,2.94,1.732,4.956,0.716l12.186-6.14
					c2.015-1.015,3.083-2.999,2.373-4.409l0,0c-0.71-1.409-2.94-1.732-4.956-0.716l-12.186,6.14
					C361.367,324.789,360.299,326.774,361.009,328.183z"/>
				<path style="fill:#313169;" d="M361.963,328.121L361.963,328.121c0.57,1.133,2.58,1.282,4.464,0.333l11.396-5.742
					c1.885-0.95,2.96-2.653,2.389-3.786l0,0c-0.57-1.133-2.579-1.283-4.464-0.333l-11.396,5.742
					C362.467,325.284,361.392,326.988,361.963,328.121z"/>
				<path style="fill:#313169;" d="M379.312,248.664c1.452,2.256-1.696,5.389-3.799,2.145
					C374.073,248.585,377.62,245.922,379.312,248.664z"/>
				<path style="fill:#313169;" d="M378.912,248.155c0.141,0.145,0.277,0.309,0.401,0.509c1.448,2.25-1.679,5.37-3.781,2.167
					C377.59,253.086,380.224,250.258,378.912,248.155z"/>
				<path style="fill:#313169;" d="M378.959,250.959c0,0-0.473,0.236-1.041-0.404c-0.568-0.64-0.319-0.856,0.02-0.844
					c0.339,0.012,0.987,0.079,1.238,0.559C379.428,250.751,378.959,250.959,378.959,250.959z"/>
				<path style="fill:#313169;" d="M398.657,272.799l-49.715-57.754c-6.043-6.982-16.081-9.078-24.415-5.095L114.48,310.338
					c-8.304,3.969-12.751,12.828-11.458,21.559c40.575-28.125,152.015-99.606,212.934-81.808
					c30.324,8.859,56.555,30.79,77.085,53.845c5.162-2.912,8.783-7.845,10.005-13.693
					C404.346,284.02,402.747,277.662,398.657,272.799z"/>
				<path style="fill:none;stroke:#313169;stroke-miterlimit:10;" d="M362.367,373.986"/>
			</g>
			<g>
				<g>
					<path style="fill:#6676DE;" d="M402.702,265.157l-45.871-53.929c-7.48-8.832-19.795-11.723-29.945-7.031L108.798,305.403
						c-6.979,4.657-13.961,17.63-8.674,29.957l23.942,71.273c7.015,20.49,26.01,24.077,38.819,17.931L393.34,309.021
						C413.971,299.637,410.396,275.034,402.702,265.157z"/>
					<path style="fill:#BDC2CA;" d="M402.702,265.157l-49.52-57.527c-7.07-8.409-18.931-10.973-28.843-6.235L114.291,301.781
						c-11.549,5.52-16.77,19.105-11.889,30.938l26.05,72.761c5.324,12.908,20.466,18.606,32.979,12.411l233.517-115.621
						C408.951,295.337,412.758,277.117,402.702,265.157z"/>
					<path style="fill:#ECF0F6;" d="M402.702,265.157l-46.207-56.811c-7.07-8.409-22.244-11.689-32.156-6.952L114.291,301.781
						c-11.549,5.52-16.77,19.105-11.889,30.938l26.05,72.761c5.324,12.908,20.466,18.606,32.979,12.411l233.517-115.621
						C408.951,295.337,412.758,277.117,402.702,265.157z"/>
					<g>
						<path style="fill:#FFFFFF;" d="M394.948,302.271c3.171-1.785,5.967-4.175,8.102-7.057c2.135-2.875,3.665-6.198,4.365-9.705
							c0.761-3.493,0.692-7.151-0.115-10.641c-0.802-3.496-2.407-6.805-4.598-9.711c0.58,0.698,1.157,1.405,1.728,2.121
							c0.515,0.752,0.979,1.542,1.474,2.317c0.435,0.806,0.779,1.66,1.173,2.492c0.342,0.852,0.585,1.743,0.883,2.616
							c0.971,3.562,1.041,7.359,0.32,10.987c-0.795,3.612-2.375,7.065-4.694,9.938c-0.622,0.681-1.201,1.4-1.856,2.044
							c-0.694,0.604-1.351,1.249-2.073,1.813c-0.763,0.512-1.505,1.051-2.278,1.534
							C396.571,301.447,395.759,301.863,394.948,302.271z"/>
					</g>
					<path style="fill:#5362B7;" d="M133.838,411.033c6.128,7.081,16.277,9.121,24.678,4.961l233.518-115.621
						c5.694-2.819,9.706-8.004,11.006-14.224c1.299-6.221-0.301-12.578-4.39-17.441l-49.715-57.754
						c-6.043-6.982-16.081-9.078-24.415-5.095L114.473,306.246c-9.853,4.709-14.308,16.304-10.145,26.397l26.111,72.918
						C131.23,407.471,132.395,409.365,133.838,411.033z"/>
					<g style="opacity:0.19;">
						<g>
							<path style="fill:#06065F;" d="M158.897,416.388l33.552-16.132l33.471-16.296l66.814-32.851l66.632-33.218l33.251-16.74
								c5.685-2.837,9.858-8.391,11.018-14.569c1.266-6.16-0.502-12.801-4.603-17.48c3.991,4.778,5.56,11.391,4.179,17.392
								c-1.281,6.026-5.463,11.287-10.978,13.881l-33.471,16.296l-66.812,32.854l-66.63,33.221l-33.251,16.74L158.897,416.388z"/>
						</g>
					</g>
					<path style="fill:#ECF0F6;" d="M390.529,250.765c0,0-10.903,6.016-14.977,1.863c-4.074-4.153-19.582-21.114-20.384-24.26
						c-0.802-3.145,6.622-10.713,7.47-9.872C363.816,219.666,390.529,250.765,390.529,250.765z"/>
					<g>
						
							<linearGradient id="SVGID_1_" gradientUnits="userSpaceOnUse" x1="-166.1252" y1="799.02" x2="-155.7679" y2="796.1757" gradientTransform="matrix(-0.851 -0.8455 -1.3338 0.9692 1296.9546 -591.4099)">
							<stop  offset="0" style="stop-color:#EDEDED"/>
							<stop  offset="0" style="stop-color:#E2E0DE"/>
							<stop  offset="0" style="stop-color:#D8D5D1"/>
							<stop  offset="0.0812" style="stop-color:#E3E2E0"/>
							<stop  offset="0.1382" style="stop-color:#EDEDED"/>
							<stop  offset="0.17" style="stop-color:#D7D7D8"/>
							<stop  offset="0.236" style="stop-color:#A09DA1"/>
							<stop  offset="0.264" style="stop-color:#868388"/>
							<stop  offset="0.5225" style="stop-color:#F0F1F2"/>
							<stop  offset="0.5851" style="stop-color:#E2E2E4"/>
							<stop  offset="0.7052" style="stop-color:#BCBBBE"/>
							<stop  offset="0.8694" style="stop-color:#817D82"/>
							<stop  offset="0.8764" style="stop-color:#7E7A7F"/>
							<stop  offset="1" style="stop-color:#CDCECF"/>
							<stop  offset="1" style="stop-color:#A3A3A7"/>
						</linearGradient>
						<path style="fill:url(#SVGID_1_);" d="M361.009,324.183L361.009,324.183c0.71,1.409,2.94,1.732,4.956,0.716l12.186-6.14
							c2.015-1.015,3.083-2.999,2.373-4.409l0,0c-0.71-1.409-2.94-1.732-4.956-0.716l-12.186,6.14
							C361.367,320.789,360.299,322.774,361.009,324.183z"/>
						
							<linearGradient id="SVGID_00000103967742385996239550000000356795873604183210_" gradientUnits="userSpaceOnUse" x1="-182.7473" y1="843.0041" x2="-150.2618" y2="835.3271" gradientTransform="matrix(-0.9828 -0.777 -2.0565 1.3129 1928.6233 -921.5873)">
							<stop  offset="0" style="stop-color:#EDEDED"/>
							<stop  offset="0" style="stop-color:#E2E0DE"/>
							<stop  offset="0" style="stop-color:#D8D5D1"/>
							<stop  offset="0.0812" style="stop-color:#E3E2E0"/>
							<stop  offset="0.1382" style="stop-color:#EDEDED"/>
							<stop  offset="0.1436" style="stop-color:#D7D7D8"/>
							<stop  offset="0.1549" style="stop-color:#A09DA1"/>
							<stop  offset="0.1597" style="stop-color:#868388"/>
							<stop  offset="0.3039" style="stop-color:#F0F1F2"/>
							<stop  offset="0.4051" style="stop-color:#E2E2E4"/>
							<stop  offset="0.5995" style="stop-color:#BCBBBE"/>
							<stop  offset="0.8651" style="stop-color:#817D82"/>
							<stop  offset="0.8764" style="stop-color:#7E7A7F"/>
							<stop  offset="1" style="stop-color:#CDCECF"/>
							<stop  offset="1" style="stop-color:#A3A3A7"/>
						</linearGradient>
						<path style="fill:url(#SVGID_00000103967742385996239550000000356795873604183210_);" d="M361.963,324.121L361.963,324.121
							c0.57,1.133,2.58,1.282,4.464,0.333l11.396-5.742c1.885-0.95,2.96-2.653,2.389-3.786l0,0c-0.57-1.133-2.579-1.283-4.464-0.333
							l-11.396,5.742C362.467,321.284,361.392,322.988,361.963,324.121z"/>
					</g>
					<g>
						<path style="fill:#475761;" d="M379.312,244.664c1.452,2.256-1.696,5.389-3.799,2.145
							C374.073,244.585,377.62,241.922,379.312,244.664z"/>
						<path style="fill:#2F383F;" d="M378.912,244.155c0.141,0.145,0.277,0.309,0.401,0.509c1.448,2.25-1.679,5.37-3.781,2.167
							C377.59,249.086,380.224,246.258,378.912,244.155z"/>
						<path style="fill:#E9F3FA;" d="M378.959,246.959c0,0-0.473,0.236-1.041-0.404c-0.568-0.64-0.319-0.856,0.02-0.844
							c0.339,0.012,0.987,0.079,1.238,0.559C379.428,246.751,378.959,246.959,378.959,246.959z"/>
					</g>
					
						<linearGradient id="SVGID_00000168090618674425692930000017828974931171332508_" gradientUnits="userSpaceOnUse" x1="114.2829" y1="1264.7622" x2="114.2829" y2="1369.2578" gradientTransform="matrix(0.9707 0.2405 -0.2405 0.9707 491.2202 -1132.6986)">
						<stop  offset="0" style="stop-color:#FFFFFF"/>
						<stop  offset="1" style="stop-color:#FFFFFF;stop-opacity:0"/>
					</linearGradient>
					<path style="fill:url(#SVGID_00000168090618674425692930000017828974931171332508_);" d="M398.657,268.799l-49.715-57.754
						c-6.043-6.982-16.081-9.078-24.415-5.095L114.48,306.338c-8.304,3.969-12.751,12.828-11.458,21.559
						c40.575-28.125,152.015-99.606,212.934-81.808c30.324,8.859,56.555,30.79,77.085,53.845c5.162-2.912,8.783-7.845,10.005-13.693
						C404.346,280.02,402.747,273.662,398.657,268.799z"/>
					<g>
						<g>
							<path style="fill:none;stroke:#6676DE;stroke-miterlimit:10;" d="M362.367,369.986"/>
						</g>
					</g>
				</g>
			</g>
		</g>
		<g>
			<path style="fill:#5362B7;" d="M255.82,114.283c-0.057-0.636-1.058-0.642-1,0c0.428,4.756,0.85,9.934-1.907,14.123
				c-0.355,0.539,0.511,1.041,0.863,0.505C256.632,124.571,256.264,119.218,255.82,114.283z"/>
			<path style="fill:#5362B7;" d="M271.225,159.114c-0.811-1.122-1.811-2.091-2.972-2.847c-2.515-1.639-5.624-2.093-8.511-1.317
				c-0.55,0.148-0.314,0.947,0.232,0.844c2.617-0.496,5.457,0.015,7.69,1.48c1.01,0.662,1.9,1.529,2.597,2.514
				c0.738,1.043,1.152,2.163,1.693,3.305c0.191,0.402,0.891,0.214,0.852-0.231C272.692,161.539,271.996,160.18,271.225,159.114z"/>
			<path style="fill:#5362B7;" d="M268.135,143c-0.604-0.532-1.499-0.782-2.265-0.991c-0.831-0.227-1.663-0.35-2.526-0.365
				c-1.72-0.03-3.372,0.321-4.904,1.107c-0.428,0.219-0.131,0.948,0.331,0.785c1.431-0.504,2.977-0.789,4.496-0.748
				c0.743,0.02,1.511,0.103,2.238,0.257c0.755,0.16,1.472,0.526,2.224,0.653C268.1,143.761,268.48,143.304,268.135,143z"/>
			<path style="fill:#5362B7;" d="M267.136,125.924c-0.198,0.045-0.341,0.157-0.507,0.269c-0.155,0.104-0.309,0.208-0.459,0.319
				c-0.302,0.224-0.603,0.449-0.905,0.671c-0.606,0.443-1.21,0.905-1.844,1.308c-0.384,0.244-0.048,0.811,0.355,0.607
				c0.345-0.174,0.7-0.335,1.036-0.526c0.337-0.191,0.66-0.4,0.979-0.62c0.325-0.224,0.637-0.46,0.94-0.712
				c0.153-0.127,0.293-0.264,0.434-0.406c0.061-0.063,0.125-0.125,0.185-0.189c0.091-0.099,0.137-0.198,0.186-0.321
				C267.631,126.077,267.354,125.874,267.136,125.924z"/>
		</g>
		<path style="fill:#D5E9F2;" d="M355.59,274.076c-4.182-5.959-8.262-11.993-12.33-18.029c-4.08-6.054-8.095-12.152-12.13-18.236
			c-4.013-6.049-7.994-13.097-13.815-17.519c-4.01-3.046-8.652,1.964-7.798,5.995c1.444,6.815,6.458,13.519,10.051,19.41
			c3.792,6.216,7.581,12.434,11.431,18.614c3.679,5.905,7.458,11.739,11.364,17.496c3.577,5.272,8.005,15.004,14.92,15.95
			c3.003,0.411,6.984-0.685,7.568-4.297C366.106,285.704,359.783,280.05,355.59,274.076z"/>
		<path style="fill:#6C80E3;" d="M295.62,231.077c-3.236-0.217-10.919,3.796-13.106,5.782c-4.353,3.952,5.823,20.921,11.725,20.557
			c2.638-0.163,9.566-3.885,11.364-5.687C310.216,247.107,298.794,231.289,295.62,231.077z"/>
		<path style="fill:#6C80E3;" d="M329.456,284.852c-4.14-6.727-8.28-13.454-12.421-20.18c-3.324-5.4-10.802-5.921-15.003-2.187
			c-4.68,4.16-4.811,11.399-1.434,16.788c4.189,6.683,8.378,13.366,12.568,20.05c4.186,6.679,8.779,15.379,17.055,13.851
			c2.845-0.525,5.607-2.535,6.553-5.721C339.343,298.806,333.724,291.785,329.456,284.852z"/>
		<path style="opacity:0.15;fill:#5362B7;" d="M283.21,298.678c-7.5,2.108-14.756,6.262-21.857,9.487
			c-7.008,3.182-13.999,6.404-21.018,9.563c-7.004,3.152-13.954,6.436-20.897,9.724c-6.666,3.157-14.114,6.072-18.394,12.359
			c-1.667,2.449-0.109,6.956,2.973,7.401c7.528,1.088,14.447-2.263,21.312-5.182c7.072-3.007,14.136-6.107,21.08-9.402
			c6.939-3.292,13.866-6.616,20.752-10.018c7.034-3.475,14.975-6.629,21.319-11.269C294.458,306.969,291.151,296.446,283.21,298.678
			z"/>
		<path style="fill:#6C80E3;" d="M163.033,290.694l94.453-45.681c1.82-0.867,4.001-0.249,5.095,1.444l50.796,78.529
			c1.323,2.046,0.533,4.789-1.675,5.818l-106.503,49.601c-2.078,0.968-4.543,0.001-5.41-2.121l-38.746-82.448
			C160.239,293.865,161.112,291.609,163.033,290.694z"/>
		<path style="fill:#6C80E3;" d="M142.399,356.67c-5.844-13.481-12.206-26.678-19.167-39.563c-3.056-5.656-11.103-0.654-8.281,5.073
			c6.161,12.504,12.055,25.168,17.46,38.051c2.658,6.334,5.171,12.731,7.636,19.15c2.431,6.331,4.929,13.658,8.828,19.119
			c1.984,2.779,7.103,2.28,6.886-1.955C155.067,382.958,147.686,368.866,142.399,356.67z"/>
		<g>
			<path style="fill:#D5E9F2;" d="M414.888,117.201h-9.995l-16.557,14.553c-0.575,0.505-1.479,0.129-1.526-0.635l-0.856-13.919
				h-32.858c-2.939,0-5.343-2.404-5.343-5.343V74.954c0-2.939,2.404-5.343,5.343-5.343h61.791c2.939,0,5.343,2.405,5.343,5.343
				v36.903C420.232,114.796,417.827,117.201,414.888,117.201z"/>
			<path style="fill:#3E4B8F;" d="M367.001,89.718c-5.069,0-5.078,7.879,0,7.879C372.07,97.596,372.079,89.718,367.001,89.718z"/>
			<path style="fill:#3E4B8F;" d="M390.184,91.173c-0.186-0.571-0.503-1.064-0.951-1.481c-0.574-0.571-1.252-0.965-2.031-1.184
				c-0.815-0.219-1.632-0.219-2.447,0c-0.109,0.035-0.219,0.07-0.328,0.105c-0.358,0.151-0.715,0.302-1.074,0.453
				c-0.524,0.282-0.944,0.668-1.26,1.158c-0.279,0.28-0.471,0.611-0.578,0.992c-0.281,0.535-0.41,1.112-0.387,1.731
				c0.054,0.398,0.107,0.796,0.161,1.195c0.151,0.358,0.302,0.716,0.453,1.074c0.283,0.524,0.668,0.944,1.158,1.261
				c0.434,0.397,0.943,0.665,1.528,0.804c0.109,0.035,0.219,0.07,0.328,0.105c0.815,0.219,1.632,0.219,2.447,0
				c0.78-0.219,1.457-0.613,2.031-1.184c0.24-0.311,0.48-0.621,0.72-0.932c0.416-0.718,0.626-1.492,0.628-2.323
				C390.605,92.313,390.473,91.722,390.184,91.173z"/>
			<path style="fill:#3E4B8F;" d="M411.004,90.91c-0.168-0.707-0.492-1.323-0.972-1.848c-0.242-0.408-0.567-0.733-0.975-0.975
				c-0.525-0.48-1.141-0.804-1.848-0.973c-0.481-0.065-0.964-0.129-1.445-0.194l-1.444,0.194c-0.708,0.168-1.324,0.492-1.848,0.973
				c-0.592,0.383-1.058,0.892-1.4,1.525c-0.144,0.283-0.288,0.565-0.433,0.848c-0.512,0.882-0.769,1.834-0.772,2.854
				c0.003,1.021,0.26,1.972,0.772,2.854c0.295,0.382,0.59,0.763,0.884,1.145c0.706,0.701,1.538,1.186,2.496,1.455
				c0.751,0.235,1.504,0.269,2.255,0.101c0.753-0.034,1.454-0.258,2.103-0.671c0.85-0.503,1.526-1.179,2.029-2.029
				c0.511-0.882,0.768-1.834,0.772-2.854l0.02-0.959C411.133,91.873,411.069,91.391,411.004,90.91z"/>
			<path style="opacity:0.15;fill:#A7C8D5;" d="M418.895,85.463c-0.544,4.483-1.107,9.04-2.911,13.18
				c-1.803,4.14-5.056,7.881-9.383,9.173c-1.108,0.331-2.277,0.501-3.305,1.029c-1.113,0.571-1.978,1.515-2.819,2.44
				c-2.386,2.625-4.772,5.25-7.158,7.875c-1.986,0.133-2.944-2.477-2.714-4.455c0.229-1.978,0.948-4.15-0.114-5.833
				c-1.47-2.329-4.927-1.797-7.622-1.23c-4.699,0.988-9.563,1.191-14.329,0.599c-4.359-0.542-8.942-1.947-11.632-5.42
				c-1.924-2.485-2.667-5.772-4.796-8.084c-1.612-1.75-3.06-2.458-4.357-2.449v19.569c0,2.939,2.405,5.343,5.344,5.343h32.858
				l0.856,13.919c0.047,0.763,0.951,1.139,1.526,0.634l16.556-14.553h9.995c2.939,0,5.343-2.404,5.343-5.343V85.05
				C419.758,85.053,419.296,85.17,418.895,85.463z"/>
		</g>
		<g>
			<path style="fill:#D5E9F2;" d="M61.817,362.696h10.01l16.582,15.089c0.575,0.524,1.481,0.134,1.528-0.658l0.857-14.431h32.908
				c2.943,0,5.351-2.493,5.351-5.54v-38.262c0-3.047-2.408-5.54-5.351-5.54H61.817c-2.943,0-5.352,2.493-5.352,5.54v38.262
				C56.465,360.203,58.873,362.696,61.817,362.696z"/>
			<path style="fill:#3E4B8F;" d="M109.777,334.201c5.077,0,5.085,8.169,0,8.169C104.7,342.37,104.691,334.201,109.777,334.201z"/>
			<path style="fill:#3E4B8F;" d="M86.558,335.711c0.186-0.592,0.504-1.104,0.953-1.536c0.575-0.592,1.254-1.001,2.035-1.228
				c0.817-0.227,1.634-0.227,2.451,0c0.109,0.036,0.219,0.073,0.329,0.109c0.358,0.157,0.717,0.313,1.076,0.47
				c0.524,0.293,0.945,0.693,1.262,1.2c0.279,0.291,0.472,0.633,0.579,1.028c0.282,0.555,0.411,1.154,0.388,1.795
				c-0.054,0.413-0.107,0.826-0.161,1.239c-0.151,0.371-0.303,0.742-0.454,1.113c-0.283,0.543-0.669,0.979-1.159,1.307
				c-0.435,0.412-0.945,0.69-1.53,0.834c-0.109,0.036-0.219,0.073-0.329,0.109c-0.817,0.227-1.634,0.227-2.451,0
				c-0.781-0.227-1.459-0.636-2.035-1.227c-0.24-0.322-0.48-0.644-0.721-0.966c-0.417-0.744-0.627-1.547-0.629-2.409
				C86.137,336.892,86.27,336.279,86.558,335.711z"/>
			<path style="fill:#3E4B8F;" d="M65.707,335.437c0.168-0.733,0.493-1.372,0.974-1.916c0.242-0.423,0.568-0.76,0.976-1.011
				c0.526-0.498,1.143-0.834,1.851-1.009c0.482-0.067,0.965-0.134,1.447-0.201l1.446,0.201c0.709,0.174,1.326,0.51,1.851,1.009
				c0.593,0.397,1.06,0.924,1.402,1.581c0.144,0.293,0.289,0.586,0.433,0.879c0.513,0.914,0.77,1.901,0.773,2.96
				c-0.003,1.058-0.261,2.045-0.773,2.959c-0.295,0.396-0.59,0.791-0.886,1.187c-0.707,0.727-1.54,1.229-2.499,1.508
				c-0.753,0.244-1.506,0.279-2.259,0.104c-0.754-0.035-1.456-0.267-2.107-0.696c-0.851-0.521-1.528-1.222-2.032-2.104
				c-0.512-0.914-0.77-1.901-0.773-2.959l-0.02-0.994C65.577,336.435,65.642,335.936,65.707,335.437z"/>
			<path style="opacity:0.15;fill:#A7C8D5;" d="M57.804,329.79c0.545,4.648,1.109,9.372,2.915,13.665
				c1.806,4.293,5.063,8.171,9.398,9.511c1.11,0.343,2.28,0.52,3.31,1.067c1.114,0.591,1.981,1.571,2.824,2.53
				c2.39,2.722,4.779,5.444,7.169,8.165c1.989,0.138,2.948-2.569,2.718-4.618c-0.229-2.05-0.95-4.302,0.114-6.048
				c1.472-2.414,4.935-1.863,7.634-1.276c4.706,1.024,9.578,1.235,14.351,0.62c4.366-0.562,8.955-2.018,11.649-5.62
				c1.927-2.576,2.671-5.984,4.803-8.381c1.614-1.815,3.065-2.548,4.364-2.539v20.289c0,3.047-2.409,5.54-5.352,5.54H90.793
				l-0.857,14.431c-0.047,0.792-0.953,1.181-1.528,0.658l-16.581-15.089h-10.01c-2.943,0-5.351-2.493-5.351-5.54v-27.795
				C56.939,329.365,57.402,329.486,57.804,329.79z"/>
		</g>
		<g>
			<path style="fill:#6C80E3;" d="M146.02,117.338c-0.107-0.425-0.285-0.874-0.541-1.349c0-0.094-0.004-0.187-0.007-0.281
				c1.356-1.744,1.462-4.461,0.133-6.238c0.269-0.296,0.49-0.627,0.651-1.001c0.951-1.465,0.834-4.128-0.524-5.388
				c2.201-2.183,3.088-11.305-12.051-8.499c0.272-0.481,0.528-0.972,0.754-1.475c0.29-0.643,0.51-1.311,0.668-1.994
				c0.917-2.234,1.581-6.764,0.397-8.901c-0.697-1.258-2.053-1.799-3.414-1.242c-2.186,0.895-2.401,3.133-3.319,5.012
				c-0.68,1.39-2.184,3.93-3.406,4.873c-1.273,0.983-2.738,1.536-4.284,1.863c-0.089-1.077-0.311-2.112-0.803-3.027
				c-0.916-1.702-3.195-1.992-4.399-0.407c-2.09,2.751-2.062,6.826-2.454,10.106c-0.854,7.146-1.889,14.279-1.889,21.49
				c-0.868,4.09,6.347,6.547,7.766,1.925c0.088-0.285,0.163-0.575,0.231-0.866c4.562,0.229,16.61,0.996,19.813,1.232
				C145.867,123.652,146.95,121.021,146.02,117.338z"/>
			<polygon style="opacity:0.15;fill:#3E4B8F;" points="121.078,92.717 119.53,121.937 124.361,122.209 123.488,91.957 			"/>
		</g>
		<g>
			<path style="fill:#6C80E3;" d="M359.855,413.27c0.113-0.449,0.301-0.923,0.572-1.425c0-0.099,0.004-0.198,0.007-0.296
				c-1.432-1.842-1.544-4.711-0.141-6.589c-0.284-0.313-0.518-0.662-0.688-1.057c-1.004-1.547-0.88-4.36,0.553-5.691
				c-2.324-2.306-3.261-11.939,12.727-8.976c-0.288-0.508-0.557-1.027-0.797-1.557c-0.307-0.679-0.538-1.385-0.705-2.106
				c-0.969-2.359-1.669-7.143-0.419-9.4c0.736-1.328,2.168-1.9,3.605-1.311c2.309,0.945,2.536,3.309,3.505,5.293
				c0.718,1.468,2.307,4.15,3.596,5.146c1.345,1.038,2.892,1.622,4.524,1.967c0.094-1.137,0.328-2.23,0.848-3.197
				c0.967-1.797,3.374-2.103,4.646-0.43c2.208,2.905,2.178,7.209,2.592,10.673c0.902,7.546,1.995,15.08,1.995,22.696
				c0.916,4.32-6.703,6.914-8.202,2.033c-0.092-0.301-0.172-0.607-0.244-0.915c-4.818,0.242-17.542,1.052-20.924,1.302
				C360.016,419.938,358.872,417.16,359.855,413.27z"/>
			<polygon style="opacity:0.15;fill:#3E4B8F;" points="386.196,387.268 387.831,418.128 382.728,418.414 383.651,386.466 			"/>
		</g>
		<g>
			<g>
				<path style="fill:none;stroke:#5362B7;stroke-linecap:round;stroke-miterlimit:10;" d="M363.905,145.807
					c-0.125,0.01-0.878-0.455-2.128-1.298"/>
				<path style="fill:none;stroke:#5362B7;stroke-linecap:round;stroke-miterlimit:10;stroke-dasharray:4.7799,4.7799;" d="
					M357.853,141.784c-12.66-8.943-41.577-30.292-52.105-38.08"/>
				<path style="fill:none;stroke:#5362B7;stroke-linecap:round;stroke-miterlimit:10;" d="M303.828,102.283
					c-1.286-0.952-2.006-1.486-2.006-1.486"/>
			</g>
		</g>
		<g>
			<path style="fill:#5362B7;" d="M420.266,151.261c-7.166-7.27-16.992-9.74-26.852-7.733c-12.455,2.536-21.817,14.72-23.02,27.082
				c-1.904,19.555,20.352,32.134,37.745,27.191c9.452-2.686,16.362-10.449,19.133-19.693
				C430.042,168.865,426.967,158.058,420.266,151.261z"/>
			<g id="XMLID_22_">
				<path id="XMLID_24_" style="fill-rule:evenodd;clip-rule:evenodd;fill:#FFFFFF;" d="M418.213,168.927
					c-0.252-9.976-8.47-17.985-18.586-17.985c-9.994,0-18.142,7.826-18.577,17.646c-0.009,0.27-0.017,0.54-0.017,0.809
					c0,3.491,0.975,6.747,2.664,9.533l-3.352,9.898l10.298-3.273c2.664,1.462,5.728,2.298,8.984,2.298
					c10.272,0,18.594-8.261,18.594-18.456C418.222,169.241,418.222,169.084,418.213,168.927z M399.628,184.91
					c-3.177,0-6.129-0.94-8.601-2.568l-6.007,1.915l1.95-5.763c-1.872-2.56-2.977-5.702-2.977-9.097c0-0.505,0.026-1.01,0.078-1.506
					c0.766-7.853,7.452-14.007,15.556-14.007c8.209,0,14.956,6.311,15.582,14.303c0.035,0.401,0.052,0.801,0.052,1.21
					C415.262,177.955,408.246,184.91,399.628,184.91z"/>
				<path id="XMLID_23_" style="fill-rule:evenodd;clip-rule:evenodd;fill:#FFFFFF;" d="M408.15,173.123
					c-0.461-0.226-2.699-1.323-3.117-1.471c-0.418-0.157-0.723-0.226-1.027,0.226c-0.305,0.452-1.184,1.471-1.445,1.767
					c-0.27,0.305-0.531,0.34-0.992,0.113c-0.453-0.226-1.924-0.697-3.665-2.246c-1.349-1.192-2.272-2.672-2.533-3.125
					c-0.261-0.453-0.026-0.697,0.2-0.923c0.209-0.209,0.453-0.531,0.687-0.792c0.061-0.079,0.113-0.148,0.166-0.218
					c0.105-0.165,0.183-0.322,0.287-0.54c0.157-0.304,0.079-0.566-0.034-0.792c-0.113-0.226-1.027-2.455-1.41-3.36
					c-0.374-0.905-0.757-0.749-1.027-0.749c-0.261,0-0.566-0.043-0.871-0.043c-0.305,0-0.801,0.113-1.219,0.566
					c-0.418,0.453-1.593,1.55-1.593,3.778c0,0.522,0.096,1.045,0.235,1.541c0.462,1.593,1.454,2.907,1.628,3.134
					c0.226,0.296,3.151,5.014,7.782,6.833c4.64,1.802,4.64,1.201,5.476,1.123c0.835-0.07,2.699-1.088,3.073-2.15
					c0.384-1.053,0.384-1.959,0.27-2.15C408.907,173.463,408.602,173.35,408.15,173.123z"/>
			</g>
		</g>
		<g>
			<path style="fill:#5362B7;" d="M100.673,153.074c-10.024-10.169-26.197-8.996-36.246,0.508
				c-12.53,11.849-10.045,31.519,5.664,39.457c14.486,7.32,32.239-0.592,36.845-15.96
				C109.423,168.786,106.704,159.193,100.673,153.074z"/>
			<path id="XMLID_3_" style="fill:#FFFFFF;" d="M78.815,185.123h5.332V171.77h3.72l0.397-4.471h-4.117c0,0,0-1.669,0-2.546
				c0-1.054,0.212-1.471,1.231-1.471c0.82,0,2.886,0,2.886,0v-4.64c0,0-3.042,0-3.692,0c-3.968,0-5.757,1.748-5.757,5.092
				c0,2.914,0,3.564,0,3.564h-2.774v4.527h2.774V185.123z"/>
		</g>
		
			<line style="fill:none;stroke:#5362B7;stroke-linecap:round;stroke-miterlimit:10;stroke-dasharray:5;" x1="115.95" y1="157.83" x2="251.892" y2="96.233"/>
		<path style="fill:#E9AFBD;" d="M225.323,260.9c-0.377-0.152-0.802-0.128-1.188-0.248c-0.126-0.039-0.241-0.102-0.371-0.135
			c-0.105-0.027-0.209-0.055-0.313-0.085c-0.208-0.06-0.414-0.128-0.616-0.206c-0.379-0.145-0.743-0.337-1.095-0.541
			c-0.375-0.218-0.703-0.499-1.07-0.726c-0.046-0.028-0.098-0.042-0.149-0.054c0.132-0.346,0.253-0.695,0.349-1.05
			c0.277-1.034,0.563-2.501,0.089-3.506c-0.18-0.381-0.682-0.209-0.807,0.105c-0.2,0.505-0.128,1.095-0.192,1.629
			c-0.063,0.514-0.188,1.021-0.339,1.516c-0.314,1.024-0.814,1.973-1.385,2.876c-0.575,0.909-1.244,1.75-1.939,2.569
			c-0.348,0.41-0.708,0.805-1.032,1.235c-0.304,0.404-0.722,0.794-0.855,1.293c-0.068,0.256,0.174,0.517,0.438,0.438
			c0.518-0.156,0.907-0.605,1.307-0.951c0.454-0.393,0.852-0.839,1.248-1.289c0.78-0.887,1.507-1.836,2.125-2.844
			c0.2-0.327,0.382-0.669,0.553-1.017c0.294,0.324,0.683,0.591,1.046,0.823c0.421,0.27,0.878,0.478,1.344,0.658
			c0.444,0.171,0.931,0.343,1.409,0.345c0.488,0.002,0.966,0.144,1.442-0.029C225.729,261.558,225.708,261.054,225.323,260.9z"/>
		<path style="opacity:0.15;fill:#E9AFBD;" d="M235.94,235.302c0,0,9.047-9.168,9.928-10.734s-3.88,13.549-6.833,13.274
			C238.592,237.261,235.94,235.302,235.94,235.302z"/>
		<path style="opacity:0.15;fill:#E9AFBD;" d="M238.456,265.231c0,0-6.313,3.155-10.317,2.386c0.303,0.154,2.766,9.647,3.303,9.437
			c0.537-0.21,10.646-4.077,10.646-4.077L238.456,265.231z"/>
		<path style="fill:none;stroke:#444C73;stroke-width:0.826;stroke-miterlimit:10;" d="M216.706,226.015"/>
		<g>
			<g>
				<g>
					<line style="fill:none;stroke:#574F7B;stroke-width:0.5001;" x1="235.128" y1="255.178" x2="235.024" y2="255.181"/>
					<line style="fill:none;stroke:#574F7B;stroke-width:0.5001;" x1="235.152" y1="257.012" x2="235.049" y2="257.015"/>
					<line style="fill:none;stroke:#574F7B;stroke-width:0.5001;" x1="235.099" y1="260.685" x2="235.202" y2="260.681"/>
					<line style="fill:none;stroke:#574F7B;stroke-width:0.5001;" x1="235.177" y1="258.848" x2="235.074" y2="258.85"/>
					<line style="fill:none;stroke:#574F7B;stroke-width:0.5001;" x1="235.124" y1="262.519" x2="235.227" y2="262.516"/>
				</g>
			</g>
		</g>
		<path style="fill:#E9AFBD;" d="M217.118,241.891c-1.464,0.256-2.819,1.224-3.879,2.223c-1.093,1.031-2.021,2.216-2.808,3.482
			c-0.266,0.428,0.446,0.855,0.749,0.454c0.855-1.129,1.839-2.118,2.935-3.022c1.074-0.886,2.293-1.649,3.269-2.638
			C217.568,242.205,217.378,241.846,217.118,241.891z"/>
		<path style="fill:#F3D5DE;" d="M206.848,327.897l70.398-21.126c0,0-30.681-25.842-33.997-31.738
			c-3.317-5.896-4.75-8.172-4.792-9.801c-0.032-1.221,7.365-6.75,11.077-9.446c1.264-0.918,1.879-2.485,1.583-4.019l-5.9-30.586
			c0,0-13.79,24.648-28.358,19.228c-0.187-1.392-12.884-1.852-15.967-2.104c-7.118-0.583-13.272,4.598-12.155,9.118
			s14.225,19.348,14.848,24.052C204.205,276.178,206.848,327.897,206.848,327.897z"/>
		<path style="fill:#C4DBE8;" d="M202.331,293.107l48.425-18.404c0.789-0.3,1.666-0.025,2.084,0.652c0,0,36.133,30.632,27.524,39.27
			l-61.565,24.102c-0.011,0.004-3.562,0.947-5.478,1.057c-1.266,0.073-9.973,4.267-10.435-7.887
			c-1.205-12.183-2.203-24.419-1.693-37.033C201.117,294.114,201.585,293.39,202.331,293.107z"/>
		<g>
			<g>
				<g>
					<path style="fill:none;stroke:#DD4E2A;stroke-width:0.826;stroke-miterlimit:10;" d="M163.621,175.088"/>
				</g>
			</g>
		</g>
		<path style="fill:#6676DE;" d="M176.845,141.897c0,0,10.326,23.914,10.326,23.914l9.998,22.117c0,0,10.366-3.388,21.4-2.743
			c11.034,0.645,26.648,8.35,34.941,3.385c0.092-0.089-12.769-2.224-32.737-60.818c-5.202-15.264-11.199-44.719-8.697-46.207
			c2.502-1.488-2.5,1.089-4.069,6.879c-2.165,7.994-3.653,16.266-6.767,23.973c-3,7.424-7.736,14.094-13.199,19.906
			C187.023,133.388,176.58,141.282,176.845,141.897z"/>
		<path style="fill:#6676DE;" d="M248.157,270.734c-16.821,6.135-33.413,12.864-49.771,20.142c-4.841,2.154-0.581,9.238,4.232,7.096
			c15.685-6.978,31.605-13.393,47.733-19.275C255.31,276.889,253.16,268.909,248.157,270.734z"/>
		<g>
			<g>
				<path style="fill:#F3D5DE;" d="M239.604,213.335c-2.733-2.561-6.693-6.692-15.688,4.853
					c-8.995,11.546-11.434,12.481-3.042,17.736c1.958,1.226,6.588-3.092,11.666-8.268
					C237.619,222.482,243.797,217.265,239.604,213.335z"/>
				<path style="fill:#F3D5DE;" d="M224.394,201.697c-4.296-5.219-7.663-3.902-10.996-0.964c-3.349,2.953-6.604,6.484-7.82,7.519
					c-2.306,1.963-5.329,4.442-5.21,7.701c0.054,1.49,0.729,2.951,1.885,3.862c0.313,0.247,0.657,0.452,1,0.657
					c0.29,0.174,0.586,0.349,0.914,0.437c1.527,0.406,3.016-0.994,4.186-1.884c1.345-1.023,3.057-2.588,4.242-3.793
					c1.362-1.385,13.374-10.845,12.091-13.077C224.598,202.001,224.511,201.839,224.394,201.697z"/>
				<path style="fill:#F3D5DE;" d="M232.712,209.82c0,0,1.108-2.242-0.711-3.761c-1.818-1.518-4.479-5.87-10.856-0.109
					c-4.399,3.974-9.867,10.138-11.419,14.825c-1.519,4.587,2.797,7.698,5.414,6.834c2.023-0.668,3.313-3.1,6.462-5.65
					C228.824,216.112,232.712,209.82,232.712,209.82z"/>
				<path style="fill:#F3D5DE;" d="M230.752,237.358c0.471,0.015,0.939-0.1,1.353-0.337c1.941-1.106,11.685-9.321,13.342-14.34
					c0.443-1.34-2.581-4.624-3.583-4.872c-3.094-0.764-8.103,8.564-11.504,11.398c-1.075,0.896-1.93,2.003-2.522,3.232
					c-1.031,2.141,0.346,4.675,2.676,4.902C230.597,237.351,230.676,237.356,230.752,237.358L230.752,237.358z"/>
				<path style="fill:#E9AFBD;" d="M201.381,216.144l3.501-4.183c0.467-0.543,1.201-0.773,1.875-0.579
					c0.333,0.096,0.696,0.227,1.031,0.406c0.689,0.367,1.182,1.541,1.413,2.204c0.1,0.288,0.055,0.606-0.125,0.86
					c-0.728,1.03-2.873,4.19-3.555,4.328C205.075,219.27,201.381,216.144,201.381,216.144z"/>
				<path style="fill:#E9AFBD;" d="M218.118,231.417l3.498-4.185c0.467-0.543,1.2-0.773,1.874-0.58
					c0.333,0.096,0.696,0.227,1.031,0.405c0.689,0.367,1.183,1.54,1.414,2.203c0.101,0.288,0.055,0.606-0.124,0.86
					c-0.727,1.031-2.87,4.192-3.552,4.33C221.814,234.541,218.118,231.417,218.118,231.417z"/>
				<path style="fill:#E9AFBD;" d="M229.448,233.704l2.291-2.741c0.306-0.356,0.786-0.507,1.227-0.38
					c0.218,0.063,0.456,0.148,0.675,0.265c0.452,0.24,0.775,1.009,0.926,1.443c0.066,0.189,0.036,0.397-0.081,0.563
					c-0.476,0.675-1.88,2.746-2.326,2.836C231.869,235.749,229.448,233.704,229.448,233.704z"/>
				<path style="fill:#E9AFBD;" d="M209.57,223.616l3.094-4.489c0.414-0.584,1.124-0.882,1.815-0.754
					c0.341,0.063,0.733,0.125,1.067,0.304c2.158,1.155,2.132,2.134,2.426,2.77c0.128,0.276,0.113,0.596-0.042,0.866
					c-0.628,1.093-2.467,4.436-3.134,4.639C214.36,227.083,209.57,223.616,209.57,223.616z"/>
			</g>
			<g>
				<path style="opacity:0.25;fill:#D795A7;" d="M213.436,206.635c-0.149-0.082-0.305-0.153-0.463-0.218
					c-0.204-0.084-0.437-0.005-0.549,0.183c-0.112,0.188-0.07,0.429,0.102,0.569c0.13,0.106,0.249,0.222,0.373,0.335
					c0.115,0.104,0.246,0.191,0.363,0.293c0.141,0.122,0.266,0.263,0.445,0.331c0.007,0.003,0.005,0.002,0.01,0.004
					c0.006,0.005,0.013,0.009,0.019,0.014c0.033,0.024,0.065,0.051,0.099,0.074c0.088,0.06,0.176,0.08,0.276,0.111
					c0.204,0.063,0.402-0.066,0.388-0.29c-0.006-0.094-0.009-0.19-0.041-0.28c-0.023-0.065-0.068-0.126-0.102-0.186
					c-0.012-0.021-0.024-0.042-0.036-0.062l0.025,0.04c-0.008-0.021-0.015-0.042-0.023-0.062c-0.018-0.051-0.043-0.1-0.074-0.145
					c-0.04-0.056-0.091-0.104-0.139-0.153c-0.063-0.065-0.126-0.128-0.193-0.189C213.766,206.867,213.613,206.733,213.436,206.635z"
					/>
				<path style="opacity:0.25;fill:#D795A7;" d="M214.898,205.03c-0.166-0.079-0.37,0.002-0.46,0.153
					c-0.086,0.145-0.069,0.376,0.085,0.477c0.199,0.13,0.377,0.28,0.547,0.444l0.003,0.003c0.02,0.021,0.038,0.043,0.055,0.065
					c0.035,0.045,0.068,0.092,0.1,0.14c0.033,0.048,0.064,0.096,0.094,0.146c0.049,0.081,0.127,0.144,0.193,0.212
					c-0.015-0.016-0.03-0.031-0.045-0.047c0.085,0.09,0.177,0.171,0.308,0.184c0.102,0.01,0.197-0.006,0.288-0.056
					c0.184-0.101,0.321-0.369,0.212-0.574c-0.045-0.086-0.088-0.178-0.144-0.258c-0.052-0.074-0.146-0.148-0.217-0.209
					c-0.094-0.081-0.194-0.156-0.291-0.233C215.402,205.301,215.155,205.152,214.898,205.03z"/>
				<path style="opacity:0.25;fill:#D795A7;" d="M221.898,213.264c-0.087-0.051-0.173-0.102-0.26-0.152
					c-0.365-0.214-0.751-0.387-1.133-0.569c-0.424-0.202-0.8,0.43-0.423,0.712c0.34,0.253,0.672,0.514,1.032,0.738
					c0.199,0.124,0.4,0.28,0.613,0.378c0.096,0.044,0.204,0.075,0.305,0.105c0.166,0.05,0.293,0.019,0.454-0.024
					c0.124-0.033,0.232-0.21,0.203-0.337c-0.008-0.037-0.017-0.074-0.025-0.111c-0.032-0.137-0.07-0.205-0.17-0.305
					c-0.075-0.075-0.152-0.157-0.236-0.221C222.152,213.396,222.014,213.333,221.898,213.264z"/>
				<path style="opacity:0.25;fill:#D795A7;" d="M222.348,211.458c-0.354-0.238-0.696-0.493-1.027-0.764
					c-0.152-0.125-0.41-0.102-0.528,0.061c-0.121,0.167-0.102,0.395,0.061,0.528c0.336,0.275,0.685,0.535,1.046,0.777
					c0.379,0.254,0.767,0.524,1.236,0.544c0.181,0.008,0.316-0.178,0.204-0.339C223.087,211.901,222.708,211.7,222.348,211.458z"/>
				<path style="opacity:0.25;fill:#D795A7;" d="M228.798,217.395c-0.316-0.315-0.876,0.217-0.571,0.549
					c0.421,0.46,0.862,0.903,1.325,1.321c0.216,0.195,0.433,0.404,0.674,0.567c0.142,0.096,0.29,0.196,0.441,0.276
					c0.138,0.073,0.3,0.103,0.45,0.145c0.259,0.071,0.405-0.275,0.277-0.462c-0.096-0.141-0.18-0.275-0.306-0.393
					c-0.099-0.093-0.201-0.183-0.301-0.274c-0.217-0.196-0.462-0.364-0.688-0.549C229.647,218.203,229.213,217.809,228.798,217.395z
					"/>
				<path style="opacity:0.25;fill:#D795A7;" d="M230.258,215.854c-0.164,0.206-0.096,0.449,0.071,0.62
					c0.526,0.538,1.052,1.075,1.577,1.612c0.521,0.532,1.06,1.084,1.765,1.357c0.216,0.083,0.47-0.13,0.371-0.36
					c-0.31-0.716-0.9-1.252-1.47-1.768c-0.565-0.511-1.13-1.022-1.695-1.534C230.701,215.622,230.4,215.676,230.258,215.854z"/>
				<path style="opacity:0.25;fill:#D795A7;" d="M237.021,224.374c-0.245-0.182-0.489-0.363-0.733-0.545
					c-0.135-0.1-0.348-0.092-0.453,0.052c-0.105,0.145-0.086,0.336,0.052,0.452c0.232,0.197,0.465,0.393,0.697,0.59
					c0.128,0.108,0.253,0.235,0.401,0.314c0.063,0.034,0.127,0.069,0.192,0.099c0.095,0.043,0.183,0.038,0.284,0.035
					c0.112-0.004,0.216-0.134,0.194-0.244c-0.019-0.098-0.034-0.188-0.098-0.269c-0.041-0.052-0.086-0.102-0.129-0.152
					C237.314,224.574,237.162,224.478,237.021,224.374z"/>
				<path style="opacity:0.25;fill:#D795A7;" d="M237.617,222.896c-0.095,0.132-0.098,0.353,0.052,0.452
					c0.178,0.118,0.353,0.241,0.534,0.355c0.188,0.119,0.384,0.228,0.576,0.342c0.069,0.041,0.172,0.002,0.217-0.055
					c0.046-0.058,0.06-0.167,0.005-0.224c-0.154-0.161-0.304-0.327-0.464-0.483c-0.153-0.149-0.311-0.293-0.467-0.439
					C237.946,222.728,237.713,222.763,237.617,222.896z"/>
			</g>
		</g>
		<path style="fill:#E6EBFD;" d="M252.581,186.17c0.057-0.036,0.067-0.045,0.03-0.055C252.52,186.21,252.492,186.204,252.581,186.17
			z"/>
		<path style="fill:#E6EBFD;" d="M212.966,83.966c0-0.002,0-0.003,0.001-0.005C212.95,83.966,212.946,83.967,212.966,83.966z"/>
		<path style="fill:#E6EBFD;" d="M213.065,83.968c0.02-0.032,0.007-0.032-0.059-0.021c-0.02,0.008-0.03,0.01-0.039,0.013
			c0,0.002,0,0.003-0.001,0.005C212.983,83.964,213.019,83.965,213.065,83.968z"/>
		<path style="fill:#E6EBFD;" d="M212.924,84.202c0.011-0.025,0.022-0.053,0.033-0.076c0.057-0.087,0.093-0.132,0.109-0.158
			c-0.047-0.003-0.082-0.004-0.099-0.003C212.952,84.045,212.937,84.124,212.924,84.202z"/>
		<g>
			<path style="fill:#5362B7;" d="M243.27,131.003c11.442,29.554,16.027,55.328,10.241,57.568
				c-5.786,2.24-19.752-19.902-31.193-49.457s-16.027-55.328-10.241-57.568C217.862,79.307,231.828,101.449,243.27,131.003z"/>
			<path style="fill:#8B9CF3;" d="M239.571,239.063c-0.568-2.063-2.046-2.647-3.631-3.761c-1.831-1.286-3.332-3.456-4.812-5.129
				c-3.211-3.633-11.373-7.125-14.4-11.01c-4.637-5.951-7.707-11.303-10.445-16.9c0.454-0.425,0.892-0.869,1.299-1.352
				c0.962-1.142,2.221-2.577,1.781-4.201c-0.467-1.724-1.858-2.167-3.447-2.254c-1.156-0.063-2.298-0.346-3.347-0.838
				c-0.11-0.051-0.223-0.088-0.337-0.126c-1.206-2.693-2.465-5.512-3.892-8.546c-0.078-0.179-8.889,5.722-10.07,6.227
				c-3.917,1.536-8.338,2.197-12.493,2.663c-2.665,0.299-5.363,0.459-8.044,0.304c-2.567-0.148-4.82-0.354-6.957-1.681
				c-0.074,1.462,0.912,5.589-0.861,6.359c-1.705,0.741-1.711,0.744-1.711,0.744c0.031-0.014,1.511,1.968,3.138,4.156
				c-0.283,0.32-0.484,0.698-0.536,1.112c-0.04,0.062-0.082,0.129-0.132,0.207c-0.215,0.336-0.38,0.698-0.472,1.09
				c-0.268,1.156,0.201,2.21,1.006,3.021c1.321,1.332,2.969,2.828,5.004,2.324c0.316-0.078,0.597-0.215,0.863-0.374
				c0.529,0.595,1.069,1.174,1.61,1.751c-0.092,0.173-0.184,0.347-0.276,0.52c-0.607,1.146-0.285,2.755,0.931,3.379
				c0.934,0.479,2.117,0.368,2.886-0.32c3.881,3.74,8.002,7.19,12.235,10.662c6.723,5.514,13.521,10.954,20.678,15.9
				c3.649,2.522,7.391,4.914,11.246,7.108c2.583,1.47,5.116,3.047,7.83,4.273c1.482,0.67,2.977,1.413,4.579,1.75
				c2.693,0.567,3.991-1.447,5.051-3.516c0.669,0.102,1.385-0.08,2.003-0.717c1.054-1.086,2.112-2.316,2.733-3.708
				c0.68-1.525,0.872-3.121,1.041-4.769c0.052-0.513-0.122-0.997-0.424-1.4C239.594,241.003,239.822,239.975,239.571,239.063z"/>
			<path style="fill:#8B9CF3;" d="M237.168,138.046c-0.515-1.656-1.106-3.283-1.821-4.864c-0.641-1.416-1.395-2.852-2.74-3.72
				c-3.324-2.144-6.814,1.013-9.379,2.882c-0.901,0.656-1.324,1.811-0.716,2.832c0.112,0.188,0.274,0.347,0.451,0.49
				c-0.144,1.07,0.072,2.184,0.336,3.236c0.727,2.902,1.889,5.713,3.38,8.304c0.382,0.665,1.184,1.044,1.948,0.995
				c0.774,0.306,1.546,0.17,2.278-0.13c1.557,0.168,3.336-0.661,4.581-1.448c1.261-0.798,2.383-1.953,2.654-3.472
				C238.443,141.453,237.666,139.646,237.168,138.046z"/>
			<path style="opacity:0.15;fill:#5362B7;" d="M256.008,181.052c-7.642-9.182-21.144-26.83-27.633-43.99
				c-6.587-17.419-8.947-40.08-9.813-52.098c-2.64-2.776-4.879-4.04-6.486-3.418c-5.786,2.24-1.201,28.014,10.241,57.568
				c11.442,29.554,25.408,51.697,31.194,49.457C255.203,187.917,256.002,185.238,256.008,181.052z"/>
			<path style="fill:#6676DE;" d="M176.845,141.897c0,0,10.326,23.914,10.326,23.914l9.998,22.117c0,0,10.366-3.388,21.4-2.743
				c11.034,0.645,26.648,8.35,34.941,3.385c0.092-0.089-12.769-2.224-32.737-60.818c-5.202-15.264-11.199-44.719-8.697-46.207
				c2.502-1.488-2.5,1.089-4.069,6.879c-2.165,7.994-3.653,16.266-6.767,23.973c-3,7.424-7.736,14.094-13.199,19.906
				C187.023,133.388,176.58,141.282,176.845,141.897z"/>
			<g>
				<path style="opacity:0.15;fill:#5362B7;" d="M234.196,248.693c-1.714,2.075-2.822,4.623-3.248,7.279
					c1.328-0.551,2.168-1.946,2.896-3.367c0.669,0.102,1.385-0.08,2.003-0.717c1.054-1.086,2.112-2.316,2.733-3.708
					c0.68-1.525,0.872-3.121,1.041-4.769c0.052-0.513-0.122-0.997-0.424-1.4c0.398-1.009,0.626-2.037,0.374-2.948
					c-0.568-2.063-2.046-2.647-3.631-3.761c-1.831-1.286-3.332-3.456-4.812-5.129c-3.211-3.633-11.373-7.125-14.4-11.01
					c-4.637-5.951-7.707-11.303-10.445-16.9c0.454-0.425,0.892-0.869,1.299-1.352c0.962-1.142,2.221-2.577,1.781-4.201
					c-0.467-1.724-1.858-2.167-3.447-2.254c-1.156-0.063-2.298-0.346-3.347-0.838c-0.11-0.051-0.223-0.088-0.337-0.126
					c-1.206-2.693-2.465-5.512-3.892-8.546c-0.078-0.179-8.889,5.722-10.07,6.227c-3.917,1.536-8.338,2.197-12.493,2.663
					c-2.665,0.299-5.363,0.459-8.044,0.304c-2.567-0.148-4.82-0.354-6.957-1.681c-0.074,1.462,0.912,5.589-0.861,6.359
					c-1.705,0.741-1.711,0.744-1.711,0.744c0.031-0.014,1.474,1.92,3.077,4.075c1.761-0.465,3.597-0.65,5.414-0.526
					c7.395,2.532,15.921,1.51,22.508-2.698c0.757-0.484,1.516-1.018,2.397-1.193c0.771-0.153,1.565-0.016,2.349,0.037
					c2.416,0.163,4.879-0.508,6.879-1.872c3.112,18.226,15.408,34.643,32.022,42.758c1.654,0.808,3.567,1.813,3.86,3.63
					C237.014,245.655,235.409,247.223,234.196,248.693z"/>
			</g>
			<path style="fill:#C4DBE8;" d="M171.758,144.664c0,0-29.505,10.62-21.744,30.818c8.265,21.512,17.44,23.404,20.126,23.619
				c2.687,0.215,6.918-0.611,12.777-2.932c5.86-2.321,10.153-5.309,10.153-5.309s-13.958-27.31-14.96-29.647
				C177.107,158.876,171.758,144.664,171.758,144.664z"/>
			<path style="opacity:0.2;fill:#DFE4F2;" d="M170.004,155.331c1.63-0.819,3.281-1.591,5.06-1.94
				c-1.645-4.313-3.306-8.727-3.306-8.727s-29.505,10.62-21.745,30.818c1,2.603,1.969,4.919,2.903,6.98
				c0.492,1.084,2.107,0.508,1.833-0.65c-0.008-0.035-0.016-0.07-0.024-0.105c-1.062-4.548-1.259-9.476,0.61-13.755
				C157.973,161.915,164.117,158.288,170.004,155.331z"/>
			<path style="fill:#6676DE;" d="M164.819,195.58c-3.053-9.369-8.341-17.854-15.409-24.72l-0.301-0.293
				c-3.723,2.437-7.855,5.379-7.036,8.047c0.82,2.667,2.306,5.072,3.776,7.444c0.207,0.333,0.414,0.666,0.62,0.999
				c-0.409,0.25-0.771,0.575-0.997,1.004c-0.101,0.239-0.202,0.478-0.303,0.717c-0.064,0.238-0.089,0.475-0.096,0.713
				c-0.114,0.291-0.184,0.594-0.171,0.919c-0.015,0.413,0.071,0.798,0.259,1.156c0.121,0.372,0.328,0.694,0.62,0.966
				c0.572,0.525,1.322,0.914,2.121,0.879c0.266-0.036,0.532-0.072,0.798-0.107c0.463-0.13,0.863-0.367,1.215-0.688
				c0.748,1.206,1.496,2.413,2.244,3.619c1.637,2.64,3.934,5.629,7.025,5.326c1.918-0.188,4.94-2.576,6.298-3.944L164.819,195.58z"
				/>
			<path style="opacity:0.15;fill:#5362B7;" d="M164.819,195.58c-3.053-9.369-8.342-17.854-15.409-24.72l-0.301-0.293
				c-1.024,0.67-2.077,1.38-3.052,2.112c2.585,2.734,6.792,7.416,9.943,12.051c3.167,4.659,5.69,11.029,7.07,14.922
				c0.961-0.7,1.839-1.457,2.413-2.036L164.819,195.58z"/>
			<path style="fill:#3E4B8F;" d="M250.14,144.578c-1.586-4.796-3.318-9.539-5.149-14.241c-1.813-4.709-3.725-9.382-5.782-13.996
				c-2.046-4.618-4.182-9.204-6.52-13.704c-2.342-4.499-4.787-8.961-7.664-13.246c-1.453-2.139-2.976-4.246-4.827-6.242
				c-0.92-0.999-1.941-1.968-3.223-2.856c-0.633-0.443-1.401-0.854-2.308-1.173c-0.084-0.024-0.172-0.047-0.26-0.069
				c-0.684,1.465-1.139,3.215-1.441,4.909c0.01-0.003,0.019-0.005,0.039-0.013c0.066-0.012,0.079-0.011,0.059,0.021
				c0.033,0.002,0.069,0.005,0.118,0.013c0.276,0.099,0.642,0.24,1.044,0.506c0.8,0.509,1.657,1.228,2.459,2.048
				c1.624,1.624,3.13,3.536,4.562,5.495c2.85,3.952,5.436,8.19,7.824,12.533c2.37,4.357,4.605,8.806,6.669,13.337
				c2.061,4.532,3.984,9.132,5.808,13.77c1.774,4.658,3.45,9.352,4.978,14.091c1.525,4.74,2.868,9.533,4.05,14.35
				c1.159,4.818,2.101,9.693,2.655,14.534c0.26,2.412,0.434,4.84,0.327,7.134c-0.04,1.147-0.191,2.255-0.439,3.17
				c-0.118,0.468-0.294,0.818-0.431,1.077c-0.031,0.039-0.055,0.064-0.078,0.089c0.037,0.01,0.027,0.019-0.03,0.055
				c-0.089,0.034-0.061,0.04,0.03-0.055c-0.029-0.008-0.086-0.017-0.187-0.043c-0.241-0.109-0.555-0.255-0.903-0.497
				c1.251,0.944,3.429,2.454,5.44,3.198c0.032-0.051,0.068-0.102,0.098-0.153c0.456-0.846,0.747-1.667,0.916-2.421
				c0.35-1.52,0.453-2.924,0.46-4.282c0.024-2.722-0.268-5.305-0.635-7.865c-0.758-5.106-1.955-10.051-3.253-14.953
				C253.246,154.198,251.737,149.37,250.14,144.578z"/>
			<path style="opacity:0.15;fill:#5362B7;" d="M218.571,185.186c11.034,0.645,26.647,8.35,34.94,3.385
				c0.037-0.037-2.09-0.417-5.98-4.851c-1.373,0.141-2.747,0.306-4.123,0.354c-5.143,0.178-10.194-1.298-15.04-3.03
				c-2.754-0.985-5.498-2.068-7.95-3.662c-1.642-1.068-3.164-2.369-4.992-3.073c-4.221-1.626-8.618,0.284-12.626,1.622
				c-4.038,1.349-7.804,1.205-6.568,6.794c0.346,1.566,1.178,3.033,1.227,4.635c0.005,0.162-0.014,0.323-0.023,0.484
				C199.125,187.327,208.574,184.602,218.571,185.186z"/>
			<path style="fill:#D5E9F2;" d="M197.439,194.185l-0.015,0.007c-3.219,1.517-7.094,0.125-8.611-3.094l-20.762-44.045
				c-1.517-3.219-0.125-7.094,3.094-8.611l0.015-0.007c3.219-1.517,7.094-0.125,8.611,3.094l20.762,44.045
				C202.05,188.792,200.657,192.667,197.439,194.185z"/>
			<path style="fill:#E6EBFD;" d="M251.521,185.575c-0.029-0.02-0.057-0.037-0.086-0.058c-0.299-0.211-0.607-0.462-0.916-0.73
				c-0.016-0.014-0.041-0.034-0.041-0.034s0.024,0.02,0.041,0.034c-0.478-0.414-0.959-0.881-1.422-1.393
				c-1.542-1.669-2.965-3.621-4.313-5.617c-2.695-4.02-5.068-8.345-7.34-12.717c-2.272-4.378-4.362-8.866-6.367-13.395
				c-2.017-4.524-3.896-9.115-5.677-13.744c-1.8-4.622-3.502-9.281-5.057-13.984c-1.566-4.699-3.044-9.424-4.312-14.191
				c-1.264-4.761-2.422-9.557-3.136-14.344c-0.236-1.618-0.425-3.242-0.522-4.83c0,0.056,0,0.09,0,0.09s0-0.034,0-0.09
				c-0.046-0.752-0.077-1.497-0.072-2.227c-0.006-1.137,0.099-2.235,0.299-3.144c0.086-0.424,0.217-0.746,0.325-1
				c0.013-0.079,0.028-0.158,0.042-0.237c-0.02,0.001-0.016,0,0.001-0.005c0.302-1.694,0.757-3.443,1.441-4.909
				c-0.923-0.236-2.064-0.337-3.26,0.094c-1.295,0.512-2.131,1.462-2.677,2.317c-0.479,0.842-0.796,1.666-0.989,2.422
				c-0.398,1.525-0.547,2.94-0.6,4.308c-0.115,2.744,0.088,5.354,0.368,7.942c0.597,5.16,1.578,10.183,2.772,15.143
				c2.398,9.913,5.596,19.557,9.216,29.03c3.702,9.441,7.832,18.723,12.734,27.667c2.457,4.471,5.115,8.845,8.148,13.062
				c1.537,2.102,3.143,4.168,5.076,6.12c0.96,0.976,2.023,1.922,3.344,2.781c0.652,0.429,1.441,0.825,2.362,1.124
				c0.98,0.265,2.238,0.404,3.54-0.089c1.211-0.503,1.997-1.382,2.521-2.2C254.95,188.029,252.772,186.52,251.521,185.575z"/>
			<g>
				<path style="opacity:0.2;fill:#FFFFFF;" d="M211.722,82.102c-1.134,1.147-2.893,3.289-3.714,6.323
					c-2.166,7.994-3.653,16.266-6.768,23.973c-2.999,7.423-7.735,14.094-13.198,19.906c-1.02,1.084-11.462,8.978-11.196,9.593
					c0,0,0.629,1.457,1.575,3.647c1.133-0.836,2.392-1.502,3.743-1.905c5.936-1.772,13.403,0.695,17.845-3.624
					c3.826-3.721,2.747-9.943,3.324-15.249c0.508-4.674,2.498-9.04,4.46-13.313c1.891-4.115,3.782-8.23,5.672-12.345
					C211.893,90.937,211.059,84.121,211.722,82.102z"/>
				<path style="opacity:0.2;fill:#FFFFFF;" d="M212.077,81.546c-0.148,0.088-0.264,0.281-0.355,0.556
					C212.752,81.061,213.268,80.838,212.077,81.546z"/>
			</g>
		</g>
		<path style="fill:#E9AFBD;" d="M187.888,378.998c-0.079-6.024-8.303-5.301-8.303-5.301s4.062-7.187-1.389-9.752
			c-13.243-6.23-12.393,18.626-12.393,18.626S188.079,393.632,187.888,378.998z"/>
		<path style="fill:#E9AFBD;" d="M101.178,254.822c-5.472-3.678-9.938,4.176-9.938,4.176s-3.942-8.129-9.644-4.818
			c-13.849,8.045,9.056,22.747,9.056,22.747S114.471,263.757,101.178,254.822z"/>
		<path style="fill:#E9AFBD;" d="M416.5,349.016c-4.454-2.994-8.089,3.399-8.089,3.399s-3.209-6.617-7.849-3.922
			c-11.273,6.548,7.371,18.515,7.371,18.515S427.32,356.289,416.5,349.016z"/>
		<path style="fill:#6C80E3;" d="M165.971,326.16c-3.52-8.137-7.476-17.696-15.194-22.573c-6.639-4.195-13.95,2.395-14.049,9.05
			c-0.111,7.511,5.101,15.798,8.19,22.473c3.457,7.471,5.878,15.759,13.919,19.542c3.562,1.676,8.122,0.521,9.952-3.164
			C173.028,342.952,169.479,334.27,165.971,326.16z"/>
		<path style="fill:#94A4FB;" d="M299.835,59.785c-9.12-11.872-26.097-12.734-37.776-4.14
			c-14.562,10.714-14.511,31.499,0.811,41.782c14.129,9.482,33.618,3.537,40.391-11.859
			C306.915,77.258,305.322,66.928,299.835,59.785z"/>
		<path id="XMLID_96_" style="fill:#3E4B8F;" d="M280.072,60.405c-19.402-2.066-22.966,26.735-3.647,29.46
			C295.829,91.932,299.39,63.13,280.072,60.405z M279.754,62.967c2.793,0.346,5.244,1.62,7.103,3.463
			c-1.715,1.724-3.943,2.979-6.68,3.759c-0.964-2.438-2.113-4.842-3.455-7.204C277.709,62.859,278.724,62.84,279.754,62.967z
			 M274.102,63.611c1.37,2.341,2.544,4.725,3.524,7.143c-3.092,0.508-6.708,0.519-10.829,0.038
			C268.078,67.417,270.779,64.814,274.102,63.611z M266.08,73.629c0.013-0.105,0.04-0.206,0.056-0.311
			c4.724,0.578,8.866,0.54,12.413-0.112c0.214,0.618,0.416,1.238,0.605,1.86c-4.308,0.783-8.055,3.017-11.218,6.687
			C266.44,79.426,265.714,76.584,266.08,73.629z M276.741,87.304c-2.815-0.349-5.283-1.638-7.147-3.505
			c2.886-3.493,6.278-5.578,10.242-6.244c0.77,3.112,1.23,6.271,1.375,9.467C279.787,87.378,278.282,87.494,276.741,87.304z
			 M283.75,86.086c-0.18-2.954-0.619-5.875-1.308-8.757c2.342-0.04,4.866,0.358,7.579,1.183
			C289.061,81.865,286.743,84.578,283.75,86.086z M281.76,74.783c-0.214-0.728-0.439-1.456-0.686-2.179
			c2.987-0.877,5.471-2.262,7.431-4.167c1.413,2.162,2.146,4.775,1.962,7.515C287.37,75.043,284.467,74.655,281.76,74.783z"/>
		<g>
			<path style="fill:#94A4FB;" d="M311.078,397.814c-6.21-6.3-14.725-8.441-23.27-6.701c-10.793,2.198-18.906,12.756-19.949,23.469
				c-1.65,16.946,17.637,27.847,32.71,23.564c8.191-2.327,14.179-9.056,16.58-17.066C319.55,413.07,316.885,403.705,311.078,397.814
				z"/>
			<g id="XMLID_26_">
				<path id="XMLID_55_" style="fill:#FFFFFF;" d="M292.894,405.505c3.029,0,3.388,0.012,4.584,0.066
					c1.106,0.05,1.707,0.235,2.107,0.391c0.529,0.206,0.907,0.452,1.304,0.849c0.397,0.397,0.643,0.775,0.848,1.304
					c0.156,0.4,0.34,1,0.391,2.107c0.054,1.196,0.066,1.555,0.066,4.584c0,3.029-0.012,3.388-0.066,4.584
					c-0.051,1.106-0.235,1.707-0.391,2.107c-0.206,0.53-0.451,0.908-0.848,1.305c-0.397,0.397-0.775,0.643-1.304,0.849
					c-0.4,0.155-1.001,0.34-2.107,0.391c-1.196,0.054-1.555,0.066-4.584,0.066c-3.029,0-3.388-0.012-4.584-0.066
					c-1.106-0.05-1.707-0.235-2.106-0.391c-0.53-0.206-0.908-0.452-1.305-0.849c-0.397-0.397-0.643-0.775-0.849-1.305
					c-0.155-0.4-0.34-1-0.391-2.107c-0.055-1.196-0.066-1.555-0.066-4.584c0-3.029,0.012-3.388,0.066-4.584
					c0.051-1.106,0.236-1.707,0.391-2.107c0.206-0.529,0.452-0.907,0.849-1.304c0.397-0.397,0.775-0.643,1.305-0.849
					c0.4-0.155,1.001-0.34,2.106-0.391C289.507,405.517,289.865,405.505,292.894,405.505 M292.894,403.461
					c-3.081,0-3.467,0.013-4.677,0.068c-1.208,0.055-2.032,0.247-2.754,0.527c-0.746,0.29-1.379,0.678-2.009,1.309
					c-0.631,0.631-1.019,1.264-1.308,2.009c-0.281,0.722-0.473,1.546-0.527,2.754c-0.055,1.21-0.068,1.596-0.068,4.677
					s0.013,3.467,0.068,4.677c0.055,1.207,0.247,2.032,0.527,2.754c0.29,0.746,0.678,1.379,1.308,2.009
					c0.631,0.631,1.263,1.019,2.009,1.309c0.722,0.28,1.546,0.472,2.754,0.527c1.21,0.055,1.596,0.068,4.677,0.068
					c3.081,0,3.467-0.013,4.677-0.068c1.208-0.055,2.032-0.247,2.754-0.527c0.746-0.29,1.379-0.678,2.009-1.309
					c0.631-0.631,1.019-1.263,1.309-2.009c0.28-0.722,0.472-1.546,0.527-2.754c0.055-1.21,0.068-1.596,0.068-4.677
					s-0.013-3.467-0.068-4.677c-0.055-1.207-0.247-2.032-0.527-2.754c-0.29-0.746-0.678-1.379-1.309-2.009
					c-0.631-0.631-1.263-1.019-2.009-1.309c-0.722-0.28-1.546-0.472-2.754-0.527C296.362,403.474,295.975,403.461,292.894,403.461"
					/>
				<path id="XMLID_28_" style="fill:#FFFFFF;" d="M292.894,409.681c-2.83,0-5.125,2.294-5.125,5.125s2.295,5.125,5.125,5.125
					c2.831,0,5.125-2.294,5.125-5.125S295.725,409.681,292.894,409.681 M292.894,418.132c-1.837,0-3.327-1.489-3.327-3.327
					c0-1.837,1.489-3.327,3.327-3.327c1.837,0,3.327,1.489,3.327,3.327C296.221,416.643,294.732,418.132,292.894,418.132"/>
				<path id="XMLID_27_" style="fill:#FFFFFF;" d="M299.381,408.45c0,0.752-0.61,1.361-1.361,1.361c-0.752,0-1.362-0.61-1.362-1.361
					s0.609-1.361,1.362-1.361C298.771,407.089,299.381,407.699,299.381,408.45"/>
			</g>
		</g>
		
			<line style="fill:none;stroke:#5362B7;stroke-linecap:round;stroke-miterlimit:10;stroke-dasharray:5;" x1="94.495" y1="199.652" x2="129.211" y2="283.714"/>
		
			<line style="fill:none;stroke:#5362B7;stroke-linecap:round;stroke-miterlimit:10;stroke-dasharray:5;" x1="215.715" y1="409.812" x2="255.649" y2="416.388"/>
		
			<line style="fill:none;stroke:#5362B7;stroke-linecap:round;stroke-miterlimit:10;stroke-dasharray:5;" x1="394.948" y1="204.999" x2="391.865" y2="235.924"/>
		
			<line style="fill:none;stroke:#5362B7;stroke-linecap:round;stroke-miterlimit:10;stroke-dasharray:5;" x1="281.639" y1="107.938" x2="289.929" y2="196.498"/>
		
			<line style="fill:none;stroke:#5362B7;stroke-linecap:round;stroke-miterlimit:10;stroke-dasharray:5;" x1="299.381" y1="385.527" x2="301.822" y2="361.803"/>
		<polygon style="opacity:0.15;fill:#A7C3CE;" points="242.087,277.057 259.43,327.05 296.658,314.041 288.103,285.912 
			268.271,269.101 244.644,265.923 		"/>
		<g>
			<path style="fill:#F3D5DE;" d="M197.05,259.58c-1.202,0.153-7.403-2.727-8.33-3.507c-2.626-2.208-7.36-11.858-9.534-17.816
				c-2.739-7.507-5.563-15.105-5.672-17.568c-0.11-2.463,5.908-9.687,8.596-8.236c2.688,1.451,15.573,15.911,18.142,19.611
				c2.569,3.7,5.158,7.848,5.158,7.848S208.537,258.12,197.05,259.58z"/>
			<path style="fill:#F3D5DE;" d="M174.013,219.699c0,0,3.343-8.652,13.404-10.587c6.611-1.272,5.465,5.49,3.899,7.983
				c-1.611,2.567-5.345,5.664-6.536,7.227C182.432,227.402,180.195,223.675,174.013,219.699z"/>
			<path style="opacity:0.25;fill:#D795A7;" d="M180.828,221.119c-0.279,0.018-0.539,0.009-0.816,0.06
				c-0.218,0.04-0.435,0.08-0.653,0.12c-0.887,0.163-1.774,0.327-2.661,0.49c-0.362,0.067-0.565,0.523-0.501,0.848
				c0.065,0.331,0.393,0.679,0.766,0.618c0.89-0.145,1.781-0.29,2.671-0.435c0.218-0.036,0.437-0.07,0.655-0.107
				c0.26-0.044,0.487-0.135,0.738-0.208c0.21-0.061,0.43-0.1,0.632-0.183c0.225-0.093,0.442-0.213,0.661-0.318
				c0.347-0.168,0.236-0.803-0.149-0.845c-0.244-0.026-0.492-0.066-0.736-0.076C181.233,221.075,181.03,221.106,180.828,221.119z"/>
			<path style="opacity:0.25;fill:#D795A7;" d="M181.576,224.971c-0.306,0.053-0.608,0.1-0.902,0.199
				c-0.238,0.08-0.482,0.149-0.71,0.255c-0.238,0.111-0.476,0.222-0.714,0.333c-0.331,0.154-0.552,0.433-0.483,0.817
				c0.058,0.324,0.382,0.649,0.739,0.596c0.251-0.037,0.503-0.075,0.754-0.112c0.318-0.047,0.62-0.129,0.929-0.212
				c0.257-0.069,0.49-0.166,0.734-0.273c0.051-0.023,0.103-0.044,0.154-0.068c0.178-0.08,0.275-0.152,0.418-0.287
				c0.107-0.101,0.196-0.213,0.26-0.346c0.137-0.286,0.033-0.6-0.236-0.761c-0.128-0.077-0.268-0.119-0.415-0.145
				C181.913,224.935,181.759,224.939,181.576,224.971z"/>
		</g>
	</g>
</g>
</svg>
