<svg id="Capa_1" enable-background="new 0 0 512 512" height="512" viewBox="0 0 512 512" width="512" xmlns="http://www.w3.org/2000/svg"><g><g><path d="m85.609 208.528-19.218-23.056 156.943-132.796 19.219 23.056z" fill="#f3f5f9"/></g><g><path d="m426.391 208.528-156.944-132.796 19.219-23.056 156.943 132.796z" fill="#e1e6f0"/></g><g><path d="m512 512h-512v-330h512z" fill="#ffbe40"/></g><path d="m256 182h256v330h-256z" fill="#ff9f40"/><g id="_x31_3-24_7_2_"><g><path d="m114.994 373.997c16.055-12.026 36.006-26.997 36.006-56.997 0-24.814-20.186-45-45-45s-45 20.186-45 45v15h30v-15c0-8.276 6.738-15 15-15s15 6.724 15 15c0 14.297-8.672 21.504-23.994 33.003-16.055 12.026-36.006 26.997-36.006 56.997v15h90v-30h-55.635c4.014-6.05 10.694-11.294 19.629-18.003z" fill="#66538c"/><path d="m226 332h-30v-60h-30v90h60v60h30c0-11.515 0-157.508 0-150h-30z" fill="#66538c"/><g fill="#443d66"><path d="m361 272v30h55.781l-28.974 115.913 29.121 7.28 38.291-153.193z"/><path d="m239.154 331.991h153.693v30.017h-153.693z" transform="matrix(.243 -.97 .97 .243 -97.281 569.405)"/></g></g><g><path d="m256 90c-24.814 0-45-20.186-45-45s20.186-45 45-45 45 20.186 45 45-20.186 45-45 45z" fill="#f73"/></g></g><path d="m301 45c0-24.814-20.186-45-45-45v90c24.814 0 45-20.186 45-45z" fill="#e64c2e"/></g></svg>