<svg id="Layer_1" enable-background="new 0 0 512 512" viewBox="0 0 512 512" xmlns="http://www.w3.org/2000/svg" width="300" height="300" version="1.1" xmlns:xlink="http://www.w3.org/1999/xlink" xmlns:svgjs="http://svgjs.dev/svgjs"><g width="100%" height="100%" transform="matrix(1,0,0,1,0,0)"><g id="XMLID_220_"><path id="XMLID_506_" d="m0 0h512v512h-512z" fill="#ffffff" fill-opacity="1" data-original-color="#f3726eff" stroke="none" stroke-opacity="1" style=""/><path id="XMLID_556_" d="m385.3 84.7-71.1.8 12.9 21.8-246.1 145.5 26.8 31.5v143l89.5 84.7h314.7v-307.3z" fill="#ffffff" opacity=".6" fill-opacity="1" data-original-color="#f45858ff" stroke="none" stroke-opacity="1" style=""/><g id="XMLID_218_" fill="#fffdfd"><path id="XMLID_551_" d="m371.8 141.4h59.2v285.9h-59.2z" fill="#536878" fill-opacity="1" data-original-color="#fffdfdff" stroke="none" stroke-opacity="1"/><path id="XMLID_219_" d="m283.8 189h59.2v238.2h-59.2z" fill="#536878" fill-opacity="1" data-original-color="#fffdfdff" stroke="none" stroke-opacity="1"/><path id="XMLID_221_" d="m195.8 236.7h59.2v190.6h-59.2z" fill="#536878" fill-opacity="1" data-original-color="#fffdfdff" stroke="none" stroke-opacity="1"/><path id="XMLID_223_" d="m107.8 284.3h59.2v142.9h-59.2z" fill="#536878" fill-opacity="1" data-original-color="#fffdfdff" stroke="none" stroke-opacity="1"/><path id="XMLID_224_" d="m314.2 85.5 12.9 21.8-246.1 145.5 9.7 16.4 246.1-145.5 13.6 23 34.9-62z" fill="#536878" fill-opacity="1" data-original-color="#fffdfdff" stroke="none" stroke-opacity="1"/></g></g></g></svg>