<svg id="Layer_1" enable-background="new 0 0 512 512" height="300" viewBox="0 0 512 512" width="300" xmlns="http://www.w3.org/2000/svg" version="1.1" xmlns:xlink="http://www.w3.org/1999/xlink" xmlns:svgjs="http://svgjs.dev/svgjs"><g width="100%" height="100%" transform="matrix(1,0,0,1,0,0)"><ellipse cx="256" cy="256" fill="#00487c" rx="256" ry="256" transform="matrix(.707 -.707 .707 .707 -106.039 256)" fill-opacity="1" data-original-color="#2196f3ff" stroke="none" stroke-opacity="1" style=""/><path d="m379.395 379.396c-33.412 33.412-78.239 51.061-123.639 51.063-25.206.002-50.579-5.436-74.293-16.634-5.993-2.83-8.557-9.982-5.727-15.975 2.831-5.993 9.983-8.557 15.975-5.727 20.446 9.655 42.341 14.344 64.073 14.346 39.164.002 77.816-15.22 106.64-44.044 44.817-44.818 56.752-113.422 29.699-170.713-2.83-5.993-.266-13.145 5.727-15.975 5.995-2.831 13.146-.266 15.975 5.727 31.369 66.427 17.532 145.969-34.43 197.932zm-59.106-259.519c5.994 2.831 13.146.266 15.975-5.727 2.83-5.993.266-13.145-5.727-15.975-66.426-31.368-145.97-17.533-197.932 34.43-51.962 51.962-65.798 131.505-34.43 197.932 2.048 4.338 6.36 6.879 10.859 6.879 1.716 0 3.46-.37 5.116-1.152 5.993-2.83 8.557-9.982 5.727-15.975-27.054-57.291-15.119-125.895 29.699-170.713s113.422-56.754 170.713-29.699zm-64.289 238.808c6.627 0 12-5.373 12-12v-11.841c24.727-4.572 43.276-22.948 43.276-44.87 0-25.35-24.796-45.974-55.276-45.974-16.953 0-31.276-10.063-31.276-21.974s14.323-21.974 31.276-21.974c11.845 0 22.583 4.742 28.022 12.376 3.845 5.397 11.338 6.655 16.736 2.81 5.397-3.846 6.655-11.339 2.81-16.736-7.8-10.947-20.832-18.595-35.568-21.327v-11.86c0-6.627-5.373-12-12-12s-12 5.373-12 12v11.841c-24.727 4.572-43.276 22.948-43.276 44.87 0 25.35 24.796 45.974 55.276 45.974 16.953 0 31.276 10.063 31.276 21.974s-14.323 21.974-31.276 21.974c-12.837 0-24.603-5.779-29.278-14.381-3.165-5.823-10.45-7.978-16.274-4.813-5.823 3.165-7.978 10.451-4.813 16.274 7.214 13.273 21.597 22.734 38.365 25.827v11.831c0 6.627 5.373 11.999 12 11.999z" fill="#ffffff" fill-opacity="1" data-original-color="#ffffffff" stroke="none" stroke-opacity="1"/></g></svg>