<svg id="Layer_1" enable-background="new 0 0 512 512" viewBox="0 0 512 512" xmlns="http://www.w3.org/2000/svg" width="300" height="300" version="1.1" xmlns:xlink="http://www.w3.org/1999/xlink" xmlns:svgjs="http://svgjs.dev/svgjs"><g width="100%" height="100%" transform="matrix(1,0,0,1,0,0)"><g id="XMLID_37_"><circle id="XMLID_310_" cx="256" cy="256" fill="#536878" r="250" fill-opacity="1" data-original-color="#65cef7ff" stroke="none" stroke-opacity="1"/><g id="XMLID_56_" fill="#fff"><g id="XMLID_57_"><path id="XMLID_59_" d="m220.8 283.2h-40.8v-8.9l18-19.8c2.4-2.7 4.2-5.2 5.3-7.3s1.7-4 1.7-5.6c0-2.3-.5-4.1-1.5-5.4s-2.7-2-4.9-2c-2.1 0-3.8.9-4.9 2.6-1.2 1.7-1.7 3.9-1.7 6.6h-13.3l-.1-.2c-.1-5.4 1.6-10 5.4-13.8 3.7-3.8 8.6-5.7 14.7-5.7 6.4 0 11.4 1.6 14.8 4.7 3.5 3.2 5.2 7.5 5.2 13 0 3.7-1 7-2.9 9.8-1.9 2.9-5.5 7.1-10.6 12.7l-7.1 8.5.1.2h22.6z" fill="#ffffff" fill-opacity="1" data-original-color="#ffffffff" stroke="none" stroke-opacity="1"/><path id="XMLID_62_" d="m263.3 260.3h5.9v10.5h-5.9v12.4h-13.6v-12.4h-23.3l-.8-8.4 24.1-37.7v-.1h13.6zm-26 0h12.4v-18.2h-.2l-1.5 3z" fill="#ffffff" fill-opacity="1" data-original-color="#ffffffff" stroke="none" stroke-opacity="1"/><path id="XMLID_65_" d="m284 288.3h-13.7l20-63.6h13.7z" fill="#ffffff" fill-opacity="1" data-original-color="#ffffffff" stroke="none" stroke-opacity="1"/><path id="XMLID_67_" d="m348.7 235.1c-6.2 7.1-10.5 13.6-12.8 19.6s-3.4 12.9-3.4 20.9v7.7h-13.6v-7.7c0-7.8 1.4-15 4.3-21.5 2.8-6.5 7-12.8 12.5-18.9h-29.3v-10.5h42.4v10.4z" fill="#ffffff" fill-opacity="1" data-original-color="#ffffffff" stroke="none" stroke-opacity="1"/></g><path id="XMLID_58_" d="m118.3 230.5c-12 66.4 24.1 135.5 91.9 160.3 66.2 24.2 142.1-4.8 175.3-67 38.9-72.8 8.4-162.8-65.4-197.5-59.3-27.9-128.3-11.4-169.3 35.8-3.9 4.5-2.4 11.6 3 14.1l5.7 2.7c4.7 2.2 10.4 1.4 13.9-2.4 36.5-39.2 97.2-50.4 146.7-20.4 46.3 28.1 67.4 86 50 137.3-22.9 67.2-98.4 98-160.8 68.6-46.7-22-72-71.1-66.3-119.7l6.8 3.2c2.8 1.3 6-.9 5.7-3.9l-3.4-41.9c-.2-3.1-3.7-4.7-6.3-3l-34.6 23.9c-2.5 1.8-2.2 5.6.6 6.9z" fill="#ffffff" fill-opacity="1" data-original-color="#ffffffff" stroke="none" stroke-opacity="1"/></g></g></g></svg>