<svg id="Layer_1" enable-background="new 0 0 511.5 511.5" height="300" viewBox="0 0 511.5 511.5" width="300" xmlns="http://www.w3.org/2000/svg" version="1.1" xmlns:xlink="http://www.w3.org/1999/xlink" xmlns:svgjs="http://svgjs.dev/svgjs"><g width="100%" height="100%" transform="matrix(1,0,0,1,0,0)"><circle cx="255.5" cy="256" fill="#ffffff" r="216" fill-opacity="1" data-original-color="#ebebebff" stroke="none" stroke-opacity="1"/><path d="m327.5 152h80v224h-80z" fill="#536878" fill-opacity="1" data-original-color="#b2cc5dff" stroke="none" stroke-opacity="1"/><path d="m215.5 232h80v144h-80z" fill="#425572" fill-opacity="1" data-original-color="#425572ff" stroke="none" stroke-opacity="1"/><path d="m103.5 280h80v96h-80z" fill="#425572" fill-opacity="1" data-original-color="#425572ff" stroke="none" stroke-opacity="1"/><path d="m407.5 384h-80c-4.418 0-8-3.582-8-8v-224c0-4.418 3.582-8 8-8h80c4.418 0 8 3.582 8 8v224c0 4.418-3.582 8-8 8zm-72-16h64v-208h-64z" fill="#000000" fill-opacity="1" data-original-color="#000000ff" stroke="none" stroke-opacity="1"/><path d="m295.5 384h-80c-4.418 0-8-3.582-8-8v-144c0-4.418 3.582-8 8-8h80c4.418 0 8 3.582 8 8v144c0 4.418-3.582 8-8 8zm-72-16h64v-128h-64z" fill="#000000" fill-opacity="1" data-original-color="#000000ff" stroke="none" stroke-opacity="1"/><path d="m183.5 384h-80c-4.418 0-8-3.582-8-8v-96c0-4.418 3.582-8 8-8h80c4.418 0 8 3.582 8 8v96c0 4.418-3.582 8-8 8zm-72-16h64v-80h-64z" fill="#000000" fill-opacity="1" data-original-color="#000000ff" stroke="none" stroke-opacity="1"/><path d="m261.157 122.343c-33.318-33.318-33.018-34.049-37.133-34.318-5.055-.332-4.304.441-38.181 34.318-5.054 5.054-1.406 13.657 5.657 13.657 4.409 0 4.347-1.034 24-20.687v12.687c0 33.286-16.017 59.477-47.606 77.844-24.415 14.196-49.37 18.212-49.619 18.25-4.362.676-7.354 4.758-6.682 9.122.673 4.375 4.765 7.362 9.123 6.69 1.122-.172 27.793-4.407 54.781-19.977 36.638-21.136 56.003-52.925 56.003-91.929v-12.687l18.343 18.343c3.124 3.124 8.189 3.124 11.313 0 3.125-3.123 3.125-8.189.001-11.313z" fill="#000000" fill-opacity="1" data-original-color="#000000ff" stroke="none" stroke-opacity="1"/><path d="m255.75 511.5c-141.345 0-255.75-114.385-255.75-255.75 0-141.345 114.385-255.75 255.75-255.75 141.345 0 255.75 114.385 255.75 255.75 0 141.345-114.385 255.75-255.75 255.75zm0-495.5c-132.199 0-239.75 107.551-239.75 239.75s107.551 239.75 239.75 239.75 239.75-107.551 239.75-239.75-107.551-239.75-239.75-239.75z" fill="#000000" fill-opacity="1" data-original-color="#000000ff" stroke="none" stroke-opacity="1"/></g></svg>