<svg height="512" viewBox="0 0 128 128" width="512" xmlns="http://www.w3.org/2000/svg"><g><path d="m111.656 108.217h-95.312l-7 7v11.03h109.312v-11.03z" fill="#595959"/><path d="m28.76 90.188-5.447 18.029h81.375l-5.448-18.029z" fill="#faecd8"/><path d="m91 97.452h-54a1.75 1.75 0 0 0 0 3.5h54a1.75 1.75 0 0 0 0-3.5z" fill="#f4d7af"/><path d="m64 21.75a35.24 35.24 0 0 0 -35.24 35.24v33.2h70.48v-33.2a35.24 35.24 0 0 0 -35.24-35.24z" fill="#e63950"/><path d="m19.375 117.232h89.25v9.015h-89.25z" fill="#474747"/><path d="m65.472 35h-2.944a3.943 3.943 0 0 0 -3.934 4.206l1.472 21.994a3.943 3.943 0 0 0 7.868 0l1.472-21.99a3.943 3.943 0 0 0 -3.934-4.21z" fill="#faecd8"/><path d="m64.875 72.5h-1.75a4.813 4.813 0 0 0 0 9.625h1.75a4.813 4.813 0 1 0 0-9.625z" fill="#faecd8"/><g fill="#fdbf00"><rect height="8.001" rx="4" transform="matrix(.707 -.707 .707 .707 20.476 83.46)" width="31.866" x="95.051" y="13.013"/><path d="m64 1.747a4 4 0 0 0 -4 4v4.266a4 4 0 1 0 8 0v-4.266a4 4 0 0 0 -4-4z"/><rect height="8" rx="4" width="18.75" x="107.5" y="51.969"/><path d="m11.407 5.747a4 4 0 0 0 -5.657 0 4 4 0 0 0 0 5.657l16.876 16.876a4 4 0 0 0 5.656 0 4 4 0 0 0 0-5.657z"/><rect height="8" rx="4" width="18.75" x="1.75" y="51.969"/></g></g><g><path d="m112.894 106.98a1.752 1.752 0 0 0 -1.238-.513h-5.669l-5-16.539v-32.938a36.99 36.99 0 0 0 -73.98 0v3.91a1.75 1.75 0 0 0 3.5 0v-3.91a33.49 33.49 0 0 1 66.98 0v31.448h-66.977v-4.338a1.75 1.75 0 0 0 -3.5 0v5.826l-5 16.539h-5.666a1.752 1.752 0 0 0 -1.238.513l-7 7a1.749 1.749 0 0 0 -.512 1.237v11.03a1.75 1.75 0 0 0 1.75 1.755h109.312a1.75 1.75 0 0 0 1.75-1.75v-11.03a1.749 1.749 0 0 0 -.512-1.237zm-6.019 17.52h-85.75v-5.515h85.75zm10.031 0h-6.531v-7.265a1.751 1.751 0 0 0 -1.75-1.75h-89.25a1.751 1.751 0 0 0 -1.75 1.75v7.265h-6.531v-8.555l5.975-5.975h69.373a1.75 1.75 0 0 0 0-3.5h-60.772l4.39-14.529h67.88l4.39 14.529h-6.772a1.75 1.75 0 0 0 0 3.5h15.373l5.975 5.975z"/><path d="m91 97.452h-54a1.75 1.75 0 0 0 0 3.5h54a1.75 1.75 0 0 0 0-3.5z"/><path d="m28.76 68.264a1.751 1.751 0 0 0 -1.75 1.75v4.971a1.75 1.75 0 0 0 3.5 0v-4.971a1.75 1.75 0 0 0 -1.75-1.75z"/><path d="m65.472 33.25h-2.944a5.73 5.73 0 0 0 -5.68 6.073l1.472 21.99a5.693 5.693 0 0 0 11.36 0l1.472-21.99a5.73 5.73 0 0 0 -5.68-6.073zm.716 27.829a2.192 2.192 0 0 1 -4.375 0l-1.473-21.99a2.194 2.194 0 0 1 2.188-2.339h2.944a2.2 2.2 0 0 1 2.188 2.339z"/><path d="m64.875 70.75h-1.75a6.563 6.563 0 0 0 0 13.125h1.75a6.563 6.563 0 1 0 0-13.125zm0 9.625h-1.75a3.063 3.063 0 0 1 0-6.125h1.75a3.063 3.063 0 1 1 0 6.125z"/><path d="m115.355 4.51-16.875 16.875a5.75 5.75 0 0 0 8.132 8.132l16.875-16.875a5.75 5.75 0 0 0 -8.132-8.132zm5.658 5.657-16.876 16.875a2.25 2.25 0 1 1 -3.182-3.182l16.875-16.876a2.251 2.251 0 1 1 3.183 3.183z"/><path d="m64 0a5.757 5.757 0 0 0 -5.75 5.75v4.266a5.75 5.75 0 0 0 11.5 0v-4.269a5.757 5.757 0 0 0 -5.75-5.747zm2.25 10.016a2.25 2.25 0 1 1 -4.5 0v-4.269a2.25 2.25 0 0 1 4.5 0z"/><path d="m122.25 50.219h-10.75a5.75 5.75 0 0 0 0 11.5h10.75a5.75 5.75 0 0 0 0-11.5zm0 8h-10.75a2.25 2.25 0 0 1 0-4.5h10.75a2.25 2.25 0 0 1 0 4.5z"/><path d="m12.644 4.51a5.75 5.75 0 0 0 -8.131 8.132l16.875 16.875a5.75 5.75 0 0 0 8.132-8.132zm14.4 22.532a2.253 2.253 0 0 1 -3.182 0l-16.875-16.875a2.251 2.251 0 0 1 3.183-3.183l16.875 16.876a2.251 2.251 0 0 1 0 3.182z"/><path d="m16.5 50.219h-10.75a5.75 5.75 0 0 0 0 11.5h10.75a5.75 5.75 0 0 0 0-11.5zm0 8h-10.75a2.25 2.25 0 0 1 0-4.5h10.75a2.25 2.25 0 0 1 0 4.5z"/></g></svg>