<svg height="182" viewBox="0 0 182 182" width="182" xmlns="http://www.w3.org/2000/svg" xmlns:sketch="http://www.bohemiancoding.com/sketch/ns"><g id="Ameria" fill="none" fill-rule="evenodd"><g id="Group" transform="translate(-37 1)"><g id="St.Kitts-and-Nevis" transform="translate(0 162)"><path id="Oval-15-copy-2" d="m212.878829 158.000001c-12.355091 34.955771-45.692262 59.999999-84.878829 59.999999-39.1865669 0-72.5237377-25.044228-84.8788292-60h169.7576622zm5.12114-29.924491c.000021-.025168.000031-.050338.000031-.07551 0-.025175-.00001-.050347-.000031-.075517zm-179.9944765-1.080233c-.0036585.334473-.0054925.669384-.0054925 1.004723s.001834.67025.0054925 1.004723l.0000003-2.009472zm0 0" fill="#ca4638" transform="matrix(.707 -.707 .707 .707 -53.019 128)"/><path id="Oval-15-copy-3" d="m212.85805 157.979221c-12.355092 34.955772-45.692262 60-84.878829 60-39.1865673 0-72.5237381-25.044228-84.8788296-60h169.7576626zm5.12114-29.92449c.00002-.025168.000031-.050338.000031-.07551 0-.025175-.000011-.050347-.000031-.075517zm-179.9944768-1.080233c-.0036586.334473-.0054926.669383-.0054926 1.004723 0 .335339.001834.67025.0054926 1.004723l.0000002-2.009472zm0 0" fill="#479951" transform="matrix(-.707 .707 -.707 -.707 308.969 127.979)"/></g><g id="US" transform="translate(38)"><circle id="Oval-1-copy" cx="90" cy="90" fill="#fff" r="90"/><path id="white" d="m138.229203 14c6.232 3.9630629 11.943532 8.6715701 17.009075 14h-130.4765559c5.0655428-5.3284299 10.7770748-10.0369371 17.0090748-14zm27.916068 28c2.792979 4.421382 5.211505 9.1028986 7.211026 13.9999995l.000004.0000005-166.7125979-.0000005c1.99952097-4.8971009 4.4180465-9.5786175 7.2110262-13.9999995zm11.624565 28c1.031451 4.5455967 1.718838 9.2218724 2.033337 14.0000001v-.0000001h-179.6063457c.31449829-4.7781277 1.00188616-9.4544033 2.03333665-14zm1.879466 28c-.421376 4.783936-1.217046 9.460425-2.357542 14h-174.58351988c-1.14049653-4.539575-1.93616627-9.216064-2.35754241-14zm-7.138088 28c-2.145565 4.910676-4.716671 9.592881-7.666705 14.000003l.000002-.000003-149.6890199.000003c-2.9500345-4.407122-5.52114009-9.089327-7.66670558-14.000003zm-19.234031 28c-5.473102 5.411672-11.636815 10.126356-18.347092 14.000002l.000003-.000002-89.8601851.000002c-6.7102764-3.873646-12.8739898-8.58833-18.3470917-14.000002zm0 0" fill="#fff"/><path id="red" d="m90 41.9999979 76.145271.0000021-.000003-.0000043c-3.173898-5.0243878-6.831354-9.7128458-10.906991-13.999997l.000007.0000013-65.238284-.0000006zm0-41.9999979c17.744061 0 34.288782 5.13498604 48.229203 14h-48.229203zm0 70h87.769836c-1.094947-4.8254252-2.577622-9.503587-4.413539-14h-83.356297zm-90 20c0 2.6959963.11854187 5.3643056.35069771 8h179.29860429c.232156-2.6356944.350698-5.3040037.350698-8 0-2.0161713-.066296-4.0168583-.196827-6h-89.803173v6zm177.29176 22c-1.214406 4.83376-2.819779 9.512284-4.780546 14h-165.02242848c-1.96076617-4.487716-3.56613957-9.16624-4.7805454-14zm-12.447249 28c-3.381342 5.051463-7.260515 9.741526-11.567328 14h-126.5543658c-4.3068134-4.258474-8.1859862-8.948537-11.5673282-14zm-29.91442 28.000002c-13.22199 7.632668-28.566018 11.999998-44.930091 11.999998s-31.7081007-4.36733-44.9300911-11.999998l89.8601851-.000002zm0 0" fill="#ca4638"/><path id="Oval-38-copy-3" d="m90 0c-49.7056299 0-90 40.2943701-90 90h90zm0 0" fill="#346da6"/><g id="stars" fill="#fff" transform="translate(7 9)"><path id="Star-1" d="m27.4143487 25.4626163-2.7282172 1.5373836.521043-3.2562305-2.2071745-2.3060753 3.0502405-.4750781 1.3641084-2.962616 1.3641092 2.9626168 3.0502403.4750797-2.2071754 2.3060735.5210431 3.25623z"/><path id="Star-1" d="m27.4143487 41.4626163-2.7282172 1.5373836.521043-3.2562305-2.2071745-2.3060753 3.0502405-.4750781 1.3641084-2.962616 1.3641092 2.9626168 3.0502403.4750797-2.2071754 2.3060735.5210431 3.25623z"/><path id="Star-1" d="m16.4143487 35.4626163-2.7282172 1.5373836.521043-3.2562305-2.2071745-2.3060753 3.0502405-.4750781 1.3641084-2.962616 1.3641092 2.9626168 3.0502403.4750797-2.2071754 2.3060735.5210431 3.25623z"/><path id="Star-1" d="m15.4143487 50.4626163-2.7282172 1.5373836.521043-3.2562305-2.2071745-2.3060753 3.0502405-.4750781 1.3641084-2.962616 1.3641092 2.9626168 3.0502403.4750797-2.2071754 2.3060735.5210431 3.25623z"/><path id="Star-1" d="m25.4143487 60.4626163-2.7282172 1.5373836.521043-3.2562305-2.2071745-2.3060753 3.0502405-.4750781 1.3641084-2.962616 1.3641092 2.9626168 3.0502403.4750797-2.2071754 2.3060735.5210431 3.25623z"/><path id="Star-1" d="m15.4143487 66.4626163-2.7282172 1.5373836.521043-3.2562305-2.2071745-2.3060753 3.0502405-.4750781 1.3641084-2.962616 1.3641092 2.9626168 3.0502403.4750797-2.2071754 2.3060735.5210431 3.25623z"/><path id="Star-1" d="m4.41434873 58.4626163-2.72821728 1.5373836.52104301-3.2562305-2.20717446-2.3060753 3.05024047-.4750781 1.36410841-2.962616 1.36410925 2.9626168 3.05024024.4750797-2.20717536 2.3060735.5210431 3.25623z"/><path id="Star-1" d="m4.41434873 74.4626163-2.72821728 1.5373836.52104301-3.2562305-2.20717446-2.3060753 3.05024047-.4750781 1.36410841-2.962616 1.36410925 2.9626168 3.05024024.4750797-2.20717536 2.3060735.5210431 3.25623z"/><path id="Star-1" d="m27.4143487 74.4626163-2.7282172 1.5373836.521043-3.2562305-2.2071745-2.3060753 3.0502405-.4750781 1.3641084-2.962616 1.3641092 2.9626168 3.0502403.4750797-2.2071754 2.3060735.5210431 3.25623z"/><path id="Star-1" d="m73.4143487 7.46261626-2.7282172 1.53738367.521043-3.25623058-2.2071745-2.30607523 3.0502405-.47507808 1.3641084-2.96261604 1.3641092 2.96261677 3.0502403.47507972-2.2071754 2.30607348.5210431 3.25623003z"/><path id="Star-1" d="m73.4143487 23.4626163-2.7282172 1.5373836.521043-3.2562305-2.2071745-2.3060753 3.0502405-.4750781 1.3641084-2.962616 1.3641092 2.9626168 3.0502403.4750797-2.2071754 2.3060735.5210431 3.25623z"/><path id="Star-1" d="m73.4143487 39.4626163-2.7282172 1.5373836.521043-3.2562305-2.2071745-2.3060753 3.0502405-.4750781 1.3641084-2.962616 1.3641092 2.9626168 3.0502403.4750797-2.2071754 2.3060735.5210431 3.25623z"/><path id="Star-1" d="m73.4143487 55.4626163-2.7282172 1.5373836.521043-3.2562305-2.2071745-2.3060753 3.0502405-.4750781 1.3641084-2.962616 1.3641092 2.9626168 3.0502403.4750797-2.2071754 2.3060735.5210431 3.25623z"/><path id="Star-1" d="m61.4143487 16.4626163-2.7282172 1.5373836.521043-3.2562305-2.2071745-2.3060753 3.0502405-.4750781 1.3641084-2.962616 1.3641092 2.9626168 3.0502403.4750797-2.2071754 2.3060735.5210431 3.25623z"/><path id="Star-1" d="m61.4143487 32.4626163-2.7282172 1.5373836.521043-3.2562305-2.2071745-2.3060753 3.0502405-.4750781 1.3641084-2.962616 1.3641092 2.9626168 3.0502403.4750797-2.2071754 2.3060735.5210431 3.25623z"/><path id="Star-1" d="m61.4143487 48.4626163-2.7282172 1.5373836.521043-3.2562305-2.2071745-2.3060753 3.0502405-.4750781 1.3641084-2.962616 1.3641092 2.9626168 3.0502403.4750797-2.2071754 2.3060735.5210431 3.25623z"/><path id="Star-1" d="m61.4143487 64.4626163-2.7282172 1.5373836.521043-3.2562305-2.2071745-2.3060753 3.0502405-.4750781 1.3641084-2.962616 1.3641092 2.9626168 3.0502403.4750797-2.2071754 2.3060735.5210431 3.25623z"/><path id="Star-1" d="m73.4143487 72.4626163-2.7282172 1.5373836.521043-3.2562305-2.2071745-2.3060753 3.0502405-.4750781 1.3641084-2.962616 1.3641092 2.9626168 3.0502403.4750797-2.2071754 2.3060735.5210431 3.25623z"/><path id="Star-1" d="m51.4143487 9.46261626-2.7282172 1.53738364.521043-3.25623055-2.2071745-2.30607523 3.0502405-.47507808 1.3641084-2.96261604 1.3641092 2.96261677 3.0502403.47507972-2.2071754 2.30607348.5210431 3.25623003z"/><path id="Star-1" d="m51.4143487 25.4626163-2.7282172 1.5373836.521043-3.2562305-2.2071745-2.3060753 3.0502405-.4750781 1.3641084-2.962616 1.3641092 2.9626168 3.0502403.4750797-2.2071754 2.3060735.5210431 3.25623z"/><path id="Star-1" d="m51.4143487 41.4626163-2.7282172 1.5373836.521043-3.2562305-2.2071745-2.3060753 3.0502405-.4750781 1.3641084-2.962616 1.3641092 2.9626168 3.0502403.4750797-2.2071754 2.3060735.5210431 3.25623z"/><path id="Star-1" d="m51.4143487 57.4626163-2.7282172 1.5373836.521043-3.2562305-2.2071745-2.3060753 3.0502405-.4750781 1.3641084-2.962616 1.3641092 2.9626168 3.0502403.4750797-2.2071754 2.3060735.5210431 3.25623z"/><path id="Star-1" d="m39.4143487 18.4626163-2.7282172 1.5373836.521043-3.2562305-2.2071745-2.3060753 3.0502405-.4750781 1.3641084-2.962616 1.3641092 2.9626168 3.0502403.4750797-2.2071754 2.3060735.5210431 3.25623z"/><path id="Star-1" d="m39.4143487 34.4626163-2.7282172 1.5373836.521043-3.2562305-2.2071745-2.3060753 3.0502405-.4750781 1.3641084-2.962616 1.3641092 2.9626168 3.0502403.4750797-2.2071754 2.3060735.5210431 3.25623z"/><path id="Star-1" d="m39.4143487 50.4626163-2.7282172 1.5373836.521043-3.2562305-2.2071745-2.3060753 3.0502405-.4750781 1.3641084-2.962616 1.3641092 2.9626168 3.0502403.4750797-2.2071754 2.3060735.5210431 3.25623z"/><path id="Star-1" d="m39.4143487 66.4626163-2.7282172 1.5373836.521043-3.2562305-2.2071745-2.3060753 3.0502405-.4750781 1.3641084-2.962616 1.3641092 2.9626168 3.0502403.4750797-2.2071754 2.3060735.5210431 3.25623z"/><path id="Star-1" d="m51.4143487 74.4626163-2.7282172 1.5373836.521043-3.2562305-2.2071745-2.3060753 3.0502405-.4750781 1.3641084-2.962616 1.3641092 2.9626168 3.0502403.4750797-2.2071754 2.3060735.5210431 3.25623z"/></g></g></g></g></svg>