<svg clip-rule="evenodd" fill-rule="evenodd" height="300" image-rendering="optimizeQuality" shape-rendering="geometricPrecision" text-rendering="geometricPrecision" viewBox="0 0 6.82666 6.82666" width="300" xmlns="http://www.w3.org/2000/svg" version="1.1" xmlns:xlink="http://www.w3.org/1999/xlink" xmlns:svgjs="http://svgjs.dev/svgjs"><g width="100%" height="100%" transform="matrix(1,0,0,1,0,0)"><g id="Layer_x0020_1"><circle cx="3.413" cy="3.413" fill="#00487c" r="3.333" fill-opacity="1" data-original-color="#669999ff" stroke="none" stroke-opacity="1"/><g id="_351250648" fill="#fefefe"><path id="_351251632" d="m2.16234 3.89746h.227579v-.435614h-.227579zm.28472.114283h-.341862c-.0315551 0-.0571496-.0255866-.0571496-.0571378l.00000394-.549902c0-.0315551.0255906-.0571417.0571378-.0571417l.34187-.00000394c.0315551 0 .0571378.0255984.0571378.0571496l.00000787.549894c0 .0315512-.0255984.0571496-.0571457.0571417z" fill="#ffffff" fill-opacity="1" data-original-color="#fefefeff" stroke="none" stroke-opacity="1"/><path id="_351251416" d="m2.90043 3.89746h.227681v-.60337h-.227681zm.284823.114283h-.341965c-.0315394 0-.0570433-.0255866-.0570433-.0571378v-.717657c0-.0315551.0254921-.0571457.0570394-.0571457h.341969c.0315551 0 .0571417.0255984.0571417.0571457l.00000394.717654c0 .0315512-.0255984.0571496-.0571457.0571417z" fill="#ffffff" fill-opacity="1" data-original-color="#fefefeff" stroke="none" stroke-opacity="1"/><path id="_351251584" d="m3.63863 3.89746h.227587v-.893953h-.227587zm.284728.114283h-.341874c-.0315394 0-.0571417-.0255866-.0571417-.0571378v-1.00824c0-.0315394.0255945-.0571378.0571417-.0571378l.341874-.00000787c.0315433 0 .0571339.0256063.0571339.0571535l.00001181 1.00823c0 .0315512-.0256063.0571496-.0571457.0571417z" fill="#ffffff" fill-opacity="1" data-original-color="#fefefeff" stroke="none" stroke-opacity="1"/><path id="_351251200" d="m4.37673 3.89746h.227677v-1.28403h-.227677zm.28472.114283h-.341866c-.0315512 0-.0571496-.0255866-.0571496-.0571378l.00000787-1.39832c0-.0315512.0255866-.0571378.0571339-.0571378l.341874-.00000394c.0316496 0 .0571378.0255984.0571378.0571496l.00000394 1.39831c0 .0315512-.0255.0571496-.0571417.0571417z" fill="#ffffff" fill-opacity="1" data-original-color="#fefefeff" stroke="none" stroke-opacity="1"/><path id="_351251704" d="m2.11324 3.17672c-.00476772 0-.00774409.00001181-.00893701.00001181-.0315433-.0005-.0567441-.0264882-.056248-.0580394.00049606-.0315472.0262913-.0567441.0580354-.056248.00546457.00009449.403673.00357087.893055-.149406.449409-.14048 1.07074-.445933 1.47808-1.10337.0166772-.0267953.0518858-.0351181.0786693-.0184528.0267874.0165591.0351181.0517835.0184528.0786732-.188484.30426-.435913.562398-.735413.76726-.238984.163394-.511311.293354-.809429.38611-.471925.146929-.85228.153476-.916264.153465z" fill="#ffffff" fill-opacity="1" data-original-color="#fefefeff" stroke="none" stroke-opacity="1"/><path id="_351251440" d="m4.48169 2.3923c-.00168504 0-.00347244-.00009843-.00516142-.00019685-.0314449-.00288583-.0546614-.0305551-.0518858-.0620039l.0354291-.396831-.361315.167756c-.0286732.0132953-.0626024.00079921-.0758976-.0277717-.0132874-.0286772-.0008937-.0625984.0277756-.0758898l.451102-.209429c.0185472-.0086378.0402677-.00664173.056937.00505906.0166654.0117047.0258898.0315512.0240079.0518898l-.0441378.495331c-.0026811.0297638-.0275906.0520866-.0568543.0520866z" fill="#ffffff" fill-opacity="1" data-original-color="#fefefeff" stroke="none" stroke-opacity="1"/><path id="_351251152" d="m1.56591 1.47057c-.126193 0-.228874.102681-.228874.22887v2.39544c0 .126181.102677.228874.22887.228874h3.69485c.126181 0 .228862-.102681.228862-.22887v-2.39544c0-.126193-.102681-.228866-.22887-.228866l-3.69484-.00000394zm3.69485 2.96746h-3.69485c-.189287 0-.343161-.153957-.343161-.343146l.00000394-2.39544c0-.189185.153866-.343055.343154-.343055l3.69485-.00000394c.189185 0 .343146.153874.343146.343059l.00000394 2.39544c0 .189185-.153972.343157-.34315.34315z" fill="#ffffff" fill-opacity="1" data-original-color="#fefefeff" stroke="none" stroke-opacity="1"/><path id="_351251344" d="m5.26076 1.70876h.00009843zm-3.68562 2.37689h3.67639v-2.37689h-3.67639zm3.68562.114287h-3.69485c-.057937 0-.105063-.0471142-.105063-.105051l.00000787-2.39544c0-.0578346.0471142-.104957.105051-.104957l3.69485-.00000787c.0579331 0 .105051.0471299.105051.104965l.00000394 2.39544c0 .0579331-.047126.105063-.105055.105055z" fill="#ffffff" fill-opacity="1" data-original-color="#fefefeff" stroke="none" stroke-opacity="1"/><path id="_351250984" d="m3.67543 5.2304h-.524205c-.0315394 0-.0571457-.0255906-.0571457-.0571378v-.792362c0-.0315512.0255984-.0571417.0571457-.0571417.0315512 0 .0571417.0255945.0571417.0571417v.735213h.409921v-.735213c0-.0315512.0255945-.0571417.0571417-.0571417.0315551 0 .0571417.0255945.0571417.0571417l.00000394.792354c0 .0315551-.0255984.0571535-.0571457.0571457z" fill="#ffffff" fill-opacity="1" data-original-color="#fefefeff" stroke="none" stroke-opacity="1"/><path id="_351250528" d="m3.41333 5.47028c-.423614 0-.852386-.104358-.852386-.303862 0-.210327.447122-.275.584126-.289878.031252-.00338189.0595236.0192441.0628976.0506929.00348031.0313465-.0192441.0595236-.0505945.0628937-.340669.0369055-.482146.133039-.482146.176291 0 .0643858.26052.189583.738098.189583.477587-.00000787.737996-.125197.737996-.189583.00000394-.0432598-.14137-.139382-.482047-.176291-.0313465-.00337795-.054063-.0315472-.050689-.0628937.00347638-.0314528.0317441-.0540669.0629921-.0506929.137012.014874.584028.0795591.584028.289878.00000394.199496-.428768.30387-.852276.303862z" fill="#ffffff" fill-opacity="1" data-original-color="#fefefeff" stroke="none" stroke-opacity="1"/></g></g></g></svg>