<svg id="Icons" viewBox="0 0 60 60" xmlns="http://www.w3.org/2000/svg"><path d="m59 9v41a4 4 0 0 1 -4 4h-50a4 4 0 0 1 -4-4v-41l1-1h56z" fill="#e0dfe5"/><path d="m59 5v4h-58v-4a4 4 0 0 1 4-4h50a4 4 0 0 1 4 4z" fill="#333387"/><path d="m27.951 46.173 3.429 11.927a1.231 1.231 0 0 0 2.17.41l2.69-3.54a1.268 1.268 0 0 1 1.43-.41l4.17 1.59a1.243 1.243 0 0 0 1.63-1.5l-3.12-10.83-.35-1.82z" fill="#b71c3a"/><path d="m19.65 43.82-3.12 10.829a1.243 1.243 0 0 0 1.63 1.5l4.17-1.59a1.268 1.268 0 0 1 1.43.41l2.69 3.54a1.231 1.231 0 0 0 2.17-.41l3.06-10.649-11.68-5.45z" fill="#dd2641"/><path d="m46.318 32.841a2.809 2.809 0 0 0 -.537 2.707 2.941 2.941 0 0 1 .138.883 2.807 2.807 0 0 1 -1.541 2.51 2.809 2.809 0 0 0 -1.541 2.3v.006a2.81 2.81 0 0 1 -2.591 2.591h-.006a2.811 2.811 0 0 0 -2.3 1.541 2.816 2.816 0 0 1 -2.516 1.54 2.914 2.914 0 0 1 -.878-.138 2.88 2.88 0 0 0 -.877-.139 2.786 2.786 0 0 0 -1.829.676l-.006.005a2.816 2.816 0 0 1 -3.671 0l-.006-.005a2.809 2.809 0 0 0 -2.707-.537 2.941 2.941 0 0 1 -.883.138 2.807 2.807 0 0 1 -2.51-1.54 2.807 2.807 0 0 0 -2.3-1.541h-.006a2.809 2.809 0 0 1 -2.591-2.591v-.006a2.811 2.811 0 0 0 -1.541-2.3 2.815 2.815 0 0 1 -1.541-2.516 2.9 2.9 0 0 1 .138-.877 2.886 2.886 0 0 0 .139-.878 2.79 2.79 0 0 0 -.676-1.829l-.005-.006a2.815 2.815 0 0 1 0-3.67l.005-.006a2.809 2.809 0 0 0 .537-2.707 2.941 2.941 0 0 1 -.138-.883 2.807 2.807 0 0 1 1.541-2.51 2.809 2.809 0 0 0 1.541-2.3v-.006a2.809 2.809 0 0 1 2.591-2.591h.006a2.812 2.812 0 0 0 2.3-1.541 2.814 2.814 0 0 1 2.516-1.54 2.9 2.9 0 0 1 .877.138 2.886 2.886 0 0 0 .878.139 2.788 2.788 0 0 0 1.829-.676l.006-.005a2.816 2.816 0 0 1 3.671 0l.006.005a2.807 2.807 0 0 0 2.706.537 2.951 2.951 0 0 1 .883-.138 2.808 2.808 0 0 1 2.511 1.54 2.807 2.807 0 0 0 2.3 1.541h.006a2.81 2.81 0 0 1 2.591 2.591v.006a2.811 2.811 0 0 0 1.541 2.3 2.815 2.815 0 0 1 1.541 2.516 2.9 2.9 0 0 1 -.138.877 2.856 2.856 0 0 0 -.139.878 2.79 2.79 0 0 0 .676 1.829l.005.006a2.826 2.826 0 0 1 -.005 3.676z" fill="#f4bc2f"/><circle cx="30" cy="31" fill="#d39c22" r="12"/><g fill="#fff"><path d="m6 6h-1a1 1 0 0 1 0-2h1a1 1 0 0 1 0 2z"/><path d="m11 6h-1a1 1 0 0 1 0-2h1a1 1 0 0 1 0 2z"/><path d="m16 6h-1a1 1 0 0 1 0-2h1a1 1 0 0 1 0 2z"/></g><path d="m38 6h-16a1 1 0 0 1 0-2h16a1 1 0 0 1 0 2z" fill="#212160"/><path d="m27.223 37a1 1 0 0 1 -.707-.293l-2.223-2.223a1 1 0 0 1 1.414-1.414l1.422 1.422 7.082-9.106a1 1 0 0 1 1.578 1.228l-7.777 10a1 1 0 0 1 -.727.384z" fill="#fff"/></svg>