<svg id="Layer_1" enable-background="new 0 0 512 512" height="300" viewBox="0 0 512 512" width="300" xmlns="http://www.w3.org/2000/svg" xmlns:xlink="http://www.w3.org/1999/xlink" version="1.1" xmlns:svgjs="http://svgjs.dev/svgjs"><g width="100%" height="100%" transform="matrix(1,0,0,1,0,0)"><linearGradient id="SVGID_1_" gradientUnits="userSpaceOnUse" x1="0" x2="512" y1="256" y2="256"><stop offset="0" stop-color="#f704fe"/><stop offset="1" stop-color="#24bce3"/></linearGradient><circle clip-rule="evenodd" cx="256" cy="256" fill="#00487c" fill-rule="evenodd" r="256" data-original-color="SVGID_1_" stroke="none" stroke-opacity="1" fill-opacity="1"/><g id="Layer_x0020_1"><g id="_297738920" clip-rule="evenodd" fill="#fffffe" fill-rule="evenodd"><path id="_297739712" d="m356.6 345.9h-245.4c-1.8 0-3.2-1.4-3.2-3.2v-179.3c0-1.8 1.4-3.2 3.2-3.2h49.2c1.8 0 3.2 1.4 3.2 3.2s-1.4 3.2-3.2 3.2h-46v172.6h242.3c1.8 0 3.2 1.4 3.2 3.2 0 2-1.4 3.5-3.3 3.5zm44.3 0h-15.4c-1.8 0-3.2-1.4-3.2-3.2s1.4-3.2 3.2-3.2h12.2v-172.9h-46c-1.8 0-3.2-1.4-3.2-3.2s1.4-3.2 3.2-3.2h49.2c1.8 0 3.2 1.4 3.2 3.2v179.1c0 1.9-1.5 3.4-3.2 3.4z" fill="#fffffe" fill-opacity="1" data-original-color="#fffffeff" stroke="none" stroke-opacity="1"/><path id="_297739352" d="m339.8 329h-211.7c-1.8 0-3.2-1.4-3.2-3.2v-145.4c0-1.8 1.4-3.2 3.2-3.2h32.4c1.8 0 3.2 1.4 3.2 3.2s-1.4 3.2-3.2 3.2h-29.1v138.9h208.5c1.8 0 3.2 1.4 3.2 3.2-.1 1.8-1.6 3.3-3.3 3.3zm44.2 0h-10.8c-1.8 0-3.2-1.4-3.2-3.2s1.4-3.2 3.2-3.2h7.6v-139h-29.1c-1.8 0-3.2-1.4-3.2-3.2s1.4-3.2 3.2-3.2h32.4c1.8 0 3.2 1.4 3.2 3.2v145.3c-.1 1.8-1.4 3.3-3.3 3.3z" fill="#fffffe" fill-opacity="1" data-original-color="#fffffeff" stroke="none" stroke-opacity="1"/><path id="_297739232" d="m275.9 389.1h-39.7c-1.8 0-3.2-1.4-3.2-3.2v-43.3c0-1.8 1.4-3.2 3.2-3.2s3.2 1.4 3.2 3.2v40.1h33.2v-40.1c0-1.8 1.4-3.2 3.2-3.2s3.2 1.4 3.2 3.2v43.3c.1 1.7-1.4 3.2-3.1 3.2z" fill="#fffffe" fill-opacity="1" data-original-color="#fffffeff" stroke="none" stroke-opacity="1"/><path id="_297739808" d="m323.4 404.1h-134.8c-1.1 0-2.1-.5-2.7-1.5-.6-.9-.7-2-.3-3.1l10.2-22.8c.5-1.1 1.5-1.8 2.7-1.9l37.4-3c1.8-.1 3.3 1.2 3.5 2.9.1 1.8-1.2 3.3-2.9 3.5l-35.5 2.9-7.3 16.5h124.8l-7.3-16.5-35.5-2.9c-1.8-.1-3.1-1.7-2.9-3.5.1-1.8 1.7-3.1 3.5-2.9l37.4 3c1.2.1 2.2.8 2.7 1.9l10.2 22.8c.5 1 .3 2.2-.3 3.1-.8.9-1.8 1.5-2.9 1.5z" fill="#fffffe" fill-opacity="1" data-original-color="#fffffeff" stroke="none" stroke-opacity="1"/><path id="_297739496" d="m318.5 307.5h-158c-1.8 0-3.2-1.4-3.2-3.2v-193.1c0-1.8 1.4-3.2 3.2-3.2h191.3c1.8 0 3.2 1.4 3.2 3.2v193c0 1.8-1.4 3.2-3.2 3.2s-3.2-1.4-3.2-3.2v-189.9h-185v186.7h154.8c1.8 0 3.2 1.4 3.2 3.2 0 1.9-1.4 3.3-3.1 3.3z" fill="#fffffe" fill-opacity="1" data-original-color="#fffffeff" stroke="none" stroke-opacity="1"/><path id="_297739760" d="m351.6 149.2h-191.2c-1.8 0-3.2-1.4-3.2-3.2s1.4-3.2 3.2-3.2h191.3c1.8 0 3.2 1.4 3.2 3.2 0 1.9-1.4 3.2-3.3 3.2z" fill="#fffffe" fill-opacity="1" data-original-color="#fffffeff" stroke="none" stroke-opacity="1"/><path id="_297739544" d="m336.2 131.4h-13c-1.8 0-3.2-1.4-3.2-3.2s1.4-3.2 3.2-3.2h13c1.8 0 3.2 1.4 3.2 3.2.1 1.9-1.4 3.2-3.2 3.2z" fill="#fffffe" fill-opacity="1" data-original-color="#fffffeff" stroke="none" stroke-opacity="1"/><path id="_297739832" d="m310.4 131.4h-12.9c-1.8 0-3.2-1.4-3.2-3.2s1.4-3.2 3.2-3.2h12.9c1.8 0 3.2 1.4 3.2 3.2-.1 1.9-1.5 3.2-3.2 3.2z" fill="#fffffe" fill-opacity="1" data-original-color="#fffffeff" stroke="none" stroke-opacity="1"/><path id="_297739448" d="m284.5 131.4h-12.9c-1.8 0-3.2-1.4-3.2-3.2s1.4-3.2 3.2-3.2h12.9c1.8 0 3.2 1.4 3.2 3.2.1 1.9-1.5 3.2-3.2 3.2z" fill="#fffffe" fill-opacity="1" data-original-color="#fffffeff" stroke="none" stroke-opacity="1"/><path id="_297739304" d="m233.1 131.4h-57.4c-1.8 0-3.2-1.4-3.2-3.2s1.4-3.2 3.2-3.2h57.4c1.8 0 3.2 1.4 3.2 3.2.1 1.9-1.4 3.2-3.2 3.2z" fill="#fffffe" fill-opacity="1" data-original-color="#fffffeff" stroke="none" stroke-opacity="1"/><path id="_297738728" d="m256 166.6c-15.6 0-30.4 6.1-41.4 17.1-11.1 11.1-17.1 25.8-17.1 41.4s6.1 30.4 17.1 41.4c22.9 22.9 60 22.9 82.8 0 11.1-11.1 17.1-25.8 17.1-41.4s-6.1-30.4-17.1-41.4c-11-11.1-25.8-17.1-41.4-17.1zm0 123.6c-17.4 0-33.7-6.8-46-19-12.3-12.3-19-28.6-19-46s6.8-33.7 19-46c12.3-12.3 28.6-19 46-19s33.7 6.8 46 19c12.3 12.3 19 28.6 19 46s-6.8 33.7-19 46c-12.4 12.3-28.6 19-46 19z" fill="#fffffe" fill-opacity="1" data-original-color="#fffffeff" stroke="none" stroke-opacity="1"/><path id="_297739040" d="m317.1 298.5 50.4 50.4c3.3 3.3 8.8 3.3 12.2 0s3.3-8.8 0-12.2l-50.5-50.3zm56.5 59.4c-3.9 0-7.7-1.5-10.6-4.4l-52.7-52.7c-1.2-1.3-1.2-3.3 0-4.6l16.7-16.7c.6-.6 1.4-1 2.3-1s1.7.3 2.3 1l52.7 52.7c5.9 5.9 5.9 15.4 0 21.3-2.9 3-6.8 4.4-10.7 4.4z" fill="#fffffe" fill-opacity="1" data-original-color="#fffffeff" stroke="none" stroke-opacity="1"/><path id="_297738512" d="m316.4 298c-.8 0-1.6-.3-2.3-1l-21.4-21.4c-1.3-1.2-1.3-3.3 0-4.6 1.2-1.3 3.3-1.3 4.6 0l21.4 21.4c1.3 1.3 1.3 3.3 0 4.6-.7.6-1.5 1-2.3 1z" fill="#fffffe" fill-opacity="1" data-original-color="#fffffeff" stroke="none" stroke-opacity="1"/><path id="_297738344" d="m325.5 288.9c-.8 0-1.6-.3-2.3-1l-21.4-21.4c-1.2-1.3-1.2-3.3 0-4.6 1.3-1.3 3.3-1.3 4.6 0l21.4 21.4c1.2 1.3 1.2 3.3 0 4.6-.7.6-1.4 1-2.3 1z" fill="#fffffe" fill-opacity="1" data-original-color="#fffffeff" stroke="none" stroke-opacity="1"/><path id="_297739064" d="m273 194.1c-4.2 0-8.5 1.6-11.7 4.8-6.4 6.4-6.4 16.9 0 23.3 3.1 3.1 7.2 4.8 11.7 4.8 4.4 0 8.5-1.7 11.7-4.8 3.1-3.1 4.8-7.2 4.8-11.7s-1.7-8.5-4.8-11.7c-3.2-3-7.5-4.7-11.7-4.7zm0 39.5c-6.1 0-11.9-2.4-16.2-6.8-8.9-8.9-8.9-23.6 0-32.5s23.6-8.9 32.5 0c4.4 4.4 6.8 10.1 6.8 16.2s-2.4 11.9-6.8 16.2c-4.3 4.5-10.2 6.9-16.3 6.9z" fill="#fffffe" fill-opacity="1" data-original-color="#fffffeff" stroke="none" stroke-opacity="1"/><path id="_297738752" d="m223.4 263.5c-.8 0-1.6-.3-2.3-1-1.2-1.3-1.2-3.3 0-4.6l35.6-35.6c1.2-1.2 3.3-1.2 4.6 0 1.2 1.3 1.2 3.3 0 4.6l-35.6 35.6c-.6.7-1.5 1-2.3 1z" fill="#fffffe" fill-opacity="1" data-original-color="#fffffeff" stroke="none" stroke-opacity="1"/><path id="_297738992" d="m229.9 257.1c-.8 0-1.6-.3-2.3-1l-11.7-11.7c-1.3-1.3-1.3-3.3 0-4.6 1.2-1.3 3.3-1.3 4.6 0l11.7 11.7c1.2 1.2 1.2 3.3 0 4.6-.8.7-1.6 1-2.3 1z" fill="#fffffe" fill-opacity="1" data-original-color="#fffffeff" stroke="none" stroke-opacity="1"/><path id="_297738944" d="m239.1 247.8c-.8 0-1.6-.3-2.3-1l-8.6-8.5c-1.2-1.2-1.2-3.3 0-4.6 1.3-1.2 3.3-1.2 4.6 0l8.5 8.5c1.3 1.2 1.3 3.3 0 4.6-.4.8-1.4 1-2.2 1z" fill="#fffffe" fill-opacity="1" data-original-color="#fffffeff" stroke="none" stroke-opacity="1"/></g></g></g></svg>