<svg id="Layer_1" enable-background="new 0 0 68 68" viewBox="0 0 68 68" xmlns="http://www.w3.org/2000/svg"><g><g><g><g><path d="m18.1939621 28.0724773h-2.2395496v12.0671711c0 1.2383919-1.0065632 2.2500992-2.2501001 2.2500992h-4.7636758c-1.2435369 0-2.2500997-1.0117073-2.2500997-2.2500992v-12.0671711h-2.23955c-1.9180522 0-3.0984218-2.1078129-2.0919878-3.7414188l6.8714876-11.197751c.9590902-1.5650349 3.224885-1.5650349 4.1839762 0l6.8714867 11.197751c1.0064355 1.633606-.1739348 3.7414188-2.0919875 3.7414188z" fill="#e9293a"/></g><g><path d="m20.2860603 24.3310928-6.8716183-11.1978331c-.5108757-.8336248-1.3910999-1.2090139-2.2485418-1.1544752v30.4108868h2.5384979c1.2433605 0 2.2499228-1.0115662 2.2499228-2.2499237v-12.0673561h2.2395668c1.9181976 0 3.0985623-2.1077061 2.0921726-3.7412987z" fill="#d42032"/></g></g><g><g><path d="m40.8714447 18.11166h-2.2395477v12.067173c0 1.23839-1.0065651 2.2500992-2.2500992 2.2500992h-4.7636776c-1.243536 0-2.2500992-1.0117092-2.2500992-2.2500992v-12.067173h-2.2395496c-1.9180527 0-3.098423-2.1078129-2.0919876-3.7414179l6.8714867-11.197752c.9590912-1.5650349 3.224884-1.5650349 4.1839752 0l6.8714905 11.197752c1.0064315 1.633605-.1739388 3.7414179-2.0919915 3.7414179z" fill="#e9293a"/></g><g><path d="m42.9635429 14.3702765-6.8716164-11.197834c-.5108757-.8336241-1.3911018-1.2090139-2.2485428-1.1544745v30.4108887h2.5384979c1.2433624 0 2.2499237-1.0115681 2.2499237-2.2499237v-12.067358h2.2395668c1.9181978-.0000008 3.0985605-2.1077069 2.0921708-3.7412985z" fill="#d42032"/></g></g><g><g><path d="m63.5489311 27.1422253h-2.2395515v12.0671749c0 1.2383881-1.0065613 2.2500992-2.2500992 2.2500992h-4.7636757c-1.2435379 0-2.2500992-1.0117111-2.2500992-2.2500992v-12.0671749h-2.2395515c-1.9180527 0-3.0984192-2.107811-2.0919876-3.7414169l6.8714867-11.197751c.9590912-1.5650358 3.2248878-1.5650358 4.183979 0l6.8714828 11.197751c1.0064392 1.6336059-.1739349 3.7414169-2.0919838 3.7414169z" fill="#e9293a"/></g><g><path d="m65.6410294 23.4008427-6.8716202-11.197834c-.5108757-.8336239-1.391098-1.2090139-2.248539-1.1544743v30.4108849h2.5384979c1.2433586 0 2.2499199-1.0115662 2.2499199-2.2499199v-12.067358h2.2395668c1.9182015-.0000001 3.0985604-2.1077061 2.0921746-3.7412987z" fill="#d42032"/></g></g></g><g><g><g><path d="m64.7761307 48.9540596c-5.1131668 5.7263489-16.96558 17.0472298-30.7711372 17.0472298-13.8155422 0-25.6679573-11.3208809-30.7811279-17.0472298-1.6465503-1.8410416-1.6465503-4.6223259 0-6.4633636 5.1131696-5.7263489 16.9655856-17.047226 30.7811278-17.047226 13.8055573 0 25.6579704 11.3208771 30.7711372 17.047226 1.6465531 1.8410377 1.6465531 4.622322.0000001 6.4633636z" fill="#e8edf2"/></g><g><g><path d="m8.9331064 42.3897476c-.3935547 0-.7866211-.1540527-1.0810547-.4602051-.5742188-.5969238-.5556641-1.5466309.0410156-2.1208496 4.3393555-4.173584 8.7983389-7.402832 13.253417-9.5983868.7436523-.3659668 1.6420898-.0605469 2.0087891.682373.3662109.7431641.0605469 1.6423321-.6826172 2.008543-5.2041016 2.5644531-9.6699209 6.3476563-12.4995108 9.0695801-.2910155.2797853-.6655273.4189454-1.040039.4189454z" fill="#fff"/></g></g><g><path d="m64.776123 42.4909325c-5.1083984-5.7211914-16.9436035-17.0253906-30.7329102-17.0463867v40.5556602c13.7893066-.0209961 25.6245117-11.3251915 30.7329102-17.0463829 1.6464844-1.8408203 1.6464844-4.6220703 0-6.4628906z" fill="#c4d3e4"/></g><g><path d="m48.8764648 45.7223778c0 8.2001953-6.6298828 14.8500977-14.8300781 14.8798828h-.0498047c-8.2099609 0-14.8701172-6.6601563-14.8701172-14.8798828s6.6601563-14.8701172 14.8701172-14.8701172h.0498047c8.2001953.0302734 14.8300781 6.6699219 14.8300781 14.8701172z" fill="#108be1"/></g><g><path d="m48.8764648 45.7223778c0 8.2001953-6.6298828 14.8500977-14.8300781 14.8798828v-29.75c8.2001953.0302734 14.8300781 6.6699219 14.8300781 14.8701172z" fill="#0c6bc3"/></g><g><path d="m42.496582 45.7223778c0 4.6699219-3.7700195 8.4697266-8.4501953 8.5h-.0498047c-4.6901855 0-8.5-3.8100586-8.5-8.5s3.8098145-8.5 8.5-8.5h.0498047c4.6801758.0302734 8.4501953 3.8300781 8.4501953 8.5z" fill="#454545"/></g><g><path d="m42.496582 45.7223778c0 4.6699219-3.7700195 8.4697266-8.4501953 8.5v-17c4.6801758.0302734 8.4501953 3.8300781 8.4501953 8.5z" fill="#2c2c2c"/></g><g><circle cx="30.522" cy="42.831" fill="#fff" r="2.188"/></g><g><path d="m30.5639648 40.648159v4.3666992c1.1882324-.0229492 2.1459961-.9897461 2.1459961-2.1835938s-.9577636-2.1601562-2.1459961-2.1831054z" fill="#e8edf2"/></g></g></g></g></svg>