<svg height="300" viewBox="0 0 32 32" width="300" xmlns="http://www.w3.org/2000/svg" version="1.1" xmlns:xlink="http://www.w3.org/1999/xlink" xmlns:svgjs="http://svgjs.dev/svgjs"><g width="100%" height="100%" transform="matrix(1,0,0,1,0,0)"><g id="loudspeaker"><circle cx="16" cy="16" fill="#00487c" r="14.5" fill-opacity="1" data-original-color="#9c88ffff" stroke="none" stroke-opacity="1"/><path d="m10.964 13.071v3.572h-1.285v-3.572zm10.536-2.7v8.978l-9.536-2.589v-3.806zm0-1.036-10.1 2.736h-2.221a.5.5 0 0 0 -.5.5v4.572a.5.5 0 0 0 .5.5h1.785v3.071a.5.5 0 0 0 .09.286l2.286 3.286a.5.5 0 0 0 .82-.572l-2.2-3.157v-2.757l9.54 2.582v1.332a.5.5 0 1 0 1 0v-13.714a.5.5 0 0 0 -1 0z" fill="#ffffff" fill-rule="evenodd" fill-opacity="1" data-original-color="#ffffffff" stroke="none" stroke-opacity="1"/></g></g></svg>