<svg clip-rule="evenodd" fill-rule="evenodd" height="300" image-rendering="optimizeQuality" shape-rendering="geometricPrecision" text-rendering="geometricPrecision" viewBox="0 0 2667 2667" width="300" xmlns="http://www.w3.org/2000/svg" version="1.1" xmlns:xlink="http://www.w3.org/1999/xlink" xmlns:svgjs="http://svgjs.dev/svgjs"><g width="100%" height="100%" transform="matrix(1,0,0,1,0,0)"><g id="Layer_x0020_1"><circle cx="1333" cy="1333" fill="#00487c" r="1333" fill-opacity="1" data-original-color="#2e3d7cff" stroke="none" stroke-opacity="1"/><path d="m1218 1144c-145 0-263-118-263-263s118-263 263-263 263 118 263 263-118 263-263 263zm223 410c-149 0-297 0-446 0-39 0-39-60 0-60h173l-141-261c-84-45-146-117-181-201h-220v493l626 218c6 2 11 5 14 10l178 235h103l16-465c1-16 14-29 30-29h101l-38-462h-66c-34 84-97 156-180 201l-141 261h172c39 0 39 60 0 60zm135 494h-950v79h1415v-79zm-1010-502v-544c0-17 13-30 30-30h232c-58-251 132-492 390-492s449 241 391 492h462c16 0 30 13 30 30v1155c0 16-14 30-30 30h-1475c-17 0-30-14-30-30zm329-556c1 1 1 2 1 4 29 81 87 149 166 190 6 3 10 7 13 13l143 264 143-264c16-28 119-41 180-207 12-34 18-71 18-109 0-188-153-341-341-341-234 0-397 230-323 450zm1146 998v-434h-419l-15 434zm0-494v-462h-324l37 462zm-672 494-145-192-598-208v400zm-151-1310c-112 0-203 91-203 203s91 203 203 203 203-91 203-203-91-203-203-203z" fill="#fdfdfd" fill-opacity="1" data-original-color="#fdfdfdff" stroke="none" stroke-opacity="1"/></g></g></svg>