<?xml version="1.0" encoding="iso-8859-1"?>
<!-- Generator: Adobe Illustrator 19.0.0, SVG Export Plug-In . SVG Version: 6.00 Build 0)  -->
<svg version="1.1" id="Capa_1" xmlns="http://www.w3.org/2000/svg" xmlns:xlink="http://www.w3.org/1999/xlink" x="0px" y="0px"
	 viewBox="0 0 512 512" style="enable-background:new 0 0 512 512;" xml:space="preserve">
<path style="fill:#009900;" d="M473.41,16.77v183.47c0,5.12-4.15,9.27-9.27,9.27H121.49V16.77c0-5.12,4.15-9.27,9.27-9.27h333.38
	C469.26,7.5,473.41,11.65,473.41,16.77z"/>
<path style="fill:#007200;" d="M456.57,48.52v160.99H121.49V24.25h310.81C445.68,24.25,456.57,35.14,456.57,48.52z"/>
<path style="fill:#26BA02;" d="M441.57,48.52v183.47c0,5.12-4.15,9.27-9.27,9.27H89.65V48.52c0-5.12,4.15-9.27,9.27-9.27h333.38
	C437.42,39.25,441.57,43.4,441.57,48.52z"/>
<path style="fill:#009900;" d="M423.99,80.27v160.99H89.65V56h310.07C413.1,56,423.99,66.89,423.99,80.27z"/>
<path style="fill:#60DC4D;" d="M399.721,273.007H66.339c-5.119,0-9.269-4.15-9.269-9.269V80.269c0-5.119,4.15-9.269,9.269-9.269
	h333.383c5.119,0,9.269,4.15,9.269,9.269v183.469C408.991,268.857,404.841,273.007,399.721,273.007z"/>
<g>
	<circle style="fill:#A4E869;" cx="137.43" cy="123.48" r="20.262"/>
	<circle style="fill:#A4E869;" cx="328.63" cy="223.84" r="20.262"/>
</g>
<path style="fill:#EAA96E;" d="M447.72,338.722l-32.413-32.413c-3.453-3.453-9.051-3.453-12.504,0l-66.938,66.938H193.636v70.528
	h163.196l90.945-92.606C451.176,347.708,451.151,342.153,447.72,338.722z"/>
<path style="fill:#FBCB99;" d="M455.54,384.954l-98.547,98.547c-3.933,3.933-9.281,6.152-14.844,6.152H102.698v-94.046
	l72.761-72.761c3.119-3.119,7.342-4.866,11.746-4.866h131.718c4.887,0,8.842,3.955,8.842,8.842v37.522
	c0,4.877-3.955,8.842-8.842,8.842h-85.676c-4.587,0-8.306,3.719-8.306,8.306v24.147c0,4.587,3.719,8.306,8.306,8.306h101.346
	c1.929,0,3.772-0.761,5.134-2.122l71.335-71.346c3.451-3.451,9.056-3.451,12.507,0l31.97,31.97
	C458.991,375.898,458.991,381.503,455.54,384.954z"/>
<polygon style="fill:#EAA96E;" points="124.508,373.797 124.508,489.653 102.698,489.653 102.698,395.607 "/>
<path style="fill:#50B8FF;" d="M99.358,504.5H47.664c-5.012,0-9.074-4.063-9.074-9.074V357.724c0-5.012,4.063-9.074,9.074-9.074
	h51.694c5.012,0,9.074,4.063,9.074,9.074v137.701C108.433,500.437,104.37,504.5,99.358,504.5z"/>
<path d="M473.41,138.38c4.143,0,7.5-3.358,7.5-7.5V16.77c0-9.247-7.523-16.77-16.77-16.77H130.76c-9.247,0-16.77,7.523-16.77,16.77
	v14.98H98.92c-9.247,0-16.77,7.523-16.77,16.77v14.979H66.338c-9.247,0-16.769,7.523-16.769,16.77v183.469
	c0,9.247,7.522,16.769,16.769,16.769h79.037c4.142,0,7.5-3.358,7.5-7.5s-3.358-7.5-7.5-7.5H66.338c-0.976,0-1.769-0.793-1.769-1.769
	V80.269c0-0.976,0.793-1.77,1.769-1.77H89.63c0.007,0,0.013,0.001,0.019,0.001s0.013-0.001,0.019-0.001H399.72
	c0.976,0,1.77,0.794,1.77,1.77V241.24c0,0.006-0.001,0.013-0.001,0.019s0.001,0.013,0.001,0.019v22.458
	c0,0.976-0.794,1.769-1.77,1.769H176.625c-4.142,0-7.5,3.358-7.5,7.5s3.358,7.5,7.5,7.5h223.097c9.247,0,16.77-7.522,16.77-16.769
	V248.76h15.808c9.247,0,16.771-7.523,16.771-16.77v-14.98h15.069c9.247,0,16.771-7.523,16.771-16.77v-38.12
	c0-4.142-3.357-7.5-7.5-7.5s-7.5,3.358-7.5,7.5v38.12c0,0.976-0.794,1.77-1.771,1.77h-15.07V48.52c0-9.247-7.523-16.77-16.771-16.77
	H128.99V16.77c0-0.976,0.794-1.77,1.77-1.77h333.38c0.977,0,1.771,0.794,1.771,1.77v114.11
	C465.91,135.022,469.268,138.38,473.41,138.38z M434.07,48.52v183.47c0,0.976-0.794,1.77-1.771,1.77H416.49V80.269
	c0-9.247-7.522-16.77-16.77-16.77H97.15V48.52c0-0.976,0.794-1.77,1.77-1.77h333.38C433.276,46.75,434.07,47.544,434.07,48.52z"/>
<path d="M121.608,254.85c1.455,1.401,3.33,2.098,5.202,2.098c1.967,0,3.931-0.769,5.403-2.297c13.481-14,13.481-36.779,0-50.779
	c-6.62-6.874-15.442-10.66-24.842-10.66c-4.138,0-8.164,0.734-11.939,2.142V98.66c0-4.142-3.358-7.5-7.5-7.5s-7.5,3.358-7.5,7.5
	v110.413c0,3.059,1.858,5.812,4.695,6.956c2.836,1.143,6.085,0.45,8.207-1.754c3.766-3.91,8.751-6.064,14.037-6.064
	c5.287,0,10.272,2.154,14.038,6.064c7.957,8.263,7.957,21.708,0,29.97C118.535,247.229,118.625,251.977,121.608,254.85z"/>
<path d="M344.452,93.257c-2.984-2.874-7.732-2.784-10.604,0.2c-13.481,14-13.481,36.779,0,50.779
	c6.619,6.874,15.441,10.659,24.841,10.66c0.001,0,0.001,0,0.001,0c4.138,0,8.165-0.734,11.94-2.142v96.693
	c0,4.142,3.357,7.5,7.5,7.5s7.5-3.358,7.5-7.5V139.034c0-3.059-1.858-5.812-4.695-6.956c-2.839-1.146-6.086-0.451-8.207,1.753
	c-3.767,3.911-8.752,6.064-14.038,6.064c-5.286,0-10.271-2.154-14.037-6.064c-7.957-8.263-7.957-21.708,0-29.97
	C347.525,100.878,347.436,96.13,344.452,93.257z"/>
<path d="M165.189,123.48c0-15.308-12.454-27.762-27.762-27.762s-27.762,12.454-27.762,27.762s12.454,27.762,27.762,27.762
	S165.189,138.788,165.189,123.48z M137.427,136.242c-7.037,0-12.762-5.725-12.762-12.762s5.725-12.762,12.762-12.762
	s12.762,5.725,12.762,12.762C150.189,130.517,144.464,136.242,137.427,136.242z"/>
<path d="M300.871,223.84c0,15.308,12.454,27.762,27.762,27.762s27.762-12.454,27.762-27.762s-12.454-27.762-27.762-27.762
	S300.871,208.533,300.871,223.84z M328.633,211.079c7.037,0,12.762,5.725,12.762,12.762s-5.725,12.762-12.762,12.762
	s-12.762-5.725-12.762-12.762S321.596,211.079,328.633,211.079z"/>
<path d="M237.573,123.078c-4.142,0-7.5,3.358-7.5,7.5v8.356c-8.112,3.049-13.91,10.864-13.91,20.027
	c0,11.358,8.896,20.652,20.083,21.343c0.313,0.04,0.63,0.067,0.954,0.067c3.535,0,6.41,2.875,6.41,6.41s-2.875,6.41-6.41,6.41
	c-1.935,0-3.748-0.862-4.974-2.366c-2.618-3.21-7.343-3.692-10.552-1.073c-3.21,2.617-3.691,7.342-1.073,10.552
	c2.528,3.101,5.809,5.381,9.473,6.671v8.19c0,4.142,3.358,7.5,7.5,7.5s7.5-3.358,7.5-7.5v-8.493
	c7.917-3.146,13.537-10.867,13.537-19.891c0-11.357-8.896-20.652-20.083-21.343c-0.313-0.04-0.63-0.067-0.954-0.067
	c-3.535,0-6.41-2.875-6.41-6.41c0-3.534,2.875-6.41,6.41-6.41c1.935,0,3.748,0.862,4.974,2.366c2.617,3.21,7.342,3.691,10.552,1.073
	c3.21-2.617,3.691-7.342,1.073-10.552c-2.441-2.995-5.587-5.219-9.099-6.53v-8.331C245.073,126.436,241.715,123.078,237.573,123.078
	z"/>
<path d="M451.64,357.943l1.49-1.517c6.26-6.371,6.211-16.693-0.106-23.009L420.605,301c-6.37-6.352-16.733-6.351-23.109,0.008
	l-51.108,51.115c-0.015,0.015-0.031,0.027-0.046,0.041s-0.027,0.031-0.041,0.046l-11.032,11.033V326.82
	c0-9.01-7.33-16.34-16.34-16.34H187.21c-6.432,0-12.485,2.503-17.053,7.057l-54.224,54.224v-14.036
	c0-9.139-7.436-16.575-16.575-16.575H47.664c-9.139,0-16.574,7.436-16.574,16.575v137.701c0,9.139,7.435,16.574,16.574,16.574
	h51.694c8.557,0,15.619-6.518,16.484-14.85h28.538c4.142,0,7.5-3.358,7.5-7.5s-3.358-7.5-7.5-7.5h-28.447v-89.176l64.822-64.822
	c1.729-1.723,4.021-2.672,6.456-2.672h131.72c0.739,0,1.34,0.601,1.34,1.34v37.52c0,0.745-0.601,1.35-1.34,1.35h-85.68
	c-0.578,0-1.148,0.036-1.71,0.096c-0.285,0.027-0.565,0.07-0.84,0.128c-7.507,1.224-13.26,7.732-13.26,15.575v24.15
	c0,8.712,7.092,15.8,15.81,15.8h66.163c0.029,0,0.058,0.004,0.087,0.004s0.058-0.004,0.087-0.004H334.6
	c3.939,0,7.643-1.534,10.424-4.317l8.691-8.691l15.177,15.177c1.465,1.465,3.385,2.197,5.304,2.197s3.839-0.732,5.304-2.197
	c2.929-2.929,2.929-7.678,0-10.606l-15.177-15.177l52.034-52.034c0.53-0.528,1.387-0.531,1.911-0.007l31.971,31.971
	c0.523,0.523,0.521,1.381,0,1.902l-98.557,98.547c-2.502,2.508-5.977,3.947-9.53,3.947H175.62c-4.142,0-7.5,3.358-7.5,7.5
	s3.358,7.5,7.5,7.5h166.53c7.51,0,14.854-3.044,20.143-8.346l98.558-98.548c6.36-6.378,6.357-16.745-0.007-23.109L451.64,357.943z
	 M99.358,497H47.664c-0.868,0-1.574-0.706-1.574-1.574V357.725c0-0.868,0.706-1.575,1.574-1.575h51.694
	c0.868,0,1.575,0.707,1.575,1.575v32.092c0,0.036,0,0.072,0,0.107v99.678c0,0.016-0.002,0.032-0.002,0.048s0.002,0.032,0.002,0.048
	v5.728C100.933,496.294,100.226,497,99.358,497z M334.493,406.44H307v-13.654c0-4.142-3.357-7.5-7.5-7.5s-7.5,3.358-7.5,7.5v13.654
	h-58.75c-0.447,0-0.81-0.359-0.81-0.8v-24.15c0-0.34,0.205-0.622,0.502-0.74H335.87c1.989,0,3.897-0.791,5.304-2.197l10.475-10.477
	l10.604,10.604L334.493,406.44z M405.756,335.177l-32.896,32.896l-10.605-10.605l45.841-45.847c0.529-0.527,1.389-0.527,1.91-0.008
	l32.411,32.411c0.521,0.52,0.526,1.367,0.013,1.89l-1.397,1.422l-12.159-12.159C422.509,328.813,412.143,328.809,405.756,335.177z"
	/>
<path d="M72.192,470.835h-5.748c-4.142,0-7.5,3.358-7.5,7.5s3.358,7.5,7.5,7.5h5.748c4.142,0,7.5-3.358,7.5-7.5
	S76.334,470.835,72.192,470.835z"/>
<g>
</g>
<g>
</g>
<g>
</g>
<g>
</g>
<g>
</g>
<g>
</g>
<g>
</g>
<g>
</g>
<g>
</g>
<g>
</g>
<g>
</g>
<g>
</g>
<g>
</g>
<g>
</g>
<g>
</g>
</svg>
