<svg id="Capa_1" enable-background="new 0 0 512 512" viewBox="0 0 512 512" xmlns="http://www.w3.org/2000/svg"><g><g><g><g><g><path d="m221.304 386.401h69.393v84.293h-69.393z" fill="#685e67"/><path d="m221.304 386.401v48.388h26.567c5.69 0 10.302 4.612 10.302 10.302v25.603h32.523v-84.293z" fill="#554e55"/><path d="m512 58.956v305.222l-252.703 22.839-259.297-22.839v-305.222c0-7.16 5.81-12.97 12.98-12.97h486.04c7.17 0 12.98 5.811 12.98 12.97z" fill="#fcb3a9"/><path d="m398.671 144.639c-24.813-54.008-79.345-91.528-142.674-91.528s-117.861 37.52-142.674 91.528c-2.373 5.165-2.373 11.157 0 16.323 15.886 34.577 43.964 62.373 78.722 77.915v119.111c0 5.052 5.732 7.97 9.817 4.998l54.138-39.384 54.137 39.384c4.085 2.972 9.817.054 9.817-4.998v-119.113c34.755-15.542 62.831-43.338 78.716-77.913 2.374-5.166 2.374-11.158.001-16.323z" fill="#fc9085"/><g><path d="m437.425 268.433v95.745l-178.673 12.563-184.177-12.563v-95.745c0-5.697 4.615-10.302 10.302-10.302h342.247c5.686.001 10.301 4.605 10.301 10.302z" fill="#27d1b3"/><g fill="#17998c"><path d="m437.425 268.433v95.745l-36.654 6.94v-102.685c0-5.697-4.615-10.302-10.302-10.302h36.654c5.687.001 10.302 4.605 10.302 10.302z"/><path d="m319.954 258.132v99.855c0 3.647-2.998 6.191-6.202 6.191-1.226 0-2.483-.371-3.616-1.195l-54.136-39.384-54.136 39.384c-1.133.824-2.39 1.195-3.616 1.195-3.204 0-6.202-2.545-6.202-6.191v-99.855z"/></g></g><path d="m470.762 58.962v317.779l41.238-12.563v-305.216c0-7.17-5.81-12.981-12.98-12.981h-41.228c7.16 0 12.97 5.811 12.97 12.981z" fill="#fc9085"/><path d="m499.023 405.281h-486.046c-7.167 0-12.977-5.81-12.977-12.977v-28.124h512v28.124c0 7.167-5.81 12.977-12.977 12.977z" fill="#685e67"/><path d="m512 392.304v-28.124h-41.238v28.128c0 7.16-5.81 12.97-12.97 12.97l.003.003h41.228c7.167 0 12.977-5.81 12.977-12.977z" fill="#554e55"/></g></g><g><path d="m310.137 334.112-54.137-39.384-54.137 39.384c-4.085 2.972-9.817.054-9.817-4.998v-157.163h127.909v157.163c0 5.052-5.732 7.971-9.818 4.998z" fill="#fb5652"/><path d="m192.045 171.951v66.926c19.533 8.734 41.167 13.613 63.952 13.613 6.535 0 12.976-.402 19.299-1.181 5.322-.656 9.999 3.547 9.999 8.909v55.822l24.842 18.072c4.085 2.972 9.817.054 9.817-4.998v-157.163z" fill="#f82f40"/><g><g><path d="m255.997 19.001c-63.329 0-117.861 37.52-142.674 91.528-2.373 5.166-2.373 11.158 0 16.323 24.813 54.008 79.345 91.528 142.674 91.528s117.861-37.52 142.674-91.528c2.373-5.166 2.373-11.158 0-16.323-24.813-54.008-79.345-91.528-142.674-91.528z" fill="#eaf6ff"/><path d="m398.666 126.843c-24.809 54.01-79.34 91.534-142.675 91.534-.842 0-1.685 0-2.527-.02 44.584-13.578 81.004-47.612 99.817-91.915 2.106-4.954 2.106-10.549 0-15.503-18.812-44.303-55.233-78.337-99.817-91.915.842-.02 1.685-.02 2.527-.02 63.335 0 117.867 37.524 142.675 91.534 2.387 5.154 2.387 11.151 0 16.305z" fill="#b5dbfd"/></g><g><g><g><circle cx="256" cy="118.691" fill="#64b9fc" r="70.147"/><path d="m326.144 118.693c0 38.734-31.406 70.141-70.141 70.141-4.206 0-8.329-.371-12.331-1.084 32.861-5.827 57.819-34.528 57.819-69.057 0-34.538-24.958-63.239-57.819-69.066 4.002-.713 8.125-1.084 12.331-1.084 38.735 0 70.141 31.407 70.141 70.15z" fill="#1c96f9"/></g></g><g><path d="m256 145.221-16.935 7.175c-3.49 1.478-7.298-1.289-6.97-5.064l1.59-18.323-12.057-13.889c-2.484-2.862-1.03-7.339 2.662-8.194l17.918-4.15 9.484-15.758c1.954-3.247 6.662-3.247 8.616 0l9.484 15.758 17.918 4.15c3.692.855 5.147 5.332 2.662 8.194l-12.057 13.889 1.59 18.323c.328 3.776-3.481 6.543-6.97 5.064z" fill="#f8c52d"/></g></g></g></g></g></g><g><g><g><g><path d="m318.772 492.999c-2.973 0-5.808-1.726-7.079-4.624l-4.368-9.955h-102.649l-4.368 9.955c-1.715 3.907-6.271 5.685-10.18 3.971-3.907-1.715-5.685-6.273-3.971-10.18l6.396-14.576c1.232-2.808 4.009-4.622 7.075-4.622h112.743c3.067 0 5.843 1.814 7.075 4.622l6.396 14.576c1.714 3.907-.063 8.465-3.971 10.18-1.009.443-2.063.653-3.099.653z" fill="#433f43"/></g></g></g><g fill="#685e67"><path d="m37.988 91.551h-.124c-4.267 0-7.726-3.459-7.726-7.726s3.459-7.726 7.726-7.726h.124c4.267 0 7.726 3.459 7.726 7.726s-3.458 7.726-7.726 7.726z"/><path d="m62.756 91.551h-.124c-4.267 0-7.726-3.459-7.726-7.726s3.459-7.726 7.726-7.726h.124c4.267 0 7.726 3.459 7.726 7.726s-3.459 7.726-7.726 7.726z"/><path d="m87.523 91.551h-.124c-4.267 0-7.726-3.459-7.726-7.726s3.459-7.726 7.726-7.726h.124c4.267 0 7.726 3.459 7.726 7.726s-3.459 7.726-7.726 7.726z"/></g></g></g><g/><g/><g/><g/><g/><g/><g/><g/><g/><g/><g/><g/><g/><g/><g/></svg>