<svg id="Layer_1" enable-background="new 0 0 66 66" height="512" viewBox="0 0 66 66" width="512" xmlns="http://www.w3.org/2000/svg"><g><path d="m64 6.93c0-2.36-1.91-4.28-4.28-4.28h-53.44c-2.37 0-4.28 1.92-4.28 4.28v6.28h62z" fill="#1c8fc7"/><path d="m2 13.2v45.87c0 2.36 1.91 4.28 4.28 4.28h53.45c2.36 0 4.28-1.91 4.28-4.28v-45.87z" fill="#e1d9e1"/><g fill="#fff"><circle cx="8.59" cy="7.93" r="1.6"/><circle cx="14.9" cy="7.93" r="1.6"/><circle cx="21.21" cy="7.93" r="1.6"/></g><path d="m48.53 32.74c0 2.34-.51 4.56-1.43 6.54h-28.18c-.93-1.98-1.45-4.2-1.45-6.54 0-8.58 6.95-15.53 15.53-15.53s15.53 6.95 15.53 15.53z" fill="#ff7146"/><path d="m44.34 32.74c0 2.43-.76 4.68-2.08 6.54h-18.51c-1.32-1.85-2.08-4.11-2.08-6.54 0-6.25 5.09-11.34 11.34-11.34 6.25-.01 11.33 5.09 11.33 11.34z" fill="#fff"/><path d="m35.04 34.52c0 1.13-.91 2.04-2.04 2.04s-2.04-.91-2.04-2.04 2.04-6.64 2.04-6.64 2.04 5.51 2.04 6.64z" fill="#ff7146"/><circle cx="13.98" cy="51.37" fill="#ffc040" r="7.98"/><path d="m54.56 43.09v6.95l5.44-3.47z" fill="#ff7146"/><g fill="#2b2a3a"><path d="m59.72 1.9h-53.44c-2.77 0-5.03 2.25-5.03 5.03v52.14c0 2.77 2.25 5.03 5.03 5.03h53.45c2.77 0 5.03-2.25 5.03-5.03v-52.14c-.01-2.77-2.26-5.03-5.04-5.03zm3.53 57.17c0 1.94-1.58 3.53-3.53 3.53h-53.44c-1.94 0-3.53-1.58-3.53-3.53v-45.12h60.5zm0-46.62h-60.5v-5.52c0-1.94 1.58-3.53 3.53-3.53h53.45c1.94 0 3.53 1.58 3.53 3.53v5.52z"/><path d="m8.59 5.57c-1.3 0-2.35 1.06-2.35 2.35 0 1.3 1.06 2.35 2.35 2.35s2.35-1.06 2.35-2.35-1.06-2.35-2.35-2.35zm0 3.21c-.47 0-.85-.38-.85-.85s.38-.85.85-.85.85.38.85.85-.38.85-.85.85z"/><path d="m14.9 5.57c-1.3 0-2.35 1.06-2.35 2.35 0 1.3 1.06 2.35 2.35 2.35s2.35-1.06 2.35-2.35-1.06-2.35-2.35-2.35zm0 3.21c-.47 0-.85-.38-.85-.85s.38-.85.85-.85.85.38.85.85-.38.85-.85.85z"/><path d="m21.21 5.57c-1.3 0-2.35 1.06-2.35 2.35 0 1.3 1.06 2.35 2.35 2.35s2.35-1.06 2.35-2.35-1.05-2.35-2.35-2.35zm0 3.21c-.47 0-.85-.38-.85-.85s.38-.85.85-.85.85.38.85.85-.38.85-.85.85z"/><path d="m19.24 39.95c.38-.18.54-.62.36-1-.91-1.93-1.37-4.03-1.37-6.22 0-8.15 6.63-14.78 14.78-14.78s14.77 6.63 14.77 14.78c0 2.18-.46 4.27-1.36 6.22-.17.38-.01.82.36 1 .1.05.21.07.32.07.28 0 .55-.16.68-.43 1-2.14 1.5-4.45 1.5-6.85 0-8.98-7.3-16.28-16.27-16.28-8.98 0-16.28 7.3-16.28 16.28 0 2.41.51 4.72 1.52 6.85.17.38.61.54.99.36z"/><path d="m24.36 38.84c-1.27-1.79-1.95-3.9-1.95-6.1 0-5.84 4.75-10.59 10.59-10.59 5.83 0 10.58 4.75 10.58 10.59 0 2.2-.67 4.31-1.95 6.1-.24.34-.16.81.18 1.05.13.09.28.14.43.14.23 0 .47-.11.61-.32 1.45-2.04 2.22-4.45 2.22-6.97 0-6.67-5.42-12.09-12.08-12.09-6.67 0-12.09 5.42-12.09 12.09 0 2.52.77 4.93 2.22 6.97.24.34.71.42 1.05.18.35-.25.43-.71.19-1.05z"/><path d="m33 25.85c.41 0 .75-.34.75-.75v-1.17c0-.41-.34-.75-.75-.75s-.75.34-.75.75v1.17c0 .41.34.75.75.75z"/><path d="m29.56 26.77c.36-.21.48-.67.27-1.02l-.58-1.01c-.21-.36-.67-.48-1.02-.27-.36.21-.48.67-.27 1.02l.58 1.01c.14.24.39.38.65.38.12-.01.25-.04.37-.11z"/><path d="m26.76 28.27-1.01-.59c-.36-.21-.82-.08-1.02.27-.21.36-.08.82.27 1.02l1.01.59c.12.07.25.1.37.1.26 0 .51-.13.65-.38.22-.35.09-.81-.27-1.01z"/><path d="m40.63 37.89c.26 0 .51-.13.65-.38.21-.36.08-.82-.27-1.02l-1.01-.59c-.36-.21-.82-.08-1.02.27-.21.36-.08.82.27 1.02l1.01.59c.11.08.24.11.37.11z"/><path d="m24.2 33.48h1.17c.41 0 .75-.34.75-.75s-.34-.75-.75-.75h-1.17c-.41 0-.75.34-.75.75s.33.75.75.75z"/><path d="m39.89 32.73c0 .41.34.75.75.75h1.17c.41 0 .75-.34.75-.75s-.34-.75-.75-.75h-1.17c-.42 0-.75.34-.75.75z"/><path d="m26.01 35.9-1.01.59c-.36.21-.48.67-.27 1.02.14.24.39.38.65.38.13 0 .26-.03.37-.1l1.01-.59c.36-.21.48-.67.27-1.02-.2-.36-.66-.48-1.02-.28z"/><path d="m40.25 27.68-1.01.59c-.36.21-.48.67-.27 1.02.14.24.39.38.65.38.13 0 .26-.03.37-.1l1.01-.59c.36-.21.48-.67.27-1.02-.2-.36-.66-.49-1.02-.28z"/><path d="m36.82 26.87c.26 0 .51-.13.65-.38l.58-1.01c.21-.36.08-.82-.27-1.02-.36-.21-.82-.08-1.02.27l-.58 1.01c-.21.36-.08.82.27 1.02.11.08.24.11.37.11z"/><path d="m35.79 34.52c0-1.2-1.74-5.95-2.08-6.89-.11-.29-.39-.49-.7-.49s-.59.2-.7.49c-.35.94-2.08 5.7-2.08 6.89 0 1.54 1.25 2.79 2.79 2.79s2.77-1.26 2.77-2.79zm-2.79 1.28c-.71 0-1.29-.58-1.29-1.29 0-.47.58-2.37 1.29-4.41.71 2.04 1.29 3.94 1.29 4.41 0 .72-.58 1.29-1.29 1.29z"/><path d="m13.98 60.1c4.81 0 8.73-3.91 8.73-8.73s-3.91-8.73-8.73-8.73-8.73 3.91-8.73 8.73 3.91 8.73 8.73 8.73zm0-15.95c3.98 0 7.23 3.24 7.23 7.23s-3.24 7.23-7.23 7.23-7.23-3.24-7.23-7.23 3.24-7.23 7.23-7.23z"/><path d="m13.98 54.66c-.7 0-1.27-.57-1.27-1.27 0-.41-.34-.75-.75-.75s-.75.34-.75.75c0 1.26.86 2.32 2.02 2.65v.78c0 .41.34.75.75.75s.75-.34.75-.75v-.78c1.16-.33 2.02-1.39 2.02-2.65 0-1.53-1.24-2.77-2.77-2.77-.7 0-1.27-.57-1.27-1.27s.57-1.27 1.27-1.27 1.27.57 1.27 1.27c0 .41.34.75.75.75s.75-.34.75-.75c0-1.26-.86-2.32-2.02-2.65v-.78c0-.41-.34-.75-.75-.75s-.75.34-.75.75v.78c-1.16.33-2.02 1.39-2.02 2.65 0 1.53 1.24 2.77 2.77 2.77.7 0 1.27.57 1.27 1.27s-.58 1.27-1.27 1.27z"/><path d="m26.07 45.73h-1.5c-.41 0-.75.34-.75.75s.34.75.75.75h1.5c.41 0 .75-.34.75-.75s-.34-.75-.75-.75z"/><path d="m28.45 51.07c-.81.59-1.29 1.53-1.28 2.52 0 .4.07.79.22 1.15.12.29.4.47.7.47.09 0 .19-.02.28-.05.38-.15.57-.59.42-.97-.08-.19-.11-.39-.11-.6 0-.52.25-1.01.67-1.31.33-.24.41-.71.17-1.05-.26-.33-.73-.41-1.07-.16z"/><path d="m35.46 47.23h3.13c.41 0 .75-.34.75-.75s-.34-.75-.75-.75h-3.13c-.41 0-.75.34-.75.75s.33.75.75.75z"/><path d="m33.72 55.21h-3.13c-.41 0-.75.34-.75.75s.34.75.75.75h3.13c.41 0 .75-.34.75-.75s-.34-.75-.75-.75z"/><path d="m29.2 47.23h3.13c.41 0 .75-.34.75-.75s-.34-.75-.75-.75h-3.13c-.41 0-.75.34-.75.75s.33.75.75.75z"/><path d="m48.61 55.96c0 .41.34.75.75.75h3.13c.41 0 .75-.34.75-.75s-.34-.75-.75-.75h-3.13c-.42 0-.75.33-.75.75z"/><path d="m43.21 49.8h.07c.38 0 .71-.29.75-.68.01-.09.01-.18.01-.27 0-1.32-.84-2.51-2.09-2.95-.39-.14-.82.07-.96.46s.07.82.46.96c.65.23 1.09.84 1.09 1.53 0 .05 0 .09-.01.14-.04.41.27.77.68.81z"/><path d="m35.05 50.47h-3.13c-.41 0-.75.34-.75.75s.34.75.75.75h3.13c.41 0 .75-.34.75-.75s-.33-.75-.75-.75z"/><path d="m46.23 55.21h-3.13c-.41 0-.75.34-.75.75s.34.75.75.75h3.13c.41 0 .75-.34.75-.75s-.34-.75-.75-.75z"/><path d="m39.97 55.21h-3.13c-.41 0-.75.34-.75.75s.34.75.75.75h3.13c.41 0 .75-.34.75-.75s-.33-.75-.75-.75z"/><path d="m41.19 50.45c-.09.01-.18.02-.27.02h-2.73c-.41 0-.75.34-.75.75s.34.75.75.75h2.73c.18 0 .35-.01.51-.04.41-.07.68-.45.62-.86-.07-.42-.46-.69-.86-.62z"/><path d="m54.94 56.71c.13 0 .24-.04.35-.1.11.06.22.1.35.1h1.5c.41 0 .75-.33.75-.75 0-.41-.34-.75-.75-.75h-1.45v-5.8l4.68-2.99-4.68-2.99v-.18c0-.42-.33-.75-.75-.75-.41 0-.75.33-.75.75v12.71c0 .42.34.75.75.75z"/></g></g></svg>