<?xml version="1.0" encoding="UTF-8" standalone="no"?>
<!-- Created with Inkscape (http://www.inkscape.org/) -->

<svg
   version="1.1"
   id="svg7836"
   xml:space="preserve"
   width="682.66669"
   height="682.66669"
   viewBox="0 0 682.66669 682.66669"
   xmlns="http://www.w3.org/2000/svg"
   xmlns:svg="http://www.w3.org/2000/svg"><defs
     id="defs7840"><clipPath
       clipPathUnits="userSpaceOnUse"
       id="clipPath7850"><path
         d="M 0,512 H 512 V 0 H 0 Z"
         id="path7848" /></clipPath></defs><g
     id="g7842"
     transform="matrix(1.3333333,0,0,-1.3333333,0,682.66667)"><g
       id="g7844"><g
         id="g7846"
         clip-path="url(#clipPath7850)"><g
           id="g7852"
           transform="translate(221.5195,477.2939)"><path
             d="m 0,0 c -13.011,0 -23.669,-10.659 -23.669,-23.67 v -145.08 c 0,-13.012 10.658,-23.698 23.669,-23.698 h 27.071 c 11.848,-17.292 9.156,-35.802 -13.55,-56.212 52.441,0 79.879,26.845 77.045,56.212 h 168.717 c 13.011,0 23.697,10.658 23.697,23.698 V -23.67 C 282.98,-10.659 272.322,0 259.283,0 Z"
             style="fill:#eb5468;fill-opacity:1;fill-rule:evenodd;stroke:none"
             id="path7854" /></g><g
           id="g7856"
           transform="translate(260.4385,150.8779)"><path
             d="m 0,0 -26.447,-27.156 c -14.031,-14.429 -34.894,-11.028 -51.732,0 -16.837,10.998 -32.909,23.896 -47.479,38.268 -14.372,14.599 -27.298,30.643 -38.296,47.481 -10.999,16.839 -14.4,37.702 0,51.733 l 27.156,26.448 -15.336,39.261 -46.97,23.046 -0.028,0.028 -25.115,-24.407 c -19.814,-19.786 -28.487,-43.909 -28.686,-69.677 v -1.984 c 0.397,-48.87 30.756,-103.466 73.246,-145.958 65.537,-65.539 159.93,-102.248 217.615,-44.562 l 24.406,25.116 v 0.028 l -11.509,50.372 z"
             style="fill:#375e7d;fill-opacity:1;fill-rule:evenodd;stroke:none"
             id="path7858" /></g><g
           id="g7860"
           transform="translate(313.7861,117.7402)"><path
             d="m 0,0 -34.525,-35.264 c -54.879,-54.851 -142.979,-24.293 -207.863,35.236 3.061,-3.288 6.179,-6.548 9.354,-9.751 65.536,-65.539 159.93,-102.248 217.614,-44.562 l 24.406,25.115 v 0.029 z"
             style="fill:#2b4d66;fill-opacity:1;fill-rule:evenodd;stroke:none"
             id="path7862" /></g><g
           id="g7864"
           transform="translate(465.5811,453.624)"><path
             d="m 0,0 v -42.379 -38.467 -20.127 -44.107 c 0,-13.04 -10.658,-23.698 -23.67,-23.698 h 38.892 c 13.01,0 23.697,10.658 23.697,23.698 V 0 c 0,13.011 -10.658,23.67 -23.697,23.67 H -23.67 C -10.658,23.67 0,13.011 0,0"
             style="fill:#e5384f;fill-opacity:1;fill-rule:evenodd;stroke:none"
             id="path7866" /></g><g
           id="g7868"
           transform="translate(78.2578,389.3047)"><path
             d="m 0,0 -16.923,-17.83 c -5.754,-6.066 -5.924,-15.563 -0.028,-21.487 0,0 0.028,0 0.028,-0.029 l 62.305,-62.306 0.029,-0.029 c 5.924,-5.896 15.76,-6.066 21.514,0 l 16.923,17.859 c 5.755,6.066 5.896,15.591 0,21.487 L 21.515,0 C 15.59,5.925 5.754,6.066 0,0"
             style="fill:#b6c4cf;fill-opacity:1;fill-rule:evenodd;stroke:none"
             id="path7870" /></g><g
           id="g7872"
           transform="translate(278.2686,189.2881)"><path
             d="m 0,0 -17.83,-16.923 c -6.066,-5.755 -5.924,-15.591 0,-21.487 l 62.334,-62.335 v -0.028 c 5.924,-5.897 15.42,-5.727 21.486,0.028 l 17.859,16.923 c 6.065,5.755 5.895,15.591 0,21.487 L 21.515,0 C 15.591,5.925 6.066,5.755 0,0"
             style="fill:#b6c4cf;fill-opacity:1;fill-rule:evenodd;stroke:none"
             id="path7874" /></g><g
           id="g7876"
           transform="translate(143.0005,324.5596)"><path
             d="m 0,0 -16.923,-17.83 c -2.267,-2.381 -5.159,-3.826 -8.192,-4.309 -4.705,-0.765 -9.722,0.709 -13.294,4.309 l 19.049,-19.077 0.028,-0.029 c 5.924,-5.896 15.76,-6.066 21.515,0 l 16.922,17.859 c 5.755,6.066 5.896,15.591 0,21.487 L 0,21.516 C 5.924,15.591 5.754,6.066 0,0"
             style="fill:#9facba;fill-opacity:1;fill-rule:evenodd;stroke:none"
             id="path7878" /></g><g
           id="g7880"
           transform="translate(343.0117,124.5439)"><path
             d="m 0,0 -17.83,-16.924 c -1.758,-1.643 -3.798,-2.834 -5.953,-3.571 -5.329,-1.758 -11.338,-0.624 -15.562,3.571 l 19.106,-19.077 v -0.028 c 5.895,-5.897 15.42,-5.727 21.486,0.028 l 17.858,16.923 c 6.066,5.755 5.896,15.591 0,21.487 L 0,21.515 C 5.924,15.591 6.065,5.754 0,0"
             style="fill:#9facba;fill-opacity:1;fill-rule:evenodd;stroke:none"
             id="path7882" /></g><g
           id="g7884"
           transform="translate(411.2412,284.8457)"><path
             d="m 0,0 h 69.562 c 13.01,0 23.697,10.658 23.697,23.698 v 145.08 c 0,13.011 -10.658,23.67 -23.697,23.67 h -259.284 c -13.01,0 -23.669,-10.659 -23.669,-23.67 V 23.698 C -213.391,10.687 -202.732,0 -189.722,0 h 27.071 c 11.848,-17.292 9.156,-35.802 -13.55,-56.212 52.441,0 79.88,26.845 77.046,56.212 h 64.374"
             style="fill:none;stroke:#000000;stroke-width:15.118;stroke-linecap:round;stroke-linejoin:round;stroke-miterlimit:10;stroke-dasharray:none;stroke-opacity:1"
             id="path7886" /></g><g
           id="g7888"
           transform="translate(278.1553,410.2246)"><path
             d="m 0,0 c 0,0 -13.152,11.056 -28.687,6.378 -14.257,-4.28 -16.242,-20.722 -5.924,-27.44 0,0 10.12,-4.536 21.345,-8.674 27.014,-9.95 15.364,-36.085 -6.378,-36.085 -10.885,0 -20.041,4.761 -25.568,10.856"
             style="fill:none;stroke:#000000;stroke-width:15.118;stroke-linecap:round;stroke-linejoin:round;stroke-miterlimit:10;stroke-dasharray:none;stroke-opacity:1"
             id="path7890" /></g><g
           id="g7892"
           transform="translate(386.75,381.084)"><path
             d="M 0,0 C 0,20.211 -16.498,36.681 -36.681,36.681 -56.892,36.681 -73.36,20.211 -73.36,0 c 0,-20.212 16.468,-36.681 36.679,-36.681 C -16.498,-36.681 0,-20.212 0,0 Z"
             style="fill:none;stroke:#000000;stroke-width:15.118;stroke-linecap:round;stroke-linejoin:round;stroke-miterlimit:10;stroke-dasharray:none;stroke-opacity:1"
             id="path7894" /></g><g
           id="g7896"
           transform="translate(466.9697,410.2246)"><path
             d="m 0,0 c 0,0 -13.181,11.056 -28.715,6.378 -14.229,-4.28 -16.242,-20.722 -5.925,-27.44 0,0 10.12,-4.536 21.345,-8.674 27.015,-9.95 15.393,-36.085 -6.378,-36.085 -10.885,0 -20.012,4.761 -25.568,10.856"
             style="fill:none;stroke:#000000;stroke-width:15.118;stroke-linecap:round;stroke-linejoin:round;stroke-miterlimit:10;stroke-dasharray:none;stroke-opacity:1"
             id="path7898" /></g><g
           id="g7900"
           transform="translate(162.106,326.9697)"><path
             d="m 0,0 -62.333,62.335 c -5.925,5.925 -15.761,6.066 -21.515,0 l -16.923,-17.83 c -5.754,-6.067 -5.924,-15.591 0,-21.516 l 62.333,-62.335 c 5.925,-5.896 15.761,-6.066 21.515,0 L 0,-21.487 C 5.754,-15.421 5.896,-5.896 0,0 Z"
             style="fill:none;stroke:#000000;stroke-width:15.118;stroke-linecap:round;stroke-linejoin:round;stroke-miterlimit:10;stroke-dasharray:none;stroke-opacity:1"
             id="path7902" /></g><g
           id="g7904"
           transform="translate(322.7725,88.5146)"><path
             d="m 0,0 -24.406,-25.115 c -57.685,-57.687 -152.078,-20.978 -217.615,44.561 -65.536,65.567 -102.244,159.934 -44.56,217.619 l 25.115,24.408 m 85.577,-199.308 c 11.197,-9.894 23.074,-18.936 35.376,-26.958 16.838,-11.027 37.701,-14.429 51.732,0 l 26.447,27.156 m -136.798,136.775 -27.156,-26.449 c -14.4,-14.031 -10.999,-34.894 0,-51.733 7.228,-11.055 15.307,-21.799 24.038,-32.003"
             style="fill:none;stroke:#000000;stroke-width:15.118;stroke-linecap:round;stroke-linejoin:round;stroke-miterlimit:10;stroke-dasharray:none;stroke-opacity:1"
             id="path7906" /></g><g
           id="g7908"
           transform="translate(299.7832,189.2881)"><path
             d="m 0,0 62.334,-62.335 c 5.895,-5.896 6.065,-15.732 0,-21.487 l -17.858,-16.923 c -6.067,-5.755 -15.591,-5.925 -21.487,0 l -62.334,62.335 c -5.924,5.896 -6.065,15.732 0,21.487 L -21.515,0 C -15.448,5.755 -5.924,5.925 0,0 Z"
             style="fill:none;stroke:#000000;stroke-width:15.118;stroke-linecap:round;stroke-linejoin:round;stroke-miterlimit:10;stroke-dasharray:none;stroke-opacity:1"
             id="path7910" /></g></g></g></g></svg>
