<?xml version="1.0" encoding="iso-8859-1"?>
<!-- Generator: Adobe Illustrator 19.0.0, SVG Export Plug-In . SVG Version: 6.00 Build 0)  -->
<svg version="1.1" id="Capa_1" xmlns="http://www.w3.org/2000/svg" xmlns:xlink="http://www.w3.org/1999/xlink" x="0px" y="0px"
	 viewBox="0 0 512 512" style="enable-background:new 0 0 512 512;" xml:space="preserve">
<g>
	<g>
		<path style="fill:#F63D53;" d="M128.556,106.609c35.136,51.079,24.693,69.885,3.254,88.749c-4.352,3.83-9.156,7.661-14.125,11.765
			c-19.875,17.275,15.354,66.565,51.834,109.485c37.787,44.131,81.308,86.417,101.162,69.121c1.989-1.718,3.928-3.423,5.832-5.09
			c25.06-21.945,44.157-37.387,95.353,10.227c15.73,14.982,22.861,27.934,24.373,39.371
			c65.858-41.797,105.76-114.379,105.76-192.381C501.998,112.015,399.984,10,274.144,10c-63.494,0-124.107,26.493-167.232,73.094
			C113.889,88.153,121.103,95.768,128.556,106.609L128.556,106.609z M294.625,255.011v-57.772c0-11.956,9.782-21.738,21.739-21.738
			c11.956,0,21.738,9.782,21.738,21.738v57.772c0,11.956-9.782,21.738-21.739,21.738
			C304.407,276.749,294.625,266.967,294.625,255.011z"/>
		<path style="fill:#F63D53;" d="M294.625,197.239v57.772c0,11.956,9.782,21.738,21.738,21.738c11.957,0,21.739-9.783,21.739-21.738
			v-57.772c0-11.956-9.782-21.738-21.738-21.738C304.407,175.501,294.625,185.283,294.625,197.239z"/>
	</g>
	<g>
		<path style="fill:#BCCBD3;" d="M131.81,195.359c21.439-18.865,31.882-37.671-3.254-88.75
			c-7.453-10.842-14.667-18.457-21.644-23.516c-17.578-12.745-33.66-9.271-48.305-0.307
			C81.863,107.316,117.195,163.936,131.81,195.359z"/>
		<path style="fill:#BCCBD3;" d="M371.865,390.866c-51.195-47.614-70.293-32.173-95.353-10.227
			c30.068,16.042,80.578,56.775,103.738,87.585c10.449-10.861,17.947-23.149,15.987-37.987
			C394.727,418.8,387.596,405.848,371.865,390.866z"/>
	</g>
	<path style="fill:#4AD194;" d="M380.251,468.224c-23.16-30.809-73.67-71.543-103.738-87.585c-1.904,1.667-3.843,3.372-5.832,5.09
		c-19.854,17.296-63.375-24.989-101.162-69.121c-36.48-42.919-71.709-92.209-51.834-109.485c4.969-4.104,9.773-7.935,14.125-11.764
		c-14.615-31.423-49.947-88.043-73.203-112.573c-12.506,7.657-23.963,19.319-34.408,28.305
		C-7.82,137.949,11.383,249.354,111.91,366.547c99.233,117.132,207.456,153.622,238.827,127.373
		C359.978,485.938,371.218,477.614,380.251,468.224z"/>
</g>
<path d="M442.332,69.666C397.407,24.741,337.677,0,274.144,0c-63.295,0-124.337,25.538-168.809,70.316
	c-7.086-3.715-14.379-5.561-21.939-5.561c-22.742,0-41.198,16.693-57.481,31.421c-2.86,2.587-5.563,5.031-8.192,7.294
	c-9.856,8.297-15.854,22.284-17.346,40.453c-2.214,26.964,5.452,62.626,21.584,100.415c18.184,42.595,46.663,87.105,82.319,128.673
	C185.62,469.024,272.641,512,322.798,512c14.542,0,26.102-3.502,34.357-10.41l0.12-0.102c2.778-2.4,5.743-4.832,8.883-7.407
	c18.482-15.158,39.431-32.339,40.362-57.477c0.015-0.391,0.018-0.783,0.023-1.174c31.518-21.132,57.735-49.706,76.031-82.983
	c19.248-35.012,29.423-74.637,29.423-114.591C511.998,174.322,487.257,114.591,442.332,69.666z M120.317,112.277
	c16.662,24.223,23.368,41.954,20.499,54.205c-1.003,4.283-3.195,8.161-6.252,11.932c-15.035-28.822-39.829-67.967-59.742-92.259
	c2.861-0.896,5.725-1.398,8.574-1.398C95.341,84.757,107.762,94.015,120.317,112.277z M353.475,478.616
	c-3.217,2.638-6.257,5.131-9.207,7.678c-4.5,3.732-11.922,5.705-21.47,5.705c-44.068,0-126.472-41.281-203.297-131.963
	c-34.385-40.085-61.753-82.808-79.146-123.55c-14.878-34.852-21.997-67.144-20.044-90.925c1.032-12.573,4.695-22.093,10.313-26.807
	l0.096-0.081c2.832-2.437,5.639-4.976,8.61-7.663c5.629-5.091,11.569-10.462,17.664-15.011
	c20.309,23.918,47.971,67.899,62.436,96.748c-1.316,1.088-2.662,2.191-4.047,3.325c-1.34,1.097-2.697,2.208-4.068,3.34l-0.191,0.163
	c-13.007,11.305-12.141,30.645,2.575,57.482c9.691,17.673,25.457,39.272,48.223,66.055c44.736,52.247,75.801,76.581,97.763,76.581
	c6.667,0,12.741-2.221,17.531-6.395c0.188-0.162,0.365-0.32,0.553-0.482c26.973,15.864,66.532,47.857,88.994,74.547
	C362.537,471.182,357.985,474.917,353.475,478.616z M386.532,435.863c-0.217,5.853-2.535,11.363-6.154,16.635
	c-22.834-26.478-59.125-56.095-86.566-73.324c7.424-5.736,14.373-9.542,22.175-9.542c12.348,0,28.385,9.329,49.024,28.516
	C379.7,412.149,386.942,424.839,386.532,435.863z M401.937,414.291c-4.451-9.997-12.139-20.158-23.174-30.667l-0.087-0.081
	c-24.876-23.137-44.797-33.912-62.69-33.912c-19.268,0-32.807,11.866-47.142,24.429c-1.539,1.349-3.102,2.72-4.733,4.127
	c-1.21,1.054-2.534,1.504-4.427,1.504c-8.584,0-30.725-9.04-82.546-69.56c-21.854-25.712-36.869-46.218-45.901-62.69
	c-8.988-16.392-11.621-28.602-7.061-32.709c1.305-1.078,2.599-2.136,3.875-3.181c3.532-2.891,7.015-5.744,10.324-8.657
	c0.071-0.063,0.145-0.122,0.214-0.186c10.157-8.972,18.63-18.548,21.701-31.666c4.342-18.546-2.904-40.166-23.494-70.098
	c-5.017-7.298-10.1-13.463-15.274-18.531C162.075,42.631,217.114,20,274.144,20c120.125,0,217.854,97.729,217.854,217.855
	C491.998,308.372,458.57,373.372,401.937,414.291z"/>
<path d="M219.782,52.551c-1.827-5.212-7.536-7.958-12.745-6.129c-15.017,5.263-29.415,12.304-42.794,20.928
	c-4.642,2.992-5.979,9.181-2.987,13.823c1.912,2.967,5.129,4.584,8.415,4.584c1.854,0,3.732-0.516,5.408-1.596
	c12.059-7.773,25.038-14.12,38.573-18.864C218.864,63.469,221.609,57.763,219.782,52.551z"/>
<path d="M238.222,58.375c0.622,0,1.254-0.059,1.888-0.18l0.609-0.115c5.43-1.009,9.014-6.229,8.005-11.659
	c-1.01-5.431-6.236-9.012-11.659-8.004l-0.709,0.133c-5.425,1.037-8.982,6.275-7.945,11.699
	C229.325,55.041,233.518,58.375,238.222,58.375z"/>
<path d="M316.364,165.501c-17.501,0-31.738,14.238-31.738,31.738v57.772c0,17.5,14.238,31.738,31.739,31.738
	s31.738-14.238,31.738-31.738v-57.772C348.103,179.739,333.864,165.501,316.364,165.501z M328.103,255.011
	c0,6.473-5.266,11.738-11.738,11.738h-0.001c-6.473,0-11.738-5.266-11.738-11.738v-57.772c0-6.473,5.267-11.738,11.739-11.738
	c6.473,0,11.738,5.266,11.738,11.738V255.011z"/>
<path d="M401.864,216.125L401.864,216.125L401.864,216.125c-8.065,0-14.627-6.562-14.627-14.627s6.561-14.626,14.626-14.626
	c5.209,0,10.063,2.802,12.666,7.313c2.761,4.782,8.874,6.422,13.66,3.661c4.783-2.761,6.423-8.877,3.662-13.66
	c-6.165-10.68-17.656-17.314-29.988-17.314c-19.093,0-34.626,15.533-34.626,34.626s15.533,34.627,34.626,34.627c0,0,0,0,0.001,0l0,0
	c8.065,0,14.626,6.561,14.626,14.626c0,8.065-6.561,14.627-14.626,14.627c-5.209,0-10.063-2.803-12.668-7.314
	c-2.761-4.782-8.877-6.422-13.66-3.66c-4.783,2.761-6.422,8.877-3.66,13.66c6.166,10.68,17.656,17.314,29.988,17.314
	c19.093,0,34.626-15.534,34.626-34.627S420.957,216.125,401.864,216.125z"/>
<path d="M230.864,216.125L230.864,216.125L230.864,216.125c-8.065,0-14.627-6.562-14.627-14.627s6.562-14.626,14.626-14.626
	c5.209,0,10.063,2.802,12.666,7.313c2.761,4.782,8.875,6.422,13.66,3.661c4.783-2.761,6.423-8.877,3.662-13.66
	c-6.165-10.68-17.656-17.314-29.988-17.314c-19.093,0-34.626,15.533-34.626,34.626s15.533,34.627,34.626,34.627c0,0,0,0,0.001,0l0,0
	c8.064,0,14.626,6.561,14.626,14.626c0,8.065-6.561,14.627-14.626,14.627c-5.209,0-10.063-2.803-12.668-7.314
	c-2.761-4.782-8.877-6.422-13.66-3.66c-4.783,2.761-6.422,8.877-3.66,13.66c6.166,10.68,17.656,17.314,29.988,17.314
	c19.093,0,34.626-15.534,34.626-34.627S249.957,216.125,230.864,216.125z"/>
<g>
</g>
<g>
</g>
<g>
</g>
<g>
</g>
<g>
</g>
<g>
</g>
<g>
</g>
<g>
</g>
<g>
</g>
<g>
</g>
<g>
</g>
<g>
</g>
<g>
</g>
<g>
</g>
<g>
</g>
</svg>
