<svg clip-rule="evenodd" fill-rule="evenodd" height="300" image-rendering="optimizeQuality" shape-rendering="geometricPrecision" text-rendering="geometricPrecision" viewBox="0 0 6.82666 6.82666" width="300" xmlns="http://www.w3.org/2000/svg" version="1.1" xmlns:xlink="http://www.w3.org/1999/xlink" xmlns:svgjs="http://svgjs.dev/svgjs"><g width="100%" height="100%" transform="matrix(1,0,0,1,0,0)"><g id="Layer_x0020_1"><circle cx="3.413" cy="3.413" fill="#00487c" r="3.333" fill-opacity="1" data-original-color="#9966ffff" stroke="none" stroke-opacity="1"/><g id="_278415744" fill="#fefefe"><path id="_278416632" d="m2.75777 3.35772c-.143055 0-.259524-.116465-.259524-.25952.00001575-.0315512.0255984-.0571417.0571417-.0571417.0315551 0 .0571457.0255945.0571457.0571417.00001575.0800551.0651772.14524.145236.14524.0801575-.00000394.145236-.0651811.145236-.14524.00001181-.104465-.0513858-.121331-.158429-.146827-.103972-.0247008-.246331-.0586299-.246331-.257937.00001575-.16865.130555-.256843.259524-.256843.128976-.00000787.259524.0881929.259524.256843.00000787.0315472-.0254961.0571457-.0571417.0571457-.0315315-.00000394-.0571457-.0255984-.0571457-.0571457.00001181-.0985118-.0729173-.142559-.145236-.142559-.0722087 0-.145236.0440472-.145236.142559.00001575.104362.0514843.121331.158531.146827.10387.0247008.246228.0586299.246228.257937.00000787.143055-.11637.259524-.259524.25952z" fill="#fefefe" fill-opacity="1" data-original-color="#fefefeff" stroke="none" stroke-opacity="1"/><path id="_278416392" d="m2.75777 2.55088c-.0315394 0-.0571457-.0255945-.0571457-.0571417l.00000394-.159728c0-.0315433.0255945-.0570354.0571417-.0570354.0315669-.00000394.0571417.0254921.0571417.0570433l.00000394.15972c0 .0315433-.0255984.0571417-.0571457.0571417z" fill="#fefefe" fill-opacity="1" data-original-color="#fefefeff" stroke="none" stroke-opacity="1"/><path id="_278416584" d="m2.75777 3.51744c-.0315394 0-.0571457-.0255906-.0571457-.0571378l.00000394-.159724c0-.0315472.0255945-.0571378.0571417-.0571378.0315669-.00000394.0571417.0255945.0571417.0571417l.00000394.159717c0 .0315512-.0255984.0571457-.0571457.0571417z" fill="#fefefe" fill-opacity="1" data-original-color="#fefefeff" stroke="none" stroke-opacity="1"/><path id="_278416368" d="m2.75777 2.09711c-.441161 0-.8.358929-.8.800102 0 .441071.358831.8.8.8.441185 0 .800102-.358929.800102-.8.00001181-.441173-.358929-.800102-.800102-.800102zm0 1.71439c-.50415 0-.914283-.410118-.914283-.914283 0-.504169.410118-.914386.914283-.914386.504177-.00000394.914386.41022.914386.914386.00001575.504161-.41022.914287-.914386.914283z" fill="#fefefe" fill-opacity="1" data-original-color="#fefefeff" stroke="none" stroke-opacity="1"/><path id="_278416344" d="m4.19726 2.8733c.0150906 0 .0296614.00595669.040374.0167677l.488.487898.119642-.119642-.487992-.487898c-.0125-.0125-.0184567-.0301575-.0162756-.0476181.00227953-.0175591.0125-.0331339.0276772-.042063l.2015-.118453-.692457-.151787.151787.692358.118437-.20139c.00903937-.0152756.0245039-.0254921.042063-.0276732.00240157-.00029921.00485827-.00049606.00724409-.0005zm.528374.642665c-.0151811 0-.0296654-.00605512-.0403819-.0167677l-.476185-.476091-.154862.263291c-.0119016.0202402-.035122.0311496-.0582402.0274803-.0232126-.00366929-.0418622-.0212283-.0468228-.0441457l-.202173-.921929c-.00417323-.0190472.00167717-.0388858.0153661-.0526772.013811-.0137913.0336339-.0195394.0526811-.015374l.921933.202079c.0230157.00506299.0404685.0236181.0442362.0468307.00368898.0232087-.00724016.0463268-.0274803.0583346l-.263386.154858.476205.476087c.0223228.0223228.0223031.0585354-.00001968.0808583l-.200492.200394c-.0107126.0107165-.0252008.0167717-.040378.0167717z" fill="#fefefe" fill-opacity="1" data-original-color="#fefefeff" stroke="none" stroke-opacity="1"/><path id="_278415768" d="m1.56592 1.47062c-.126185 0-.228886.102681-.228886.22887v2.39544c0 .126189.102681.228772.22887.228772l3.69486-.00000394c.126181 0 .228854-.102575.228854-.228764l.00000787-2.39544c0-.126193-.102689-.228866-.228878-.228866l-3.69483-.00000394zm3.69485 2.96736h-3.69485c-.189197 0-.343173-.153866-.343173-.343051v-2.39544c0-.189193.153972-.343154.343157-.343154l3.69486-.00000394c.189173 0 .343138.153972.343138.343157l.00000787 2.39544c0 .189185-.153976.343055-.343146.343055z" fill="#fefefe" fill-opacity="1" data-original-color="#fefefeff" stroke="none" stroke-opacity="1"/><path id="_278415816" d="m5.26077 1.70872h.00008661zm-3.68563 2.37689h3.67639v-2.37689h-3.67639zm3.68563.114287h-3.69485c-.0579488 0-.105075-.047126-.105075-.104961l.00000394-2.39544c0-.0579409.0471181-.105059.105055-.105059h3.69486c.0579213 0 .105043.047122.105043.105059v2.39544c0 .0578386-.047126.104965-.105043.104965z" fill="#fefefe" fill-opacity="1" data-original-color="#fefefeff" stroke="none" stroke-opacity="1"/><path id="_278416200" d="m3.67543 5.23035h-.524201c-.0315394 0-.0571496-.0254921-.0571496-.0571378l.00000787-.79237c0-.0315472.0255866-.0571378.0571339-.0571378.0315512-.00000394.0571417.0255945.0571417.0571417l.00000787.73522h.409913v-.735224c0-.0315472.0255984-.0571378.0571457-.0571378.0315591-.00000394.0571417.0255945.0571417.0571417v.792362c0 .0316496-.0255984.0571457-.0571417.0571417z" fill="#fefefe" fill-opacity="1" data-original-color="#fefefeff" stroke="none" stroke-opacity="1"/><path id="_278416176" d="m3.41333 5.47033c-.423504 0-.852283-.104461-.852283-.303965.00000787-.21022.447024-.275.584028-.289882.0314488-.00327559.0595236.0193425.0629961.0506929.00338583.0313425-.0193504.0595236-.0506969.0629961-.340673.0369016-.482043.132937-.482043.176193.00001181.064378.260417.189681.737996.189681.477594-.00000394.738098-.125299.738098-.189681.00001181-.0432559-.141472-.139287-.482146-.176193-.0313465-.00347244-.0540669-.0316457-.0505945-.0629961.00337402-.0313504.0314449-.0539646.0628976-.0506929.13702.014878.584126.0796614.584126.289882.00001181.1995-.428768.303969-.852378.303965z" fill="#fefefe" fill-opacity="1" data-original-color="#fefefeff" stroke="none" stroke-opacity="1"/></g></g></g></svg>