<?xml version="1.0" encoding="utf-8"?>
<!-- Generator: Adobe Illustrator 22.0.1, SVG Export Plug-In . SVG Version: 6.00 Build 0)  -->
<svg xmlns="http://www.w3.org/2000/svg" xmlns:xlink="http://www.w3.org/1999/xlink" version="1.1" id="Layer_1" x="0px" y="0px" viewBox="0 0 256 256" style="enable-background:new 0 0 256 256;" xml:space="preserve" width="512" height="512">
<style type="text/css">
	.st0{fill:#3A312A;}
	.st1{fill:#D7E057;}
	.st2{fill:#F16C7A;}
	.st3{fill:#FCE8CB;}
	.st4{fill:#87796F;}
	.st5{fill:#8AC6DD;}
	.st6{fill:#CE4E61;}
	.st7{fill:#6CA8BF;}
	.st8{fill:#B9C239;}
	.st9{fill:#DECAAD;}
	.st10{fill:#695B51;}
	.st11{fill-rule:evenodd;clip-rule:evenodd;fill:#FCE8CB;}
	.st12{fill:#F5978A;}
	.st13{fill:#68A8BC;}
	.st14{fill:#B9BC39;}
	.st15{fill:#6B5B51;}
	.st16{fill:#D34E5C;}
	.st17{fill-rule:evenodd;clip-rule:evenodd;fill:#87796F;}
	.st18{fill-rule:evenodd;clip-rule:evenodd;fill:#F16C7A;}
</style>
<g>
	<g>
		<g>
			<rect x="116.258" y="195.781" class="st4" width="23.548" height="26.323"/>
		</g>
	</g>
	<g>
		<g>
			<path class="st0" d="M139.806,194.281h-23.548c-0.829,0-1.5,0.672-1.5,1.5v26.322c0,0.828,0.671,1.5,1.5,1.5h23.548     c0.829,0,1.5-0.672,1.5-1.5v-26.322C141.306,194.953,140.635,194.281,139.806,194.281z M138.306,220.604h-20.548v-23.322h20.548     V220.604z"/>
		</g>
	</g>
	<g>
		<g>
			<path class="st4" d="M145.587,222.104h-35.109c-9.632,0-17.44,7.809-17.44,17.44h69.99     C163.027,229.912,155.219,222.104,145.587,222.104z"/>
		</g>
	</g>
	<g>
		<g>
			<path class="st0" d="M145.587,220.604h-35.109c-10.444,0-18.94,8.497-18.94,18.94c0,0.828,0.671,1.5,1.5,1.5h69.99     c0.829,0,1.5-0.672,1.5-1.5C164.527,229.101,156.03,220.604,145.587,220.604z M94.607,238.044     c0.759-8.089,7.587-14.44,15.871-14.44h35.109c8.283,0,15.111,6.352,15.87,14.44H94.607z"/>
		</g>
	</g>
	<g>
		<g>
			<path class="st4" d="M224.753,16.664h-46.585h-14.273H31.311c-10.096,0-18.279,8.184-18.279,18.279v142.559     c0,10.095,8.184,18.279,18.279,18.279h193.441c10.095,0,18.279-8.184,18.279-18.279V34.943     C243.032,24.848,234.848,16.664,224.753,16.664z"/>
		</g>
	</g>
	<g>
		<g>
			<path class="st0" d="M224.753,15.163h-46.585c-0.829,0-1.5,0.672-1.5,1.5s0.671,1.5,1.5,1.5h46.585     c9.252,0,16.779,7.527,16.779,16.779v142.56c0,9.252-7.527,16.779-16.779,16.779H31.312c-9.252,0-16.779-7.527-16.779-16.779     V34.942c0-9.252,7.527-16.779,16.779-16.779h132.583c0.829,0,1.5-0.672,1.5-1.5s-0.671-1.5-1.5-1.5H31.312     c-10.906,0-19.779,8.873-19.779,19.779v142.56c0,10.906,8.873,19.779,19.779,19.779h193.441c10.906,0,19.779-8.873,19.779-19.779     V34.942C244.532,24.036,235.659,15.163,224.753,15.163z"/>
		</g>
	</g>
	<g>
		<g>
			<path class="st3" d="M216.582,30.187h-177.1c-6.9,0-12.49,5.6-12.49,12.5v127.07c0,1.41,0.23,2.77,0.67,4.04     c1.67,4.92,6.33,8.46,11.82,8.46h177.1c6.9,0,12.49-5.6,12.49-12.5V42.687C229.072,35.787,223.482,30.187,216.582,30.187z"/>
		</g>
	</g>
	<g>
		<g>
			<path class="st0" d="M216.582,28.688h-177.1c-7.714,0-13.99,6.28-13.99,14v33.479c0,0.828,0.671,1.5,1.5,1.5s1.5-0.672,1.5-1.5     V42.688c0-6.065,4.93-11,10.99-11h177.1c6.06,0,10.99,4.935,10.99,11v127.069c0,6.065-4.93,11-10.99,11h-177.1     c-4.709,0-8.889-2.991-10.402-7.451c-0.39-1.124-0.587-2.318-0.587-3.549V91.041c0-0.828-0.671-1.5-1.5-1.5s-1.5,0.672-1.5,1.5     v78.716c0,1.565,0.253,3.09,0.75,4.522c1.924,5.669,7.245,9.478,13.24,9.478h177.1c7.714,0,13.99-6.28,13.99-14V42.688     C230.572,34.968,224.296,28.688,216.582,28.688z"/>
		</g>
	</g>
	<g>
		<g>
			<path class="st9" d="M216.572,31.684h-14.99c6.06,0,10.99,4.94,10.99,11v127.07c0,6.07-4.93,11-10.99,11h15     c6.06,0,10.99-4.93,10.99-11V42.684C227.572,36.634,222.622,31.684,216.572,31.684z"/>
		</g>
	</g>
	<g>
		<g>
			<rect x="129.232" y="197.284" class="st10" width="9.07" height="23.32"/>
		</g>
	</g>
	<g>
		<g>
			<path class="st10" d="M145.582,223.604h-9.07c8.29,0,15.12,6.35,15.87,14.44h9.07     C160.702,229.954,153.872,223.604,145.582,223.604z"/>
		</g>
	</g>
	<g>
		<g>
			<path class="st1" d="M149.813,71.533c1.62-1.579,0.726-4.331-1.513-4.656l-10.893-1.583c-0.889-0.129-1.657-0.688-2.055-1.493     l-4.872-9.871c-1.001-2.029-3.894-2.029-4.895,0l-4.872,9.871c-0.398,0.806-1.166,1.364-2.055,1.493l-10.893,1.583     c-2.239,0.325-3.133,3.077-1.513,4.656l7.883,7.684c0.643,0.627,0.937,1.53,0.785,2.416l-1.861,10.849     c-0.382,2.23,1.958,3.93,3.96,2.877l9.743-5.123c0.795-0.418,1.745-0.418,2.54,0l9.743,5.123c2.002,1.053,4.343-0.647,3.96-2.877     l-1.861-10.849c-0.152-0.886,0.142-1.789,0.785-2.416L149.813,71.533z"/>
		</g>
	</g>
	<g>
		<g>
			<path class="st0" d="M150.859,72.607c1.162-1.132,1.572-2.793,1.07-4.336c-0.501-1.542-1.809-2.645-3.414-2.878l-10.893-1.583     c-0.401-0.059-0.747-0.311-0.926-0.673l-4.872-9.871c-0.718-1.454-2.171-2.358-3.793-2.358c-1.622,0-3.076,0.904-3.793,2.358     l-4.871,9.871c-0.179,0.362-0.526,0.614-0.926,0.673l-10.894,1.583c-1.605,0.233-2.913,1.336-3.414,2.878     c-0.501,1.543-0.091,3.204,1.07,4.336l7.882,7.684c0.29,0.282,0.422,0.689,0.353,1.088l-1.861,10.85     c-0.274,1.599,0.371,3.184,1.683,4.137c1.313,0.954,3.02,1.077,4.454,0.322l9.743-5.122c0.357-0.19,0.786-0.19,1.145,0     l9.743,5.122c0.625,0.328,1.3,0.49,1.973,0.49c0.873,0,1.741-0.274,2.482-0.813c1.312-0.953,1.956-2.538,1.683-4.137     l-1.861-10.85c-0.068-0.398,0.064-0.806,0.354-1.088L150.859,72.607z M139.667,81.887l1.861,10.85     c0.117,0.68-0.303,1.066-0.489,1.202c-0.186,0.135-0.686,0.415-1.295,0.093L130,88.909c-0.616-0.323-1.292-0.485-1.968-0.485     c-0.676,0-1.352,0.162-1.968,0.485l-9.744,5.122c-0.609,0.323-1.108,0.042-1.295-0.093c-0.186-0.136-0.605-0.522-0.489-1.202     l1.861-10.85c0.235-1.373-0.219-2.772-1.216-3.744l-7.883-7.684c-0.494-0.481-0.382-1.042-0.311-1.26     c0.071-0.219,0.31-0.737,0.993-0.837l10.895-1.583c1.378-0.201,2.567-1.066,3.184-2.313l4.872-9.872     c0.305-0.618,0.872-0.686,1.102-0.686c0.23,0,0.797,0.067,1.102,0.686c0,0.001,0,0.001,0,0.001l4.872,9.871     c0.616,1.247,1.806,2.112,3.184,2.313l10.894,1.583c0.683,0.1,0.922,0.618,0.993,0.837c0.071,0.218,0.183,0.778-0.311,1.26     l-7.882,7.684C139.886,79.114,139.431,80.514,139.667,81.887z"/>
		</g>
	</g>
	<g>
		<g>
			<rect x="98.194" y="112.302" class="st5" width="59.676" height="47.359"/>
		</g>
	</g>
	<g>
		<g>
			<path class="st0" d="M157.87,110.802H98.194c-0.829,0-1.5,0.672-1.5,1.5v47.359c0,0.828,0.671,1.5,1.5,1.5h59.676     c0.829,0,1.5-0.672,1.5-1.5v-47.359C159.37,111.474,158.699,110.802,157.87,110.802z M156.37,158.161H99.694v-44.359h56.676     V158.161z"/>
		</g>
	</g>
	<g>
		<g>
			<rect x="157.87" y="126.104" class="st1" width="49.162" height="33.557"/>
		</g>
	</g>
	<g>
		<g>
			<path class="st0" d="M207.032,124.604H157.87c-0.829,0-1.5,0.672-1.5,1.5v33.558c0,0.828,0.671,1.5,1.5,1.5h49.162     c0.829,0,1.5-0.672,1.5-1.5v-33.558C208.532,125.275,207.861,124.604,207.032,124.604z M205.532,158.161H159.37v-30.558h46.162     V158.161z"/>
		</g>
	</g>
	<g>
		<g>
			<rect x="49.032" y="139.565" class="st2" width="49.162" height="20.095"/>
		</g>
	</g>
	<g>
		<g>
			<path class="st0" d="M98.194,138.065H49.032c-0.829,0-1.5,0.672-1.5,1.5v20.096c0,0.828,0.671,1.5,1.5,1.5h49.162     c0.829,0,1.5-0.672,1.5-1.5v-20.096C99.694,138.737,99.023,138.065,98.194,138.065z M96.694,158.161H50.532v-17.096h46.162     V158.161z"/>
		</g>
	</g>
</g>
</svg>
