<svg clip-rule="evenodd" fill-rule="evenodd" height="300" image-rendering="optimizeQuality" shape-rendering="geometricPrecision" text-rendering="geometricPrecision" viewBox="0 0 6.82666 6.82666" width="300" xmlns="http://www.w3.org/2000/svg" version="1.1" xmlns:xlink="http://www.w3.org/1999/xlink" xmlns:svgjs="http://svgjs.dev/svgjs"><g width="100%" height="100%" transform="matrix(1,0,0,1,0,0)"><g id="Layer_x0020_1"><circle cx="3.413" cy="3.413" fill="#00487c" r="3.333" fill-opacity="1" data-original-color="#99cc66ff" stroke="none" stroke-opacity="1"/><g id="_278422392" fill="#fefefe"><path id="_278425320" d="m2.27606 3.09009c-.031563 0-.0571772-.0255945-.0571772-.0571417l.00003543-.277091c0-.0315433.0255551-.0571339.0571063-.0571339l1.13347-.00000787v-.591469c0-.0315472.0255551-.0571378.0571063-.0571378.0315551-.00000394.0571457.0255945.0571457.0571457l.0000315.648602c0 .0315551-.0256339.0571496-.0571772.0571496l-1.1334-.00000394v.219945c0 .0315433-.0256339.0571417-.0571417.0571417z" fill="#fefefe" fill-opacity="1" data-original-color="#fefefeff" stroke="none" stroke-opacity="1"/><path id="_278424648" d="m4.58507 3.09009c-.0315591 0-.0571654-.0255945-.0571654-.0571417l.00002362-.219945h-1.13343c-.031563 0-.0571654-.0255906-.0571654-.0571378.00002362-.0315512.0255906-.0571417.0571417-.0571417l1.1906-.00000787c.031563 0 .057122.0255984.057122.0571496l.00001968.277083c0 .0315433-.0256142.0571417-.0571417.0571417z" fill="#fefefe" fill-opacity="1" data-original-color="#fefefeff" stroke="none" stroke-opacity="1"/><path id="_278424096" d="m1.91217 3.99614h.727858v-.173406c0-.0955394-.0777953-.173319-.173331-.173319h-.0225197l-.122409.163295c-.0108071.0143858-.0276929.0229173-.045748.0229173-.0179606 0-.0349252-.0085315-.0457362-.0229173l-.122402-.163295h-.0224134c-.0955315 0-.173339.0777835-.173339.173319l.00003937.173406zm.785.114287h-.842146c-.031563 0-.0571811-.0255945-.0571811-.0571417l.00003937-.230551c0-.158535.128933-.287602.287559-.287602h.0510118c.0180394 0 .0349055.00843307.0457165.0229173l.0938858.125197.0938346-.125197c.0108071-.0144882.0277559-.0229173.0457165-.0229173h.0511142c.158524 0 .287567.129067.287567.287602l.00002362.230551c0 .0315472-.0256142.0571457-.0571417.0571417z" fill="#fefefe" fill-opacity="1" data-original-color="#fefefeff" stroke="none" stroke-opacity="1"/><path id="_278424072" d="m2.27606 3.09009c-.0931732 0-.168886.0757953-.168886.16885 0 .0931496.0756969.168949.16885.168949.0931575-.00000394.168949-.0757953.168949-.168949.00001181-.0930591-.0757992-.16885-.168913-.16885zm0 .452079c-.156165 0-.283173-.126976-.283173-.283228 0-.156154.126984-.283138.283138-.283138.15615 0 .283236.126988.283236.283138.00001181.156252-.127087.283232-.283201.283228z" fill="#fefefe" fill-opacity="1" data-original-color="#fefefeff" stroke="none" stroke-opacity="1"/><path id="_278424024" d="m2.13654 3.64942c-.00535433 0-.0107205-.00068898-.0159803-.00227953-.0303543-.00872835-.047811-.0404764-.0389803-.0708307.0113031-.0389921.0124961-.0808543.00336614-.124409-.00634646-.0309488.0134961-.0612087.0443425-.0675591.0309646-.00644882.0612165.0133976.0675591.044248.0129094.0620984.0111102.12252-.00555512.179661-.00720472.025-.0300551.0411693-.054752.0411693z" fill="#fefefe" fill-opacity="1" data-original-color="#fefefeff" stroke="none" stroke-opacity="1"/><path id="_278424576" d="m2.41561 3.64942c-.0247835 0-.047626-.0161693-.0548661-.0411693-.016563-.0571457-.0184528-.117559-.00556299-.179661.00650394-.0308504.0367165-.0506929.0675669-.044248.0309843.00634646.0507953.0366102.0443465.0675591-.0090315.0435551-.00794094.0854173.00337008.124409.00885039.0303543-.00862992.0621024-.0388819.0708307-.00535039.00158268-.0107205.00227953-.0159724.00227953z" fill="#fefefe" fill-opacity="1" data-original-color="#fefefeff" stroke="none" stroke-opacity="1"/><path id="_278424216" d="m4.22109 3.99614h.727866v-.173406c0-.0955394-.0777008-.173319-.173339-.173319h-.022378l-.122465.163295c-.0107992.0143858-.0277835.0229173-.0457362.0229173-.0179173 0-.0349134-.0085315-.0457323-.0229173l-.122409-.163295h-.0224094c-.095622 0-.173429.0777835-.173429.173319l.0000315.173406zm.785008.114287h-.84215c-.031563 0-.0571772-.0255945-.0571772-.0571417l.00003543-.230551c0-.158535.129031-.287602.287657-.287602h.0510039c.0179449 0 .0349134.00843307.0457244.0229173l.0938701.125197.0938465-.125197c.0107992-.0144882.0277638-.0229173.0457165-.0229173h.0510236c.158614 0 .287567.129067.287567.287602l.00002362.230551c0 .0315472-.0255157.0571457-.0571417.0571417z" fill="#fefefe" fill-opacity="1" data-original-color="#fefefeff" stroke="none" stroke-opacity="1"/><path id="_278424552" d="m4.58507 3.09009c-.0931654 0-.168965.0757953-.168965.16885 0 .0931496.0757913.168949.168941.168949.0931969-.00000394.168957-.0757953.168957-.168949 0-.0930591-.0757953-.16885-.168933-.16885zm0 .452079c-.156154 0-.283252-.126976-.283252-.283228 0-.156154.127087-.283138.283228-.283138.156189 0 .28324.126988.28324.283138 0 .156252-.127087.283232-.283217.283228z" fill="#fefefe" fill-opacity="1" data-original-color="#fefefeff" stroke="none" stroke-opacity="1"/><path id="_278424360" d="m4.44547 3.64942c-.00522047 0-.0106181-.00068898-.0159724-.00227953-.0302323-.00872835-.0477283-.0404764-.0388937-.0707323.0113386-.0390906.0124016-.0809528.00337008-.124508-.0063189-.0309488.0134961-.0612087.0443425-.0675591.0309921-.00644882.0611102.0133976.0675591.044248.0129449.0620984.0110157.12252-.00555906.179661-.00720866.0249016-.0300551.0411693-.0548465.0411693z" fill="#fefefe" fill-opacity="1" data-original-color="#fefefeff" stroke="none" stroke-opacity="1"/><path id="_278424504" d="m4.72467 3.64942c-.0248268 0-.0476614-.0161693-.0549055-.0411693-.0165236-.0571457-.0184528-.117559-.00555512-.179661.00648425-.0308504.0367047-.0506929.0675591-.044248.0308898.00634646.0506969.0366102.0443465.0675591-.00908268.0435551-.00793701.0854173.00337008.124409.00884252.0303543-.00862992.0621024-.0388858.0708307-.00535433.00158268-.0107165.00227953-.0159291.00227953z" fill="#fefefe" fill-opacity="1" data-original-color="#fefefeff" stroke="none" stroke-opacity="1"/><path id="_278424480" d="m1.73944 4.58354c-.0315591 0-.0571772-.0254921-.0571772-.0571378l.00003543-.141866c0-.0315472.0255591-.0571417.0571063-.0571417l.480665-.00000394v-.274106c0-.0315472.0255906-.0571417.0571299-.0571417.0316654-.00000394.0571575.0255984.0571575.0571417v.331252c0 .0315472-.0255039.0571457-.0571575.0571457l-.480618-.00000394v.0847165c0 .0316535-.025622.0571496-.0571417.0571457z" fill="#fefefe" fill-opacity="1" data-original-color="#fefefeff" stroke="none" stroke-opacity="1"/><path id="_278423352" d="m2.77824 4.58354c-.0316535 0-.0571772-.0254921-.0571772-.0571378l.00003543-.0847244h-.480752c-.0315669 0-.0571772-.0255945-.0571772-.0571417.0000315-.0315472.0255906-.0571417.0571417-.0571417l.537929-.00000394c.0315197 0 .0571102.0255984.0571102.0571457l.00003543.141858c0 .0316535-.0256299.0571496-.0571457.0571457z" fill="#fefefe" fill-opacity="1" data-original-color="#fefefeff" stroke="none" stroke-opacity="1"/><path id="_278423592" d="m1.37556 5.4896h.727858v-.173315c0-.0955354-.0777953-.173307-.173433-.173307l-.0224173-.00000787-.122413.163299c-.0107992.0143819-.0277835.0228189-.045748.0228189l.00003543-.00000787c-.0179882 0-.0349488-.0084252-.0457598-.022811l-.122406-.163299h-.0224094c-.095622 0-.173346.0777835-.173346.173319l.00003937.173311zm.785.114283h-.842142c-.0316535 0-.057185-.0254921-.057185-.0571378l.00003937-.230461c0-.158634.128933-.287594.287563-.287594l.0510118-.00000394c.0180354 0 .0349016.00843307.0457126.0228228l.0938819.125197.0938425-.125205c.0108031-.0143819.0277559-.022811.0457087-.022811l.0510315-.00000394c.158618 0 .287661.128972.287661.287602l.00001968.230453c0 .0316496-.0256142.0571457-.0571457.0571417z" fill="#fefefe" fill-opacity="1" data-original-color="#fefefeff" stroke="none" stroke-opacity="1"/><path id="_278423928" d="m1.73944 4.58354c-.0931654 0-.168882.0757992-.168882.168953 0 .0931535.0756929.168949.168846.168949.0931614-.00000394.168949-.0757913.168949-.168949.00001575-.0931535-.0757874-.168949-.168913-.168953zm0 .452181c-.156157 0-.283165-.127079-.283165-.283228 0-.15615.126984-.283232.28313-.283232.156201-.00000787.283236.127083.283236.283232.00001575.15615-.127075.283236-.283201.283228z" fill="#fefefe" fill-opacity="1" data-original-color="#fefefeff" stroke="none" stroke-opacity="1"/><path id="_278423328" d="m1.59994 5.14297c-.00535433 0-.0107283-.00079134-.0159843-.00227559-.0303543-.00883465-.047815-.0404764-.0389882-.0708386.011311-.0389882.0125079-.0808504.00337402-.124496-.00635039-.0308583.0134921-.0611142.0443465-.067563.0308661-.00644882.0612087.0133898.0675551.0443425.0129134.0621024.0111181.12252-.00555118.179567-.00720472.025-.030063.0412717-.054752.0412638z" fill="#fefefe" fill-opacity="1" data-original-color="#fefefeff" stroke="none" stroke-opacity="1"/><path id="_278423616" d="m1.879 5.14297c-.0247756 0-.047622-.0162638-.0548661-.0412638-.016563-.0570512-.0184449-.117461-.00555118-.179567.00644488-.0308543.0367126-.0507913.0675551-.0443425.0309882.00644488.0507992.0367047.0443465.067563-.00902756.0436417-.00793701.0855118.00338189.124496.00883858.0303583-.00864173.0620079-.0388937.0708386-.00534646.00148425-.0107126.00228346-.0159724.00227559z" fill="#fefefe" fill-opacity="1" data-original-color="#fefefeff" stroke="none" stroke-opacity="1"/><path id="_278423904" d="m2.41422 5.4896h.727906v-.173315c0-.0955354-.077815-.173307-.17335-.173307l-.0225-.00000787-.122413.163299c-.0107087.0143819-.0277047.0228189-.0457598.0228189v-.00000787c-.0179409 0-.0349173-.0084252-.0456339-.022811l-.122488-.163299h-.0224134c-.0955787 0-.17335.0777835-.17335.173319l.00000394.173311zm.785047.114283h-.842189c-.0315197 0-.0571535-.0254921-.0571535-.0571378l.00001181-.230461c0-.158634.129059-.287594.287591-.287594l.0511142-.00000394c.0179409 0 .0348976.00843307.0456142.0228228l.0938465.125197.0939764-.125205c.0107126-.0143819.0276496-.022811.0456063-.022811l.0510906-.00000394c.158575 0 .287602.128972.287602.287602l.0000315.230453c0 .0316496-.0256299.0571457-.0571417.0571417z" fill="#fefefe" fill-opacity="1" data-original-color="#fefefeff" stroke="none" stroke-opacity="1"/><path id="_278424000" d="m2.7781 4.58354c-.0930354 0-.168846.0757992-.168846.168953.00001181.0931535.0757874.168949.168846.168949.0931732-.00000394.168949-.0757913.168949-.168949.00002756-.0931535-.0757992-.168949-.168949-.168953zm0 .452181c-.156114 0-.283134-.127079-.283134-.283228.00001181-.15615.12698-.283232.283134-.283232.156256-.00000787.283236.127083.283236.283232.00002756.15615-.12698.283236-.283236.283228z" fill="#fefefe" fill-opacity="1" data-original-color="#fefefeff" stroke="none" stroke-opacity="1"/><path id="_278423280" d="m2.63864 5.14297c-.00526772 0-.0106417-.00079134-.016-.00227559-.0303425-.00883465-.0477126-.0404764-.0389843-.0708386.0113228-.0389882.0125-.0808504.00347638-.124496-.00643701-.0308583.0133858-.0611142.0442402-.067563.0309685-.00644882.0612126.0133898.0676575.0443425.0129134.0621024.0110157.12252-.00555118.179567-.00720472.025-.0300591.0412717-.0548386.0412638z" fill="#fefefe" fill-opacity="1" data-original-color="#fefefeff" stroke="none" stroke-opacity="1"/><path id="_278423712" d="m2.9177 5.14297c-.0248228 0-.0476339-.0162638-.054878-.0412638-.0165512-.0570512-.0184606-.117461-.00555512-.179567.00645669-.0308543.0367008-.0507913.0675591-.0443425.0309528.00644488.0507913.0367047.0443386.067563-.00900787.0436417-.00783465.0855118.00347638.124496.00876378.0303583-.00872835.0620079-.0389882.0708386-.00533071.00148425-.0107165.00228346-.0159528.00227559z" fill="#fefefe" fill-opacity="1" data-original-color="#fefefeff" stroke="none" stroke-opacity="1"/><path id="_278423976" d="m4.04846 4.58354c-.031563 0-.0571654-.0254921-.0571654-.0571378l.00001968-.141866c0-.0315472.0255709-.0571417.057122-.0571417l.480693-.00000394v-.274106c0-.0315472.0255512-.0571417.0571024-.0571417.0315591-.00000394.0571496.0255984.0571496.0571417l.0000315.331252c0 .0315472-.0256299.0571457-.0571811.0571457l-.48063-.00000394v.0847165c0 .0316535-.0256181.0571496-.0571417.0571457z" fill="#fefefe" fill-opacity="1" data-original-color="#fefefeff" stroke="none" stroke-opacity="1"/><path id="_278422920" d="m5.08717 4.58354c-.031563 0-.0571811-.0254921-.0571811-.0571378l.00003937-.0847244h-.480677c-.0315551 0-.0571654-.0255945-.0571654-.0571417.00002362-.0315472.0256024-.0571417.0571457-.0571417l.537839-.00000394c.0315197 0 .0571063.0255984.0571063.0571457l.00003937.141858c0 .0316535-.0256378.0571496-.0571457.0571457z" fill="#fefefe" fill-opacity="1" data-original-color="#fefefeff" stroke="none" stroke-opacity="1"/><path id="_278423160" d="m3.68449 5.4896h.727941v-.173315c0-.0955354-.0777835-.173307-.173417-.173307l-.0223858-.00000787-.122453.163299c-.0108031.0143819-.0277795.0228189-.0457362.0228189-.0179252-.00000787-.0349213-.00843307-.0457323-.0228189l-.122413-.163299h-.0224094c-.0956339 0-.173437.0777835-.173437.173319l.00004331.173311zm.784996.114283h-.842138c-.031563 0-.057189-.0254921-.057189-.0571378l.00004331-.230461c0-.158634.129028-.287594.287661-.287594l.0510039-.00000394c.0179843 0 .0349134.00843307.0457244.0228228l.0938701.125197.0938346-.125205c.010811-.0143819.0276732-.022811.0457244-.022811l.0510197-.00000394c.158614 0 .287575.128972.287575.287602l.00001181.230453c0 .0316496-.0255118.0571457-.0571417.0571417z" fill="#fefefe" fill-opacity="1" data-original-color="#fefefeff" stroke="none" stroke-opacity="1"/><path id="_278422824" d="m4.04846 4.58354c-.0931732 0-.168965.0757992-.168965.168953.0000315.0931535.0757795.168949.168941.168949.0931929-.00000394.168941-.0757913.168941-.168949.00001181-.0931535-.0757913-.168949-.168917-.168953zm0 .452181c-.156165 0-.283252-.127079-.283252-.283228.0000315-.15615.127075-.283232.283228-.283232.156185-.00000787.283228.127083.283228.283232.00001181.15615-.127075.283236-.283205.283228z" fill="#fefefe" fill-opacity="1" data-original-color="#fefefeff" stroke="none" stroke-opacity="1"/><path id="_278422608" d="m3.90887 5.14297c-.00527165 0-.0106299-.00079134-.0159843-.00227559-.0302283-.00883465-.0477165-.0404764-.0388937-.0708386.0113425-.0389882.0124016-.0808504.00338189-.124496-.00645669-.0308583.0133858-.0611142.0443386-.067563.0308583-.00644882.0611142.0133898.0675591.0443425.0128976.0621024.0110157.12252-.00555512.179567-.00722047.025-.0300551.0412717-.0548465.0412638z" fill="#fefefe" fill-opacity="1" data-original-color="#fefefeff" stroke="none" stroke-opacity="1"/><path id="_278422776" d="m4.18793 5.14297c-.0246811 0-.0475197-.0162638-.0547598-.0412638-.0166693-.0570512-.0184528-.117461-.00556299-.179567.00635039-.0309528.0367087-.0507913.0675669-.0443425.0308858.00644488.050685.0367047.0443386.067563-.00912205.0436417-.00792913.0855118.00337795.124496.00883858.0303583-.00862992.0620079-.0389882.0708386-.00525591.00148425-.0106142.00228346-.0159724.00227559z" fill="#fefefe" fill-opacity="1" data-original-color="#fefefeff" stroke="none" stroke-opacity="1"/><path id="_278422728" d="m4.72324 5.4896h.727898v-.173315c0-.0955354-.0778031-.173307-.173433-.173307l-.0224173-.00000787-.122406.163299c-.0108071.0143819-.0276969.0228189-.045748.0228189l.0000315-.00000787c-.0179921 0-.0349606-.0084252-.0457756-.022811l-.122394-.163299h-.0224134c-.0956693 0-.173343.0777835-.173343.173319v.173311zm.785039.114283h-.842142c-.0316496 0-.057185-.0254921-.057185-.0571378v-.230461c0-.158634.128969-.287594.287594-.287594l.0510197-.00000394c.0180354 0 .0348976.00843307.0457126.0228228l.0938858.125197.0938386-.125205c.0108071-.0143819.027748-.022811.0457126-.022811l.0510276-.00000394c.158618 0 .287657.128972.287657.287602l.00002362.230453c0 .0316496-.025622.0571457-.0571457.0571417z" fill="#fefefe" fill-opacity="1" data-original-color="#fefefeff" stroke="none" stroke-opacity="1"/><path id="_278423232" d="m5.08717 4.58354c-.0931693 0-.168886.0757992-.168886.168953 0 .0931535.0756929.168949.168854.168949.0931614-.00000394.168941-.0757913.168941-.168949.00002362-.0931535-.0757913-.168949-.168909-.168953zm0 .452181c-.156161 0-.283169-.127079-.283169-.283228 0-.15615.126984-.283232.283138-.283232.156146-.00000787.283228.127083.283228.283232.00001968.15615-.127087.283236-.283197.283228z" fill="#fefefe" fill-opacity="1" data-original-color="#fefefeff" stroke="none" stroke-opacity="1"/><path id="_278423208" d="m4.94766 5.14297c-.0053622 0-.0107283-.00079134-.0159921-.00227559-.0303465-.00883465-.0478189-.0404764-.0389803-.0708386.011311-.0389882.0124921-.0808504.00336614-.124496-.00634252-.0308583.0135-.0611142.0443504-.067563.0309606-.00644882.0611063.0133898.067563.0443425.0129016.0621024.0111024.12252-.00555512.179567-.0072126.025-.0300669.0412717-.054752.0412638z" fill="#fefefe" fill-opacity="1" data-original-color="#fefefeff" stroke="none" stroke-opacity="1"/><path id="_278422656" d="m5.22672 5.14297c-.0247756 0-.047622-.0162638-.0548661-.0412638-.016563-.0570512-.0184528-.117461-.00555512-.179567.00644882-.0308543.0366969-.0507913.067563-.0443425.0309843.00644488.0507874.0367047.0443425.067563-.00902756.0436417-.00794094.0855118.0033622.124496.00885827.0303583-.00862598.0620079-.038878.0708386-.00533858.00148425-.0107205.00228346-.0159685.00227559z" fill="#fefefe" fill-opacity="1" data-original-color="#fefefeff" stroke="none" stroke-opacity="1"/><path id="_278423088" d="m3.30717 1.95756.566295.279165v-.888894l-.566295.279169v.330559zm.584646.403969c-.0153583 0-.0309764-.00357087-.0457598-.0109134l-.621209-.306256c-.0195551-.00961811-.0319646-.0294567-.0319646-.0512835l.00004724-.401591c0-.0217283.0123622-.0416614.0319016-.0512874l.620063-.305657c.0296457-.0159724.0646614-.0156732.0940197.0008937.0305748.0173583.048815.0484134.048815.0833346l.00001968.94702c0 .0349213-.0182717.0660787-.0488346.0833386-.0145551.00823228-.030752.0124016-.0470984.0124016z" fill="#fefefe" fill-opacity="1" data-original-color="#fefefeff" stroke="none" stroke-opacity="1"/><path id="_278421912" d="m3.25003 2.05021-.333398-.00010236c-.144551-.00009449-.26224-.115772-.26224-.257933.00001181-.0689528.0274803-.133827.077378-.182638.0496417-.0486142.115181-.0752992.184724-.0752992 0-.00000394.00010236 0 .00010236 0l.333433.00009843c.0316535 0 .0571417.0255984.0571417.0571417 0 .0315472-.0255906.0571457-.0571417.0571457l-.333398-.00010236c-.0001378 0-.0001378.00000394-.0001378.00000394-.0394567-.00000394-.076685.0150787-.104756.0426575-.0277835.0271772-.0430591.0629961-.0430591.100992.00001181.0791654.0663661.143654.147917.143654l.333433.00009449c.0316535 0 .0571417.0255945.0571417.0572441 0 .0315433-.0255906.0570433-.0571417.0570433z" fill="#fefefe" fill-opacity="1" data-original-color="#fefefeff" stroke="none" stroke-opacity="1"/><path id="_278422176" d="m3.14628 2.50378h-.2c-.031563 0-.0571614-.0255945-.0571614-.0571417l.00001575-.453673c0-.0315472.0255827-.0571378.057126-.0571378.0315827-.00000787.0571457.0255906.0571457.0571417l.00001575.396524h.0858031v-.396429c0-.0315472.0254843-.0571378.0570394-.0571378.0316614-.00000394.0571339.0255906.0571339.0571417l.00002362.453571c0 .0315433-.0255157.0571457-.0571417.0571417z" fill="#fefefe" fill-opacity="1" data-original-color="#fefefeff" stroke="none" stroke-opacity="1"/><path id="_278422296" d="m3.93061 2.07521c-.0302638 0-.0555787-.0237126-.057063-.0542638-.00155512-.0315551.0226142-.0583346.0541614-.0599213.0923661-.00466535.164685-.0788701.164685-.16885 0-.0900827-.0723189-.164189-.164685-.168846-.0315197-.00159449-.0557559-.0284724-.0541614-.0599213.00161417-.0315551.0285709-.0559528.0599213-.0542677.153165.00773622.273209.132043.273209.283035 0 .150988-.120043.275299-.273209.282937-.00098425.00009843-.00198819.00009843-.00285827.00009843z" fill="#fefefe" fill-opacity="1" data-original-color="#fefefeff" stroke="none" stroke-opacity="1"/></g></g></g></svg>