<svg height="512pt" viewBox="0 -58 512 512" width="512pt" xmlns="http://www.w3.org/2000/svg"><path d="m418.257812 299.554688h-368.753906c-9.160156 0-16.613281-7.453126-16.613281-16.613282v-259.421875c0-9.160156 7.453125-16.613281 16.613281-16.613281h368.753906c9.160157 0 16.613282 7.453125 16.613282 16.613281v259.421875c0 9.160156-7.382813 16.613282-16.613282 16.613282zm0 0" fill="#4ea4db"/><path d="m420.171875 6.835938h-372.582031c-8.136719 0-14.769532 6.976562-14.769532 15.589843v18.667969c0-8.613281 6.5625-15.589844 14.769532-15.589844h372.582031c8.136719 0 14.769531 6.976563 14.769531 15.589844v-18.667969c-.070312-8.613281-6.632812-15.589843-14.769531-15.589843zm0 0" fill="#fff"/><path d="m54.496094 40.410156h358.699218v195.761719h-358.699218zm0 0" fill="#fff"/><path d="m420.101562 243.007812h-372.445312v-209.433593h372.445312zm-358.769531-13.675781h345.09375v-182.085937h-345.09375zm0 0" fill="#122436"/><path d="m300.855469 361.847656h-133.949219l2.1875-3.148437c12.855469-18.324219 18.53125-38.769531 16.480469-59.144531h96.546875c-2.050782 20.375 3.621094 40.820312 16.476562 59.144531zm0 0" fill="#4ea4db"/><path d="m185.300781 318.222656h97.09375c-.820312-6.222656-.890625-12.445312-.273437-18.667968h-96.480469c.617187 6.222656.480469 12.515624-.339844 18.667968zm0 0" fill="#fff"/><path d="m316.992188 389.878906h-166.222657c-7.726562 0-14.015625-6.289062-14.015625-14.015625 0-7.726562 6.289063-14.015625 14.015625-14.015625h166.289063c7.726562 0 14.019531 6.289063 14.019531 14.015625-.070313 7.726563-6.292969 14.015625-14.085937 14.015625zm0 0" fill="#4ea4db"/><path d="m316.992188 361.847656h-166.222657c-7.726562 0-14.015625 6.289063-14.015625 14.015625 0 2.257813.546875 4.375 1.433594 6.222657 2.324219-4.582032 7.042969-7.796876 12.582031-7.796876h166.289063c5.472656 0 10.257812 3.148438 12.582031 7.796876.957031-1.847657 1.4375-3.964844 1.4375-6.222657-.070313-7.726562-6.292969-14.015625-14.085937-14.015625zm0 0" fill="#fff"/><path d="m418.257812 0h-368.753906c-12.921875 0-23.453125 10.53125-23.453125 23.453125v259.417969c0 12.921875 10.53125 23.453125 23.453125 23.453125h129.640625c.273438 16.683593-5.058593 33.300781-15.65625 48.410156l-.136719.207031h-12.652343c-11.484375 0-20.851563 9.367188-20.851563 20.851563 0 11.488281 9.367188 20.855469 20.851563 20.855469h166.292969c11.488281 0 20.855468-9.367188 20.855468-20.855469 0-11.484375-9.367187-20.851563-20.855468-20.851563h-12.648438l-.136719-.207031c-10.601562-15.109375-15.933593-31.726563-15.660156-48.410156h129.640625c12.921875 0 23.453125-10.53125 23.453125-23.453125v-259.351563c.070313-12.988281-10.460937-23.519531-23.382813-23.519531zm-94.085937 375.863281c0 3.964844-3.214844 7.179688-7.179687 7.179688h-166.222657c-3.964843 0-7.179687-3.214844-7.179687-7.179688 0-3.964843 3.214844-7.179687 7.179687-7.179687h166.289063c3.898437 0 7.113281 3.214844 7.113281 7.179687zm-36.035156-20.855469h-108.511719c8.957031-15.382812 13.46875-31.929687 13.265625-48.613281h82.050781c-.273437 16.683594 4.238282 33.230469 13.195313 48.613281zm139.898437-72.066406c0 5.402344-4.378906 9.777344-9.777344 9.777344h-368.753906c-5.402344 0-9.777344-4.375-9.777344-9.777344v-259.421875c0-5.398437 4.375-9.777343 9.777344-9.777343h368.753906c5.398438 0 9.777344 4.378906 9.777344 9.777343zm0 0" fill="#122436"/><path d="m82.53125 64.753906h302.632812v56.066406h-302.632812zm0 0" fill="#ffcd35"/><path d="m82.53125 143.246094h73.777344v62.292968h-73.777344zm0 0" fill="#ffcd35"/><g fill="#4ea4db"><path d="m185.300781 141.878906h204.238281v13.675782h-204.238281zm0 0"/><path d="m185.300781 167.246094h204.238281v13.675781h-204.238281zm0 0"/><path d="m185.300781 192.546875h204.238281v13.675781h-204.238281zm0 0"/></g><path d="m233.914062 279.65625c-6.289062 0-11.417968-5.125-11.417968-11.417969 0-6.289062 5.128906-11.417969 11.417968-11.417969 6.292969 0 11.417969 5.128907 11.417969 11.417969 0 6.292969-5.125 11.417969-11.417969 11.417969zm0 0" fill="#fff"/><path d="m488.070312 389.878906h-120.34375c-9.4375 0-17.09375-7.65625-17.09375-17.09375v-181.332031c0-9.4375 7.65625-17.09375 17.09375-17.09375h120.34375c9.433594 0 17.09375 7.65625 17.09375 17.09375v181.265625c0 9.503906-7.660156 17.160156-17.09375 17.160156zm0 0" fill="#ffcd35"/><path d="m489.574219 174.359375h-123.351563c-8.617187 0-15.589844 6.972656-15.589844 15.589844v12.445312c0-8.617187 6.972657-15.589843 15.589844-15.589843h123.351563c8.613281 0 15.589843 6.972656 15.589843 15.589843v-12.445312c0-8.617188-6.976562-15.589844-15.589843-15.589844zm0 0" fill="#fff"/><path d="m488.070312 396.71875h-120.34375c-13.195312 0-23.933593-10.734375-23.933593-23.933594v-181.332031c0-13.195313 10.738281-23.933594 23.933593-23.933594h120.34375c13.195313 0 23.929688 10.738281 23.929688 23.933594v181.265625c0 13.265625-10.734375 24-23.929688 24zm-120.34375-215.523438c-5.675781 0-10.257812 4.582032-10.257812 10.257813v181.265625c0 5.675781 4.582031 10.253906 10.257812 10.253906h120.34375c5.671876 0 10.253907-4.578125 10.253907-10.253906v-181.265625c0-5.675781-4.582031-10.257813-10.253907-10.257813zm0 0" fill="#122436"/><path d="m371.488281 195.214844h111.453125v154.460937h-111.453125zm0 0" fill="#fff"/><path d="m427.898438 375.726562c-4.789063 0-8.617188-3.828124-8.617188-8.617187 0-4.785156 3.828125-8.613281 8.617188-8.613281 4.785156 0 8.613281 3.828125 8.613281 8.613281 0 4.789063-3.828125 8.617187-8.613281 8.617187zm0 0" fill="#fff"/><path d="m389.605469 211.964844h75.761719v41.230468h-75.761719zm0 0" fill="#ffcd35"/><path d="m389.605469 263.65625h75.761719v13.675781h-75.761719zm0 0" fill="#4ea4db"/><path d="m389.605469 284.855469h75.761719v13.675781h-75.761719zm0 0" fill="#4ea4db"/><path d="m389.605469 305.984375h75.761719v13.671875h-75.761719zm0 0" fill="#4ea4db"/><path d="m85.128906 389.878906h-61.199218c-9.433594 0-17.09375-7.65625-17.09375-17.09375v-131.691406c0-9.4375 7.660156-17.09375 17.09375-17.09375h61.199218c9.433594 0 17.09375 7.65625 17.09375 17.09375v131.691406c0 9.4375-7.660156 17.09375-17.09375 17.09375zm0 0" fill="#ffcd35"/><path d="m86.632812 224h-64.273437c-8.617187 0-15.589844 6.972656-15.589844 15.589844v12.445312c0-8.617187 6.972657-15.589844 15.589844-15.589844h64.273437c8.613282 0 15.589844 6.972657 15.589844 15.589844v-12.445312c0-8.617188-6.976562-15.589844-15.589844-15.589844zm0 0" fill="#fff"/><path d="m85.128906 396.71875h-61.199218c-13.195313 0-23.929688-10.734375-23.929688-23.933594v-131.691406c0-13.195312 10.734375-23.929688 23.929688-23.929688h61.199218c13.195313 0 23.929688 10.734376 23.929688 23.929688v131.691406c0 13.199219-10.734375 23.933594-23.929688 23.933594zm-61.199218-165.882812c-5.671876 0-10.253907 4.582031-10.253907 10.257812v131.691406c0 5.675782 4.582031 10.257813 10.253907 10.257813h61.199218c5.675782 0 10.253906-4.582031 10.253906-10.257813v-131.691406c0-5.675781-4.578124-10.257812-10.253906-10.257812zm0 0" fill="#122436"/><path d="m22.359375 243.28125h63.519531v112.410156h-63.519531zm0 0" fill="#fff"/><path d="m30.835938 252.921875h46.769531v31.726563h-46.769531zm0 0" fill="#ffcd35"/><path d="m30.835938 291.144531h46.769531v13.675781h-46.769531zm0 0" fill="#4ea4db"/><path d="m30.835938 309.949219h46.769531v13.675781h-46.769531zm0 0" fill="#4ea4db"/><path d="m30.835938 328.753906h46.769531v13.671875h-46.769531zm0 0" fill="#4ea4db"/><path d="m60.71875 369.4375c0 3.625-2.941406 6.5625-6.566406 6.5625s-6.5625-2.9375-6.5625-6.5625 2.9375-6.566406 6.5625-6.566406 6.566406 2.941406 6.566406 6.566406zm0 0" fill="#fff"/></svg>