<svg id="Layer_1" enable-background="new 0 0 53 53" viewBox="0 0 53 53" xmlns="http://www.w3.org/2000/svg"><g><g><g><path d="m6.5408483 25.5612259c0 11.3544006 9.2005806 20.5550003 20.540781 20.5550003 11.3545017 0 20.5549984-9.2005997 20.5549984-20.5550003 0-11.3544998-9.2004967-20.5550003-20.5549984-20.5550003-11.3402 0-20.540781 9.2005005-20.540781 20.5550003z" fill="#fff"/><path d="m27.0817356 46.8661003c-11.7397451 0-21.2910156-9.5571289-21.2910156-21.3046856s9.5512705-21.3051767 21.2910156-21.3051767c11.7475605 0 21.3046894 9.5576172 21.3046894 21.3051758s-9.5571289 21.3046865-21.3046894 21.3046865zm0-41.1098623c-10.9125977 0-19.7910156 8.8847656-19.7910156 19.8051758s8.878418 19.8046856 19.7910156 19.8046856c10.9204121 0 19.8046894-8.8842773 19.8046894-19.8046856s-8.8842773-19.8051758-19.8046894-19.8051758z"/></g><g><path d="m13.5898485 25.5612259c0 7.459301 6.0442801 13.5036011 13.4941816 13.5036011 7.4594002 0 13.5037003-6.0443001 13.5037003-13.5036011s-6.0443001-13.5036001-13.5037003-13.5036001c-7.4499015 0-13.4941816 6.0442991-13.4941816 13.5036001z" fill="#ff6f5c"/><path d="m27.084177 39.8148308c-7.8540039 0-14.2441397-6.394043-14.2441397-14.2534161 0-7.8598633 6.3901358-14.2539072 14.2441397-14.2539072 7.8593769 0 14.2534199 6.3940439 14.2534199 14.2539072 0 7.8593731-6.394043 14.2534161-14.2534199 14.2534161zm0-27.0073233c-7.0273438 0-12.7441397 5.7211924-12.7441397 12.7539072 0 7.0322247 5.7167959 12.7534161 12.7441397 12.7534161 7.0322285 0 12.7534199-5.7211914 12.7534199-12.7534161 0-7.0327148-5.7211914-12.7539072-12.7534199-12.7539072z"/></g><g><path d="m20.9403286 25.5612259c0 3.3974991 2.7530003 6.1504993 6.1463013 6.1504993 3.3974991 0 6.1504993-2.7530003 6.1504993-6.1504993s-2.7530003-6.1506004-6.1504993-6.1506004c-3.393301 0-6.1463013 2.7530994-6.1463013 6.1506004z" fill="#fff"/><path d="m27.0866184 32.4618034c-3.8027344 0-6.8964844-3.0957012-6.8964844-6.9003887 0-3.8051758 3.09375-6.9008789 6.8964844-6.9008789 3.8046875 0 6.9003925 3.0957031 6.9003925 6.9008789.0000001 3.8046875-3.095705 6.9003887-6.9003925 6.9003887zm0-12.3012676c-2.9755859 0-5.3964844 2.4228516-5.3964844 5.4008789s2.4208984 5.4003906 5.3964844 5.4003906c2.9775391 0 5.4003925-2.4223633 5.4003925-5.4003906s-2.4228534-5.4008789-5.4003925-5.4008789z"/></g><g><path d="m27.0885715 26.9281139c-.1918945 0-.3837891-.0732422-.5302734-.2197266l-11.1645498-11.16504c-.2929688-.2929688-.2929688-.7675781 0-1.0605469s.7675772-.2929688 1.0605459 0l11.1645508 11.16504c.2929688.2929688.2929688.7675781 0 1.0605469-.1464844.1464844-.3383789.2197266-.5302735.2197266z"/></g><g><path d="m15.5696297 8.1112261-5.1554003-5.1554003c-.5263805-.5264001-1.4224997-.1033001-1.3505993.6376l.3968992 4.0900998c.0483189.4970002-.3691998.9144998-.8662996.8663001l-4.0899997-.3970003c-.7410002-.0718994-1.164.8243008-.6377001 1.3507004l5.1554999 5.1554003c.1300001.1300993.3011999.2108994.4842997.2285995l6.0088997.5832005c.4970007.0481997.9145002-.3692007.8662004-.8663006l-.5831003-6.0087996c-.0177993-.1830998-.0985994-.3543005-.2286996-.4843998z" fill="#fff"/><path d="m15.5939436 16.2245007c-.050293 0-.1005859-.0024414-.1513672-.0073242l-6.0083008-.5830088c-.3549805-.0341797-.6899414-.1918945-.9423828-.4448242l-5.1557617-5.1557617c-.4663086-.4663086-.5859375-1.1533203-.3041992-1.75s.8916013-.9389649 1.5444331-.8774415l4.0903325.3969727-.3496094-4.137207c-.0634765-.6567381.2807617-1.2631834.8774414-1.5449217.5961914-.28125 1.2832031-.1625977 1.75.3046875l5.1542959 5.1542969c.2524414.2514648.4111328.5859375.4462891.9418945l.5830078 6.0102539c.0449219.4604492-.1171875.9125977-.4448242 1.2402344-.2915039.2915046-.6821289.4521492-1.0893545.4521492zm-11.1621099-7.3251963 5.1206059 5.2294922 6.0351562.5952148-.5356445-6.0561523s-.012207-.0258789-.0126953-.0263672l-5.1552733-5.1552732.3232422 4.125c.0449219.4604492-.1171875.9125977-.4448242 1.2402344-.3276368.3271482-.7817384.4887693-1.2407227.4448239z"/></g></g><g><g><path d="m49.3686295 11.5477257c0 4.5223007-3.7399025 8.1919994-8.3607826 8.1919994-4.6209984 0-8.3663177-3.6696987-8.3663177-8.1919994 0-4.5275998 3.7453194-8.1973 8.3663177-8.1973 4.6208801 0 8.3607826 3.6697002 8.3607826 8.1973z" fill="#fff"/><path d="m41.008007 20.4896374c-5.0268555 0-9.1167011-4.0112305-9.1167011-8.9418955 0-4.9335938 4.0898457-8.9472656 9.1167011-8.9472656 5.0239258 0 9.1108398 4.0136719 9.1108398 8.9472656.0000001 4.930665-4.086914 8.9418955-9.1108398 8.9418955zm0-16.3891611c-4.199707 0-7.6166992 3.3408203-7.6166992 7.4472656 0 4.1035156 3.4169922 7.4418955 7.6166992 7.4418955 4.1967773 0 7.6108398-3.3383799 7.6108398-7.4418955.0000001-4.1064453-3.4140624-7.4472656-7.6108398-7.4472656z"/></g><g><g><path d="m46.4394302 17.769825c-1.459301 1.2285004-3.3509026 1.9699001-5.4315834 1.9699001-2.0809174 0-3.9725189-.7413998-5.4371185-1.9699001.0973015-2.8542995 2.4970016-5.1418991 5.4371185-5.1418991 2.9345818 0 5.334282 2.2875995 5.4315834 5.1418991z" fill="#ffd364"/><path d="m41.008007 20.4896374c-2.1679688 0-4.2700195-.7617188-5.9194336-2.1450195-.1767578-.1484375-.2753906-.3696289-.2675781-.6005859.1123047-3.2895518 2.8300782-5.866212 6.1870117-5.866212 3.3535156 0 6.0688477 2.5766602 6.1811523 5.8662119.0078125.2304688-.090332.4511719-.2666016.5996094-1.6440428 1.383789-3.7446288 2.1459961-5.9145507 2.1459961zm-4.6606445-3.0595703c1.3310547 1.0083008 2.9716797 1.5595703 4.6606445 1.5595703 1.6904297 0 3.3286133-.5512695 4.6552734-1.5585938-.2631836-2.3002939-2.2407227-4.0532236-4.6552734-4.0532236-2.4174804 0-4.3969726 1.7524414-4.6606445 4.0522471z"/></g><g><path d="m44.4715271 10.3523254c0 1.8763008-1.5514984 4.3243999-3.4664993 4.3243999-1.9148979 0-3.4662971-2.4480991-3.4662971-4.3243999s1.5513992-3.3963995 3.4662971-3.3963995c1.9150009 0 3.4664993 1.5200997 3.4664993 3.3963995z" fill="#fff"/><path d="m41.0050774 15.4266481c-2.3354492 0-4.2163086-2.7758789-4.2163086-5.0742188 0-2.2866211 1.8916016-4.1464844 4.2163086-4.1464844s4.2163086 1.8598633 4.2163086 4.1464844c0 2.2983399-1.8808594 5.0742188-4.2163086 5.0742188zm0-7.7207031c-1.4975586 0-2.7163086 1.1870117-2.7163086 2.6464844 0 1.5605469 1.3173828 3.5742188 2.7163086 3.5742188s2.7163086-2.0136719 2.7163086-3.5742188c0-1.4594727-1.21875-2.6464844-2.7163086-2.6464844z"/></g></g></g><g><g><path d="m23.0030289 41.9261246c0 4.6114006-3.736599 8.3534012-8.3533993 8.3534012-4.6167002 0-8.3586998-3.7420006-8.3586998-8.3534012 0-4.6167984 3.7419996-8.358799 8.3586998-8.358799 4.6168003 0 8.3533993 3.7420006 8.3533993 8.358799z" fill="#fff"/><path d="m14.6496077 51.0296745c-5.0224609 0-9.1088867-4.0839844-9.1088867-9.1035156 0-5.0224609 4.0864263-9.1088867 9.1088867-9.1088867 5.0195303 0 9.1035147 4.0864258 9.1035147 9.1088867-.0000001 5.0195313-4.0839844 9.1035156-9.1035147 9.1035156zm0-16.7124023c-4.1953125 0-7.6088872 3.4135742-7.6088872 7.6088867 0 4.1923828 3.4135747 7.6035156 7.6088872 7.6035156 4.1923819 0 7.6035147-3.4111328 7.6035147-7.6035156-.0000001-4.1953125-3.4111329-7.6088867-7.6035147-7.6088867z"/></g><g><g><path d="m20.0764294 48.2708244c-1.4580002 1.2527008-3.3479004 2.0087013-5.4267998 2.0087013s-3.9687815-.7560005-5.4321003-2.0087013c.0972004-2.9104996 2.4947004-5.2431984 5.4321003-5.2431984 2.9321003 0 5.3295994 2.3326989 5.4267998 5.2431984z" fill="#9fd25a"/><path d="m14.6496077 51.0296745c-2.1679688 0-4.2705078-.7773438-5.9199219-2.1889648-.1728516-.1484375-.2695312-.3671875-.2617188-.5947266.1118164-3.3466797 2.8271484-5.9682617 6.1816406-5.9682617 3.3515615 0 6.0644522 2.621582 6.1762686 5.9682617.0078125.2270508-.0883789.4458008-.2607422.59375-1.6440429 1.4121094-3.7446289 2.1899414-5.9155263 2.1899414zm-4.6567383-3.0942383c1.3300781 1.0307617 2.9697266 1.5942383 4.6567383 1.5942383 1.6884756 0 3.3261709-.5634766 4.6518545-1.59375-.2568359-2.3588867-2.2353516-4.1582031-4.6518545-4.1582031-2.4194336 0-4.3994141 1.7988281-4.6567383 4.1577148z"/></g><g><path d="m18.1102295 40.7072258c0 1.9132004-1.5499992 4.4095993-3.4632998 4.4095993-1.9132004 0-3.4631996-2.4963989-3.4631996-4.4095993s1.5499992-3.4632988 3.4631996-3.4632988c1.9133006 0 3.4632998 1.5500984 3.4632998 3.4632988z" fill="#fff"/><path d="m14.6471663 45.8665886c-2.3339844 0-4.2133789-2.8222656-4.2133789-5.1591797 0-2.3232422 1.8901367-4.2133789 4.2133789-4.2133789 2.322753 0 4.2128897 1.8901367 4.2128897 4.2133789-.0000001 2.3369141-1.8793946 5.1591797-4.2128897 5.1591797zm0-7.8725586c-1.4960938 0-2.7133789 1.2172852-2.7133789 2.7133789 0 1.5976562 1.315918 3.6591797 2.7133789 3.6591797s2.7128897-2.0615234 2.7128897-3.6591797c-.0000001-1.4960937-1.216797-2.7133789-2.7128897-2.7133789z"/></g></g></g></g></svg>