<svg id="Layer_1" viewBox="0 0 512 512" xmlns="http://www.w3.org/2000/svg" data-name="Layer 1"><g fill-rule="evenodd"><path d="m299.657 67.772 22.611-15.164c3.683-2.47 8.481-2.001 11.616 1.134l34.996 34.996c3.135 3.135 3.603 7.934 1.134 11.617l-15.164 22.612 19.234 46.424 26.707 5.266c4.351.858 7.413 4.581 7.413 9.016v49.491c0 4.435-3.061 8.159-7.412 9.017l-26.707 5.265-19.234 46.425 15.164 22.612c2.469 3.682 2.001 8.481-1.134 11.617l-34.996 34.995c-3.136 3.136-7.934 3.604-11.617 1.135l-22.612-15.164-46.424 19.233-5.266 26.708c-.858 4.351-4.582 7.412-9.016 7.412h-49.491c-4.434 0-8.159-3.061-9.017-7.412l-5.266-26.709-63.703-26.39-27.93-23.934-29.22-70.528-26.708-5.265c-4.351-.858-7.412-4.582-7.412-9.017v-49.491c0-4.435 3.062-8.158 7.413-9.016l26.707-5.266 19.233-46.424-15.164-22.612c-2.47-3.682-2.001-8.481 1.134-11.617l34.996-34.996c3.136-3.135 7.933-3.603 11.615-1.134l22.612 15.164 46.425-19.233 5.266-26.708c.858-4.351 4.582-7.412 9.016-7.412h49.492c4.434 0 8.158 3.061 9.016 7.412l5.266 26.708 46.425 19.233z" fill="#fdc72e"/><path d="m299.657 67.772 16.409-11.004 37.313 37.312-19.372 28.887 19.234 46.424 34.119 6.727v64.603l-34.119 6.727-19.234 46.424 19.372 28.887-37.312 37.311-33.3-22.329-48.298 20.01-8.808 44.669h-36.203c-4.434 0-8.158-3.062-9.016-7.413l-5.265-26.708-63.704-26.39-27.93-23.934-29.22-70.527-26.708-5.266c-4.35-.857-7.411-4.582-7.411-9.017v-49.491c0-4.435 3.061-8.16 7.411-9.017l26.708-5.266 19.234-46.424-15.164-22.611c-2.47-3.683-2.001-8.482 1.135-11.618l29.117-29.116 22.828 15.309 17.279-7.158 46.425-19.234 5.265-26.707c.858-4.351 4.582-7.413 9.016-7.413h36.203l8.808 44.669 48.298 20.01z" fill="#ffeb87"/><path d="m333.949 208.48c0 66.165-53.638 119.803-119.803 119.803-22.341 0-43.253-6.117-61.155-16.765-8.18-4.866-18.286-3.603-25.016 3.128l-21.397 21.397-19.995-19.995 21.397-21.397c6.73-6.73 7.993-16.836 3.127-25.016-10.649-17.901-16.765-38.814-16.765-61.155 0-66.165 53.637-119.803 119.803-119.803s119.803 53.638 119.803 119.803z" fill="#4eb1fc"/><path d="m98.306 327.77-11.723-11.723 21.396-21.396c6.73-6.731 7.993-16.836 3.128-25.016-10.649-17.901-16.765-38.814-16.765-61.155 0-66.165 53.638-119.803 119.803-119.803 48.22 0 89.779 28.492 108.779 69.556 4.083 12.063 6.297 24.988 6.297 38.43 0 93.532-95.754 151.289-177.592 99.672-8.18-4.866-18.285-3.603-25.016 3.128l-28.308 28.308z" fill="#85caff"/><path d="m54.668 404.201 69.772-69.772c4.815-4.815 4.815-12.671 0-17.485l-18.759-18.759c-4.815-4.815-12.67-4.815-17.485 0l-69.772 69.772c-9.967 9.967-9.967 26.277 0 36.244 9.968 9.968 26.276 9.968 36.244 0z" fill="#a34f41"/><path d="m112.515 305.018-6.833-6.834-.004-.004c-4.815-4.811-12.668-4.81-17.482.004l-69.772 69.772c-7.881 7.88-9.529 19.724-4.948 29.265 9.541 4.583 21.385 2.936 29.267-4.946l69.772-69.772c4.816-4.816 4.815-12.671 0-17.486z" fill="#c86f5c"/></g><circle cx="214.147" cy="202.36" fill="#4eb1fc" r="87.921" transform="matrix(.707 -.707 .707 .707 -80.368 210.695)"/><circle cx="214.147" cy="208.478" fill="#fff" r="87.921"/><path d="m217.984 154.991 13.79 29.351 32.176 4.045c1.664.209 2.974 1.292 3.492 2.887s.095 3.241-1.128 4.389l-23.653 22.184 6.096 31.851c.315 1.647-.31 3.228-1.667 4.213-1.356.986-3.053 1.092-4.522.283l-28.408-15.64-28.408 15.64c-1.469.808-3.166.702-4.522-.283-1.357-.986-1.982-2.567-1.667-4.213l6.096-31.851-23.653-22.185c-1.223-1.147-1.646-2.794-1.128-4.389s1.829-2.678 3.492-2.887l32.176-4.045 13.789-29.351c.713-1.518 2.148-2.429 3.825-2.429s3.112.911 3.825 2.429z" fill="#fcdb35" fill-rule="evenodd"/><path d="m238.04 251.702-30.028-16.532-28.517 15.7c-.031-.382-.009-.776.067-1.173l6.096-31.851-23.653-22.185c-1.223-1.147-1.646-2.794-1.128-4.389s1.829-2.678 3.492-2.887l32.176-4.045 12.906-27.471 12.315 26.213 32.176 4.044c1.664.209 2.974 1.292 3.492 2.887s.095 3.241-1.128 4.389l-23.653 22.185 6.096 31.851c.227 1.188-.035 2.341-.708 3.262z" fill="#ffeb87" fill-rule="evenodd"/><path d="m392.099 380.031c57.097 0 103.974 43.722 109 99.51v18.113h-218v-18.113c5.026-55.788 51.903-99.51 108.999-99.51z" fill="#4eb1fc" fill-rule="evenodd"/><path d="m471.532 497.654h-188.433v-18.113c4.584-50.888 43.994-91.73 94.216-98.512 50.223 6.782 89.632 47.624 94.217 98.512z" fill="#85caff" fill-rule="evenodd"/><circle cx="392.099" cy="327.551" fill="#d9c5bf" r="52.128" transform="matrix(.99 -.14 .14 .99 -41.912 57.985)"/><path d="m377.727 377.671c-21.799-6.239-37.755-26.316-37.755-50.12s15.956-43.881 37.755-50.12c21.8 6.239 37.755 26.316 37.755 50.12s-15.956 43.88-37.755 50.12z" fill="#e6d6d1" fill-rule="evenodd"/><path d="m197.518 191.262c2.381-.304 4.439-1.793 5.461-3.972l11.221-23.869 11.207 23.869c1.022 2.179 3.089 3.668 5.471 3.972l26.173 3.287-19.242 18.051c-1.749 1.639-2.54 4.058-2.092 6.42l4.96 25.913-23.107-12.73c-1.051-.573-2.212-.863-3.369-.863-1.171 0-2.333.289-3.379.863l-23.112 12.73 4.96-25.913c.448-2.362-.328-4.781-2.082-6.42l-19.242-18.051 26.173-3.287zm-19.319 28.906-5.35 27.952c-.829 4.319.867 8.604 4.42 11.182 1.971 1.427 4.271 2.159 6.579 2.159 1.851 0 3.711-.468 5.418-1.412l24.934-13.718 24.929 13.718c3.846 2.121 8.44 1.831 11.987-.747 3.562-2.579 5.254-6.864 4.43-11.182l-5.35-27.952 20.755-19.468c3.21-2.998 4.347-7.461 2.998-11.641-1.359-4.179-4.912-7.109-9.269-7.659l-28.231-3.552-12.113-25.749v-.01c-1.87-3.972-5.75-6.44-10.137-6.44s-8.281 2.468-10.151 6.449l-12.098 25.749-28.241 3.552c-4.353.549-7.9 3.48-9.259 7.659-1.364 4.179-.212 8.642 2.988 11.641l20.76 19.468zm36.001-92.897c-44.73 0-81.112 36.391-81.112 81.107s36.382 81.112 81.112 81.112 81.107-36.386 81.107-81.112-36.391-81.107-81.107-81.107zm0 176.221c52.437 0 95.109-42.672 95.109-95.114s-42.672-95.109-95.109-95.109-95.114 42.672-95.114 95.109 42.662 95.114 95.114 95.114zm279.808 187.042h-203.839v-10.783c4.931-52.9 48.692-92.762 101.92-92.762s96.998 39.862 101.92 92.762v10.783zm-147.011-162.98c0-24.862 20.235-45.082 45.092-45.082s45.091 20.22 45.091 45.082-20.23 45.087-45.091 45.087-45.092-20.22-45.092-45.087zm-18.118 30.467 8.411-8.411c-2.752-6.82-4.29-14.257-4.29-22.056 0-16.441 6.757-31.33 17.636-42.055l16.904-40.787c.887-2.16 2.81-3.74 5.109-4.189l26.679-5.263c1.08-.207 1.779-1.06 1.779-2.159v-49.439c0-1.099-.699-1.947-1.779-2.159l-26.679-5.264c-2.299-.458-4.222-2.029-5.109-4.189l-19.232-46.398c-.901-2.169-.65-4.642.651-6.579l15.149-22.591c.622-.911.511-2.01-.27-2.791l-34.96-34.95c-.781-.781-1.87-.887-2.781-.279l-22.587 15.149c-1.952 1.311-4.425 1.552-6.584.66l-46.397-19.227c-2.169-.901-3.74-2.81-4.189-5.114l-5.263-26.679c-.207-1.08-1.06-1.779-2.159-1.779h-49.439c-1.099 0-1.952.699-2.159 1.779l-5.273 26.679c-.448 2.304-2.015 4.213-4.179 5.114l-46.407 19.227c-2.159.892-4.632.651-6.57-.66l-22.592-15.149c-.921-.607-2.01-.501-2.791.279l-34.96 34.95c-.781.781-.877 1.87-.27 2.791l15.15 22.591c1.301 1.938 1.552 4.41.65 6.579l-19.222 46.398c-.897 2.159-2.815 3.731-5.109 4.189l-26.689 5.264c-1.07.212-1.769 1.06-1.769 2.159v49.439c0 1.099.699 1.952 1.769 2.159l26.689 5.263c2.294.448 4.213 2.029 5.109 4.189l20.712 49.989 1.36-1.359c3.663-3.658 8.541-5.668 13.732-5.668 2.449 0 4.81.458 7.018 1.306 4.01-4.425 4.671-10.739 1.581-15.926-11.602-19.502-17.728-41.872-17.728-64.675 0-69.847 56.819-126.666 126.671-126.666s126.666 56.819 126.666 126.666-56.818 126.671-126.666 126.671c-22.813 0-45.173-6.126-64.67-17.728-5.201-3.089-11.51-2.429-15.94 1.581 2.689 6.951 1.239 15.14-4.362 20.75l-1.359 1.359 49.998 20.712c2.164.887 3.731 2.805 4.179 5.109l5.273 26.679c.207 1.08 1.06 1.779 2.159 1.779h49.439c1.099 0 1.952-.699 2.159-1.779l5.263-26.679c.448-2.304 2.02-4.222 4.189-5.109l46.397-19.232c2.159-.892 4.632-.651 6.584.66l22.587 15.149c.911.607 2 .501 2.781-.28zm-203.96-50.152c8.98-7.616 21.459-8.71 31.769-2.579 17.333 10.31 37.22 15.762 57.513 15.762 62.13 0 112.668-50.538 112.668-112.674s-50.538-112.668-112.668-112.668-112.673 50.543-112.673 112.668c0 20.292 5.452 40.17 15.762 57.513 6.131 10.31 5.032 22.789-2.579 31.769l10.209 10.209zm-74.952 91.243c-7.297 7.298-19.189 7.298-26.501 0-7.307-7.312-7.307-19.198 0-26.51l69.36-69.36c1.022-1.012 2.381-1.572 3.832-1.572 1.46 0 2.82.559 3.832 1.572l18.837 18.837c2.121 2.121 2.121 5.553 0 7.674l-69.36 69.36zm458.01 79.69c-2.588-28.809-15.8-55.503-37.177-75.149-13.554-12.441-29.643-21.372-47.01-26.269 16.446-10.503 27.387-28.911 27.387-49.83 0-32.583-26.51-59.084-59.089-59.084-7.322 0-14.34 1.35-20.822 3.793l7.765-18.731 23.006-4.531c7.693-1.518 13.072-8.059 13.072-15.901v-49.439c0-7.842-5.379-14.378-13.072-15.901l-23.006-4.526-16.354-39.481 13.062-19.473c4.367-6.516 3.548-14.937-2-20.48l-34.96-34.96c-5.538-5.548-13.973-6.367-20.48-2l-19.478 13.062-39.471-16.359-4.54-23.001c-1.513-7.702-8.049-13.072-15.892-13.072h-49.439c-7.852 0-14.378 5.37-15.901 13.072l-4.535 23.001-39.476 16.359-19.478-13.062c-6.507-4.367-14.928-3.548-20.48 2l-34.96 34.96c-5.538 5.543-6.358 13.964-2 20.48l13.062 19.473-16.35 39.481-23.001 4.526c-7.702 1.523-13.072 8.059-13.072 15.901v49.439c0 7.842 5.37 14.383 13.072 15.901l23.001 4.531 21.497 51.888-57.291 57.291c-12.768 12.759-12.768 33.528 0 46.301 6.165 6.16 14.393 9.558 23.15 9.558s16.991-3.398 23.151-9.558l57.291-57.291 51.883 21.502 4.535 22.996c1.523 7.693 8.049 13.072 15.901 13.072h49.439c7.842 0 14.378-5.379 15.892-13.072l4.54-22.996 39.471-16.364 19.478 13.062c6.507 4.367 14.942 3.548 20.48-2l5.591-5.582c4.348 5.953 9.789 11.062 16.017 15.043-17.362 4.897-33.456 13.828-47.01 26.269-21.377 19.646-34.579 46.34-37.177 75.149-.024.208-.034.419-.034.627v18.104c0 3.87 3.143 6.999 7.004 6.999h217.837c3.87 0 7.004-3.128 7.004-6.999v-18.104c0-.207-.01-.419-.034-.627z" fill-rule="evenodd"/></svg>