<svg clip-rule="evenodd" fill-rule="evenodd" height="300" image-rendering="optimizeQuality" shape-rendering="geometricPrecision" text-rendering="geometricPrecision" viewBox="0 0 6.82666 6.82666" width="300" xmlns="http://www.w3.org/2000/svg" version="1.1" xmlns:xlink="http://www.w3.org/1999/xlink" xmlns:svgjs="http://svgjs.dev/svgjs"><g width="100%" height="100%" transform="matrix(1,0,0,1,0,0)"><g id="Layer_x0020_1"><circle cx="3.413" cy="3.413" fill="#00487c" r="3.333" fill-opacity="1" data-original-color="#9966ffff" stroke="none" stroke-opacity="1"/><g id="_351222928" fill="#fefefe"><path id="_351223912" d="m2.34657 2.89756c.0910709.0321417.144539.086811.19672.140185.0319646.0325315.0648819.0662677.107937.0955354l.00000787-.00000394c.0474134.0323425.114673.0383976.175587.0159764.0505079-.0185551.0861102-.0536732.0978189-.0961339.0201417-.0738189.00833071-.145933-.033437-.203075-.0405709-.0557559-.105354-.0894843-.177673-.0925591-.103768-.00436614-.260122.0633937-.366961.140075zm.406362.379161c-.0600197 0-.118571-.0166575-.165992-.0488976l.00000787-.00000787c-.0524764-.0357126-.0911772-.0752913-.125303-.110209-.064874-.0662717-.116075-.118555-.243752-.131453-.0213228-.00218898-.0396811-.0161693-.0474213-.0362087-.00783071-.0199409-.00376772-.0426614.0105197-.0587323.107657-.120638.365374-.254961.537398-.247913.107244.00456299.20387.0553543.265181.139382.0617087.0845197.0804567.194146.0512874.300594-.0215236.0785709-.082937.141669-.168551.173217-.0367874.0135906-.0753976.0202402-.113374.0202283z" fill="#fefefe" fill-opacity="1" data-original-color="#fefefeff" stroke="none" stroke-opacity="1"/><path id="_351223864" d="m3.41106 3.8302c-.0297559 0-.0548701-.0231102-.0569528-.0532677-.0164646-.244949-.138492-.450894-.362697-.612004-.17122-.123126-.340677-.172421-.342362-.172917-.0303543-.00873228-.0479173-.0402795-.0392874-.0706339.00864173-.0302638.0401811-.0479173.0705354-.0392874.00755118.00208268.187598.0541693.374799.187898.2515.179661.394346.421429.413098.699209.00208661.0315354-.0217244.0587283-.0531732.0609134-.00128346.00009055-.00258268.00009843-.00396063.00009055z" fill="#fefefe" fill-opacity="1" data-original-color="#fefefeff" stroke="none" stroke-opacity="1"/><path id="_351223480" d="m3.40411 3.8302c-.0315394 0-.0571575-.0255906-.0571575-.0571378l.00001181-1.56509c0-.0315512.0255866-.0571378.0571339-.0571378.0315512-.00000394.0571417.0255984.0571417.0571457l.00001181 1.56507c0 .0315512-.0256063.0571535-.0571417.0571457z" fill="#fefefe" fill-opacity="1" data-original-color="#fefefeff" stroke="none" stroke-opacity="1"/><path id="_351224032" d="m3.4434 1.93526c-.101697.0834252-.20765.216969-.230268.318354-.0157598.0705315.00009843.141866.0433543.195535.0444606.0551496.111209.0849213.187594.0848228.0440512-.00030709.0871024-.0255945.118157-.0695472.0374134-.0530787.0489094-.119642.0300591-.173807h.00000787c-.0171654-.0491063-.0411772-.0896811-.0644882-.128969-.0379882-.0641929-.0769882-.129961-.0844173-.22639zm-.00080315.712992c-.109622 0-.20972-.0463268-.275098-.127378-.0651693-.0808583-.0892874-.187398-.065874-.292161.037315-.167661.234126-.38224.378469-.454858.0192677-.00973228.0422638-.00774016.0595276.00496063.017374.0126969.0260906.0340236.0226181.0552559-.0205354.126579.0167677.189583.0639882.269346.0248071.0420551.0529764.0896811.0739055.149602h.00000787c.0308504.0883898.0137874.194646-.0445472.277283-.0525709.0745-.129465.117461-.210913.117953-.00067323-.00000394-.00138976 0-.00208268-.00000394z" fill="#fefefe" fill-opacity="1" data-original-color="#fefefeff" stroke="none" stroke-opacity="1"/><path id="_351223456" d="m4.12295 2.75728c-.00337008 0-.00664961.0001063-.00982283.00020472-.0722087.00306693-.137004.0368031-.177681.0925591-.0417598.0571378-.0535669.129264-.0333307.203075.0116142.0424567.0472244.0775787.0977165.0961339.0609331.0224173.128177.0163661.175598-.0159724l.00001968-.00000394c.0430354-.0292638.0759724-.0629921.107913-.0955315.0521969-.053378.105654-.108039.196827-.140177-.103669-.074315-.253571-.140283-.35724-.140287zm-.0491969.519441c-.0379882 0-.0765984-.0066378-.113402-.0202283-.0856181-.0315551-.147028-.0946417-.168555-.173217-.0290472-.106453-.0104173-.216071.0512913-.300594.061311-.0840276.157937-.134819.265181-.139382.171531-.00714567.42976.12728.537402.247913.0142913.0160669.0183504.0387913.0106102.0587323-.00781496.0200354-.0261929.0340276-.0475197.0362087-.127661.0128898-.17887.0651811-.243748.131453-.0341181.0349094-.072815.0745-.125299.110217-.0474134.0322362-.105953.0489094-.165961.0488976z" fill="#fefefe" fill-opacity="1" data-original-color="#fefefeff" stroke="none" stroke-opacity="1"/><path id="_351222832" d="m3.41561 3.8302c-.00127165 0-.00257874.00000787-.0039685-.00009055-.031437-.00218898-.0552559-.0293701-.0531772-.0609134.018752-.277783.16161-.519547.413197-.699209.187118-.133728.367161-.185815.374701-.187898.0304764-.00863386.0620039.00902756.0705394.0393858.00864173.0303504-.00893307.0619055-.0392874.0705354l.00000394-.00000394c-.00167323.00048819-.171134.0498071-.342362.172921-.224201.161106-.346236.367063-.362701.612004-.00208268.0301496-.0271811.0532756-.0569449.0532677z" fill="#fefefe" fill-opacity="1" data-original-color="#fefefeff" stroke="none" stroke-opacity="1"/><path id="_351222856" d="m3.21592 3.91234h.394846v-.0410709c0-.0226142-.0184724-.041063-.0410906-.041063l-.312685-.00000787c-.0226339 0-.0410866.0184606-.0410866.0410787l.00001575.041063zm.451988.114287h-.50913c-.031563 0-.0571575-.0255906-.0571575-.0571378l.00001181-.0982205c0-.0856181.0697283-.15535.155343-.15535l.312717-.00000787c.0857165 0 .155343.069748.155343.155366l.00001575.0982047c0 .0315512-.0256142.0571535-.0571417.0571457z" fill="#fefefe" fill-opacity="1" data-original-color="#fefefeff" stroke="none" stroke-opacity="1"/><path id="_351223288" d="m1.56592 1.47057c-.126185 0-.228886.102681-.228886.22887v2.39544c0 .126181.102681.228874.22887.228874h3.69486c.126181 0 .228854-.102681.228854-.22887l.00000787-2.39544c0-.126193-.102689-.228866-.228878-.228866l-3.69483-.00000394zm3.69485 2.96746h-3.69485c-.189197 0-.343173-.153957-.343173-.343146v-2.39544c0-.189185.153972-.343055.343157-.343055l3.69486-.00000394c.189173 0 .343138.153874.343138.343059l.00000787 2.39544c0 .189185-.153976.343157-.343146.34315z" fill="#fefefe" fill-opacity="1" data-original-color="#fefefeff" stroke="none" stroke-opacity="1"/><path id="_351223216" d="m5.26077 1.70876h.00008661zm-3.68563 2.37689h3.67639v-2.37689h-3.67639zm3.68563.114287h-3.69485c-.0579488 0-.105075-.0471142-.105075-.105051l.00000394-2.39544c0-.0578346.0471181-.104957.105055-.104957l3.69486-.00000787c.0579213 0 .105043.0471299.105043.104965v2.39544c0 .0579331-.047126.105063-.105043.105055z" fill="#fefefe" fill-opacity="1" data-original-color="#fefefeff" stroke="none" stroke-opacity="1"/><path id="_351222736" d="m3.67543 5.2304h-.524201c-.0315394 0-.0571496-.0255906-.0571496-.0571378l.00000787-.792362c0-.0315512.0255866-.0571417.0571339-.0571417.0315512 0 .0571417.0255945.0571417.0571417l.00000787.735213h.409913v-.735213c0-.0315512.0255984-.0571417.0571457-.0571417.0315591 0 .0571417.0255945.0571417.0571417v.792354c0 .0315551-.0255984.0571535-.0571417.0571457z" fill="#fefefe" fill-opacity="1" data-original-color="#fefefeff" stroke="none" stroke-opacity="1"/><path id="_351223072" d="m3.41333 5.47028c-.423504 0-.852283-.104358-.852283-.303862.00000787-.210327.447024-.275.584028-.289878.0314488-.00338189.0595236.0192441.0629961.0506929.00338583.0313465-.0193504.0595236-.0506969.0628937-.340673.0369055-.482043.133039-.482043.176291.00001181.0643858.260417.189583.737996.189583.477594-.00000787.738098-.125197.738098-.189583.00001181-.0432598-.141472-.139382-.482146-.176291-.0313465-.00337795-.0540669-.0315472-.0505945-.0628937.00337402-.0314528.0314449-.0540669.0628976-.0506929.13702.014874.584126.0795591.584126.289878.00001181.199496-.428768.30387-.852378.303862z" fill="#fefefe" fill-opacity="1" data-original-color="#fefefeff" stroke="none" stroke-opacity="1"/></g></g></g></svg>