<svg id="a" height="300" viewBox="0 0 64 64" width="300" xmlns="http://www.w3.org/2000/svg" version="1.1" xmlns:xlink="http://www.w3.org/1999/xlink" xmlns:svgjs="http://svgjs.dev/svgjs"><g width="100%" height="100%" transform="matrix(1,0,0,1,0,0)"><path d="m58.9953 17.99976c-11 0-11-9-11-9l-16-6-16 6s0 9-11 9c0 0-6 28 27 43 33-15 27-43 27-43z" fill="#e6f3ff" fill-opacity="1" data-original-color="#e6f3ffff" stroke="none" stroke-opacity="1"/><path d="m31.9953 61.99976c-33.24849-14.23094-29.36536-45.55989-27.0005-45.00008 9.88721.00008 10.00049-7.67375 10.00049-7.99992 0-.41699.25879-.79004.64844-.93652l16-6.00001c.22656-.08398.47656-.08398.70312 0l16 6c.38965.14648.64844.51953.64844.93652.00195.32324.1709 8 10 8 2.40395-.57864 6.20741 30.79335-27 45zm-26.15821-43.01758c-.69922 4.59375-2.61523 27.61328 26.1582 40.91797 28.77344-13.30469 26.85742-36.32422 26.1582-40.91797-9.22656-.38184-10.8252-7.04492-11.10059-9.26758l-15.05762-5.64648-15.05762 5.64648c-.27539 2.22266-1.87402 8.88574-11.10059 9.26758z" fill="#00487c" fill-opacity="1" data-original-color="#21257cff" stroke="none" stroke-opacity="1"/><path d="m41.9953 48.95972v-36.87l1.54999.58002c1.22003 4.12 4.54999 8.45001 10.90002 9.85999.14996 5.59003-1.17999 16.89001-12.45001 26.42999z" fill="#4aa5ff" fill-opacity="1" data-original-color="#4aa5ffff" stroke="none" stroke-opacity="1"/><path d="m41.9953 49.95972c-.53635.00677-1.0109-.45841-.99999-1.00001v-36.87011c-.01877-.67431.72515-1.19442 1.35059-.9365.76206.35198 1.99342.4996 2.15819 1.23237.6582 2.22464 2.9668 7.57131 10.1582 9.16799.44824.09961.77051.49121.7832.9502.20604 5.65012-1.54032 18.85703-13.4502 27.45605zm1-35.81836v32.58301c8.94043-8.45605 10.46387-17.92871 10.46094-23.40625-6.58301-1.75195-9.35352-6.35449-10.46094-9.17676z" fill="#00487c" fill-opacity="1" data-original-color="#21257cff" stroke="none" stroke-opacity="1"/><path d="m41.9953 12.08972v36.87c-2.71002 2.31-6.01001 4.51001-10 6.5-3.98999-2-7.28998-4.19995-10-6.50995v-36.86005l10-3.75z" fill="#4aa5ff" fill-opacity="1" data-original-color="#4aa5ffff" stroke="none" stroke-opacity="1"/><path d="m31.9953 56.45972c-4.06229-1.66679-7.64823-4.30182-10.64853-6.74886-.22257-.18961-.35147-.46793-.35147-.7609v-36.86036c0-.41699.25879-.79004.64844-.93652l10-3.75c.22656-.08398.47656-.08398.70312 0l10 3.75c.38965.14648.64844.51953.64844.93652v36.87012c0 .29297-.12891.57129-.35156.76074-3.00837 2.45705-6.59308 5.0826-10.64844 6.73926zm-9-7.97461c2.58301 2.14941 5.60645 4.11621 9.00098 5.85449 3.38672-1.72656 6.41016-3.68945 8.99902-5.84473v-35.71191l-9-3.375-9 3.375z" fill="#00487c" fill-opacity="1" data-original-color="#21257cff" stroke="none" stroke-opacity="1"/><path d="m21.9953 12.08972v36.86005c-11.19-9.54004-12.53998-20.85004-12.42999-26.43005 6.33002-1.40997 9.65997-5.72998 10.88-9.84998z" fill="#4aa5ff" fill-opacity="1" data-original-color="#4aa5ffff" stroke="none" stroke-opacity="1"/><g fill="#21257c"><path d="m21.9953 49.94995c-11.80497-8.57684-13.58531-21.78263-13.42981-27.45.00989-.46113.33313-.85664.78235-.95723 7.17676-1.59668 9.48145-6.93555 10.13867-9.15723.08887-.30078.31445-.54199.6084-.65234l1.5498-.58008c.62475-.2542 1.37007.25861 1.35057.93655l.00002 36.86033c.01022.53806-.4626 1.01025-1 1zm-11.43555-26.64453c.03418 5.48828 1.59375 14.96582 10.43555 23.39746v-32.56152c-1.10547 2.81738-3.87012 7.41016-10.43555 9.16406z" fill="#00487c" fill-opacity="1" data-original-color="#21257cff" stroke="none" stroke-opacity="1"/><path d="m41.9953 49.97925c-1.33039-.00976-1.31231-2.00103.00004-2.01953 1.32217.02156 1.30527 1.98986-.00004 2.01953z" fill="#00487c" fill-opacity="1" data-original-color="#21257cff" stroke="none" stroke-opacity="1"/><path d="m41.9953 13.04468c-1.34887.00559-1.31009-2.03059.00003-2.04492 1.33219.02132 1.29341 2.00505-.00003 2.04492z" fill="#00487c" fill-opacity="1" data-original-color="#21257cff" stroke="none" stroke-opacity="1"/><path d="m21.9953 49.97534c-1.33363-.00721-1.31225-2.00768.00004-2.02539 1.32449.02151 1.30252 1.99334-.00004 2.02539z" fill="#00487c" fill-opacity="1" data-original-color="#21257cff" stroke="none" stroke-opacity="1"/><path d="m21.9953 13.04468c-1.34887.00559-1.31009-2.03059.00003-2.04492 1.33219.02132 1.29341 2.00505-.00003 2.04492z" fill="#00487c" fill-opacity="1" data-original-color="#21257cff" stroke="none" stroke-opacity="1"/></g><path d="m29.9953 45.99976c.06614-2.64005 3.94042-2.63715 4 0-.06696 2.6371-3.92805 2.63633-4 0zm0-8c.06614-2.64005 3.94042-2.63715 4 0-.06696 2.6371-3.92805 2.63633-4 0zm0-8c.06614-2.64005 3.94042-2.63715 4 0-.06696 2.6371-3.92805 2.63633-4 0zm0-8c.06614-2.64005 3.94042-2.63715 4 0-.06696 2.6371-3.92805 2.63633-4 0zm0-8c.07216-2.63838 3.93445-2.63539 4 0-.06696 2.6371-3.92805 2.63633-4 0z" fill="#e6f3ff" fill-opacity="1" data-original-color="#e6f3ffff" stroke="none" stroke-opacity="1"/><path d="m44.9953 33.99976c.05971-2.63883 3.93399-2.63837 4 0-.07341 2.63834-3.9345 2.6351-4 0zm0-8c.05971-2.63883 3.93399-2.63837 4 0-.07341 2.63834-3.9345 2.6351-4 0z" fill="#e6f3ff" fill-opacity="1" data-original-color="#e6f3ffff" stroke="none" stroke-opacity="1"/><path d="m14.9953 33.99976c.05971-2.63883 3.93399-2.63837 4 0-.07341 2.63834-3.9345 2.6351-4 0zm0-8c.06571-2.63715 3.92801-2.63663 4 0-.07341 2.63834-3.9345 2.6351-4 0z" fill="#e6f3ff" fill-opacity="1" data-original-color="#e6f3ffff" stroke="none" stroke-opacity="1"/><path d="m18.06668 17.49977c3.92857 1.64894 3.92857 5.5 3.92857 5.5s0-3.85107 3.92857-5.5c-3.92857-1.64894-3.92857-5.5-3.92857-5.5s0 3.85107-3.92857 5.5z" fill="#e6f3ff" fill-opacity="1" data-original-color="#e6f3ffff" stroke="none" stroke-opacity="1"/><path d="m3.55963 47.99976c3.92857 1.64894 3.92857 5.5 3.92857 5.5s0-3.85106 3.92857-5.5c-3.92857-1.64894-3.92857-5.5-3.92857-5.5s0 3.85106-3.92857 5.5z" fill="#4aa5ff" fill-opacity="1" data-original-color="#4aa5ffff" stroke="none" stroke-opacity="1"/><path d="m50.01653 50.99976c3.92857 1.64894 3.92857 5.5 3.92857 5.5s0-3.85106 3.92857-5.5c-3.92857-1.64894-3.92857-5.5-3.92857-5.5s0 3.85106-3.92857 5.5z" fill="#4aa5ff" fill-opacity="1" data-original-color="#4aa5ffff" stroke="none" stroke-opacity="1"/></g></svg>