<svg clip-rule="evenodd" fill-rule="evenodd" height="300" image-rendering="optimizeQuality" shape-rendering="geometricPrecision" text-rendering="geometricPrecision" viewBox="0 0 6.82666 6.82666" width="300" xmlns="http://www.w3.org/2000/svg" version="1.1" xmlns:xlink="http://www.w3.org/1999/xlink" xmlns:svgjs="http://svgjs.dev/svgjs"><g width="100%" height="100%" transform="matrix(1,0,0,1,0,0)"><g id="Layer_x0020_1"><circle cx="3.413" cy="3.413" fill="#00487c" r="3.333" fill-opacity="1" data-original-color="#cc3366ff" stroke="none" stroke-opacity="1"/><g id="_350001496" fill="#fefefe"><path id="_350002336" d="m2.55996 1.33704c-.108524 0-.196929.0883228-.196929.196882l.00001181 3.75883c0 .108551.0883819.19689.196913.19689l1.70685-.00001575c.108535 0 .196823-.0883071.196823-.19687l.00000787-3.75885c0-.108551-.0883031-.19687-.196835-.19687l-1.70684-.00000394zm1.70685 4.26688h-1.70685c-.171528 0-.311213-.139583-.311213-.311157l.00000787-3.75885c0-.171583.139673-.31115.311201-.31115l1.70685-.00001181c.171524 0 .31111.139598.31111.311169l.00000394 3.75883c0 .171563-.139591.311173-.311114.311161z" fill="#fefefe" fill-opacity="1" data-original-color="#fefefeff" stroke="none" stroke-opacity="1" style=""/><path id="_350002888" d="m3.94062 1.59107h-1.05457c-.101484 0-.184134-.0825945-.184134-.184146l.00000394-.127035c0-.031563.0255945-.0571339.0571417-.0571339.0315551-.00001181.0571417.0255787.0571417.0571378l.00000394.127028c0 .0385236.0313465.0698898.0698346.0698898l1.05457-.00000394c.0385827 0 .0699331-.0313504.0699331-.0698819v-.127035c0-.031563.0255945-.0571339.0571417-.0571339.0315512-.00001181.0571417.0255787.0571417.0571378v.127028c0 .101539-.0826378.184169-.184217.18415z" fill="#fefefe" fill-opacity="1" data-original-color="#fefefeff" stroke="none" stroke-opacity="1" style=""/><path id="_350002600" d="m4.52078 5.04438h-2.21488c-.0315472 0-.0571496-.0255748-.0571496-.0571457.00000787-.031563.0255945-.0571299.0571417-.0571299l2.21489-.00001181c.0315472 0 .0571378.0255866.0571378.0571417.00000394.0315669-.0255984.0571457-.0571378.0571457z" fill="#fefefe" fill-opacity="1" data-original-color="#fefefeff" stroke="none" stroke-opacity="1" style=""/><path id="_350002216" d="m3.88466 5.32414h-.872421c-.0315394 0-.0571417-.0255709-.0571417-.057126 0-.0315591.0255906-.0571457.0571417-.0571457l.872421-.00001575c.0315512 0 .0571417.0256024.0571417.0571614.00000394.0315433-.0255984.0571417-.0571417.057126z" fill="#fefefe" fill-opacity="1" data-original-color="#fefefeff" stroke="none" stroke-opacity="1" style=""/><path id="_350002552" d="m3.14667 3.22829.214587.37176.799201-.0458661-.5745-.995071-.439287.669177zm.182732.487969c-.0203346 0-.0392835-.0108228-.0495039-.0285591l-.249791-.43276c-.010811-.0187047-.0101299-.0418661.00167717-.0599213l.464394-.707421c.0192441-.0319646.0527677-.0509646.0901693-.0509646.0381024-.00001968.0722244.019685.0912677.0526496l.589193 1.02046c.0189488.0329685.0189449.0723425-.00000394.105319-.0180472.0312008-.0500984.0503858-.0879921.0525512l-.846126.0485591c-.00109449.00006693-.00218898.00010236-.00328346.00009055z" fill="#fefefe" fill-opacity="1" data-original-color="#fefefeff" stroke="none" stroke-opacity="1" style=""/><path id="_350002864" d="m2.84904 3.95346c-.0303583 0-.060815-.00437008-.0902795-.0132283-.0772756-.0232205-.138988-.0743465-.173811-.143961-.0774724-.155154-.0284685-.33413.113992-.416358l.352087-.203039c.0272835-.0157795.0621969-.00638583.0779724.0209449.0157756.0273386.00644882.0622835-.0209331.0780551l-.351984.203031c-.089378.0515433-.118953.166028-.0688504.266244.0205354.0411457.0576378.0715669.104366.0856339.0525866.0157795.109921.00917717.15724-.018122l.351984-.203039c.0273898-.0157795.0623031-.00638976.0780748.0209449.0157795.027311.00635039.0622835-.0209291.0780433l-.351988.203043c-.0479134.0276339-.102283.041811-.156941.0418071z" fill="#fefefe" fill-opacity="1" data-original-color="#fefefeff" stroke="none" stroke-opacity="1" style=""/><path id="_350001616" d="m3.29091 4.39003c-.00495276 0-.00992126-.00062598-.0147795-.0019252-.0146811-.00394488-.0271811-.0135039-.0347244-.0266299l-.282236-.488811c-.0157717-.0273228-.00635433-.0622677.0209291-.0780472.0272874-.015815.0623031-.0064252.0780748.0209173l.253677.439295.112098-.0647559-.253571-.439217c-.0157717-.0273465-.00635039-.0622795.0209291-.0780512.0272835-.0157874.0623031-.00642913.0780748.0209134l.282146.488701c.0157795.0273189.00644882.0622795-.0209331.0780669l-.211114.12189c-.00882677.00506299-.0186496.00766929-.0285709.00765354z" fill="#fefefe" fill-opacity="1" data-original-color="#fefefeff" stroke="none" stroke-opacity="1" style=""/><path id="_350002096" d="m4.06343 3.32885c-.0198425 0-.0389882-.010252-.0496063-.0285827-.0157717-.0273346-.00634646-.0622835.0209331-.0780591.0529803-.0306142.0944449-.0829331.113689-.14361.0194488-.0612441.0142874-.12252-.0146811-.172594-.0288622-.0500787-.0793622-.0852323-.142063-.099-.0622008-.0136693-.128276-.00392126-.181248.026685-.0273819.0157598-.0623031.00640945-.0780748-.0209213-.0157677-.0273346-.00645276-.0622756.0209291-.0780591.168161-.0970669.387697-.0447953.479465.114161.0451457.0782126.0539685.172114.0246024.264331-.0277717.0875-.0880945.163319-.165472.20798-.00902756.00518898-.0188504.00766929-.0284724.00766929z" fill="#fefefe" fill-opacity="1" data-original-color="#fefefeff" stroke="none" stroke-opacity="1" style=""/></g></g></g></svg>