<svg id="Layer_1" enable-background="new 0 0 256 256" viewBox="0 0 256 256" xmlns="http://www.w3.org/2000/svg"><g><g><path d="m171.611 208.958h33.557v39.042h-33.557z" fill="#ffeacf"/></g><g><path d="m171.611 208.958h14.884v39.042h-14.884z" fill="#ffd59a"/></g><g><path d="m185.43 230.159h-1.587c-22.517 0-40.77-18.253-40.77-40.77v-22.339c0-22.517 18.253-40.77 40.77-40.77h1.587c22.517 0 40.77 18.253 40.77 40.77v22.338c0 22.517-18.254 40.771-40.77 40.771z" fill="#ffeacf"/></g><g><path d="m147.464 169.151-15.023 18.045c-.63.757-.975 1.709-.975 2.693v.353c0 2.33 1.896 4.218 4.235 4.218h11.763z" fill="#ffd59a"/></g><g><path d="m157.956 188.758v-21.077c0-20.335 14.718-37.244 34.122-40.738-2.415-.435-4.901-.663-7.442-.663-22.955 0-41.564 18.536-41.564 41.401v21.077c0 22.865 18.609 41.401 41.564 41.401 2.54 0 5.027-.228 7.442-.663-19.404-3.494-34.122-20.404-34.122-40.738z" fill="#ffd59a"/></g><g><path d="m213.097 154.655h-63.566c-9.968 0-18.049-8.081-18.049-18.05v-11.248c0-2.279 1.847-4.126 4.126-4.126h67.176c11.393 0 20.628 9.235 20.628 20.628v2.481c-.001 5.697-4.618 10.315-10.315 10.315z" fill="#a56021"/></g><g><path d="m200.104 198.644v-46.082c0-5.696 4.618-10.314 10.314-10.314h12.927c5.696 0 10.314 4.618 10.314 10.314v46.082c0 5.696-4.618 10.314-10.314 10.314h-12.927c-5.697 0-10.314-4.618-10.314-10.314z" fill="#a56021"/></g><g><path d="m225.658 201.644c-1.657 0-3-1.343-3-3v-31.594c0-1.657 1.343-3 3-3s3 1.343 3 3v31.594c0 1.656-1.343 3-3 3z" fill="#bf6c0d"/></g><g><ellipse cx="200.104" cy="178.219" fill="#ffeacf" rx="15.179" ry="15.12"/></g><g><path d="m48.149 95.726h33.557v39.042h-33.557z" fill="#ffeacf" transform="matrix(-1 0 0 -1 129.855 230.495)"/></g><g><path d="m66.822 95.726h14.884v39.042h-14.884z" fill="#ffd59a"/></g><g><path d="m67.887 116.927h1.587c22.517 0 40.77-18.253 40.77-40.77v-22.339c0-22.517-18.253-40.77-40.77-40.77h-1.587c-22.517 0-40.77 18.253-40.77 40.77v22.338c0 22.517 18.253 40.771 40.77 40.771z" fill="#ffeacf"/></g><g><path d="m105.853 55.919 15.023 18.045c.63.757.975 1.709.975 2.693v.353c0 2.33-1.896 4.218-4.235 4.218h-11.763z" fill="#ffd59a"/></g><g><path d="m95.361 75.526v-21.077c0-20.335-14.718-37.244-34.122-40.738 2.415-.435 4.901-.663 7.442-.663 22.955 0 41.564 18.536 41.564 41.401v21.077c0 22.865-18.609 41.401-41.564 41.401-2.54 0-5.027-.228-7.442-.663 19.404-3.494 34.122-20.403 34.122-40.738z" fill="#ffd59a"/></g><g><path d="m53.213 85.412v-46.082c0-5.696-4.618-10.314-10.314-10.314h-12.927c-5.696 0-10.314 4.618-10.314 10.314v46.082c0 5.696 4.618 10.314 10.314 10.314h12.927c5.696 0 10.314-4.618 10.314-10.314z" fill="#a56021"/></g><g><path d="m224.243 16.786h-73.335c-6.756 0-12.232 5.477-12.232 12.232v36.735c0 6.756 5.477 12.232 12.232 12.232h4.57c.966 9.417-5.174 15.208-9.743 18.164-1.335.864-.768 2.932.821 3 20.257.876 26.871-13.016 29.005-21.164h48.682c6.756 0 12.232-5.477 12.232-12.232v-36.734c0-6.756-5.477-12.233-12.232-12.233z" fill="#ffd551"/></g><g><path d="m172.278 77.986h-4.57c-6.756 0-12.232-5.477-12.232-12.232v-36.735c0-6.756 5.477-12.232 12.232-12.232h-16.8c-6.756 0-12.232 5.477-12.232 12.232v36.735c0 6.756 5.477 12.232 12.232 12.232h4.57c.966 9.417-5.174 15.208-9.743 18.164-1.335.864-.768 2.932.821 3 8.188.354 14.146-1.706 18.481-4.824 4.002-3.277 8.038-8.575 7.241-16.34z" fill="#ffc34c"/></g><g><path d="m172.278 77.986h-4.57c-6.756 0-12.232-5.477-12.232-12.232v-36.735c0-6.756 5.477-12.232 12.232-12.232h-16.8c-6.756 0-12.232 5.477-12.232 12.232v36.735c0 6.756 5.477 12.232 12.232 12.232h4.57c.966 9.417-5.174 15.208-9.743 18.164-1.335.864-.768 2.932.821 3 8.188.354 14.146-1.706 18.481-4.824 4.002-3.277 8.038-8.575 7.241-16.34z" fill="#ffc34c"/></g><g><path d="m172.278 77.986h-4.57c-6.756 0-12.232-5.477-12.232-12.232v-36.735c0-6.756 5.477-12.232 12.232-12.232h-16.8c-6.756 0-12.232 5.477-12.232 12.232v36.735c0 6.756 5.477 12.232 12.232 12.232h4.57c.966 9.417-5.174 15.208-9.743 18.164-1.335.864-.768 2.932.821 3 8.188.354 14.146-1.706 18.481-4.824 4.002-3.277 8.038-8.575 7.241-16.34z" fill="#ffc34c"/></g><g><g><path d="m226.575 50.458h-78c-1.325 0-2.4-1.075-2.4-2.4s1.075-2.4 2.4-2.4h78c1.325 0 2.4 1.075 2.4 2.4s-1.075 2.4-2.4 2.4z" fill="#a56021"/></g></g><g><g><path d="m226.575 37.258h-78c-1.325 0-2.4-1.075-2.4-2.4s1.075-2.4 2.4-2.4h78c1.325 0 2.4 1.075 2.4 2.4 0 1.326-1.075 2.4-2.4 2.4z" fill="#a56021"/></g></g><g><path d="m148.575 45.658c-1.325 0-2.4 1.075-2.4 2.4s1.075 2.4 2.4 2.4h6.9v-4.8z" fill="#8c4c17"/></g><g><path d="m148.575 32.458c-1.325 0-2.4 1.075-2.4 2.4s1.075 2.4 2.4 2.4h6.9v-4.8z" fill="#8c4c17"/></g><g><g><path d="m105.092 142.858h-73.335c-6.756 0-12.232 5.477-12.232 12.232v36.735c0 6.756 5.477 12.232 12.232 12.232h48.682c2.134 8.148 8.749 22.04 29.005 21.164 1.589-.069 2.156-2.137.821-3-4.569-2.956-10.709-8.747-9.743-18.164h4.57c6.756 0 12.233-5.477 12.233-12.232v-36.735c0-6.756-5.477-12.232-12.233-12.232z" fill="#ffa730"/></g><g><g><path d="m36.325 191.825v-36.735c0-6.756 5.477-12.232 12.232-12.232h-16.8c-6.756 0-12.232 5.477-12.232 12.232v36.735c0 6.756 5.477 12.232 12.232 12.232h16.8c-6.755.001-12.232-5.476-12.232-12.232z" fill="#e58d23"/></g></g><g><g><path d="m107.425 163.33h-78c-1.325 0-2.4-1.075-2.4-2.4s1.075-2.4 2.4-2.4h78c1.325 0 2.4 1.075 2.4 2.4s-1.075 2.4-2.4 2.4z" fill="#a56021"/></g></g><g><g><path d="m107.425 176.53h-78c-1.325 0-2.4-1.075-2.4-2.4s1.075-2.4 2.4-2.4h78c1.325 0 2.4 1.075 2.4 2.4s-1.075 2.4-2.4 2.4z" fill="#a56021"/></g></g><g><g><path d="m78.745 190.162h-49.2c-1.325 0-2.4-1.075-2.4-2.4s1.075-2.4 2.4-2.4h49.2c1.325 0 2.4 1.075 2.4 2.4s-1.075 2.4-2.4 2.4z" fill="#a56021"/></g></g><g><path d="m29.545 185.362c-1.325 0-2.4 1.075-2.4 2.4s1.075 2.4 2.4 2.4h6.78v-4.8z" fill="#8c4c17"/></g><g><path d="m29.425 171.73c-1.325 0-2.4 1.075-2.4 2.4s1.075 2.4 2.4 2.4h6.9v-4.8z" fill="#8c4c17"/></g><g><path d="m29.425 158.53c-1.325 0-2.4 1.075-2.4 2.4s1.075 2.4 2.4 2.4h6.9v-4.8z" fill="#8c4c17"/></g></g><g><circle cx="86.587" cy="60.431" fill="#a56021" r="5"/></g><g><circle cx="165.773" cy="173.154" fill="#a56021" r="5"/></g><g><circle cx="167.389" cy="142.248" fill="#8c4c17" r="9"/></g><g><path d="m151.482 136.605v-11.248c0-2.279 1.847-4.126 4.126-4.126h-20c-2.279 0-4.126 1.847-4.126 4.126v11.248c0 9.968 8.081 18.049 18.049 18.049h20c-9.968.001-18.049-8.08-18.049-18.049z" fill="#8c4c17"/></g><g><path d="m39.658 85.412v-46.082c0-4.452 2.826-8.233 6.777-9.678-1.105-.404-2.292-.636-3.537-.636h-12.926c-5.696 0-10.314 4.618-10.314 10.314v46.082c0 5.696 4.618 10.314 10.314 10.314h12.927c1.244 0 2.432-.231 3.537-.635-3.952-1.445-6.778-5.227-6.778-9.679z" fill="#8c4c17"/></g><g><path d="m40.219 41.423h63.273c8.544 0 15.471-6.927 15.471-15.471v-2.513c0-8.527-6.912-15.439-15.439-15.439h-52.991c-11.393 0-20.628 9.235-20.628 20.628v2.481c0 5.697 4.618 10.314 10.314 10.314z" fill="#a56021"/></g><g><path d="m103.492 36.424c-1.657 0-3-1.343-3-3s1.343-3 3-3c2.465 0 4.471-2.006 4.471-4.472 0-1.657 1.343-3 3-3s3 1.343 3 3c.001 5.774-4.697 10.472-10.471 10.472z" fill="#bf6c0d"/></g><g><circle cx="65.239" cy="23.291" fill="#8c4c17" r="9"/></g><g><path d="m49.905 31.109v-2.481c0-11.393 9.236-20.628 20.628-20.628h-20c-11.393 0-20.628 9.235-20.628 20.628v2.481c0 5.696 4.618 10.314 10.314 10.314h20c-5.696 0-10.314-4.617-10.314-10.314z" fill="#8c4c17"/></g><g><ellipse cx="53.213" cy="64.987" fill="#ffeacf" rx="15.179" ry="15.12"/></g><g><g><path d="m226.575 63.521h-49.2c-1.325 0-2.4-1.075-2.4-2.4s1.075-2.4 2.4-2.4h49.2c1.325 0 2.4 1.075 2.4 2.4s-1.075 2.4-2.4 2.4z" fill="#a56021"/></g></g></g></svg>