<svg id="FILLED_COLOR" viewBox="0 0 128 128" xmlns="http://www.w3.org/2000/svg" data-name="FILLED COLOR"><path d="m50.84 103.35h26.44v17.81h-26.44z" fill="#6288cc"/><rect fill="#a8b7ee" height="73.78" rx="5.59" width="113.39" x="7.3" y="32.88"/><path d="m120.7 38.47v53.21h-113.4v-53.21a5.59 5.59 0 0 1 5.59-5.59h102.22a5.59 5.59 0 0 1 5.59 5.59z" fill="#3b579f"/><circle cx="44.07" cy="24.65" fill="#fa77c8" r="17.34"/><circle cx="84.03" cy="24.65" fill="#6288cc" r="17.34"/><path d="m77.16 63.52v19.39h-7.07l-4.82 3.9a.79.79 0 0 1 -1.27-.67v-3.23h-13.16v-19.39z" fill="#ffdc41"/><circle cx="24.6" cy="60.48" fill="#49b2f7" r="17.34"/><path d="m31.72 54.67 2.94-.5a.62.62 0 0 1 .68.86l-1.81 3.13s1.66 15.62-18.1 10.2c2.57-.33 5-2.85 5.84-4.27-1.71-.15-7.43-2.7-4.81-11.13 1.54 2.27 6.54 5.76 8.14 5.21a3.86 3.86 0 0 1 2.18-4.51 4.09 4.09 0 0 1 4.94 1.01z" fill="#dbdfee"/><circle cx="103.4" cy="60.48" fill="#e10459" r="17.34"/><path d="m96.31 55.56v9.83a2.66 2.66 0 0 0 4 2.33l8.85-4.91a2.67 2.67 0 0 0 0-4.67l-8.85-4.91a2.66 2.66 0 0 0 -4 2.33z" fill="#dbdfee"/><path d="m102.55 93.18a1.5 1.5 0 1 0 0-3h-12.55a1.5 1.5 0 1 0 0 3z"/><path d="m68.79 100.87a1.5 1.5 0 1 0 0-3h-9.58a1.5 1.5 0 0 0 0 3z"/><path d="m38.73 34.44h10.67a4.46 4.46 0 0 0 4.46-4.44v-10.68a4.47 4.47 0 0 0 -4.46-4.47h-10.67a4.47 4.47 0 0 0 -4.46 4.47v10.68a4.46 4.46 0 0 0 4.46 4.44zm-1.46-15.12a1.47 1.47 0 0 1 1.46-1.47h10.67a1.47 1.47 0 0 1 1.46 1.47v10.68a1.46 1.46 0 0 1 -1.46 1.46h-10.67a1.46 1.46 0 0 1 -1.46-1.46z"/><path d="m44.07 29.48a4.84 4.84 0 1 0 -4.84-4.83 4.84 4.84 0 0 0 4.84 4.83zm0-6.67a1.84 1.84 0 1 1 -1.84 1.84 1.83 1.83 0 0 1 1.84-1.84z"/><path d="m79.49 25.11h1.81v8.16a1.5 1.5 0 0 0 3 0v-8.16h1.81a1.5 1.5 0 0 0 0-3h-1.81v-3a1.63 1.63 0 0 1 1.63-1.63h2.64a1.5 1.5 0 0 0 0-3h-2.64a4.64 4.64 0 0 0 -4.63 4.63v3h-1.81a1.5 1.5 0 0 0 0 3z"/><path d="m57.91 71.76h1.65a1.5 1.5 0 0 0 0-3h-1.65a1.5 1.5 0 0 0 0 3z"/><path d="m62.45 70.26a1.5 1.5 0 0 0 1.5 1.5h6.14a1.5 1.5 0 0 0 0-3h-6.09a1.5 1.5 0 0 0 -1.55 1.5z"/><path d="m70.09 75.14h-1.65a1.5 1.5 0 0 0 0 3h1.65a1.5 1.5 0 0 0 0-3z"/><path d="m64.05 75.14h-6.14a1.5 1.5 0 0 0 0 3h6.14a1.5 1.5 0 0 0 0-3z"/><path d="m34.41 52.69-2.18.37a5.55 5.55 0 0 0 -6.09-.76 5.19 5.19 0 0 0 -3.14 4.06 15.87 15.87 0 0 1 -5.33-4.23 1.5 1.5 0 0 0 -2.69.38c-1.49 4.81-.44 7.87.71 9.59a8.17 8.17 0 0 0 3.05 2.72 6.72 6.72 0 0 1 -3.54 2.05 1.5 1.5 0 0 0 -.2 2.94 30.33 30.33 0 0 0 7.87 1.19 12.49 12.49 0 0 0 8.34-2.66c3.77-3.21 3.91-8.2 3.84-9.82l1.59-2.74a1 1 0 0 0 .07-.15 2.11 2.11 0 0 0 -.28-2.17 2.08 2.08 0 0 0 -2.02-.77zm-2.18 4.71a1.56 1.56 0 0 0 -.2.92s.49 5-2.76 7.73c-2.05 1.74-5.18 2.32-9.31 1.74a11.37 11.37 0 0 0 2.61-3 1.5 1.5 0 0 0 -1.17-2.19 5 5 0 0 1 -3.17-2.17 6.48 6.48 0 0 1 -.91-4.36c2.33 2.06 5.77 4.19 7.76 3.53a1.54 1.54 0 0 0 1-1.82 2.33 2.33 0 0 1 1.34-2.78 2.56 2.56 0 0 1 3.15.62 1.51 1.51 0 0 0 1.41.52l1.08-.14z"/><path d="m122.24 60.48c0-.3 0-.58 0-.87v-21.14a7.1 7.1 0 0 0 -7.09-7.09h-13.52a19.06 19.06 0 0 0 1.24-6.73 18.85 18.85 0 1 0 -37.69 0 19.06 19.06 0 0 0 1.24 6.73h-4.75a19.06 19.06 0 0 0 1.24-6.73 18.85 18.85 0 1 0 -37.69 0 19.06 19.06 0 0 0 1.24 6.73h-13.57a7.1 7.1 0 0 0 -7.09 7.09v62.6a7.1 7.1 0 0 0 7.09 7.09h7.36a1.5 1.5 0 0 0 0-3h-7.36a4.09 4.09 0 0 1 -4.09-4.09v-7.89h71.36a1.5 1.5 0 0 0 0-3h-71.36v-19.47a18.83 18.83 0 0 0 34.64-10.23c0-.54 0-1.08-.08-1.6h19.15v3.14h-11.67a1.5 1.5 0 0 0 -1.5 1.5v19.39a1.5 1.5 0 0 0 1.5 1.5h11.66v1.73a2.33 2.33 0 0 0 1.32 2.12 2.24 2.24 0 0 0 2.39-.26l4.41-3.56h6.54a1.5 1.5 0 0 0 1.5-1.5v-19.42a1.5 1.5 0 0 0 -1.5-1.5h-11.61v-3.14h19.09c0 .52-.08 1.06-.08 1.6a18.83 18.83 0 0 0 34.64 10.23v19.47h-6.78a1.5 1.5 0 0 0 0 3h6.78v7.89a4.09 4.09 0 0 1 -4.09 4.09h-85.11a1.5 1.5 0 0 0 0 3h19.34v11.5h-8.09a1.5 1.5 0 0 0 0 3h45.62a1.5 1.5 0 0 0 0-3h-8.09v-11.5h36.33a7.1 7.1 0 0 0 7.09-7.09v-39.73c.01-.29.04-.57.04-.86zm-46.58 20.93h-5.57a1.54 1.54 0 0 0 -.94.33l-3.65 3v-1.83a1.5 1.5 0 0 0 -1.5-1.5h-11.66v-16.41h23.32zm.12 38.25h-23.44v-11.5h23.44zm8.22-110.86a15.86 15.86 0 1 1 -15.82 15.85 15.87 15.87 0 0 1 15.82-15.85zm-23.8 25.58h7.69a18.89 18.89 0 0 0 7.11 6.78l-11 13.84-11-13.77a18.71 18.71 0 0 0 7.2-6.85zm-16.13-25.58a15.86 15.86 0 1 1 -15.85 15.85 15.87 15.87 0 0 1 15.85-15.85zm-19.47 67.52a15.85 15.85 0 0 1 -15.8-15v-1.71a15.83 15.83 0 1 1 15.8 16.71zm0-34.69a18.83 18.83 0 0 0 -15.8 8.61v-11.77a4.09 4.09 0 0 1 4.09-4.09h15a18.86 18.86 0 0 0 22.29 8.08l10.71 13.42h-18a18.86 18.86 0 0 0 -18.29-14.25zm42.51 14.25 10.69-13.45a18.84 18.84 0 0 0 22.36-8h15a4.09 4.09 0 0 1 4.09 4.09v11.72a18.81 18.81 0 0 0 -34 5.64zm36.29 20.44a15.85 15.85 0 1 1 15.8-16.71v1.73a15.85 15.85 0 0 1 -15.8 14.98z"/><path d="m109.85 56.83-8.85-4.91a4.16 4.16 0 0 0 -6.19 3.64v9.83a4.16 4.16 0 0 0 6.19 3.61l8.85-4.91a4.17 4.17 0 0 0 0-7.29zm-1.46 4.67-8.85 4.91a1.17 1.17 0 0 1 -1.73-1v-9.85a1.16 1.16 0 0 1 1.73-1l8.85 4.92a1.17 1.17 0 0 1 0 2.02z"/></svg>