<?xml version="1.0" encoding="UTF-8" standalone="no"?>
<!-- Created with Inkscape (http://www.inkscape.org/) -->

<svg
   version="1.1"
   id="svg519"
   xml:space="preserve"
   width="682.66669"
   height="682.66669"
   viewBox="0 0 682.66669 682.66669"
   xmlns="http://www.w3.org/2000/svg"
   xmlns:svg="http://www.w3.org/2000/svg"><defs
     id="defs523"><clipPath
       clipPathUnits="userSpaceOnUse"
       id="clipPath533"><path
         d="M 0,512 H 512 V 0 H 0 Z"
         id="path531" /></clipPath></defs><g
     id="g525"
     transform="matrix(1.3333333,0,0,-1.3333333,0,682.66667)"><g
       id="g527"><g
         id="g529"
         clip-path="url(#clipPath533)"><g
           id="g535"
           transform="translate(396,10)"><path
             d="m 0,0 h -280 c -22.091,0 -40,17.909 -40,40 v 412 c 0,22.091 17.909,40 40,40 H 0 c 22.091,0 40,-17.909 40,-40 V 40 C 40,17.909 22.091,0 0,0"
             style="fill:#e1e3e9;fill-opacity:1;fill-rule:nonzero;stroke:none"
             id="path537" /></g><g
           id="g539"
           transform="translate(76,301)"><path
             d="m 0,0 v 161 c 0,22.091 17.909,40 40,40 h 280 c 22.091,0 40,-17.909 40,-40 v -412 c 0,-22.091 -17.909,-40 -40,-40 H 40 c -22.091,0 -40,17.909 -40,40 v 161"
             style="fill:none;stroke:#000000;stroke-width:20;stroke-linecap:round;stroke-linejoin:round;stroke-miterlimit:10;stroke-dasharray:none;stroke-opacity:1"
             id="path541" /></g><path
           d="M 396,74.914 H 116 V 438 h 280 z"
           style="fill:#f5737f;fill-opacity:1;fill-rule:nonzero;stroke:#000000;stroke-width:20;stroke-linecap:round;stroke-linejoin:round;stroke-miterlimit:10;stroke-dasharray:none;stroke-opacity:1"
           id="path543" /><g
           id="g545"
           transform="translate(210.3769,470)"><path
             d="M 0,0 H 91.246"
             style="fill:none;stroke:#000000;stroke-width:20;stroke-linecap:round;stroke-linejoin:round;stroke-miterlimit:10;stroke-dasharray:none;stroke-opacity:1"
             id="path547" /></g><g
           id="g549"
           transform="translate(256,42.457)"><path
             d="M 0,0 V 0"
             style="fill:none;stroke:#000000;stroke-width:20;stroke-linecap:round;stroke-linejoin:round;stroke-miterlimit:10;stroke-dasharray:none;stroke-opacity:1"
             id="path551" /></g><g
           id="g553"
           transform="translate(335.9643,259)"><path
             d="m 0,0 v 0 c -12.15,0 -22,9.85 -22,22 v 0 c 0,12.15 9.85,22 22,22 h 22"
             style="fill:none;stroke:#000000;stroke-width:20;stroke-linecap:round;stroke-linejoin:round;stroke-miterlimit:10;stroke-dasharray:none;stroke-opacity:1"
             id="path555" /></g><g
           id="g557"
           transform="translate(335.9643,259)"><path
             d="m 0,0 v 0 c 12.15,0 22,-9.85 22,-22 v 0 C 22,-34.15 12.15,-44 0,-44 h -22"
             style="fill:none;stroke:#000000;stroke-width:20;stroke-linecap:round;stroke-linejoin:round;stroke-miterlimit:10;stroke-dasharray:none;stroke-opacity:1"
             id="path559" /></g><g
           id="g561"
           transform="translate(176.0356,259)"><path
             d="m 0,0 v 0 c -12.15,0 -22,9.85 -22,22 v 0 c 0,12.15 9.85,22 22,22 h 22"
             style="fill:none;stroke:#000000;stroke-width:20;stroke-linecap:round;stroke-linejoin:round;stroke-miterlimit:10;stroke-dasharray:none;stroke-opacity:1"
             id="path563" /></g><g
           id="g565"
           transform="translate(176.0356,259)"><path
             d="m 0,0 v 0 c 12.15,0 22,-9.85 22,-22 v 0 C 22,-34.15 12.15,-44 0,-44 h -22"
             style="fill:none;stroke:#000000;stroke-width:20;stroke-linecap:round;stroke-linejoin:round;stroke-miterlimit:10;stroke-dasharray:none;stroke-opacity:1"
             id="path567" /></g><g
           id="g569"
           transform="translate(256,303)"><path
             d="m 0,0 v 0 c -12.15,0 -22,-9.85 -22,-22 v -44 c 0,-12.15 9.85,-22 22,-22 v 0 c 12.15,0 22,9.85 22,22 v 44 C 22,-9.85 12.15,0 0,0 Z"
             style="fill:none;stroke:#000000;stroke-width:20;stroke-linecap:round;stroke-linejoin:round;stroke-miterlimit:10;stroke-dasharray:none;stroke-opacity:1"
             id="path571" /></g><g
           id="g573"
           transform="translate(76,256)"><path
             d="M 0,0 V 0"
             style="fill:none;stroke:#000000;stroke-width:20;stroke-linecap:round;stroke-linejoin:round;stroke-miterlimit:10;stroke-dasharray:none;stroke-opacity:1"
             id="path575" /></g></g></g></g></svg>
