<svg version="1.1" id="Capa_1" xmlns="http://www.w3.org/2000/svg" xmlns:xlink="http://www.w3.org/1999/xlink" x="0px" y="0px" viewBox="0 0 512 512" style="enable-background:new 0 0 512 512;" xml:space="preserve">
<g>
	<g>
		<path style="fill:#D2DCFD;" d="M480.124,169.25h-12.37c-7.384,0-13.929-4.749-16.22-11.768&#10;&#9;&#9;&#9;c-2.544-7.795-5.673-15.326-9.336-22.539c-3.349-6.593-2.094-14.586,3.135-19.815l8.748-8.749c6.668-6.668,6.668-17.48,0-24.148&#10;&#9;&#9;&#9;l-29.114-29.114c-6.668-6.668-17.48-6.668-24.148,0l-8.749,8.748c-5.229,5.229-13.222,6.484-19.815,3.135&#10;&#9;&#9;&#9;c-7.213-3.663-14.744-6.792-22.539-9.336c-7.02-2.291-11.768-8.835-11.768-16.219v-12.37c0-9.43-7.645-17.075-17.075-17.075H279.7&#10;&#9;&#9;&#9;c-9.43,0-17.075,7.645-17.075,17.075v12.37c0,7.384-4.749,13.928-11.768,16.219c-7.795,2.544-15.326,5.673-22.539,9.336&#10;&#9;&#9;&#9;c-6.593,3.349-14.586,2.094-19.815-3.135l-8.748-8.748c-6.668-6.668-17.48-6.668-24.148,0l-29.114,29.114&#10;&#9;&#9;&#9;c-6.668,6.668-6.668,17.48,0,24.148l8.749,8.748c5.229,5.229,6.484,13.222,3.135,19.815c-3.663,7.213-6.792,14.744-9.336,22.539&#10;&#9;&#9;&#9;c-2.291,7.02-8.835,11.768-16.22,11.768h-12.37c-9.43,0-17.075,7.645-17.075,17.075v41.173c0,9.43,7.645,17.075,17.075,17.075&#10;&#9;&#9;&#9;h12.37c7.384,0,13.928,4.749,16.22,11.769c2.544,7.795,5.673,15.326,9.336,22.539c3.349,6.593,2.094,14.586-3.135,19.815&#10;&#9;&#9;&#9;l-8.749,8.748c-6.668,6.668-6.668,17.48,0,24.148l29.114,29.114c6.668,6.668,17.48,6.668,24.148,0l8.748-8.748&#10;&#9;&#9;&#9;c5.229-5.229,13.222-6.484,19.815-3.135c7.213,3.663,14.744,6.792,22.539,9.336c7.02,2.291,11.768,8.835,11.768,16.219v12.37&#10;&#9;&#9;&#9;c0,9.43,7.645,17.075,17.075,17.075h41.173c9.43,0,17.075-7.645,17.075-17.075v-12.37c0-7.384,4.749-13.929,11.768-16.22&#10;&#9;&#9;&#9;c7.795-2.544,15.326-5.673,22.539-9.336c6.593-3.348,14.586-2.094,19.815,3.135l8.749,8.748c6.668,6.668,17.48,6.668,24.148,0&#10;&#9;&#9;&#9;l29.114-29.114c6.668-6.668,6.668-17.48,0-24.148l-8.749-8.749c-5.229-5.229-6.484-13.222-3.135-19.815&#10;&#9;&#9;&#9;c3.663-7.213,6.792-14.744,9.336-22.539c2.291-7.02,8.835-11.768,16.22-11.768h12.37c9.43,0,17.075-7.645,17.075-17.075v-41.173&#10;&#9;&#9;&#9;C497.199,176.895,489.554,169.25,480.124,169.25z M300.287,301.972c-52.5,0-95.06-42.56-95.06-95.06&#10;&#9;&#9;&#9;c0-52.5,42.56-95.06,95.06-95.06s95.06,42.56,95.06,95.06C395.346,259.412,352.787,301.972,300.287,301.972z"/>
		<path style="fill:#93B2F4;" d="M205.227,206.912c0-43.251,28.894-79.733,68.427-91.251H155.732&#10;&#9;&#9;&#9;c4.803,5.228,5.882,12.906,2.643,19.282c-3.663,7.213-6.792,14.744-9.336,22.539c-2.291,7.02-8.835,11.769-16.22,11.769h-12.37&#10;&#9;&#9;&#9;c-9.43,0-17.075,7.645-17.075,17.075v41.173c0,9.43,7.645,17.075,17.075,17.075h12.37c7.384,0,13.928,4.749,16.22,11.769&#10;&#9;&#9;&#9;c2.544,7.795,5.672,15.326,9.336,22.539c3.349,6.593,2.094,14.586-3.135,19.815l-8.748,8.749c-6.668,6.668-6.668,17.48,0,24.148&#10;&#9;&#9;&#9;l29.114,29.114c6.668,6.668,17.48,6.668,24.148,0l8.749-8.748c5.229-5.229,13.222-6.484,19.815-3.135&#10;&#9;&#9;&#9;c7.214,3.664,14.744,6.792,22.539,9.336c3.568,1.164,6.544,3.431,8.614,6.345c-6.76-25.579-10.805-51.905-12-78.549&#10;&#9;&#9;&#9;C221.999,268.903,205.227,239.867,205.227,206.912z"/>
		<path style="fill:#FD8F01;" d="M258.894,440.601H23.285c-4.686,0-8.484,3.799-8.484,8.484v44.431c0,4.686,3.799,8.484,8.484,8.484&#10;&#9;&#9;&#9;h235.609c4.686,0,8.484-3.799,8.484-8.484v-44.431C267.379,444.399,263.58,440.601,258.894,440.601z"/>
		<path style="fill:#FD8F01;" d="M189.322,222.85H92.857c-12.368,0-22.394,10.026-22.394,22.394v0&#10;&#9;&#9;&#9;c0,12.368,10.026,22.394,22.394,22.394h96.465c12.368,0,22.394-10.026,22.394-22.394v0&#10;&#9;&#9;&#9;C211.717,232.877,201.69,222.85,189.322,222.85z"/>
		<path style="fill:#FDCB50;" d="M188.657,274.976v-7.337H93.523v7.337c0,59.193-18.067,116.975-51.786,165.625l0,0h198.707l0,0&#10;&#9;&#9;&#9;C206.724,391.951,188.657,334.168,188.657,274.976z"/>
		<path style="fill:#FDCB50;" d="M214.279,149.882H67.901c-6.733,0-12.19,5.458-12.19,12.19v48.588c0,6.733,5.458,12.19,12.19,12.19&#10;&#9;&#9;&#9;h146.378c6.733,0,12.19-5.458,12.19-12.19v-48.588C226.469,155.339,221.012,149.882,214.279,149.882z"/>
	</g>
	<g>
		<path style="fill:none;stroke:#052A75;stroke-width:20;stroke-linecap:round;stroke-linejoin:round;stroke-miterlimit:10;" d="&#10;&#9;&#9;&#9;M258.894,440.601H23.285c-4.686,0-8.484,3.799-8.484,8.484v44.431c0,4.686,3.799,8.484,8.484,8.484h235.609&#10;&#9;&#9;&#9;c4.686,0,8.484-3.799,8.484-8.484v-44.431C267.379,444.399,263.58,440.601,258.894,440.601z"/>
		<path style="fill:none;stroke:#052A75;stroke-width:20;stroke-linecap:round;stroke-linejoin:round;stroke-miterlimit:10;" d="&#10;&#9;&#9;&#9;M189.322,222.85H92.857c-12.368,0-22.394,10.026-22.394,22.394v0c0,12.368,10.026,22.394,22.394,22.394h96.465&#10;&#9;&#9;&#9;c12.368,0,22.394-10.026,22.394-22.394v0C211.717,232.877,201.69,222.85,189.322,222.85z"/>
		<path style="fill:none;stroke:#052A75;stroke-width:20;stroke-linecap:round;stroke-linejoin:round;stroke-miterlimit:10;" d="&#10;&#9;&#9;&#9;M188.657,274.976v-7.337H93.523v7.337c0,59.193-18.067,116.975-51.786,165.625l0,0h198.707l0,0&#10;&#9;&#9;&#9;C206.724,391.951,188.657,334.168,188.657,274.976z"/>
		<path style="fill:none;stroke:#052A75;stroke-width:20;stroke-linecap:round;stroke-linejoin:round;stroke-miterlimit:10;" d="&#10;&#9;&#9;&#9;M214.279,149.882H67.901c-6.733,0-12.19,5.458-12.19,12.19v48.588c0,6.733,5.458,12.19,12.19,12.19h146.378&#10;&#9;&#9;&#9;c6.733,0,12.19-5.458,12.19-12.19v-48.588C226.469,155.339,221.012,149.882,214.279,149.882z"/>
		
			<line style="fill:none;stroke:#052A75;stroke-width:20;stroke-linecap:round;stroke-linejoin:round;stroke-miterlimit:10;" x1="112.969" y1="149.882" x2="112.969" y2="176.984"/>
		
			<line style="fill:none;stroke:#052A75;stroke-width:20;stroke-linecap:round;stroke-linejoin:round;stroke-miterlimit:10;" x1="169.21" y1="149.882" x2="169.21" y2="176.984"/>
		<path style="fill:none;stroke:#27A2CC;stroke-width:20;stroke-linecap:round;stroke-linejoin:round;stroke-miterlimit:10;" d="&#10;&#9;&#9;&#9;M476.637,416.706c-22.162,20.959-51.269,34.892-84.007,37.832"/>
		
			<polyline style="fill:none;stroke:#27A2CC;stroke-width:20;stroke-linecap:round;stroke-linejoin:round;stroke-miterlimit:10;" points="&#10;&#9;&#9;&#9;399.459,470.612 380.942,455.475 396.078,436.958 &#9;&#9;"/>
		<path style="fill:none;stroke:#052A75;stroke-width:20;stroke-linecap:round;stroke-linejoin:round;stroke-miterlimit:10;" d="&#10;&#9;&#9;&#9;M205.227,355.234l3.275-3.275c5.229-5.229,13.222-6.484,19.815-3.135c7.213,3.663,14.744,6.792,22.539,9.336&#10;&#9;&#9;&#9;c7.02,2.291,11.768,8.835,11.768,16.219v12.37c0,9.43,7.645,17.075,17.075,17.075h41.173c9.43,0,17.075-7.645,17.075-17.075&#10;&#9;&#9;&#9;v-12.37c0-7.384,4.749-13.929,11.768-16.22c7.795-2.544,15.326-5.673,22.539-9.336c6.593-3.348,14.586-2.094,19.815,3.135&#10;&#9;&#9;&#9;l8.749,8.748c6.668,6.668,17.48,6.668,24.148,0l29.114-29.114c6.668-6.668,6.668-17.48,0-24.148l-8.749-8.749&#10;&#9;&#9;&#9;c-5.229-5.229-6.484-13.222-3.135-19.815c3.663-7.213,6.792-14.744,9.336-22.539c2.291-7.02,8.835-11.768,16.22-11.768h12.37&#10;&#9;&#9;&#9;c9.43,0,17.075-7.645,17.075-17.075v-41.173c0-9.43-7.645-17.075-17.075-17.075h-12.37c-7.384,0-13.929-4.749-16.22-11.768&#10;&#9;&#9;&#9;c-2.544-7.795-5.673-15.326-9.336-22.539c-3.349-6.593-2.094-14.586,3.135-19.815l8.748-8.749c6.668-6.668,6.668-17.48,0-24.148&#10;&#9;&#9;&#9;l-29.114-29.114c-6.668-6.668-17.48-6.668-24.148,0l-8.749,8.748c-5.229,5.229-13.222,6.484-19.815,3.135&#10;&#9;&#9;&#9;c-7.213-3.663-14.744-6.792-22.539-9.336c-7.02-2.291-11.768-8.835-11.768-16.219v-12.37c0-9.43-7.645-17.075-17.075-17.075H279.7&#10;&#9;&#9;&#9;c-9.43,0-17.075,7.645-17.075,17.075v12.37c0,7.384-4.749,13.928-11.768,16.219c-7.795,2.544-15.326,5.673-22.539,9.336&#10;&#9;&#9;&#9;c-6.593,3.349-14.586,2.094-19.815-3.135l-8.748-8.748c-6.668-6.668-17.48-6.668-24.148,0l-29.114,29.114&#10;&#9;&#9;&#9;c-6.668,6.668-6.668,17.48,0,24.148l8.749,8.748c5.229,5.229,6.484,13.222,3.135,19.815c-1.723,3.392-3.327,6.854-4.808,10.38&#10;&#9;&#9;&#9; M224.228,149.881c17.343-23.092,44.956-38.029,76.058-38.029c52.5,0,95.06,42.56,95.06,95.06c0,52.5-42.56,95.06-95.06,95.06&#10;&#9;&#9;&#9;c-39.958,0-74.158-24.654-88.218-59.581"/>
	</g>
</g>
<g>
</g>
<g>
</g>
<g>
</g>
<g>
</g>
<g>
</g>
<g>
</g>
<g>
</g>
<g>
</g>
<g>
</g>
<g>
</g>
<g>
</g>
<g>
</g>
<g>
</g>
<g>
</g>
<g>
</g>
</svg>