<svg height="300" viewBox="0 0 32 32" width="300" xmlns="http://www.w3.org/2000/svg" version="1.1" xmlns:xlink="http://www.w3.org/1999/xlink" xmlns:svgjs="http://svgjs.dev/svgjs"><g width="100%" height="100%" transform="matrix(1,0,0,1,0,0)"><g id="target"><circle cx="16" cy="16" fill="#00487c" r="14.5" fill-opacity="1" data-original-color="#0fbcf9ff" stroke="none" stroke-opacity="1"/><path d="m15.5 14.5a1.5 1.5 0 1 1 -1.5 1.5 1.5 1.5 0 0 1 1.5-1.5zm4.472 1a4.5 4.5 0 1 0 0 1h-2.022a2.5 2.5 0 1 1 0-1zm3.011 0a7.5 7.5 0 1 0 0 1h-2.005a5.5 5.5 0 1 1 0-1zm1 1h.307l1.854 1.854a.5.5 0 1 0 .707-.708l-1.644-1.646 1.646-1.646a.5.5 0 0 0 -.707-.708l-1.853 1.854h-.307a8.5 8.5 0 1 0 0 1z" fill="#ffffff" fill-rule="evenodd" fill-opacity="1" data-original-color="#ffffffff" stroke="none" stroke-opacity="1"/></g></g></svg>