<svg id="Capa_1" enable-background="new 0 0 512 512" height="512" viewBox="0 0 512 512" width="512" xmlns="http://www.w3.org/2000/svg"><g><g fill="#e6a373"><path d="m243.893 150-51.204-20.479 18.311-18.31v-51.211l-30 30v8.789l-9.86 9.86-24.329-57.497-27.627 11.69 35.434 83.76 70.434 28.176-.475 5.222h-85.53l-75.205-31.816-11.69 27.627 78.003 34.189h91.71l-1.166 12.653-59.064 17.992-59.156 35.083 18.521 24.272 30-18.323v27.112l-25.605 25.606 21.21 21.21 34.395-34.394v-55.291l36.773-11.077-23.194 257.157h61.421v-362z"/><path d="m294.227 254.843 36.773 11.077v55.291l34.395 34.394 21.21-21.21-25.605-25.606v-27.112l30 18.323 18.521-24.272-59.156-35.083-59.064-17.992-1.15-12.653h88.808l80.757-33.223-11.426-27.744-75.249 30.967h-85.618l-.421-4.645 73.998-25.355 28.418-68.291-26.836-13.418-23.32 58.096-70.63 23.613h-12.632v362h61.421z"/></g><path d="m294.227 254.843 36.773 11.077v55.291l34.395 34.394 21.21-21.21-25.605-25.606v-27.112l30 18.323 18.521-24.272-59.156-35.083-59.064-17.992-1.15-12.653h88.808l80.757-33.223-11.426-27.744-75.249 30.967h-85.618l-.421-4.645 73.998-25.355 28.418-68.291-26.836-13.418-23.32 58.096-70.63 23.613h-12.632v362h61.421z" fill="#cc8552"/><g><path d="m151 90h-30c-33.091 0-60-26.909-60-60v-30h30c33.091 0 60 26.909 60 60z" fill="#a0e65c"/></g><g><path d="m91 180h-30c-33.091 0-61-26.909-61-60v-30h31c33.091 0 60 26.909 60 60z" fill="#a0e65c"/></g><g><g><path d="m391 90h-30v-30c0-33.091 26.909-60 60-60h30v30c0 33.091-26.909 60-60 60z" fill="#79cc52"/></g></g><g><path d="m451 180h-30v-30c0-33.091 26.909-60 60-60h31v30c0 33.091-27.909 60-61 60z" fill="#79cc52"/></g><g><path d="m361 150h-30c-33.091 0-60-26.909-60-60v-30h30c33.091 0 60 26.909 60 60z" fill="#79cc52"/></g><g><path d="m451 420h-30c-33.091 0-60-26.909-60-60v-30h30c33.091 0 60 26.909 60 60z" fill="#79cc52"/></g><g><path d="m421 300h-30v-30c0-33.091 26.909-60 60-60h30v30c0 33.091-26.909 60-60 60z" fill="#79cc52"/></g><g><path d="m61 390c0-33.091 26.909-60 60-60h30v30c0 33.091-26.909 60-60 60h-30z" fill="#a0e65c"/></g><g><path d="m31 240v-30h30c33.091 0 60 26.909 60 60v30h-30c-33.091 0-60-26.909-60-60z" fill="#a0e65c"/></g><path d="m256 0h-15c-33.091 0-60 26.909-60 60v30h30c18.007 0 33.995-8.134 45-20.729 9.219-10.552 15-24.186 15-39.271v-30z" fill="#a0e65c"/><path d="m271 0h-15v69.271c9.219-10.552 15-24.186 15-39.271z" fill="#79cc52"/></g></svg>