<svg id="Layer_1" viewBox="0 0 512 512" xmlns="http://www.w3.org/2000/svg" data-name="Layer 1"><g><path d="m243.612 467.371 3.601 2.778.141-.085-3.316-2.381z" fill="#fff" fill-rule="evenodd"/><path d="m434.611 371.73v-108.454h-57.175l-70.951-10.573c-11.083-1.644-21.231.964-30.161 7.767l-20.636 15.789-71.66 54.737 32.173 37.587 143.802-11.849 29.083 20.92c1.814 1.304 3.231 3.005 4.224 4.847l7.937-5.641c4.904-3.487 10.091-5.131 16.101-5.131h17.263z" fill="#cc9b7a" fill-rule="evenodd"/><path d="m434.611 355.913v-92.636h-57.175l-70.951-10.573c-11.083-1.644-21.231.964-30.161 7.767l-20.636 15.789-63.496 48.472 24.01 28.063 61.03-46.602c10.318-7.88 24.01-8.079 34.554-.51l20.976 15.109 56.324 41.074c1.814 1.332 3.231 2.977 4.224 4.847l7.937-5.641c4.904-3.487 10.091-5.159 16.101-5.159z" fill="#d9a989" fill-rule="evenodd"/><path d="m308.583 317.078 51.42 39.657 29.083 20.92c16.356 11.764-8.164 43.71-22.649 33.279 17.603 12.642-6.917 44.589-22.649 33.25l-7.994-5.754c16.072 11.565-7.427 44.22-23.471 32.655l-6.917-4.961c16.044 11.565-7.427 44.192-23.499 32.627l-29.083-20.92-142.016-100.97c-4.904-3.487-10.091-5.131-16.101-5.131h-17.291v-108.454h57.146l70.611-10.488c11.168-1.672 21.373.992 30.302 7.88l20.183 15.591-34.101 26.079c-18.85 14.4 10.403 52.696 29.254 38.296l19.304-14.74 11.622-8.872c8.05-6.151 18.822-6.123 26.844.057z" fill="#e2b698" fill-rule="evenodd"/><path d="m308.583 317.078 51.42 39.657 29.083 20.92c16.356 11.764-8.164 43.71-22.649 33.279 17.603 12.642-6.917 44.589-22.649 33.25l-7.994-5.754c16.072 11.565-7.427 44.22-23.471 32.655l-6.917-4.961c10.006 7.2 4.649 22.592-4.706 30.387l-18.794-13.55-171.099-121.89c-4.904-3.515-10.091-5.159-16.101-5.159h-17.291v-92.636h57.146l70.611-10.488c11.168-1.672 21.373.992 30.302 7.88l20.183 15.591-34.101 26.079c-18.85 14.4 10.403 52.696 29.254 38.296l19.304-14.74 11.622-8.872c8.05-6.151 18.822-6.123 26.844.057z" fill="#efc9ae" fill-rule="evenodd"/><path d="m258.721 431.966c-2.665-1.927-3.26-5.669-1.332-8.334 1.956-2.665 5.698-3.26 8.362-1.304l64.545 47.14c-5.499 4.224-12.217 5.783-17.972 1.616l-3.487-2.494zm124.894-23.329c-5.244 4.139-11.48 5.896-16.611 2.665l-56.948-41.584c-2.665-1.956-3.26-5.698-1.304-8.362 1.927-2.665 5.669-3.231 8.334-1.304l44.561 32.542 21.969 16.044zm-21.855 33.931c-5.556 4.195-12.331 5.669-17.972 1.616l-4.677-3.345-41.301-30.189-16.583-12.104c-2.665-1.956-3.26-5.669-1.304-8.362 1.927-2.665 5.669-3.231 8.334-1.304l16.583 12.104 56.721 41.443c.057.057.142.085.198.142z" fill="#e2b698"/><g fill-rule="evenodd"><path d="m133.77 424.369 16.725-16.724c14.003-14.003-14.428-42.463-28.432-28.46l-16.724 16.753c-14.4 14.372 14.457 42.406 28.431 28.431z" fill="#d9a989"/><path d="m160.727 454.332 35.688-35.717c14.003-13.975-14.457-42.435-28.46-28.432l-35.688 35.688c-13.975 14.003 14.457 42.435 28.46 28.46z" fill="#d9a989"/><path d="m196.132 475.79 28.715-28.715c14.003-14.003-14.428-42.463-28.432-28.46l-28.743 28.743c-13.975 14.003 14.457 42.435 28.46 28.432z" fill="#d9a989"/><path d="m230.601 498.212 16.725-16.724c14.003-14.003-14.457-42.435-28.432-28.46l-16.753 16.753c-14.003 14.003 14.457 42.435 28.46 28.431z" fill="#d9a989"/><path d="m434.611 371.673v-108.368c0-6.293 5.159-11.48 11.48-11.48h19.616c6.321 0 11.48 5.188 11.48 11.48v108.368c0 6.321-5.159 11.48-11.48 11.48h-19.616c-6.321 0-11.48-5.159-11.48-11.48z" fill="#1b6fab"/><path d="m434.611 355.913v-92.608c0-6.321 5.159-11.48 11.48-11.48h19.616c6.321 0 11.48 5.188 11.48 11.48v92.608c0 6.321-5.159 11.48-11.48 11.48h-19.616c-6.321 0-11.48-5.159-11.48-11.48z" fill="#3589c9"/><path d="m34.813 371.673v-108.368c0-6.293 5.187-11.48 11.48-11.48h19.644c6.293 0 11.48 5.188 11.48 11.48v108.368c0 6.321-5.188 11.48-11.48 11.48h-19.644c-6.293 0-11.48-5.159-11.48-11.48z" fill="#03b1eb"/><path d="m34.813 355.913v-92.608c0-6.293 5.187-11.48 11.48-11.48h19.644c6.293 0 11.48 5.188 11.48 11.48v92.608c-.029 6.321-5.188 11.48-11.48 11.48h-19.644c-6.293 0-11.48-5.159-11.48-11.48z" fill="#11bef7"/><path d="m256 233.881c-31.748-8.532-96.945-34.271-96.945-89.235v-110.012c28.8-15.704 61.824-24.633 96.945-24.633s68.145 8.929 96.945 24.633v110.013c0 54.964-65.169 80.702-96.945 89.235z" fill="#3cb54b"/><path d="m256 200.517c26.135-8.334 64.942-26.759 64.942-55.871v-89.858c-20.551-8.476-42.548-12.784-64.942-12.784s-44.39 4.309-64.942 12.784v89.858c0 29.112 38.806 47.537 64.942 55.871z" fill="#f7b84e"/><path d="m256 200.517c26.135-8.334 64.942-26.759 64.942-55.871v-89.858c-20.551-8.476-42.548-12.784-64.942-12.784-16.072 0-31.918 2.211-47.168 6.605v84.047c0 29.112 21.033 59.528 47.168 67.862z" fill="#ffcb5b"/></g><path d="m284.375 94.331c2.353-2.324 6.151-2.324 8.476 0 2.353 2.353 2.353 6.151 0 8.476l-45.354 45.383c-2.353 2.324-6.151 2.324-8.476 0l-19.871-19.871c-2.324-2.324-2.324-6.123 0-8.476 2.353-2.353 6.151-2.353 8.504 0l15.591 15.619 41.131-41.131z" fill="#3cb54b"/><path d="m86.091 83.361 11.31 22.167 24.577 3.912-17.603 17.575 3.911 24.576-22.195-11.282-22.167 11.282 3.884-24.576-17.575-17.575 24.576-3.912z" fill="#ffcb5b" fill-rule="evenodd"/><path d="m425.909 83.361 11.31 22.167 24.548 3.912-17.575 17.575 3.884 24.576-22.167-11.282-22.167 11.282 3.883-24.576-17.575-17.575 24.548-3.912z" fill="#ffcb5b" fill-rule="evenodd"/><path d="m151.742 389.503-36.17 36.198c6.179 3.288 13.153 3.713 18.198-1.332l8.135-8.107 8.589-8.617c5.074-5.046 4.592-11.99 1.247-18.142z" fill="#cc9b7a"/><path d="m248.573 463.346-36.113 36.113c6.151 3.345 13.068 3.827 18.142-1.247l16.725-16.724c5.046-5.046 4.564-11.99 1.247-18.142z" fill="#cc9b7a"/><path d="m225.669 446.168c4.195-4.961 3.572-11.48.397-17.292l-7.795 7.795-40.337 40.337c5.811 3.175 12.331 3.799 17.32-.397l30.416-30.444z" fill="#cc9b7a"/><path d="m197.606 417.254c3.77-4.932 3.09-11.225 0-16.866l-36.765 36.737-18.369 18.368c5.641 3.09 11.962 3.798 16.895.028l38.24-38.268z" fill="#cc9b7a"/></g><path d="m465.707 245.841h-19.616c-7.517 0-13.921 4.78-16.383 11.452h-51.828l-70.516-10.509c-12.792-1.895-24.463 1.121-34.676 8.959l-17.009 12.972-16.539-12.752c-10.304-7.956-22.04-11.02-34.876-9.094l-70.145 10.423h-51.829c-2.462-6.672-8.866-11.452-16.383-11.452h-19.616c-9.636 0-17.476 7.84-17.476 17.476v108.368c0 9.636 7.839 17.476 17.476 17.476h19.616c7.506 0 13.902-4.766 16.372-11.423h12.428c6.132 0 10.021 2.133 14.818 5.518l-8.455 8.455c-8.612 8.612-7.166 22.561 3.439 33.165 5.012 5.012 11.556 8.549 18.054 9.195-.32 6.858 2.81 14.396 9.188 20.775 6.085 6.085 13.224 9.217 19.82 9.217 2.526 0 4.971-.463 7.248-1.392 2.901 10.14 12.255 19.402 22.418 22.119 1.987.531 3.934.793 5.817.793 2.123 0 4.157-.353 6.082-1.01.01.039.017.076.027.115 2.763 10.299 12.244 19.772 22.544 22.524 1.986.531 3.933.793 5.817.793 5.051 0 9.642-1.887 13.284-5.536l16.76-16.732c.267-.267.524-.54.771-.818l26.044 18.744c3.307 2.374 7.035 3.516 10.865 3.515 7.536 0 15.461-4.421 21.318-12.571 3.601-5.011 5.613-10.314 6.066-15.314 3.793.64 7.81.072 11.805-1.729 9.584-4.32 17.329-14.956 18.566-25.421 4.111.946 8.541.436 12.966-1.557 9.636-4.337 17.387-15.013 18.431-25.384.244-2.426.125-4.75-.341-6.938 1.074-.304 2.156-.699 3.239-1.187 9.81-4.419 18.008-15.706 19.07-26.255.204-2.031.138-3.981-.17-5.832l4.522-3.23c3.912-2.781 7.806-4.021 12.627-4.021h12.371c2.47 6.657 8.866 11.423 16.373 11.423h19.616c9.636 0 17.476-7.84 17.476-17.476v-108.368c0-9.636-7.839-17.476-17.476-17.476zm-394.313 125.844c0 3.024-2.46 5.485-5.485 5.485h-19.616c-3.024 0-5.485-2.461-5.485-5.485v-108.368c0-2.974 2.512-5.485 5.485-5.485h19.616c2.973 0 5.485 2.512 5.485 5.485zm38.156 28.504 16.753-16.752c.711-.709 2.875-2.868 7.524-1.627 6.117 1.64 12.427 7.948 14.066 14.063 1.248 4.658-.923 6.83-1.637 7.544s-16.724 16.725-16.724 16.725c-4.696 4.692-12.465.33-16.542-3.745-3.398-3.397-8.489-11.158-3.439-16.208zm30.682 46.178c-3.453-3.453-8.675-11.292-3.724-16.243l35.688-35.688c.56-.56 2.016-2.017 4.867-2.017.784 0 1.673.11 2.678.38 6.116 1.639 12.424 7.949 14.063 14.066 1.246 4.651-.916 6.812-1.626 7.523l-28.743 28.743s-.004.004-.006.006l-6.967 6.967c-4.938 4.939-12.776-.286-16.229-3.738zm44.104 26.838c-6.112-1.634-12.419-7.936-14.059-14.048-1.229-4.578.844-6.753 1.594-7.505l28.785-28.785c4.941-4.938 12.776.285 16.229 3.738s8.675 11.292 3.726 16.241l-5.581 5.575c-.133.125-.268.245-.398.375l.011.011-22.782 22.759c-.711.713-2.872 2.882-7.526 1.638zm58.755 4.052-16.76 16.732c-.711.713-2.873 2.882-7.526 1.638-6.112-1.634-12.419-7.936-14.059-14.048-1.25-4.66.922-6.833 1.636-7.547l-.011-.011 17.019-17.002c4.966-4.473 12.572.612 15.96 3.998 3.453 3.453 8.678 11.293 3.741 16.239zm145.349-87.637c-.634 6.297-6.158 13.863-12.064 16.523-3.862 1.74-5.765.418-6.412-.046l-.012-.009s-.008-.006-.012-.01c-.001 0-.003-.002-.004-.002l-59.8-43.682c-2.674-1.954-6.425-1.37-8.377 1.305-1.953 2.674-1.369 6.424 1.305 8.377l59.839 43.711s.008.004.011.007c.008.005.014.012.022.017 0 0 .002 0 .002.002 2.735 1.967 3.891 4.645 3.534 8.187-.611 6.07-5.735 13.091-11.422 15.651-4.502 2.025-6.95.26-7.757-.321l-7.972-5.738-58.013-42.37c-2.675-1.95-6.425-1.367-8.377 1.306-1.953 2.674-1.369 6.425 1.305 8.378l58.025 42.378s.009.005.013.008c.007.005.013.011.02.016.819.59 3.312 2.384 2.83 7.186-.632 6.297-5.842 13.536-11.612 16.137-4.398 1.985-6.893.189-7.722-.406l-6.872-4.928s-.001-.001-.002-.002l-50.145-36.624c-2.675-1.952-6.425-1.369-8.377 1.306-1.953 2.674-1.369 6.425 1.305 8.378l50.145 36.624c.005.004.01.006.016.01.007.005.012.01.019.015 5.676 4.084 1.797 12.647-1.047 16.605-2.855 3.971-9.759 10.403-15.448 6.317l-28.377-20.424c.384-6.909-2.743-14.527-9.178-20.963-4.389-4.389-9.329-7.239-14.219-8.488 2.667-8.033-.219-17.898-8.246-25.924-5.895-5.895-12.777-9.012-19.197-9.203-.055-1.679-.31-3.405-.781-5.163-2.761-10.303-12.241-19.784-22.542-22.545-7.316-1.963-14.109-.276-19.126 4.74l-4.853 4.853c-3.365-9.523-12.289-17.997-21.934-20.581-7.163-1.919-13.82-.337-18.797 4.441-6.495-4.705-12.917-8.922-23.424-8.922h-11.325v-96.464h51.18c.295 0 .589-.021.881-.065l70.589-10.488c9.486-1.42 18.16.841 25.782 6.728l13.997 10.792-27.922 21.336c-6.404 4.893-9.319 12.303-8.208 20.865 1.567 12.082 11.23 24.722 22.476 29.402 7.965 3.313 15.874 2.446 22.264-2.441l30.928-23.614c5.862-4.478 13.728-4.461 19.571.04l51.42 39.656c.052.041.104.08.158.118l29.056 20.921c1.439 1.036 3.305 2.897 2.883 7.087zm9.323-17.625-3.302 2.359c-.593-.546-1.224-1.065-1.9-1.552l-28.974-20.862-51.346-39.598c-10.205-7.862-23.937-7.891-34.169-.072l-30.931 23.615c-2.971 2.273-6.364 2.566-10.375.898-7.352-3.06-14.167-11.976-15.192-19.874-.56-4.314.617-7.518 3.597-9.795l34.129-26.079s.003-.003.004-.004l20.67-15.765c7.551-5.795 16.173-8.021 25.627-6.621l70.951 10.573c.292.044.588.065.884.065h51.18v96.464h-11.268c-7.267 0-13.67 2.041-19.586 6.247zm73.43-.31c0 2.974-2.512 5.485-5.485 5.485h-19.616c-3.024 0-5.485-2.461-5.485-5.485v-108.368c0-2.974 2.512-5.485 5.485-5.485h19.616c2.973 0 5.485 2.512 5.485 5.485zm-216.748-132.002c.509.137 1.032.205 1.555.205s1.046-.068 1.556-.205c23.784-6.392 101.384-32.135 101.384-95.024v-109.985c0-2.193-1.197-4.211-3.122-5.262-30.448-16.627-64.964-25.416-99.818-25.416s-69.371 8.789-99.818 25.416c-1.924 1.051-3.122 3.068-3.122 5.262v109.984c0 62.912 77.601 88.639 101.385 95.024zm-89.395-201.416c57.214-29.945 124.684-29.945 181.899 0v106.392c0 53.122-67.62 76.538-90.95 83.02-23.331-6.476-90.949-29.878-90.949-83.02zm89.128 167.975c.592.188 1.207.283 1.821.283s1.229-.095 1.821-.283c20.781-6.627 69.115-25.893 69.115-61.583v-89.859c0-2.429-1.465-4.618-3.711-5.543-42.724-17.604-91.728-17.604-134.452 0-2.246.925-3.711 3.114-3.711 5.543v89.858c0 35.69 48.334 54.956 69.116 61.583zm-57.125-147.374c37.686-14.439 80.208-14.439 117.893 0v85.791c0 27.441-42.935 44.258-58.946 49.566-16.012-5.309-58.947-22.125-58.947-49.566zm22.109 69.479c-2.341-2.341-2.341-6.137 0-8.479s6.137-2.342 8.479 0l15.604 15.603 41.115-41.114c2.341-2.343 6.137-2.342 8.479 0 2.341 2.341 2.341 6.138 0 8.479l-45.354 45.354c-1.17 1.171-2.705 1.756-4.239 1.756s-3.068-.585-4.239-1.756l-19.843-19.842zm-157.753.76-3.407 21.562c-.352 2.226.575 4.461 2.398 5.786 1.823 1.322 4.235 1.516 6.243.492l19.448-9.897 19.448 9.897c.858.438 1.79.652 2.719.652 1.244 0 2.481-.387 3.524-1.145 1.823-1.325 2.75-3.561 2.398-5.786l-3.407-21.559 15.44-15.414c1.595-1.593 2.163-3.946 1.467-6.091-.695-2.146-2.534-3.719-4.761-4.073l-21.565-3.433-9.924-19.45c-1.024-2.008-3.087-3.271-5.34-3.271h-.003c-2.254 0-4.317 1.267-5.34 3.275l-9.897 19.446-21.561 3.432c-2.226.354-4.064 1.927-4.76 4.07-.695 2.144-.13 4.496 1.463 6.09l15.416 15.415zm14.342-17.646c1.895-.302 3.53-1.492 4.401-3.201l5.945-11.683 5.963 11.688c.871 1.707 2.505 2.895 4.398 3.196l12.956 2.062-9.276 9.26c-1.359 1.357-1.986 3.282-1.686 5.179l2.049 12.967-11.691-5.95c-1.708-.871-3.73-.871-5.438 0l-11.691 5.95 2.049-12.967c.299-1.895-.326-3.818-1.683-5.175l-9.262-9.262 12.967-2.064zm325.475 17.648-3.406 21.559c-.352 2.226.575 4.461 2.398 5.786 1.823 1.322 4.236 1.516 6.243.492l19.448-9.897 19.448 9.897c.858.438 1.79.652 2.719.652 1.244 0 2.481-.387 3.524-1.145 1.823-1.325 2.75-3.561 2.398-5.786l-3.407-21.562 15.416-15.415c1.594-1.594 2.159-3.946 1.463-6.09s-2.535-3.716-4.76-4.07l-21.561-3.432-9.896-19.446c-1.022-2.009-3.086-3.274-5.34-3.275h-.003c-2.253 0-4.316 1.264-5.34 3.271l-9.924 19.45-21.564 3.433c-2.227.354-4.066 1.928-4.761 4.073s-.128 4.497 1.467 6.091l15.44 15.414zm14.314-17.648c1.893-.302 3.527-1.489 4.398-3.196l5.963-11.688 5.945 11.683c.87 1.709 2.506 2.899 4.401 3.201l12.967 2.064-9.262 9.262c-1.356 1.356-1.982 3.28-1.683 5.175l2.049 12.967-11.691-5.95c-1.708-.871-3.73-.871-5.438 0l-11.691 5.95 2.049-12.967c.3-1.896-.327-3.821-1.686-5.179l-9.276-9.26 12.956-2.062z"/></svg>