<svg id="_&#x43B;&#x43E;&#x439;_2" viewBox="0 0 512 512" xmlns="http://www.w3.org/2000/svg"><g id="_&#x43B;&#x43E;&#x439;_2-2"><g fill-rule="evenodd"><path d="m511.54244 274.32076v.12808c0 .42759-.20322.89788-.24594 1.32547 0 .85518-.14433 1.66767-.18704 2.52285-.04272.3422-.1152.7271-.15792 1.06865-.04272.76979-.14303 1.49689-.22846 2.22334-.38508 4.06179-.90543 8.12359-1.50474 12.09999-.17086 1.24008-.36696 2.48016-.58054 3.6769-.04272.3849-.07702.76979-.16245 1.15469-.17086 1.02596-.33784 2.00923-.55141 2.99249-.34237 2.05257-.72551 4.14783-1.15331 6.19975 0 .04269.00129.08539-.04142.12873-.4278 2.09461-.89766 4.14718-1.36818 6.2418-.08543.3849-.17086.76979-.29965 1.15469-3.07937 13.04056-7.18584 25.65353-12.23335 37.8816-.08608.21347-.17151.3849-.25694.59837-.89831 2.26604-1.88205 4.48938-2.90851 6.71273-5.21901 11.75779-11.37904 23.04529-18.3086 33.77712-9.02583 14.02383-19.42048 27.10708-30.92703 39.07899-15.14315 15.73419-32.25378 29.5439-50.94682 41.04552-29.00291 17.78611-61.81199 30.01418-96.84613 35.05924-.38508.04334-.77017.12873-1.15525.17207-2.78036.38425-5.56073.72581-8.34045.98262-2.95252.3422-5.94646.59837-8.94105.81249-2.69493.17078-5.38987.3422-8.0848.42759-.51323.04269-1.06917.04269-1.62512.04269-2.82373.12808-5.64681.17078-8.46989.17078-48.85119 0-94.579-13.80971-133.46268-37.66748-18.7364-11.50162-35.84703-25.31133-50.94682-41.04552-11.5499-11.97191-21.90184-25.05516-30.97039-39.07899-7.31464-11.3302-13.73096-23.25941-19.20626-35.70095-.68474-1.58228-1.36882-3.20661-2.01085-4.78889-.08543-.21347-.17086-.3849-.25629-.59837-5.0475-12.22807-9.15462-24.84104-12.23399-37.8816-.12879-.3849-.21422-.76979-.29965-1.15469-1.53969-6.66939-2.82308-13.38212-3.85018-20.22293-.38444-2.82236-.7268-5.60138-1.02646-8.3804-.38508-3.6342-.7268-7.22571-.98374-10.56105-.08543-.64106-.12815-1.28213-.17086-1.92384 0-.17078-.04272-.3422-.04272-.51298-.38508-5.38726-.55659-10.85991-.55659-16.33256 0-4.7462.12879-9.49175.4278-14.19525.47051-9.53444 1.54033-18.89811 3.12273-28.09035 2.95187-17.91484 7.82787-35.18797 14.33027-51.64861.21358-.51363.4278-.98391.59866-1.49689.64202-1.58163 1.24068-4.18988 1.83934-5.68677 17.96623-42.15751 46.92577-79.3476 83.32875-106.93208h.04272c.04272 0 .04272.98391.08543.98391 7.52886-4.23322 15.35673-9.96203 23.48424-14.70823.12879-.08539.25694.08539.38508 0 37.77183-22.01932 81.6603-34.37548 128.3725-34.37548 4.40613 0 8.81161.27816 13.17502.49163 4.36341.21412 8.64075.63071 12.91873 1.0583 4.32005.42759 8.59803 1.04213 12.87537 1.6832 4.19255.6844 8.38446 1.41927 12.49158 2.27445 99.83943 20.52244 178.76204 99.41139 199.29506 199.2025.85495 4.10513 1.5824 8.29695 2.26714 12.48747.64137 4.27526 1.19732 8.55182 1.62576 12.87043.42715 4.27526.76952 8.55118.98309 12.91248.21422 4.3613.34302 8.7653.34302 13.16929 0 3.2493-.04336 6.49861-.21422 9.70522-.04272 2.22334-.17151 4.44669-.34237 6.62734 0 0 .07443.21412.07443.51298 0 .42759.03236.89788.03236 1.32547z" fill="#3c3ca3"/><path d="m511.99224 256.14975c0 3.2493.05307 6.49926-.11844 9.70587-.08543 2.86441-.33137 5.68612-.33137 8.46514v.12808c0 1.28277-.31001 2.56555-.39544 3.84832-.04272.3422-.13397.7271-.17669 1.06865-.04272.76979-.15274 1.49689-.23817 2.22334-.03689.39719-.11779.78532-.15792 1.18186-.34172 3.39356-.76693 6.76642-1.25815 10.11858-.03883.26328-.06213.53691-.10161.79955-.17086 1.24008-.34431 2.48016-.55789 3.6769-.04272.3849-.08608.76979-.17151 1.15469-.17151 1.02596-.34302 2.00923-.55659 2.99249-.34237 2.05257-.72745 4.14783-1.15525 6.19975 0 .04269 0 .08539-.04272.12873-.4278 2.09461-.89831 4.14718-1.36947 6.2418-.08478.3836-.17021.76656-.29771 1.15016-21.8766 92.6081-94.13372 165.74818-186.2799 188.9649-.28088.07116-.56371.13714-.84459.20765-3.62172.89917-7.27322 1.72007-10.95383 2.46334-.71515.14555-1.42643.29821-2.14287.43729-4.04046.78014-8.10228 1.49754-12.2081 2.08491-.38508.04334-.77017.12873-1.15525.17207-2.78036.38425-5.56073.72581-8.34045.98262-2.95252.3422-5.94646.59837-8.94105.81249-2.69493.17078-5.38987.3422-8.0848.42759-.51323.04269-1.06917.04269-1.62512.04269-2.82373.12808-5.64681.17078-8.46989.17078-48.85119 0-94.579-13.80971-133.46268-37.66748-18.7364-11.50162-35.84703-25.31133-50.94682-41.04552-11.5499-11.97191-21.90184-25.05516-30.97039-39.07899-7.31464-11.3302-13.73096-23.25941-19.20626-35.70095-.68474-1.58228-1.36882-3.20661-2.01085-4.78889-.08543-.21347-.17086-.3849-.25629-.59837-5.0475-12.22807-9.15462-24.84104-12.23399-37.8816-.12879-.3849-.21422-.76979-.29965-1.15469-1.53969-6.66939-2.82308-13.38212-3.85018-20.22293-.38444-2.82236-.7268-5.60138-1.02646-8.3804-.38508-3.6342-.7268-7.22571-.98374-10.56105-.08543-.64106-.12815-.83772-.17086-1.47878 0-.17142-.04272-.06857-.04272-.06857h268.65017l-.01424-272.28566s8.64075.33315 12.91873.76074c4.32005.42759 8.59803.87265 12.87537 1.51371 4.19255.64106 8.34174 1.31253 12.49158 2.21041 100.05365 20.39435 178.89019 99.16557 199.29506 199.17145.89831 4.14718 1.62512 8.28078 2.26714 12.4713.64137 4.27526 1.19732 8.54406 1.62576 12.86202.42715 4.27526.76952 8.59064.98309 12.9086.21422 4.3613.34302 8.76141.34302 13.16541z" fill="#f02449"/><g fill="#faefe1"><g><path d="m380.50805 32.5752c20.1104 11.21311 38.55232 25.05969 54.85784 41.07075h-166.33713v-41.07075z"/><path d="m467.98598 112.71394c8.75271 12.8976 16.34888 26.64456 22.65907 41.07398h-221.61629v-41.07398h198.95723z"/><path d="m504.07571 192.8572c3.39067 13.30061 5.72123 27.02687 6.93408 41.07333h-241.98104v-41.07333h235.04695z"/><path d="m511.43565 273.37178c-.04272 0-.12815 1.65085-.21422 2.59078-.12815 2.00987-.29836 3.88261-.51323 5.84914-.38444 4.06179-.89831 8.03432-1.49697 12.01072-.17086 1.23943-.34237 2.41288-.55594 3.61027-.21422 1.41086-.4278 3.09987-.72745 4.42534-.7268 4.23257-1.5824 8.29307-2.52343 12.89048h-498.77386c-3.08002-13.79224-5.17629-32.1819-6.03124-41.37672h510.83634z"/><path d="m492.91348 351.52781c-5.9031 13.79224-13.04687 27.58448-21.38862 41.37672h-430.88727c-8.34109-13.79224-15.5703-27.58448-21.4734-41.37672z"/><path d="m440.68327 434.28061c-15.1425 13.79224-32.25314 32.1819-50.98953 36.77931h-267.13894c-18.7364-4.59741-35.84703-22.98707-50.94682-36.77931z"/></g><g><g><path d="m127.25993 47.88633 2.73765 15.99036-14.28691-7.52457-14.28755 7.52457 2.35257-13.76701c7.52886-4.23257 15.35673-10.47501 23.48424-15.22121l11.59262 1.66767-11.59262 11.3302z"/><path d="m195.31997 19.69442 7.14507 14.54781 15.97674 2.33266-11.5609 11.32438 2.72923 15.98906-14.29014-7.5485-14.28949 7.5485 2.72923-15.98906-11.56091-11.32438 15.97675-2.33266z"/></g><g><path d="m76.80369 83.68561 7.14507 14.54845 15.9761 2.33267-11.56026 11.32372 2.72859 15.98971-14.2895-7.54979-14.28949 7.54979 2.72858-15.98971-11.56026-11.32372 15.9761-2.33267z"/><path d="m154.63513 83.68561 7.14507 14.54845 15.97675 2.33267-11.56091 11.32372 2.72923 15.98971-14.29014-7.54979-14.28949 7.54979 2.72923-15.98971-11.5609-11.32372 15.97674-2.33267z"/><path d="m232.46657 83.68561 7.14508 14.54845 15.97674 2.33267-11.56091 11.32372 2.72924 15.98971-14.29015-7.54979-14.28949 7.54979 2.72924-15.98971-11.56026-11.32372 15.97609-2.33267z"/></g><g><path d="m47.69594 168.75685 2.69493 15.991-14.28691-7.52522-14.28755 7.52522 2.73765-15.991-6.67326-6.5413c.81288-1.96718 1.62576-3.89101 2.438-5.85755l8.64075-1.24008 7.14442-14.53681 7.14313 14.53681 15.99875 2.30873-11.5499 11.3302z"/><path d="m115.71974 140.56688 7.14442 14.54845 15.97674 2.33267-11.56026 11.32437 2.72859 15.98906-14.28949-7.54915-14.29015 7.54915 2.72924-15.98906-11.56026-11.32437 15.97609-2.33267z"/><path d="m195.31997 140.56688 7.14507 14.54845 15.97674 2.33267-11.5609 11.32437 2.72923 15.98906-14.29014-7.54915-14.28949 7.54915 2.72923-15.98906-11.56091-11.32437 15.97675-2.33267z"/></g><g><path d="m10.52345 232.76226 2.73765 15.991-12.8333-6.79876c.47051-9.53444 1.54033-18.89811 3.12273-28.09035l2.56679 5.25918 15.95538 2.30873-11.54926 11.3302z"/><path d="m76.80369 204.55871 7.14507 14.5478 15.9761 2.33267-11.56026 11.32373 2.72859 15.98971-14.2895-7.54915-14.28949 7.54915 2.72858-15.98971-11.56026-11.32373 15.9761-2.33267z"/><path d="m154.63513 204.55871 7.14507 14.5478 15.97675 2.33267-11.56091 11.32373 2.72923 15.98971-14.29014-7.54915-14.28949 7.54915 2.72923-15.98971-11.5609-11.32373 15.97674-2.33267z"/><path d="m232.46657 204.55871 7.14508 14.5478 15.97674 2.33267-11.56091 11.32373 2.72924 15.98971-14.29015-7.54915-14.28949 7.54915 2.72924-15.98971-11.56026-11.32373 15.97609-2.33267z"/></g></g></g></g></g></svg>