<svg clip-rule="evenodd" fill-rule="evenodd" height="300" image-rendering="optimizeQuality" shape-rendering="geometricPrecision" text-rendering="geometricPrecision" viewBox="0 0 6.82666 6.82666" width="300" xmlns="http://www.w3.org/2000/svg" version="1.1" xmlns:xlink="http://www.w3.org/1999/xlink" xmlns:svgjs="http://svgjs.dev/svgjs"><g width="100%" height="100%" transform="matrix(1,0,0,1,0,0)"><g id="Layer_x0020_1"><circle cx="3.413" cy="3.413" fill="#00487c" r="3.333" fill-opacity="1" data-original-color="#d17542ff" stroke="none" stroke-opacity="1"/><g id="_351233800" fill="#fefefe"><path id="_351235360" d="m5.18963 2.26527h-3.55259c-.0315394 0-.0571417-.0255748-.0571417-.0571339 0-.031563.0255945-.0571417.0571378-.0571417h3.5526c.0315354 0 .0571339.0255827.0571339.0571417.00000787.0315512-.0255984.0571417-.0571339.0571339z" fill="#fefefe" fill-opacity="1" data-original-color="#fefefeff" stroke="none" stroke-opacity="1"/><path id="_351234856" d="m2.18507 2.04653h-.226205c-.0315394 0-.0571496-.0255787-.0571496-.0571339.00000787-.031563.0255945-.0571417.0571417-.0571417l.226213-.00001181c.0316299 0 .057122.0255945.057122.0571535 0 .0315551-.0254921.0571417-.057122.0571339z" fill="#fefefe" fill-opacity="1" data-original-color="#fefefeff" stroke="none" stroke-opacity="1"/><path id="_351234880" d="m2.64349 2.04653h-.226295c-.0315394 0-.0570433-.0255787-.0570433-.0571339.00001181-.031563.0254961-.0571417.0570433-.0571417l.226295-.00001181c.031563 0 .0571378.0255945.0571378.0571535.00000394.0315551-.0255906.0571417-.0571378.0571339z" fill="#fefefe" fill-opacity="1" data-original-color="#fefefeff" stroke="none" stroke-opacity="1"/><path id="_351234760" d="m3.10184 2.04653h-.226209c-.0315394 0-.0571457-.0255787-.0571457-.0571339.00000394-.031563.0255984-.0571417.0571417-.0571417l.226213-.00001181c.0315354 0 .057122.0255945.057122.0571535.00001968.0315551-.0255945.0571417-.057122.0571339z" fill="#fefefe" fill-opacity="1" data-original-color="#fefefeff" stroke="none" stroke-opacity="1"/><path id="_351234472" d="m1.69418 3.96659h3.43831v-2.13881h-3.43831zm3.49545.114287h-3.55259c-.0315394 0-.0571417-.0255866-.0571417-.0571417v-2.25311c0-.0315512.0255945-.057126.0571378-.057126l3.5526-.00000787c.0315354 0 .0571339.0255866.0571339.0571457l.00000787 2.25309c0 .0315472-.0256063.0571417-.0571417.0571417z" fill="#fefefe" fill-opacity="1" data-original-color="#fefefeff" stroke="none" stroke-opacity="1"/><path id="_351234736" d="m2.38735 3.46184c.0105118 0 .0211142.00290551.0305394.00885433.0404843.0255906.084622.0439016.13115.0543858.0260984.00587008.0445472.0290157.0445472.0557441l.00001181.138283c0 .0265079.0215118.0480591.048.0480591.0264882-.00001181.0481142-.0215512.0481142-.0480512v-.138311c0-.0267205.0184528-.0498701.0445472-.0557441.0465236-.0104921.0906732-.0287795.13115-.054374.0225197-.0143031.0519803-.0109921.0709331.00789764l.097815.0978346c.00903937.00899606.0210315.0139488.0340315.0139488.0129134 0 .0248976-.00494882.0339252-.0139488.0187598-.0187283.018752-.0492047 0-.0679331l-.0977992-.0978465c-.0189528-.0188858-.0222402-.0483543-.00795669-.0709331.0256102-.0404764.0439528-.0845866.0543701-.131154.00595276-.026063.029063-.0445748.055752-.0445748l.138303-.00000394c.0264961 0 .0481063-.0215433.0481063-.0480276.00001968-.0264921-.0216299-.0480472-.0481181-.0480472l-.138291-.00000787c-.0266772 0-.0498031-.0185039-.055752-.044563-.0104094-.0465433-.0287717-.0906614-.0543701-.131154-.0142756-.0225984-.0110079-.0520472.00794094-.0709449l.0978268-.0978346c.018748-.0187402.0187402-.0492087-.00001181-.067937-.00902756-.00899606-.0210315-.013937-.0339252-.013937-.0129843-.00000394-.025.00494882-.0340315.013937l-.097811.0978346c-.0189528.0189055-.0483189.022185-.070937.00789764-.0404724-.0255984-.084626-.0438976-.13115-.0543819-.0260827-.0058937-.0445472-.0290315-.0445472-.055748v-.138303c0-.0264961-.021626-.0480433-.0481142-.0480433-.0264843-.00000394-.0480118.0215551-.0480118.0480433l.00001181.138303c0 .0267087-.0184724.049874-.0445591.055748-.046622.0104921-.0906772.0287874-.13115.0543819-.0226181.0142677-.0520866.0109921-.0709331-.0078937l-.0979134-.0978504c-.00892913-.00898425-.0210354-.0139252-.033937-.0139252-.0128937-.00000394-.025.00494882-.0339252.013937-.0187441.0187283-.018752.0492047 0 .067937l.0978189.0978228c.0188622.0188937.022122.048378.00783858.0709567-.0255827.0404724-.0438504.0846024-.0543701.131154-.00583465.0260591-.0289646.0445709-.055748.0445709l-.13828-.00000787c-.0264961 0-.0480315.021563-.0480315.0480551 0 .0264764.0215236.0480315.0480118.0480315l.138303-.00000394c.0267874 0 .0498937.0185157.0557441.0445906.0105276.0465236.0287756.0906535.0544685.131142.014185.0225709.0109134.0520394-.00794094.0709331l-.097811.0978465c-.018748.0187244-.0187559.0492047-.00000394.0679331.00893307.00899606.0210315.0139488.0339252.0139488.0129134 0 .025-.00494882.0340315-.0139488l.0978307-.0978346c.0110039-.0110394.0255827-.0167362.0403819-.0167441zm.25426.419598c-.0894843 0-.162311-.0728071-.162311-.162323l.00001575-.0946496c-.028374-.00905118-.0559724-.0204764-.0824567-.0341969l-.0669646.0669646c-.0305354.0305669-.0713268.0474213-.114787.0474213-.0434488-.00001181-.0842244-.0168465-.114776-.0474213-.0632953-.0632953-.0632953-.166268 0-.229555l.0669724-.0669764c-.0136811-.0265039-.0251102-.0540433-.0341378-.082437l-.0947244-.00000787c-.0894843 0-.162319-.0728071-.162319-.162311 0-.0895197.072815-.162327.162299-.162327l.0946654-.00000394c.00912598-.0284016.0205197-.0559488.0342047-.0824567l-.0669528-.0669488c-.0633031-.0633071-.0633031-.166272-.00000787-.229567.0305669-.0305787.0713268-.0474094.114776-.0474094.0434724 0 .0842323.0168346.114787.0474094l.0669646.0669646c.0264961-.0137165.054063-.0251378.0824409-.034185l.00001575-.0946654c0-.0895118.0727992-.162319.162283-.162319.0895906-.00000394.162402.0728189.162402.162319v.0946654c.0283937.00903937.0558543.0204764.082437.034185l.0669843-.0669646c.0305591-.0305787.071311-.0474094.114768-.0474094.0433543 0 .084122.0168346.114776.0474094.063315.0632913.0632953.166272 0 .229567l-.0669528.0669606c.0136811.0265079.0250945.0540591.0341142.0824488l.0946575-.00000394c.0895748 0 .16239.072811.16239.162331.00001968.0895-.072815.162319-.162402.162319l-.0946339-.00000787c-.00901575.0284055-.0204449.0559528-.0341339.0824606l.0669685.0669606c.0633071.0632835.0632874.166268-.00000787.229555-.0306378.0305669-.0714213.0474213-.114776.0474213-.0434528-.00001181-.0842283-.0168465-.114787-.0474213l-.0669449-.0669646c-.0265866.0137047-.0540827.0251378-.0824567.034185v.0946535c0 .0895197-.0728228.162343-.16239.162331z" fill="#fefefe" fill-opacity="1" data-original-color="#fefefeff" stroke="none" stroke-opacity="1"/><path id="_351234352" d="m2.64161 2.95601c-.0880984 0-.159933.0717559-.159933.159933.00000394.0881614.0718268.159909.159921.159909.0882047-.00000787.159921-.0717402.159921-.159909.00000394-.0881772-.0717244-.159925-.159909-.159933zm0 .434122c-.151201 0-.27422-.123-.27422-.274189.00000394-.151205.12302-.274201.274209-.274201.151197-.00000394.274205.123008.274205.274201.00000394.151185-.123016.274193-.274193.274189z" fill="#fefefe" fill-opacity="1" data-original-color="#fefefeff" stroke="none" stroke-opacity="1"/><path id="_351234136" d="m1.56592 1.47063c-.126209 0-.228886.102669-.228886.228858v2.39541c0 .126181.102677.22885.228866.22885h3.69487c.126181 0 .228854-.102661.228854-.22885l.00000787-2.39542c0-.126181-.102693-.22885-.228882-.22885h-3.69483zm3.69485 2.96741h-3.69485c-.189197 0-.343173-.153941-.343173-.343146v-2.39542c0-.189205.153969-.343138.343154-.343138l3.69487-.00000787c.189173 0 .343138.153949.343138.343154l.00000787 2.39541c0 .189205-.153976.343146-.343146.343146z" fill="#fefefe" fill-opacity="1" data-original-color="#fefefeff" stroke="none" stroke-opacity="1"/><path id="_351234112" d="m3.67543 5.23044h-.524197c-.0315394 0-.0571535-.0255906-.0571535-.0571811l.00001181-.79237c0-.0315512.0255827-.0571339.0571339-.0571339.0315512-.00000787.0571417.0255866.0571417.0571417l.00000787.735213h.409913v-.73522c0-.0315512.0255906-.0571339.0571417-.0571339.031563-.00000787.0571378.0255866.0571378.0571417l.00000394.792358c0 .0315866-.0255945.057189-.0571417.057185z" fill="#fefefe" fill-opacity="1" data-original-color="#fefefeff" stroke="none" stroke-opacity="1"/><path id="_351233464" d="m3.41333 5.47032c-.423618 0-.852386-.104358-.852386-.303933.00001968-.21024.447122-.275008.584126-.28985.031252-.00348031.0595236.0192756.0628976.0506535.00348819.031378-.019248.059563-.0505984.0629685-.340669.0368937-.482138.132992-.482138.176228.00001968.0643465.260512.189654.738094.189654.477594-.00000787.737992-.125299.737992-.189654.00000394-.043252-.141366-.139335-.482039-.176228-.0313504-.00340945-.0540669-.0315906-.0506969-.0629685.00347638-.031378.0315512-.054126.063-.0506535.13702.0148307.584024.0796024.584024.28985.00000394.199571-.428768.303941-.852276.303933z" fill="#fefefe" fill-opacity="1" data-original-color="#fefefeff" stroke="none" stroke-opacity="1"/><path id="_351233608" d="m3.5184 2.768c.00823622.0574882.0346142.111909.0769764.15428.10615.106114.278866.106134.384917 0 .106165-.106122.106154-.278799 0-.384921-.0423622-.0423701-.0967283-.0688071-.154264-.0769724l.140787.140783c.0223189.0223228.0223071.0585039-.00001181.0808268l-.226776.226811c-.0107126.0107126-.025315.0167362-.0403937.0167362-.0151654-.00000787-.0297638-.00601969-.0404764-.0167362l-.14076-.140807zm.269445.348091c-.0989055 0-.197933-.0376575-.273327-.112996-.0989055-.0989331-.136606-.244106-.0985118-.378858.00556299-.0195039.0210315-.034622.0405748-.0397323.0196535-.00511811.0404764.00056299.0548583.0149016l.188213.188181.145937-.146004-.188193-.188189c-.0143071-.0143307-.0199606-.0351811-.0148976-.0548031.00516535-.0196181.0202323-.0350512.0397756-.0405748.134744-.038185.279866-.00040551.37887.0985315.150697.150685.150697.395862 0 .546547-.075374.0753307-.174303.113008-.273299.112996z" fill="#fefefe" fill-opacity="1" data-original-color="#fefefeff" stroke="none" stroke-opacity="1"/><path id="_351233824" d="m4.71394 3.8885c-.00368504 0-.00725591-.00005906-.0109291-.00022047-.0658583-.00277953-.128472-.0306535-.176287-.0784803l-.716268-.716311c-.0223228-.022311-.0223268-.0584921-.00000787-.0808071.0223307-.0223307.0585354-.0223189.0808543 0l.716272.716311c.0275.0275197.0630945.0435315.100201.0450984.0354291.00145276.067563-.0104449.0907756-.0336181.0231339-.0231772.0351181-.0553661.0335276-.0906732-.00148819-.037126-.0175591-.0727283-.0450394-.100248l-.716358-.716319c-.0223228-.022311-.0223307-.0584961-.00000787-.0808071.0223268-.0223307.0585276-.0223189.0808465 0l.716283.716311c.047811.0478228.075685.110417.0784646.17624.0028937.0676299-.020937.130248-.0669606.176311-.0435354.043563-.101988.0672205-.165366.0672126z" fill="#fefefe" fill-opacity="1" data-original-color="#fefefeff" stroke="none" stroke-opacity="1"/></g></g></g></svg>