<svg xmlns="http://www.w3.org/2000/svg" xml:space="preserve" width="800" height="800" viewBox="0 0 29 32"><g fill="#808184"><path d="m1.045 27.731 13.303 4.245a.493.493 0 0 0 .309-.001l13.312-4.407c.626-.208 1.031-.765 1.031-1.423s-.404-1.218-1.03-1.425l-7.733-2.56a.5.5 0 1 0-.315.949l7.733 2.56c.32.106.345.391.345.476a.486.486 0 0 1-.344.474l-13.159 4.356L1.35 26.778a.486.486 0 0 1-.35-.471.487.487 0 0 1 .339-.478l8.028-2.753a.5.5 0 0 0-.324-.946l-8.028 2.753c-.623.214-1.022.776-1.015 1.434s.417 1.213 1.045 1.414z"/><path d="M15.679.063C9.81-.595 4.817 3.982 4.817 9.705c0 2.24.729 4.23 2.355 6.442l6.31 9.121a1.33 1.33 0 0 0 2.194-.003l4.173-5.993 2.344-3.568c1.655-2.094 2.361-4.718 1.988-7.388-.6-4.294-4.176-7.765-8.502-8.253zm5.703 15.057-2.362 3.592-4.168 5.986a.332.332 0 0 1-.548.002l-6.318-9.133c-1.5-2.041-2.169-3.85-2.169-5.862C5.817 4.905 9.734 1 14.548 1c.335 0 .675.019 1.018.058 3.88.437 7.086 3.548 7.624 7.397a8.693 8.693 0 0 1-1.808 6.665z"/><path d="M14.497 4.705c-2.757 0-5 2.243-5 5s2.243 5 5 5 5-2.243 5-5-2.244-5-5-5zm0 9c-2.206 0-4-1.794-4-4s1.794-4 4-4 4 1.794 4 4-1.795 4-4 4z"/></g></svg>