<svg xmlns="http://www.w3.org/2000/svg" width="512pt" height="512pt" viewBox="-62 0 512 512"><path d="m72.809 203.406-47.2-47.203c-7.18-7.176-7.18-18.816 0-25.992 7.18-7.18 18.817-7.18 25.993 0l47.203 47.2ZM168.723 512c-19.235 0-34.828-15.59-34.828-34.828v-45.465h69.656v45.465c0 19.238-15.594 34.828-34.828 34.828ZM319.547 459.023c-19.235 0-34.828-15.59-34.828-34.824V378.73h69.652v45.47c0 19.234-15.59 34.823-34.824 34.823ZM55.05 444.895c-19.234 0-34.823-15.594-34.823-34.829v-71.359h69.652v71.36c0 19.234-15.594 34.828-34.828 34.828Zm0 0" style="stroke:none;fill-rule:nonzero;fill:#f97473;fill-opacity:1"/><path d="M20.18 192.395c-47.504 82.277-8.461 193.753 87.203 248.988 95.664 55.234 211.726 33.308 259.234-48.969 47.504-82.277 8.461-193.754-87.203-248.988-95.668-55.23-211.73-33.309-259.234 48.969Zm0 0" style="stroke:none;fill-rule:nonzero;fill:#f9a2a1;fill-opacity:1"/><path d="M165.473 271.055c11.132-13.082 24.554-25.344 40.023-36.086a219.056 219.056 0 0 1 12.149-7.836l-8.243-11.582c-9.394-13.203-28.75-14.156-43.226-2.125-14.48 12.027-18.598 32.48-9.203 45.683ZM345.332 204.633l2-16.219c1.875-15.21-8.539-25.992-23.262-24.078-14.718 1.914-28.172 15.797-30.047 31.008l-.632 5.144c18.664-2.117 36.398-.742 51.941 4.145Zm0 0" style="stroke:none;fill-rule:nonzero;fill:#fab5b4;fill-opacity:1"/><path d="m335.477 202.078 1.105-8.95c1.145-9.312-5.23-15.913-14.242-14.741-9.012 1.172-17.25 9.672-18.399 18.984l-.28 2.29c11.136-.5 21.831.316 31.816 2.417ZM174.559 261.09c9.12-9.352 19.468-18.156 30.941-26.121.348-.242.695-.469 1.047-.707l-5.227-7.34c-5.75-8.086-17.601-8.668-26.465-1.3-8.863 7.362-11.386 19.886-5.636 27.968Zm0 0" style="stroke:none;fill-rule:nonzero;fill:#fbc7c6;fill-opacity:1"/><path d="M388.977 334.633c0 26.527-22.043 60.758-49.23 76.457-27.192 15.7-49.235 6.918-49.235-19.61 0-26.53 22.043-60.761 49.234-76.46 27.188-15.696 49.23-6.918 49.23 19.613Zm0 0" style="stroke:none;fill-rule:nonzero;fill:#f97473;fill-opacity:1"/><path d="m320.137 403.11-1.184.683c-4.387 2.531-7.941-.156-7.941-6.004V361.5c0-5.848 3.554-12.64 7.941-15.172l1.184-.687c4.386-2.532 7.941.156 7.941 6.004v36.293c0 5.847-3.555 12.64-7.941 15.171ZM360.535 379.785l-1.183.684c-4.387 2.535-7.942-.156-7.942-6v-36.293c0-5.848 3.555-12.64 7.942-15.172l1.183-.688c4.387-2.53 7.942.157 7.942 6.004v36.293c0 5.848-3.555 12.64-7.942 15.172ZM279.258 312.008c0 7.976-6.469 14.449-14.45 14.449-7.98 0-14.449-6.473-14.449-14.45 0-7.98 6.47-14.448 14.45-14.448 7.98 0 14.449 6.468 14.449 14.449ZM374.39 272.664c0 7.98-6.468 14.45-14.449 14.45-7.976 0-14.445-6.47-14.445-14.45 0-7.98 6.469-14.45 14.445-14.45 7.98 0 14.45 6.47 14.45 14.45ZM246.113 210.887c-3.738 0-7.472-1.461-10.265-4.367-.293-.305-29.887-30.532-81.25-49.356-7.387-2.707-11.18-10.89-8.473-18.277 2.707-7.387 10.89-11.18 18.277-8.473 57.899 21.219 90.633 54.95 92 56.375 5.442 5.684 5.246 14.703-.437 20.145a14.203 14.203 0 0 1-9.852 3.953Zm0 0" style="stroke:none;fill-rule:nonzero;fill:#97463c;fill-opacity:1"/><path d="M269.648 105.52c0-38.27-23.265-82.727-51.968-99.297C205.69-.7 194.656-1.641 185.863 2.379l-.008-.02-23.171 13.504s-19.243 7.742-19.243 42.719c0 38.266 23.266 82.727 51.97 99.297 14.202 8.2 27.07 8.023 36.452 1.125l.004.008 19.809-11.48c11.004-6.356 17.972-21.079 17.972-42.012Zm0 0" style="stroke:none;fill-rule:nonzero;fill:#c3a600;fill-opacity:1"/><path d="M247.379 118.59c0 38.27-23.27 55.86-51.969 39.289-28.703-16.57-51.972-61.027-51.972-99.297 0-38.27 23.269-55.86 51.972-39.289 28.7 16.57 51.969 61.027 51.969 99.297Zm0 0" style="stroke:none;fill-rule:nonzero;fill:#ffd800;fill-opacity:1"/><path d="M231.086 109.184c0 26.27-15.973 38.343-35.676 26.968-19.703-11.375-35.676-41.894-35.676-68.164 0-26.27 15.973-38.343 35.676-26.968 19.703 11.375 35.676 41.894 35.676 68.164Zm0 0" style="stroke:none;fill-rule:nonzero;fill:#c3a600;fill-opacity:1"/><path d="M220.023 102.797c0 18.125-11.02 26.453-24.613 18.605-13.594-7.847-24.613-28.902-24.613-47.027 0-18.121 11.02-26.453 24.613-18.605 13.594 7.847 24.613 28.902 24.613 47.027Zm0 0" style="stroke:none;fill-rule:nonzero;fill:#ffd800;fill-opacity:1"/></svg>