<svg xmlns="http://www.w3.org/2000/svg" xmlns:xlink="http://www.w3.org/1999/xlink" xml:space="preserve" style="enable-background:new 0 0 3710 3710" viewBox="0 0 3710 3710"><path d="M0 0h3710v3710H0z" style="fill:#fff"/><path d="M3197.591 1637.573c-75.464-493.947-384.866-1100.796-996.123-1164.303 0 0-464.095-56.45-921.592 29.106-271.524 50.777-509.611 201.93-660.263 419.175-150.653 217.245-200.976 482.145-139.903 734.695 39.666 164.033 66.471 333.802 59.115 502.356-12.803 293.352-5.437 567.176 279.255 742.123 254.197 156.209 574.108 293.979 879.307 318.109 207.411 16.399 440.01-10.138 639.916-64.138 1018.762-275.2 935.752-1023.177 860.288-1517.123z" style="fill:#f4f7fa"/><path d="M2061.06 2622.845c-19.739-1.589-61.28-22.447-69.867-32.349-57.146-65.897-172.155-182.322-171.176-274.525.168-15.747 69.639-33.71 78.777-48.597 41.513-22.204 57.291-27.332 86.387-67.827 85.898-119.555-133.107-325.693 105.901-413.4 175.07-64.243 328.161-10.252 295.724-285.28-32.438-275.028 162.119-788.436 462.793-610.006 172.559 102.402 14.122 345.257 108.52 514.193 89.702 160.533 26.51 299.307-143.458 406.449-169.969 107.141-72.966 178.521-14.641 332.377 70.06 184.814-217.162 232.021-351.624 242.502-108.28 8.443-378.301 102.989-387.336 236.463z" style="fill:#d8dee8"/><defs><path id="a" d="M1774.442 2294.359c48.238 127.29 92.081 258.805 139.966 387.253 77.633 2.537 169.014 3.629 181.537-92.272 17.411-133.333 244.435-195.353 352.67-203.211 133.96-9.726 421.561-57.659 351.417-242.284-58.396-153.699-155.321-225.249 14.641-332.354 169.962-107.105 233.117-245.893 143.446-406.448-94.365-168.959 64.031-411.694-108.52-514.186-300.661-178.587-495.291 335.273-462.756 609.9 32.534 274.626-121.022 222.306-295.664 285.083-238.424 85.703-21.591 299.167-105.411 411.166-65.711 87.8-121.46 75.034-211.326 97.353z"/></defs><use xlink:href="#a" style="overflow:visible;fill:#d8dee8"/><clipPath id="b"><use xlink:href="#a" style="overflow:visible"/></clipPath><g style="opacity:.8;clip-path:url(#b)"><path d="m1908.248 2460.688-1.64-2.993c568.83-311.995 890.91-927.658 861.568-1646.896l3.413-.14c13.899 340.727-54.068 670.699-196.549 954.244-73.397 146.06-165.959 278.605-275.118 393.952-113.599 120.039-245.377 221.592-391.674 301.833z" style="fill:#d8dee8"/><path d="m2209.886 2243.919-1.14-3.216c175.829-62.194 458.544-74.315 630.217-27.021l-.906 3.29c-171.104-47.133-452.899-35.045-628.171 26.947zM2019.094 2398.244l-2.407-2.42c68.591-68.192 100.069-168.418 93.57-297.896-4.767-94.889-29.446-203-73.354-321.328l3.2-1.187c44.028 118.655 68.777 227.107 73.56 322.343 6.553 130.487-25.266 231.586-94.569 300.488zM2593.763 1723.772l-2.527-2.293c122.442-134.929 309.061-178.449 444.055-191.195l.32 3.396c-134.391 12.691-320.14 55.973-441.848 190.092zM2728.504 1329.037l-3.413-.083c4.963-205.476-121.542-380.209-197.395-466.077l2.56-2.26c76.18 86.243 203.238 261.779 198.248 468.42z" style="fill:#d8dee8"/></g><defs><path id="c" d="M2130.438 2801.081a6290.674 6290.674 0 0 1-283.801 1.518c-1.255 1.611-66.535-193.002 9.999-314.531 152.083-236.104-6.434-396.158-61.495-497.828-84.509-142.16-87.448-332.48 86.399-327.287 168.679 1.14 134.339-339.676 60.578-593.92-46.246-121.924 45.884-295.912 158.52-351.769 114.45-60.067 249.403-2.005 330.681 242.94 107.31 281.288-74.315 494.208-127.342 654.01-52.234 156.904 148.239 241.195 25.594 393.639-102.102 134.245-241.521 242.353-160.401 374.186 82.379 129.957 88.683 246.934-38.732 419.042z"/></defs><defs><path id="d" d="M2130.438 2801.081a6290.674 6290.674 0 0 1-283.801 1.518c-1.255 1.611-66.535-193.002 9.999-314.531 152.083-236.104-6.434-396.158-61.495-497.828-84.509-142.16-87.448-332.48 86.399-327.287 168.679 1.14 134.339-339.676 60.578-593.92-46.246-121.924 45.884-295.912 158.52-351.769 114.45-60.067 249.403-2.005 330.681 242.94 107.31 281.288-74.315 494.208-127.342 654.01-52.234 156.904 148.239 241.195 25.594 393.639-102.102 134.245-241.521 242.353-160.401 374.186 82.379 129.957 88.683 246.934-38.732 419.042z"/></defs><use xlink:href="#d" style="overflow:visible;fill:#bfc6d1"/><clipPath id="e"><use xlink:href="#d" style="overflow:visible"/></clipPath><path d="M2130.438 2801.081a6290.674 6290.674 0 0 1-283.801 1.518c-1.255 1.611-66.535-193.002 9.999-314.531 152.083-236.104-6.434-396.158-61.495-497.828-83.91-142.149-82.809-312.24 71.666-341.9 170.74-36.26 151.912-326.101 75.312-579.307-46.246-121.924 45.884-295.912 158.52-351.769 114.45-60.067 249.403-2.005 330.681 242.94 107.31 281.288-74.315 494.208-127.342 654.01-52.234 156.904 148.239 241.195 25.594 393.639-102.102 134.245-241.521 242.353-160.401 374.186 82.378 129.957 88.682 246.934-38.733 419.042z" style="clip-path:url(#e);fill:#bfc6d1"/><g style="opacity:.8;clip-path:url(#e)"><path d="M2005.974 2835.128c-.34-1.768 13.609-437.578 93.246-873.675 9.28-69.964 20.269-140.806 30.899-209.315 59.218-381.746 115.152-742.322-76.153-1098.893l3.007-1.613c86.146 160.563 129.334 338.503 132.034 543.984 2.413 183.606-27.036 373.451-55.514 557.045-10.626 68.49-21.612 139.313-30.899 209.323-76.397 418.359-94.399 859.473-93.253 872.599l-3.367.545z" style="fill:#bfc6d1"/><path d="m2180.94 1398.148-2.893-1.81c82.513-131.944 177.772-315.585 228.95-414.243 39.582-76.307 41.388-79.247 43.592-79.29l.066 3.413-.033-1.707.923 1.393c-2.343 2.238-19.629 35.567-41.518 77.762-51.197 98.702-146.5 282.421-229.087 414.482zM2184.807 1236.497c-44.208-126.983-113.165-203.47-163.226-245.275-55.054-45.971-100.629-62.032-105.662-62.032-.047 0-.09.002-.13.005.003 0 .363-.03.717-.368l-2.36-2.467c.767-.735 1.857-.767 4.457-.14 12.209 2.937 59.257 22.002 113.449 69.469 68.271 59.793 122.208 142.676 155.983 239.685l-3.228 1.123zM2056.039 2244.573c-14.759-265.744-234.127-477.452-327.756-556.139-4.65-3.908-6.563-5.523-7.143-6.213l2.613-2.197c.413.492 3.2 2.833 6.726 5.796 67.38 56.629 126.545 118.203 175.849 183.016 94.673 124.448 146.191 250.801 153.117 375.546l-3.406.191zM2078.425 2109.132l-3.167-1.267c78.807-197.153 308.354-250.391 311.167-250.391h.013l1.53 1.355-.863 1.855-.807-1.478.137 1.667c-2.206.291-229.717 52.397-308.01 248.259zM2009.257 2763.758c-7.356-53.256-42.118-140.127-165.96-251.539-6.656-5.99-6.656-5.99-6.69-6.981l1.707-.053 1.44-.883c.37.473 2.9 2.747 5.827 5.382 124.608 112.1 159.623 199.788 167.056 253.609l-3.38.465zM2018.48 2659.521l-3.393-.37c10.683-98.408 129.574-190.037 199.498-235.898 2.257-1.482 3.713-2.432 4.223-2.818l2.06 2.72c-.533.403-2.05 1.403-4.413 2.953-69.417 45.53-187.442 136.398-197.975 233.413z" style="fill:#bfc6d1"/></g><defs><path id="f" d="M2130.438 2801.081a6290.674 6290.674 0 0 1-283.801 1.518c-1.255 1.611-66.535-193.002 9.999-314.531 152.083-236.104-6.434-396.158-61.495-497.828-84.509-142.16-87.448-332.48 86.399-327.287 168.679 1.14 134.339-339.676 60.578-593.92-46.246-121.924 45.884-295.912 158.52-351.769 114.45-60.067 249.403-2.005 330.681 242.94 107.31 281.288-74.315 494.208-127.342 654.01-52.234 156.904 148.239 241.195 25.594 393.639-102.102 134.245-241.521 242.353-160.401 374.186 82.379 129.957 88.683 246.934-38.732 419.042z"/></defs><path d="m3208.433 2662.626-2686.906-22.903v67.766c0 18.393 11.719 34.033 27.591 36.82l759.777 133.443a106.634 106.634 0 0 0 27.259 1.252l1843.081-152.147c16.454-1.358 29.198-17.047 29.198-35.944v-28.287z" style="fill:#26264f"/><path d="m2233.365 2554.028-1684.053 123.97c-30.135 2.218-54.637-21.354-54.637-52.655V1371.276c0-31.302 24.502-56.677 54.637-56.677h1684.053c24.827 0 44.9 22.938 44.9 51.235v1133.653c0 28.296-20.073 52.713-44.9 54.541z" style="fill:#26264f"/><linearGradient id="g" x1="521.527" x2="2305.117" y1="1996.371" y2="1996.371" gradientUnits="userSpaceOnUse"><stop offset="0" style="stop-color:#444b8c"/><stop offset=".996" style="stop-color:#26264f"/></linearGradient><path d="m2260.217 2554.028-1684.053 123.97c-30.136 2.218-54.637-21.354-54.637-52.655V1371.276c0-31.302 24.501-56.677 54.637-56.677h1684.053c24.828 0 44.9 22.938 44.9 51.235v1133.653c0 28.296-20.072 52.713-44.9 54.541z" style="fill:url(#g)"/><linearGradient id="h" x1="594.783" x2="2244.801" y1="1984.65" y2="1984.65" gradientUnits="userSpaceOnUse"><stop offset=".004" style="stop-color:#e38ddd"/><stop offset="1" style="stop-color:#9571f6"/></linearGradient><path d="m2207.755 2474.104-1568.52 107.685c-24.523 1.683-44.452-17.664-44.452-43.217V1440.634c0-25.554 19.929-46.355 44.452-46.461l1568.52-6.762c20.48-.089 37.046 18.708 37.046 41.983v1000.024c0 23.274-16.566 43.28-37.046 44.686z" style="fill:url(#h)"/><path d="M1477.667 1348.901c0 11.652-8.668 21.126-19.371 21.16-10.717.034-19.414-9.406-19.414-21.084s8.697-21.153 19.414-21.161c10.703-.008 19.371 9.432 19.371 21.085z" style="fill:#fff"/><path d="m576.158 2677.998 1675.533-123.343 8.526-.627c11.391-.839 21.749-6.469 29.66-15.011-120.573-6.598-195.464-49.387-243.773-93.599-97.016-88.788-80.188-176.347-184.809-234.723-130.49-72.813-233.094 19.45-332.115-71.582-60.031-55.19-30.559-96.345-104.427-178.818-81.815-91.347-135.081-60.641-217.304-142.853-103.964-103.952-51.968-184.83-141.521-259.464-108.641-90.543-225.804-6.74-329.221-93.573-44.605-37.451-69.08-91.899-81.86-149.805h-78.683c-30.135 0-54.638 25.376-54.638 56.677v1254.067c.001 31.298 24.498 54.868 54.632 52.654z" style="opacity:.48;fill:#fff"/><linearGradient id="i" x1="521.527" x2="3208.433" y1="2682.167" y2="2682.167" gradientUnits="userSpaceOnUse"><stop offset="0" style="stop-color:#444b8c"/><stop offset=".996" style="stop-color:#26264f"/></linearGradient><path d="m2327.339 2547.152-1805.813 130.49 787.368 138.289a106.725 106.725 0 0 0 27.259 1.253l1872.279-154.558-852.368-114.588a139.87 139.87 0 0 0-28.725-.886z" style="fill:url(#i)"/><path d="m785.023 2678.764 1503.393-110.255 465.286 62.046-1490.441 117.859z" style="fill:#26264f"/><linearGradient id="j" x1="675.352" x2="2549.234" y1="1676.873" y2="1676.873" gradientUnits="userSpaceOnUse"><stop offset="0" style="stop-color:#ab316d"/><stop offset="1" style="stop-color:#792d3d"/></linearGradient><path d="M2549.234 1109.964v1121.521c0 30.075-19.674 32.302-44.799 33.557l-623.728 39.415-1131.395 71.469-15.095.962c-32.47 1.646-58.896-24.889-58.866-59.25l.761-1184.366-.029-96.841c.029-34.329 26.279-61.019 58.749-59.592l2.111.101 421.082 18.241 1346.44 58.4c25.126 1.08 44.769 26.34 44.769 56.383z" style="fill:url(#j)"/><path d="M2573.086 1199.778V2230.42c0 30.146-19.649 55.582-44.808 56.834l-644.222 32.347-1126.519 56.544a53.447 53.447 0 0 1-8.304-.22c-28.518-2.878-50.733-27.76-50.704-59.17l.583-1177.389v-9.131l503.108 18.641 1346.232 49.972 24.634.93z" style="fill:#fff"/><linearGradient id="k" x1="1779.701" x2="997.629" y1="873.074" y2="2151.593" gradientUnits="userSpaceOnUse"><stop offset="0" style="stop-color:#ff9085"/><stop offset="1" style="stop-color:#fb6fbb"/></linearGradient><path d="M2573.086 1106.863v92.914l-24.508-.795-1346.212-43.382-503.255-16.234v-9.131l.338-97.018c0-26.296 15.565-48.109 37.371-56.277 6.712-2.525 14.073-3.754 21.724-3.421l397.098 17.237 1372.652 59.62c25.128 1.079 44.792 26.376 44.792 56.487z" style="fill:url(#k)"/><path d="M836.042 1056.889c-.009 15.152-11.579 27.016-25.866 26.499-14.314-.518-25.93-13.265-25.92-28.47.01-15.205 11.641-27.067 25.955-26.496 14.287.571 25.841 13.315 25.831 28.467z" style="fill:#fff"/><path d="m2448.943 1622.06-1587.134-3.458v-343.091l1587.134 41.331zM1541.034 2226.173l-679.225 28.577v-500.341l679.225-4.956zM2448.943 2187.983l-767.968 32.272V1748.44l767.968-5.565z" style="fill:#d8dee8"/><path d="m1884.382 2319.603-1126.684 56.543a54.247 54.247 0 0 1-8.385-.221l-15.095.962c-32.47 1.646-58.896-24.889-58.866-59.25l.761-1184.366-.029-96.841c.029-34.329 26.279-61.019 58.749-59.592l2.111.101c6.712-2.525 14.01-3.754 21.661-3.421l397.067 17.237a124.719 124.719 0 0 1 2.354 4.426c21.19 40.2 39.262 91.424 44.443 153.695.177 2.23.352 4.461.47 6.723 4.534 67.133-5.945 146.761-43.237 238.907-103.003 254.721 11.566 507.818 167.1 608.429a292.445 292.445 0 0 0 14.532 8.863c47.822 27.58 98.91 40.762 148.342 35.314 89.98-9.916 180.597 10.848 253.24 60.198 9.291 6.322 18.288 13.078 26.959 20.331 51.42 42.968 91.074 102.213 110.833 176.815a346.108 346.108 0 0 1 3.674 15.147z" style="opacity:.3;fill:#d8dee8"/><linearGradient id="l" x1="660.25" x2="1511.803" y1="3118.38" y2="3118.38" gradientUnits="userSpaceOnUse"><stop offset="0" style="stop-color:#f57e53"/><stop offset=".004" style="stop-color:#f58152"/><stop offset=".042" style="stop-color:#f99a4d"/><stop offset=".084" style="stop-color:#fcad49"/><stop offset=".133" style="stop-color:#feba46"/><stop offset=".196" style="stop-color:#ffc244"/><stop offset=".318" style="stop-color:#ffc444"/><stop offset=".455" style="stop-color:#fdb946"/><stop offset=".694" style="stop-color:#f99c4c"/><stop offset=".996" style="stop-color:#f36f56"/></linearGradient><path d="M723.528 3053.321v82.09c0 26.526 165.699 48.029 370.098 48.029 204.401 0 370.1-21.502 370.1-48.029v-82.09H723.528z" style="fill:url(#l)"/><linearGradient id="m" x1="1089.94" x2="1134.833" y1="3022.456" y2="3398.277" gradientUnits="userSpaceOnUse"><stop offset="0" style="stop-color:#ffdb44"/><stop offset="1" style="stop-color:#feef06"/></linearGradient><path d="M1463.726 3053.321c0 26.526-165.698 48.029-370.1 48.029-204.4 0-370.098-21.503-370.098-48.029 0-26.525 165.699-48.03 370.098-48.03 204.402 0 370.1 21.504 370.1 48.03z" style="fill:url(#m)"/><linearGradient id="n" x1="1087.988" x2="1101.775" y1="3005.696" y2="3121.117" gradientUnits="userSpaceOnUse"><stop offset="0" style="stop-color:#ffdb44"/><stop offset="1" style="stop-color:#feef06"/></linearGradient><path d="M1093.626 3104.662c-181.023 0-370.314-17.29-370.314-50.64 0-1.831.653-5.051 2.485-5.051 1.832 0 1.044 2.518 1.044 4.349 0 21.15 150.634 44.714 366.785 44.714s366.785-23.563 366.785-44.714c0-1.831.313-3.548 2.144-3.548 1.831 0 1.39 2.444 1.39 4.276 0 33.35-189.296 50.614-370.319 50.614z" style="fill:url(#n)"/><path d="M1058.654 3055.998a194.586 194.586 0 0 1 11.632-7.441c4.097-2.444 9.435-4.653 15.899-6.626 6.502-1.975 14.635-3.58 24.398-4.825 9.762-1.246 21.969-1.902 36.543-1.973 14.304-.07 27.718.385 40.283 1.364 12.525.975 23.58 2.439 33.125 4.386 9.507 1.946 17.271 4.353 23.255 7.214 5.945 2.87 9.488 6.152 10.63 9.854l41.673.421c3.024.02 5.7.264 7.989.74 2.328.475 3.456 1.074 3.459 1.802l.017 3.431-53.574-.516c-1.879 4.202-6.667 8.046-14.364 11.533-7.657 3.49-17.45 6.508-29.377 9.063l-19.511-2.714c-1.745-.267-3.181-.606-4.308-1.02-1.125-.409-1.671-.855-1.673-1.342-.003-.66 1.505-1.412 4.525-2.256 3.019-.848 6.426-1.897 10.218-3.148a102.967 102.967 0 0 0 11.181-4.421c3.636-1.698 6.068-3.728 7.336-6.091l-126.452-1.254c-3.322 2.445-7.07 4.845-11.167 7.206-4.137 2.36-9.591 4.485-16.405 6.372-6.813 1.886-15.295 3.417-25.444 4.596-10.19 1.176-22.939 1.801-38.366 1.877-11.59.057-22.873-.383-33.924-1.315-11.052-.936-20.866-2.334-29.442-4.196-8.576-1.866-15.603-4.172-21.121-6.916-5.479-2.748-8.557-5.902-9.194-9.47l-34.307-.353c-3.023-.018-5.699-.255-8.105-.713-2.366-.458-3.571-1.066-3.575-1.827l-.016-3.432 46.905.446c2.076-3.614 6.324-6.766 12.824-9.447 6.499-2.685 14.434-5.072 23.804-7.162l15.71 2.157c4.771.67 7.139 1.454 7.144 2.355.002.487-.965 1.088-2.937 1.808-2.013.721-4.334 1.582-7.043 2.581a64.814 64.814 0 0 0-7.813 3.524c-2.552 1.346-4.444 2.87-5.714 4.577l115.282 1.151zm-115.724 4.676c.942 2.251 3.044 4.187 6.231 5.817 3.186 1.635 7.147 2.973 11.921 4.024 4.773 1.051 10.126 1.82 16.058 2.312 5.972.491 12.215.722 18.726.691 7.597-.037 14.224-.366 19.881-.982 5.617-.621 10.575-1.457 14.873-2.519 4.259-1.062 8.013-2.291 11.184-3.693 3.172-1.404 5.994-2.924 8.544-4.565l-107.418-1.085zm275.281-3.069c-.941-2.28-3.238-4.278-6.813-5.995-3.574-1.713-8.156-3.159-13.705-4.325-5.548-1.17-12.026-2.039-19.432-2.608-7.368-.569-15.509-.834-24.425-.79-7.907.038-14.767.394-20.461 1.06-5.695.672-10.653 1.567-14.872 2.701-4.181 1.129-7.78 2.446-10.679 3.949-2.938 1.504-5.683 3.113-8.193 4.825l118.58 1.183z" style="fill:#fcb048"/><linearGradient id="o" x1="568.3" x2="582.039" y1="1018.823" y2="1133.834" gradientTransform="rotate(180 834.625 2063.92)" gradientUnits="userSpaceOnUse"><stop offset=".004" style="stop-color:#f36f56"/><stop offset=".306" style="stop-color:#f99c4c"/><stop offset=".545" style="stop-color:#fdb946"/><stop offset=".682" style="stop-color:#ffc444"/><stop offset=".804" style="stop-color:#ffc244"/><stop offset=".867" style="stop-color:#feba46"/><stop offset=".916" style="stop-color:#fcad49"/><stop offset=".958" style="stop-color:#f99a4d"/><stop offset=".996" style="stop-color:#f58152"/><stop offset="1" style="stop-color:#f57e53"/></linearGradient><path d="M1093.677 3010.491c-165.021 0-336.844 14.521-364.329 42.631a33.445 33.445 0 0 1 3.005 3.163c23.165-19.518 165.043-39.168 361.324-39.168 201.319 0 345.472 20.675 362.934 40.672a33.783 33.783 0 0 1 2.767-3.135c-22.7-29.105-197.749-44.163-365.701-44.163z" style="fill:url(#o)"/><linearGradient id="p" x1="557.364" x2="1408.918" y1="3032.155" y2="3032.155" gradientUnits="userSpaceOnUse"><stop offset="0" style="stop-color:#f57e53"/><stop offset=".004" style="stop-color:#f58152"/><stop offset=".042" style="stop-color:#f99a4d"/><stop offset=".084" style="stop-color:#fcad49"/><stop offset=".133" style="stop-color:#feba46"/><stop offset=".196" style="stop-color:#ffc244"/><stop offset=".318" style="stop-color:#ffc444"/><stop offset=".455" style="stop-color:#fdb946"/><stop offset=".694" style="stop-color:#f99c4c"/><stop offset=".996" style="stop-color:#f36f56"/></linearGradient><path d="M620.642 2967.096v82.09c0 26.526 165.699 48.029 370.1 48.029 204.4 0 370.099-21.502 370.099-48.029v-82.09H620.642z" style="fill:url(#p)"/><linearGradient id="q" x1="987.055" x2="1031.948" y1="2936.231" y2="3312.052" gradientUnits="userSpaceOnUse"><stop offset="0" style="stop-color:#ffdb44"/><stop offset="1" style="stop-color:#feef06"/></linearGradient><ellipse cx="990.742" cy="2967.096" rx="370.099" ry="48.029" style="fill:url(#q)"/><linearGradient id="r" x1="985.102" x2="998.89" y1="2919.471" y2="3034.891" gradientUnits="userSpaceOnUse"><stop offset="0" style="stop-color:#ffdb44"/><stop offset="1" style="stop-color:#feef06"/></linearGradient><path d="M990.74 3018.437c-181.022 0-370.314-17.29-370.314-50.639 0-1.832.654-5.05 2.485-5.05 1.832 0 1.044 2.517 1.044 4.348 0 21.15 150.634 44.714 366.785 44.714s366.785-23.564 366.785-44.714c0-1.831.313-3.547 2.143-3.547 1.832 0 1.39 2.444 1.39 4.276.001 33.348-189.295 50.612-370.318 50.612z" style="fill:url(#r)"/><path d="M955.769 2969.773a194.693 194.693 0 0 1 11.631-7.44c4.097-2.445 9.436-4.655 15.899-6.628 6.502-1.974 14.635-3.58 24.397-4.824 9.762-1.245 21.97-1.902 36.545-1.974 14.303-.07 27.717.384 40.281 1.364 12.525.975 23.58 2.439 33.126 4.385 9.506 1.947 17.271 4.354 23.254 7.214 5.944 2.869 9.488 6.152 10.63 9.853l41.673.422c3.023.019 5.699.265 7.989.74 2.328.475 3.455 1.075 3.459 1.802l.016 3.431-53.574-.516c-1.879 4.202-6.666 8.046-14.363 11.532-7.658 3.49-17.451 6.509-29.377 9.063l-19.511-2.714c-1.745-.266-3.182-.606-4.307-1.02-1.127-.408-1.672-.855-1.674-1.341-.003-.66 1.504-1.412 4.524-2.256 3.019-.848 6.425-1.898 10.218-3.147a103.377 103.377 0 0 0 11.181-4.421c3.635-1.698 6.067-3.728 7.334-6.091l-126.452-1.254c-3.321 2.446-7.07 4.846-11.167 7.206-4.136 2.359-9.591 4.485-16.404 6.372-6.814 1.887-15.295 3.417-25.445 4.597-10.188 1.175-22.939 1.801-38.366 1.876-11.59.056-22.872-.384-33.924-1.315-11.052-.937-20.866-2.334-29.442-4.197-8.576-1.866-15.603-4.171-21.121-6.916-5.479-2.749-8.557-5.902-9.194-9.47l-34.307-.352c-3.024-.019-5.7-.255-8.105-.714-2.367-.458-3.572-1.065-3.576-1.827l-.017-3.432 46.906.448c2.076-3.616 6.324-6.767 12.823-9.448 6.499-2.685 14.434-5.072 23.805-7.162l15.71 2.156c4.771.671 7.139 1.455 7.144 2.356.003.487-.963 1.087-2.937 1.808-2.011.721-4.333 1.583-7.041 2.582a64.54 64.54 0 0 0-7.814 3.525c-2.551 1.345-4.443 2.868-5.714 4.576l115.287 1.151zm-115.725 4.675c.941 2.25 3.044 4.187 6.231 5.817 3.187 1.635 7.147 2.973 11.92 4.024 4.773 1.052 10.126 1.821 16.06 2.312 5.971.491 12.214.723 18.726.691 7.598-.037 14.224-.366 19.881-.982 5.618-.62 10.575-1.457 14.872-2.519 4.258-1.061 8.013-2.289 11.184-3.693 3.172-1.403 5.994-2.923 8.545-4.564l-107.419-1.086zm275.282-3.067c-.942-2.28-3.239-4.279-6.813-5.996-3.575-1.713-8.155-3.159-13.704-4.324-5.549-1.17-12.027-2.04-19.434-2.608-7.368-.569-15.509-.834-24.424-.79-7.908.039-14.767.394-20.462 1.061-5.695.67-10.652 1.566-14.872 2.699-4.18 1.13-7.779 2.446-10.679 3.95-2.939 1.504-5.684 3.112-8.195 4.825l118.583 1.183z" style="fill:#fcb048"/><linearGradient id="s" x1="671.185" x2="684.924" y1="1105.048" y2="1220.06" gradientTransform="rotate(180 834.625 2063.92)" gradientUnits="userSpaceOnUse"><stop offset=".004" style="stop-color:#f36f56"/><stop offset=".306" style="stop-color:#f99c4c"/><stop offset=".545" style="stop-color:#fdb946"/><stop offset=".682" style="stop-color:#ffc444"/><stop offset=".804" style="stop-color:#ffc244"/><stop offset=".867" style="stop-color:#feba46"/><stop offset=".916" style="stop-color:#fcad49"/><stop offset=".958" style="stop-color:#f99a4d"/><stop offset=".996" style="stop-color:#f58152"/><stop offset="1" style="stop-color:#f57e53"/></linearGradient><path d="M990.792 2924.265c-165.021 0-336.844 14.521-364.328 42.631a33.434 33.434 0 0 1 3.004 3.163c23.166-19.518 165.044-39.167 361.324-39.167 201.319 0 345.471 20.675 362.933 40.673a33.806 33.806 0 0 1 2.768-3.136c-22.7-29.105-197.749-44.164-365.701-44.164z" style="fill:url(#s)"/><linearGradient id="t" x1="646.141" x2="1497.695" y1="2946.183" y2="2946.183" gradientUnits="userSpaceOnUse"><stop offset="0" style="stop-color:#f57e53"/><stop offset=".004" style="stop-color:#f58152"/><stop offset=".042" style="stop-color:#f99a4d"/><stop offset=".084" style="stop-color:#fcad49"/><stop offset=".133" style="stop-color:#feba46"/><stop offset=".196" style="stop-color:#ffc244"/><stop offset=".318" style="stop-color:#ffc444"/><stop offset=".455" style="stop-color:#fdb946"/><stop offset=".694" style="stop-color:#f99c4c"/><stop offset=".996" style="stop-color:#f36f56"/></linearGradient><path d="M709.419 2881.124v82.089c0 26.526 165.699 48.029 370.099 48.029 204.4 0 370.1-21.502 370.1-48.029v-82.089H709.419z" style="fill:url(#t)"/><linearGradient id="u" x1="1075.831" x2="1120.724" y1="2850.258" y2="3226.08" gradientUnits="userSpaceOnUse"><stop offset="0" style="stop-color:#ffdb44"/><stop offset="1" style="stop-color:#feef06"/></linearGradient><path d="M1449.617 2881.123c0 26.526-165.699 48.029-370.099 48.029s-370.1-21.504-370.1-48.029c0-26.526 165.7-48.029 370.1-48.029s370.099 21.503 370.099 48.029z" style="fill:url(#u)"/><linearGradient id="v" x1="1073.879" x2="1087.666" y1="2833.498" y2="2948.919" gradientUnits="userSpaceOnUse"><stop offset="0" style="stop-color:#ffdb44"/><stop offset="1" style="stop-color:#feef06"/></linearGradient><path d="M1079.517 2932.464c-181.022 0-370.314-17.291-370.314-50.64 0-1.832.653-5.051 2.485-5.051 1.831 0 1.043 2.518 1.043 4.35 0 21.149 150.634 44.713 366.785 44.713s366.785-23.564 366.785-44.713c0-1.832.313-3.548 2.143-3.548 1.832 0 1.39 2.444 1.39 4.276.001 33.349-189.295 50.613-370.317 50.613z" style="fill:url(#v)"/><path d="M1044.545 2883.8a194.693 194.693 0 0 1 11.631-7.44c4.097-2.445 9.436-4.655 15.9-6.628 6.502-1.975 14.635-3.58 24.397-4.825 9.762-1.245 21.97-1.902 36.544-1.973 14.303-.07 27.718.384 40.281 1.363 12.526.975 23.58 2.44 33.125 4.386 9.507 1.946 17.271 4.354 23.255 7.214 5.944 2.869 9.488 6.152 10.63 9.853l41.673.422c3.024.019 5.699.264 7.989.74 2.328.476 3.455 1.075 3.459 1.802l.016 3.431-53.573-.516c-1.879 4.203-6.667 8.047-14.364 11.532-7.658 3.491-17.451 6.509-29.376 9.063l-19.512-2.714c-1.745-.266-3.182-.606-4.307-1.02-1.126-.408-1.671-.855-1.674-1.341-.003-.661 1.505-1.413 4.525-2.256 3.019-.848 6.425-1.897 10.218-3.147a103.18 103.18 0 0 0 11.181-4.422c3.635-1.697 6.068-3.727 7.334-6.09l-126.452-1.254c-3.321 2.445-7.07 4.845-11.167 7.205-4.136 2.36-9.591 4.486-16.404 6.372-6.814 1.887-15.295 3.417-25.445 4.597-10.189 1.175-22.939 1.801-38.367 1.876-11.59.056-22.872-.384-33.924-1.315-11.052-.936-20.867-2.334-29.442-4.197-8.576-1.866-15.603-4.171-21.121-6.916-5.479-2.749-8.556-5.903-9.194-9.47l-34.307-.352c-3.024-.019-5.699-.256-8.105-.714-2.367-.458-3.572-1.066-3.576-1.827l-.016-3.432 46.905.447c2.076-3.615 6.325-6.766 12.824-9.448 6.499-2.685 14.434-5.072 23.804-7.161l15.71 2.156c4.771.67 7.14 1.455 7.144 2.356.003.486-.963 1.087-2.937 1.808-2.011.72-4.333 1.583-7.042 2.582a64.674 64.674 0 0 0-7.813 3.524c-2.552 1.345-4.444 2.869-5.714 4.576l115.287 1.153zm-115.724 4.677c.941 2.25 3.044 4.186 6.231 5.816 3.186 1.634 7.147 2.973 11.919 4.025 4.773 1.052 10.126 1.82 16.06 2.312 5.972.491 12.214.723 18.726.691 7.598-.038 14.224-.366 19.881-.982 5.618-.619 10.576-1.456 14.872-2.518 4.259-1.061 8.013-2.29 11.185-3.694 3.172-1.403 5.994-2.924 8.545-4.565l-107.419-1.085zm275.281-3.069c-.942-2.28-3.238-4.279-6.812-5.996-3.575-1.712-8.156-3.158-13.705-4.324-5.549-1.17-12.027-2.04-19.434-2.608-7.367-.569-15.509-.834-24.425-.79-7.908.039-14.767.394-20.462 1.061-5.695.67-10.652 1.566-14.871 2.7-4.181 1.129-7.78 2.445-10.68 3.949-2.939 1.504-5.683 3.112-8.195 4.825l118.584 1.183z" style="fill:#fcb048"/><linearGradient id="w" x1="582.409" x2="596.148" y1="1191.02" y2="1306.032" gradientTransform="rotate(180 834.625 2063.92)" gradientUnits="userSpaceOnUse"><stop offset=".004" style="stop-color:#f36f56"/><stop offset=".306" style="stop-color:#f99c4c"/><stop offset=".545" style="stop-color:#fdb946"/><stop offset=".682" style="stop-color:#ffc444"/><stop offset=".804" style="stop-color:#ffc244"/><stop offset=".867" style="stop-color:#feba46"/><stop offset=".916" style="stop-color:#fcad49"/><stop offset=".958" style="stop-color:#f99a4d"/><stop offset=".996" style="stop-color:#f58152"/><stop offset="1" style="stop-color:#f57e53"/></linearGradient><path d="M1079.568 2838.293c-165.021 0-336.844 14.521-364.328 42.631a33.313 33.313 0 0 1 3.004 3.163c23.165-19.518 165.044-39.167 361.324-39.167 201.319 0 345.472 20.674 362.933 40.672a33.823 33.823 0 0 1 2.768-3.136c-22.7-29.104-197.749-44.163-365.701-44.163z" style="fill:url(#w)"/><linearGradient id="x" x1="700.013" x2="1551.567" y1="2859.957" y2="2859.957" gradientUnits="userSpaceOnUse"><stop offset="0" style="stop-color:#f57e53"/><stop offset=".004" style="stop-color:#f58152"/><stop offset=".042" style="stop-color:#f99a4d"/><stop offset=".084" style="stop-color:#fcad49"/><stop offset=".133" style="stop-color:#feba46"/><stop offset=".196" style="stop-color:#ffc244"/><stop offset=".318" style="stop-color:#ffc444"/><stop offset=".455" style="stop-color:#fdb946"/><stop offset=".694" style="stop-color:#f99c4c"/><stop offset=".996" style="stop-color:#f36f56"/></linearGradient><path d="M763.291 2794.898v82.089c0 26.526 165.699 48.029 370.099 48.029 204.4 0 370.1-21.502 370.1-48.029v-82.089H763.291z" style="fill:url(#x)"/><linearGradient id="y" x1="1129.703" x2="1174.596" y1="2764.033" y2="3139.854" gradientUnits="userSpaceOnUse"><stop offset="0" style="stop-color:#ffdb44"/><stop offset="1" style="stop-color:#feef06"/></linearGradient><ellipse cx="1133.39" cy="2794.898" rx="370.099" ry="48.029" style="fill:url(#y)"/><linearGradient id="z" x1="1127.751" x2="1141.538" y1="2747.273" y2="2862.693" gradientUnits="userSpaceOnUse"><stop offset="0" style="stop-color:#ffdb44"/><stop offset="1" style="stop-color:#feef06"/></linearGradient><path d="M1133.389 2846.238c-181.023 0-370.314-17.29-370.314-50.639 0-1.832.653-5.051 2.485-5.051 1.832 0 1.044 2.518 1.044 4.349 0 21.149 150.634 44.713 366.785 44.713 216.151 0 366.785-23.563 366.785-44.713 0-1.832.312-3.547 2.143-3.547s1.39 2.443 1.39 4.275c.001 33.35-189.296 50.613-370.318 50.613z" style="fill:url(#z)"/><path d="M1098.417 2797.575a194.372 194.372 0 0 1 11.631-7.44c4.097-2.445 9.435-4.654 15.899-6.628 6.502-1.974 14.635-3.579 24.397-4.825 9.762-1.245 21.97-1.902 36.544-1.973 14.303-.07 27.718.384 40.282 1.364 12.526.975 23.58 2.44 33.125 4.386 9.507 1.946 17.271 4.354 23.255 7.214 5.945 2.868 9.489 6.152 10.63 9.852l41.673.422c3.024.019 5.7.264 7.989.739 2.328.476 3.455 1.075 3.459 1.802l.017 3.432-53.574-.516c-1.879 4.202-6.667 8.046-14.363 11.532-7.658 3.49-17.45 6.509-29.376 9.063l-19.512-2.713c-1.746-.267-3.181-.607-4.307-1.019-1.126-.41-1.671-.855-1.674-1.342-.003-.66 1.505-1.412 4.525-2.256 3.019-.848 6.426-1.898 10.219-3.147a103.459 103.459 0 0 0 11.181-4.421c3.635-1.698 6.068-3.728 7.335-6.091l-126.452-1.253c-3.321 2.445-7.07 4.845-11.167 7.205-4.136 2.36-9.591 4.485-16.404 6.372-6.813 1.887-15.295 3.418-25.445 4.597-10.189 1.176-22.939 1.801-38.366 1.876-11.59.057-22.872-.382-33.924-1.314-11.053-.936-20.867-2.335-29.443-4.197-8.576-1.866-15.603-4.171-21.121-6.916-5.479-2.749-8.557-5.903-9.194-9.471l-34.307-.352c-3.023-.019-5.699-.255-8.105-.713-2.367-.458-3.572-1.066-3.576-1.828l-.016-3.43 46.905.447c2.076-3.615 6.325-6.767 12.824-9.448 6.499-2.685 14.434-5.072 23.804-7.161l15.71 2.156c4.771.67 7.139 1.455 7.144 2.355.002.487-.964 1.088-2.937 1.809-2.012.72-4.334 1.583-7.042 2.581a64.595 64.595 0 0 0-7.813 3.525c-2.552 1.345-4.443 2.87-5.714 4.576l115.284 1.149zm-115.725 4.676c.942 2.25 3.044 4.186 6.231 5.817 3.186 1.634 7.147 2.973 11.92 4.025 4.773 1.051 10.126 1.82 16.059 2.312 5.972.49 12.214.723 18.726.691 7.598-.038 14.224-.366 19.881-.982 5.618-.62 10.576-1.457 14.873-2.518 4.258-1.062 8.013-2.291 11.184-3.694 3.172-1.403 5.994-2.923 8.545-4.565l-107.419-1.086zm275.282-3.068c-.941-2.281-3.238-4.279-6.812-5.997-3.575-1.712-8.156-3.158-13.705-4.324-5.549-1.17-12.026-2.04-19.433-2.608-7.368-.569-15.509-.833-24.424-.79-7.908.04-14.767.395-20.462 1.061-5.695.671-10.653 1.567-14.872 2.7-4.181 1.129-7.78 2.446-10.68 3.949-2.939 1.504-5.683 3.112-8.194 4.825l118.582 1.184z" style="fill:#fcb048"/><linearGradient id="A" x1="528.538" x2="542.276" y1="1277.246" y2="1392.257" gradientTransform="rotate(180 834.625 2063.92)" gradientUnits="userSpaceOnUse"><stop offset=".004" style="stop-color:#f36f56"/><stop offset=".306" style="stop-color:#f99c4c"/><stop offset=".545" style="stop-color:#fdb946"/><stop offset=".682" style="stop-color:#ffc444"/><stop offset=".804" style="stop-color:#ffc244"/><stop offset=".867" style="stop-color:#feba46"/><stop offset=".916" style="stop-color:#fcad49"/><stop offset=".958" style="stop-color:#f99a4d"/><stop offset=".996" style="stop-color:#f58152"/><stop offset="1" style="stop-color:#f57e53"/></linearGradient><path d="M1133.44 2752.068c-165.021 0-336.843 14.521-364.328 42.631a33.555 33.555 0 0 1 3.004 3.163c23.166-19.517 165.044-39.167 361.324-39.167 201.319 0 345.472 20.674 362.934 40.672a33.93 33.93 0 0 1 2.767-3.135c-22.7-29.106-197.749-44.164-365.701-44.164z" style="fill:url(#A)"/><linearGradient id="B" x1="660.25" x2="1511.803" y1="2766.93" y2="2766.93" gradientUnits="userSpaceOnUse"><stop offset="0" style="stop-color:#f57e53"/><stop offset=".004" style="stop-color:#f58152"/><stop offset=".042" style="stop-color:#f99a4d"/><stop offset=".084" style="stop-color:#fcad49"/><stop offset=".133" style="stop-color:#feba46"/><stop offset=".196" style="stop-color:#ffc244"/><stop offset=".318" style="stop-color:#ffc444"/><stop offset=".455" style="stop-color:#fdb946"/><stop offset=".694" style="stop-color:#f99c4c"/><stop offset=".996" style="stop-color:#f36f56"/></linearGradient><path d="M723.528 2701.871v82.089c0 26.526 165.699 48.029 370.098 48.029 204.401 0 370.1-21.502 370.1-48.029v-82.089H723.528z" style="fill:url(#B)"/><linearGradient id="C" x1="1089.94" x2="1134.833" y1="2671.005" y2="3046.827" gradientUnits="userSpaceOnUse"><stop offset="0" style="stop-color:#ffdb44"/><stop offset="1" style="stop-color:#feef06"/></linearGradient><ellipse cx="1093.627" cy="2701.87" rx="370.099" ry="48.029" style="fill:url(#C)"/><linearGradient id="D" x1="1087.988" x2="1101.775" y1="2654.246" y2="2769.666" gradientUnits="userSpaceOnUse"><stop offset="0" style="stop-color:#ffdb44"/><stop offset="1" style="stop-color:#feef06"/></linearGradient><path d="M1093.626 2753.211c-181.023 0-370.314-17.29-370.314-50.639 0-1.832.653-5.051 2.485-5.051 1.832 0 1.044 2.518 1.044 4.349 0 21.15 150.634 44.713 366.785 44.713s366.785-23.563 366.785-44.713c0-1.831.313-3.547 2.144-3.547 1.831 0 1.39 2.444 1.39 4.275 0 33.35-189.296 50.613-370.319 50.613z" style="fill:url(#D)"/><path d="M1058.654 2704.547a194.085 194.085 0 0 1 11.632-7.44c4.097-2.445 9.435-4.654 15.899-6.628 6.502-1.974 14.635-3.579 24.398-4.824 9.762-1.245 21.969-1.902 36.543-1.973 14.304-.07 27.718.384 40.283 1.364 12.525.975 23.58 2.44 33.125 4.386 9.507 1.946 17.271 4.354 23.255 7.214 5.945 2.868 9.488 6.152 10.63 9.852l41.673.422c3.024.018 5.7.264 7.989.739 2.328.475 3.456 1.075 3.459 1.802l.017 3.432-53.574-.516c-1.879 4.202-6.667 8.046-14.364 11.532-7.657 3.49-17.45 6.508-29.377 9.063l-19.511-2.713c-1.745-.267-3.181-.607-4.308-1.019-1.125-.41-1.671-.855-1.673-1.342-.003-.66 1.505-1.412 4.525-2.256 3.019-.848 6.426-1.898 10.218-3.147a103.377 103.377 0 0 0 11.181-4.421c3.636-1.698 6.068-3.728 7.336-6.091l-126.452-1.254c-3.322 2.445-7.07 4.845-11.167 7.205-4.137 2.36-9.591 4.485-16.405 6.372-6.813 1.886-15.295 3.418-25.444 4.597-10.19 1.175-22.939 1.801-38.366 1.876-11.59.057-22.873-.382-33.924-1.314-11.052-.936-20.866-2.335-29.442-4.197-8.576-1.866-15.603-4.171-21.121-6.916-5.479-2.749-8.557-5.903-9.194-9.471l-34.307-.352c-3.023-.019-5.699-.255-8.105-.713-2.366-.458-3.571-1.066-3.575-1.828l-.016-3.43 46.905.447c2.076-3.615 6.324-6.767 12.824-9.448 6.499-2.684 14.434-5.072 23.804-7.161l15.71 2.157c4.771.67 7.139 1.454 7.144 2.355.002.487-.965 1.088-2.937 1.808-2.013.72-4.334 1.583-7.043 2.582a64.665 64.665 0 0 0-7.813 3.525c-2.552 1.346-4.444 2.87-5.714 4.576l115.282 1.148zm-115.724 4.676c.942 2.25 3.044 4.187 6.231 5.817 3.186 1.634 7.147 2.973 11.921 4.025 4.773 1.051 10.126 1.82 16.058 2.312 5.972.49 12.215.723 18.726.691 7.597-.037 14.224-.366 19.881-.982 5.617-.62 10.575-1.457 14.873-2.518 4.259-1.062 8.013-2.291 11.184-3.695 3.172-1.403 5.994-2.923 8.544-4.564l-107.418-1.086zm275.281-3.067c-.941-2.281-3.238-4.279-6.813-5.997-3.574-1.712-8.156-3.158-13.705-4.324-5.548-1.17-12.026-2.04-19.432-2.608-7.368-.569-15.509-.833-24.425-.79-7.907.039-14.767.395-20.461 1.061-5.695.671-10.653 1.567-14.872 2.7-4.181 1.129-7.78 2.445-10.679 3.949-2.938 1.504-5.683 3.112-8.193 4.825l118.58 1.184z" style="fill:#fcb048"/><linearGradient id="E" x1="568.3" x2="582.039" y1="1370.273" y2="1485.285" gradientTransform="rotate(180 834.625 2063.92)" gradientUnits="userSpaceOnUse"><stop offset=".004" style="stop-color:#f36f56"/><stop offset=".306" style="stop-color:#f99c4c"/><stop offset=".545" style="stop-color:#fdb946"/><stop offset=".682" style="stop-color:#ffc444"/><stop offset=".804" style="stop-color:#ffc244"/><stop offset=".867" style="stop-color:#feba46"/><stop offset=".916" style="stop-color:#fcad49"/><stop offset=".958" style="stop-color:#f99a4d"/><stop offset=".996" style="stop-color:#f58152"/><stop offset="1" style="stop-color:#f57e53"/></linearGradient><path d="M1093.677 2659.04c-165.021 0-336.844 14.521-364.329 42.631a33.566 33.566 0 0 1 3.005 3.163c23.165-19.516 165.043-39.167 361.324-39.167 201.319 0 345.472 20.674 362.934 40.672a33.654 33.654 0 0 1 2.767-3.135c-22.7-29.105-197.749-44.164-365.701-44.164z" style="fill:url(#E)"/><linearGradient id="F" x1="557.364" x2="1408.918" y1="2680.705" y2="2680.705" gradientUnits="userSpaceOnUse"><stop offset="0" style="stop-color:#f57e53"/><stop offset=".004" style="stop-color:#f58152"/><stop offset=".042" style="stop-color:#f99a4d"/><stop offset=".084" style="stop-color:#fcad49"/><stop offset=".133" style="stop-color:#feba46"/><stop offset=".196" style="stop-color:#ffc244"/><stop offset=".318" style="stop-color:#ffc444"/><stop offset=".455" style="stop-color:#fdb946"/><stop offset=".694" style="stop-color:#f99c4c"/><stop offset=".996" style="stop-color:#f36f56"/></linearGradient><path d="M620.642 2615.646v82.089c0 26.526 165.699 48.029 370.1 48.029 204.4 0 370.099-21.503 370.099-48.029v-82.089H620.642z" style="fill:url(#F)"/><linearGradient id="G" x1="987.055" x2="1031.948" y1="2584.78" y2="2960.601" gradientUnits="userSpaceOnUse"><stop offset="0" style="stop-color:#ffdb44"/><stop offset="1" style="stop-color:#feef06"/></linearGradient><ellipse cx="990.742" cy="2615.645" rx="370.099" ry="48.029" style="fill:url(#G)"/><linearGradient id="H" x1="985.102" x2="998.89" y1="2568.02" y2="2683.441" gradientUnits="userSpaceOnUse"><stop offset="0" style="stop-color:#ffdb44"/><stop offset="1" style="stop-color:#feef06"/></linearGradient><path d="M990.74 2666.986c-181.022 0-370.314-17.29-370.314-50.64 0-1.832.654-5.051 2.485-5.051 1.832 0 1.044 2.518 1.044 4.35 0 21.15 150.634 44.714 366.785 44.714s366.785-23.564 366.785-44.714c0-1.832.313-3.548 2.143-3.548 1.832 0 1.39 2.444 1.39 4.275.001 33.351-189.295 50.614-370.318 50.614z" style="fill:url(#H)"/><path d="M955.769 2618.323a194.694 194.694 0 0 1 11.631-7.441c4.097-2.444 9.436-4.654 15.899-6.627 6.502-1.974 14.635-3.58 24.397-4.825 9.762-1.246 21.97-1.902 36.545-1.974 14.303-.07 27.717.385 40.281 1.364 12.525.976 23.58 2.44 33.126 4.386 9.506 1.946 17.271 4.354 23.254 7.214 5.944 2.869 9.488 6.152 10.63 9.853l41.673.422c3.023.018 5.699.263 7.989.739 2.328.475 3.455 1.075 3.459 1.802l.016 3.431-53.574-.515c-1.879 4.201-6.666 8.046-14.363 11.532-7.658 3.491-17.451 6.508-29.377 9.063l-19.511-2.714c-1.745-.267-3.182-.606-4.307-1.019-1.127-.41-1.672-.855-1.674-1.342-.003-.659 1.504-1.411 4.524-2.256 3.019-.848 6.425-1.897 10.218-3.147a102.975 102.975 0 0 0 11.181-4.422c3.635-1.697 6.067-3.728 7.334-6.09l-126.452-1.254c-3.321 2.445-7.07 4.845-11.167 7.205-4.136 2.36-9.591 4.485-16.404 6.373-6.814 1.886-15.295 3.417-25.445 4.597-10.188 1.176-22.939 1.801-38.366 1.876-11.59.057-22.872-.382-33.924-1.314-11.052-.936-20.866-2.335-29.442-4.197-8.576-1.865-15.603-4.171-21.121-6.915-5.479-2.749-8.557-5.903-9.194-9.471l-34.307-.352c-3.024-.019-5.7-.256-8.105-.713-2.367-.458-3.572-1.066-3.576-1.827l-.017-3.431 46.906.447c2.076-3.615 6.324-6.767 12.823-9.448 6.499-2.684 14.434-5.072 23.805-7.161l15.71 2.157c4.771.67 7.139 1.454 7.144 2.355.003.486-.963 1.088-2.937 1.808-2.011.72-4.333 1.583-7.041 2.581a64.54 64.54 0 0 0-7.814 3.525c-2.551 1.346-4.443 2.87-5.714 4.577l115.287 1.148zm-115.725 4.675c.941 2.251 3.044 4.187 6.231 5.817 3.187 1.635 7.147 2.973 11.92 4.025 4.773 1.051 10.126 1.82 16.06 2.312 5.971.491 12.214.723 18.726.691 7.598-.038 14.224-.366 19.881-.982 5.618-.62 10.575-1.456 14.872-2.518 4.258-1.062 8.013-2.291 11.184-3.694s5.994-2.923 8.545-4.564l-107.419-1.087zm275.282-3.068c-.942-2.281-3.239-4.278-6.813-5.995-3.575-1.713-8.155-3.159-13.704-4.325-5.549-1.17-12.027-2.04-19.434-2.608-7.368-.569-15.509-.834-24.424-.79-7.908.039-14.767.394-20.462 1.061-5.695.672-10.652 1.567-14.872 2.701-4.18 1.129-7.779 2.445-10.679 3.949-2.939 1.503-5.684 3.112-8.195 4.826l118.583 1.181z" style="fill:#fcb048"/><linearGradient id="I" x1="671.186" x2="684.924" y1="1456.499" y2="1571.509" gradientTransform="rotate(180 834.625 2063.92)" gradientUnits="userSpaceOnUse"><stop offset=".004" style="stop-color:#f36f56"/><stop offset=".306" style="stop-color:#f99c4c"/><stop offset=".545" style="stop-color:#fdb946"/><stop offset=".682" style="stop-color:#ffc444"/><stop offset=".804" style="stop-color:#ffc244"/><stop offset=".867" style="stop-color:#feba46"/><stop offset=".916" style="stop-color:#fcad49"/><stop offset=".958" style="stop-color:#f99a4d"/><stop offset=".996" style="stop-color:#f58152"/><stop offset="1" style="stop-color:#f57e53"/></linearGradient><path d="M990.792 2572.815c-165.021 0-336.844 14.521-364.328 42.631a33.434 33.434 0 0 1 3.004 3.163c23.166-19.517 165.044-39.167 361.324-39.167 201.319 0 345.471 20.674 362.933 40.671a33.794 33.794 0 0 1 2.768-3.135c-22.7-29.105-197.749-44.163-365.701-44.163z" style="fill:url(#I)"/><linearGradient id="J" x1="646.141" x2="1497.695" y1="2594.732" y2="2594.732" gradientUnits="userSpaceOnUse"><stop offset="0" style="stop-color:#f57e53"/><stop offset=".004" style="stop-color:#f58152"/><stop offset=".042" style="stop-color:#f99a4d"/><stop offset=".084" style="stop-color:#fcad49"/><stop offset=".133" style="stop-color:#feba46"/><stop offset=".196" style="stop-color:#ffc244"/><stop offset=".318" style="stop-color:#ffc444"/><stop offset=".455" style="stop-color:#fdb946"/><stop offset=".694" style="stop-color:#f99c4c"/><stop offset=".996" style="stop-color:#f36f56"/></linearGradient><path d="M709.419 2529.672v82.091c0 26.526 165.699 48.029 370.099 48.029 204.4 0 370.1-21.503 370.1-48.029v-82.091H709.419z" style="fill:url(#J)"/><linearGradient id="K" x1="1075.831" x2="1120.724" y1="2498.808" y2="2874.628" gradientUnits="userSpaceOnUse"><stop offset="0" style="stop-color:#ffdb44"/><stop offset="1" style="stop-color:#feef06"/></linearGradient><ellipse cx="1079.518" cy="2529.672" rx="370.099" ry="48.029" style="fill:url(#K)"/><linearGradient id="L" x1="1073.879" x2="1087.666" y1="2482.047" y2="2597.468" gradientUnits="userSpaceOnUse"><stop offset="0" style="stop-color:#ffdb44"/><stop offset="1" style="stop-color:#feef06"/></linearGradient><path d="M1079.517 2581.013c-181.022 0-370.314-17.29-370.314-50.64 0-1.832.653-5.051 2.485-5.051 1.831 0 1.043 2.518 1.043 4.349 0 21.15 150.634 44.714 366.785 44.714s366.785-23.563 366.785-44.714c0-1.832.313-3.547 2.143-3.547 1.832 0 1.39 2.444 1.39 4.275.001 33.351-189.295 50.614-370.317 50.614z" style="fill:url(#L)"/><path d="M1044.545 2532.35a194.694 194.694 0 0 1 11.631-7.441c4.097-2.445 9.436-4.653 15.9-6.628 6.502-1.973 14.635-3.579 24.397-4.824 9.762-1.246 21.97-1.902 36.544-1.973 14.303-.07 27.718.385 40.281 1.363 12.526.976 23.58 2.44 33.125 4.386 9.507 1.947 17.271 4.354 23.255 7.214 5.944 2.869 9.488 6.152 10.63 9.853l41.673.422c3.024.02 5.699.264 7.989.739 2.328.475 3.455 1.075 3.459 1.803l.016 3.431-53.573-.515c-1.879 4.202-6.667 8.046-14.364 11.533-7.658 3.49-17.451 6.508-29.376 9.063l-19.512-2.713c-1.745-.267-3.182-.606-4.307-1.02-1.126-.409-1.671-.855-1.674-1.342-.003-.66 1.505-1.412 4.525-2.256 3.019-.848 6.425-1.897 10.218-3.147a102.967 102.967 0 0 0 11.181-4.421c3.635-1.698 6.068-3.728 7.334-6.091l-126.452-1.254c-3.321 2.445-7.07 4.845-11.167 7.205-4.136 2.36-9.591 4.486-16.404 6.372-6.814 1.887-15.295 3.418-25.445 4.597-10.189 1.176-22.939 1.801-38.367 1.877-11.59.056-22.872-.383-33.924-1.315-11.052-.936-20.867-2.334-29.442-4.196-8.576-1.866-15.603-4.172-21.121-6.916-5.479-2.749-8.556-5.903-9.194-9.47l-34.307-.353c-3.024-.02-5.699-.255-8.105-.713-2.367-.458-3.572-1.066-3.576-1.827l-.016-3.432 46.905.446c2.076-3.615 6.325-6.767 12.824-9.447 6.499-2.685 14.434-5.072 23.804-7.162l15.71 2.157c4.771.67 7.14 1.454 7.144 2.355.003.487-.963 1.088-2.937 1.808-2.011.72-4.333 1.583-7.042 2.582a64.52 64.52 0 0 0-7.813 3.524c-2.552 1.345-4.444 2.87-5.714 4.577l115.287 1.149zm-115.724 4.675c.941 2.251 3.044 4.186 6.231 5.817 3.186 1.635 7.147 2.973 11.919 4.025 4.773 1.051 10.126 1.82 16.06 2.312 5.972.491 12.214.723 18.726.691 7.598-.037 14.224-.366 19.881-.982 5.618-.62 10.576-1.457 14.872-2.518 4.259-1.062 8.013-2.291 11.185-3.693 3.172-1.404 5.994-2.924 8.545-4.566l-107.419-1.086zm275.281-3.068c-.942-2.28-3.238-4.279-6.812-5.995-3.575-1.713-8.156-3.159-13.705-4.325-5.549-1.171-12.027-2.04-19.434-2.608-7.367-.569-15.509-.834-24.425-.79-7.908.039-14.767.394-20.462 1.061-5.695.672-10.652 1.568-14.871 2.701-4.181 1.129-7.78 2.446-10.68 3.948-2.939 1.504-5.683 3.114-8.195 4.826l118.584 1.182z" style="fill:#fcb048"/><linearGradient id="M" x1="582.409" x2="596.148" y1="1542.472" y2="1657.482" gradientTransform="rotate(180 834.625 2063.92)" gradientUnits="userSpaceOnUse"><stop offset=".004" style="stop-color:#f36f56"/><stop offset=".306" style="stop-color:#f99c4c"/><stop offset=".545" style="stop-color:#fdb946"/><stop offset=".682" style="stop-color:#ffc444"/><stop offset=".804" style="stop-color:#ffc244"/><stop offset=".867" style="stop-color:#feba46"/><stop offset=".916" style="stop-color:#fcad49"/><stop offset=".958" style="stop-color:#f99a4d"/><stop offset=".996" style="stop-color:#f58152"/><stop offset="1" style="stop-color:#f57e53"/></linearGradient><path d="M1079.568 2486.843c-165.021 0-336.844 14.521-364.328 42.631a33.313 33.313 0 0 1 3.004 3.163c23.165-19.518 165.044-39.168 361.324-39.168 201.319 0 345.472 20.674 362.933 40.672a33.811 33.811 0 0 1 2.768-3.135c-22.7-29.106-197.749-44.163-365.701-44.163z" style="fill:url(#M)"/><linearGradient id="N" x1="599.965" x2="1451.518" y1="2508.507" y2="2508.507" gradientUnits="userSpaceOnUse"><stop offset="0" style="stop-color:#f57e53"/><stop offset=".004" style="stop-color:#f58152"/><stop offset=".042" style="stop-color:#f99a4d"/><stop offset=".084" style="stop-color:#fcad49"/><stop offset=".133" style="stop-color:#feba46"/><stop offset=".196" style="stop-color:#ffc244"/><stop offset=".318" style="stop-color:#ffc444"/><stop offset=".455" style="stop-color:#fdb946"/><stop offset=".694" style="stop-color:#f99c4c"/><stop offset=".996" style="stop-color:#f36f56"/></linearGradient><path d="M663.243 2443.448v82.09c0 26.526 165.698 48.029 370.099 48.029s370.099-21.502 370.099-48.029v-82.09H663.243z" style="fill:url(#N)"/><linearGradient id="O" x1="1029.655" x2="1074.548" y1="2412.582" y2="2788.404" gradientUnits="userSpaceOnUse"><stop offset="0" style="stop-color:#ffdb44"/><stop offset="1" style="stop-color:#feef06"/></linearGradient><ellipse cx="1033.341" cy="2443.447" rx="370.099" ry="48.029" style="fill:url(#O)"/><linearGradient id="P" x1="1027.703" x2="1041.49" y1="2395.822" y2="2511.243" gradientUnits="userSpaceOnUse"><stop offset="0" style="stop-color:#ffdb44"/><stop offset="1" style="stop-color:#feef06"/></linearGradient><path d="M1033.341 2494.789c-181.023 0-370.314-17.29-370.314-50.64 0-1.831.653-5.051 2.485-5.051 1.831 0 1.044 2.518 1.044 4.35 0 21.15 150.634 44.714 366.785 44.714 216.151 0 366.785-23.564 366.785-44.714 0-1.832.313-3.547 2.144-3.547 1.832 0 1.39 2.443 1.39 4.276-.001 33.347-189.297 50.612-370.319 50.612z" style="fill:url(#P)"/><path d="M998.369 2446.124a194.372 194.372 0 0 1 11.631-7.44c4.097-2.444 9.435-4.654 15.899-6.628 6.502-1.974 14.635-3.58 24.397-4.825 9.762-1.245 21.969-1.901 36.544-1.973 14.304-.07 27.718.384 40.282 1.363 12.525.976 23.58 2.44 33.125 4.386 9.507 1.946 17.272 4.354 23.256 7.214 5.944 2.87 9.488 6.152 10.63 9.854l41.673.421c3.023.019 5.699.263 7.989.74 2.328.476 3.455 1.074 3.459 1.802l.016 3.432-53.574-.516c-1.879 4.203-6.666 8.046-14.363 11.532-7.658 3.49-17.45 6.509-29.377 9.064l-19.511-2.714c-1.745-.266-3.182-.606-4.308-1.02-1.126-.408-1.671-.855-1.673-1.341-.003-.66 1.504-1.412 4.524-2.257 3.019-.848 6.426-1.897 10.218-3.147a103.091 103.091 0 0 0 11.181-4.421c3.636-1.698 6.068-3.727 7.336-6.091l-126.452-1.254c-3.322 2.444-7.07 4.845-11.167 7.205-4.136 2.36-9.591 4.486-16.405 6.372-6.812 1.886-15.295 3.417-25.444 4.597-10.189 1.176-22.939 1.801-38.366 1.877-11.59.056-22.872-.384-33.924-1.315-11.052-.936-20.866-2.334-29.442-4.196-8.576-1.866-15.603-4.172-21.121-6.916-5.479-2.748-8.557-5.903-9.195-9.47l-34.307-.353c-3.023-.018-5.699-.255-8.105-.713-2.367-.458-3.572-1.066-3.575-1.827l-.017-3.432 46.906.446c2.076-3.615 6.324-6.766 12.823-9.446 6.499-2.685 14.434-5.073 23.805-7.162l15.71 2.157c4.771.67 7.139 1.455 7.144 2.356.003.487-.963 1.088-2.937 1.808-2.012.721-4.333 1.583-7.042 2.582a64.52 64.52 0 0 0-7.813 3.524c-2.551 1.345-4.443 2.869-5.714 4.576l115.284 1.149zm-115.725 4.676c.942 2.25 3.044 4.186 6.23 5.816 3.187 1.635 7.147 2.974 11.921 4.025 4.773 1.051 10.126 1.82 16.059 2.312 5.972.491 12.214.722 18.726.691 7.598-.038 14.224-.366 19.882-.982 5.617-.62 10.574-1.457 14.872-2.519 4.259-1.061 8.013-2.29 11.185-3.693 3.172-1.403 5.994-2.924 8.544-4.565l-107.419-1.085zm275.282-3.068c-.942-2.279-3.239-4.278-6.813-5.996-3.575-1.713-8.156-3.158-13.704-4.325-5.549-1.17-12.027-2.039-19.434-2.608-7.368-.569-15.509-.833-24.425-.789-7.907.038-14.767.393-20.461 1.061-5.695.671-10.653 1.567-14.872 2.7-4.181 1.13-7.779 2.446-10.679 3.949-2.939 1.504-5.683 3.113-8.194 4.826l118.582 1.182z" style="fill:#fcb048"/><linearGradient id="Q" x1="628.585" x2="642.324" y1="1628.697" y2="1743.708" gradientTransform="rotate(180 834.625 2063.92)" gradientUnits="userSpaceOnUse"><stop offset=".004" style="stop-color:#f36f56"/><stop offset=".306" style="stop-color:#f99c4c"/><stop offset=".545" style="stop-color:#fdb946"/><stop offset=".682" style="stop-color:#ffc444"/><stop offset=".804" style="stop-color:#ffc244"/><stop offset=".867" style="stop-color:#feba46"/><stop offset=".916" style="stop-color:#fcad49"/><stop offset=".958" style="stop-color:#f99a4d"/><stop offset=".996" style="stop-color:#f58152"/><stop offset="1" style="stop-color:#f57e53"/></linearGradient><path d="M1033.392 2400.617c-165.02 0-336.844 14.521-364.328 42.631a33.313 33.313 0 0 1 3.004 3.163c23.166-19.518 165.044-39.167 361.324-39.167 201.319 0 345.472 20.673 362.934 40.672a33.66 33.66 0 0 1 2.768-3.136c-22.702-29.105-197.75-44.163-365.702-44.163z" style="fill:url(#Q)"/><linearGradient id="R" x1="1753.753" x2="2605.311" y1="2223.358" y2="2223.358" gradientTransform="rotate(54.578 1330.437 2030.999)" gradientUnits="userSpaceOnUse"><stop offset="0" style="stop-color:#f57e53"/><stop offset=".004" style="stop-color:#f58152"/><stop offset=".042" style="stop-color:#f99a4d"/><stop offset=".084" style="stop-color:#fcad49"/><stop offset=".133" style="stop-color:#feba46"/><stop offset=".196" style="stop-color:#ffc244"/><stop offset=".318" style="stop-color:#ffc444"/><stop offset=".455" style="stop-color:#fdb946"/><stop offset=".694" style="stop-color:#f99c4c"/><stop offset=".996" style="stop-color:#f36f56"/></linearGradient><path d="m1508.716 2501.318-66.893 47.581c-21.616 15.375 56.906 162.864 175.381 329.427 118.476 166.562 232.042 289.124 253.658 273.748l66.893-47.581-429.039-603.175z" style="fill:url(#R)"/><linearGradient id="S" x1="2183.444" x2="2228.331" y1="2127.443" y2="2503.217" gradientTransform="rotate(54.578 1330.437 2030.999)" gradientUnits="userSpaceOnUse"><stop offset="0" style="stop-color:#ffdb44"/><stop offset="1" style="stop-color:#feef06"/></linearGradient><path d="M1937.755 3104.492c-21.615 15.375-135.182-107.187-253.657-273.749-118.476-166.561-196.997-314.051-175.382-329.426 21.615-15.375 135.182 107.187 253.657 273.748 118.476 166.563 196.997 314.052 175.382 329.427z" style="fill:url(#S)"/><linearGradient id="T" x1="2181.493" x2="2195.278" y1="2110.691" y2="2226.092" gradientTransform="rotate(54.578 1330.437 2030.999)" gradientUnits="userSpaceOnUse"><stop offset="0" style="stop-color:#ffdb44"/><stop offset="1" style="stop-color:#feef06"/></linearGradient><path d="M1681.398 2832.663c-104.925-147.512-200.554-311.785-173.378-331.115 1.492-1.061 4.494-2.395 5.556-.902 1.061 1.493-1.447 2.31-2.939 3.372-17.234 12.259 50.875 148.666 176.163 324.803 125.287 176.138 231.8 285.229 249.035 272.97 1.492-1.062 3.071-1.802 4.133-.31 1.062 1.493-1.186 2.549-2.679 3.611-27.176 19.33-150.965-124.918-255.891-272.429z" style="fill:url(#T)"/><path d="M1700.782 2775.958a194.339 194.339 0 0 1 12.805 5.166c4.367 1.922 9.261 4.991 14.616 9.114 5.378 4.156 11.4 9.851 18.072 17.085 6.674 7.234 14.284 16.801 22.79 28.635 8.348 11.616 15.753 22.81 22.238 33.616 6.465 10.771 11.68 20.629 15.626 29.535 3.925 8.874 6.464 16.597 7.601 23.131 1.108 6.507.486 11.298-1.867 14.373l23.81 34.202c1.737 2.476 3.089 4.798 4.029 6.939.962 2.172 1.127 3.438.535 3.862l-2.786 2.003-30.633-43.955c-4.513.905-10.422-.768-17.723-5.02-7.282-4.217-15.418-10.447-24.413-18.685l-9.098-17.472c-.795-1.577-1.35-2.944-1.666-4.102-.319-1.155-.272-1.857.124-2.142.535-.385 2.022.408 4.461 2.379 2.442 1.969 5.27 4.136 8.488 6.502a102.9 102.9 0 0 0 10.083 6.548c3.491 1.979 6.554 2.783 9.214 2.447l-72.273-103.77c-3.917-1.29-8.046-2.953-12.344-4.923-4.321-2.003-9.215-5.217-14.701-9.675-5.487-4.458-11.651-10.483-18.495-18.07-6.864-7.622-14.763-17.65-23.768-30.177-6.765-9.411-12.945-18.86-18.593-28.406-5.643-9.549-10.192-18.357-13.645-26.425-3.45-8.07-5.645-15.132-6.608-21.219-.936-6.058-.15-10.394 2.388-12.982l-19.599-28.161c-1.737-2.475-3.095-4.792-4.116-7.018-.999-2.194-1.202-3.528-.584-3.972l2.786-2.003 26.824 38.482c4.149-.404 9.179 1.231 15.131 4.973 5.954 3.74 12.499 8.822 19.633 15.247l7.348 14.052c2.219 4.277 2.953 6.661 2.222 7.187-.396.284-1.445-.154-3.176-1.345-1.753-1.222-3.802-2.614-6.186-4.242a64.356 64.356 0 0 0-7.401-4.323c-2.575-1.3-4.914-1.958-7.041-2.004l65.892 94.613zm-70.887-91.592c-1.288 2.072-1.646 4.907-1.128 8.45.516 3.544 1.72 7.546 3.63 12.046 1.91 4.498 4.387 9.306 7.425 14.427 3.061 5.15 6.491 10.371 10.292 15.66 4.433 6.169 8.543 11.379 12.323 15.631 3.761 4.218 7.317 7.772 10.673 10.659 3.334 2.855 6.511 5.202 9.492 6.973 2.983 1.771 5.857 3.189 8.673 4.316l-61.38-88.162zm162.062 222.544c1.312-2.089 1.609-5.119.937-9.027-.677-3.905-2.154-8.477-4.42-13.674-2.263-5.2-5.309-10.983-9.138-17.347-3.807-6.334-8.311-13.122-13.514-20.361-4.615-6.422-8.88-11.805-12.724-16.06-3.848-4.251-7.451-7.772-10.821-10.553-3.344-2.753-6.502-4.922-9.409-6.413-2.928-1.523-5.83-2.828-8.681-3.88l67.77 97.315z" style="fill:#fcb048"/><linearGradient id="U" x1="-524.635" x2="-510.899" y1="1913.396" y2="2028.386" gradientTransform="rotate(-125.422 818.043 1808.052)" gradientUnits="userSpaceOnUse"><stop offset=".004" style="stop-color:#f36f56"/><stop offset=".306" style="stop-color:#f99c4c"/><stop offset=".545" style="stop-color:#fdb946"/><stop offset=".682" style="stop-color:#ffc444"/><stop offset=".804" style="stop-color:#ffc244"/><stop offset=".867" style="stop-color:#feba46"/><stop offset=".916" style="stop-color:#fcad49"/><stop offset=".958" style="stop-color:#f99a4d"/><stop offset=".996" style="stop-color:#f58152"/><stop offset="1" style="stop-color:#f57e53"/></linearGradient><path d="M1758.166 2778.12c-95.651-134.472-207.077-266.071-245.914-272.174a33.523 33.523 0 0 1-.836 4.281c29.331 7.565 127.58 111.789 241.35 271.734 116.69 164.052 183.398 293.502 177.224 319.323a33.52 33.52 0 0 1 4.159.438c10.559-35.369-78.633-186.741-175.983-323.602z" style="fill:url(#U)"/><linearGradient id="V" x1="1423.98" x2="1084.368" y1="967.809" y2="3854.53" gradientUnits="userSpaceOnUse"><stop offset=".004" style="stop-color:#f36f56"/><stop offset="1" style="stop-color:#ffc444"/></linearGradient><path d="M1658.714 1469.512a18.317 18.317 0 0 0-18.187-3.299l-417.94 152.309a18.31 18.31 0 0 0-11.772 14.063 18.31 18.31 0 0 0 6.321 17.216l70.427 58.665c-.12.09-.244.173-.364.263a169.331 169.331 0 0 0-6.975 5.789 553015.278 553015.278 0 0 0-125.938 110.615A493168.042 493168.042 0 0 0 1011.12 1951a18.312 18.312 0 0 0-6.217 13.974 18.337 18.337 0 0 0 6.552 13.821c80.199 67.329 160.103 134.404 239.717 201.226.642.54 1.328 1.013 2.029 1.455l-.015.013s26.79 23.71 53.58-11.296c-7.419-1.952-15.304-4.358-20.894-6.125a48081.727 48081.727 0 0 1 72.078-113.815 48773.288 48773.288 0 0 1 113.346-177.518c1.594-2.452 3.068-4.953 4.499-7.473l74.261 61.859s.579.531 1.7 1.238a18.28 18.28 0 0 0 4.667 2.195c5.737 1.988 15.474 3.178 29.774-2.09 25.039-9.225 24.999-20.466 25.941-25.227.542-2.733-15.029-5.217-28.396-6.839l81.024-409.423a18.319 18.319 0 0 0-6.052-17.463z" style="fill:url(#V)"/><linearGradient id="W" x1="1347.496" x2="1112.409" y1="1323.299" y2="3321.55" gradientUnits="userSpaceOnUse"><stop offset="0" style="stop-color:#ffc444"/><stop offset=".996" style="stop-color:#f36f56"/></linearGradient><path d="M1497.12 1681.414c-41.628-34.681-119.47-26.224-178.295 17.828a170.029 170.029 0 0 0-6.976 5.789 553015.278 553015.278 0 0 0-125.938 110.615 493168.042 493168.042 0 0 0-143.166 125.867 18.31 18.31 0 0 0-6.217 13.974 18.337 18.337 0 0 0 6.552 13.821c80.199 67.329 160.103 134.404 239.717 201.226a18.325 18.325 0 0 0 14.597 4.068 18.325 18.325 0 0 0 12.685-8.307 48304.695 48304.695 0 0 1 192.842-303.047c1.639-2.522 3.158-5.093 4.627-7.685 34.392-63.954 31.004-139.699-10.428-174.149z" style="fill:url(#W)"/><linearGradient id="X" x1="1485.231" x2="1246.81" y1="1415.993" y2="3442.583" gradientUnits="userSpaceOnUse"><stop offset="0" style="stop-color:#ffc444"/><stop offset=".996" style="stop-color:#f36f56"/></linearGradient><path d="M1690.341 1460.024a18.317 18.317 0 0 0-18.187-3.299l-417.94 152.309a18.31 18.31 0 0 0-11.772 14.063 18.31 18.31 0 0 0 6.321 17.216l332.919 277.321a18.312 18.312 0 0 0 29.687-10.516l85.022-429.63a18.314 18.314 0 0 0-6.05-17.464z" style="fill:url(#X)"/><linearGradient id="Y" x1="607.879" x2="143.978" y1="720.541" y2="1283.711" gradientTransform="rotate(-19.239 2881.86 -1882.88)" gradientUnits="userSpaceOnUse"><stop offset=".004" style="stop-color:#f36f56"/><stop offset="1" style="stop-color:#ffc444"/></linearGradient><path d="M1624.779 1314.524c9.061 52.455 10.591 96.146 3.759 98.665-6.923 2.282-32.914-32.872-58.449-79.577-25.522-46.642-28.32-93.892-4.962-102.112 23.401-8.099 50.603 30.63 59.652 83.024z" style="fill:url(#Y)"/><linearGradient id="Z" x1="3896.279" x2="3432.382" y1="1457.38" y2="2020.547" gradientTransform="rotate(37.022 2939.026 -1868.932)" gradientUnits="userSpaceOnUse"><stop offset=".004" style="stop-color:#f36f56"/><stop offset="1" style="stop-color:#ffc444"/></linearGradient><path d="M1813.582 1363.49c-38.589 36.668-74.073 62.205-79.962 57.922-5.742-4.49 9.056-45.628 33.714-92.802 24.612-47.128 62.351-75.697 82.161-60.837 19.732 14.963 2.632 59.094-35.913 95.717z" style="fill:url(#Z)"/><linearGradient id="aa" x1="6426.382" x2="5962.491" y1="-2067.366" y2="-1504.206" gradientTransform="rotate(114.129 2970.067 -1839.851)" gradientUnits="userSpaceOnUse"><stop offset=".004" style="stop-color:#f36f56"/><stop offset="1" style="stop-color:#ffc444"/></linearGradient><path d="M1813.354 1565.433c-44.353-29.434-77.164-58.326-74.303-65.022 3.095-6.599 46.498-1.353 97.985 12.158 51.432 13.476 87.7 43.89 77.636 66.515-10.185 22.572-57.018 15.751-101.318-13.651z" style="fill:url(#aa)"/><linearGradient id="ab" x1="3988.242" x2="3933.333" y1="768.597" y2="889.116" gradientTransform="scale(-1 1) rotate(21.66 -1546.947 -15162.832)" gradientUnits="userSpaceOnUse"><stop offset="0" style="stop-color:#ab316d"/><stop offset="1" style="stop-color:#792d3d"/></linearGradient><path d="m2374.708 1684.89 4.323-12.587-12.839-11.807a8.91 8.91 0 0 0-10.476-1.164c-17.869 10.268-71.595 46.417-85.452 116.429a8.918 8.918 0 0 0 4.127 9.359c5.822 3.525 12.637 6.465 12.637 6.465l87.68-106.695z" style="fill:url(#ab)"/><linearGradient id="ac" x1="3923.895" x2="3865.933" y1="945.907" y2="1073.128" gradientTransform="scale(-1 1) rotate(21.66 -1546.947 -15162.832)" gradientUnits="userSpaceOnUse"><stop offset="0" style="stop-color:#ab316d"/><stop offset="1" style="stop-color:#792d3d"/></linearGradient><path d="m2441.822 1832.918-5.89 40.892s.033 11.767-1.703 16.383c4.852 5.926 16.552 8.419 16.552 8.419l21.429-46.707-29.032-19.169-1.356.182z" style="fill:url(#ac)"/><linearGradient id="ad" x1="2405.532" x2="2457.703" y1="1876.579" y2="1876.579" gradientUnits="userSpaceOnUse"><stop offset="0" style="stop-color:#ffc444"/><stop offset=".996" style="stop-color:#f36f56"/></linearGradient><path d="m2409.733 1910.905-4.199-26.731s-.685-23.431 22.538-39.062c23.223-15.631 29.63-2.086 29.63-2.086l-13.813 12.869s-8.974 8.257-8.593 27.028c-2.346 20.483-8.994 32.655-8.994 32.655l-16.569-4.673z" style="fill:url(#ad)"/><linearGradient id="ae" x1="4018.301" x2="3761.129" y1="697.423" y2="1261.896" gradientTransform="scale(-1 1) rotate(21.66 -1546.947 -15162.832)" gradientUnits="userSpaceOnUse"><stop offset="0" style="stop-color:#ff9085"/><stop offset="1" style="stop-color:#fb6fbb"/></linearGradient><path d="M2509.424 1838.649s-106.842-95.117-130.393-166.346c-72.66 22.934-92.002 119.282-92.002 119.282s149.598 42.797 199.413 78.708c17.19-4.457 22.982-31.644 22.982-31.644z" style="fill:url(#ae)"/><linearGradient id="af" x1="3855.092" x2="3840.37" y1="992.63" y2="1024.942" gradientTransform="scale(-1 1) rotate(21.66 -1546.947 -15162.832)" gradientUnits="userSpaceOnUse"><stop offset="0" style="stop-color:#ab316d"/><stop offset="1" style="stop-color:#792d3d"/></linearGradient><path d="M2494.696 1851.898s4.974-9.681 14.728-13.249c4.283-1.799 1.472 26.339-22.983 31.645l8.255-18.396z" style="fill:url(#af)"/><linearGradient id="ag" x1="4098.92" x2="4239.108" y1="1695.99" y2="1695.99" gradientTransform="matrix(-1 0 0 1 6450.83 0)" gradientUnits="userSpaceOnUse"><stop offset="0" style="stop-color:#ab316d"/><stop offset="1" style="stop-color:#792d3d"/></linearGradient><path d="M2228.793 1789.017c4.08-1.62 7.18-5.343 7.78-10.006 16.554-128.524 105.025-152.126 105.889-152.344 6.684-1.665 10.744-8.45 9.072-15.134-1.675-6.683-8.45-10.745-15.134-9.073-4.331 1.078-105.872 28.134-124.575 173.362-.882 6.833 3.947 13.09 10.779 13.968 2.174.284 4.29-.018 6.189-.773z" style="fill:url(#ag)"/><linearGradient id="ah" x1="-3481.876" x2="-3481.876" y1="3153.354" y2="3092.176" gradientTransform="translate(6258.462)" gradientUnits="userSpaceOnUse"><stop offset="0" style="stop-color:#ffc444"/><stop offset=".996" style="stop-color:#f36f56"/></linearGradient><path d="M2759.847 3096.973s13.364 33.604 9.847 48.507c14.349-.281 23.633-2.109 23.633-2.109s-5.768-15.326-6.893-22.918c-1.521-10.258-1.407-26.855-1.407-26.855l-25.18 3.375z" style="fill:url(#ah)"/><path d="M2512.836 3184.94c.823.994 2.285 3.07 2.407 5.883.067 1.528-.282 2.785-.722 3.941-2.171 5.711-5.582 6.464-9.262 12.525-2.248 3.703-1.823 4.82-3.884 6.491-2.715 2.203-6 2.329-8.848 2.361-4.811.056-11.738-.117-20.459-1.155a483.403 483.403 0 0 1 21.387-25.667l13.438-4.538 5.943.159z" style="fill:#26264f"/><linearGradient id="ai" x1="-3767.073" x2="-3767.073" y1="3180.385" y2="3110.126" gradientTransform="translate(6258.462)" gradientUnits="userSpaceOnUse"><stop offset="0" style="stop-color:#ffc444"/><stop offset=".996" style="stop-color:#f36f56"/></linearGradient><path d="M2501.661 3119.73s-7.682 40.059 2.093 51.276c8.327 11.217-4.021 3.216-4.021 3.216l-14.746 12.862-8.847 15.274s8.144-39.207 5.972-54.766c-2.172-15.559-3.258-26.052-3.258-26.052l22.807-1.81z" style="fill:url(#ai)"/><linearGradient id="aj" x1="2640.697" x2="2565.607" y1="3507.537" y2="2565.498" gradientUnits="userSpaceOnUse"><stop offset="0" style="stop-color:#311944"/><stop offset="1" style="stop-color:#893976"/></linearGradient><path d="M2426.487 2367.447c-9.824 32.439-23.852 84.796-32.882 150.485-25.758 187.367 28.989 193.343 18.765 400.969-3.263 66.275 57.417 219.098 62.765 222.474 2.589.25 5.398.42 8.393.329 5.278-.16 12.719-.968 21.372-3.563 9.612-1.655 44.268-95.523 36.236-151.334-5.685-39.5-4.037-81.891-.742-166.676.534-13.738 35.683-267.276 35.683-267.276 10.692 93.846 22.987 173.585 33.647 235.407 34.248 198.625 145.604 318.847 151.412 320.775 1.147.461 11.596 4.257 20.139-1.374 3.802-2.506 5.096-5.74 5.096-5.74 2.98-2.333-.878-198.305-34.843-345.792-49.3-214.075-27.832-264.166-43.451-359.785-13.517-82.736-281.59-28.899-281.59-28.899z" style="fill:url(#aj)"/><path d="M2766.178 3158.232s-3.331 0-3.054 4.3c.278 4.3-1.5 19.092 15.432 19.786 16.931.693 19.542-1.198 20.097-1.198s-4.441-14.149-4.441-14.149l-5.413-6.935-14.572-1.526-8.049-.278z" style="fill:#26264f"/><path d="M2803.72 3173.08c-.361-3.572-2.361-9.195-4.373-13.719-2.99-6.722-.536-9.238-3.393-15.36-.988-2.117-1.948-4.125-4.035-6.113-.48-.458-5.153-4.773-11.957-4.553-1.339.043-3.4.132-5.628 1.32-2.626 1.398-3.941 3.499-5.064 5.343-1.766 2.898-1.36 3.788-4.079 12.092-.219.666-.698 2.115-1.066 4.114a29.772 29.772 0 0 0-.446 3.694c4.441 0 21.511.694 25.119 3.329 3.609 2.636 5.413 7.075 5.413 11.513s2.22 6.519 4.441 6.38c1.985-.124 5.927-3.797 5.068-8.04zM2499.598 3165.379c3.635.057 6.3 2.948 8.311 9.915 2.011 6.967 11.663 13.13.402 11.656-11.261-1.473-19.438 14.47-23.459 20.366-4.022 5.895-14.818 11.133-14.55 5.372.268-5.761 5.031-8.454 6.372-14.349 1.342-5.895 14.635-33.09 22.924-32.96z" style="fill:#444b8c"/><linearGradient id="ak" x1="2578.219" x2="2663.572" y1="1937.185" y2="1937.185" gradientUnits="userSpaceOnUse"><stop offset="0" style="stop-color:#ffc444"/><stop offset=".996" style="stop-color:#f36f56"/></linearGradient><path d="M2578.765 1936.901c-3.147-19.666 8.236-36.227 10.734-39.791 10.463-14.919 12.923-16.837 17.357-19.119l6.127-2.869s.348-.094.709-.178c3.823-.884 16.38.181 18.852 1.014 7.899 2.664 22.178 39.292 4.872 83.008-1.972 4.983 1.189 11.856.705 10.98 10.118 18.307 24.441 10.878 25.313 13.326 1.889 5.303-16.058 6.674-33.457 12.306-21.816 7.063-47.955 4.508-49.596-2.682-.664-2.911 2.439-7.662 17.378-15.843l4.37-12.735c-3.074-2.076-21.046-12.93-23.364-27.417z" style="fill:url(#ak)"/><path d="M2602.915 1864.663c-4.904 8.775-3.131 20.988 1.405 28.826 2.712 4.688 4.447 4.753 5.201 8.125 2.114 9.47-13.601 18.517-11.277 22.914 1.66 3.142 10.1-.683 12.857 3.063 3.02 4.104-5.475 10.917-6.211 23.705-.115 1.993-.811 14.092 6.138 19.035 6.486 4.614 16.599.074 28.022-4.983 12.599-5.578 20.852-12.228 23.247-14.25 7.545-6.371 15.658-13.222 20.603-24.91 1.172-2.769 7.939-19.458 1.455-38.063-8.52-24.447-35.514-39.489-57.849-36.542-3.619.477-17.578 2.319-23.591 13.08z" style="fill:#26264f"/><linearGradient id="al" x1="2596.916" x2="2612.996" y1="1929.767" y2="1929.767" gradientUnits="userSpaceOnUse"><stop offset="0" style="stop-color:#ffc444"/><stop offset=".996" style="stop-color:#f36f56"/></linearGradient><path d="M2603.83 1921.733c4.103-4.458 9.799.833 9.109 7.133-.69 6.3-7.546 12.143-13.321 10.216-5.776-1.926-1.309-11.349 4.212-17.349z" style="fill:url(#al)"/><linearGradient id="am" x1="-2416.81" x2="-2650.747" y1="2022.161" y2="1526.217" gradientTransform="translate(4942.684)" gradientUnits="userSpaceOnUse"><stop offset="0" style="stop-color:#aa80f9"/><stop offset=".996" style="stop-color:#6165d7"/></linearGradient><path d="M2625.618 1979.188c-32.731-.963-96.126-11.651-137.563 25.633-.72.648-4.072 4.318-8.25 9.216-3.88 4.547-17.191 20.464-29.258 41.98-8.74 15.585-16.629 33.751-24.588 60.824-14.038 47.746-18.065 88.404-19.412 106.118-7.573 99.618-.063 145.577 6.752 176.83 29.593 15.203 105.85 42.404 196.71 28.887 41.494-6.172 74.701-19.979 98.068-32.305-23.576-71.384-5.08-109.583 3.646-144.791 17.23-69.514 21.126-96.808 69.828-196.776 13.427-27.562 54.899-6.274 34.479-30.464-31.319-37.099-161.107-44.289-190.412-45.152z" style="fill:url(#am)"/><linearGradient id="an" x1="-2473.376" x2="-2707.309" y1="1226.5" y2="730.562" gradientTransform="rotate(-21.659 2313.844 -11144.519)" gradientUnits="userSpaceOnUse"><stop offset="0" style="stop-color:#aa80f9"/><stop offset=".996" style="stop-color:#6165d7"/></linearGradient><path d="M2515.107 1989.232c-30.862 8.777-90.068 35.274-95.792 27.605-.938-1.258-1.802-3.552 4.013-19.697 11.638-32.31 21.611-41.206 20.564-56.904-.371-5.56-2.237-13.672-9.635-23.248-.077-.041-19.139-9.95-19.208-10.004-5.614-4.315-11.228-8.631-19.208-10.003-12.633 1.955-27.072 5.714-41.993 12.877-88.063 42.274-148.228 181.629-97.836 260.262 46.234 72.146 188.636 98.017 301.181 7.606.898-145.368-21.054-194.476-42.086-188.494z" style="fill:url(#an)"/><linearGradient id="ao" x1="-1667.191" x2="-2045.667" y1="1821.049" y2="2103.865" gradientTransform="translate(4942.684)" gradientUnits="userSpaceOnUse"><stop offset="0" style="stop-color:#aa80f9"/><stop offset=".996" style="stop-color:#6165d7"/></linearGradient><path d="M2541.91 2322.623c43.295-18.887 30.964-92.441 72.784-106.057 26.552-8.644 43.892 16.979 68.625 4.159 26.516-13.743 25.409-52.948 41.591-54.068 2.384-.165 5.171.511 8.37 2.769-8.279 26.023-13.439 49.404-21.557 82.155-8.726 35.207-27.223 73.406-3.646 144.79-23.367 12.327-56.574 26.133-98.068 32.305-90.86 13.517-167.117-13.684-196.71-28.887-4.017-18.419-8.25-42.057-9.52-78.669 15.335-6.839 31.596-10.899 48.712-10.974 42.909-.189 61.444 24.681 89.419 12.477z" style="opacity:.3;fill:url(#ao)"/><linearGradient id="ap" x1="2661.17" x2="2709.998" y1="2328.367" y2="2328.367" gradientUnits="userSpaceOnUse"><stop offset="0" style="stop-color:#ffc444"/><stop offset=".996" style="stop-color:#f36f56"/></linearGradient><path d="M2701.471 2315.208s-4.568 3.045-11.572 1.522c-7.003-1.522-15.53-7.308-23.143-9.745-7.613-2.436-8.222 8.832 3.045 14.617 11.267 5.786 21.011 17.358 25.274 26.188 4.263 8.831 14.921-10.658 14.921-10.658l-8.525-21.924z" style="fill:url(#ap)"/><linearGradient id="aq" x1="-2261.68" x2="-2495.615" y1="1948.986" y2="1453.044" gradientTransform="translate(4942.684)" gradientUnits="userSpaceOnUse"><stop offset="0" style="stop-color:#aa80f9"/><stop offset=".996" style="stop-color:#6165d7"/></linearGradient><path d="M2706.351 1993.9c17.3-.704 95.936-2.039 160.902 56.941 13.063 11.86 75.144 68.219 69.883 148.824-6.31 96.679-106.258 178.564-183.119 166.896-17.924-2.72-32.476-10.208-43.353-17.641l.002-.001-12.786-36.164c-.207-25.841 13.928-43.908 21.196-53.89 17.918-24.608 43.466-28.909 47.235-50.714 2.085-12.064-3.801-21.944-9.058-30.77-17.91-30.063-46.51-33.769-61.311-49.146-15.279-15.873-32.753-55.656 10.409-134.335z" style="fill:url(#aq)"/><path d="m1308.313 1125.1 81.494 181.743 11.33 4.239s-7.089-67.252-8.685-71.957c-1.594-4.702-32.207-101.598-32.207-101.598l-51.932-12.427z" style="fill:#26264f"/><path d="m1678.498 731.927-617.926-63.267c-11.374-.696-20.759 9.721-20.759 22.971v404.183c0 13.624 9.9 25.711 21.573 26.264l565.948-9.897c13.783.542 84.611 29.65 84.611 15.312V734.967c0-14.765-18.897-2.07-33.447-3.04z" style="fill:#26264f"/><linearGradient id="ar" x1="1049.023" x2="1724.557" y1="989.952" y2="989.952" gradientUnits="userSpaceOnUse"><stop offset=".004" style="stop-color:#e38ddd"/><stop offset="1" style="stop-color:#9571f6"/></linearGradient><path d="m1698.181 707.221-628.302-38.366c-11.427-.698-20.856 9.742-20.856 23.024v405.125c0 13.656 9.946 25.774 21.674 26.332l255.58 12.006 74.86 175.741 61.33-169.903 236.809 12.079c14.224.677 25.281-9.911 25.281-24.287V735.374c0-14.805-11.701-27.257-26.376-28.153z" style="fill:url(#ar)"/><linearGradient id="as" x1="1049.023" x2="1724.557" y1="913.621" y2="913.621" gradientUnits="userSpaceOnUse"><stop offset=".004" style="stop-color:#e38ddd"/><stop offset="1" style="stop-color:#9571f6"/></linearGradient><path d="m1717.473 716.789-661.154-42.837c-4.451 4.203-7.296 10.629-7.296 17.926v59.748c10.899-4.905 20.169-5.56 27.735-4.519 21.069 2.898 26.133 18.412 67.207 42.574 39.171 23.043 43.325 14.283 60.87 30.569 34.228 31.772 19.189 65.103 49.438 99.429 31.972 36.282 59.955 12.401 107.162 48.899 51.043 39.464 34.571 78.881 77.228 107.804 61.204 41.498 125.505-17.677 180.477 23.91 16.888 12.776 27.751 31.189 34.782 50.808l45.354 2.159c14.224.677 25.281-9.911 25.281-24.287V735.374c0-7.066-2.691-13.586-7.084-18.585z" style="opacity:.3;fill:url(#as)"/><path d="M1223.473 759.715c4.708.831 8.517 5.51 8.517 10.453v16.868c9.406 1.813 18.82 4.232 28.241 7.251a258.115 258.115 0 0 1 20.679 7.624c4.099 1.711 6.891 6.213 6.473 10.602l-1.996 20.962c-.53 5.562-5.876 8.447-10.91 5.741a125.07 125.07 0 0 0-13.875-6.403c-8.277-3.221-17.011-5.575-26.206-7.058l-2.406-.388v48.307c24.527 8.923 42.515 19.8 54.127 32.655 11.548 12.783 17.298 28.075 17.298 45.928 0 19.306-6.357 34.315-19.131 45.077-12.853 10.828-30.892 16.168-54.251 15.966v18.619c0 4.945-3.812 8.534-8.524 8.015l-.151-.016c-4.723-.52-8.56-4.967-8.56-9.932v-18.377l-3.799-.442c-10.978-1.279-21.502-3.172-31.563-5.682a211.042 211.042 0 0 1-21.85-6.716c-4.302-1.584-7.256-6.019-6.861-10.533l2.37-27.096c.512-5.857 6.251-8.875 11.681-6.276a179.933 179.933 0 0 0 19.209 7.882c10.091 3.468 20.312 5.958 30.661 7.477l.152-53.759c-23.611-7.762-41.313-18.006-52.954-30.72-11.705-12.783-17.581-28.476-17.581-47.025 0-19.196 6.372-33.526 19.059-42.948 12.613-9.366 30.524-13.122 53.6-11.324v-17.254c0-4.965 3.833-8.311 8.551-7.478zm-8.551 63.851c-7.292-.006-12.981 1.631-17.054 4.917-4.081 3.293-6.124 7.979-6.124 14.055 0 5.756 1.89 10.71 5.666 14.855 3.769 4.137 9.612 7.652 17.513 10.541v-44.368zm15.111 98.46v49.281c7.915.58 13.982-.942 18.215-4.558 4.225-3.609 6.334-8.982 6.334-16.123 0-6.511-1.96-12.053-5.886-16.633-3.933-4.588-10.147-8.576-18.663-11.967zM1393.953 773.051c4.655.825 8.421 5.475 8.421 10.39v16.772c9.3 1.799 18.607 4.2 27.922 7.198a254.099 254.099 0 0 1 20.446 7.572c4.053 1.7 6.814 6.175 6.4 10.539l-1.973 20.844c-.524 5.531-5.809 8.402-10.787 5.713a123.195 123.195 0 0 0-13.719-6.361c-8.183-3.199-16.819-5.536-25.911-7.007l-2.378-.385v48.034c24.25 8.862 42.035 19.67 53.517 32.448 11.418 12.706 17.103 27.909 17.103 45.661 0 19.197-6.286 34.124-18.916 44.83-12.708 10.772-30.543 16.088-53.639 15.898v18.513c0 4.917-3.769 8.487-8.428 7.973l-.15-.016c-4.67-.515-8.463-4.935-8.463-9.872v-18.273l-3.756-.438c-10.854-1.267-21.259-3.145-31.206-5.638a207.921 207.921 0 0 1-21.603-6.669c-4.253-1.573-7.173-5.982-6.783-10.471l2.343-26.943c.506-5.824 6.18-8.827 11.549-6.245a177.175 177.175 0 0 0 18.992 7.829c9.977 3.444 20.082 5.916 30.314 7.423l.15-53.455c-23.344-7.708-40.845-17.887-52.355-30.524-11.572-12.706-17.382-28.307-17.382-46.75 0-19.087 6.3-33.338 18.844-42.712 12.47-9.318 30.178-13.061 52.994-11.283v-17.157c-.001-4.936 3.789-8.264 8.454-7.438zm-8.455 63.493c-7.21-.003-12.834 1.628-16.861 4.897-4.035 3.276-6.055 7.936-6.055 13.978 0 5.724 1.869 10.648 5.601 14.768 3.726 4.112 9.503 7.605 17.315 10.474v-44.117zm14.941 97.896v49.002c7.826.573 13.824-.943 18.01-4.54 4.177-3.59 6.263-8.933 6.263-16.035 0-6.474-1.938-11.984-5.82-16.536-3.89-4.56-10.034-8.523-18.453-11.891zM1562.512 786.236c4.602.818 8.326 5.441 8.326 10.327v16.678c9.195 1.785 18.398 4.168 27.609 7.145a250.031 250.031 0 0 1 20.216 7.521c4.007 1.689 6.737 6.137 6.329 10.477l-1.951 20.728c-.518 5.5-5.744 8.357-10.666 5.685a121.625 121.625 0 0 0-13.565-6.32c-8.092-3.178-16.63-5.498-25.62-6.957l-2.352-.382v47.764c23.978 8.802 41.563 19.542 52.916 32.243 11.29 12.63 16.912 27.745 16.912 45.398 0 19.089-6.215 33.935-18.704 44.585-12.565 10.717-30.201 16.01-53.037 15.829v18.409c0 4.889-3.727 8.44-8.334 7.932l-.148-.016c-4.617-.51-8.368-4.904-8.368-9.813v-18.17l-3.714-.434c-10.732-1.256-21.02-3.119-30.855-5.593a204.645 204.645 0 0 1-21.36-6.623c-4.205-1.563-7.093-5.945-6.707-10.409l2.316-26.792c.5-5.791 6.11-8.78 11.419-6.215a174.602 174.602 0 0 0 18.778 7.777c9.865 3.421 19.856 5.875 29.974 7.369l.148-53.154c-23.082-7.655-40.386-17.77-51.766-30.33-11.442-12.629-17.186-28.14-17.186-46.479 0-18.979 6.229-33.153 18.631-42.479 12.329-9.271 29.839-13 52.398-11.242v-17.06c.002-4.907 3.749-8.218 8.361-7.399zm-8.359 63.139c-7.129 0-12.69 1.624-16.672 4.876-3.989 3.259-5.987 7.894-5.987 13.902 0 5.692 1.848 10.588 5.539 14.683 3.684 4.088 9.396 7.558 17.12 10.408v-43.869zm14.773 97.339v48.726c7.738.567 13.669-.943 17.807-4.521 4.13-3.572 6.193-8.885 6.193-15.947 0-6.438-1.917-11.916-5.755-16.441-3.846-4.534-9.921-8.471-18.245-11.817z" style="fill:#fff"/></svg>