<svg xmlns="http://www.w3.org/2000/svg" xml:space="preserve" id="_x32_" width="95" height="95" fill="#fff" stroke="#fff" version="1.1" viewBox="0 0 512 512"><g id="SVGRepo_iconCarrier"><style>.st0{fill:#fffff}</style><path d="M148.57 63.619H72.162C32.31 63.619 0 95.929 0 135.781v76.408c0 39.852 32.31 72.161 72.162 72.161h7.559a19.26 19.26 0 0 1 15.87 8.362 19.246 19.246 0 0 1 2.074 17.811L54.568 422.208a19.239 19.239 0 0 0 2.074 17.81 19.26 19.26 0 0 0 15.87 8.362h50.738c7.157 0 13.73-3.981 17.041-10.318l61.257-117.03a168.368 168.368 0 0 0 19.198-78.072V135.78c.002-39.851-32.324-72.161-72.176-72.161zM439.84 63.619h-76.41c-39.852 0-72.16 32.31-72.16 72.162v76.408c0 39.852 32.309 72.161 72.16 72.161h7.543a19.238 19.238 0 0 1 15.87 8.362 19.25 19.25 0 0 1 2.091 17.811l-43.113 111.686a19.197 19.197 0 0 0 2.09 17.81 19.217 19.217 0 0 0 15.871 8.362h50.722c7.157 0 13.73-3.981 17.058-10.318l61.24-117.03A168.372 168.372 0 0 0 512 242.96V135.78c0-39.851-32.309-72.161-72.16-72.161z" class="st0"/></g></svg>