<?xml version="1.0" encoding="utf-8"?>
<!-- Generator: Adobe Illustrator 27.5.0, SVG Export Plug-In . SVG Version: 6.00 Build 0)  -->
<svg version="1.1" xmlns="http://www.w3.org/2000/svg" xmlns:xlink="http://www.w3.org/1999/xlink" x="0px" y="0px"
	 viewBox="0 0 3710 3710" style="enable-background:new 0 0 3710 3710;" xml:space="preserve">
<g id="Background">
	<g>
		<g>
			<rect style="fill:#FFFFFF;" width="3710" height="3710"/>
		</g>
	</g>
</g>
<g id="Illustration">
	<g>
		<linearGradient id="SVGID_1_" gradientUnits="userSpaceOnUse" x1="3481.1431" y1="3303.9854" x2="1394.4158" y2="1478.1005">
			<stop  offset="0" style="stop-color:#B37CFF"/>
			<stop  offset="1" style="stop-color:#F895E7"/>
		</linearGradient>
		<path style="opacity:0.3;fill:url(#SVGID_1_);" d="M3133.813,2351.87c-271.264,630.015-993.85,982.953-1620.478,887.749
			c-101.965-15.492-381.505-61.639-628.999-279.344c-476.442-419.099-578.333-1248.971-194.002-1833.801
			C970.06,700.82,1471.498,459.531,1947.961,471.601c102.63,2.6,495.953,18.622,841.614,299.763
			c50.771,41.294,162.751,139.42,263.672,295.091C3290.229,1431.999,3310.599,1941.282,3133.813,2351.87z"/>
		<g>
			<g>
				
					<linearGradient id="SVGID_00000041290318566619246080000007840467541347630484_" gradientUnits="userSpaceOnUse" x1="2002.7349" y1="2264.0706" x2="3327.9917" y2="750.4498">
					<stop  offset="0" style="stop-color:#7A2DDB"/>
					<stop  offset="1" style="stop-color:#7077FF"/>
				</linearGradient>
				<path style="fill:url(#SVGID_00000041290318566619246080000007840467541347630484_);" d="M2263.305,1979.133
					c0,0,297.235-911.537,795.63-1380.996c33.504-31.558,88.63-13.764,97.08,31.479
					C3212.514,932.148,3293.633,1842.337,2263.305,1979.133z"/>
				<path style="opacity:0.5;fill:#FFFFFF;" d="M2360.896,1926.849c-2.454,2.031,0.261,5.788,2.964,4.105
					c99.686-62.061,491.14-375.145,681.797-1047.877c0.612-2.161-2.549-3.265-3.345-1.165
					C2983.605,1036.65,2748.864,1605.717,2360.896,1926.849z"/>
			</g>
			<g>
				
					<linearGradient id="SVGID_00000139999735115963194120000004955725533508779442_" gradientUnits="userSpaceOnUse" x1="3180.249" y1="474.6727" x2="1854.9265" y2="2910.0352" gradientTransform="matrix(0.9969 -0.0781 0.0781 0.9969 -382.8407 87.6372)">
					<stop  offset="0" style="stop-color:#53D8FF"/>
					<stop  offset="1" style="stop-color:#3840F7"/>
				</linearGradient>
				<path style="fill:url(#SVGID_00000139999735115963194120000004955725533508779442_);" d="M1970.09,1921.735
					c0,0,140.87-876.92,529.422-1378.228c26.119-33.699,79.126-25.346,93.367,14.841
					C2688.106,827.072,2893.278,1648.328,1970.09,1921.735z"/>
				<path style="opacity:0.5;fill:#FFFFFF;" d="M2051.875,1859.849c-1.953,2.212,1.072,5.26,3.303,3.33
					c82.296-71.133,395.481-413.955,473.174-1057.01c0.249-2.066-2.802-2.622-3.229-0.585
					C2493.661,955.634,2360.712,1510.165,2051.875,1859.849z"/>
			</g>
		</g>
		<g>
			
				<linearGradient id="SVGID_00000101786305829673403720000008627032303635744445_" gradientUnits="userSpaceOnUse" x1="1509.6515" y1="734.795" x2="364.4026" y2="4291.6304">
				<stop  offset="0" style="stop-color:#53D8FF"/>
				<stop  offset="1" style="stop-color:#3840F7"/>
			</linearGradient>
			<path style="fill:url(#SVGID_00000101786305829673403720000008627032303635744445_);" d="M1972.479,2601.859H502.23
				c-20.205,0-36.586-16.38-36.586-36.585V595.67c0-19.229,14.885-35.176,34.068-36.499l1470.249-101.409
				c21.147-1.458,39.103,15.302,39.103,36.499v2071.013C2009.065,2585.479,1992.685,2601.859,1972.479,2601.859z"/>
			<path style="fill:#FFFFFF;" d="M659.447,2497.054c-12.717,0-24.672-4.943-33.679-13.925
				c-9.036-9.012-14.011-21.005-14.011-33.766V735.742c0-24.892,19.449-45.786,44.278-47.57l1184.305-84.996
				c13.167-0.96,26.248,3.669,35.907,12.66c9.659,8.99,15.198,21.714,15.198,34.908v1795.524c0,26.225-21.337,47.621-47.566,47.691
				l-1184.306,3.094C659.532,2497.054,659.489,2497.054,659.447,2497.054z M656.937,700.75
				c-18.264,1.311-32.572,16.682-32.572,34.993v1713.62c0,9.388,3.66,18.21,10.307,24.84c6.626,6.609,15.421,10.244,24.777,10.244
				c0.031,0,0.06,0,0.092,0l1184.305-3.094c19.295-0.052,34.992-15.79,34.992-35.083V650.745c0-9.85-3.971-18.968-11.18-25.68
				c-7.21-6.71-16.583-10.015-26.416-9.314L656.937,700.75z"/>
			<rect x="962.554" y="1941.238" style="fill:#FFFFFF;" width="805.335" height="6.304"/>
			<rect x="962.554" y="1987.662" style="fill:#FFFFFF;" width="805.335" height="6.304"/>
			<polygon style="fill:#FFFFFF;" points="1767.889,1901.119 950.606,1901.119 1182.865,1769.408 1185.974,1774.893 
				974.501,1894.815 1767.889,1894.815 			"/>
			<g>
				<path style="fill:#FFFFFF;" d="M1770.017,1665.452h-163.437v-10.091h163.437c6.658,0,12.075-5.417,12.075-12.075v-436.205
					h10.091v436.205C1792.182,1655.509,1782.239,1665.452,1770.017,1665.452z"/>
				<path style="fill:#FFFFFF;" d="M1821.597,1212.127h-215.02v-10.091h215.02c2.841,0,5.346-1.373,6.875-3.768
					c1.527-2.391,1.72-5.243,0.524-7.821l-0.145-0.345l-77.066-204.845l9.444-3.554l77.005,204.684
					c2.541,5.637,2.074,12.095-1.258,17.314C1833.608,1208.977,1827.858,1212.127,1821.597,1212.127z"/>
				<path style="fill:#FFFFFF;" d="M1515.775,998.055l-0.269-10.084l236.674-6.356l-0.718-4.717c0-5.318-7.01-9.812-15.309-9.812
					l-255.485,4.559l-0.181-10.091l255.575-4.559c14.138,0,25.184,8.504,25.483,19.446l2.498,14.949L1515.775,998.055z"/>
				<g style="opacity:0.89;">
					<path style="fill:#FFFFFF;" d="M1731.795,1530.681h-125.219v-10.091h121.147v-216.572h-121.147v-10.091h125.219
						c3.319,0,6.019,2.7,6.019,6.018v224.718C1737.814,1527.981,1735.114,1530.681,1731.795,1530.681z"/>
					<g style="opacity:0.9;">
						<path style="fill:#FFFFFF;" d="M1653.008,1516.747h-46.43c-1.858,0-3.364-1.504-3.364-3.364s1.506-3.364,3.364-3.364h43.607
							v-195.431h-43.607c-1.858,0-3.364-1.505-3.364-3.364c0-1.859,1.506-3.364,3.364-3.364h46.43c2.153,0,3.904,1.751,3.904,3.902
							v201.077C1656.912,1514.996,1655.161,1516.747,1653.008,1516.747z M1653.008,1314.589h0.033H1653.008z"/>
						<path style="fill:#FFFFFF;" d="M1719.948,1516.747h-52.885c-3.012,0-5.463-2.45-5.463-5.463v-197.96
							c0-3.012,2.45-5.463,5.463-5.463h52.885c3.014,0,5.464,2.451,5.464,5.463v197.96
							C1725.413,1514.297,1722.962,1516.747,1719.948,1516.747z M1668.328,1510.02h50.357v-195.431h-50.357V1510.02z"/>
					</g>
				</g>
				<g>
					<path style="fill:#FFFFFF;" d="M894.038,1665.452H731.595c-9.352,0-16.961-7.608-16.961-16.959v-441.411h10.091v441.411
						c0,3.787,3.081,6.869,6.87,6.869h162.443V1665.452z"/>
					<path style="fill:#FFFFFF;" d="M891.657,1212.127H685.219c-6.259,0-12.008-3.15-15.378-8.425
						c-3.334-5.219-3.799-11.677-1.26-17.314l77.007-204.684l9.444,3.554l-77.212,205.19c-1.194,2.579-1.003,5.43,0.526,7.824
						c1.529,2.391,4.034,3.764,6.873,3.764h206.438V1212.127z"/>
					<path style="fill:#FFFFFF;" d="M989.609,993.223l-244.344-1.665v-14.66c0-11.162,11.846-19.903,26.97-19.903h251.63v10.091
						h-251.63c-9.946,0-16.879,5.17-16.879,9.812v4.635l234.323,1.6L989.609,993.223z"/>
					<g style="opacity:0.89;">
						<path style="fill:#FFFFFF;" d="M891.658,1530.681H775.021c-3.318,0-6.018-2.7-6.018-6.018v-224.718
							c0-3.318,2.7-6.018,6.018-6.018h116.637v10.091H779.094v216.572h112.564V1530.681z"/>
						<g>
							<path style="fill:#FFFFFF;" d="M891.658,1516.747H853.81c-2.153,0-3.904-1.751-3.904-3.906v-201.077
								c0-2.152,1.751-3.902,3.904-3.902h37.849c1.858,0,3.364,1.505,3.364,3.364c0,1.859-1.506,3.364-3.364,3.364h-35.026v195.431
								h35.026c1.858,0,3.364,1.504,3.364,3.364S893.516,1516.747,891.658,1516.747z"/>
							<path style="fill:#FFFFFF;" d="M839.752,1516.747h-52.885c-3.012,0-5.463-2.45-5.463-5.463v-197.96
								c0-3.012,2.45-5.463,5.463-5.463h52.885c3.012,0,5.463,2.451,5.463,5.463v197.96
								C845.215,1514.297,842.765,1516.747,839.752,1516.747z M788.132,1510.02h50.356v-195.431h-50.356V1510.02z"/>
						</g>
					</g>
				</g>
				<path style="fill:#FFFFFF;" d="M1589.474,1687.355h-245.509v-10.091h245.509c6.65,0,12.06-5.41,12.06-12.062v-534.091h10.091
					v534.091C1611.625,1677.418,1601.688,1687.355,1589.474,1687.355z"/>
				<path style="fill:#FFFFFF;" d="M1122.435,1687.355H915.744c-16.063,0-29.129-13.067-29.129-29.13v-530.241h10.091v530.241
					c0,10.498,8.54,19.039,19.039,19.039h206.691V1687.355z"/>
				<path style="fill:#FFFFFF;" d="M1349.012,1654.681h-10.091v-26.83h-211.569v26.83h-10.091v-29.126
					c0-4.297,3.497-7.795,7.795-7.795h216.163c4.297,0,7.793,3.498,7.793,7.795V1654.681z"/>
				<path style="fill:#FFFFFF;" d="M1349.012,1694.578h-231.75v-31.984c0-8.662,7.047-15.708,15.709-15.708h200.332
					c8.662,0,15.709,7.046,15.709,15.708V1694.578z M1127.352,1684.487h211.569v-21.893c0-3.098-2.521-5.617-5.619-5.617h-200.332
					c-3.098,0-5.619,2.519-5.619,5.617V1684.487z"/>
				<path style="fill:#FFFFFF;" d="M1313.827,1627.851h-161.381v-288.213c0-9.385,7.635-17.018,17.02-17.018h127.342
					c9.385,0,17.018,7.634,17.018,17.018V1627.851z M1162.537,1617.76h141.199v-278.122c0-3.82-3.107-6.927-6.927-6.927h-127.342
					c-3.82,0-6.929,3.107-6.929,6.927V1617.76z"/>
				<path style="fill:#FFFFFF;" d="M1298.1,1311.163h-129.926c-7.746,0-14.046-6.3-14.046-14.046v-9.332
					c0-7.348,5.743-13.504,13.075-14.013l129.923-9.027c3.863-0.246,7.721,1.097,10.557,3.748c2.836,2.644,4.462,6.385,4.462,10.265
					v18.359C1312.146,1304.863,1305.845,1311.163,1298.1,1311.163z M1298.113,1271.44c-0.172,0-0.347,0.007-0.522,0.02
					l-129.923,9.026c-3.82,0.263-6.813,3.469-6.813,7.299v9.332c0,4.037,3.283,7.318,7.319,7.318H1298.1
					c4.035,0,7.318-3.281,7.318-7.318v-18.359c0-2.05-0.826-3.948-2.326-5.348C1301.721,1272.13,1299.969,1271.44,1298.113,1271.44z
					"/>
				<g>
					<g>
						<path style="fill:#FFFFFF;" d="M1025.262,1181.96h-51.479c-1.858,0-3.364-1.504-3.364-3.364v-44.407
							c0-25.503,23.635-45.478,53.808-45.478h1.035c1.858,0,3.364,1.505,3.364,3.364v86.521
							C1028.625,1180.455,1027.119,1181.96,1025.262,1181.96z M977.146,1175.232h44.752v-79.748
							c-25.278,0.966-44.752,17.62-44.752,38.704V1175.232z"/>
						<path style="fill:#FFFFFF;" d="M1025.262,1336.929h-41.047c-6.844,0-13.796-8.485-13.796-14.584v-130.639
							c0-1.859,1.506-3.364,3.364-3.364h51.479c1.858,0,3.364,1.504,3.364,3.364v141.859
							C1028.625,1335.424,1027.119,1336.929,1025.262,1336.929z M977.146,1195.069v127.275c0,2.638,4.297,7.857,7.069,7.857h37.683
							v-135.132H977.146z"/>
						<path style="fill:#FFFFFF;" d="M1088.178,1181.96h-51.477c-1.858,0-3.364-1.504-3.364-3.364v-86.521
							c0-1.859,1.506-3.364,3.364-3.364h2.616c29.773,0,52.224,19.551,52.224,45.478v44.407
							C1091.542,1180.455,1090.036,1181.96,1088.178,1181.96z M1040.064,1175.232h44.75v-41.043c0-21.88-19.185-38.428-44.75-38.747
							V1175.232z"/>
						<path style="fill:#FFFFFF;" d="M1079.329,1336.929h-42.628c-1.858,0-3.364-1.504-3.364-3.364v-141.859
							c0-1.859,1.506-3.364,3.364-3.364h51.477c1.857,0,3.364,1.504,3.364,3.364v130.639
							C1091.542,1328.217,1086.414,1336.929,1079.329,1336.929z M1040.064,1330.201h39.265c2.421,0,5.486-4.871,5.486-7.857
							v-127.275h-44.75V1330.201z"/>
					</g>
					<path style="fill:#FFFFFF;" d="M1092.688,1346.77H968.77c-9.887,0-17.932-7.565-17.932-16.861v-196.692
						c0-33.886,29.865-61.455,66.576-61.455h26.628c36.711,0,66.577,27.569,66.577,61.455v196.692
						C1110.62,1339.205,1102.575,1346.77,1092.688,1346.77z M1017.414,1082.947c-30.489,0-55.293,22.55-55.293,50.27v196.692
						c0,3.13,2.983,5.676,6.648,5.676h123.918c3.666,0,6.647-2.546,6.647-5.676v-196.692c0-27.72-24.805-50.27-55.293-50.27
						H1017.414z"/>
				</g>
				<path style="fill:#FFFFFF;" d="M1162.841,1627.851h-3.656c-4.204,0-7.624-3.419-7.624-7.624V1329.86
					c0-3.991,3.247-7.24,7.24-7.24h4.04v10.091h-1.189v285.049h1.189V1627.851z"/>
				<g>
					<rect x="1459.739" y="875.198" style="fill:#FFFFFF;" width="10.091" height="80.684"/>
					<rect x="1400.603" y="875.198" style="fill:#FFFFFF;" width="10.091" height="34.027"/>
					<path style="fill:#FFFFFF;" d="M1489.318,880.243h-105.673v-14.111c0-14.085,11.461-25.546,25.549-25.546h50.643
						c16.256,0,29.481,13.224,29.481,29.477V880.243z M1393.736,870.153l85.491-0.089c0-10.689-8.698-19.387-19.39-19.387h-50.643
						c-8.524,0-15.458,6.934-15.458,15.455V870.153z"/>
					<path style="fill:#FFFFFF;" d="M867.581,1152.811l-17.206-41.91c-4.177-10.173-0.99-21.942,7.752-28.624l390.988-298.638
						l406.353,309.55l-5.684,27.809c-1.91,9.342-8.388,16.897-17.33,20.208c-8.944,3.308-18.779,1.8-26.313-4.044l-357.04-276.942
						L867.581,1152.811z M1249.122,796.331l-384.869,293.967c-5.123,3.912-6.992,10.81-4.543,16.772l12.196,29.704l377.23-289.3
						l363.189,281.712c4.761,3.692,10.978,4.651,16.623,2.556c5.65-2.092,9.743-6.865,10.948-12.768l4.416-21.601L1249.122,796.331z
						"/>
				</g>
				<g>
					<path style="fill:#FFFFFF;" d="M1113.183,1587.057H956.498v-197.307h156.685V1587.057z M966.589,1576.967h136.504v-177.125
						H966.589V1576.967z"/>
					<path style="fill:#FFFFFF;" d="M1030.729,1572.624h-57.217c-1.858,0-3.364-1.504-3.364-3.364v-161.713
						c0-1.859,1.506-3.364,3.364-3.364h57.217c1.858,0,3.364,1.505,3.364,3.364v161.713
						C1034.093,1571.12,1032.587,1572.624,1030.729,1572.624z M976.875,1565.897h50.49v-154.985h-50.49V1565.897z"/>
					<path style="fill:#FFFFFF;" d="M1096.014,1573.17h-57.219c-1.858,0-3.364-1.505-3.364-3.364v-161.713
						c0-1.859,1.506-3.364,3.364-3.364h57.219c1.857,0,3.364,1.504,3.364,3.364v161.713
						C1099.378,1571.665,1097.871,1573.17,1096.014,1573.17z M1042.158,1566.442h50.492v-154.985h-50.492V1566.442z"/>
				</g>
				<g>
					<g>
						<path style="fill:#FFFFFF;" d="M1434.799,1180.212h-51.479c-1.858,0-3.364-1.505-3.364-3.364v-44.407
							c0-25.503,23.635-45.478,53.808-45.478h1.035c1.858,0,3.364,1.505,3.364,3.364v86.521
							C1438.162,1178.708,1436.656,1180.212,1434.799,1180.212z M1386.684,1173.485h44.752v-79.748
							c-25.278,0.966-44.752,17.62-44.752,38.705V1173.485z"/>
						<path style="fill:#FFFFFF;" d="M1434.799,1335.181h-41.048c-6.844,0-13.794-8.485-13.794-14.581v-130.642
							c0-1.859,1.506-3.364,3.364-3.364h51.479c1.858,0,3.364,1.504,3.364,3.364v141.859
							C1438.162,1333.677,1436.656,1335.181,1434.799,1335.181z M1386.684,1193.322V1320.6c0,2.634,4.295,7.854,7.067,7.854h37.684
							v-135.132H1386.684z"/>
						<path style="fill:#FFFFFF;" d="M1497.715,1180.212h-51.477c-1.858,0-3.364-1.505-3.364-3.364v-86.521
							c0-1.859,1.506-3.364,3.364-3.364h2.616c29.773,0,52.225,19.551,52.225,45.478v44.407
							C1501.079,1178.708,1499.573,1180.212,1497.715,1180.212z M1449.602,1173.485h44.75v-41.043
							c0-21.88-19.186-38.429-44.75-38.747V1173.485z"/>
						<path style="fill:#FFFFFF;" d="M1488.866,1335.181h-42.628c-1.858,0-3.364-1.504-3.364-3.364v-141.859
							c0-1.859,1.506-3.364,3.364-3.364h51.477c1.858,0,3.364,1.504,3.364,3.364V1320.6
							C1501.079,1326.473,1495.952,1335.181,1488.866,1335.181z M1449.602,1328.454h39.265c2.421,0,5.486-4.868,5.486-7.854
							v-127.278h-44.75V1328.454z"/>
					</g>
					<path style="fill:#FFFFFF;" d="M1502.225,1345.022h-123.92c-9.887,0-17.93-7.562-17.93-16.858v-196.695
						c0-33.886,29.865-61.455,66.576-61.455h26.628c36.711,0,66.577,27.569,66.577,61.455v196.695
						C1520.157,1337.461,1512.113,1345.022,1502.225,1345.022z M1426.952,1081.199c-30.489,0-55.293,22.55-55.293,50.27v196.695
						c0,3.127,2.981,5.673,6.647,5.673h123.92c3.666,0,6.647-2.546,6.647-5.673v-196.695c0-27.72-24.805-50.27-55.293-50.27
						H1426.952z"/>
				</g>
				<g>
					<path style="fill:#FFFFFF;" d="M1522.721,1585.313h-156.687v-197.31h156.687V1585.313z M1376.125,1575.223h136.505v-177.128
						h-136.505V1575.223z"/>
					<path style="fill:#FFFFFF;" d="M1440.266,1570.877h-57.219c-1.857,0-3.364-1.504-3.364-3.364v-161.709
						c0-1.859,1.506-3.364,3.364-3.364h57.219c1.858,0,3.364,1.504,3.364,3.364v161.709
						C1443.63,1569.372,1442.124,1570.877,1440.266,1570.877z M1386.411,1564.15h50.492v-154.982h-50.492V1564.15z"/>
					<path style="fill:#FFFFFF;" d="M1505.55,1571.425h-57.217c-1.858,0-3.364-1.505-3.364-3.364v-161.713
						c0-1.859,1.506-3.364,3.364-3.364h57.217c1.858,0,3.364,1.504,3.364,3.364v161.713
						C1508.913,1569.921,1507.407,1571.425,1505.55,1571.425z M1451.696,1564.698h50.49v-154.985h-50.49V1564.698z"/>
				</g>
			</g>
		</g>
		<g>
			<g>
				
					<linearGradient id="SVGID_00000132789177482515950400000018128719127429429416_" gradientUnits="userSpaceOnUse" x1="2840.9373" y1="2230.7236" x2="3781.8145" y2="1126.2166">
					<stop  offset="0" style="stop-color:#B37CFF"/>
					<stop  offset="1" style="stop-color:#F895E7"/>
				</linearGradient>
				
					<rect x="2711.789" y="1671.519" style="fill:url(#SVGID_00000132789177482515950400000018128719127429429416_);" width="458.222" height="883.715"/>
				
					<linearGradient id="SVGID_00000106125043943058887170000001964790498423671720_" gradientUnits="userSpaceOnUse" x1="1946.3026" y1="1766.7146" x2="3196.1946" y2="1484.7848">
					<stop  offset="0" style="stop-color:#A737D5"/>
					<stop  offset="1" style="stop-color:#EF497A"/>
				</linearGradient>
				<path style="fill:url(#SVGID_00000106125043943058887170000001964790498423671720_);" d="M3231.383,1747.889h-541.414
					l-99.089-398.217h524.581l137.25,364.816C3259.938,1730.07,3248.559,1747.889,3231.383,1747.889z"/>
				
					<linearGradient id="SVGID_00000057857110686709285440000012782879814435712678_" gradientUnits="userSpaceOnUse" x1="2790.2678" y1="792.6694" x2="2823.6287" y2="1610.0168">
					<stop  offset="0" style="stop-color:#233894"/>
					<stop  offset="0.9964" style="stop-color:#DD397A"/>
				</linearGradient>
				<path style="fill:url(#SVGID_00000057857110686709285440000012782879814435712678_);" d="M3115.461,1355.127l-590.735,2.369
					l-16.361-49.082l570.847,3.073c20.02,0,36.249,11.847,36.249,26.46V1355.127z"/>
				<g style="opacity:0.89;">
					<path style="opacity:0.71;fill:#FFFFFF;" d="M3072.061,2315.213h-259.595c-0.62,0-1.123-0.503-1.123-1.123v-401.426
						c0-0.62,0.503-1.123,1.123-1.123h259.595c0.62,0,1.123,0.503,1.123,1.123v401.426
						C3073.184,2314.71,3072.681,2315.213,3072.061,2315.213z"/>
					<g>
						
							<linearGradient id="SVGID_00000114773054035947911960000010041176006642217644_" gradientUnits="userSpaceOnUse" x1="2883.8506" y1="1524.2063" x2="2875.5825" y2="3409.3079">
							<stop  offset="0" style="stop-color:#A737D5"/>
							<stop  offset="1" style="stop-color:#EF497A"/>
						</linearGradient>
						<path style="fill:url(#SVGID_00000114773054035947911960000010041176006642217644_);" d="M2931.473,2293.393H2831.06
							c-0.345,0-0.624-0.28-0.624-0.624v-358.784c0-0.345,0.28-0.624,0.624-0.624h100.414c0.345,0,0.624,0.279,0.624,0.624v358.784
							C2932.097,2293.113,2931.818,2293.393,2931.473,2293.393z"/>
						
							<linearGradient id="SVGID_00000085962871949715538830000009900987259431399351_" gradientUnits="userSpaceOnUse" x1="3005.8425" y1="1524.7397" x2="2997.5745" y2="3409.8413">
							<stop  offset="0" style="stop-color:#A737D5"/>
							<stop  offset="1" style="stop-color:#EF497A"/>
						</linearGradient>
						<path style="fill:url(#SVGID_00000085962871949715538830000009900987259431399351_);" d="M3053.467,2293.393h-100.413
							c-0.344,0-0.624-0.28-0.624-0.624v-358.784c0-0.345,0.28-0.624,0.624-0.624h100.413c0.345,0,0.624,0.279,0.624,0.624v358.784
							C3054.092,2293.113,3053.812,2293.393,3053.467,2293.393z"/>
					</g>
				</g>
				
					<linearGradient id="SVGID_00000057119929670629633310000011023741785340336006_" gradientUnits="userSpaceOnUse" x1="1600.4534" y1="1869.689" x2="2655.9128" y2="896.6866">
					<stop  offset="0" style="stop-color:#B37CFF"/>
					<stop  offset="1" style="stop-color:#F895E7"/>
				</linearGradient>
				<path style="fill:url(#SVGID_00000057119929670629633310000011023741785340336006_);" d="M1117.18,2555.234h448.046v-883.715
					h-458.222v873.539C1107.003,2550.678,1111.559,2555.234,1117.18,2555.234z"/>
				
					<linearGradient id="SVGID_00000169529672847782848500000014551552194434429059_" gradientUnits="userSpaceOnUse" x1="1712.2344" y1="1692.4746" x2="842.0075" y2="1242.761">
					<stop  offset="0" style="stop-color:#A737D5"/>
					<stop  offset="1" style="stop-color:#EF497A"/>
				</linearGradient>
				<path style="fill:url(#SVGID_00000169529672847782848500000014551552194434429059_);" d="M1045.631,1747.889h541.414
					l193.273-423.115l-618.766,24.898l-137.25,364.816C1017.077,1730.07,1028.455,1747.889,1045.631,1747.889z"/>
				
					<linearGradient id="SVGID_00000069375233624909903600000013042091644761292722_" gradientUnits="userSpaceOnUse" x1="1499.5677" y1="564.7128" x2="1499.5677" y2="1688.1586">
					<stop  offset="0" style="stop-color:#233894"/>
					<stop  offset="0.9964" style="stop-color:#DD397A"/>
				</linearGradient>
				<path style="fill:url(#SVGID_00000069375233624909903600000013042091644761292722_);" d="M1161.554,1355.127l626.945-9.901
					l49.082-40.901l-636.982,7.163c-21.564,0-39.045,11.847-39.045,26.46V1355.127z"/>
				<g style="opacity:0.89;">
					<path style="opacity:0.71;fill:#FFFFFF;" d="M1204.953,2315.213h259.595c0.62,0,1.123-0.503,1.123-1.123v-401.426
						c0-0.62-0.503-1.123-1.123-1.123h-259.595c-0.62,0-1.123,0.503-1.123,1.123v401.426
						C1203.83,2314.71,1204.333,2315.213,1204.953,2315.213z"/>
					<g>
						
							<linearGradient id="SVGID_00000133513409536879585480000018111323444641973162_" gradientUnits="userSpaceOnUse" x1="1398.3606" y1="1517.6891" x2="1390.0925" y2="3402.7908">
							<stop  offset="0" style="stop-color:#A737D5"/>
							<stop  offset="1" style="stop-color:#EF497A"/>
						</linearGradient>
						<path style="fill:url(#SVGID_00000133513409536879585480000018111323444641973162_);" d="M1345.541,2293.393h100.414
							c0.345,0,0.624-0.28,0.624-0.624v-358.784c0-0.345-0.279-0.624-0.624-0.624h-100.414c-0.345,0-0.624,0.279-0.624,0.624
							v358.784C1344.917,2293.113,1345.196,2293.393,1345.541,2293.393z"/>
						
							<linearGradient id="SVGID_00000123439771193261951860000007325920611983044756_" gradientUnits="userSpaceOnUse" x1="1276.3685" y1="1517.1555" x2="1268.1003" y2="3402.2573">
							<stop  offset="0" style="stop-color:#A737D5"/>
							<stop  offset="1" style="stop-color:#EF497A"/>
						</linearGradient>
						<path style="fill:url(#SVGID_00000123439771193261951860000007325920611983044756_);" d="M1223.547,2293.393h100.414
							c0.345,0,0.624-0.28,0.624-0.624v-358.784c0-0.345-0.279-0.624-0.624-0.624h-100.414c-0.345,0-0.624,0.279-0.624,0.624
							v358.784C1222.922,2293.113,1223.202,2293.393,1223.547,2293.393z"/>
					</g>
				</g>
				
					<linearGradient id="SVGID_00000168837386029863673180000007021627699018306970_" gradientUnits="userSpaceOnUse" x1="1747.6561" y1="3308.8647" x2="2361.269" y2="1378.0315">
					<stop  offset="0" style="stop-color:#B37CFF"/>
					<stop  offset="1" style="stop-color:#F895E7"/>
				</linearGradient>
				<path style="fill:url(#SVGID_00000168837386029863673180000007021627699018306970_);" d="M2138.507,1118.799
					c0,0-621.221,468.986-636.612,468.986v974.309c0,17.753,14.391,32.144,32.144,32.144h1212.59
					c15.734,0,28.489-12.755,28.489-28.489v-977.964L2138.507,1118.799z"/>
				<g>
					
						<linearGradient id="SVGID_00000178170849003535972710000004096583841579650951_" gradientUnits="userSpaceOnUse" x1="2163.4412" y1="3287.5344" x2="2097.7422" y2="2347.2141">
						<stop  offset="0" style="stop-color:#233894"/>
						<stop  offset="0.9964" style="stop-color:#DD397A"/>
					</linearGradient>
					<path style="fill:url(#SVGID_00000178170849003535972710000004096583841579650951_);" d="M2307.424,2555.234h-394.761v-63.796
						c0-1.751,1.419-3.171,3.171-3.171h388.42c1.751,0,3.17,1.419,3.17,3.17V2555.234z"/>
					
						<linearGradient id="SVGID_00000008871612800611101910000017406067874420495031_" gradientUnits="userSpaceOnUse" x1="2093.6516" y1="2334.6091" x2="2117.4111" y2="2685.063">
						<stop  offset="0" style="stop-color:#233894"/>
						<stop  offset="0.9964" style="stop-color:#DD397A"/>
					</linearGradient>
					<path style="fill:url(#SVGID_00000008871612800611101910000017406067874420495031_);" d="M2307.424,2608.345h-394.761v-63.796
						c0-1.751,1.419-3.17,3.171-3.17h388.42c1.751,0,3.17,1.419,3.17,3.17V2608.345z"/>
					
						<linearGradient id="SVGID_00000039094109765816878110000000034652003121308345_" gradientUnits="userSpaceOnUse" x1="1310.0205" y1="2955.9834" x2="2242.7712" y2="2105.4136">
						<stop  offset="0" style="stop-color:#233894"/>
						<stop  offset="0.9964" style="stop-color:#DD397A"/>
					</linearGradient>
					<path style="fill:url(#SVGID_00000039094109765816878110000000034652003121308345_);" d="M2244.763,2488.267h-269.438v-522.069
						c0-1.966,1.594-3.56,3.56-3.56h262.318c1.966,0,3.56,1.594,3.56,3.56V2488.267z"/>
					<path style="opacity:0.89;fill:#FFFFFF;" d="M2225.738,1927.259h-231.389c-10.507,0-19.025-8.517-19.025-19.025v-16.617
						c0-9.995,7.735-18.286,17.706-18.979l231.389-16.073c11-0.764,20.344,7.953,20.344,18.979v32.691
						C2244.763,1918.742,2236.245,1927.259,2225.738,1927.259z"/>
					<g>
						
							<linearGradient id="SVGID_00000151518203859328038600000013791287995611897512_" gradientUnits="userSpaceOnUse" x1="2657.0181" y1="1180.3944" x2="2227.1433" y2="2290.9021">
							<stop  offset="0" style="stop-color:#A737D5"/>
							<stop  offset="1" style="stop-color:#EF497A"/>
						</linearGradient>
						<path style="opacity:0.9;fill:url(#SVGID_00000151518203859328038600000013791287995611897512_);" d="M2458.731,1693.758
							h-2.56c-66.545,0-124.804,47.113-124.804,113.658v119.843h127.364V1693.758z"/>
						
							<linearGradient id="SVGID_00000022524123529765917190000001717375198005883013_" gradientUnits="userSpaceOnUse" x1="2756.9753" y1="1219.0891" x2="2327.0996" y2="2329.5991">
							<stop  offset="0" style="stop-color:#A737D5"/>
							<stop  offset="1" style="stop-color:#EF497A"/>
						</linearGradient>
						<path style="opacity:0.9;fill:url(#SVGID_00000022524123529765917190000001717375198005883013_);" d="M2331.367,1962.638
							v352.574c0,11.873,13.936,30.278,25.808,30.278h101.556v-382.852H2331.367z"/>
						
							<linearGradient id="SVGID_00000114769307599760211790000013540268640654480524_" gradientUnits="userSpaceOnUse" x1="2776.698" y1="1226.7233" x2="2346.823" y2="2337.2314">
							<stop  offset="0" style="stop-color:#A737D5"/>
							<stop  offset="1" style="stop-color:#EF497A"/>
						</linearGradient>
						<path style="opacity:0.9;fill:url(#SVGID_00000114769307599760211790000013540268640654480524_);" d="M2493.507,1693.758
							h-6.473v233.501h127.365v-119.843C2614.398,1740.871,2560.053,1693.758,2493.507,1693.758z"/>
						
							<linearGradient id="SVGID_00000062879966410789130360000007803949826110590642_" gradientUnits="userSpaceOnUse" x1="2888.1624" y1="1269.869" x2="2458.2869" y2="2380.3784">
							<stop  offset="0" style="stop-color:#A737D5"/>
							<stop  offset="1" style="stop-color:#EF497A"/>
						</linearGradient>
						<path style="opacity:0.9;fill:url(#SVGID_00000062879966410789130360000007803949826110590642_);" d="M2487.034,2345.49
							h105.469c11.872,0,21.896-18.405,21.896-30.278v-352.574h-127.365V2345.49z"/>
					</g>
					<g style="opacity:0.9;">
						
							<linearGradient id="SVGID_00000067194942025134852800000011228653409685629851_" gradientUnits="userSpaceOnUse" x1="1939.5767" y1="1332.981" x2="1500.7478" y2="2264.3748">
							<stop  offset="0" style="stop-color:#A737D5"/>
							<stop  offset="1" style="stop-color:#EF497A"/>
						</linearGradient>
						<path style="opacity:0.9;fill:url(#SVGID_00000067194942025134852800000011228653409685629851_);" d="M1757.221,1693.758
							h-2.56c-66.546,0-124.804,47.113-124.804,113.658v119.843h127.364V1693.758z"/>
						
							<linearGradient id="SVGID_00000029045804461996909760000006886722275088767138_" gradientUnits="userSpaceOnUse" x1="2054.8137" y1="1387.2749" x2="1615.9849" y2="2318.6692">
							<stop  offset="0" style="stop-color:#A737D5"/>
							<stop  offset="1" style="stop-color:#EF497A"/>
						</linearGradient>
						<path style="opacity:0.9;fill:url(#SVGID_00000029045804461996909760000006886722275088767138_);" d="M1629.857,1962.638
							v352.574c0,11.873,13.936,30.278,25.808,30.278h101.556v-382.852H1629.857z"/>
						
							<linearGradient id="SVGID_00000034062981938462392800000000248972934951648669_" gradientUnits="userSpaceOnUse" x1="2049.7393" y1="1384.8864" x2="1610.9106" y2="2316.28">
							<stop  offset="0" style="stop-color:#A737D5"/>
							<stop  offset="1" style="stop-color:#EF497A"/>
						</linearGradient>
						<path style="opacity:0.9;fill:url(#SVGID_00000034062981938462392800000000248972934951648669_);" d="M1791.997,1693.758
							h-6.473v233.501h127.364v-119.843C1912.888,1740.871,1858.543,1693.758,1791.997,1693.758z"/>
						
							<linearGradient id="SVGID_00000037670972095983550730000008481296777718856621_" gradientUnits="userSpaceOnUse" x1="2177.6648" y1="1445.1575" x2="1738.8356" y2="2376.552">
							<stop  offset="0" style="stop-color:#A737D5"/>
							<stop  offset="1" style="stop-color:#EF497A"/>
						</linearGradient>
						<path style="opacity:0.9;fill:url(#SVGID_00000037670972095983550730000008481296777718856621_);" d="M1785.524,2345.49
							h105.469c11.872,0,21.895-18.405,21.895-30.278v-352.574h-127.364V2345.49z"/>
					</g>
					<path style="fill:#FFFFFF;" d="M2072.63,2346.967h-40.666c-13.561,0-24.592-11.032-24.592-24.592v-300.629
						c0-13.56,11.031-24.592,24.592-24.592h40.666c13.561,0,24.593,11.032,24.593,24.592v300.629
						C2097.222,2335.935,2086.19,2346.967,2072.63,2346.967z M2031.964,2000.106c-11.932,0-21.639,9.708-21.639,21.639v300.629
						c0,11.931,9.708,21.639,21.639,21.639h40.666c11.931,0,21.639-9.708,21.639-21.639v-300.629
						c0-11.931-9.708-21.639-21.639-21.639H2031.964z"/>
					<path style="fill:#FFFFFF;" d="M2186.11,2346.967h-40.666c-13.561,0-24.592-11.032-24.592-24.592v-300.629
						c0-13.56,11.032-24.592,24.592-24.592h40.666c13.561,0,24.592,11.032,24.592,24.592v300.629
						C2210.702,2335.935,2199.67,2346.967,2186.11,2346.967z M2145.444,2000.106c-11.931,0-21.639,9.708-21.639,21.639v300.629
						c0,11.931,9.708,21.639,21.639,21.639h40.666c11.932,0,21.639-9.708,21.639-21.639v-300.629
						c0-11.931-9.708-21.639-21.639-21.639H2145.444z"/>
					<path style="fill:#FFFFFF;" d="M2072.63,2448.321h-40.666c-13.561,0-24.592-11.031-24.592-24.593v-34.578
						c0-13.559,11.031-24.591,24.592-24.591h40.666c13.561,0,24.593,11.032,24.593,24.591v34.578
						C2097.222,2437.289,2086.19,2448.321,2072.63,2448.321z M2031.964,2367.512c-11.932,0-21.639,9.706-21.639,21.638v34.578
						c0,11.931,9.708,21.639,21.639,21.639h40.666c11.931,0,21.639-9.708,21.639-21.639v-34.578
						c0-11.932-9.708-21.638-21.639-21.638H2031.964z"/>
					<path style="fill:#FFFFFF;" d="M2186.11,2448.321h-40.666c-13.561,0-24.592-11.031-24.592-24.593v-34.578
						c0-13.559,11.032-24.591,24.592-24.591h40.666c13.561,0,24.592,11.032,24.592,24.591v34.578
						C2210.702,2437.289,2199.67,2448.321,2186.11,2448.321z M2145.444,2367.512c-11.931,0-21.639,9.706-21.639,21.638v34.578
						c0,11.931,9.708,21.639,21.639,21.639h40.666c11.932,0,21.639-9.708,21.639-21.639v-34.578
						c0-11.932-9.708-21.638-21.639-21.638H2145.444z"/>
					<path style="fill:#FFFFFF;" d="M2625.417,2367.512h-306.594c-17.58,0-31.882-14.303-31.882-31.884v-530.836
						c0-83.945,68.295-152.238,152.24-152.238h65.88c83.945,0,152.239,68.293,152.239,152.238v530.836
						C2657.3,2353.208,2642.998,2367.512,2625.417,2367.512z M2439.181,1655.506c-82.317,0-149.287,66.969-149.287,149.286v530.836
						c0,15.953,12.978,28.931,28.929,28.931h306.594c15.951,0,28.929-12.978,28.929-28.931v-530.836
						c0-82.317-66.968-149.286-149.285-149.286H2439.181z"/>
					<path style="fill:#FFFFFF;" d="M1924.045,2367.512h-306.593c-17.58,0-31.882-14.303-31.882-31.884v-530.836
						c0-83.945,68.293-152.238,152.238-152.238h65.88c83.945,0,152.24,68.293,152.24,152.238v530.836
						C1955.927,2353.208,1941.626,2367.512,1924.045,2367.512z M1737.808,1655.506c-82.317,0-149.286,66.969-149.286,149.286
						v530.836c0,15.953,12.978,28.931,28.93,28.931h306.593c15.951,0,28.929-12.978,28.929-28.931v-530.836
						c0-82.317-66.97-149.286-149.287-149.286H1737.808z"/>
				</g>
				<g>
					
						<linearGradient id="SVGID_00000058557699933888741670000008955623097825659010_" gradientUnits="userSpaceOnUse" x1="2424.1831" y1="93.9108" x2="2506.2061" y2="2103.4734">
						<stop  offset="0" style="stop-color:#A737D5"/>
						<stop  offset="1" style="stop-color:#EF497A"/>
					</linearGradient>
					
						<rect x="2417.276" y="1129.041" style="fill:url(#SVGID_00000058557699933888741670000008955623097825659010_);" width="105.314" height="171.475"/>
					
						<linearGradient id="SVGID_00000142170986573719768540000002309686508622872707_" gradientUnits="userSpaceOnUse" x1="2425.6646" y1="302.27" x2="2493.7996" y2="1521.8673">
						<stop  offset="0" style="stop-color:#233894"/>
						<stop  offset="0.9964" style="stop-color:#DD397A"/>
					</linearGradient>
					<path style="fill:url(#SVGID_00000142170986573719768540000002309686508622872707_);" d="M2557.299,1156.826h-170.224v-46.562
						c0-3.367,2.729-6.096,6.095-6.096h154.85c5.124,0,9.278,4.154,9.278,9.278V1156.826z"/>
					
						<linearGradient id="SVGID_00000110471086760117949630000000832826455966067369_" gradientUnits="userSpaceOnUse" x1="2143.1787" y1="261.9882" x2="2143.1787" y2="2004.3389">
						<stop  offset="0" style="stop-color:#233894"/>
						<stop  offset="0.9964" style="stop-color:#DD397A"/>
					</linearGradient>
					<path style="fill:url(#SVGID_00000110471086760117949630000000832826455966067369_);" d="M1462.864,1636.954l675.643-518.155
						l641.34,497.467c23.311,18.082,57.503,5.418,63.413-23.486l8.996-44l-713.748-543.713l-690.877,527.698
						c-12.37,9.448-16.859,26.023-10.947,40.423L1462.864,1636.954z"/>
				</g>
				
					<linearGradient id="SVGID_00000064335473971648497740000013096028880721811591_" gradientUnits="userSpaceOnUse" x1="2100.894" y1="605.1663" x2="2079.8259" y2="1405.7732">
					<stop  offset="0" style="stop-color:#A737D5"/>
					<stop  offset="1" style="stop-color:#EF497A"/>
				</linearGradient>
				<path style="fill:url(#SVGID_00000064335473971648497740000013096028880721811591_);" d="M2082.017,1215.103l35.262,169.416
					l148.179,30.261l85.576-51.225l-88.914,60.187l-162.978-27.178l-111.443,71.719l91.398,189.946
					c0,0-17.132,149.433-16.393,143.56c0.738-5.872-5.639-145.26-5.639-145.26l-73.349,13.44l64.362-35.106
					c0,0-78.988-169.629-83.48-175.186c-4.492-5.557-161.365,38.241-156.918,27.058s151.446-50.39,151.446-50.39l138.142-59.279
					L2082.017,1215.103z"/>
			</g>
		</g>
		<g>
			<g>
				
					<linearGradient id="SVGID_00000056426511329886445220000000263640928106937010_" gradientUnits="userSpaceOnUse" x1="3358.5176" y1="2109.509" x2="1617.9371" y2="3244.6685">
					<stop  offset="0" style="stop-color:#FDF53F"/>
					<stop  offset="1" style="stop-color:#D93C65"/>
				</linearGradient>
				
					<rect x="2150.204" y="2311.694" style="fill:url(#SVGID_00000056426511329886445220000000263640928106937010_);" width="454.012" height="875.595"/>
				
					<linearGradient id="SVGID_00000125602237595868877980000016242583403054830994_" gradientUnits="userSpaceOnUse" x1="343.0237" y1="3327.8311" x2="3168.4551" y2="1726.7522">
					<stop  offset="0" style="stop-color:#FDF53F"/>
					<stop  offset="1" style="stop-color:#D93C65"/>
				</linearGradient>
				<path style="fill:url(#SVGID_00000125602237595868877980000016242583403054830994_);" d="M2665.024,2387.362h-536.439
					l-98.178-394.558h519.761l135.989,361.464C2693.316,2369.707,2682.042,2387.362,2665.024,2387.362z"/>
				
					<linearGradient id="SVGID_00000150070336333484503740000011071709981462634146_" gradientUnits="userSpaceOnUse" x1="2276.2061" y1="1380.16" x2="2276.2061" y2="1824.1334">
					<stop  offset="0" style="stop-color:#FDF53F"/>
					<stop  offset="1" style="stop-color:#D93C65"/>
				</linearGradient>
				<path style="fill:url(#SVGID_00000150070336333484503740000011071709981462634146_);" d="M2550.167,1998.209l-547.923,21.62
					v-43.239l512.007-21.62c19.836,0,35.916,11.738,35.916,26.217V1998.209z"/>
				<g style="opacity:0.89;">
					<path style="fill:#FFFFFF;" d="M2507.156,2949.473h-257.189c-0.62,0-1.123-0.503-1.123-1.123v-397.717
						c0-0.62,0.503-1.123,1.123-1.123h257.189c0.62,0,1.123,0.503,1.123,1.123v397.717
						C2508.279,2948.97,2507.776,2949.473,2507.156,2949.473z"/>
					<g style="opacity:0.9;">
						
							<linearGradient id="SVGID_00000096044768309848911650000016154356397861632158_" gradientUnits="userSpaceOnUse" x1="2618.4604" y1="1963.4263" x2="2208.8508" y2="3035.4929">
							<stop  offset="0" style="stop-color:#FDF53F"/>
							<stop  offset="1" style="stop-color:#D93C65"/>
						</linearGradient>
						<path style="fill:url(#SVGID_00000096044768309848911650000016154356397861632158_);" d="M2367.865,2927.853h-99.479
							c-0.345,0-0.624-0.28-0.624-0.624v-355.475c0-0.345,0.279-0.624,0.624-0.624h99.479c0.345,0,0.624,0.28,0.624,0.624v355.475
							C2368.489,2927.573,2368.209,2927.853,2367.865,2927.853z"/>
						
							<linearGradient id="SVGID_00000115480285089357990650000013124021450491046828_" gradientUnits="userSpaceOnUse" x1="2723.9006" y1="2003.8188" x2="2314.2913" y2="3075.885">
							<stop  offset="0" style="stop-color:#FDF53F"/>
							<stop  offset="1" style="stop-color:#D93C65"/>
						</linearGradient>
						<path style="fill:url(#SVGID_00000115480285089357990650000013124021450491046828_);" d="M2488.738,2927.853h-99.479
							c-0.345,0-0.624-0.28-0.624-0.624v-355.476c0-0.345,0.279-0.624,0.624-0.624h99.479c0.345,0,0.624,0.28,0.624,0.624v355.475
							C2489.362,2927.573,2489.083,2927.853,2488.738,2927.853z"/>
					</g>
				</g>
				
					<linearGradient id="SVGID_00000018216220677094430070000005205147413504714139_" gradientUnits="userSpaceOnUse" x1="1391.125" y1="2475.6982" x2="244.4044" y2="2995.5454">
					<stop  offset="0" style="stop-color:#FDF53F"/>
					<stop  offset="1" style="stop-color:#D93C65"/>
				</linearGradient>
				<path style="fill:url(#SVGID_00000018216220677094430070000005205147413504714139_);" d="M570.341,3187.289h443.836v-875.595
					H560.165v865.419C560.165,3182.732,564.721,3187.289,570.341,3187.289z"/>
				
					<linearGradient id="SVGID_00000125565148142396112630000005655711232537757329_" gradientUnits="userSpaceOnUse" x1="2969.155" y1="1395.5508" x2="318.6322" y2="2377.7236">
					<stop  offset="0" style="stop-color:#FDF53F"/>
					<stop  offset="1" style="stop-color:#D93C65"/>
				</linearGradient>
				<path style="fill:url(#SVGID_00000125565148142396112630000005655711232537757329_);" d="M499.357,2387.362h536.44
					l161.976-391.693l-583.559-2.865l-135.989,361.464C471.064,2369.707,482.338,2387.362,499.357,2387.362z"/>
				
					<linearGradient id="SVGID_00000004526716088255299550000000710095654629067698_" gradientUnits="userSpaceOnUse" x1="905.1983" y1="1597.9304" x2="945.868" y2="2062.7317">
					<stop  offset="0" style="stop-color:#FDF53F"/>
					<stop  offset="1" style="stop-color:#D93C65"/>
				</linearGradient>
				<path style="fill:url(#SVGID_00000004526716088255299550000000710095654629067698_);" d="M614.214,1998.208l634.01,2.505
					l15.135-35.316l-610.459-10.429c-21.366,0-38.687,11.738-38.687,26.217V1998.208z"/>
				<g style="opacity:0.89;">
					<path style="fill:#FFFFFF;" d="M657.225,2949.473h257.189c0.62,0,1.123-0.503,1.123-1.123v-397.717
						c0-0.62-0.503-1.123-1.123-1.123H657.225c-0.62,0-1.123,0.503-1.123,1.123v397.717
						C656.102,2948.97,656.605,2949.473,657.225,2949.473z"/>
					<g>
						
							<linearGradient id="SVGID_00000129898691684761854110000011352937300827147455_" gradientUnits="userSpaceOnUse" x1="1015.0712" y1="2046.6714" x2="767.4514" y2="3077.5745">
							<stop  offset="0" style="stop-color:#FDF53F"/>
							<stop  offset="1" style="stop-color:#D93C65"/>
						</linearGradient>
						<path style="fill:url(#SVGID_00000129898691684761854110000011352937300827147455_);" d="M796.516,2927.853h99.479
							c0.345,0,0.624-0.28,0.624-0.624v-355.475c0-0.345-0.279-0.624-0.624-0.624h-99.479c-0.345,0-0.624,0.28-0.624,0.624v355.475
							C795.892,2927.573,796.172,2927.853,796.516,2927.853z"/>
						
							<linearGradient id="SVGID_00000085944126792196284610000006898740470626681246_" gradientUnits="userSpaceOnUse" x1="900.802" y1="2019.1758" x2="653.1823" y2="3050.0789">
							<stop  offset="0" style="stop-color:#FDF53F"/>
							<stop  offset="1" style="stop-color:#D93C65"/>
						</linearGradient>
						<path style="fill:url(#SVGID_00000085944126792196284610000006898740470626681246_);" d="M675.643,2927.853h99.479
							c0.345,0,0.624-0.28,0.624-0.624v-355.475c0-0.345-0.28-0.624-0.624-0.624h-99.479c-0.345,0-0.624,0.28-0.624,0.624v355.475
							C675.019,2927.573,675.298,2927.853,675.643,2927.853z"/>
					</g>
				</g>
				
					<linearGradient id="SVGID_00000165227630842226379560000012967861510333566593_" gradientUnits="userSpaceOnUse" x1="1509.0596" y1="3521.844" x2="1821.8594" y2="65.9076">
					<stop  offset="0" style="stop-color:#FDF53F"/>
					<stop  offset="1" style="stop-color:#D93C65"/>
				</linearGradient>
				<path style="fill:url(#SVGID_00000165227630842226379560000012967861510333566593_);" d="M1582.191,1764.052
					c0,0-615.513,464.676-630.762,464.676v965.357c0,17.589,14.259,31.849,31.849,31.849h1201.448
					c15.59,0,28.228-12.638,28.228-28.228v-968.978L1582.191,1764.052z"/>
				<g>
					
						<linearGradient id="SVGID_00000127037826585893295990000002569112593142726528_" gradientUnits="userSpaceOnUse" x1="1539.9799" y1="2949.0176" x2="1563.5205" y2="3296.2444">
						<stop  offset="0" style="stop-color:#FDF53F"/>
						<stop  offset="1" style="stop-color:#D93C65"/>
					</linearGradient>
					<path style="fill:url(#SVGID_00000127037826585893295990000002569112593142726528_);" d="M1749.555,3187.289h-391.133v-63.181
						c0-1.751,1.419-3.17,3.17-3.17h384.793c1.751,0,3.17,1.419,3.17,3.17V3187.289z"/>
					
						<linearGradient id="SVGID_00000039846667028542397440000017884867855108709540_" gradientUnits="userSpaceOnUse" x1="1539.9799" y1="3001.6411" x2="1563.5205" y2="3348.8679">
						<stop  offset="0" style="stop-color:#FDF53F"/>
						<stop  offset="1" style="stop-color:#D93C65"/>
					</linearGradient>
					<path style="fill:url(#SVGID_00000039846667028542397440000017884867855108709540_);" d="M1749.555,3239.912h-391.133v-63.181
						c0-1.751,1.419-3.17,3.17-3.17h384.793c1.751,0,3.17,1.419,3.17,3.17V3239.912z"/>
					
						<linearGradient id="SVGID_00000029736166338764865060000000043374350545913020_" gradientUnits="userSpaceOnUse" x1="1893.1427" y1="2211.8345" x2="1710.5991" y2="2561.71">
						<stop  offset="0" style="stop-color:#FDF53F"/>
						<stop  offset="1" style="stop-color:#D93C65"/>
					</linearGradient>
					<path style="fill:url(#SVGID_00000029736166338764865060000000043374350545913020_);" d="M1687.47,3120.937h-266.963v-517.239
						c0-1.966,1.594-3.56,3.56-3.56h259.843c1.966,0,3.56,1.594,3.56,3.56V3120.937z"/>
					<path style="opacity:0.89;fill:#FFFFFF;" d="M1668.62,2565.084h-229.263c-10.41,0-18.85-8.439-18.85-18.85v-16.465
						c0-9.904,7.664-18.118,17.544-18.805l229.262-15.926c10.899-0.757,20.156,7.88,20.156,18.805v32.39
						C1687.47,2556.645,1679.03,2565.084,1668.62,2565.084z"/>
					<g>
						
							<linearGradient id="SVGID_00000044137127011778314910000015326792852648678589_" gradientUnits="userSpaceOnUse" x1="1844.323" y1="1742.3677" x2="1834.2329" y2="2711.0376">
							<stop  offset="0" style="stop-color:#FDF53F"/>
							<stop  offset="1" style="stop-color:#D93C65"/>
						</linearGradient>
						<path style="opacity:0.9;fill:url(#SVGID_00000044137127011778314910000015326792852648678589_);" d="M1899.472,2333.729
							h-2.537c-65.934,0-123.657,46.68-123.657,112.614v118.742h126.194V2333.729z"/>
						
							<linearGradient id="SVGID_00000039097171427048772160000009469747146703922317_" gradientUnits="userSpaceOnUse" x1="2198.2549" y1="1989.6482" x2="1744.1898" y2="2993.6365">
							<stop  offset="0" style="stop-color:#FDF53F"/>
							<stop  offset="1" style="stop-color:#D93C65"/>
						</linearGradient>
						<path style="opacity:0.9;fill:url(#SVGID_00000039097171427048772160000009469747146703922317_);" d="M1773.278,2600.138
							v349.334c0,11.763,13.808,30,25.571,30h100.623v-379.334H1773.278z"/>
						
							<linearGradient id="SVGID_00000165202900568558659970000010379731973414904217_" gradientUnits="userSpaceOnUse" x1="1997.96" y1="1743.9686" x2="1987.8698" y2="2712.6382">
							<stop  offset="0" style="stop-color:#FDF53F"/>
							<stop  offset="1" style="stop-color:#D93C65"/>
						</linearGradient>
						<path style="opacity:0.9;fill:url(#SVGID_00000165202900568558659970000010379731973414904217_);" d="M1933.928,2333.729
							h-6.413v231.355h126.194v-118.742C2053.709,2380.408,1999.863,2333.729,1933.928,2333.729z"/>
						
							<linearGradient id="SVGID_00000132802197573858881150000004134075192772063361_" gradientUnits="userSpaceOnUse" x1="2321.8655" y1="2045.5515" x2="1867.8018" y2="3049.5366">
							<stop  offset="0" style="stop-color:#FDF53F"/>
							<stop  offset="1" style="stop-color:#D93C65"/>
						</linearGradient>
						<path style="opacity:0.9;fill:url(#SVGID_00000132802197573858881150000004134075192772063361_);" d="M1927.515,2979.472
							h104.5c11.763,0,21.694-18.236,21.694-30v-349.334h-126.194V2979.472z"/>
					</g>
					<g>
						
							<linearGradient id="SVGID_00000105409225199538103570000015934780661802938496_" gradientUnits="userSpaceOnUse" x1="1242.8359" y1="1722.5511" x2="1101.5717" y2="2807.2607">
							<stop  offset="0" style="stop-color:#FDF53F"/>
							<stop  offset="1" style="stop-color:#D93C65"/>
						</linearGradient>
						<path style="opacity:0.9;fill:url(#SVGID_00000105409225199538103570000015934780661802938496_);" d="M1204.408,2333.729
							h-2.537c-65.934,0-123.657,46.68-123.657,112.614v118.742h126.194V2333.729z"/>
						
							<linearGradient id="SVGID_00000176009271401561001390000005838268843005619360_" gradientUnits="userSpaceOnUse" x1="1405.7332" y1="2004.0942" x2="1052.5717" y2="3053.4863">
							<stop  offset="0" style="stop-color:#FDF53F"/>
							<stop  offset="1" style="stop-color:#D93C65"/>
						</linearGradient>
						<path style="opacity:0.9;fill:url(#SVGID_00000176009271401561001390000005838268843005619360_);" d="M1078.214,2600.138
							v349.334c0,11.763,13.808,30,25.571,30h100.623v-379.334H1078.214z"/>
						
							<linearGradient id="SVGID_00000058556236120989005850000013339481995212404158_" gradientUnits="userSpaceOnUse" x1="1387.7499" y1="1741.424" x2="1246.4856" y2="2826.134">
							<stop  offset="0" style="stop-color:#FDF53F"/>
							<stop  offset="1" style="stop-color:#D93C65"/>
						</linearGradient>
						<path style="opacity:0.9;fill:url(#SVGID_00000058556236120989005850000013339481995212404158_);" d="M1238.864,2333.729
							h-6.413v231.355h126.194v-118.742C1358.645,2380.408,1304.798,2333.729,1238.864,2333.729z"/>
						
							<linearGradient id="SVGID_00000034080121746879113570000017541563475135642501_" gradientUnits="userSpaceOnUse" x1="1540.423" y1="2049.4248" x2="1187.2606" y2="3098.8193">
							<stop  offset="0" style="stop-color:#FDF53F"/>
							<stop  offset="1" style="stop-color:#D93C65"/>
						</linearGradient>
						<path style="opacity:0.9;fill:url(#SVGID_00000034080121746879113570000017541563475135642501_);" d="M1232.451,2979.472
							h104.5c11.763,0,21.694-18.236,21.694-30v-349.334h-126.194V2979.472z"/>
					</g>
					<path style="fill:#FFFFFF;" d="M1516.918,2980.935h-40.292c-13.436,0-24.366-10.931-24.366-24.366v-297.866
						c0-13.436,10.93-24.366,24.366-24.366h40.292c13.436,0,24.366,10.93,24.366,24.366v297.866
						C1541.285,2970.004,1530.354,2980.935,1516.918,2980.935z M1476.626,2637.262c-11.822,0-21.441,9.619-21.441,21.44v297.866
						c0,11.822,9.619,21.441,21.441,21.441h40.292c11.822,0,21.441-9.619,21.441-21.441v-297.866c0-11.822-9.619-21.44-21.441-21.44
						H1476.626z"/>
					<path style="fill:#FFFFFF;" d="M1629.355,2980.935h-40.292c-13.436,0-24.366-10.931-24.366-24.366v-297.866
						c0-13.436,10.931-24.366,24.366-24.366h40.292c13.436,0,24.366,10.93,24.366,24.366v297.866
						C1653.722,2970.004,1642.792,2980.935,1629.355,2980.935z M1589.063,2637.262c-11.822,0-21.44,9.619-21.44,21.44v297.866
						c0,11.822,9.619,21.441,21.44,21.441h40.292c11.822,0,21.441-9.619,21.441-21.441v-297.866c0-11.822-9.619-21.44-21.441-21.44
						H1589.063z"/>
					<path style="fill:#FFFFFF;" d="M1516.918,3081.357h-40.292c-13.436,0-24.366-10.93-24.366-24.366v-34.261
						c0-13.435,10.93-24.365,24.366-24.365h40.292c13.436,0,24.366,10.931,24.366,24.365v34.261
						C1541.285,3070.427,1530.354,3081.357,1516.918,3081.357z M1476.626,3001.291c-11.822,0-21.441,9.617-21.441,21.439v34.261
						c0,11.822,9.619,21.44,21.441,21.44h40.292c11.822,0,21.441-9.619,21.441-21.44v-34.261c0-11.822-9.619-21.439-21.441-21.439
						H1476.626z"/>
					<path style="fill:#FFFFFF;" d="M1629.355,3081.357h-40.292c-13.436,0-24.366-10.93-24.366-24.366v-34.261
						c0-13.435,10.931-24.365,24.366-24.365h40.292c13.436,0,24.366,10.931,24.366,24.365v34.261
						C1653.722,3070.427,1642.792,3081.357,1629.355,3081.357z M1589.063,3001.291c-11.822,0-21.44,9.617-21.44,21.439v34.261
						c0,11.822,9.619,21.44,21.44,21.44h40.292c11.822,0,21.441-9.619,21.441-21.44v-34.261c0-11.822-9.619-21.439-21.441-21.439
						H1589.063z"/>
					<path style="fill:#FFFFFF;" d="M2064.626,3001.291H1760.85c-17.419,0-31.589-14.172-31.589-31.591v-525.959
						c0-83.173,67.668-150.839,150.841-150.839h65.274c83.173,0,150.84,67.666,150.84,150.839V2969.7
						C2096.216,2987.12,2082.045,3001.291,2064.626,3001.291z M1880.102,2295.827c-81.561,0-147.915,66.354-147.915,147.914V2969.7
						c0,15.806,12.859,28.665,28.663,28.665h303.776c15.805,0,28.664-12.859,28.664-28.665v-525.959
						c0-81.56-66.353-147.914-147.914-147.914H1880.102z"/>
					<path style="fill:#FFFFFF;" d="M1369.699,3001.291h-303.776c-17.419,0-31.589-14.172-31.589-31.591v-525.959
						c0-83.173,67.666-150.839,150.839-150.839h65.274c83.174,0,150.841,67.666,150.841,150.839V2969.7
						C1401.288,2987.12,1387.118,3001.291,1369.699,3001.291z M1185.173,2295.827c-81.56,0-147.914,66.354-147.914,147.914V2969.7
						c0,15.806,12.859,28.665,28.664,28.665h303.776c15.805,0,28.663-12.859,28.663-28.665v-525.959
						c0-81.56-66.354-147.914-147.915-147.914H1185.173z"/>
				</g>
				<g>
					
						<linearGradient id="SVGID_00000014624639429204226680000017196512799601190016_" gradientUnits="userSpaceOnUse" x1="1865.2416" y1="748.5814" x2="1946.5106" y2="2739.679">
						<stop  offset="0" style="stop-color:#233894"/>
						<stop  offset="0.9964" style="stop-color:#DD397A"/>
					</linearGradient>
					
						<rect x="1858.397" y="1774.2" style="fill:url(#SVGID_00000014624639429204226680000017196512799601190016_);" width="104.347" height="169.9"/>
					
						<linearGradient id="SVGID_00000024700136488409476000000013537857049911713198_" gradientUnits="userSpaceOnUse" x1="1902.9492" y1="1538.7424" x2="1930.3939" y2="2211.1394">
						<stop  offset="0" style="stop-color:#233894"/>
						<stop  offset="0.9964" style="stop-color:#DD397A"/>
					</linearGradient>
					<path style="fill:url(#SVGID_00000024700136488409476000000013537857049911713198_);" d="M1997.134,1801.73h-168.66v-46.078
						c0-3.367,2.729-6.096,6.095-6.096h153.286c5.124,0,9.278,4.154,9.278,9.278V1801.73z"/>
					
						<linearGradient id="SVGID_00000153691885589521124800000006297485435813933244_" gradientUnits="userSpaceOnUse" x1="1675.7595" y1="-383.9117" x2="1621.9427" y2="1176.8022">
						<stop  offset="0" style="stop-color:#FDF53F"/>
						<stop  offset="1" style="stop-color:#D93C65"/>
					</linearGradient>
					<path style="fill:url(#SVGID_00000153691885589521124800000006297485435813933244_);" d="M912.755,2277.446l669.435-513.394
						l635.447,492.896c23.097,17.915,56.975,5.368,62.83-23.27l8.913-43.595l-707.19-538.717l-684.529,522.849
						c-12.256,9.362-16.704,25.784-10.846,40.052L912.755,2277.446z"/>
				</g>
			</g>
			<g>
				
					<linearGradient id="SVGID_00000104692115040997591260000000840349521917286790_" gradientUnits="userSpaceOnUse" x1="2208.4678" y1="2576.3999" x2="2881.1865" y2="2462.0376">
					<stop  offset="0" style="stop-color:#53D8FF"/>
					<stop  offset="1" style="stop-color:#3840F7"/>
				</linearGradient>
				<path style="fill:url(#SVGID_00000104692115040997591260000000840349521917286790_);" d="M2174.155,2640.259
					c91.712,16.079,186.51,20.325,278.152,1.457c41.504-8.545,81.979-21.765,120.5-39.425
					c59.642-27.342,130.07-58.672,139.047-132.574c5.017-41.302-24.649-61.493-60.939-68.615
					c-12.246-2.403-24.668-3.971-36.86-0.448c-11.439,3.306-9.458,7.777-8.602,18.661c0.891,11.321,1.772,22.642,2.655,33.964
					c1.543,19.803-28.002,29.203-42.161,37.421c-33.493,19.44-68.906,35.481-105.89,47.037
					c-88.403,27.623-182.464,28.63-273.788,18.1c-30.139-3.475-54.121,24.851-45.835,54.037
					C2144.908,2625.634,2158.019,2637.43,2174.155,2640.259z"/>
				
					<linearGradient id="SVGID_00000038390745250684971410000010526515905798685570_" gradientUnits="userSpaceOnUse" x1="2214.9968" y1="2614.8069" x2="2887.7195" y2="2500.4438">
					<stop  offset="0" style="stop-color:#53D8FF"/>
					<stop  offset="1" style="stop-color:#3840F7"/>
				</linearGradient>
				<path style="fill:url(#SVGID_00000038390745250684971410000010526515905798685570_);" d="M2248.822,2731.048l-188.638-132.608
					c-5.745-4.039-5.103-12.747,1.174-15.899l198.252-99.548c7.376-3.704,16.006,1.928,15.584,10.172
					c-23.854,82.649-26.543,159.218-11.8,230.781C2263.022,2731.221,2254.782,2735.237,2248.822,2731.048z"/>
			</g>
			<g>
				
					<linearGradient id="SVGID_00000136378837629291030770000012205974429306394042_" gradientUnits="userSpaceOnUse" x1="1085.1315" y1="2991.7573" x2="15.5048" y2="3072.4834">
					<stop  offset="0" style="stop-color:#53D8FF"/>
					<stop  offset="1" style="stop-color:#3840F7"/>
				</linearGradient>
				<path style="fill:url(#SVGID_00000136378837629291030770000012205974429306394042_);" d="M1030.347,3061.846
					c-85.917,35.889-177.45,60.917-270.997,62.703c-42.367,0.809-84.76-3.169-126.225-11.908
					c-64.2-13.53-139.8-28.574-164.839-98.683c-13.993-39.182,10.496-65.413,44.324-80.355c15.854-7.003,33.27-13.139,50.221-9.522
					c-5.297,15.802-10.86,47.035,1.683,60.16c8.948,9.363,38.281,14.141,50.714,18.038c36.955,11.584,75.032,19.429,113.655,22.553
					c92.316,7.467,184.289-12.273,271.048-42.664c28.633-10.03,58.266,12.317,56.614,42.611
					C1055.653,3041.137,1045.464,3055.532,1030.347,3061.846z"/>
				
					<linearGradient id="SVGID_00000067220161264978524080000001294030614179975332_" gradientUnits="userSpaceOnUse" x1="1088.5023" y1="3036.4258" x2="18.8753" y2="3117.1519">
					<stop  offset="0" style="stop-color:#53D8FF"/>
					<stop  offset="1" style="stop-color:#3840F7"/>
				</linearGradient>
				<path style="fill:url(#SVGID_00000067220161264978524080000001294030614179975332_);" d="M971.604,3166.497l154.787-170.91
					c4.714-5.206,2.169-13.558-4.648-15.25l-215.312-53.424c-8.011-1.988-15.188,5.407-12.96,13.355
					c41.477,75.362,60.97,149.458,62.355,222.511C957.791,3169.795,966.714,3171.897,971.604,3166.497z"/>
			</g>
		</g>
		<g>
			
				<linearGradient id="SVGID_00000097492692866536891380000011361629941753078715_" gradientUnits="userSpaceOnUse" x1="-226.1996" y1="3106.668" x2="-786.5895" y2="3716.2156" gradientTransform="matrix(-1 0 0 1 2487.3088 0)">
				<stop  offset="0" style="stop-color:#2B3582"/>
				<stop  offset="1" style="stop-color:#150E42"/>
			</linearGradient>
			<path style="fill:url(#SVGID_00000097492692866536891380000011361629941753078715_);" d="M2890.648,3152.075
				c0,0,5.803,32.855,8.649,65.377c1.112,12.711-8.688,23.748-21.436,24.278c-43.31,1.804-135.953,5.312-169.198,3.828
				c-4.997-0.223-8.264-5.339-6.415-9.987l0,0c1.55-3.895,4.539-7.044,8.348-8.794l153.029-70.333L2890.648,3152.075z"/>
			
				<linearGradient id="SVGID_00000026165768811717731010000012945499752809424287_" gradientUnits="userSpaceOnUse" x1="-408.0935" y1="3151.9407" x2="-358.3166" y2="3151.9407" gradientTransform="matrix(-1 0 0 1 2487.3088 0)">
				<stop  offset="0" style="stop-color:#C4421B"/>
				<stop  offset="1" style="stop-color:#5C0E16"/>
			</linearGradient>
			<path style="fill:url(#SVGID_00000026165768811717731010000012945499752809424287_);" d="M2895.402,3132.771l-4.662,39.299
				c0,0-26.807,12.479-45.115-1.573l11.103-43.794L2895.402,3132.771z"/>
			
				<linearGradient id="SVGID_00000120529753655941583660000006265466351566130601_" gradientUnits="userSpaceOnUse" x1="-1052.8452" y1="3802.981" x2="-380.1243" y2="2666.0835" gradientTransform="matrix(-1 0 0 1 2487.3088 0)">
				<stop  offset="0" style="stop-color:#53D8FF"/>
				<stop  offset="1" style="stop-color:#3840F7"/>
			</linearGradient>
			<path style="fill:url(#SVGID_00000120529753655941583660000006265466351566130601_);" d="M2891.898,2393.945
				c2.014,10.262,10.812,512.129-42.835,737.032c-0.875,3.669,0.985,7.452,4.478,8.879c8.228,3.361,24.358,8.229,43.689,8.879
				c5.987,0.201,11.354-3.69,13.043-9.437c15.335-52.181,88.815-313.623,98.4-563.37c10.711-279.069,0-9.502,0-9.502l-6.282-172.503
				L2891.898,2393.945z"/>
			
				<linearGradient id="SVGID_00000078730641243255091630000011963208039893588144_" gradientUnits="userSpaceOnUse" x1="-351.9127" y1="2991.0908" x2="-912.3054" y2="3600.6416" gradientTransform="matrix(-1 0 0 1 2487.3088 0)">
				<stop  offset="0" style="stop-color:#2B3582"/>
				<stop  offset="1" style="stop-color:#150E42"/>
			</linearGradient>
			<path style="fill:url(#SVGID_00000078730641243255091630000011963208039893588144_);" d="M3066.683,3169.216
				c0,0,9.238,16.587,18.181,60.66c1.615,7.96-3.946,15.578-12.029,16.373c-14.301,1.406-36.317,3.214-53.952,3.093
				c-8.13-0.056-14.475-7.134-13.495-15.205c1.954-16.088,8.039-42.481,26.839-63.054L3066.683,3169.216z"/>
			
				<linearGradient id="SVGID_00000043433263816579559480000012811372429006690724_" gradientUnits="userSpaceOnUse" x1="-587.4875" y1="3149.3875" x2="-544.5101" y2="3149.3875" gradientTransform="matrix(-1 0 0 1 2487.3088 0)">
				<stop  offset="0" style="stop-color:#C4421B"/>
				<stop  offset="1" style="stop-color:#5C0E16"/>
			</linearGradient>
			<path style="fill:url(#SVGID_00000043433263816579559480000012811372429006690724_);" d="M3074.796,3118.669l-10.895,59.43
				c0,0-10.772,8.012-32.083,2.204l5.201-63.944L3074.796,3118.669z"/>
			
				<linearGradient id="SVGID_00000068635754185349942910000001647235080575779741_" gradientUnits="userSpaceOnUse" x1="-1151.2256" y1="3744.7659" x2="-478.5025" y2="2607.8647" gradientTransform="matrix(-1 0 0 1 2487.3088 0)">
				<stop  offset="0" style="stop-color:#53D8FF"/>
				<stop  offset="1" style="stop-color:#3840F7"/>
			</linearGradient>
			<path style="fill:url(#SVGID_00000068635754185349942910000001647235080575779741_);" d="M3104.23,2409.346
				c43.875,264.789-9.518,654.447-27.525,730.712c-1.103,4.669-4.871,8.246-9.603,9.031c-8.039,1.333-21.271,2.419-34.318-1.37
				c-4.495-1.305-7.653-5.359-7.836-10.037c-2.417-61.658,1.932-440.182-38.949-589.775c-2.072-7.582-6.702-14.192-13.108-18.747
				l-79.347-56.41l-6.084-91.181L3104.23,2409.346z"/>
			<g>
				
					<linearGradient id="SVGID_00000142138814199203491930000011212754636238577808_" gradientUnits="userSpaceOnUse" x1="2905.157" y1="2160.8884" x2="3507.947" y2="2089.5054">
					<stop  offset="0" style="stop-color:#FDF53F"/>
					<stop  offset="1" style="stop-color:#D93C65"/>
				</linearGradient>
				<path style="fill:url(#SVGID_00000142138814199203491930000011212754636238577808_);" d="M2824.656,1907.622
					c131.485-2.172,276.564,34.524,276.564,34.524c39.193,228.69,6.853,492.467,6.853,492.467
					c-101.792,26.694-216.62-16.321-216.62-16.321c-16.918-95.587-95.856-364.601-95.856-364.601
					c-64.244-7.973-117.166-26.508-160.748-51.012c33.243-38.535,48.915-87.568,55.722-116.552
					C2737.06,1900.575,2784.103,1908.292,2824.656,1907.622z"/>
				
					<linearGradient id="SVGID_00000092424774376414213810000016164852137194891682_" gradientUnits="userSpaceOnUse" x1="-166.2638" y1="1853.3329" x2="88.0357" y2="1853.3329" gradientTransform="matrix(-1 0 0 1 2487.3088 0)">
					<stop  offset="0" style="stop-color:#C4421B"/>
					<stop  offset="1" style="stop-color:#5C0E16"/>
				</linearGradient>
				<path style="fill:url(#SVGID_00000092424774376414213810000016164852137194891682_);" d="M2436.273,1713.951
					c12.917-15.6,29.264-8.22,29.264-8.22c19.349,81.733,120.804,148.004,225.036,180.396
					c-6.807,28.984-22.479,78.017-55.722,116.552C2461.87,1905.419,2436.273,1713.951,2436.273,1713.951z"/>
			</g>
			<g>
				
					<linearGradient id="SVGID_00000060028822673151606030000003321855051671883939_" gradientUnits="userSpaceOnUse" x1="10453.3916" y1="1810.7062" x2="10624.0332" y2="2198.9529" gradientTransform="matrix(1 0 0 1 -7960.4692 0)">
					<stop  offset="0" style="stop-color:#C4421B"/>
					<stop  offset="1" style="stop-color:#5C0E16"/>
				</linearGradient>
				<path style="fill:url(#SVGID_00000060028822673151606030000003321855051671883939_);" d="M2439.408,1717.919
					c-1.352,4.296,14.3,10.838,23.514-6.734c0.323-8.422,5.444-44.502,0.411-51.363c-26.803-36.541-78.766-82.347-78.766-82.347
					c-8.782,8.666-1.547,17.179-1.547,17.179l25.208,26.26c-5.272,9.528-11.704,17.571-14.718,29.096
					c-2.283,8.728-0.887,18.055,3.521,25.999c4.425,7.972,10.462,18.335,16.169,26.444
					C2424.004,1717.803,2439.408,1717.919,2439.408,1717.919z"/>
				
					<linearGradient id="SVGID_00000086678420400681532780000001343219151920595115_" gradientUnits="userSpaceOnUse" x1="2496.9751" y1="1436.707" x2="2348.9768" y2="1944.6117">
					<stop  offset="0" style="stop-color:#C4421B"/>
					<stop  offset="1" style="stop-color:#5C0E16"/>
				</linearGradient>
				<path style="fill:url(#SVGID_00000086678420400681532780000001343219151920595115_);" d="M2419.255,1637.953l22.971,19.474
					l7.213,19.389l-20.481,22.721c0,0-6.887-38.47-12.005-46.798C2411.834,1644.414,2414.488,1640.388,2419.255,1637.953z"/>
			</g>
			
				<linearGradient id="SVGID_00000100356676229412053880000007035447315742121114_" gradientUnits="userSpaceOnUse" x1="2895.2947" y1="2077.6099" x2="3498.0837" y2="2006.2269">
				<stop  offset="0" style="stop-color:#FDF53F"/>
				<stop  offset="1" style="stop-color:#D93C65"/>
			</linearGradient>
			<path style="fill:url(#SVGID_00000100356676229412053880000007035447315742121114_);" d="M3050.788,2069.462l50.433-127.316
				c0,0,122.814,83.447,143.011,189.249c-23.206,1.709-65.432,7.745-106.763,28.614
				C3128.385,2110.052,3050.788,2069.462,3050.788,2069.462z"/>
			
				<linearGradient id="SVGID_00000166649336391275269680000017729216683737641631_" gradientUnits="userSpaceOnUse" x1="-759.7228" y1="2213.541" x2="-437.9052" y2="2213.541" gradientTransform="matrix(-1 0 0 1 2487.3088 0)">
				<stop  offset="0" style="stop-color:#C4421B"/>
				<stop  offset="1" style="stop-color:#5C0E16"/>
			</linearGradient>
			<path style="fill:url(#SVGID_00000166649336391275269680000017729216683737641631_);" d="M2943.462,2189.262
				c0,0,137.89,77.928,184.416,11.387c9.66-13.817,11.969-27.549,9.591-40.64c41.332-20.87,83.558-26.905,106.763-28.614
				c6.09,31.895,2.871,65.818-15.872,100.104c-81.498,149.082-303.146-8.24-303.146-8.24L2943.462,2189.262z"/>
			<g>
				
					<linearGradient id="SVGID_00000172440477613659761840000005745910136009682837_" gradientUnits="userSpaceOnUse" x1="2788.3416" y1="2180.0249" x2="2795.0686" y2="2671.1111">
					<stop  offset="0" style="stop-color:#2B3582"/>
					<stop  offset="1" style="stop-color:#150E42"/>
				</linearGradient>
				<path style="fill:url(#SVGID_00000172440477613659761840000005745910136009682837_);" d="M2960.031,2287.85l-75.255-262.807
					c-0.854-2.984-3.4-5.159-6.482-5.519c-13.635-1.591-53.144-6.057-98.76-9.916c-54.947-4.647-118.757-8.414-156.887-5.211
					c-5.42,0.456-8.696,6.189-6.285,11.066c21.682,43.869,110.875,222.314,155.539,280.77c1.479,1.937,3.768,3.07,6.205,3.046
					l174.604-1.625C2957.789,2297.609,2961.428,2292.735,2960.031,2287.85z"/>
				
					<linearGradient id="SVGID_00000102529320159776644020000001604399552408595892_" gradientUnits="userSpaceOnUse" x1="-229.7521" y1="1868.5162" x2="-267.4393" y2="2034.0118" gradientTransform="matrix(-1 0 0 1 2487.3088 0)">
					<stop  offset="0" style="stop-color:#7A2DDB"/>
					<stop  offset="1" style="stop-color:#7077FF"/>
				</linearGradient>
				<path style="fill:url(#SVGID_00000102529320159776644020000001604399552408595892_);" d="M2771.727,1986.825l-54.561-9.091
					c-2.906-0.484-5.286,2.293-4.363,5.09l5.401,16.366c0.47,1.425,1.713,2.456,3.2,2.655l52.504,7.013
					c2.717,0.363,4.956-2.105,4.331-4.774l-3.344-14.288C2774.536,1988.255,2773.286,1987.084,2771.727,1986.825z"/>
				
					<linearGradient id="SVGID_00000104696502373116238340000001946171867493557655_" gradientUnits="userSpaceOnUse" x1="-249.4761" y1="1937.9368" x2="-267.5003" y2="2046.0822" gradientTransform="matrix(-1 0 0 1 2487.3088 0)">
					<stop  offset="0" style="stop-color:#7A2DDB"/>
					<stop  offset="1" style="stop-color:#7077FF"/>
				</linearGradient>
				<path style="fill:url(#SVGID_00000104696502373116238340000001946171867493557655_);" d="M2812.581,2033.015l-4.494-23.412
					c-0.452-2.349-2.391-4.122-4.769-4.364l-110.202-11.182c-3.709-0.377-6.679,3.023-5.808,6.648l7.007,29.174
					c0.561,2.334,2.592,4.021,4.99,4.141l107.689,5.421C2810.499,2039.616,2813.242,2036.462,2812.581,2033.015z"/>
				
					<linearGradient id="SVGID_00000039106840913154304050000016571082850990759861_" gradientUnits="userSpaceOnUse" x1="-461.7986" y1="2179.7983" x2="-361.5392" y2="2179.7983" gradientTransform="matrix(-1 0 0 1 2487.3088 0)">
					<stop  offset="0" style="stop-color:#C4421B"/>
					<stop  offset="1" style="stop-color:#5C0E16"/>
				</linearGradient>
				<path style="fill:url(#SVGID_00000039106840913154304050000016571082850990759861_);" d="M2941.848,2224.356
					c0,0,10.483-43.105,6.254-58.399c-4.228-15.293-12.422-34.957-39.731-30.587c-27.31,4.37-59.523,15.874-59.523,15.874
					s1.627,19.92,22.383,13.494l-12.871,9.958c0,0,1.84,15.95,19.372,7.429l-11.972,13.207c0,0,7.529,13.1,20.427,4.698
					C2899.086,2191.627,2905.269,2229.546,2941.848,2224.356z"/>
			</g>
			
				<linearGradient id="SVGID_00000078025088197604251800000011466322132972402322_" gradientUnits="userSpaceOnUse" x1="-512.6121" y1="1869.4977" x2="-385.3756" y2="1869.4977" gradientTransform="matrix(-1 0 0 1 2487.3088 0)">
				<stop  offset="0" style="stop-color:#C4421B"/>
				<stop  offset="1" style="stop-color:#5C0E16"/>
			</linearGradient>
			<path style="fill:url(#SVGID_00000078025088197604251800000011466322132972402322_);" d="M2957.841,1800.876l41.837,120.989
				c0.693,2.003-0.132,4.223-1.987,5.25c-11.404,6.305-52.492,24.53-102.005-6.863c-5.158-3.27-8.669-8.603-9.452-14.66
				l-13.548-104.716H2957.841z"/>
			<g>
				
					<linearGradient id="SVGID_00000137109162866760747960000016051387249063399608_" gradientUnits="userSpaceOnUse" x1="-5815.3467" y1="-1716.7754" x2="-5862.8936" y2="-1873.5959" gradientTransform="matrix(-0.746 -0.6659 -0.6659 0.746 -2639.0266 -803.1727)">
					<stop  offset="0" style="stop-color:#C4421B"/>
					<stop  offset="1" style="stop-color:#5C0E16"/>
				</linearGradient>
				<path style="fill:url(#SVGID_00000137109162866760747960000016051387249063399608_);" d="M2866.81,1688.838
					c0,0-45.941,86.478-40.051,121.412c5.889,34.933,62.825,32.424,112.544,4.053l34.743-93.378L2866.81,1688.838z"/>
				
					<linearGradient id="SVGID_00000033361407028190852960000001067791115968032653_" gradientUnits="userSpaceOnUse" x1="-5863.3711" y1="-1989.1124" x2="-5823.5986" y2="-1762.2621" gradientTransform="matrix(-0.746 -0.6659 -0.6659 0.746 -2639.0266 -803.1727)">
					<stop  offset="0" style="stop-color:#2B3582"/>
					<stop  offset="1" style="stop-color:#150E42"/>
				</linearGradient>
				<path style="fill:url(#SVGID_00000033361407028190852960000001067791115968032653_);" d="M2937.105,1768.444
					c-2.021-0.894-2.766-3.367-1.555-5.216c3.68-5.622,10.58-17.094,12.781-27.137c0,0,8.259-5.29-21.02-12.297
					c-29.279-7.008-72.941-17.886-82.118-42.808c-8.948-24.298,27.493-63.24,52.069-36.716c1.59,1.715,4.223,1.894,5.647,0.04
					c6.149-8.003,22.315-24.614,44.759-14.544c21.002,9.423,23.368,24.814,23.08,32.571c-0.084,2.283,1.955,4.057,4.198,3.628
					c10.62-2.025,36.101-3.764,47.996,22.377c9.797,21.531,3.429,33.72-2.37,39.681c-1.879,1.931-1.055,5.111,1.52,5.9
					c6.98,2.136,15.991,8.054,15.089,24.404c-1.248,22.603-26.52,20.612-33.715,19.582c-1.179-0.168-2.366,0.236-3.165,1.119
					c-6.17,6.827-33.967,35.818-64.052,39.312c-2.605,0.303-4.624-2.27-3.771-4.75l13.02-37.847
					c0.605-1.758-0.237-3.686-1.936-4.438L2937.105,1768.444z"/>
				
					<linearGradient id="SVGID_00000081649987767098288900000018160497310622034096_" gradientUnits="userSpaceOnUse" x1="-5863.9507" y1="-1717.5049" x2="-5906.7295" y2="-1858.6002" gradientTransform="matrix(-0.746 -0.6659 -0.6659 0.746 -2639.0266 -803.1727)">
					<stop  offset="0" style="stop-color:#C4421B"/>
					<stop  offset="1" style="stop-color:#5C0E16"/>
				</linearGradient>
				<path style="fill:url(#SVGID_00000081649987767098288900000018160497310622034096_);" d="M2931.871,1773.817
					c0,0,32.71-22.442,35.1-3.542c2.39,18.899-29.455,27.375-45.23,20.329L2931.871,1773.817z"/>
			</g>
			<g>
				
					<linearGradient id="SVGID_00000093147105314515479910000005211828442622534047_" gradientUnits="userSpaceOnUse" x1="375.4496" y1="1302.7476" x2="516.9833" y2="1126.8416" gradientTransform="matrix(-0.9052 -0.425 -0.425 0.9052 3858.9097 712.5426)">
					<stop  offset="0" style="stop-color:#FDF53F"/>
					<stop  offset="1" style="stop-color:#D93C65"/>
				</linearGradient>
				<path style="fill:url(#SVGID_00000093147105314515479910000005211828442622534047_);" d="M2848.59,1649.926
					c0,0,52.126-90.009,145.261-36.23c93.135,53.78,42.757,119.846,42.757,119.846L2848.59,1649.926z"/>
				
					<linearGradient id="SVGID_00000006687057330121611100000017791995517253160332_" gradientUnits="userSpaceOnUse" x1="380.5104" y1="1178.791" x2="576.7122" y2="1295.9115" gradientTransform="matrix(-0.9052 -0.425 -0.425 0.9052 3858.9097 712.5426)">
					<stop  offset="0" style="stop-color:#FDF53F"/>
					<stop  offset="1" style="stop-color:#D93C65"/>
				</linearGradient>
				<path style="fill:url(#SVGID_00000006687057330121611100000017791995517253160332_);" d="M3039.54,1654.664
					c0,0-112.216-89.58-165.237,6.697c-21.676-9.54-25.713-11.435-25.713-11.435s47.087-86.233,111.311-57.194
					C3024.125,1621.767,3039.654,1635.704,3039.54,1654.664z"/>
				<path style="fill:#FFFFFF;" d="M2911.091,1680.546c0.319,0.15,0.699,0.148,1.038-0.021l0.724-0.397
					c16.707-8.935,44.667-23.892,63.225-16.216c8.953,3.695,17.657,9.277,26.078,14.656c5.944,3.797,12.093,7.732,18.252,10.962
					c8.39,4.407,17.629,9.125,28.236,14.414l0.024,0.011c0.564,0.265,1.241,0.034,1.525-0.53c0.289-0.572,0.054-1.261-0.519-1.55
					c-10.598-5.285-19.815-9.991-28.187-14.391c-6.082-3.184-12.186-7.086-18.08-10.861c-8.519-5.446-17.386-11.064-26.446-14.849
					c-19.566-8.1-48.131,7.191-65.196,16.317l-0.73,0.385c-0.561,0.305-0.77,1.004-0.478,1.57
					C2910.68,1680.273,2910.871,1680.443,2911.091,1680.546z"/>
				
					<linearGradient id="SVGID_00000176044057729378160350000005363124538733003178_" gradientUnits="userSpaceOnUse" x1="2787.3247" y1="1765.6545" x2="3190.957" y2="1580.6561">
					<stop  offset="0" style="stop-color:#FDF53F"/>
					<stop  offset="1" style="stop-color:#D93C65"/>
				</linearGradient>
				<path style="fill:url(#SVGID_00000176044057729378160350000005363124538733003178_);" d="M3036.306,1748.106l-221.297-85.121
					c-1.394-0.536-2.298-1.893-2.257-3.386c0.04-1.493,1.017-2.8,2.439-3.258c11.417-3.679,30.306-8.825,37.868-5.441
					c24.26,10.859,183.549,82.642,183.549,82.642S3040.574,1735.405,3036.306,1748.106z"/>
			</g>
		</g>
	</g>
</g>
</svg>
