<?xml version="1.0" encoding="UTF-8"?>
<svg id="Layer_1" xmlns="http://www.w3.org/2000/svg" viewBox="0 0 600 200">
  <defs>
    <style>
      .cls-1 {
        fill: #00487c;
      }

      .cls-2 {
        fill: #999;
      }
    </style>
  </defs>
  <g>
    <path class="cls-1" d="M245.11,74.03l-7.19-12.7h-3.08v12.7h-6.54v-32.6h12.24c2.52,0,4.67.44,6.45,1.33,1.77.89,3.11,2.09,3.99,3.6.89,1.51,1.33,3.2,1.33,5.07,0,2.15-.62,4.09-1.87,5.81-1.25,1.73-3.1,2.92-5.56,3.57l7.8,13.22h-7.57ZM234.83,56.43h5.46c1.77,0,3.1-.43,3.97-1.28.87-.86,1.31-2.05,1.31-3.57s-.44-2.65-1.31-3.48c-.87-.82-2.19-1.24-3.97-1.24h-5.46v9.57Z"/>
    <path class="cls-1" d="M261.97,46.71v8.17h10.98v5.18h-10.98v8.64h12.38v5.32h-18.92v-32.65h18.92v5.32h-12.38Z"/>
    <path class="cls-1" d="M313.95,41.43v32.6h-6.54v-21.2l-8.73,21.2h-4.95l-8.78-21.2v21.2h-6.54v-32.6h7.43l10.37,24.24,10.37-24.24h7.38Z"/>
    <path class="cls-1" d="M325.07,46.71v8.17h10.97v5.18h-10.97v8.64h12.38v5.32h-18.92v-32.65h18.92v5.32h-12.38Z"/>
    <path class="cls-1" d="M362.87,43.44c2.6,1.34,4.61,3.25,6.02,5.72,1.42,2.48,2.12,5.35,2.12,8.62s-.71,6.13-2.12,8.57c-1.42,2.44-3.43,4.34-6.02,5.67-2.6,1.34-5.61,2.01-9.04,2.01h-11.4v-32.6h11.4c3.42,0,6.44.67,9.04,2.01ZM361.54,65.67c1.87-1.87,2.8-4.5,2.8-7.89s-.93-6.05-2.8-7.96-4.52-2.87-7.94-2.87h-4.62v21.53h4.62c3.42,0,6.07-.93,7.94-2.8Z"/>
    <path class="cls-1" d="M381.53,41.43v32.6h-6.54v-32.6h6.54Z"/>
    <path class="cls-1" d="M407.03,67.82h-12.98l-2.15,6.21h-6.87l11.72-32.65h7.61l11.72,32.65h-6.91l-2.15-6.21ZM405.26,62.59l-4.72-13.64-4.72,13.64h9.43Z"/>
    <path class="cls-1" d="M436.13,41.43v5.28h-8.69v27.32h-6.54v-27.32h-8.69v-5.28h23.91Z"/>
    <path class="cls-1" d="M447.43,41.43v32.6h-6.54v-32.6h6.54Z"/>
    <path class="cls-1" d="M459.67,72.21c-2.55-1.43-4.58-3.42-6.07-5.96-1.5-2.54-2.24-5.41-2.24-8.62s.75-6.03,2.24-8.57c1.49-2.54,3.52-4.52,6.07-5.96,2.55-1.43,5.35-2.15,8.41-2.15s5.89.72,8.43,2.15c2.54,1.43,4.55,3.42,6.02,5.96,1.48,2.54,2.22,5.39,2.22,8.57s-.74,6.08-2.22,8.62c-1.48,2.54-3.5,4.52-6.05,5.96-2.55,1.43-5.36,2.15-8.41,2.15s-5.85-.72-8.41-2.15ZM473.26,67.19c1.49-.89,2.66-2.16,3.5-3.81s1.26-3.56,1.26-5.74-.42-4.09-1.26-5.72c-.84-1.63-2.01-2.89-3.5-3.76-1.49-.87-3.22-1.31-5.18-1.31s-3.7.44-5.21,1.31c-1.51.87-2.69,2.13-3.53,3.76-.84,1.63-1.26,3.54-1.26,5.72s.42,4.09,1.26,5.74,2.02,2.92,3.53,3.81c1.51.89,3.25,1.33,5.21,1.33s3.69-.44,5.18-1.33Z"/>
    <path class="cls-1" d="M516.55,74.03h-6.54l-14.8-22.37v22.37h-6.54v-32.65h6.54l14.8,22.42v-22.42h6.54v32.65Z"/>
  </g>
  <path class="cls-1" d="M184.97,153.86l-25.19-44.49h-10.8v44.49h-22.9V39.7h42.85c8.83,0,16.36,1.55,22.57,4.66,6.22,3.11,10.88,7.31,13.98,12.59,3.11,5.29,4.66,11.2,4.66,17.75,0,7.52-2.18,14.31-6.54,20.36-4.36,6.05-10.85,10.22-19.46,12.51l27.31,46.29h-26.5ZM148.99,92.2h19.14c6.22,0,10.85-1.5,13.9-4.5,3.05-3,4.58-7.17,4.58-12.51s-1.53-9.29-4.58-12.19c-3.05-2.89-7.69-4.33-13.9-4.33h-19.14v33.53Z"/>
  <g>
    <path class="cls-1" d="M245.11,113.76l-7.19-12.7h-3.08v12.7h-6.54v-32.6h12.24c2.52,0,4.67.44,6.45,1.33,1.77.89,3.11,2.09,3.99,3.6.89,1.51,1.33,3.2,1.33,5.07,0,2.15-.62,4.09-1.87,5.81-1.25,1.73-3.1,2.92-5.56,3.57l7.8,13.22h-7.57ZM234.83,96.16h5.46c1.77,0,3.1-.43,3.97-1.28.87-.86,1.31-2.05,1.31-3.57s-.44-2.65-1.31-3.48c-.87-.82-2.19-1.24-3.97-1.24h-5.46v9.57Z"/>
    <path class="cls-1" d="M265.7,86.44v8.17h10.98v5.18h-10.98v8.64h12.38v5.32h-18.92v-32.65h18.92v5.32h-12.38Z"/>
    <path class="cls-1" d="M290.06,112.92c-1.82-.78-3.26-1.9-4.32-3.36-1.06-1.46-1.6-3.19-1.63-5.18h7.01c.09,1.34.57,2.4,1.42,3.18.86.78,2.03,1.17,3.53,1.17s2.72-.37,3.6-1.1c.87-.73,1.31-1.69,1.31-2.87,0-.96-.3-1.76-.89-2.38-.59-.62-1.33-1.11-2.22-1.47-.89-.36-2.11-.75-3.67-1.19-2.12-.62-3.84-1.24-5.16-1.84-1.32-.61-2.46-1.53-3.41-2.76-.95-1.23-1.42-2.87-1.42-4.93,0-1.93.48-3.61,1.45-5.04.96-1.43,2.32-2.53,4.06-3.29,1.74-.76,3.74-1.14,5.98-1.14,3.36,0,6.09.82,8.2,2.45s3.26,3.92,3.48,6.84h-7.19c-.06-1.12-.54-2.05-1.42-2.78-.89-.73-2.06-1.1-3.53-1.1-1.28,0-2.3.33-3.06.98-.76.65-1.14,1.6-1.14,2.85,0,.87.29,1.6.86,2.17.58.58,1.29,1.04,2.15,1.4.86.36,2.06.77,3.62,1.24,2.12.62,3.85,1.25,5.18,1.87,1.34.62,2.49,1.56,3.46,2.8.96,1.25,1.45,2.88,1.45,4.9,0,1.74-.45,3.36-1.35,4.86-.9,1.5-2.23,2.69-3.97,3.57-1.74.89-3.81,1.33-6.21,1.33-2.27,0-4.32-.39-6.14-1.17Z"/>
    <path class="cls-1" d="M336.51,81.16v5.28h-8.69v27.32h-6.54v-27.32h-8.69v-5.28h23.91Z"/>
    <path class="cls-1" d="M348.93,111.94c-2.55-1.43-4.58-3.42-6.07-5.96-1.5-2.54-2.24-5.41-2.24-8.62s.75-6.03,2.24-8.57c1.49-2.54,3.52-4.52,6.07-5.96,2.55-1.43,5.35-2.15,8.41-2.15s5.89.72,8.43,2.15c2.54,1.43,4.55,3.42,6.02,5.96,1.48,2.54,2.22,5.39,2.22,8.57s-.74,6.08-2.22,8.62c-1.48,2.54-3.5,4.52-6.05,5.96-2.55,1.43-5.36,2.15-8.41,2.15s-5.85-.72-8.41-2.15ZM362.52,106.92c1.49-.89,2.66-2.16,3.5-3.81s1.26-3.56,1.26-5.74-.42-4.09-1.26-5.72c-.84-1.63-2.01-2.89-3.5-3.76-1.49-.87-3.22-1.31-5.18-1.31s-3.7.44-5.21,1.31c-1.51.87-2.69,2.13-3.53,3.76-.84,1.63-1.26,3.54-1.26,5.72s.42,4.09,1.26,5.74,2.02,2.92,3.53,3.81c1.51.89,3.25,1.33,5.21,1.33s3.69-.44,5.18-1.33Z"/>
    <path class="cls-1" d="M397.55,113.76l-7.19-12.7h-3.08v12.7h-6.54v-32.6h12.24c2.52,0,4.67.44,6.45,1.33,1.77.89,3.11,2.09,3.99,3.6.89,1.51,1.33,3.2,1.33,5.07,0,2.15-.62,4.09-1.87,5.81-1.25,1.73-3.1,2.92-5.56,3.57l7.8,13.22h-7.57ZM387.28,96.16h5.46c1.77,0,3.1-.43,3.97-1.28.87-.86,1.31-2.05,1.31-3.57s-.44-2.65-1.31-3.48c-.87-.82-2.2-1.24-3.97-1.24h-5.46v9.57Z"/>
    <path class="cls-1" d="M432.53,107.55h-12.98l-2.15,6.21h-6.87l11.72-32.65h7.61l11.72,32.65h-6.91l-2.15-6.21ZM430.76,102.32l-4.72-13.64-4.72,13.64h9.43Z"/>
    <path class="cls-1" d="M469.1,81.16v5.28h-8.69v27.32h-6.54v-27.32h-8.69v-5.28h23.91Z"/>
    <path class="cls-1" d="M483.21,81.16v32.6h-6.54v-32.6h6.54Z"/>
    <path class="cls-1" d="M497.31,111.94c-2.55-1.43-4.58-3.42-6.07-5.96-1.5-2.54-2.24-5.41-2.24-8.62s.75-6.03,2.24-8.57c1.49-2.54,3.52-4.52,6.07-5.96,2.55-1.43,5.35-2.15,8.41-2.15s5.89.72,8.43,2.15c2.54,1.43,4.55,3.42,6.02,5.96,1.48,2.54,2.22,5.39,2.22,8.57s-.74,6.08-2.22,8.62c-1.48,2.54-3.5,4.52-6.05,5.96-2.55,1.43-5.36,2.15-8.41,2.15s-5.85-.72-8.41-2.15ZM510.9,106.92c1.49-.89,2.66-2.16,3.5-3.81s1.26-3.56,1.26-5.74-.42-4.09-1.26-5.72c-.84-1.63-2.01-2.89-3.5-3.76-1.49-.87-3.22-1.31-5.18-1.31s-3.7.44-5.21,1.31c-1.51.87-2.69,2.13-3.53,3.76-.84,1.63-1.26,3.54-1.26,5.72s.42,4.09,1.26,5.74,2.02,2.92,3.53,3.81c1.51.89,3.25,1.33,5.21,1.33s3.69-.44,5.18-1.33Z"/>
    <path class="cls-1" d="M556.06,113.76h-6.54l-14.8-22.37v22.37h-6.54v-32.65h6.54l14.8,22.42v-22.42h6.54v32.65Z"/>
  </g>
  <path class="cls-2" d="M523.81,41.44v32.6h32.6v-32.6h-32.6ZM550.3,69.89h-5.26l-1.25-1.45c-.92.6-1.87,1.04-2.84,1.34-.97.3-2.02.45-3.14.45-2.36,0-4.24-.62-5.64-1.86-1.4-1.24-2.09-2.86-2.09-4.85,0-1.31.34-2.43,1.03-3.35.69-.93,1.74-1.91,3.16-2.96-.71-.97-1.25-1.86-1.59-2.67-.35-.81-.52-1.63-.52-2.46,0-1.97.57-3.49,1.72-4.56s2.72-1.61,4.73-1.61c1.72,0,3.12.53,4.2,1.6,1.08,1.07,1.62,2.36,1.62,3.87,0,1.13-.23,2.1-.69,2.92-.46.82-1.14,1.59-2.04,2.29l-1.66,1.17,4.39,5.12c.39-.64.69-1.34.91-2.09.22-.76.33-1.56.33-2.4h3.78c0,1.54-.19,2.94-.58,4.22-.38,1.28-.98,2.41-1.8,3.4l3.26,3.82-.03.08ZM536.5,60.28c-.64.52-1.08,1.03-1.32,1.53-.24.5-.36.99-.36,1.48,0,.96.3,1.76.89,2.38.59.62,1.37.93,2.34.93.57,0,1.15-.07,1.72-.22.57-.15,1.13-.36,1.66-.66l-4.79-5.55-.15.11ZM537.72,54.98l1.23-.8c.61-.39,1.01-.79,1.23-1.2.21-.41.32-.86.32-1.35,0-.55-.18-1.04-.54-1.45-.36-.42-.85-.62-1.48-.62s-1.16.24-1.53.71c-.37.48-.55,1.06-.55,1.75,0,.45.11.92.33,1.4.22.48.55,1,.99,1.56Z"/>
  <path class="cls-2" d="M286.58,140.32h6.11l-3.06-8.84-3.06,8.84ZM330.47,130.92c-.57-.54-1.42-.8-2.57-.8h-3.54v6.21h3.54c1.15,0,2.01-.28,2.57-.83.56-.55.85-1.33.85-2.32s-.28-1.72-.85-2.25ZM228.66,121.49v32.37h327.75v-32.37H228.66ZM259.15,147.74h-4.24v-13.74l-5.66,13.74h-3.21l-5.69-13.74v13.74h-4.24v-21.13h4.81l6.72,15.71,6.72-15.71h4.78v21.13ZM295.24,147.74l-1.39-4.03h-8.42l-1.39,4.03h-4.45l7.6-21.16h4.93l7.6,21.16h-4.48ZM331.02,147.74l-4.66-8.23h-2v8.23h-4.24v-21.13h7.93c1.63,0,3.03.29,4.18.86s2.01,1.35,2.59,2.33.86,2.07.86,3.28c0,1.39-.4,2.65-1.21,3.77-.81,1.12-2.01,1.89-3.6,2.32l5.06,8.57h-4.9ZM369.01,147.74l-7.69-9.41v9.41h-4.24v-21.13h4.24v9.47l7.69-9.47h5.12l-8.72,10.47,8.96,10.66h-5.36ZM406.97,130.03h-8.02v5.3h7.11v3.36h-7.11v5.6h8.02v3.45h-12.26v-21.16h12.26v3.45ZM442.75,130.03h-5.63v17.71h-4.24v-17.71h-5.63v-3.42h15.5v3.42ZM467.63,147.74h-4.24v-21.13h4.24v21.13ZM507.44,147.74h-4.24l-9.6-14.5v14.5h-4.24v-21.16h4.24l9.6,14.53v-14.53h4.24v21.16ZM549.27,139.68c-.28,1.47-.89,2.83-1.82,4.09-.93,1.25-2.12,2.26-3.59,3.01s-3.1,1.13-4.92,1.13c-2.04,0-3.88-.46-5.52-1.38-1.65-.92-2.94-2.2-3.88-3.83s-1.41-3.49-1.41-5.57.47-3.94,1.41-5.58,2.23-2.93,3.88-3.84c1.64-.92,3.48-1.38,5.49-1.38,2.38,0,4.45.58,6.21,1.74,1.76,1.16,2.97,2.79,3.63,4.89h-4.87c-.48-.89-1.15-1.56-2-2.03-.85-.46-1.84-.7-2.97-.7-1.25,0-2.36.28-3.33.85-.97.57-1.72,1.37-2.27,2.42-.54,1.05-.82,2.26-.82,3.63s.28,2.64.83,3.69c.55,1.05,1.33,1.86,2.32,2.42.99.57,2.14.85,3.45.85,1.61,0,2.94-.43,3.97-1.29s1.71-2.05,2.03-3.59h-7.27v-3.24h11.44v3.69Z"/>
  <path class="cls-1" d="M53.01,133.03h25.86l1.93-3.46h-25.75l-2.04,3.46ZM44.85,146.85h26.28l1.93-3.46h-26.17l-2.04,3.46ZM57.09,126.11h25.64l1.93-3.46h-25.54l-2.04,3.46ZM48.93,139.94h26.07l1.93-3.46h-25.96l-2.04,3.46ZM103.19,153.86h22.9v-3.55h-22.9v3.55ZM40.71,153.86h26.5l1.99-3.55h-26.39l-2.09,3.55ZM61.17,119.2h25.43l1.93-3.46h-25.32l-2.04,3.46ZM77.66,91.55c-2.88-.65-5.22-1.81-7.06-3.46h-25.96c.49,1.18,1.08,2.33,1.71,3.46h31.31ZM103.19,146.85h22.9v-3.46h-22.9v3.46ZM70.16,63c1.11-1.05,2.43-1.9,3.95-2.57h-29.19c-.5,1.13-.93,2.28-1.29,3.46h25.69c.27-.3.54-.61.84-.89ZM42.62,81.18c.21,1.17.48,2.32.82,3.46h24.38c-.61-1.06-1.09-2.21-1.45-3.46h-23.75ZM65.25,112.29h25.22l1.93-3.46h-25.11l-2.04,3.46ZM65.72,77.72c-.08-.82-.14-1.65-.14-2.53,0-.32.02-.62.03-.93h-23.57c0,.15-.01.29-.01.43,0,1.02.05,2.03.13,3.02h23.56ZM67.1,67.35h-24.37c-.23,1.13-.39,2.28-.5,3.46h23.77c.25-1.24.62-2.39,1.1-3.46ZM103.19,84.63h22.9v-3.46h-22.9v3.46ZM103.19,63.89h22.9v-3.46h-22.9v3.46ZM103.19,70.81h22.9v-3.46h-22.9v3.46ZM103.19,77.72h22.9v-3.46h-22.9v3.46ZM46.68,56.95s0,.02-.02.03h79.42v-3.46H49.05c-.87,1.09-1.66,2.23-2.37,3.43ZM103.19,91.55h22.9v-3.46h-22.9v3.46ZM103.19,139.94h22.9v-3.46h-22.9v3.46ZM52.27,50.07h73.82v-3.46H56.75c-1.63,1.06-3.12,2.21-4.48,3.46ZM83.24,39.7c-7.6,0-14.22,1.16-19.88,3.46h62.73v-3.46h-42.85ZM103.19,126.11h22.9v-3.46h-22.9v3.46ZM103.19,133.03h22.9v-3.46h-22.9v3.46ZM103.19,119.2h22.9v-3.46h-22.9v3.46ZM61.7,105.37h64.39v-3.46H55.56c1.86,1.32,3.9,2.48,6.14,3.46ZM103.19,112.29h22.9v-3.46h-22.9v3.46ZM48.57,95.06c.88,1.22,1.86,2.34,2.91,3.4h74.61v-3.46H48.53s.02.04.04.06Z"/>
</svg>