<svg xmlns="http://www.w3.org/2000/svg" xml:space="preserve" style="enable-background:new 0 0 500 500" viewBox="0 0 500 500"><path d="M328.543 279.737a32.02 32.02 0 0 0-4.606-11.079l3.967-4.792-8.481-8.481-4.792 3.966a32.04 32.04 0 0 0-11.078-4.605l-.582-6.176h-11.994l-.582 6.176a32.05 32.05 0 0 0-11.078 4.605l-4.792-3.966-8.481 8.481 3.967 4.792a32.041 32.041 0 0 0-4.606 11.078l-6.176.582v11.993l6.176.582a32.041 32.041 0 0 0 4.606 11.078l-3.967 4.792 8.481 8.481 4.792-3.967a32.033 32.033 0 0 0 11.078 4.606l.582 6.176h11.994l.582-6.176a32.022 32.022 0 0 0 11.078-4.606l4.792 3.967 8.481-8.481-3.967-4.791a32.05 32.05 0 0 0 4.606-11.078l6.176-.582v-11.993l-6.176-.582zm-15.332 6.578c0 8.967-7.27 16.237-16.237 16.237-8.967 0-16.237-7.27-16.237-16.237 0-8.967 7.27-16.237 16.237-16.237 8.968 0 16.237 7.27 16.237 16.237zM357.084 102.519a42.333 42.333 0 0 0-6.09-14.648l5.245-6.335-11.213-11.214-6.336 5.244a42.373 42.373 0 0 0-14.647-6.089l-.769-8.166h-15.858l-.77 8.166a42.365 42.365 0 0 0-14.647 6.089l-6.335-5.244-11.214 11.214 5.245 6.336a42.358 42.358 0 0 0-6.09 14.647l-8.166.77v15.857l8.166.77a42.375 42.375 0 0 0 6.09 14.647l-5.245 6.335 11.214 11.214 6.335-5.246a42.328 42.328 0 0 0 14.647 6.09l.77 8.166h15.858l.769-8.165a42.33 42.33 0 0 0 14.647-6.091l6.336 5.246 11.213-11.214-5.245-6.335a42.355 42.355 0 0 0 6.09-14.647l8.165-.77v-15.857l-8.165-.77zm-20.271 8.698c0 11.856-9.611 21.468-21.468 21.468-11.856 0-21.468-9.612-21.468-21.468s9.611-21.468 21.468-21.468 21.468 9.612 21.468 21.468zM162.219 81.227a23.518 23.518 0 0 0-3.38-8.131l2.911-3.517-6.224-6.225-3.517 2.911a23.538 23.538 0 0 0-8.131-3.38l-.427-4.533h-8.803l-.427 4.533a23.505 23.505 0 0 0-8.13 3.38l-3.517-2.911-6.224 6.225 2.911 3.517a23.51 23.51 0 0 0-3.38 8.131l-4.533.427v8.802l4.533.427a23.513 23.513 0 0 0 3.38 8.13l-2.911 3.517 6.224 6.225 3.517-2.912a23.475 23.475 0 0 0 8.13 3.38l.427 4.533h8.803l.427-4.532a23.501 23.501 0 0 0 8.131-3.381l3.517 2.912 6.224-6.225-2.911-3.516a23.518 23.518 0 0 0 3.38-8.131l4.532-.427v-8.802l-4.532-.427zm-11.252 4.828c0 6.581-5.335 11.916-11.917 11.916-6.581 0-11.917-5.335-11.917-11.916s5.335-11.916 11.917-11.916 11.917 5.335 11.917 11.916zM145.761 320.746a10.78 10.78 0 0 0-1.548-3.725l1.334-1.611-2.851-2.851-1.611 1.333a10.776 10.776 0 0 0-3.724-1.548l-.196-2.076h-4.032l-.196 2.076c-1.352.28-2.608.816-3.724 1.548l-1.611-1.333-2.851 2.851 1.334 1.611a10.797 10.797 0 0 0-1.549 3.724l-2.076.196v4.032l2.076.196a10.75 10.75 0 0 0 1.549 3.724l-1.334 1.611 2.851 2.851 1.611-1.334a10.777 10.777 0 0 0 3.724 1.549l.196 2.076h4.032l.196-2.076a10.758 10.758 0 0 0 3.724-1.549l1.611 1.334 2.851-2.851-1.334-1.611a10.756 10.756 0 0 0 1.548-3.724l2.076-.196v-4.032l-2.076-.195zm-5.154 2.211a5.459 5.459 0 1 1-10.918 0 5.459 5.459 0 0 1 10.918 0zM60.942 161.801a10.78 10.78 0 0 0-1.548-3.725l1.334-1.611-2.851-2.851-1.611 1.333a10.773 10.773 0 0 0-3.725-1.548l-.195-2.076h-4.032l-.196 2.076c-1.352.28-2.608.816-3.724 1.548l-1.611-1.333-2.851 2.851 1.333 1.611a10.776 10.776 0 0 0-1.548 3.724l-2.076.196v4.032l2.076.196c.28 1.352.816 2.608 1.548 3.724l-1.333 1.611 2.851 2.851 1.611-1.334a10.777 10.777 0 0 0 3.724 1.549l.196 2.076h4.032l.195-2.076a10.763 10.763 0 0 0 3.725-1.549l1.611 1.334 2.851-2.851-1.334-1.611a10.753 10.753 0 0 0 1.548-3.725l2.076-.196v-4.032l-2.076-.194zm-5.155 2.212a5.459 5.459 0 1 1-10.918 0 5.459 5.459 0 0 1 10.918 0zM444.96 102.989a16.783 16.783 0 0 0-2.413-5.805l2.079-2.511-4.444-4.444-2.511 2.078a16.803 16.803 0 0 0-5.805-2.413l-.305-3.236h-6.284l-.305 3.236a16.798 16.798 0 0 0-5.804 2.413l-2.511-2.078-4.444 4.444 2.078 2.511a16.775 16.775 0 0 0-2.413 5.805l-3.236.305v6.284l3.236.305a16.798 16.798 0 0 0 2.413 5.804l-2.078 2.511 4.444 4.444 2.511-2.079a16.76 16.76 0 0 0 5.804 2.413l.305 3.236h6.284l.305-3.236a16.785 16.785 0 0 0 5.805-2.414l2.511 2.079 4.444-4.444-2.079-2.51a16.764 16.764 0 0 0 2.413-5.805l3.236-.305v-6.284l-3.236-.304zm-8.034 3.447a8.508 8.508 0 0 1-8.508 8.507 8.508 8.508 0 1 1 0-17.015c4.7 0 8.508 3.809 8.508 8.508zM396.215 72.059a10.751 10.751 0 0 0-1.548-3.723l1.333-1.61-2.85-2.85-1.61 1.333a10.772 10.772 0 0 0-3.722-1.547l-.195-2.075h-4.03l-.196 2.075c-1.351.28-2.607.816-3.722 1.547l-1.61-1.333-2.85 2.85 1.333 1.61A10.777 10.777 0 0 0 375 72.058l-2.075.196v4.03l2.075.196c.28 1.351.816 2.607 1.548 3.722l-1.333 1.61 2.85 2.85 1.61-1.333a10.777 10.777 0 0 0 3.722 1.548l.196 2.075h4.03l.195-2.075a10.738 10.738 0 0 0 3.722-1.548l1.61 1.333 2.85-2.85-1.333-1.61a10.77 10.77 0 0 0 1.548-3.723l2.075-.196v-4.03l-2.075-.194zm-5.152 2.21a5.456 5.456 0 1 1-10.913 0 5.456 5.456 0 0 1 10.913 0z" style="fill:#f0f0f0"/><path d="M443.92 330.198H263.174a5.869 5.869 0 0 1-5.862-5.862V61.062a5.869 5.869 0 0 1 5.862-5.862H443.92a5.868 5.868 0 0 1 5.862 5.862v263.273a5.868 5.868 0 0 1-5.862 5.863zM263.174 55.45a5.618 5.618 0 0 0-5.612 5.612v263.273a5.618 5.618 0 0 0 5.612 5.612H443.92a5.618 5.618 0 0 0 5.612-5.612V61.062a5.619 5.619 0 0 0-5.612-5.612H263.174zM235.493 330.198H54.746a5.869 5.869 0 0 1-5.862-5.862V61.062a5.868 5.868 0 0 1 5.862-5.862h180.747a5.868 5.868 0 0 1 5.862 5.862v263.273a5.87 5.87 0 0 1-5.862 5.863zM54.746 55.45a5.619 5.619 0 0 0-5.612 5.612v263.273a5.618 5.618 0 0 0 5.612 5.612h180.747a5.618 5.618 0 0 0 5.612-5.612V61.062a5.619 5.619 0 0 0-5.612-5.612H54.746zM0 391.267h500v.25H0zM51.672 405.531h16.06v.25h-16.06zM170.352 402.821h53.53v.25h-53.53zM68.732 414.821h36.25v.25h-36.25zM378.352 402.691h43.19v.25h-43.19zM430.452 402.691h6.33v.25h-6.33zM316.212 408.921h53.89v.25h-53.89z" style="fill:#e0e0e0"/><path d="M283.855 426.932c.836-10.535 6.619-21.193 15.919-28.429 2.323-1.801 7.202-5.372 3.246-7.258-4.519-2.158-13.188 7.918-14.403 9.781 2.566-8.027 10.341-13.842 18.777-17.172 4.169-1.646 8.144-3.206 3.703-5.652s-14.053 3.486-16.279 6.032c5.268-5.877 11.925-11.761 18.747-15.278 7.532-3.882 4.13-10.356-3.635-5.349-4.811 3.105-12.722 10.868-12.722 10.868s12.43-19.944 8.679-21.737c-4.859-2.329-13.373 24.842-15.725 30.199.632-4.44 1.225-15.185-2.916-15.65-3.781-.419-2.857 26.333-3.732 31.053a80.473 80.473 0 0 0-1.244 5.178c-.408-3.563-2.916-12.957-6.667-11.87-3.188.916-1.215 7.949-.389 11.288 2.002 8.081 4.024 15.899 4.043 24.19l4.598-.194z" style="fill:#f0f0f0"/><path d="M276.963 431.519c-.855-13.761-6.897-27.684-16.607-37.128-2.419-2.35-7.504-7.017-3.419-9.479 4.709-2.812 13.761 10.342 15.017 12.769-2.667-10.479-10.786-18.068-19.581-22.419-4.35-2.154-8.496-4.18-3.863-7.376 4.633-3.197 14.667 4.556 16.974 7.872-5.496-7.692-12.436-15.385-19.547-19.949-7.855-5.06-4.273-13.521 3.786-6.983 5.068 4.051 13.308 14.162 13.308 14.162s-12.957-26.034-9.043-28.427c5.026-3.077 13.94 32.479 16.393 39.427-.65-5.795-1.265-19.829 3.094-20.436 3.94-.547 2.974 34.376 3.889 40.547.581 2.692.855 4.043 1.291 6.761.436-4.65 3.026-16.914 6.966-15.496 3.316 1.197 1.265 10.376.402 14.735-2.094 10.547-4.205 20.761-4.214 31.581l-4.846-.161z" style="fill:#e6e6e6"/><path d="m261.955 424.641 4.44 24.364h26.274l4.707-24.364z" style="fill:#e0e0e0"/><path d="M258.782 417.614h42.247v8.13h-42.247z" style="fill:#e0e0e0"/><path d="M458.875 454.435c0 3.387-93.517 6.132-208.875 6.132s-208.875-2.745-208.875-6.132c0-3.387 93.516-6.132 208.875-6.132s208.875 2.745 208.875 6.132z" style="fill:#ebebeb"/><path d="M98.82 105.676v184.661c0 5.391 4.37 9.761 9.761 9.761h288.897a3.698 3.698 0 0 0 3.698-3.698V104.427a4.95 4.95 0 0 0-4.95-4.95H105.019a6.199 6.199 0 0 0-6.199 6.199z" style="fill:#407bff"/><path d="M98.82 105.676v184.661c0 5.391 4.37 9.761 10.934 9.722h288.897c.869.039 2.525-1.616 2.525-3.658V104.427a4.95 4.95 0 0 0-4.95-4.95H105.019a6.199 6.199 0 0 0-6.199 6.199z" style="opacity:.7;fill:#fff"/><path d="M401.18 115.58H98.82v-11.244a4.858 4.858 0 0 1 4.859-4.859H397.3a3.88 3.88 0 0 1 3.88 3.88v12.223z" style="fill:#407bff"/><path d="M397.154 107.529a3.422 3.422 0 1 1-6.844 0 3.422 3.422 0 0 1 6.844 0zM387.43 107.529a3.422 3.422 0 1 1-6.843 0 3.422 3.422 0 0 1 6.843 0z" style="opacity:.3;fill:#fff"/><circle cx="374.284" cy="107.529" r="3.422" style="opacity:.3;fill:#fff"/><path d="M152.277 92.305h26.851M186.525 92.305h5.592" style="fill:none;stroke:#407bff;stroke-linecap:round;stroke-linejoin:round;stroke-miterlimit:10"/><path d="M364.482 148.481H135.518c-5.392 0-9.763-4.371-9.763-9.763 0-5.392 4.371-9.763 9.763-9.763h228.964c5.392 0 9.763 4.371 9.763 9.763 0 5.392-4.371 9.763-9.763 9.763z" style="fill:#fff"/><path d="M363.611 138.195a4.304 4.304 0 0 1-4.308 4.308 4.308 4.308 0 1 1 4.308-4.308z" style="fill:none;stroke:#407bff;stroke-miterlimit:10"/><path d="m365.555 143.548-2.931-2.299" style="fill:none;stroke:#407bff;stroke-linecap:round;stroke-linejoin:round;stroke-miterlimit:10"/><g style="opacity:.4"><path d="M354.042 277.164a3.669 3.669 0 0 1-1.178 1.982c-.425.356-1.777 1.074-1.932.057-.043-.283.263-1.598.376-1.87.334-.793.689-.274 1.226-.17.55.107 1.068-.4 1.508.001zM350.365 194.819c.192.679.323 1.349.473 1.982-.521.777-1.547.489-2.309.905-.358.196-.457.911-.802 1.02-.277.087-.492-.289-.754-.283-.677.016-1.008 1.362-1.839 1.02-.475.34.019 1.644-.565 1.755-.415.079-.644-.566-.896-.962-.305-.48-.741-.744-.753-1.133-.013-.403.676-1.078.894-1.359.268-.345.794-.987 1.131-1.077.628-.166 1.266.073 1.745-.169.412-.212.436-.993.659-1.19.189-.168.405-.122.567-.226.437-.285.909-1.264.659-2.265-.157-.632-1.03-1.324-.47-2.096.834.107 1.935 1.095 2.073 2.096.054.39-.126.781-.095 1.189.016.233.197.485.282.793zM350.554 188.645c-.106.289-.319.229-.518.396-.193.163-.421.682-.659.737-.379.086-.804-.446-1.18-.339-.441.126-.183.533-.329 1.018-.387-.099-1.022-.616-1.037-1.133-.01-.324.34-.525.425-.905.139-.648-.223-.974-.425-1.586-.014-.091.045-.097.047-.17.461-.116 1.365.927 2.405 1.133.67.132 1.232.061 1.271.849zM348.811 246.129c.048.471-.635.416-.707.111.014-.364.623-.478.707-.111zM345.511 183.888c.467.296 1.597.968.801 1.586-.482-.214-.984-.947-.801-1.586zM343.344 243.638c.539-.353 1.128-1.128 2.073-.738-.207.705-.917.691-1.366 1.02-.454.333-.839.898-1.414.963a.475.475 0 0 0-.189-.227c-.003-.633.522-.778.896-1.018zM342.071 232.99c.553.001 1.075-.205 1.459.057-.071 1.416-1.899.339-3.109.567-.258.047-.334.287-.614.168.016-.479.447-.963.896-1.018.345-.043.862.224 1.368.226zM342.541 234.744c.054.784-.837.871-1.084 1.475.392.719.544 1.725.99 2.377-.019.432.073.997-.142 1.19-.948.219-1.459-1.83-1.839-2.547-.725.163-.063 2.951-1.036 2.605-.477-.17.006-.967-.095-1.585-.088-.544-.531-.655-.565-1.078-.027-.349.32-.719.424-1.076.15-.513.055-1.502.565-1.528.252-.014.591.637.755.678.563.145 1.232-.689 2.027-.511zM340.797 243.183c-.173.429-1.142.223-1.224-.17.165-.446 1.143-.312 1.224.17zM339.901 244.542c-.055.085-.118.16-.187.228-.358-.138-.74-.242-.848-.68.264-.466 1.023-.08 1.035.452zM338.629 243.126c-.239.408-1.069-.033-1.366.396-.49-.014-.984-.022-1.084-.509.142-.415.588-.13.942-.17.569-.062 1.357-.542 1.508.283z" style="fill:#fff"/><path d="M331.984 264.817c-.004-.5-.264-.941-.331-1.471-.023-.192.024-.439 0-.681-.031-.35-.175-.642-.141-.849.065-.375.429-.415.52-.736.148-.528-.181-.612-.189-1.246-.006-.447.282-.665.472-1.246.087-.269.091-.771.187-.962.122-.241.644-.446.848-.565.723-.426 1.302-1.219 2.029-1.36.183-.036.433.027.565 0 .427-.09.964-.52 1.555-.679.572-.156 1.078-.097 1.508-.398.473-.327 1.142-1.185 1.319-1.699.216-.622.152-1.147.566-1.359.203-.103.402.009.613-.056.218-.069.687-.336.849-.51.328-.353.382-.933.753-1.303a6.665 6.665 0 0 1 1.085-.848c.201-.122.575-.248.753-.228.665.069.975 1.183 1.697.963.258-.078.521-.738.755-1.132.34-.578.587-1.356 1.178-1.529.477-.141 1.01.22 1.272-.283.059-.358-.223-.571 0-.794.55.041 1.478.932 2.309.962.448.017 1.278-.586 1.368.228.039.36-.335.651-.424 1.02-.063.26.093.401-.047.68-.384.182-.79.277-.801.792-.014.646.76.949 1.224 1.304.319.242.585.612.755.735.145.103.375.151.471.226.306.239.523.78.944.794.479.014.957-.72 1.225-1.418.313-.815.331-1.805.47-2.661.048-.286.217-.565.283-.849.182-.775.429-1.821.989-2.096.563.716.755 2.109.662 3.287.376.343 1.038.229 1.13 1.02.032.273-.113.622-.094.904.032.477.328.895.378 1.303.094.755-.105 1.377.187 1.926.368.693 1.089.669 1.556 1.418-.008.464.145.652.236 1.016.044.173.002.455.048.568.151.379.559.416.707.735.073.157.052.454.142.737.129.416.439.727.66 1.133.213.393.561.821.612 1.134.095.564-.246.951-.33 1.415-.101.563 0 1.29-.187 1.869-.219.681-.758 1.352-1.179 2.208-.346.705-.816 1.499-1.32 1.982-.298.286-.651.452-.943.738-.451.441-.821 1.016-1.225 1.529-.425.539-.939.951-1.274 1.414-.484.674-.724 1.76-1.554 1.87-.486.064-.921.014-1.367.227-.698.333-1.161.947-1.507.963-.364.014-.701-.514-1.038-.567-.378-.058-.674.344-1.225.339-.225-.001-.338-.16-.659-.283-.674-.256-1.414-.246-1.508-1.132-.053-.483.256-.7.235-1.134-.021-.432-.373-.541-.519-.906.093-.39.108-.882-.236-1.134-.012-.352.063-.603.189-.792-.273.14-.634.228-.944.455-.343.249-.591.821-.988.735-.373-.157-.087-.602-.142-.962-.041-.275-.563-1.446-.802-1.642-.272-.224-1.27-.675-1.602-.738-1.457-.273-2.385.662-3.536.795-.295.033-.617-.06-.894 0-.947.199-2.003 1.103-2.593 1.698-.975.116-1.963-.24-2.97.114-.999.35-1.571 1.35-3.108 1.074-.305-.315-.846-.471-.849-1.018-.004-.432.532-.711.707-1.02.185-.331.503-1.109.518-1.586.01-.376-.211-.826-.189-1.301.014-.373.188-.769.186-1.137zM331.183 241.201c.257-.043.449-.271.707-.282.549-.026 1.093.488 1.742.394.142.184.045.335.049.625.551.353 1.455.289 1.742.961-.413.526-1.026.149-1.555.056-.479-.081-.988-.042-1.508-.113-.659-.092-1.256-.53-1.884-.622-.382-.057-.773.066-1.132 0-.424-.079-2.004-.796-2.027-1.302-.023-.522.711-.669 1.366-.568.847.135 1.413 1.033 2.5.851zM332.454 237.294c-.356-.12-.69-.055-.846-.17-.323-.238-.275-.917-.379-1.303-.104-.391-.495-.599-.705-1.132-.307-.772-.439-2.501.376-2.662.328-.066.666.238.895.17.454-.135.375-.841.754-1.134.21-.163.597-.094.896-.226.309-.136.54-.489.754-.793.198-.283.352-.758.612-.962.293-.232.565-.238.801-.454.618-.566.638-1.356 1.131-2.039.419-.578 1.081.557 1.132 1.02.234.36.695.449.895.849-.277.997-1.06 1.083-.895 2.491.027.23.157.656.283.964.135.332.533.689.518.905-.031.423-.741.405-.896.849-.143.412.01.439-.046 1.076-.199.462-.731.574-.896 1.134-.199.674.03 1.544-.424 2.04-.313-.02-.656.326-1.035.281-.413-.045-.807-.727-1.463-.737-.25-.002-.545.192-.801.17-.202-.015-.365-.238-.661-.337zM329.404 236.034c1.199 0 1.199 2.236 0 2.236-1.2 0-1.2-2.236 0-2.236z" style="fill:#fff"/><path d="M327.646 235.764c.147.024.669.896.66 1.134-.016.399-.515.378-.66.906-.221.814.1 1.736-.282 2.153-.214.156-.601.109-.943.112-.855-.723-1.532-1.583-2.263-2.549-.265-.35-.589-.655-.754-1.02-.245-.541-.332-1.135-.612-1.642-.247-.445-.701-.762-.944-1.245-.197-.398-.216-.92-.423-1.303-.195-.356-.523-.509-.756-.794-.15-.186-.236-.476-.376-.679-.593-.853-1.732-1.297-1.79-2.549.241-.331.49.125.942.228.293.066.638-.029.849.056.428.173.724.976 1.178 1.416.255.246.587.416.847.679.28.282.485.685.708.85.307.226.732.374 1.131.681.545.416 1.518.849 1.65 1.7.032.21-.082.568-.048.734.065.297.378.426.566.68.232.315.28.788.613.85.332.111.348-.454.707-.398zM305.399 223.871c.406.16 1.76 2.138 1.367 3.229-.112.31-.579.71-1.037.622-.933-.178-.755-2.673-.471-3.681a.268.268 0 0 1 .141-.17zM274.054 252.529c.042-.456.312-1.204.613-1.475.435-.387 1.023-.347 1.462-.622.362-.227.863-.603 1.131-1.02.227-.353.239-.756.425-1.02.126-.182.412-.23.564-.452.137-.2.107-.572.331-.792.655-.336.843 1.104.944 2.094.03.309.163.64.139.792-.068.452-.482.545-.612.852-.032 1.241-.438 2.32-.802 3.339-.313.882-.495 1.847-.753 2.606-.094.276-.292.492-.376.735-.341.964-.465 2.477-1.085 2.889-.223.147-1.084.4-1.32.396-.577-.01-1.077-.531-1.225-1.131-.08-.322-.001-.658-.048-1.02-.057-.455-.282-.842-.236-1.36.105-1.153 1.039-1.712 1.084-2.661.035-.714-.301-1.424-.236-2.15z" style="fill:#fff"/><path d="M251.336 171.938c.055.95-1.208.831-1.368 1.643-.071.367.148.858.096 1.189-.097.595-.575.422-1.178.736-.308.16-.607.749-.943.792-.311.04-.5-.217-.707-.169-.309.07-.206.526-.66.622-.362.076-.995-.389-1.037.17-.027.359.569.554.943.509.296-.034.513-.279.801-.283.558-.006.921.498 1.273.51.809.027 1.603-.898 2.452-.794.383.047.611.373.895.34.454-.052.842-.682 1.178-.907-.143-.954.013-2.212.755-2.265.509-.036 1.274 1.047 1.366 0 .041-.455-.402-.857-.707-.85-.271.007-.627.645-.849.114.001-.519.486-.382.755-.511.2-.096.342-.358.566-.453 1.121-.473 2.675.465 3.111-.679-.995-1.02-2.688.372-3.818.283-.482-.037-1.118-.468-1.272-1.02-.049-.174-.008-.409-.048-.735-.043-.361-.199-.74-.188-.964.048-1.023 2.167-1.215 2.167-2.491-.404-.466-1.591-.388-1.979.113-.139.18-.132.545-.33.907-.423.774-1.788.865-2.215 1.812-.095.21-.261.785-.189 1.132.11.54 1.098.685 1.13 1.249zm-11.218 55.388c-1.358-.239-2.747.419-3.677.905-.537.282-1.083.711-1.555.737-.448.026-.888-.286-1.319-.339-.562-.07-1.282-.005-1.839.113-.542.116-1.031.581-1.508.622-.914.083-1.783-.989-2.357-1.529-.351-.328-.708-.598-1.037-.905-.353-.331-.809-.532-1.084-.85-.371-.432-.371-1.183-.566-1.756-.229-.675-.928-1.171-1.461-1.812-.399-.479-1.314-1.195-1.414-1.812-.05-.315.112-.678.094-1.02-.025-.496-.336-.778-.33-1.133.01-.498.498-.882.613-1.303.06-.215.031-.518.094-.793.132-.575.449-.915.377-1.756-.029-.335-.268-.641-.283-1.075-.01-.298.163-.464.141-.737-.036-.483-.558-.578-.613-1.132-.055-.574.456-1.047.755-1.699.134-.292.208-.74.33-.963.264-.482.695-.715.896-1.19.148-.35.195-.87.33-1.132.174-.338.519-.519.848-.963.268-.362.377-.799.565-.963.237-.206.591-.256.848-.396.873-.478 1.511-1.093 1.932-2.097-.129-.911.065-1.296.377-1.925.288-.582.499-1.138.99-1.473.589-.4 1.143-.438 1.554-1.188.206-.376.515-1.025.519-1.416.005-.561-.479-1.279-.896-1.36-.426-.081-1.081.389-1.32-.169-.076-.179.029-.596 0-.793-.054-.371-.319-.632-.33-.906-.023-.532.436-1.085.565-1.699.176-.835.006-1.474-.048-2.436.66-1.249 2.124-.629 3.583-.511.219.019.47-.063.707-.056.865.024 1.546.337 1.838-.566.11-.34.207-1.606.142-1.926-.077-.379-.697-1.362-.991-1.585-.467-.358-1.146-.202-1.414-.85.218-1.118 1.26-.187 1.885-.453.319-.136.283-.799.567-.907.193-.073.439.233.707.227.228-.006 1.056-.505 1.272-.681.301-.244.394-.752.66-.962.18-.141.417-.124.613-.226.401-.207.908-.629 1.178-1.02.39-.561.564-1.256 1.037-1.359.632-.139 2.062.15 2.169-.681.101-.791-.579-1.413-.33-2.265.197-.674.701-.555 1.414-.963.344.293.244 1.131.282 1.643.438.004 1.33-.156 1.414-.623.106-.584-.638-1.177-.801-1.529-.176-.382-.214-1.052-.565-1.132-.718-.166-1.415 1.188-2.31 1.188-.588 0-1.212-.545-1.367-1.076-.088-.303-.008-.589-.048-.907-.057-.463-.288-.944-.188-1.585.361-.743 1.193-.864 1.791-1.247.226-.145.408-.453.66-.566.423-.188 1.048.001 1.462-.283.262-.178.188-.488.377-.85.118-.227.406-.36.565-.622.111-.182.124-.457.236-.624.409-.612 1.157-.838 1.46-1.472.134-.28-.232-.385-.14-.793.152-.395.74-.105 1.083-.17.469-.087.902-.772 1.414-.905.534-.139 1.107-.055 1.603-.283.296-.137.569-.461.849-.511.099-.017.378.064.518.057.18-.008.374-.142.613-.17.346-.042.776.102 1.226.113.745.02 1.453-.269 2.073.057.324.17.288.612.706.792.211.092.49-.036.802 0 .461.053.944.436 1.555.511.218.026.443-.033.659 0 .674.099 1.414.525 2.075.792.552.225 1.722.504 1.743 1.133.026.745-1.018.963-1.461.963-.742 0-1.724-.52-2.497-.226.011 1.281 1.162 2.251 2.215 2.095.092-.602-.595-.267-.519-.85.47-.426 1.033.286 1.697.17.259-.084.215-.535.282-.849.56-.409 1.263-1.01 2.121-.566a.467.467 0 0 1 .189-.226c.056-.622-.566-.946-.236-1.53.164-.402 1.043-.263 1.178.057.068.383-.218.342-.189.679a.738.738 0 0 0 .755.51c.463-.03.555-.528.99-.794.176-.107.434-.119.659-.226.267-.127.493-.385.707-.453.157-.05.394 0 .613-.057.278-.071.572-.34.801-.339.284 0 .488.395.848.453.197.032.421-.134.707-.17.231-.03.47.033.66 0 .45-.079.759-.363 1.132-.34.263.017.714.443.895.227.305-.364-.407-.634-.187-.964.723.066 1.491.046 2.216.17 1.077.184 2.091.825 3.062.85-.092-.787-.842-.561-1.178-.906-.102-.106-.524-.935-.518-1.19.002-.128.533-1.217.66-1.359.415-.469 1.778-.466 2.168.169.267.435.178 1.09.565 1.077.333-.012.51-.995.896-1.02.319-.02.481.631.801.624.391-.01.662-.884 1.179-.907.279-.013.371.172.801.226.295-.228-.098-.528.048-.85.527-.46 1.73-.11 2.403-.396.188-.269-.24-.459-.047-.737.581-.488 1.557-.532 2.546-.735.604-.124 1.174-.629 1.648-.681.495-.053.968.349 1.414.34.272-.006.587-.104.849-.226.265-.125.446-.434.708-.51.413-.122.936.058 1.414 0 .506-.062.953-.298 1.319-.226.342.066.618.505.943.566.993.186 2.018-.179 2.922.113.162.053.325.255.519.341.606.266 1.019.183 1.132 1.075.476.203.756.728 1.319.907.376.118.754-.057 1.178-.057.557 0 1.27.026 1.744.113.27.05.493.289.755.341.19.037.443-.024.659 0 .295.033.56.179.801.17.494-.019.869-.548 1.272-.624.217-.04.505.093.707.113.794.08 1.709-.124 2.357.058.346.097.938.555 1.32.905.277.254.445.659.707.849.248.18.876.504 1.132.454.301-.057.314-.46.612-.622.936-.25 2.595.358 3.347-.057.291-.162.234-.532.471-.736 1.414-.083 2.824.07 4.148.113.466.016.947-.143 1.368-.056.466.098.807.659 1.271.849.309.126.854.06 1.32.17.313.073.569.299.801.339.504.086.985-.067 1.463-.113 1.081-.105 2.47-.173 3.535.34.567.273.805.825 1.413.905.871.116 2.22-.086 3.112 0 .213.021.412.127.565.113.299-.026.481-.331.849-.339.466-.013 1.209.874 1.887.736.292-.237-.234-.567.045-.793.266-.265.629-.003 1.038 0 .223.003.497-.136.707-.113.518.054 1.009.613 1.649.792.508.143 1.207.196 1.839.114.452-.06.841-.243 1.272-.17.209.035.394.216.612.284.201.061.398.002.566.056.157.051.313.229.472.283.876.302 2.043.45 2.97.794.545.202 1.102.608 1.556.622.223.009.421-.116.707-.113 1.424.012 3.099.724 2.968 2.323-1.666.439-3.061-1.379-4.808-.849-.279.084-.588.452-.564.792.065.987 2.134.904 2.308 1.869-.339.305-.709.017-.989.057-.425.06-1.141.599-1.414.906-.319.359-.599 1.278-.942 1.36-.421.099-1.064-.499-1.697-.34-.232.059-.455.406-.659.453-.52.119-1.182-.34-1.507.396.171.518.067 1.238.423 1.529.23.189.518.043.801.17.331.149.514.634.8.907.234.222.484.228.614.509.03.417-.138.463-.095.736.074.475.692.582.707.905.021.409-.389.322-.47.737-.03.263.254.333.282.679.019.232-.156.473-.141.737.02.377.268.629.235.962-.027.286-.235.509-.425.624-.902-.697-1.715-1.657-2.686-2.549-.994-.915-2.57-2.039-2.733-3.964-.005-.295.52-.526.613-.963.038-.179-.059-.433-.047-.679.033-.665.49-1.304.472-1.699-.023-.434-.695-1.239-1.038-1.36-.274.173-.003.516-.047.794-.055.342-.4.759-.707.792-.892.093-.992-1.38-2.405-.963-.365.109-.879.771-.753 1.586.039.247.606.513.565.849-.039.326-1.284.422-1.556.396-.76-.073-1.152-.757-1.837-.737-.337.01-.632.339-.896.396-1.484.326-3.687-.878-4.193.679-.073.22-.032.508-.095.737-.091.327-.309.585-.377.793-.057.175-.048.519-.142.792-.085.247-.977 1.214-.188 1.473.188.06.276-.097.519-.057.405.066 1.078.847 1.554.849.284.002.678-.384.895-.396.437-.026.752.313 1.084.509.317.187.802.581 1.038.566.445-.027.232-.398.66-.566.815.29 1.197 1.328 1.979 2.152.284.297.703.553 1.085.963.213.229.869.842.896 1.133.025.27-.184.386-.237.623-.076.345.102.598-.094.849-.752-.334-.921-1.225-1.461-1.982-.2-.282-.402-.617-.706-1.02-.138-.182-.638-.82-.944-.679-.593.27.325 1.35.472 1.586.313.499.728 1.171.756 1.699.017.337-.183.951-.189 1.529-.004.39.082.745.047 1.076-.036.332-.232.711-.331 1.077-.111.415-.136.911-.235 1.188-.183.51-.8 1.111-1.227 1.133-.391.02-.559-.362-.943-.339-.58.033-.687.675-1.036 1.188.03.558.175.749.094 1.133-.127.6-.822.705-.801 1.302.019.554.635.661.942.907.421.336 1.157 1.084 1.557 1.699.262.403.64 1.157.613 1.585-.036.561-1.378 1.34-1.934 1.133-.527-.196-.346-.801-.47-1.358-.096-.429-.376-.613-.517-.963-.075-.183-.041-.473-.143-.679-.284-.576-.781-.262-1.368-.624-.384-.237-.272-.736-.423-1.19-.202-.609-1.057-.897-1.743-.735-.505.117-.662.626-1.132.735-.691-.492.142-1.706-.707-1.812-.65-.082-1.081 1.121-1.462 1.473-.257.236-.723.284-.753.622-.056.625.549.498 1.035.737.442.217.493.818.896.849.337.027.561-.417.895-.453.579-.062 1.05.252 1.414.51-.235.686-1.504 1.19-1.508 2.095-.002.525.506.615.896.963.329.293.762 1.121 1.225 1.699.2.249.524.413.614.566.218.374.183.831.423 1.077.04.31-.118.386-.094.679.117.408.638.331.755.737-.097.977.242 1.896-.424 2.265-.307 1.752-.654 3.122-1.65 4.077-.896.857-2.079 1.11-3.159 1.529-.28.109-.504.463-.753.566-.627.256-1.744.1-1.79 1.02-.026.454.478.727.518 1.189.059.709-.469 1.423-.849 1.473-.274.036-.864-.193-.896-.794-.037-.675.697-.951.755-1.359.1-.721-.518-1.423-1.225-1.359-.623.056-2.039 1.557-2.073 2.379-.027.613 1.011 1.89 1.366 2.265 1.323 1.402 2.729 2.242 2.497 5.663-.331.867-1.176 1.051-1.838 1.529-.504.363-.755 1.49-1.603 1.586-.341-.14-.142-.78-.236-1.076-.129-.406-.803-.605-1.225-1.02-.345-.34-.49-.877-.754-1.19-.33-.39-.823-.472-1.226-.736-.253-.166-.451-.749-.707-.735-.415.02-.271.501-.376 1.301-.105.788-.583 1.393-.425 2.323.067.38.462.688.659 1.076.328.642.373 1.39.708 1.756.221.242.597.295.848.509.5.429 1.379 1.359 1.556 1.87.205.596.007 1.299.141 1.926.157.725.946 1.244.473 1.982-.451-.1-.845-.455-1.227-.737-.648-.482-.945-.897-1.367-1.699-.124-.235-.307-.464-.377-.679-.164-.508-.129-1.083-.282-1.699-.132-.531-.644-1.369-1.038-1.814-.33-.374-.917-.593-.942-1.132-.034-.76.214-1.653.189-2.549-.006-.193-.115-.388-.141-.622-.05-.435.036-.967-.049-1.36-.077-.362-.297-.688-.424-1.018-.126-.326-.255-.653-.376-1.077-.192-.655-.406-1.918-.849-1.982-.473-.068-.939 1.064-1.556 1.077-.316.006-.738-.299-.801-.681-.06-.348.149-.698.142-1.076-.018-.759-.467-1.053-.802-1.586-.136-.216-.172-.519-.284-.679-.214-.308-.624-.479-.895-.792-.258-.3-.542-.732-.66-1.02-.182-.443-.241-1.018-.518-1.077-.265-.056-.572.402-.848.51-.287.113-.993.259-1.273.283-.946.079-1.714-.224-1.602 1.133-.147.609-.683.616-1.038.905-.451.369-.78 1.108-1.272 1.699-.239.289-.586.469-.801.737-.18.223-.236.581-.425.794-.503.571-1.257.619-1.601 1.416-.02.941.37 1.653.282 2.547-.041.408-.294.769-.331 1.19-.03.36.123.748.049 1.133-.042.206-.232.314-.378.566-.131.226-.184.526-.281.679-.16.244-.42.414-.568.624-.239.34-.289.583-.518.623-1.033.179-1.287-2.182-1.743-3.172-.211-.454-.639-.865-.849-1.416-.241-.635-.315-1.432-.66-2.152-.293-.615-.697-1.231-.895-1.869-.168-.539-.313-1.214-.471-1.812-.168-.632-.35-1.427-.377-1.925-.039-.735.118-1.188-.378-1.473-.454.129-.657.679-1.178.679-.503 0-1.853-1.047-1.46-1.982-.329-.561-1.159-.868-1.792-1.529-.362-.379-.689-1.282-1.319-1.358-.174-.022-.4.096-.566.113-.399.042-1.106-.043-1.556 0-.565.054-1.264.207-1.979.113-.461-.06-1.033-.167-1.508-.226-.603-.075-1.406-.246-1.743-.624-.209-.232-.294-.974-.662-1.076-.437-.122-.677.284-1.083.396-.864.238-1.585-.213-2.169-.679-.414-.33-.791-.502-1.084-.736-.717-.577-.845-2.31-1.933-2.323-.378-.004-.981.28-1.037.794-.037.361.358 1.03.519 1.303.529.895 1.5 1.231 1.791 2.434.195.092.593-.206.801.057.182.516-.002 1.474.424 1.699 1.959.389 2.519-.901 3.395-1.812.508.399.34.748.518 1.188.181.452.464.806.801.964.237.109.541.007.896.169.222.102 1.152 1.158 1.179 1.53.024.333-.611 1.467-.803 1.754-.187.281-.476.426-.565.679-.067.196-.045.612-.094.737-.087.226-.51.52-.755.792-.257.289-.557.514-.801.737-.298.275-.482.652-.801.794-.627.278-1.224.159-1.744.566-.34.266-.342.866-.753 1.188-.431.336-1.168.339-1.793.681-.401.219-.642.644-.988.792-.142.06-.319.009-.473.057-.313.096-.603.363-.896.452-.232.071-.479.036-.707.114-.726.252-1.391 1.139-2.121.622-.344-.954-.4-2.155-.801-3.002-.205-.432-.607-.565-.753-1.018-.02-.365.345-.265.376-.566-.12-.612-.601-.898-.895-1.417-.144-.253-.211-.614-.377-.905-.562-.982-1.67-1.493-1.886-2.719-.058-.333.01-.595-.046-.85-.093-.419-.328-.859-.566-1.188-.18-.252-.548-.423-.754-.794-.137-.244-.167-.589-.283-.849a9.231 9.231 0 0 0-1.885-2.719c-.384.067-.797.099-.989.398.191.741.485 1.361.801 1.982.288.565.697 1.174.895 1.812.074.236.061.544.142.792.296.898 1.228 1.174 1.414 2.21.125.694-.027 1.174.142 1.868.162.666.981 1.059 1.32 1.699.276.522.278 1.26.471 1.756.282.727 1.071 1.041 1.65 1.529.519.439.891 1.115 1.319 1.586.252.275.599.325.66.624.08.383-.134.512-.189.848.362.453.714 1.29 1.32 1.36.249.029.563-.273.943-.34.192-.033.406.036.565 0 .251-.054.47-.323.756-.396.481-.124 1.039-.074 1.649-.17.576-.09.973-.675 1.414-.509.484.639.137 1.364 0 1.982-.048.217-.048.442-.093.624-.255 1.008-.921 1.755-1.228 2.661-.094.278-.077.618-.187.905-.351.908-1.083 1.804-1.651 2.549-.32.419-.602.798-.942 1.132-.338.334-.751.516-1.132.85a11.48 11.48 0 0 0-2.073 2.493c-.206.34-.304.732-.519 1.02-.307.412-.782.615-1.036 1.02-.201.319-.335.897-.566 1.472-.259.648-.801 1.085-.706 1.982.035.343.291.557.377.907.146.604.034 1.111-.048 1.755.267.777.458 1.641.943 2.152.058 1.146-.079 2.258 0 3.228.05.618.25 1.073.047 1.642-.178.502-.863 1.385-1.272 1.699-.445.345-1.126.435-1.603.851-.332.289-.607.795-.943 1.134-.555.557-1.317 1.077-1.366 1.642-.028.325.213.817.282 1.131.185.837.363 2.039.048 2.944-.342.98-2.07.777-2.263 1.812-.058.315.115.566.094.907-.017.289-.332 1.33-.472 1.642-.208.469-.682.679-.989 1.077-.386.502-.581 1.228-.99 1.755-.556.718-1.307 1.475-2.027 2.096-.626.543-1.75 1.107-2.733 1.19-.573.049-1.186-.162-1.791-.056-.221.037-.462.282-.755.339-.17.033-.344-.036-.518 0-.296.06-.574.343-.849.34-.611-.009-1.395-.884-1.414-1.755-.007-.336.239-.655.236-.964-.005-.361-.374-.815-.661-1.473-.275-.632-.383-1.349-.659-1.866-.293-.552-.679-.814-.895-1.247-.434-.871-.466-1.902-.613-2.946-.048-.34-.241-.71-.283-1.133-.051-.52.052-1.098-.046-1.529-.076-.332-.382-.669-.567-1.076-.332-.734-.566-1.694-.848-2.264-.266-.535-.801-1.092-.849-1.699-.032-.412.043-1.18.094-1.586.051-.398.296-.713.377-1.132.054-.279-.011-.599.046-.907.24-1.296 1.428-1.768 1.273-3.342-.066-.668-.459-.997-.519-1.756-.027-.355.147-.666.141-1.019-.008-.478-.345-1.188-.519-1.642-.478-1.249-.77-2.392-1.461-3.341-.376-.518-.869-.883-1.178-1.36-.253-.389-.562-1.117-.566-1.415-.005-.323.207-.525.283-.85.099-.417.106-1.208.236-1.869.06-.303.332-1.037.284-1.529-.048-.474-.635-1.381-1.132-1.529-.658-.196-1.336.253-2.168.17-.715-.538-.662-1.963-1.696-2.145zm26.065 20.275c.218-.416.492-1.586 0-1.869h-.094c-.21.47-.434 1.606.094 1.869zm-.66-11.837c.16-.392.533-.806.471-1.301-.136-1.092-1.834-.554-2.026.226-.13.525.077.941-.095 1.473.185.419.651.502 1.226.452.318-.168.278-.49.424-.85zm-2.875 5.835c.187-.416-.298-.688-.377-1.134-.093-.522.106-1.136-.284-1.416h-.14c-.342.928.141 2.46.801 2.55zm32.145-56.239c-.177-.428-.687.126-.47.511.319.024.434-.198.47-.511zm-10.981 2.322c.764-.178.008-1.645-.566-1.473-.751.226.045 1.594.566 1.473zm-3.488 7.306c.235-1.964-1.038-2.111-1.273-3.511.108.017.052-.163.142-.17.309-.179.777.286.941-.169.004-.671-.705-1.171-1.414-.849-.204-.169-.232-.551-.282-.907-.534-.382-1.857-1.217-1.839-1.983.015-.629.691-.982 1.461-.962.325-.296.116-1.206-.188-1.416-1.219-.321-1.868-.105-2.64.566-.37.322-.783.544-.99.736-.19.178-.445.663-.423.905.029.35.447.556.613 1.02.084.239.066.538.141.736.206.546.733.899 1.131 1.359.281.325 1.069 1.028 1.084 1.416.014.323-.242.395-.329.737-.089.335-.191 1.126-.141 1.416.103.622.639.644 1.129.907.487.26.956.721 1.462.735.54.017 1.113-.19 1.415-.566zm-11.077-4.078c1.277-.277.694-1.575.047-2.038-.491-.352-1.077-.658-1.65-1.077-.332-.243-1.594-.702-1.602-1.188-.01-.532.939-.706.565-1.643-.645-.189-2.179.109-2.073.963.061.493.547.22.659.736-.461.197-1.023.715-1.508.624-.577-.109-.726-.961-1.036-1.473-.449.018-.744-.522-1.273-.453-.554.073-.848 1.04-1.132 1.53-.15.257-.389.39-.472.622-.048.14.005.363-.046.566-.162.629-.616.86-.567 1.416.044.49.488.711.52 1.133-.031.435-.612.209-.566.737.844.837.89-.395 1.32-.566.345-.139 1.022.114 1.46 0 .354-.093.632-.498 1.037-.679.247-.112.554-.211.896-.228 1.5-.074 2.468 1.098 3.771 1.133.431.01 1.203-.018 1.65-.115zm-3.017 6.683c.026-.608-.193-1.066-.236-1.925-.87-.631-1.52.585-2.403.452-.543-.082-.932-.841-1.508-.735-.318.057-.475.551-.803.622-.674.149-.98-.648-1.696-.339-1.009-.924-1.46-2.428-1.697-4.135-.55-.867-1.389-.162-1.791.396-.248-.003-.557-.164-.612.17-.186 1.047 1.232 1.158 1.225 1.869-.005.462-.553.419-.801.735-.263.336-.088.635-.423.849-.93.135-1.238-.476-1.226-1.472-.401-.732-.908-1.265-1.272-1.869-.135-.223-.336-.571-.377-.907-.033-.265.105-.601.048-.905-.102-.541-.94-.948-1.462-1.246-.557-.319-1.255-.621-1.65-1.02-.28-.283-.412-.775-.659-.962-.211-.159-.473-.126-.661-.283-.258-.217-.215-.579-.565-.681-.177-.078-.451.212-.565.398-.23 1.236.607 1.32.989 1.868.263.376.394.943.661 1.19.285.265.671.216 1.037.396.253.124.417.502.66.679.45.329 1.173.386 1.226 1.02-.28.229-.914-.333-1.131.228-.056.367.243.556.236.905-.012.558-.528 1.169-.991 1.077-.046-.332.246-.603.236-.964-.02-.721-1.226-1.82-1.838-2.151-.287-.156-.636-.164-.896-.34-.463-.313-1.274-1.083-1.556-1.529-.337-.537-.625-1.529-1.366-1.473-.303.023-.552.356-.801.51-.226.139-.476.267-.707.452-.275.219-.498.44-.755.453-.592.03-1.094-.528-1.602-.396-.171.045-.314.229-.519.454-.007.33.082.542.048.905-.154.319-.609.299-.943.511-.488.309-.923.944-1.32 1.416-.256.303-.487.554-.519.793-.025.187.132.542.095.794-.042.273-.469.839-.755 1.076-.167.137-.388.156-.566.283-.371.265-.538.609-.848.679-.824.185-2.321-.199-2.309.85.007.7.794.703 1.273.679.666-.031 1.233.17 1.602.057.255-.077.533-.421.801-.566.169-.091.344-.093.471-.17.282-.17.442-.446.661-.566.431-.236 1.233-.421 1.696-.453.635-.045 1.3.079 2.121 0 .293-.027.582-.253.896-.283.513-.048 1.188.243 1.602.227.287-.012.607-.346.943-.34.38.008.78.332.848.624.039.166-.08.43-.048.68.055.411.349.582.331.849-.025.355-.76.828-.661 1.246.065.268.593.549.849.736.268.196.72.468 1.037.509.267.036.502-.089.755-.056.406.053 1.063.349 1.32.566.443.375.381.975.895 1.188.219.092.614.04.895.115.687.179 1.196.862 1.697.792.789-.11.43-1.004.519-1.642.201-1.446 2.552-1.38 3.016-.398.344.11.645.017 1.037.17.226.089.395.386.613.453.164.05.403-.029.613 0 .904.123 1.722.931 2.499.792.492-.087.849-.643 1.319-.679.902-.067 1.479.807 2.452.396.715-.302.556-1.193.801-2.095.167-.628.495-1.056.515-1.529zm50.811-19.312c.187-.721-.103-1.449-.471-1.925-.544.113-.151.793-.188 1.19-.053.562-.55.953-.519 1.529-.181.254-.49.355-.518.792.3.249.431-.196.66-.453.36-.407.911-.647 1.036-1.133zm-12.349-19.652c-.519 0-.714.246-1.037.453-.177.113-.538.176-.424.509.453-.065 1.353-.311 1.461-.962zm-19.89 6.966c1.108.31 1.628-1.193.895-2.039-.172-.197-.75-.275-.988-.735-.289-.553-.249-1.293-.944-1.132-.007.066.008.16-.048.169-.065 1.238 1.435 1.55 1.414 2.548-.011.523-.471.579-.329 1.189z" style="fill:#fff"/><path d="M269.293 163.443c-.137-.613.83-.514.66.057-.15.17-.563.156-.66-.057zM263.497 197.31c.022-.468.909-.639 1.083-.226-.059.455-.901.768-1.083.226zM247.33 194.253c.492-.478 1.585-.154 2.263-.17-.127.433-.147.996-.425 1.246-.773-.169-1.493-.397-1.838-1.076zM243.889 191.251c.647-.812 1.327-.383 1.084 1.189-.155.469-.828 1.095-1.132.397.104-.549.06-.954.048-1.586zM244.831 189.439c.054.479-.113.694-.33.849-.621-.132-.148-1.472.33-.849zM235.688 177.942c.055-.323-.156-.726-.425-.907-.155-.104-.392-.056-.566-.17-.459-.303-.626-.935-.895-1.076.034-.621-.142-1.07 0-1.473.085-.244.704-.935 1.037-1.076.412-.174.842-.018 1.084-.396.108-.019.181.008.236.056-.002.357-.253.416-.283.736.058.515.813.193.895.679-.071.529-.468.634-.471 1.02-.001.336.571.974.848 1.416.207.327.569.571.755.907.162.293.197.642.33.792.247.282.807.329.849.736.055.541-.56.754-.472 1.359-.647.611-1.727.295-2.782.454-.477.073-1.003.643-1.508.17-.117-.38.419-.432.471-.792-.037-.334-.389-.287-.471-.566.137-.44.564-.53.519-1.19.263-.345.769-.215.849-.679z" style="fill:#fff"/><path d="M232.153 176.581c.629-.462 1.729-.109 1.79.453.046.425-.334.486-.471.963-.122.433.024.948-.141 1.247-.144.259-.535.243-.802.339-.593.213-1.738 1.05-2.215.113.069-.502.474-.602.613-1.018.008-.327-.282-.5-.236-.849.057-.428.325-.281.707-.454.277-.127.396-.53.755-.794zM199.959 164.292c.099.504-1.24 1.161-1.368.511-.101-.521 1.027-1.171 1.368-.511zM198.404 291.944h-.707c.127-.093.579-.093.707 0zM196.282 160.272c.061-.079.223-.079.284 0-.047.133-.083.278-.284.226v-.226zM192.088 169.276c.01.312-.936.828-1.038.226a.481.481 0 0 1 .189-.452c.252-.185.839-.08.849.226zM172.48 221.889c-.025.084-.07.143-.094.227-.502-.022-.049-.791.094-.227zM153.342 182.302c.331-.232.648.349.425.623-.364.085-.457-.415-.425-.623z" style="fill:#fff"/><path d="M204.719 184.398c-.22-.066-.52-.053-.801-.113-.24-.051-.526-.137-.753-.17-.582-.083-1.212.12-1.556-.283.561-.895 1.306-1.778 2.027-2.549.214-.23.675-.387.565-.849-.401-.423-.894.026-1.272.283-.397.269-.871.656-1.32.737-.78.139-1.814-.275-2.451.226-.088.428.725.262.612.907-.312.061-.607.091-.848-.17-.219-.237-.094-.593-.236-.736-.242-.24-1.15-.306-1.556-.226-.495.097-.933.453-.99.962.595.335 1.576-.345 1.791.511-.326.705-1.094 1.093-.99 2.038.041.365.401.852.661.907.26.054.407-.256.66-.228.266.03.206.396.519.34.454-.233.705-.999 1.225-.963.624.91-.563 1.353-1.225 1.642-.755.329-1.735.504-2.31.794-.301.152-1.441 1.476-1.602.452-.116-.738.564-.525.707-1.133-.73-.17-1.41.378-2.074.681-.947.431-2.553.704-2.782 1.982-.045.256.093.735-.046.905-.113.137-.789.162-1.085.283-.454.187-.851.588-1.132.679-.212.07-.525.05-.66.114-.375.174-.513.784-.943 1.188-.176.166-.566.286-.707.453-.244.292-.276 1.022-.707 1.132-.274.029-.496-.247-.755-.057-.031.722.212 1.705-.046 2.435-.558.546-1.171.934-1.885 1.416-.396.267-.749.336-1.226.623-.338.203-.648.687-1.037.963-.9.636-1.987 1.39-1.979 3.002.001.349.151.725.188 1.133.023.24-.024.475 0 .737.056.592.413 1.346 0 1.755-.635-.313-1.441-.419-1.885-.962-.121-.56.245-1.02.189-1.529-.045-.409-.524-1.137-.802-1.19-.287-.055-.551.312-.848.283-.352-.033-.68-.616-1.132-.679-.663-.093-1.151.182-1.885.057-.711.456-.919 1.269-1.79 1.188-.307-.027-.588-.309-.943-.396-.384-.096-.968-.259-1.367-.226-.803.064-1.384.758-2.073 1.188-.608.381-1.469.854-1.65 1.644-.099.425-.016 1.022-.142 1.416-.083.259-.265.489-.377.735-.528 1.16-.966 2.693-.565 4.362.059.247.584 1.643.801 1.925.243.313.958.784 1.367.793.345.008.75-.21 1.085-.283.388-.083.873-.09 1.226-.226 1.019-.392.818-2.048 1.838-2.605.445-.242.961-.29 1.744-.339.249.252.365.692.331 1.076-.026.289-.255.551-.377.963-.107.362-.13.785-.236 1.077-.141.382-.454.661-.566 1.02-.074.233-.033.523-.094.735-.108.373-.524.636-.331 1.02 1.009.482 2.231-.137 3.111.057.372.082 1.138.615 1.131 1.303-.005.515-.331.852-.377 1.416-.057.709-.303 1.577-.33 2.151-.042.939 1.147 2.561 1.979 2.548.896-.014 1.419-1.071 2.498-.509.358.186.737.884 1.132.849.326-.029.819-.715 1.037-1.19.265-.579.285-1.067.753-1.359.506-.315.908-.163 1.556-.453.289-.129.54-.35.801-.566.229-.189.469-.683.755-.34.376.452-.461.707-.142 1.19.653.416.988-.774 1.462-.793.151-.006.674.353.942.567.368.29.493.698.895.792.258.061.674-.119 1.037-.057.481.083.768.579 1.132.566.444-.014.657-.595 1.037-.679.832-.183 1.141.112 1.508.737.411.086.425-.571.801-.339-.206.493.07.721.236 1.133.107.264.089.452.189.566.225.257.659.257.989.509.348.263.544.752.943 1.303.411.563 1.101 1.147 1.65 1.188.518.04.939-.176 1.368-.113.975.144 1.581.729 2.262 1.36.381.352.725.596.848 1.018.086.294.044.689.142 1.02.208.705 1.064 1.045.755 2.265.141.357.459.486.801.736.274.202.505.622.801.68.191.037.4-.069.565-.057.536.046.904.295 1.368.511.288.133.657.186.849.342.239.193.27.845.565 1.017.193.112.622-.043.943 0 .506.071 1.193.443 1.65.454.277.007.507-.137.753-.114 1.155.107 1.809 1.766 2.923 2.265.345.156.893.047 1.131.17.418.217.77 1.753.801 2.434.095 2.058-1.22 2.719-1.979 4.079-.159.285-.247.735-.471 1.133-.452.799-.956.966-.895 2.435.017.403.188.797.188 1.246 0 .548-.04 1.264-.142 1.756-.077.375-.336.679-.377 1.02-.042.345.085.612.048.906-.041.327-.312.787-.519 1.245-.436.966-.531 2.103-1.414 2.491-.519.229-1.222.101-1.79.34-.23.098-.52.352-.802.509-.82.459-1.989 1.078-2.215 2.095-.201.907.281 1.629.142 2.663-.146.308-.344.615-.565.962-.204.322-.305.7-.519 1.02-.283.426-.724.615-.895 1.19-.058.194-.022.426-.094.735-.027.114-.201.291-.283.509-.076.201-.072.459-.141.625-.215.522-.856 1.711-1.32 1.869-.979.329-2.01-.499-2.686-.342.097.568.441.509.661.907.129.234.199.545.376.793.212.294.399.403.425.736.054.698-.399 1.4-.707 1.643-.282.222-.868.352-1.367.452-.349.07-1.249.074-1.414.342-.243.393.129 1.365-.046 1.755-.352.828-1.3-.023-1.791.226-.042.427.089.875.377 1.075.296.209.746-.063.943.341-.096.564-.601.636-.707 1.19.013.541.151.682.094 1.018-.123.728-1.064.698-1.037 1.473.041 1.16 1.852.685 1.885 1.813.019.684-.519.691-.707 1.358-.101.357.058.44 0 .736-.079.402-.471.518-.471.963-.001.542.66 1.138.989 1.586.323.439.737 1.065 1.178 1.36.662.439 1.647.34 1.933 1.132-.091.477-.473.604-.849.735h-.094c-.127-.093-.58-.093-.707 0h-.659c-.631-.349-1.396-.575-2.168-.905-.279-.119-.593-.402-.895-.565-.227-.125-.483-.173-.66-.285-.406-.256-.863-1.085-1.273-1.415-.249-.201-.639-.307-.801-.512-.155-.193-.239-.612-.377-.848-.152-.26-.432-.45-.613-.737-.391-.625-.891-1.466-.895-1.926-.004-.453.36-.761.236-1.187-.115-.402-.839-.315-.942-.795-.063-.289.208-.777.188-1.187-.011-.238-.382-.563-.235-.908.169-.396.488.033.754-.169-.2-.818.016-2.134-.66-2.38-.348.352.355 1.143-.236 1.36-.57-.305-.438-1.207-.566-1.869-.083-.438-.264-.831-.282-1.303-.009-.248.081-.535.047-.791-.1-.763-.807-1.389-.849-2.154-.019-.369.188-.681.236-1.075.033-.267-.031-.567 0-.85.042-.36.207-.691.236-1.02.056-.622-.001-1.689-.094-2.21-.116-.654-.549-1.21-.613-1.923-.023-.259.072-.689.048-1.02-.023-.307-.163-.612-.188-.964-.024-.323.067-.631.094-1.02.05-.711-.115-1.503-.094-2.209.006-.207.096-.362.094-.565-.006-.585-.168-1.174-.189-1.756-.037-1.076.099-1.838-.046-2.832-.11-.753-.245-1.905-.472-2.377-.252-.528-1.244-1.423-1.744-1.758-.33-.22-.725-.296-1.084-.509-.768-.451-2.256-1.408-2.592-2.321-.098-.265-.085-.614-.189-.907-.205-.581-.637-1.083-.943-1.643-.582-1.069-1.052-2.408-1.65-3.511-.302-.56-.564-1.196-.895-1.642-.194-.263-.815-.509-.895-.907-.106-.523-.428-1.243-.377-1.642.068-.542.944-.98.943-1.472-.001-.421-.468-.665-.566-1.02-.238-.867.139-1.375.424-2.097.094-.236.186-.617.283-.792.173-.312.524-.399.753-.737.128-.189.209-.582.377-.849.358-.572.937-.786 1.085-1.303.12-.421.19-2.524.046-3.228-.082-.407-.397-.746-.518-1.133-.213-.684-.263-1.43-.848-1.416-.362.008-.617.489-.849.792-.056.403-.026.839-.377.962-.536.19-.742-.678-1.367-.906-.249-.091-.645-.086-.801-.17-.456-.246-.604-1.048-1.084-1.36-.403-.259-.747-.169-.99-.566-.101-.273-.022-.767-.046-1.133-.517-.363-.955-1.717-1.556-2.038-.398-.213-1.009-.193-1.508-.396-.234-.096-.415-.219-.661-.283-.302-.082-.613-.086-.847-.228-.933-.556-1.437-2.36-2.592-2.321-.493.016-.968.569-1.414.566-.444-.003-1.188-.426-1.745-.736-.579-.323-1.219-.499-1.696-.792-.386-.237-.653-.671-.99-.851-.258-.137-.635-.161-.847-.281-.301-.172-.615-.538-.99-.851-.356-.296-.741-.748-.755-1.131-.016-.443.339-.821.377-1.247.121-1.349-.706-2.319-1.226-3.115-.385-.592-.838-1.094-1.225-1.642a4.986 4.986 0 0 0 0-.792c-.293-.342-.539-.848-.849-1.36-.28-.462-.825-.954-.895-1.472-.087-.636.201-1.195 0-1.813-.336-1.025-1.52-.562-1.368.794.043.374.481.876.613 1.246.136.377.109.848.236 1.303.122.436.487.812.613 1.303.2.775.194 1.61.377 2.095.162.43.758.838.424 1.359-.446.111-.618-.425-.895-.737-.155-.173-.715-.502-.801-.905-.072-.334.176-.782.094-1.19-.162-.799-1.505-.819-1.509-1.642-.002-.516.562-.578.567-1.077.004-.546-.62-1.008-.755-1.471-.123-.425-.143-1.101-.188-1.699-.044-.561.013-1.21-.095-1.643-.096-.389-.583-.924-.895-1.133-.413-.276-.74-.162-.943-.566-.176-.353-.292-1.091-.33-1.472-.068-.681-.015-1.426-.048-2.152-.031-.728-.093-1.426 0-2.208.233-.548.658-.818.896-1.36.166-.378.189-.844.376-1.246.345-.74 1.097-1.423 1.603-2.152.545-.786 1.048-1.538 1.367-2.436.114-.319.421-1.025.377-1.416-.062-.545-.916-.994-.849-1.642.043-.402.519-.396.661-.792.073-.204.138-.775.142-1.02.007-.546-.233-1.115-.142-1.699.077-.498.694-.7.378-1.246-.314-.541-.879.291-1.226-.057-.319-.322.064-.711.094-1.303.012-.236-.114-.505-.094-.679.029-.254.439-.679.33-.85-.255-.387-.541-1.371-1.084-1.699-.691-.417-1.44-.136-2.403-.34-.591-.125-.87-.788-1.414-.735-.336.031-.529.493-.99.735-.457.24-1.055.159-1.508.283-.45.125-.666.498-1.132.453-.388-.035-.39-.456-.847-.509-.178-.021-.517.133-.801.17-.729.091-2.044.136-2.782-.057-.675-.176-1.091-.433-1.838-.85-.561-.312-1.601-.697-1.556-1.19.029-.318.986-.654 1.367-.792.614-.225.993-.588 1.462-.624.181-.013.419.135.659.115.242-.021.539-.289.849-.34.658-.11 1.586.04 1.508-.737-.5-.475-2.539.352-2.592-.679-.032-.623.774-.812 1.368-.962.54-.137 1.36-.369 1.838-.34.538.033 1.246.756 1.556-.056.15-.577-.183-1.062-.283-1.53.4-.664 1.137-.581 1.697-.679.64-.113 1.163-.25 1.791-.566a5.98 5.98 0 0 1 1.79-.566c.64-.1 1.262-.39 1.839-.453.475-.052.91-.006 1.366-.113.404-.094.83-.363 1.274-.339.296.016.55.276.848.339.28.059.6-.017.896.057.227.057.432.242.66.283.357.064.74-.06 1.084 0 .317.054.586.292.895.339.726.113 1.557-.046 2.263.114.268.06.509.219.801.283.276.06.58-.009.849.056.375.09.688.516 1.084.566.73.092 1.548-.381 2.309-.454.551-.051 1.119.027 1.697-.113.526-.128 1.035-.372 1.508-.396.257-.013.473.094.707.057.244-.04.537-.392.801-.34.351.067.289.601.661.737.411-.256.82.017 1.272 0 .441-.019.834-.262 1.32-.17.858.162 2.057 1.172 2.733.623.17-.138.13-.377.283-.736.209-.488.619-1.061.519-1.756-.945.018-1.847.573-2.923.623-1.087-.818.29-1.326 1.084-1.699.654-.309 1.172-.994 1.981-1.133.659-.114 1.384.175 2.167.283.457.063.914-.038 1.178.056.463.168.701.718 1.085.85.165.057.437.051.66.114.423.117.803.386 1.226 0 .332.071.372.496.707.566.313-.203.555-.72 1.037-.849.21-.057.43.042.66 0 .384-.074.896-.699 1.132-.115-.096.409-.611.471-.896.794-.254.287-.644.947-.612 1.246.056.54.73.331.753 1.02-.1.396-.483.219-.801.396-.29.162-.399.496-.707.566-.857.194-1.568-.259-2.309-.226-.035.386.367.611.565.735.672.425 1.22.366 2.167.34.486-.013 1.044.174 1.462-.17.264-.217.25-.696.471-.962.266-.319.881-.643 1.272-.566.214.043.515.349.519.566.007.515-.606.35-.613.907.399.287 1.452-.315 1.508-.794.04-.349-.343-.551-.33-.906.023-.593.694-.583.613-1.19-.324-.306-.662.066-.991 0-.463-.093-.88-.759-1.084-1.19.205-.304.633-.101.943-.056.346-.576.992-.801 1.885-.907.318-.037.741-.189.896.17.076.537-.66.858-.519 1.473.635.19.843-.838 1.368-1.247.231-.18.562-.3.895-.452.29-.133.611-.462.848-.453.261.008.307.266.566.396.232.117.536-.08.613.283-.546 1.137-2.583.483-3.111 1.642.118.777-.319 1.517.048 2.039.262.372.852.119.989.509.184.522-.571.522-.376 1.133.498.359 1.093-.342 1.554-.622.495-.302 1.121-.658 1.178-1.36-.249-.575-1.177-.13-1.319-.735-.077-.329.285-1.066.376-1.19.492-.662 2.208-1.605 3.441-1.473.235.026.472.197.707.227.811.1 1.768-.421 2.404 0 .512-.359 1.126.049 1.838-.058.549.389.398 1.217 1.226 1.586.225.1.506.029.801.113.219.063.456.372.707.511.357.195.631.15.707.452.075.296-.26.488-.236.794.204.201.033.505.142.792.203.525.716.486 1.225.736.357.176 1.119.715 1.085 1.133-.023.28-.716.772-.943.907-.161.094-.956.556-1.225.509-.445-.079-.619-1.161-1.226-1.133-.264.013-.513.205-.519.624-.01.744.693.772.707 1.416.019.769-.35.822-.895 1.301-.39-.19-.719-.458-1.226-.509-.301.43.495.585.236 1.133-.757.193-1.334-.257-2.026-.509-.217-.078-.528-.047-.707-.17-.268-.186-.346-.737-.566-1.02-.255-.329-.763-.795-1.178-.792-.582.002-1.425.871-1.886.056.319-1.297 1.831-.334 2.828-.792.372-.17.499-.642.803-.85.609-.418 1.6-.476 1.508-1.303-.046-.416-.531-.411-.801-.624-.369-.289-.651-1.308-1.178-1.358-.271-.026-.466.25-.755.283-.609.069-1.288-.295-1.838 0-.256.176-.083.458-.283.793-.164.275-.552.352-.707.623-.181.319-.144.715-.377.962-.387.412-1.206.478-1.696.679-.219.09-.495.399-.707.398-.389-.003-.556-.629-.99-.398-.038.606.533.853.895 1.133.392.303.803.605.943 1.133-.383.978-.995-.051-1.602-.056-.669-.006-1.645 1.53-2.215.283.142-.661.748-.763.895-1.416-.666.136-1.245.809-2.027 1.02-.329.087-.649.066-.943.169-.564.199-.958.699-1.554.964-.233.103-.512.071-.755.169-.569.229-1.251.638-1.838 1.02-.6.39-1.277.801-1.65 1.19-.201.209-.725.952-.707 1.188.024.337.552.449.565.794-.012.209-.306.659-.094.962.193.276.579.053.989.113.72.107 1.191.822 1.744 1.19.418.277 1.038.608 1.509.679.647.098 1.372-.227 1.46.397.086.599-.609.814-.66 1.19.349.553-.237.818-.236 1.303.001.393.403.982.753 1.018.475.048 1.17-.562 1.368-1.133.235-.679.134-1.6.565-2.095 2.196.073 4.054-1.198 3.912-3.907-.014-.267-.141-.612-.094-.907.069-.438.695-.805.612-1.359.615-.227.589-1.413 1.226-1.586.533-.144 1.137.454 1.838.396.229-.018.525-.265.755-.226.461.077.738.76 1.084 1.076.306.282.629.192.707.566-.091.635-.463.651-.425 1.246.035.519.483.913.707.964.344.077.835-.145 1.178-.34.631-.359 1.171-1.44 1.697-1.303.415.109.74 1.695.801 2.266.066.612-.069 1.08-.046 1.643.061.955 1.062.858 1.555 1.359.148.152.207.539.331.737.239.383.528.383.565.792.088.978-.738 1.061-.661 2.152-.17.423-.6.398-.565.962.055.894 1.124.209 1.414.907.157.375-.026.654-.142 1.188.365.524.363 1.359-.282 1.36-.403.002-.512-.504-.908-.621zm-50.951-1.472c.223-.275-.094-.855-.425-.623-.033.207.06.707.425.623zm32.9 5.153c-.197-.23-.837-.164-1.274-.113-.308.038-.675.116-.707.396.49.27 1.827.465 1.981-.283zm-2.452-.963c.37-.35.206-1.066-.188-1.19-.155-.049-.361.137-.613.114-.267-.024-.533-.317-.754-.34-.376-.039-.758.185-.896.396-.014.339.207.393.189.736-.458.393-.215 1.709.236 1.756.479.05.726-1.454 1.366-1.586.232-.048.351.16.66.114zm-.66 2.266c-.67-.286-1.289.194-1.838.283-.327.053-.924-.08-.849.509.061.48.679.306 1.037.17.746-.283 1.216-.527 1.65-.962zm-2.073-4.305c.939-.481-.186-1.961-.613-2.096-.764-.24-1.851.674-2.734.963-.498.163-.971.177-1.084.68.446.887 1.328-.194 1.979-.057.33.07.523.612.849.679.222.047 1.513-.124 1.603-.169zm-.661.907c-.195-.276-1.252.033-1.556.283-.208.173-.35.595-.565.907-.222.322-.471.57-.66.849-.17.252-1.125 1.906-.377 2.095.319.08.975-.715 1.037-1.02.213-1.038.602-1.779 1.272-2.266.388-.281.786-.245.849-.848zm-5.892-6.343c.526-.023.882-1.891 0-1.643-.59.165-.733 1.674 0 1.643zm-2.545 42.475c.024-.084.069-.143.094-.227-.142-.564-.595.205-.094.227zm-19.938-47.402c.011-.107-.054-.126-.046-.227-.144-.001-.311-.033-.284.171.069.162.251.19.33.056zm49.539-8.893c.232.034.363-.054.33-.339-.21-.177-.515.056-.33.339zm-5.42-5.549c-.061-.079-.223-.079-.284 0v.226c.201.052.237-.093.284-.226zm-17.911 4.361c.157-.122.398-.286.282-.566-.52-.294-1.4-.07-2.167-.17-.436-.739-1.164-.854-1.226.34.876.855 2.205-.4 3.111.396zm-8.438 5.833c.268-.112.639-.054.707-.398-.22-.212-.446-.498-.707-.509-.342-.014-.506.349-.849.566-.399.253-.951.314-.989.736.73.173 1.387-.209 1.838-.395zm-.236-4.078c.301-.062.61.101.802-.226-.225-1.247-1.66-.485-2.498-.396-.176.355-.412.638-.471 1.133.65.196 1.434-.361 2.167-.511zm14.141 57.88c.373-.073.264-1.101-.188-.851-.342.19-.165.918.188.851z" style="fill:#fff"/><path d="M152.401 174.486c-.007.102.057.12.046.227-.08.135-.262.106-.33-.057-.027-.202.14-.171.284-.17zM150.987 177.829c-.1.37-.373.533-.661.679a1.35 1.35 0 0 1-.236-.283c.021-.538.658-.934.897-.396z" style="fill:#fff"/></g><path d="M158.979 257.641c-5.455-1.431-9.885-3.338-13.292-5.725l6.646-14.929c3.204 2.114 6.918 3.818 11.145 5.112 4.225 1.295 8.384 1.943 12.474 1.943 7.771 0 11.656-1.943 11.656-5.828 0-2.046-1.108-3.562-3.323-4.55-2.216-.988-5.777-2.028-10.685-3.118-5.385-1.158-9.885-2.403-13.496-3.732-3.614-1.33-6.715-3.459-9.305-6.391-2.591-2.929-3.885-6.883-3.885-11.861 0-4.361 1.191-8.297 3.578-11.808 2.386-3.51 5.946-6.288 10.685-8.334 4.736-2.044 10.548-3.067 17.434-3.067 4.703 0 9.337.528 13.905 1.584 4.566 1.058 8.588 2.607 12.065 4.653l-6.237 15.03c-6.817-3.681-13.429-5.521-19.836-5.521-4.023 0-6.953.598-8.793 1.789-1.84 1.193-2.761 2.745-2.761 4.652 0 1.91 1.09 3.341 3.272 4.295 2.182.954 5.691 1.942 10.532 2.965 5.452 1.159 9.969 2.402 13.547 3.731 3.578 1.33 6.68 3.444 9.305 6.34 2.623 2.898 3.936 6.835 3.936 11.81 0 4.294-1.194 8.18-3.578 11.656-2.387 3.477-5.966 6.255-10.736 8.334-4.772 2.078-10.567 3.118-17.382 3.118-5.796-.001-11.419-.716-16.871-2.148zM274.311 242.714v15.643h-57.462v-71.572h56.133v15.643h-36.093v12.065h31.798v15.133h-31.798v13.088h37.422zM349.529 202.605c-3.189-5.656-7.579-10.087-13.168-13.291-5.59-3.204-11.889-4.806-18.901-4.806-7.01 0-13.311 1.602-18.9 4.806-5.59 3.204-9.98 7.635-13.169 13.291-3.19 5.66-4.783 12.031-4.783 19.12 0 7.091 1.594 13.463 4.783 19.12 3.19 5.658 7.579 10.09 13.169 13.292 5.589 3.205 11.889 4.806 18.9 4.806 7.011 0 13.311-1.601 18.901-4.806 5.589-3.202 9.979-7.634 13.168-13.292 3.188-5.657 4.784-12.029 4.784-19.12.001-7.088-1.595-13.46-4.784-19.12z" style="fill:#407bff"/><path d="M294.22 192.254c-3.569 2.811-6.518 6.255-8.828 10.352a35.91 35.91 0 0 0-2.508 5.535l-1.21 4.091c-.701 3.009-1.065 6.17-1.065 9.494 0 7.091 1.594 13.463 4.783 19.12 3.19 5.658 7.579 10.09 13.169 13.292l18.9-32.412-23.241-29.472z" style="opacity:.3"/><path d="m294.22 192.254 23.241 29.472 1.483-37.217s-13.174-1.478-24.724 7.745z" style="opacity:.2;fill:#fff"/><path d="M174.316 300.059v20.335M73.622 135.965v22.695h25.601M399.678 138.955h23.755v16.635" style="fill:none;stroke:#407bff;stroke-miterlimit:10"/><path d="M134.956 140.788H31.063a4.095 4.095 0 0 1-4.095-4.095V78.364a4.095 4.095 0 0 1 4.095-4.095h103.892a4.094 4.094 0 0 1 4.095 4.095v58.329a4.094 4.094 0 0 1-4.094 4.095z" style="fill:#407bff"/><path d="M134.956 140.788H31.063a4.095 4.095 0 0 1-4.095-4.095V78.364a4.095 4.095 0 0 1 4.095-4.095h103.892a4.094 4.094 0 0 1 4.095 4.095v58.329a4.094 4.094 0 0 1-4.094 4.095z" style="opacity:.5;fill:#fff"/><path d="M43.819 111.217c.486-.438 13.605-13.391 13.605-13.391l12.938 6.368 12.646-14.88 12.938 18.644 12.619-8.234" style="fill:none;stroke:#263238;stroke-width:.5;stroke-miterlimit:10"/><path d="M41.806 117.048h6.066v13.44h-6.066zM54.295 108.167h6.066v22.322h-6.066zM67.022 110.411h6.066v20.077h-6.066zM79.977 97.826h6.066v32.662h-6.066zM93.07 115.145h6.066v15.343H93.07zM48.098 109.695a3.259 3.259 0 1 1-6.518 0 3.259 3.259 0 0 1 6.518 0zM60.587 97.826a3.259 3.259 0 1 1-6.518 0 3.259 3.259 0 0 1 6.518 0zM73.622 103.177a3.259 3.259 0 1 1-6.518 0 3.259 3.259 0 0 1 6.518 0zM86.268 89.314a3.259 3.259 0 1 1-6.518 0 3.259 3.259 0 0 1 6.518 0zM99.207 107.958a3.259 3.259 0 1 1-6.518 0 3.259 3.259 0 0 1 6.518 0zM106.034 107.453h6.066v23.035h-6.066z" style="fill:#407bff"/><path d="M54.295 108.167h6.066v22.322h-6.066zM79.977 97.826h6.066v32.662h-6.066zM106.034 107.453h6.066v23.035h-6.066z" style="opacity:.3"/><path d="M119.454 115.145h6.066v15.343h-6.066z" style="fill:#407bff"/><path d="m108.566 99.724 13.92 7.729" style="fill:none;stroke:#263238;stroke-width:.5;stroke-miterlimit:10"/><path d="M112.552 99.724a3.259 3.259 0 1 1-6.518 0 3.259 3.259 0 0 1 6.518 0z" style="fill:#407bff"/><circle cx="122.486" cy="107.453" r="3.259" style="fill:#407bff"/><path d="M461.48 257.515h-80.299a4.936 4.936 0 0 1-4.936-4.936v-91.486a4.936 4.936 0 0 1 4.936-4.936h80.299a4.936 4.936 0 0 1 4.936 4.936v91.486a4.936 4.936 0 0 1-4.936 4.936z" style="fill:#407bff"/><path d="M461.48 257.515h-80.299a4.936 4.936 0 0 1-4.936-4.936v-91.486a4.936 4.936 0 0 1 4.936-4.936h80.299a4.936 4.936 0 0 1 4.936 4.936v91.486a4.936 4.936 0 0 1-4.936 4.936z" style="opacity:.5;fill:#fff"/><path d="M466.416 171.664h-90.171v-10.882a4.628 4.628 0 0 1 4.627-4.627h80.999a4.546 4.546 0 0 1 4.546 4.546v10.963z" style="fill:#407bff"/><path d="M463.03 165.041a3.385 3.385 0 1 1-6.77.002 3.385 3.385 0 0 1 6.77-.002zM453.409 165.041a3.385 3.385 0 1 1-6.77.002 3.385 3.385 0 0 1 6.77-.002zM443.787 165.041a3.385 3.385 0 1 1-6.77.002 3.385 3.385 0 0 1 6.77-.002z" style="opacity:.5;fill:#fff"/><path d="M400.046 184.629h54.249v3.157h-54.249z" style="opacity:.6;fill:#fff"/><path d="M400.891 191.459h38.817v3.157h-38.817z" style="opacity:.6;fill:#263238"/><path d="M385.608 184.629h10.672v3.157h-10.672zM400.046 199.046h54.249v3.157h-54.249zM385.608 199.046h10.672v3.157h-10.672zM400.046 229.102h54.249v3.157h-54.249z" style="fill:#407bff"/><path d="M400.046 238.458h10.672v3.157h-10.672z" style="opacity:.6;fill:#fff"/><path d="M400.046 206.647h54.249v3.157h-54.249z" style="fill:#407bff"/><path d="M385.608 206.647h10.672v3.157h-10.672z" style="opacity:.6;fill:#263238"/><path d="M400.046 213.275h38.817v3.157h-38.817z" style="opacity:.6;fill:#fff"/><path d="M400.046 220.138h19.408v3.157h-19.408z" style="opacity:.6;fill:#263238"/><path d="M227.552 384.531h-68.179a4.936 4.936 0 0 1-4.936-4.936v-55.76a4.936 4.936 0 0 1 4.936-4.936h68.179a4.936 4.936 0 0 1 4.936 4.936v55.76a4.936 4.936 0 0 1-4.936 4.936z" style="fill:#407bff"/><path d="M227.552 384.531h-68.179a4.936 4.936 0 0 1-4.936-4.936v-55.76a4.936 4.936 0 0 1 4.936-4.936h68.179a4.936 4.936 0 0 1 4.936 4.936v55.76a4.936 4.936 0 0 1-4.936 4.936z" style="opacity:.5;fill:#fff"/><path d="M232.488 330.344h-78.051v-6.818a4.628 4.628 0 0 1 4.627-4.627h68.879a4.546 4.546 0 0 1 4.546 4.546v6.899z" style="fill:#407bff"/><path d="M228.08 325.456a2.497 2.497 0 1 1-4.995.001 2.497 2.497 0 0 1 4.995-.001zM220.98 325.456a2.497 2.497 0 1 1-4.995.001 2.497 2.497 0 0 1 4.995-.001zM213.88 325.456a2.497 2.497 0 1 1-4.995.001 2.497 2.497 0 0 1 4.995-.001z" style="opacity:.5;fill:#fff"/><path d="m192.235 357.255 6.769-18.597a19.788 19.788 0 0 1 11.374 10.692l-18.143 7.905z" style="fill:#f5f5f5"/><path d="m192.235 357.255 5.768 18.931c-1.87.57-3.813.859-5.768.859-10.857 0-19.79-8.934-19.79-19.79 0-10.857 8.934-19.79 19.79-19.79 2.277 0 4.537.393 6.681 1.162l-6.681 18.628z" style="fill:#407bff"/><path d="m192.235 357.255 18.181-7.818a19.793 19.793 0 0 1 1.61 7.818c0 8.655-5.678 16.353-13.947 18.908l-5.844-18.908z" style="fill:#407bff"/><path d="m192.235 357.255 18.181-7.818a19.793 19.793 0 0 1 1.61 7.818c0 8.655-5.678 16.353-13.947 18.908l-5.844-18.908z" style="opacity:.3"/><path d="m382.947 377.719-2.113 78.936h2.984l3.481-78.936z" style="fill:#263238"/><path d="m382.947 377.719-2.113 78.936h2.984l3.481-78.936z" style="opacity:.2;fill:#fff;enable-background:new"/><path d="M399.244 379.515h26.711l8.454 77.14h3.461l-7.791-82.624-30.835.822z" style="fill:#263238"/><path d="M399.244 379.515h26.711l8.454 77.14h3.461l-7.791-82.624-30.835.822z" style="opacity:.2;fill:#fff;enable-background:new"/><path d="M397.296 374.853h-39.799l-8.319 81.802h1.88l.369-2.967-.302 2.967h1.881l9.564-76.951h31.123l.248 76.951h4.045l1.258-81.802z" style="fill:#263238"/><path d="M397.296 374.853h-39.799l-8.319 81.802h1.88l.369-2.967-.302 2.967h1.881l9.564-76.951h31.123l.248 76.951h4.045l1.258-81.802z" style="opacity:.2;fill:#fff;enable-background:new"/><path d="m383.569 366.443 8.381-58.486c.452-4.271 3.629-7.484 7.4-7.484h39.01c.979 0 1.773.906 1.773 2.023v61.703c0 8.581-6.098 15.538-13.62 15.538h-78.025c-.471 0-.853-.436-.853-.973 0-3.845 2.733-6.962 6.103-6.962h24.535c2.698-.001 4.972-2.302 5.296-5.359z" style="fill:#263238"/><path d="M440.133 302.497v61.694c0 8.591-6.098 15.548-13.618 15.548h-78.023c-.474 0-.865-.447-.865-.975 0-1.927.69-3.667 1.793-4.924 1.102-1.269 2.637-2.045 4.316-2.045h24.538a4.54 4.54 0 0 0 1.587-.282c1.957-.694 3.451-2.644 3.708-5.077l8.385-58.474c.443-4.278 3.626-7.486 7.396-7.486h39.012c.659 0 1.236.411 1.535 1.022.143.294.236.623.236.999z" style="opacity:.5;fill:#fff"/><path d="M432.922 300.476v55.5c0 8.579-6.098 15.536-13.618 15.536H379.86c1.957-.694 3.451-2.644 3.708-5.077l8.385-58.474c.443-4.278 3.626-7.486 7.396-7.486h33.573z" style="opacity:.3;fill:#fff"/><path d="m385.832 427.912 3.593 20.714-8.52 3.435-7.071-21.732z" style="fill:#407bff"/><path d="M386.781 446.928c-.574 1.557-1.954 2.308-3.438 2.017l-.987-1.395c-.851-1.2-2.039-1.637-3.345-.751-.64.433-1.192 1.666-1.128 3.195.114 2.74-.976 4.506-.976 4.506s-4.657 6.259-6.544 8.079c-1.126 1.086-2.596 2.607-2.828 4.52a7.935 7.935 0 0 0 .009 1.834c.063.557.604 1.614.616 1.637l15.782-8.021s1.133-1.757 1.83-2.079c1.24-.575 2.323.209 2.323.209l5.76-2.874s-.339-.942-.836-2.311l.001-.001-.748-2.064c-1.154-3.189-2.493-7.267-2.827-8.167-.583-1.578-2.664 1.666-2.664 1.666z" style="fill:#263238"/><path d="M374.324 457.727a.248.248 0 0 1 .253-.152c.496.045.979.217 1.402.524.223.162-.015.544-.24.381a2.478 2.478 0 0 0-1.233-.467c-.145-.013-.235-.148-.183-.282l.001-.004zM375.209 456.453a.248.248 0 0 1 .253-.152c.496.045.979.217 1.402.524.223.162-.015.544-.24.381a2.478 2.478 0 0 0-1.233-.467c-.145-.013-.235-.148-.183-.282l.001-.004zM376.154 455.204a.248.248 0 0 1 .253-.152c.496.045.979.217 1.402.524.223.162-.015.544-.24.381a2.487 2.487 0 0 0-1.233-.467c-.145-.014-.235-.148-.183-.282l.001-.004z" style="fill:#407bff"/><path d="M367.515 468.091c.004.283.018.576.053.888.063.558.604 1.614.616 1.637l15.782-8.021s1.133-1.757 1.83-2.079c1.24-.574 2.323.209 2.323.209l5.761-2.874-.836-2.311.001-.001-.125-.344-25.405 12.896z" style="opacity:.2;fill:#fff;enable-background:new"/><path d="M376.393 455.313c-.23-.572-.462-1.147-.789-1.669-.327-.523-.757-.995-1.302-1.282-.254-.134-.572-.222-.819-.077-.26.153-.33.502-.295.801.067.576.424 1.091.887 1.44.462.348 1.752.664 2.318.787M376.46 455.279c-.041-.615-.082-1.234-.015-1.847s.249-1.225.616-1.721c.17-.231.418-.448.704-.425.3.025.515.309.614.593.19.548.092 1.167-.173 1.682-.266.516-1.289 1.361-1.746 1.718" style="fill:none;stroke:#407bff;stroke-width:.25;stroke-miterlimit:10"/><path d="m358.475 423.484 3.594 20.715-8.52 3.434-7.071-21.732z" style="fill:#407bff"/><path d="M359.425 442.5c-.574 1.557-1.954 2.308-3.438 2.017l-.987-1.395c-.851-1.2-2.039-1.637-3.345-.751-.641.433-1.192 1.667-1.128 3.195.114 2.74-.976 4.506-.976 4.506s-4.657 6.259-6.544 8.079c-1.126 1.086-2.596 2.607-2.828 4.52a7.935 7.935 0 0 0 .009 1.834c.063.557.604 1.614.616 1.637l15.782-8.022s1.134-1.757 1.83-2.079c1.24-.574 2.323.209 2.323.209l5.761-2.874s-.339-.942-.836-2.311l.001-.001a867.96 867.96 0 0 1-.747-2.064c-1.154-3.189-2.493-7.267-2.827-8.167-.585-1.576-2.666 1.667-2.666 1.667z" style="fill:#263238"/><path d="M346.967 453.3a.248.248 0 0 1 .253-.152c.496.045.979.217 1.402.524.223.162-.015.544-.24.381a2.478 2.478 0 0 0-1.233-.467c-.145-.013-.235-.148-.183-.282l.001-.004zM347.852 452.025a.248.248 0 0 1 .253-.152c.496.045.979.217 1.402.524.223.162-.015.544-.24.381a2.478 2.478 0 0 0-1.234-.467c-.145-.013-.235-.148-.183-.282l.002-.004zM348.798 450.776a.248.248 0 0 1 .253-.152c.496.045.979.217 1.402.524.223.162-.015.544-.24.381a2.487 2.487 0 0 0-1.233-.467c-.145-.014-.235-.148-.183-.282-.001-.001 0-.002.001-.004z" style="fill:#407bff"/><path d="M340.158 463.663c.004.283.018.576.053.888.063.557.604 1.614.616 1.637l15.782-8.021s1.133-1.757 1.83-2.079c1.24-.574 2.323.209 2.323.209l5.761-2.874-.836-2.311.001-.001-.125-.344-25.405 12.896z" style="opacity:.2;fill:#fff;enable-background:new"/><path d="M349.037 450.885c-.23-.572-.462-1.147-.789-1.669-.327-.523-.757-.995-1.302-1.282-.254-.134-.572-.222-.819-.077-.26.153-.33.502-.295.801.067.576.424 1.091.887 1.44.462.348 1.751.665 2.318.787M349.103 450.851c-.041-.615-.082-1.234-.015-1.847s.249-1.225.616-1.721c.17-.231.418-.448.704-.425.3.025.515.309.614.593.19.548.092 1.167-.173 1.682-.265.516-1.289 1.362-1.746 1.718" style="fill:none;stroke:#407bff;stroke-width:.25;stroke-miterlimit:10"/><path d="M427.114 334.641s-20.526 20.067-31.191 30.04c-10.665 9.973-44.242 8.486-44.242 8.486l12.668 64.656-17.399 2.103s-16.409-47.978-22.783-73.629c-.924-3.72.8-9.332 2.483-11.701 7.033-9.897 59.24-11.575 59.24-11.575l1.147-6.97 40.077-1.41z" style="fill:#263238"/><path d="M354.233 386.189s-9.193-16.19-11.153-22.671c-1.96-6.481-1.357-8.897 3.467-10.854 4.823-1.957 38.984-6.052 38.984-6.052l.545-2.824 7.045 7.693s-40.394 2.698-39.942 9.329c.452 6.633 1.054 25.379 1.054 25.379z" style="opacity:.2;enable-background:new"/><path d="M427.114 334.641s4.22 24.935-4.386 31.319c-8.223 6.1-42.975 9.733-42.975 9.733l10.665 65.009-17.035 2.994s-16.574-49.564-22.948-75.215c-.924-3.72-.129-8.514 1.555-10.882 7.033-9.897 58.777-12.912 58.777-12.912l16.347-10.046z" style="fill:#263238"/><path d="M379.753 375.694s-2.717-3.954-4.773-5.579c0 0 5.894 1.959 7.011 5.446l-2.238.133z" style="opacity:.2;enable-background:new"/><path d="m345.303 335.211 3.737 5.552s23.482-7.939 26.25-10.599c2.769-2.659 6.21-26.583 6.21-26.583v-16.954l.279-12.279s-9.731 2.363-10.51 10.187c-.231 2.317-4.396 36.744-4.396 36.744l-21.57 13.932z" style="fill:#e9b376"/><path d="M352.989 349.116h34.215v.011c-.009 1.306-1.467 2.36-3.258 2.354H328.213c-1.777-.012-3.206-1.07-3.197-2.365h27.973z" style="fill:#263238"/><path d="M327.699 351.348h31.257c.54-.004.973-.357.969-.79a.663.663 0 0 0-.049-.239l-13.905-31.878c-.351-.911-1.398-1.533-2.586-1.537h-31.276c-.529 0-.957.344-.957.769a.63.63 0 0 0 .057.261l13.905 31.878c.356.906 1.4 1.527 2.585 1.536z" style="fill:#263238"/><path d="M312.109 316.903h31.276c1.188.004 2.234.626 2.586 1.537l13.38 30.676H387.204v.011c-.009 1.306-1.467 2.36-3.258 2.354H328.213a4.115 4.115 0 0 1-1.542-.311c-.727-.245-1.309-.73-1.556-1.36l-13.905-31.878a.63.63 0 0 1-.057-.261c-.001-.424.427-.768.956-.768z" style="fill:#407bff"/><path d="M330.893 333.874c.676 1.53 2.045 2.58 3.065 2.366 1.021-.214 1.293-1.608.637-3.142-.655-1.534-2.04-2.56-3.061-2.347-1.021.215-1.325 1.553-.641 3.123z" style="fill:#fff"/><g style="opacity:.3"><path d="M359.925 349.116h-.574" style="fill:none;stroke:#000;stroke-width:0;stroke-linecap:round;stroke-linejoin:round"/><path d="m345.971 318.44 13.38 30.676h-1.449l-14.517-32.213c1.188.004 2.234.626 2.586 1.537z"/></g><path d="M312.109 316.903h31.276c1.188.004 2.234.626 2.586 1.537l13.38 30.676H387.204v.011c-.009 1.306-1.467 2.36-3.258 2.354H328.213a4.115 4.115 0 0 1-1.542-.311c-.727-.245-1.309-.73-1.556-1.36l-13.905-31.878a.63.63 0 0 1-.057-.261c-.001-.424.427-.768.956-.768z" style="opacity:.5;fill:#fff"/><path d="M383.329 343.114s-5.435-6.538-3.689-7.806l.633-60.504 1.507-.456 12.296-2.814 12.7-2.738 6.667 1.385 11.738 12.943s1.654 31.573 1.745 33.007c.112 1.757.95 24.632.95 24.632-20.108 4.406-44.875 3.906-44.547 2.351z" style="fill:#407bff"/><path d="m389.898 272.589 5.125 7.668 9.413-11.606s-2.508-1.944-4.624-3.754c-1.68-1.438-6.219-7.177-6.219-7.177l-1.244 1.094-7.911 6.828s5.647 3.221 5.51 4.428c.22 1.045.463 2.111-.117 2.518" style="fill:#e9b376"/><path d="M389.941 270.071c.218 1.172.342 1.406-.043 2.518 5.921-1.244 3.09-13.737 3.09-13.737h-.647l-7.911 6.829s5.685 3.246 5.511 4.39z" style="opacity:.2;enable-background:new"/><path d="M369.157 246.635c-.81 3.375.231 10.12 4.692 7.594 4.46-2.526-3.3-13.395-4.692-7.594z" style="fill:#263238"/><path d="M393.19 249.46c1.097 8.454 1.886 13.199-1.523 18.263-5.128 7.617-15.935 5.829-19.545-2.149-3.25-7.182-4.498-19.8 3.071-24.625 7.457-4.755 16.9.057 17.997 8.511z" style="fill:#e9b376"/><path d="M392.695 238.096c-2.034-4.383-8.48-5.774-11.249-2.8-.414.444 3.468.994 3.025.923l1.562 6.737c.474-.205 1.559.186 2.361 1.629 0 0 .477 9.082 4.822 12.091 8.231-5.911 6.05-17.837-.521-18.58z" style="fill:#263238"/><path d="M397.832 255.788c-.253 2.28-1.542 4.221-3.041 5.364-2.254 1.719-4.453-.049-4.724-2.726-.244-2.41.635-6.209 3.33-6.876 2.654-.657 4.724 1.632 4.435 4.238z" style="fill:#e9b376"/><path d="M381.697 254.176c.165.855-.156 1.631-.717 1.733-.561.102-1.149-.508-1.314-1.363-.165-.855.156-1.631.717-1.733.561-.102 1.149.508 1.314 1.363zM373.344 255.959c.165.855-.156 1.631-.717 1.733-.561.102-1.149-.508-1.314-1.363-.165-.855.156-1.631.717-1.733.561-.102 1.149.508 1.314 1.363z" style="fill:#263238"/><path d="M375.981 254.959s-1.888 4.77-2.422 6.667c1.397.846 3.351-.045 3.351-.045l-.929-6.622z" style="fill:#d58745"/><path d="M382.672 249.237a.41.41 0 0 1-.411.036c-1.654-.772-2.943-.004-2.956.004a.414.414 0 0 1-.564-.132.404.404 0 0 1 .132-.558c.068-.042 1.683-1.005 3.735-.047a.406.406 0 0 1 .198.54.42.42 0 0 1-.134.157zM369.54 254.083a.41.41 0 0 1-.274-.667c1.429-1.735 3.29-1.519 3.375-1.52.223.027.385.23.36.454a.402.402 0 0 1-.445.357c-.077-.012-1.513-.16-2.66 1.233a.406.406 0 0 1-.356.143z" style="fill:#263238"/><path d="M392.373 238.38c1.024-1.235 2.343-2.182 3.477-2.528" style="fill:none;stroke:#263238;stroke-width:.5;stroke-linecap:round;stroke-linejoin:round;stroke-miterlimit:10"/><path d="M392.502 238.248a6.85 6.85 0 0 0-.263-4.866" style="fill:none;stroke:#263238;stroke-width:.5;stroke-linecap:round;stroke-linejoin:round;stroke-miterlimit:10"/><path d="M395.478 253.846c-.433-.434-1.155-.485-1.711-.229-.557.256-.961.768-1.224 1.321a4.253 4.253 0 0 0-.397 2.145" style="opacity:.2;fill:none;stroke:#000;stroke-width:.5;stroke-linecap:round;stroke-linejoin:round;stroke-miterlimit:10"/><path d="M379.005 263.578a6.219 6.219 0 0 0 4.262-3.78.211.211 0 0 0-.142-.274.2.2 0 0 0-.258.136 5.898 5.898 0 0 1-3.958 3.502.2.2 0 0 0-.112.258l.003.006a.2.2 0 0 0 .258.112l.006-.003-.059.043z" style="fill:#263238"/><path d="M387.71 272.991c.162-.242 2.42-1.853 2.42-1.853l4.506 3.558 6.478-8.976 5.662 3.075-11.963 15.05-7.103-10.854z" style="fill:#407bff"/><path d="M394.602 276.196c-.938 11.457-1.582 22.898-1.481 33.923.1 11.025-1.848 23.239 1.724 33.67" style="opacity:.1;fill:none;stroke:#000;stroke-width:.5;stroke-linecap:round;stroke-linejoin:round;stroke-miterlimit:10"/><path d="m412.961 312.034-5.694.546 1.95-24.214 1.404 20.693 15.959.663zM387.71 272.991c.121.184 2.749 5.39 3.857 7.586a.469.469 0 0 0 .859-.05l2.01-5.436-2.478 4.225-4.248-6.325zM394.844 274.783c.166.166 4.608 4.937 4.608 4.937l6.527-10.924-5.577 12.449a.79.79 0 0 1-1.389.101l-4.169-6.563z" style="opacity:.2;enable-background:new"/><path d="M412.999 299.098s-.035 17.465-.073 17.652c-.037.186-30.448 12.892-30.448 12.892 0 .454 4.52 5.734 4.52 5.734s33.174-4.357 36.919-10.011c3.197-4.826 3.698-26.494 3.698-26.494l-14.616.227z" style="fill:#e9b376"/><path d="M413.443 270.181c12.115 1.02 15.086 10.043 14.865 23.778-.213 13.227.11 16.16.11 16.16l-18.172-.397s-.297-23.6-.297-25.876c0-2.277 3.494-13.665 3.494-13.665zM382.107 315.396l-16.651-4.188s4.563-23.691 5.344-27.66c.885-4.499 6.33-7.907 10.98-9.201l3.916 15.225-3.589 25.824z" style="fill:#407bff"/><path d="M379.641 314.776c-.176-.044-2.687-24.175-2.687-24.175l-1.378 23.153 4.065 1.022z" style="opacity:.2;enable-background:new"/><path d="M366.515 346.433c.153-1.551 3.078-8.376 4.581-10.644 1.503-2.269 11.382-6.147 11.382-6.147l5.796 4.188s-.008 2.42-2.057 4.177c-1.181 1.013-5.169 2.035-5.169 2.035s.331 1.233.339 2.614c.009 1.53-.303 3.417-1.562 3.358-1.258-.059-1.722-4.111-1.782-4.696.059.593.408 4.741-1.276 4.886-1.625.14-1.893-4.188-1.893-4.188s-.085 2.017-.136 3.047c-.051 1.03-1.085 1.927-2.04.781-1.107-1.328-1.205-3.621-1.205-3.621s-.876 1.341-2.187 4.265c-.945 2.104-2.92 1.256-2.791-.055z" style="fill:#e9b376"/><path d="M378.096 341.93c-.038-.779-.076-1.563.031-2.335s.369-1.541.87-2.138M374.803 342.478c-.038-.779-.076-1.563.031-2.335s.369-1.54.87-2.138M371.523 342.191c-.038-.779-.076-1.563.031-2.335s.369-1.541.87-2.138" style="opacity:.1;fill:none;stroke:#000;stroke-width:.5;stroke-linecap:round;stroke-linejoin:round;stroke-miterlimit:10"/><path d="M390.865 235.09c-.771-.968-1.993-1.463-3.214-1.667a10.746 10.746 0 0 0-4.946.338c-1.829.57-3.509 1.631-5.401 1.925-.23.036-.496.05-.665-.11-.119-.112-.159-.281-.209-.436-.329-1.027-1.364-1.785-2.442-1.787-1.079-.003-2.117.75-2.451 1.775-1.037-1.621-3.507-1.809-5.148-.801-1.64 1.007-2.586 2.142-3.129 3.989-.188.64-.272 2.053-.032 3.109.479 2.109 1.633 3.406 3.482 4.528 2.489 1.51 5.432 2.551 8.296 2.028 3.82-.698 6.724-3.991 10.498-4.906 1.427-.346 3.119-.257 4.114.823l3.077-5.801c0-.982-.95-1.904-1.83-3.007z" style="fill:#263238"/><path d="M74.575 203.045c.968 4.839 3.174 14.517-.174 17.759 0 0 1.345 4.839 10.287 4.839 9.823 0 4.665-4.839 4.665-4.839-5.371-1.278-5.265-5.255-4.345-8.991l-10.433-8.768z" style="fill:#b97964"/><path d="M94.819 194.168a.439.439 0 0 1-.318-.746 4.386 4.386 0 0 1 3.782-1.173.427.427 0 0 1 .317.526.428.428 0 0 1-.506.331l-.009-.002a3.396 3.396 0 0 0-2.993.943.376.376 0 0 1-.273.121z" style="fill:#263238"/><path d="M96.157 199.77c.261 1.801.77 3.557 1.513 5.218a3.153 3.153 0 0 1-2.686-.132l1.173-5.086z" style="fill:#a24e3f"/><path d="M95.784 198.378c-.164.723.088 1.403.559 1.513.471.11.987-.384 1.096-1.096.11-.713-.077-1.392-.548-1.513-.471-.121-.932.372-1.107 1.096z" style="fill:#263238"/><path d="m96.738 197.26 1.842-.088s-1.195 1.151-1.842.088z" style="fill:#263238"/><path d="M72.136 190.156c-1.502 9.001-2.324 12.772 1.096 18.385 5.153 8.431 16.511 8.376 20.655 0 3.739-7.51 5.558-20.962-2.291-26.542-5.528-4.001-13.253-2.762-17.253 2.766a12.354 12.354 0 0 0-2.207 5.391z" style="fill:#b97964"/><path d="M83.197 177.742c7.509-3.085 15.35-1.016 16.106 6.789.757 7.806-8.035 15.239-8.035 15.239l-8.071-22.028z" style="fill:#263238"/><path d="M86.816 198.005a6.752 6.752 0 0 0 1.37 4.923c1.458 1.831 3.541.866 4.276-1.217.669-1.875.702-5.098-1.305-6.183a2.982 2.982 0 0 0-4.341 2.477z" style="fill:#b97964"/><path d="M90.354 197.771c-.366-.047-.73.173-.935.48s-.271.687-.279 1.056a3.79 3.79 0 0 0 1.375 2.967" style="opacity:.3;fill:none;stroke:#000;stroke-width:.5;stroke-linecap:round;stroke-linejoin:round;stroke-miterlimit:10"/><path d="M64.794 241.767c-.455-.014-3.605 20.048-3.394 20.637.777 2.17 23.94-2.676 23.94-2.676l1.46 6.193s-10.114 4.911-20.993 6.686c-11.226 1.832-15.425-3.14-15.477-10.754-.048-6.977 2.838-23.942 2.838-23.942l11.626 3.856z" style="fill:#b97964"/><path d="M139.183 230.89c-2.754 4.078-5.863 7.884-9.016 11.641-1.621 1.85-24.228 26.791-25.903 28.586l-2.493 2.723c-.877 1.085-2.28 1.694-3.796 1.649-1.671-.002-3.145-1.207-3.368-2.754a4.045 4.045 0 0 1 1.24-3.732l2.557-2.664c1.686-1.791 24.512-26.559 26.255-28.305 3.562-3.43 6.36-7.573 10.328-10.667.876-.713 3.09.179 3.924 1.042.69.712.802 1.734.272 2.481z" style="fill:#263238"/><path d="m103.61 276.961-35.516 4.992c-5.252 6.88-5.855 17.602-5.487 28.997.964 17.827 5.121 44.258 5.529 50.27.023.002.391-.002.414 0-.027 4.601-2.897 20.105-2.901 27.012-.013 23.53 2.764 60.44 2.764 60.44l2.135 6.348 7.219-5.469s12.432-82.591 12.59-87.489c.018-.544.039-1.099.063-1.658l.489-8.557c.526-7.826 1.228-16.535 1.447-25.335l.815-14.268c10.356-3.731 15.134-16.37 16.879-19.041-3.014-9.975-3.827-11.934-6.44-16.242z" style="fill:#b97964"/><path d="M108.982 288.945s5.298 18.249 9.792 61.893c.857 8.327-1.936 20.916-3.321 28.7l-13.794 70.497-9.413 1.337c-2.202-33.873 1.314-76.048 4.42-89.519l-20.482-63.497 32.798-9.411z" style="fill:#b97964"/><path d="M78.913 448.344H75.86c-.691 0-1.33.349-1.738.907-1.76 2.404-3.083 1.495-4.998-.765-1.217-.142-1.545 1.255-1.644 1.63l-2.282 8.301a1.306 1.306 0 0 0 1.275 1.664h24.186c3.846 0 4.644-3.876 3.059-4.235-7.125-1.574-12.17-3.671-14.373-5.744-.408-.362.012-.634-.432-1.758z" style="fill:#263238"/><path d="M85.537 450.704c.321-.231.513-.601.518-.996a.559.559 0 0 0-.249-.538c-.957-.678-4.773 1.106-5.202 1.315a.17.17 0 0 0 0 .319c.938.222 1.897.346 2.86.369a3.416 3.416 0 0 0 2.073-.469zm.03-1.245c.078.048.118.14.1.229a.997.997 0 0 1-.379.728c-.867.648-2.96.369-4.086.159 1.584-.698 3.836-1.485 4.365-1.116z" style="fill:#407bff"/><path d="M80.734 450.844c1.146-.478 3.548-2.362 3.418-3.358-.02-.209-.169-.458-.688-.528-2.093-.239-2.989 3.518-2.989 3.677a.168.168 0 0 0 .05.179.204.204 0 0 0 .12 0l.089.03zm2.66-3.578c.389.04.389.179.389.229.11.608-1.634 2.172-2.88 2.83.259-.877 1.026-3.069 2.352-3.069l.139.01z" style="fill:#407bff"/><path d="M81.032 450.7a3.696 3.696 0 0 0-2.592 1.67M82.929 452.128a3.698 3.698 0 0 0-2.592 1.67M85.289 453.328a3.699 3.699 0 0 0-2.592 1.67" style="fill:none;stroke:#407bff;stroke-width:.5;stroke-linecap:round;stroke-linejoin:round;stroke-miterlimit:10"/><path d="m90.017 454.932-.189 5.1h-2.921l1.608-5.535z" style="opacity:.3"/><path d="M102.132 448.53H99.08c-.691 0-1.33.349-1.738.907-1.76 2.404-3.083 1.495-4.998-.765-1.217-.142-1.545 1.255-1.644 1.63l-2.282 8.301a1.306 1.306 0 0 0 1.275 1.664h24.185c3.847 0 4.644-3.876 3.059-4.235-7.125-1.574-12.17-3.671-14.372-5.744-.408-.363.011-.634-.433-1.758z" style="fill:#263238"/><path d="M108.756 450.89c.321-.231.513-.601.518-.997a.559.559 0 0 0-.249-.538c-.957-.677-4.773 1.106-5.202 1.315a.17.17 0 0 0 0 .319 13.85 13.85 0 0 0 2.86.369 3.405 3.405 0 0 0 2.073-.468zm.03-1.246a.218.218 0 0 1 .1.229.995.995 0 0 1-.379.727c-.867.648-2.96.369-4.086.159 1.585-.696 3.837-1.483 4.365-1.115z" style="fill:#407bff"/><path d="M103.953 451.029c1.146-.478 3.548-2.362 3.418-3.358-.02-.209-.169-.458-.688-.528-2.093-.239-2.99 3.518-2.99 3.677a.168.168 0 0 0 .05.179.204.204 0 0 0 .12 0l.09.03zm2.661-3.577c.389.04.389.179.389.229.11.608-1.634 2.172-2.88 2.83.259-.877 1.026-3.069 2.352-3.069l.139.01z" style="fill:#407bff"/><path d="M104.251 450.885a3.698 3.698 0 0 0-2.592 1.67M106.149 452.313a3.698 3.698 0 0 0-2.592 1.67M108.509 453.514a3.698 3.698 0 0 0-2.592 1.67" style="fill:none;stroke:#407bff;stroke-width:.5;stroke-linecap:round;stroke-linejoin:round;stroke-miterlimit:10"/><path d="m68.391 363.697.159-2.477h21.837l-.404 4.351zM96.462 361.22l.204.633-.815 4.137 21.694 2.013.954-6.783z" style="opacity:.2;enable-background:new"/><path d="M66.72 278.863s-8.153 19.654-6.693 33.294c1.462 13.669 4.405 49.063 4.405 49.063h56.839s-1.345-20.592-2.987-30.994c-1.642-10.402-5.63-36.061-11.071-46.224-5.442-10.162-40.493-5.139-40.493-5.139z" style="fill:#407bff"/><path d="M90.688 343.044c-3.711-16.331-10.079-20.822-12.509-23.69l14.49 32.361-1.981-8.671z" style="opacity:.2;enable-background:new"/><path d="M106.337 227.645c4.402 8.36 6.124 15.665 6.124 15.665l-17.605 3.318s-3.877-18.19-1.983-22.704c1.758-4.19 3.021-2.193 9.369.138a7.597 7.597 0 0 1 4.095 3.583z" style="fill:#407bff"/><path d="m60.495 245.161-5.345-18.226c3.381-5.046 20.112-8.924 20.112-8.924l11.022.603s4.236.945 7.863 2.128c4.842 1.579 7.461 2.849 8.615 5.536 0 0 .501 9.929-.713 22.196-.334 3.373.422 17.199 1.363 22.993l5.388 14.141c-31.278 13.035-45.432-.455-45.432-.455.905-2.77 3.054-10.017 3.463-12.724-.296-3.453-.455-4.889-1.918-10.935-.282-1.168-3.927-15.199-4.418-16.333z" style="fill:#407bff"/><path d="M56.542 225.458c-3.919 2.135-5.749 16.036-5.749 16.036l13.667 5.924s5.294-11.91 3.03-17.184c-1.926-4.451-5.975-7.496-10.948-4.776z" style="fill:#407bff"/><g style="opacity:.4;enable-background:new"><path d="M106.337 227.645c4.402 8.36 6.124 15.665 6.124 15.665l-17.605 3.318s-3.877-18.19-1.983-22.704c1.758-4.19 3.021-2.193 9.369.138a7.597 7.597 0 0 1 4.095 3.583z"/><path d="m60.495 245.161-5.345-18.226c3.381-5.046 20.112-8.924 20.112-8.924l11.022.603s4.236.945 7.863 2.128c4.842 1.579 7.461 2.849 8.615 5.536 0 0 .501 9.929-.713 22.196-.334 3.373.422 17.199 1.363 22.993l5.388 14.141c-31.278 13.035-45.432-.455-45.432-.455.905-2.77 3.054-10.017 3.463-12.724-.296-3.453-.455-4.889-1.918-10.935-.282-1.168-3.927-15.199-4.418-16.333z"/><path d="M56.542 225.458c-3.919 2.135-5.749 16.036-5.749 16.036l13.667 5.924s5.294-11.91 3.03-17.184c-1.926-4.451-5.975-7.496-10.948-4.776z"/></g><path d="m110.929 243.599 4.987 12.509 8.626-11.364 6.752 2.822s-5.289 8.882-9.464 17.868c-4.446 9.568-10.447 7.904-14.074 1.21-3.324-6.135-8.863-20.774-8.863-20.774l12.036-2.271z" style="fill:#b97964"/><path d="M136.027 238.799c-.046 1.176-3.818 7.121-3.818 7.121l-4.502 8.092-4.667-6.946 2.078-2.993c-.656-.992-1.502-4.587-1.009-5.739.531-1.244 1.759-2.144 1.759-2.144l.591-.002s.033 2.425 1.6 2.52c1.475.089 4.245-.362 4.991-.635 1.035-.38 2.977-2.588 2.977-2.588s.612.449.509 1.346c-.104.897-.656 1.519-.656 1.519l.147.449z" style="fill:#b97964"/><path d="M184.271 221.694a33.326 33.326 0 0 1-37.313 11.131 32.855 32.855 0 0 1-9.449-5.135c-14.581-11.268-17.267-32.223-5.999-46.804 11.268-14.581 32.223-17.267 46.804-5.999 14.58 11.267 17.267 32.219 6.003 46.8l-.046.007z" style="opacity:.3;fill:#fff;enable-background:new"/><path d="m188.537 188.919-62.644 8.037c.056-.499.105-.978.18-1.471a32.133 32.133 0 0 1 2.797-9.102l54.098-6.94a32.139 32.139 0 0 1 5.569 9.476zM189.261 209.652l-58.893 7.539a32.192 32.192 0 0 1-4.547-13.982l64.302-8.252c.843 4.9.548 9.928-.862 14.695z" style="opacity:.4;fill:#fff;enable-background:new"/><path d="M181.017 170.79c-16.356-12.594-39.825-9.544-52.419 6.813-12.594 16.357-9.544 39.826 6.813 52.419 16.322 12.567 39.735 9.56 52.351-6.725 12.643-16.319 9.662-39.797-6.657-52.439a2.94 2.94 0 0 0-.088-.068zm-42.799 55.468c-14.228-10.988-16.854-31.43-5.865-45.658s31.43-16.854 45.658-5.865c14.201 10.968 16.848 31.36 5.917 45.59-10.969 14.243-31.407 16.896-45.65 5.928l-.047-.036-.013.041z" style="fill:#263238"/><path d="M57.545 229.814c.059.187 2.178 12.6 6.481 13.733 2.05.54 18.505.243 18.505.243l1.457-2.288 2.477 2.288h10.454l-5.974-10.405.61-16.992-34.01 13.421z" style="opacity:.3"/><path d="M89.666 199.529c3.694-7.029 1.599-19.739-6.562-22.121-7.338-2.142-18.971.052-18.533 13.186.439 13.134-2.628 11.76-5.942 20.194-3.479 8.855-2.46 20.512 3.425 30.053h16.251l2.965-4.27 3.513 4.27h14.108c-6.963-9.661-2.801-13.433-1.957-22.204.845-8.77-10.443-13.065-7.268-19.108z" style="fill:#263238"/><path d="M72.958 179.834c-.434-1.004-1.317-1.91-2.409-1.98-.561-.036-1.11.15-1.641.333l-.1.694c-.427 1.087-1.303 1.925-1.96 2.891s-1.094 2.258-.535 3.284c.418.767 1.304 1.182 2.173 1.274 1.578.167 3.206-.63 4.09-1.948s1.012-3.092.382-4.548z" style="fill:#407bff"/><path d="M71.057 184.736c.535-1.175.903-3.851.655-4.852-.367-1.477-1.402-2.709-2.589-3.66-.602-.483-1.259-.912-1.99-1.159-1.199-.405-2.515-.293-3.751-.018-1.401.312-2.799.854-3.817 1.866-1.382 1.374-1.872 3.573-1.203 5.404.668 1.831 2.46 3.197 4.402 3.357a11.491 11.491 0 0 0-3.408 1.635c-.091.064-.189.143-.201.254-.01.105.063.199.137.275.639.658 1.614.9 2.53.846s1.794-.366 2.658-.676l-.8 2.663c-.082.273-.165.565-.088.84.175.622 1.006.753 1.642.64 1.947-.347 3.544-1.829 4.495-3.562.655-1.198 1.039-2.513 1.328-3.853z" style="fill:#263238"/></svg>