<svg xmlns="http://www.w3.org/2000/svg" width="512" height="512" viewBox="0 0 256 256"><path fill="#72c1e8" d="M248.17 44.36v163.71c0 3.44-2.79 6.22-6.23 6.22h-20.73l-33.15-33.15a3.428 3.428 0 0 0-4.85 0l-9.65 9.66a3.428 3.428 0 0 0 0 4.85l18.64 18.64H14.06c-3.44 0-6.23-2.78-6.23-6.22V44.36z"/><path fill="#fff" d="M35.764 92.06H97.72a53.394 53.394 0 0 0-7.23 6.06c-5.99 5.98-10.26 13.03-12.81 20.54H35.764zM220.236 92.06v26.6H178.96c-2.55-7.5-6.82-14.55-12.8-20.54a53.394 53.394 0 0 0-7.23-6.06z"/><path fill="#afafaf" d="M248.167 10.716v33.642H7.833V10.716a6.225 6.225 0 0 1 6.225-6.225h227.883a6.225 6.225 0 0 1 6.226 6.225z"/><circle cx="31.6" cy="24.424" r="7.635" fill="#fc5d3d"/><circle cx="61.039" cy="24.424" r="7.635" fill="#f0c020"/><circle cx="90.479" cy="24.424" r="7.635" fill="#13bf6d"/><path fill="#c5e5ff" d="M181.55 206.14h-149a2.5 2.5 0 1 1 0-5h149a2.5 2.5 0 1 1 0 5zm-159 0H19a2.5 2.5 0 1 1 0-5h3.55a2.5 2.5 0 1 1 0 5zM236.32 206.14h-25.76a2.5 2.5 0 1 1 0-5h23.26V70.15a2.5 2.5 0 1 1 5 0v133.49a2.5 2.5 0 0 1-2.5 2.5z"/><path fill="#fc5d3d" d="M178.96 118.66c-2.55-7.5-6.82-14.55-12.8-20.54a53.394 53.394 0 0 0-7.23-6.06c-18.32-12.81-42.89-12.81-61.21 0a53.394 53.394 0 0 0-7.23 6.06c-5.99 5.98-10.26 13.03-12.81 20.54-6.37 18.7-2.1 40.22 12.81 55.13 20.89 20.89 54.78 20.89 75.67 0 14.89-14.89 19.18-36.42 12.8-55.13z"/><circle cx="128.326" cy="135.955" r="40.695" fill="#f0c020"/><path fill="#fc5d3d" d="m240.67 233.75-19.46-19.46-33.15-33.15a3.428 3.428 0 0 0-4.85 0l-9.65 9.66a3.428 3.428 0 0 0 0 4.85l18.64 18.64 34.21 34.22c4.06 4.05 10.71 4.02 14.72-.22 3.86-4.08 3.51-10.57-.46-14.54z"/><path fill="#ffcbc2" d="m232.035 243.197-2.404-2.404a2.498 2.498 0 0 1 0-3.535 2.498 2.498 0 0 1 3.535 0l2.404 2.404a2.5 2.5 0 0 1-3.535 3.535zm-9.475-9.475-38.891-38.891a2.498 2.498 0 0 1 0-3.535 2.498 2.498 0 0 1 3.535 0l38.891 38.891a2.498 2.498 0 0 1 0 3.535 2.498 2.498 0 0 1-3.535 0z"/><path fill="#fff" d="M128.327 120.28c-11.25 0-22.17 6.661-28.408 11.299-2.926 2.175-2.926 6.576 0 8.751 6.239 4.637 17.158 11.299 28.408 11.299s22.17-6.661 28.408-11.299c2.926-2.175 2.926-6.576 0-8.751-6.238-4.637-17.158-11.299-28.408-11.299z"/><circle cx="128.327" cy="135.955" r="15.674" fill="#72c1e8"/><circle cx="128.327" cy="135.955" r="5.739" fill="#afafaf"/><path d="M5.333 10.716 5.33 208.07c0 4.808 3.916 8.72 8.73 8.72h177.1l7.62 7.62c.94.94 2.59.94 3.53 0a2.486 2.486 0 0 0 0-3.54l-26.98-26.99a.924.924 0 0 1 0-1.31l9.65-9.66a.944.944 0 0 1 1.31 0l52.61 52.61c2.942 2.942 3.402 7.9.41 11.05a7.769 7.769 0 0 1-11.14.17l-11.72-11.72c-.94-.95-2.59-.95-3.53 0-.98.97-.98 2.56 0 3.53l11.72 11.73c5.126 5.104 13.389 4.928 18.3-.27 4.864-5.13 4.344-13.167-.5-18.03l-15.19-15.19h14.69c4.814 0 8.73-3.912 8.73-8.72l-.003-197.354c0-4.811-3.914-8.725-8.725-8.725H14.059c-4.811 0-8.726 3.914-8.726 8.725zM245.67 208.07a3.73 3.73 0 0 1-3.73 3.72h-19.69l-32.42-32.42c-2.268-2.268-6.059-2.33-8.39 0l-3.058 3.062-8.708-8.708a56.062 56.062 0 0 0 10.873-17.393h39.69a2.5 2.5 0 1 0 0-5h-38.002a55.344 55.344 0 0 0 1.927-10.397h36.079a2.5 2.5 0 1 0 0-5h-35.875a56.291 56.291 0 0 0-2.028-14.773h37.899a2.5 2.5 0 0 0 2.5-2.5v-26.6a2.5 2.5 0 0 0-2.5-2.5H159.69c-18.867-12.786-43.866-12.785-62.729 0H35.764a2.5 2.5 0 0 0-2.5 2.5v26.6a2.5 2.5 0 0 0 2.5 2.5h38.54a56.291 56.291 0 0 0-2.024 14.773H35.764a2.5 2.5 0 1 0 0 5h36.721a55.348 55.348 0 0 0 1.929 10.397H35.76a2.5 2.5 0 1 0 0 5h40.342c2.769 7.059 7.006 13.614 12.62 19.228 21.25 21.251 55.457 21.825 77.416 1.7l8.713 8.706-3.062 3.066a5.939 5.939 0 0 0 0 8.39l14.37 14.37H14.06a3.73 3.73 0 0 1-3.73-3.72V46.86h235.34zm-81.26-36.08c-.023.023-.038.05-.06.074-19.902 19.854-52.227 19.823-72.091-.041-13.656-13.656-18.618-33.748-12.21-52.559 2.518-7.414 6.625-14 12.21-19.576a51.146 51.146 0 0 1 6.895-5.778c17.448-12.201 40.895-12.201 58.348.002a51.135 51.135 0 0 1 6.89 5.774c5.58 5.59 9.686 12.177 12.202 19.579l.001.002c6.423 18.836 1.404 38.886-12.119 52.47-.022.019-.046.033-.066.053zm-88.467-55.83H38.264v-21.6h52.339a56.667 56.667 0 0 0-1.878 1.791 55.202 55.202 0 0 0-12.782 19.809zm104.754 0c-2.798-7.44-7.074-14.103-12.769-19.808a55.788 55.788 0 0 0-1.88-1.792h51.688v21.6zm64.97-105.444V41.86H10.333V10.716a3.73 3.73 0 0 1 3.725-3.725h227.883a3.73 3.73 0 0 1 3.726 3.725z"/><path d="M31.6 34.56c5.59 0 10.13-4.55 10.14-10.14-.01-5.58-4.55-10.13-10.14-10.13s-10.13 4.55-10.13 10.13c0 5.59 4.54 10.14 10.13 10.14zm0-15.27c2.83 0 5.13 2.31 5.14 5.13a5.164 5.164 0 0 1-5.14 5.14 5.15 5.15 0 0 1-5.13-5.14c0-2.82 2.3-5.13 5.13-5.13zM61.04 34.56c5.59 0 10.13-4.55 10.13-10.14 0-5.58-4.54-10.13-10.13-10.13S50.91 18.84 50.9 24.42c.01 5.59 4.55 10.14 10.14 10.14zm0-15.27c2.83 0 5.13 2.31 5.14 5.13a5.164 5.164 0 0 1-5.14 5.14 5.164 5.164 0 0 1-5.14-5.14c.01-2.82 2.31-5.13 5.14-5.13zM90.48 34.56c5.59 0 10.13-4.55 10.13-10.14 0-5.58-4.54-10.13-10.13-10.13s-10.13 4.55-10.14 10.13c.01 5.59 4.55 10.14 10.14 10.14zm0-15.27a5.14 5.14 0 0 1 5.13 5.13c0 2.83-2.3 5.13-5.13 5.14a5.164 5.164 0 0 1-5.14-5.14c.01-2.82 2.31-5.13 5.14-5.13zM122.264 26.924h108.058a2.5 2.5 0 1 0 0-5H122.264a2.5 2.5 0 1 0 0 5zM35.764 68.686h30.628a2.5 2.5 0 1 0 0-5H35.764a2.5 2.5 0 1 0 0 5zM87.045 68.686h30.628a2.5 2.5 0 1 0 0-5H87.045a2.5 2.5 0 1 0 0 5zM138.327 68.686h30.628a2.5 2.5 0 1 0 0-5h-30.628a2.5 2.5 0 1 0 0 5zM189.608 68.686h30.628a2.5 2.5 0 1 0 0-5h-30.628a2.5 2.5 0 1 0 0 5zM160.04 110.33a2.49 2.49 0 0 0 .15-3.53c-.89-.98-2.55-1.06-3.53-.16-1.02.938-1.092 2.526-.15 3.53.918 1.016 2.517 1.084 3.53.16z"/><path d="M162.95 114.41a2.5 2.5 0 0 0-1.01 3.38c3 5.54 4.58 11.82 4.58 18.16 0 10.2-3.97 19.8-11.19 27.01-14.962 14.962-39.12 14.89-54.01 0-14.901-14.901-14.951-39.06 0-54.01 13.107-13.107 33.236-14.673 48.07-4.87 1.12.75 2.73.41 3.47-.7.76-1.15.44-2.7-.71-3.46-16.96-11.25-39.756-9.123-54.37 5.49-16.909 16.909-16.819 44.272 0 61.09 16.864 16.862 44.219 16.87 61.09 0a43.084 43.084 0 0 0 12.65-30.55c0-7.17-1.79-14.26-5.18-20.53-.64-1.18-2.21-1.65-3.39-1.01zM205.85 227.94c-.98.98-.98 2.56 0 3.54.971.97 2.551.978 3.53 0a2.498 2.498 0 0 0 .01-3.54c-.95-.94-2.6-.94-3.54 0z"/><path d="M158.227 129.573c-7.237-5.38-18.299-11.792-29.898-11.792h-.001c-11.6 0-22.663 6.413-29.9 11.792-4.274 3.178-4.275 9.586 0 12.764 7.237 5.38 18.3 11.792 29.9 11.792h.001c11.599 0 22.661-6.413 29.898-11.792 2.036-1.513 3.203-3.839 3.203-6.382s-1.167-4.869-3.203-6.382zm-16.726 6.382c0 7.264-5.909 13.173-13.172 13.174h-.002c-7.264 0-13.174-5.91-13.174-13.174s5.91-13.174 13.174-13.174h.002c7.264 0 13.172 5.91 13.172 13.174zm-40.091-2.37c2.678-1.99 6.645-4.644 11.267-6.824-1.593 2.701-2.523 5.837-2.523 9.193s.931 6.492 2.523 9.193c-4.622-2.18-8.589-4.834-11.267-6.824-1.582-1.175-1.583-3.561 0-4.738zm53.834 4.739c-2.677 1.99-6.644 4.643-11.266 6.823 1.593-2.701 2.523-5.836 2.523-9.192s-.93-6.492-2.523-9.192c4.622 2.18 8.588 4.833 11.265 6.823.754.561 1.187 1.424 1.187 2.369s-.432 1.808-1.186 2.369z"/><path d="M120.089 135.955c0 4.543 3.696 8.239 8.239 8.239 4.542 0 8.238-3.696 8.238-8.239s-3.696-8.239-8.238-8.239c-4.543 0-8.239 3.696-8.239 8.239zm11.477 0c0 1.786-1.453 3.239-3.238 3.239s-3.239-1.453-3.239-3.239 1.453-3.239 3.239-3.239 3.238 1.453 3.238 3.239z"/></svg>