<?xml version="1.0" encoding="utf-8"?>
<!-- Generator: Adobe Illustrator 27.5.0, SVG Export Plug-In . SVG Version: 6.00 Build 0)  -->
<svg version="1.1" xmlns="http://www.w3.org/2000/svg" xmlns:xlink="http://www.w3.org/1999/xlink" x="0px" y="0px"
	 viewBox="0 0 3710 3710" style="enable-background:new 0 0 3710 3710;" xml:space="preserve">
<g id="Background">
	<g>
		<g>
			<rect style="fill:#FFFFFF;" width="3710" height="3710"/>
		</g>
	</g>
</g>
<g id="Illustration">
	<g>
		<linearGradient id="SVGID_1_" gradientUnits="userSpaceOnUse" x1="3580.105" y1="4054.1523" x2="1118.4979" y2="996.9906">
			<stop  offset="0" style="stop-color:#DAE3FE"/>
			<stop  offset="1" style="stop-color:#E9EFFD"/>
		</linearGradient>
		<path style="fill:url(#SVGID_1_);" d="M2902.957,2848.479c-56.545,59.523-110.048,97.909-152.319,128.236
			c-496.891,356.493-1084.845,252.577-1209.802,227.199c-184.522-37.474-541.199-109.91-799.07-413.135
			c-390.137-458.752-329.387-1181.504-26.77-1658.603c55.353-87.27,347.746-571.635,942.033-649.312
			c359.656-47.009,778.899,47.803,1082.504,302.14C3376.825,1318.884,3331.456,2397.41,2902.957,2848.479z"/>
		<g>
			<path style="fill:#91B3FA;" d="M3195.462,1211.47c-0.511-20.182-22.698-36.791-49.894-36.791H2117.646
				c-27.56,0-54.627,17.474-54.627,37.933v1828.519c0,9.842,7.64,19.279,17.026,26.229c9.389,6.949,23.296,10.839,36.555,10.813
				l1074.75-2.178c13.374-0.027,26.467-4.038,35.822-11.133c9.354-7.096,14.628-16.902,14.377-26.827L3195.462,1211.47z"/>
			<g style="opacity:0.51;">
				<g>
					<polygon style="fill:#FFFFFF;" points="2438.45,1390.147 2145.618,1389.856 2143.295,1278.438 2436.412,1278.438 					"/>
					<polygon style="fill:#FFFFFF;" points="2766.683,1390.092 2474.144,1389.799 2472.14,1278.438 2764.964,1278.438 					"/>
					<polygon style="fill:#FFFFFF;" points="3094.585,1390.035 2802.34,1389.744 2800.655,1278.438 3093.183,1278.438 					"/>
				</g>
				<g>
					<polygon style="fill:#FFFFFF;" points="2442.11,1590.137 2149.788,1590.276 2147.473,1479.586 2440.078,1479.496 					"/>
					<polygon style="fill:#FFFFFF;" points="2769.771,1589.981 2477.741,1590.12 2475.744,1479.486 2768.056,1479.396 					"/>
					<polygon style="fill:#FFFFFF;" points="3097.102,1589.826 2805.367,1589.964 2803.687,1479.385 3095.706,1479.296 					"/>
				</g>
				<g>
					<polygon style="fill:#FFFFFF;" points="2445.758,1788.752 2153.943,1788.98 2151.637,1678.674 2443.733,1678.495 					"/>
					<polygon style="fill:#FFFFFF;" points="2772.848,1788.498 2481.326,1788.724 2479.336,1678.474 2771.14,1678.296 					"/>
					<polygon style="fill:#FFFFFF;" points="3099.611,1788.243 2808.381,1788.47 2806.708,1678.274 3098.219,1678.096 					"/>
				</g>
				<g>
					<polygon style="fill:#FFFFFF;" points="2449.391,1986.681 2158.084,1986.996 2155.786,1877.072 2447.373,1876.805 					"/>
					<polygon style="fill:#FFFFFF;" points="2775.915,1986.326 2484.898,1986.642 2482.916,1876.772 2774.212,1876.506 					"/>
					<polygon style="fill:#FFFFFF;" points="3102.111,1985.974 2811.386,1986.288 2809.718,1876.474 3100.724,1876.208 					"/>
				</g>
				<g>
					<polygon style="fill:#FFFFFF;" points="2453.013,2183.924 2162.211,2184.327 2159.92,2074.783 2451.002,2074.428 					"/>
					<polygon style="fill:#FFFFFF;" points="2778.97,2183.472 2488.459,2183.876 2486.482,2074.385 2777.274,2074.031 					"/>
					<polygon style="fill:#FFFFFF;" points="3104.603,2183.022 2814.381,2183.424 2812.719,2073.988 3103.219,2073.635 					"/>
				</g>
				<g>
					<polygon style="fill:#FFFFFF;" points="2456.622,2380.488 2166.324,2380.977 2164.041,2271.811 2454.619,2271.37 					"/>
					<polygon style="fill:#FFFFFF;" points="2782.016,2379.94 2492.008,2380.428 2490.037,2271.316 2780.326,2270.875 					"/>
					<polygon style="fill:#FFFFFF;" points="3107.085,2379.391 2817.365,2379.879 2815.709,2270.822 3105.707,2270.381 					"/>
				</g>
				<g>
					<polygon style="fill:#FFFFFF;" points="2460.22,2576.375 2170.423,2576.95 2168.147,2468.16 2458.222,2467.632 					"/>
					<polygon style="fill:#FFFFFF;" points="2785.051,2575.729 2495.542,2576.304 2493.58,2467.567 2783.365,2467.04 					"/>
					<polygon style="fill:#FFFFFF;" points="3109.56,2575.084 2820.339,2575.659 2818.688,2466.976 3108.186,2466.449 					"/>
				</g>
				<g>
					<polygon style="fill:#FFFFFF;" points="2463.803,2771.587 2174.507,2772.249 2172.239,2663.832 2461.814,2663.219 					"/>
					<polygon style="fill:#FFFFFF;" points="2788.075,2770.846 2499.066,2771.506 2497.11,2663.143 2786.397,2662.531 					"/>
					<polygon style="fill:#FFFFFF;" points="3112.025,2770.106 2823.302,2770.765 2821.658,2662.456 3110.656,2661.844 					"/>
				</g>
				<g>
					<polygon style="fill:#FFFFFF;" points="2467.376,2966.131 2178.577,2966.877 2176.318,2858.833 2465.392,2858.134 					"/>
					<polygon style="fill:#FFFFFF;" points="2791.09,2965.293 2502.577,2966.039 2500.627,2858.048 2789.416,2857.35 					"/>
					<polygon style="fill:#FFFFFF;" points="3114.483,2964.459 2826.256,2965.203 2824.616,2857.265 3113.118,2856.567 					"/>
				</g>
			</g>
		</g>
		<g>
			<path style="fill:#91B3FA;" d="M1472.548,805.366c-0.448-23.947-19.854-43.653-43.641-43.653H529.793
				c-24.106,0-47.781,20.734-47.781,45.008v2169.536c0,11.677,6.682,22.875,14.892,31.121c8.212,8.245,20.377,12.86,31.975,12.83
				l940.073-2.584c11.698-0.032,23.15-4.791,31.333-13.209c8.182-8.419,12.795-20.054,12.575-31.831L1472.548,805.366z"/>
			<g style="opacity:0.5;">
				<g>
					<polygon style="fill:#FFFFFF;" points="810.398,1017.367 554.26,1017.02 552.228,884.824 808.615,884.824 					"/>
					<polygon style="fill:#FFFFFF;" points="1097.499,1017.301 841.619,1016.954 839.866,884.824 1095.995,884.824 					"/>
					<polygon style="fill:#FFFFFF;" points="1384.312,1017.234 1128.688,1016.888 1127.215,884.824 1383.085,884.824 					"/>
				</g>
				<g>
					<polygon style="fill:#FFFFFF;" points="813.599,1254.655 557.908,1254.819 555.883,1123.486 811.822,1123.38 					"/>
					<polygon style="fill:#FFFFFF;" points="1100.201,1254.469 844.765,1254.634 843.018,1123.367 1098.701,1123.26 					"/>
					<g>
						<polygon style="fill:#FFFFFF;" points="1386.514,1254.285 1131.335,1254.449 1129.866,1123.248 1385.292,1123.141 						"/>
					</g>
				</g>
				<g>
					<polygon style="fill:#FFFFFF;" points="816.789,1490.312 561.542,1490.582 559.524,1359.704 815.018,1359.492 					"/>
					<polygon style="fill:#FFFFFF;" points="1102.892,1490.009 847.901,1490.278 846.16,1359.466 1101.398,1359.255 					"/>
					<polygon style="fill:#FFFFFF;" points="1388.708,1489.706 1133.973,1489.977 1132.509,1359.229 1387.49,1359.017 					"/>
				</g>
				<g>
					<polygon style="fill:#FFFFFF;" points="819.968,1725.153 565.164,1725.527 563.154,1595.102 818.203,1594.786 					"/>
					<polygon style="fill:#FFFFFF;" points="1105.574,1724.733 851.025,1725.107 849.291,1594.747 1104.085,1594.431 					"/>
					<polygon style="fill:#FFFFFF;" points="1390.895,1724.314 1136.601,1724.688 1135.142,1594.393 1389.681,1594.077 					"/>
				</g>
				<g>
					<polygon style="fill:#FFFFFF;" points="823.135,1959.183 568.774,1959.661 566.771,1829.687 821.377,1829.266 					"/>
					<polygon style="fill:#FFFFFF;" points="1108.247,1958.647 854.14,1959.124 852.411,1829.215 1106.763,1828.794 					"/>
					<polygon style="fill:#FFFFFF;" points="1393.074,1958.112 1139.22,1958.589 1137.766,1828.743 1391.865,1828.324 					"/>
				</g>
				<g>
					<polygon style="fill:#FFFFFF;" points="826.292,2192.405 572.372,2192.986 570.374,2063.461 824.54,2062.936 					"/>
					<polygon style="fill:#FFFFFF;" points="1110.911,2191.754 857.243,2192.334 855.52,2062.873 1109.432,2062.349 					"/>
					<polygon style="fill:#FFFFFF;" points="1395.246,2191.104 1141.831,2191.683 1140.382,2062.286 1394.04,2061.763 					"/>
				</g>
				<g>
					<polygon style="fill:#FFFFFF;" points="829.439,2424.824 575.957,2425.507 573.966,2296.427 827.692,2295.802 					"/>
					<polygon style="fill:#FFFFFF;" points="1113.566,2424.059 860.336,2424.741 858.619,2295.725 1112.092,2295.099 					"/>
					<polygon style="fill:#FFFFFF;" points="1397.41,2423.294 1144.432,2423.976 1142.988,2295.023 1396.208,2294.398 					"/>
				</g>
				<g>
					<polygon style="fill:#FFFFFF;" points="832.574,2656.444 579.529,2657.229 577.545,2528.593 830.833,2527.865 					"/>
					<polygon style="fill:#FFFFFF;" points="1116.211,2655.565 863.417,2656.348 861.706,2527.776 1114.743,2527.048 					"/>
					<polygon style="fill:#FFFFFF;" points="1399.567,2654.687 1147.024,2655.469 1145.585,2526.96 1398.369,2526.233 					"/>
				</g>
				<g>
					<polygon style="fill:#FFFFFF;" points="835.699,2887.27 583.089,2888.155 581.113,2759.961 833.963,2759.131 					"/>
					<polygon style="fill:#FFFFFF;" points="1118.848,2886.277 866.488,2887.161 864.784,2759.03 1117.384,2758.202 					"/>
					<polygon style="fill:#FFFFFF;" points="1401.716,2885.286 1149.608,2886.169 1148.173,2758.101 1400.523,2757.273 					"/>
				</g>
			</g>
		</g>
		<g>
			<g>
				<g>
					
						<linearGradient id="SVGID_00000148620814361907981840000003032359074193453241_" gradientUnits="userSpaceOnUse" x1="1202.4203" y1="1785.5896" x2="2957.2212" y2="1785.5896">
						<stop  offset="0" style="stop-color:#09005D"/>
						<stop  offset="1" style="stop-color:#1A0F91"/>
					</linearGradient>
					<path style="fill:url(#SVGID_00000148620814361907981840000003032359074193453241_);" d="M1064.3,608.967
						c-10.35,417.497-43.917,1857.602-27.893,2367.932c1.698,54.065,45.038,97.459,99.101,99.228
						c267.396,8.75,1036.614,30.929,1473.982,12.579c91.097-3.822,163.539-77.611,165.43-168.768
						c9.089-438.217,29.141-1670.754-18.521-2235.381c-5.71-67.651-58.809-121.524-126.362-128.282
						c-291.205-29.131-1064.64-100.341-1442.499-75.82C1119.391,484.878,1065.992,540.697,1064.3,608.967z"/>
					<path style="fill:#7D97F4;" d="M1172.949,738.692c-14.605,341.927-60.67,1479.439-46.049,1900.067
						c2.137,61.48,50.593,111.192,112.006,114.786c252.854,14.797,901.404,47.424,1272.279,17.725
						c66.782-5.347,119.187-59.355,122.792-126.255c18.795-348.838,72.759-1408.02,58.743-1823.934
						c-2.236-66.349-53.633-120.537-119.754-126.474c-273.548-24.56-976.113-82.999-1291.272-65.803
						C1222.533,632.032,1175.478,679.496,1172.949,738.692z"/>
					<path style="opacity:0.5;fill:#3F67F9;" d="M1725.137,553.407L1725.137,553.407c0,12.811,9.983,23.376,22.776,24.046
						c63.157,3.307,241.072,12.667,320.583,17.28c15.677,0.909,27.982-13.183,25.009-28.602l-0.508-2.631
						c-2.029-10.522-10.755-18.442-21.426-19.419c-53.746-4.925-215.923-18.58-323.375-14.745
						C1735.289,529.796,1725.137,540.491,1725.137,553.407z"/>
				</g>
			</g>
			<g>
				<path style="fill:#BDD0FB;" d="M1833.261,1304.347h-485.94c-30.438,0-54.825-25.213-53.811-55.634l15.904-477.109
					c0.983-29.496,25.529-52.703,55.034-52.033l467.386,10.622c29.132,0.662,52.451,24.381,52.616,53.521l2.651,466.486
					C1887.271,1280.055,1863.116,1304.347,1833.261,1304.347z"/>
				<path style="fill:#BDD0FB;" d="M2538.819,1313.706l-540.261-5.687c-21.863-0.23-39.429-18.083-39.306-39.947l2.798-495.324
					c0.128-22.569,19.01-40.498,41.556-39.458l554.242,25.58c21.748,1.004,38.636,19.326,37.868,41.083l-16.78,475.43
					C2578.177,1296.927,2560.374,1313.933,2538.819,1313.706z"/>
				<path style="fill:#BDD0FB;" d="M1837.332,1968.465h-492.344c-27.656,0-50.077-22.42-50.077-50.076V1429.3
					c0-27.656,22.42-50.076,50.077-50.076h492.344c27.656,0,50.076,22.42,50.076,50.076v489.089
					C1887.408,1946.045,1864.989,1968.465,1837.332,1968.465z"/>
				<path style="fill:#BDD0FB;" d="M2529.981,1968.699l-526.64,2.786c-24.435,0.129-44.313-19.643-44.313-44.079v-501.084
					c0-24.252,19.592-43.949,43.844-44.079l521.103-2.786c24.246-0.13,44.044,19.347,44.312,43.591l5.537,501.084
					C2574.094,1948.576,2554.424,1968.57,2529.981,1968.699z"/>
				<path style="fill:#BDD0FB;" d="M1847.099,2622.816h-492.344c-27.656,0-50.076-22.42-50.076-50.077v-489.089
					c0-27.656,22.42-50.076,50.076-50.076h492.344c27.656,0,50.077,22.42,50.077,50.076v489.089
					C1897.175,2600.396,1874.755,2622.816,1847.099,2622.816z"/>
				<path style="fill:#BDD0FB;" d="M2511.216,2626.071h-492.344c-27.656,0-50.076-22.42-50.076-50.076v-489.089
					c0-27.656,22.42-50.077,50.076-50.077h492.344c27.656,0,50.076,22.42,50.076,50.077v489.089
					C2561.292,2603.651,2538.873,2626.071,2511.216,2626.071z"/>
				<path style="opacity:0.8;fill:#FFFFFF;" d="M1458.525,1194.818c-5.031-0.265-9.279-0.55-12.643-0.796
					c-5.742-0.418-10.236-4.901-10.668-10.654c-0.434-5.794,3.367-10.924,9.036-12.205c30.341-6.802,63.693-19.325,88.306-29.59
					c-113.99-15.371-133.744-75.373-136.741-102.502c-7.568-68.413,55.348-142.053,140.245-164.159
					c86.635-22.537,172.433-8.246,218.613,36.427c24.539,23.742,50.175,68.077,32.952,144.52
					C1755.408,1198.881,1529.732,1198.574,1458.525,1194.818z M1448.835,1191.452l0.007,0L1448.835,1191.452z M1447.407,1173.269
					c0,0,0.02,0.001,0.027,0.002C1447.428,1173.27,1447.417,1173.27,1447.407,1173.269z M1615.788,1125.557l-37.336,18.308
					c-1.966,0.961-34.825,16.982-74.507,31.172c88.665-0.667,239.51-17.749,263.385-123.749
					c12.115-53.805,2.995-95.864-27.119-124.993c-46.715-45.202-133.554-48.25-198.911-31.251
					c-74.019,19.276-131.174,84.18-124.81,141.739c5.779,52.253,63.243,84.343,157.74,87.341L1615.788,1125.557z"/>
				<g style="opacity:0.8;">
					<path style="fill:#FFFFFF;" d="M1757.588,1874.249h-435.416c-12.748,0-24.337-7.021-30.243-18.322
						c-5.906-11.293-5.055-24.823,2.225-35.29l90.563-130.238c5.622-8.091,14.463-13.352,24.256-14.438
						c9.749-1.086,19.566,2.1,26.826,8.755l34.475,31.09c0.458-0.089,0.588-0.373,0.653-0.519l83.238-182.374
						c5.302-11.625,16.522-19.254,29.278-19.919c12.813-0.551,24.706,5.772,31.179,16.781L1787,1822.818
						c6.287,10.677,6.368,23.486,0.215,34.244C1781.062,1867.82,1769.983,1874.249,1757.588,1874.249z M1413.359,1709.199
						l-1.378,0.154l-90.563,130.238c-0.158,0.227-0.32,0.462-0.061,0.957c0.255,0.495,0.539,0.495,0.815,0.495h435.416
						c0.239,0,0.535,0,0.799-0.462c0.268-0.462,0.118-0.721-0.004-0.924l-172.378-293.05c-0.138-0.227-0.312-0.365-0.839-0.446
						c-0.559,0.032-0.681,0.284-0.794,0.535l-83.234,182.374c-4.52,9.907-13.591,17.122-24.264,19.286
						c-10.681,2.165-21.832-0.94-29.85-8.302L1413.359,1709.199z"/>
					<path style="fill:#FFFFFF;" d="M1751.67,1608.543c-43.668,0-79.193-35.525-79.193-79.197s35.525-79.197,79.193-79.197
						s79.197,35.525,79.197,79.197S1795.338,1608.543,1751.67,1608.543z M1751.67,1483.356c-25.359,0-45.987,20.632-45.987,45.991
						s20.628,45.991,45.987,45.991c25.359,0,45.991-20.632,45.991-45.991S1777.028,1483.356,1751.67,1483.356z"/>
				</g>
				<g style="opacity:0.8;">
					<path style="fill:#FFFFFF;" d="M2165.111,1882.573l10.135-103.724l-45.679,1.586l-2.314-53.299l54.666-1.52l6.164-64.632
						l-47.78,0.926l-2.333-53.821l55.623-0.688l9.618-100.025l49.19,0.035l-9.487,99.38l49.776-0.616l9.899-98.728l47.922,0.034
						l-9.766,98.1l42.676-0.528l2.206,52.106l-50.169,0.972l-5.915,63.383l44.407-1.235l2.188,51.595l-52.461,1.821l-9.184,101.679
						l-48.961,2.359l9.311-102.342l-50.026,1.737l-9.442,103.023L2165.111,1882.573z M2281.336,1722.854l5.996-63.791l-49.851,0.965
						l-6.08,64.213L2281.336,1722.854z"/>
				</g>
				<g style="opacity:0.8;">
					<path style="fill:#FFFFFF;" d="M2262.215,1208.792c-96.558,0-175.112-78.555-175.112-175.111s78.554-175.111,175.112-175.111
						c96.557,0,175.111,78.555,175.111,175.111S2358.771,1208.792,2262.215,1208.792z M2262.215,887.914
						c-80.377,0-145.768,65.391-145.768,145.767s65.391,145.767,145.768,145.767c80.375,0,145.766-65.391,145.766-145.767
						S2342.59,887.914,2262.215,887.914z"/>
					<path style="fill-rule:evenodd;clip-rule:evenodd;fill:#FFFFFF;" d="M2207.358,1101.117V975.225
						c0-13.452,14.643-21.789,26.211-14.925l106.081,62.946c11.332,6.724,11.332,23.126,0,29.85l-106.081,62.947
						C2222,1122.907,2207.358,1114.569,2207.358,1101.117z"/>
				</g>
				<g style="opacity:0.8;">
					<path style="fill:#FFFFFF;" d="M1595.666,2527.208c-105.981,0-192.202-86.222-192.202-192.202
						c0-105.98,86.221-192.202,192.202-192.202c105.98,0,192.202,86.222,192.202,192.202
						C1787.868,2440.986,1701.647,2527.208,1595.666,2527.208z M1595.666,2175.013c-88.221,0-159.994,71.773-159.994,159.993
						c0,88.22,71.773,159.993,159.994,159.993c88.22,0,159.993-71.773,159.993-159.993
						C1755.659,2246.785,1683.886,2175.013,1595.666,2175.013z"/>
					<path style="fill-rule:evenodd;clip-rule:evenodd;fill:#FFFFFF;" d="M1535.456,2409.024v-138.179
						c0-14.765,16.072-23.916,28.77-16.381l116.434,69.09c12.438,7.38,12.438,25.383,0,32.763l-116.434,69.09
						C1551.528,2432.941,1535.456,2423.789,1535.456,2409.024z"/>
				</g>
				<path style="opacity:0.8;fill:#FFFFFF;" d="M2119.639,2296.179c-1.337,52.667,59.602,150.541,97.808,237.273
					c15.858,35.998,71.307,33.609,88.839,3.633c42.147-72.07,94.105-188.52,95.494-240.905
					c2.144-80.883-45.79-148.886-135.265-156.684C2171.726,2131.235,2121.703,2214.861,2119.639,2296.179z M2324.732,2289.668
					c0,35.959-29.15,65.11-65.109,65.11s-65.11-29.151-65.11-65.11s29.151-65.11,65.11-65.11S2324.732,2253.709,2324.732,2289.668z"
					/>
			</g>
		</g>
		<g>
			
				<linearGradient id="SVGID_00000074425047895865613860000000755448419464886455_" gradientUnits="userSpaceOnUse" x1="2322.9822" y1="2903.9915" x2="1639.9518" y2="3646.9377" gradientTransform="matrix(-1 0 0 1 4777.2905 0)">
				<stop  offset="0" style="stop-color:#4F52FF"/>
				<stop  offset="1" style="stop-color:#4042E2"/>
			</linearGradient>
			<path style="fill:url(#SVGID_00000074425047895865613860000000755448419464886455_);" d="M2670.215,2959.336
				c0,0,7.073,40.045,10.542,79.685c1.355,15.493-10.588,28.944-26.126,29.592c-52.789,2.198-165.707,6.474-206.226,4.666
				c-6.091-0.272-10.073-6.508-7.819-12.174c1.889-4.747,5.532-8.585,10.175-10.718l186.52-85.725L2670.215,2959.336z"/>
			
				<linearGradient id="SVGID_00000044859591155470275810000017886739218999138725_" gradientUnits="userSpaceOnUse" x1="2101.281" y1="2959.1716" x2="2161.9512" y2="2959.1716" gradientTransform="matrix(-1 0 0 1 4777.2905 0)">
				<stop  offset="0" style="stop-color:#A22B25"/>
				<stop  offset="1" style="stop-color:#C0423C"/>
			</linearGradient>
			<path style="fill:url(#SVGID_00000044859591155470275810000017886739218999138725_);" d="M2676.009,2935.807l-5.683,47.899
				c0,0-32.674,15.21-54.987-1.917l13.531-53.378L2676.009,2935.807z"/>
			
				<linearGradient id="SVGID_00000065753591480277096000000004409804939968560545_" gradientUnits="userSpaceOnUse" x1="1251.2231" y1="5050.0083" x2="1716.4612" y2="3583.3298" gradientTransform="matrix(-1 0 0 1 4777.2905 0)">
				<stop  offset="0" style="stop-color:#4F52FF"/>
				<stop  offset="1" style="stop-color:#4042E2"/>
			</linearGradient>
			<path style="fill:url(#SVGID_00000065753591480277096000000004409804939968560545_);" d="M2671.738,2035.29
				c2.455,12.509,13.177,624.207-52.209,898.33c-1.067,4.473,1.201,9.083,5.458,10.823c10.029,4.098,29.689,10.031,53.251,10.823
				c7.297,0.245,13.839-4.498,15.897-11.502c18.691-63.601,108.252-382.258,119.935-686.663c13.055-340.142,0-11.581,0-11.581
				l-7.657-210.255L2671.738,2035.29z"/>
			<g>
				
					<linearGradient id="SVGID_00000111901577976144294640000008525369293527775108_" gradientUnits="userSpaceOnUse" x1="2664.8245" y1="3099.5913" x2="2810.0393" y2="2203.2664">
					<stop  offset="0" style="stop-color:#FE7062"/>
					<stop  offset="1" style="stop-color:#FF928E"/>
				</linearGradient>
				<path style="fill:url(#SVGID_00000111901577976144294640000008525369293527775108_);" d="M2966.633,2890.029
					c0,196.245-120.079,355.334-268.203,355.334s-268.203-159.088-268.203-355.334s130.538-318.013,278.663-318.013
					C2857.013,2572.015,2966.633,2693.783,2966.633,2890.029z"/>
				
					<linearGradient id="SVGID_00000067957414999501891130000017273350814621025470_" gradientUnits="userSpaceOnUse" x1="2941.7673" y1="2692.9351" x2="3843.1003" y2="1871.7205">
					<stop  offset="0" style="stop-color:#09005D"/>
					<stop  offset="1" style="stop-color:#1A0F91"/>
				</linearGradient>
				
					<ellipse style="fill:url(#SVGID_00000067957414999501891130000017273350814621025470_);" cx="2732.002" cy="2884.054" rx="234.63" ry="323.584"/>
				
					<linearGradient id="SVGID_00000137106099399604168570000013720387846197439891_" gradientUnits="userSpaceOnUse" x1="4208.4395" y1="1861.9509" x2="3432.2935" y2="2407.7576">
					<stop  offset="0" style="stop-color:#09005D"/>
					<stop  offset="1" style="stop-color:#1A0F91"/>
				</linearGradient>
				
					<ellipse style="fill:url(#SVGID_00000137106099399604168570000013720387846197439891_);" cx="2770.7" cy="2873.007" rx="187.716" ry="258.884"/>
				
					<linearGradient id="SVGID_00000054246546243616147490000013801554924553394317_" gradientUnits="userSpaceOnUse" x1="-1540.6057" y1="2749.5078" x2="-1536.4629" y2="3122.3481" gradientTransform="matrix(0.9958 -0.0911 0.0911 0.9958 4104.1128 -19.1226)">
					<stop  offset="0" style="stop-color:#E1473D"/>
					<stop  offset="1" style="stop-color:#E9605A"/>
				</linearGradient>
				<path style="fill:url(#SVGID_00000054246546243616147490000013801554924553394317_);" d="M2975.753,3065.715
					c1.754,19.174-56.297,40.158-129.661,46.869s-134.259-3.392-136.013-22.566c-1.754-19.174,56.297-40.158,129.661-46.869
					C2913.104,3036.438,2973.999,3046.541,2975.753,3065.715z"/>
				
					<linearGradient id="SVGID_00000025415046669875625030000018134838327478935695_" gradientUnits="userSpaceOnUse" x1="-1502.7792" y1="2874.1873" x2="-1615.2356" y2="3132.175" gradientTransform="matrix(0.9958 -0.0911 0.0911 0.9958 4104.1128 -19.1226)">
					<stop  offset="0" style="stop-color:#FE7062"/>
					<stop  offset="1" style="stop-color:#FF928E"/>
				</linearGradient>
				<path style="fill:url(#SVGID_00000025415046669875625030000018134838327478935695_);" d="M2974.48,3051.802
					c1.754,19.174-56.297,40.158-129.661,46.869c-73.364,6.711-134.259-3.392-136.013-22.566
					c-1.754-19.174,56.297-40.158,129.661-46.869C2911.832,3022.525,2972.727,3032.628,2974.48,3051.802z"/>
				
					<linearGradient id="SVGID_00000013871505830362077050000017789502239064645050_" gradientUnits="userSpaceOnUse" x1="3041.3093" y1="2168.0625" x2="2395.3572" y2="2964.2371">
					<stop  offset="0" style="stop-color:#FE7062"/>
					<stop  offset="1" style="stop-color:#FF928E"/>
				</linearGradient>
				<path style="fill:url(#SVGID_00000013871505830362077050000017789502239064645050_);" d="M2418.011,2940.842
					c-3.47,55.474,63.125,59.671,81.972,4.438c0-201.601,100.229-394.997,327.362-343.099l-1.665-31.023
					C2555.963,2495.269,2428.117,2696.348,2418.011,2940.842z"/>
				<path style="fill:#FFFFFF;" d="M2454.749,2957.996c-0.923,0-1.669-0.747-1.669-1.669c0-156.425,43.077-273.153,124.575-337.568
					c64.046-50.618,147.941-65.491,242.603-43.013c0.896,0.212,1.451,1.112,1.239,2.01c-0.212,0.895-1.118,1.451-2.008,1.237
					c-93.642-22.235-176.552-7.578-239.764,42.385c-80.667,63.758-123.307,179.581-123.307,334.948
					C2456.418,2957.25,2455.672,2957.996,2454.749,2957.996z"/>
			</g>
			<g>
				
					<linearGradient id="SVGID_00000083049523333883707150000014393602315167568003_" gradientUnits="userSpaceOnUse" x1="2169.7554" y1="2763.1226" x2="1486.7261" y2="3506.0676" gradientTransform="matrix(-1 0 0 1 4777.2905 0)">
					<stop  offset="0" style="stop-color:#4F52FF"/>
					<stop  offset="1" style="stop-color:#4042E2"/>
				</linearGradient>
				<path style="fill:url(#SVGID_00000083049523333883707150000014393602315167568003_);" d="M2884.774,2980.228
					c0,0,11.26,20.216,22.161,73.936c1.969,9.701-4.81,18.986-14.661,19.955c-17.43,1.714-44.265,3.917-65.76,3.77
					c-9.909-0.068-17.642-8.696-16.448-18.533c2.381-19.608,9.798-51.778,32.713-76.852L2884.774,2980.228z"/>
				
					<linearGradient id="SVGID_00000123399100159880948090000016238092138123599777_" gradientUnits="userSpaceOnUse" x1="1882.6272" y1="2956.0601" x2="1935.0103" y2="2956.0601" gradientTransform="matrix(-1 0 0 1 4777.2905 0)">
					<stop  offset="0" style="stop-color:#A22B25"/>
					<stop  offset="1" style="stop-color:#C0423C"/>
				</linearGradient>
				<path style="fill:url(#SVGID_00000123399100159880948090000016238092138123599777_);" d="M2894.663,2918.619l-13.279,72.436
					c0,0-13.13,9.766-39.104,2.686l6.339-77.938L2894.663,2918.619z"/>
				
					<linearGradient id="SVGID_00000096059260904757971810000003783712787860897180_" gradientUnits="userSpaceOnUse" x1="1100.9073" y1="5002.3311" x2="1566.1461" y2="3535.6501" gradientTransform="matrix(-1 0 0 1 4777.2905 0)">
					<stop  offset="0" style="stop-color:#4F52FF"/>
					<stop  offset="1" style="stop-color:#4042E2"/>
				</linearGradient>
				<path style="fill:url(#SVGID_00000096059260904757971810000003783712787860897180_);" d="M2930.538,2054.061
					c53.477,322.737-11.601,797.671-33.548,890.628c-1.344,5.69-5.937,10.051-11.705,11.007c-9.797,1.624-25.927,2.949-41.828-1.669
					c-5.478-1.591-9.328-6.533-9.551-12.234c-2.945-75.152,2.355-536.514-47.473-718.846c-2.526-9.24-8.168-17.299-15.975-22.849
					l-96.713-68.755l-7.415-111.136L2930.538,2054.061z"/>
			</g>
			
				<linearGradient id="SVGID_00000031194360948917759570000015023944403051967621_" gradientUnits="userSpaceOnUse" x1="2615.5837" y1="909.9643" x2="2617.2527" y2="1258.8297">
				<stop  offset="0" style="stop-color:#E1473D"/>
				<stop  offset="1" style="stop-color:#E9605A"/>
			</linearGradient>
			<path style="fill:url(#SVGID_00000031194360948917759570000015023944403051967621_);" d="M2659.013,1159.71
				c-0.509,2.481-12.96,5.149-37.841,10.382c-12.701,2.671-19.186,3.973-25.765,2.293c-2.758-0.704-17.883-4.564-20.576-16.603
				c-1.976-8.831,4.035-16.266,4.391-16.693c0.932-1.117,4.332-4.937,11.988-7.042c6.715-1.846,16.218-2.239,35.006,5.797
				C2638.386,1143.051,2660.494,1152.487,2659.013,1159.71z"/>
			<g>
				
					<linearGradient id="SVGID_00000029040531957846468250000008808182141122620306_" gradientUnits="userSpaceOnUse" x1="237.8036" y1="1798.9905" x2="-406.7975" y2="2490.9011" gradientTransform="matrix(-1 0 0 1 3050.1719 0)">
					<stop  offset="0" style="stop-color:#FE7062"/>
					<stop  offset="1" style="stop-color:#FF928E"/>
				</linearGradient>
				<path style="fill:url(#SVGID_00000029040531957846468250000008808182141122620306_);" d="M2589.781,1442.536
					c160.26-2.648,337.09,42.08,337.09,42.08c47.77,278.738,8.353,600.242,8.353,600.242
					c-84.553,22.174-184.432,14.237-239.477,6.931c-24.601-3.265-44.329-21.893-49.115-46.244
					c-27.658-140.715-92.269-424.971-92.269-424.971c-78.303-9.718-142.807-32.309-195.927-62.177
					c40.519-46.968,59.62-106.731,67.917-142.059C2483.015,1433.947,2540.351,1443.353,2589.781,1442.536z"/>
				
					<linearGradient id="SVGID_00000085970793216143190560000016451124050440506793_" gradientUnits="userSpaceOnUse" x1="16176.6875" y1="13511.3203" x2="15753.8193" y2="13177.4766" gradientTransform="matrix(-1 0 0 1 3050.1719 0)">
					<stop  offset="0" style="stop-color:#A22B25"/>
					<stop  offset="1" style="stop-color:#C0423C"/>
				</linearGradient>
				<path style="fill:url(#SVGID_00000085970793216143190560000016451124050440506793_);" d="M2116.4,1206.481
					c15.743-19.015,35.668-10.019,35.668-10.019c23.584,99.62,147.242,180.394,274.284,219.876
					c-8.297,35.328-27.398,95.091-67.917,142.059C2147.598,1439.851,2116.4,1206.481,2116.4,1206.481z"/>
				
					<linearGradient id="SVGID_00000129202302207656485710000012697026659636092065_" gradientUnits="userSpaceOnUse" x1="17842.5391" y1="13950.5313" x2="17419.6758" y2="13616.6904" gradientTransform="matrix(-0.9902 0.1395 0.1395 0.9902 2518.321 872.4636)">
					<stop  offset="0" style="stop-color:#A22B25"/>
					<stop  offset="1" style="stop-color:#C0423C"/>
				</linearGradient>
				<path style="fill:url(#SVGID_00000129202302207656485710000012697026659636092065_);" d="M2162.734,1158.632
					c1.477-10.032,2.164-20.978-3.156-29.611c-5.527-8.97-16.124-13.223-24.173-20.021c-16.767-14.16-21.14-37.891-23.619-59.696
					c-19.261,7.326-32.708,26.316-36.448,46.581s1.286,41.437,10.755,59.74c4.905,9.482,10.961,18.317,16.272,27.577
					c7.755,13.522,21.638,37.554,41.231,27.705C2158.532,1203.399,2160.671,1172.643,2162.734,1158.632z"/>
			</g>
			
				<linearGradient id="SVGID_00000078741736623562358870000007904731157312512649_" gradientUnits="userSpaceOnUse" x1="70.6536" y1="1643.2703" x2="-573.9451" y2="2335.1785" gradientTransform="matrix(-1 0 0 1 3050.1719 0)">
				<stop  offset="0" style="stop-color:#FE7062"/>
				<stop  offset="1" style="stop-color:#FF928E"/>
			</linearGradient>
			<path style="fill:url(#SVGID_00000078741736623562358870000007904731157312512649_);" d="M2865.401,1639.795l61.47-155.179
				c0,0,149.691,101.709,174.309,230.666c-28.284,2.083-79.752,9.44-130.13,34.877
				C2959.98,1689.268,2865.401,1639.795,2865.401,1639.795z"/>
			
				<linearGradient id="SVGID_00000099624686780645787140000002538207829163832990_" gradientUnits="userSpaceOnUse" x1="1672.6981" y1="1815.4053" x2="2064.9453" y2="1815.4053" gradientTransform="matrix(-1 0 0 1 4777.2905 0)">
				<stop  offset="0" style="stop-color:#A22B25"/>
				<stop  offset="1" style="stop-color:#C0423C"/>
			</linearGradient>
			<path style="fill:url(#SVGID_00000099624686780645787140000002538207829163832990_);" d="M2734.587,1785.813
				c0,0,168.067,94.983,224.774,13.879c11.774-16.841,14.589-33.577,11.689-49.534c50.377-25.437,101.845-32.794,130.13-34.877
				c7.423,38.875,3.499,80.222-19.346,122.012c-99.333,181.709-369.489-10.042-369.489-10.042L2734.587,1785.813z"/>
			
				<linearGradient id="SVGID_00000047779531021528347140000017970169272823817367_" gradientUnits="userSpaceOnUse" x1="2727.1306" y1="1206.6383" x2="2724.905" y2="1522.6766">
				<stop  offset="0" style="stop-color:#A22B25"/>
				<stop  offset="1" style="stop-color:#C0423C"/>
			</linearGradient>
			<path style="fill:url(#SVGID_00000047779531021528347140000017970169272823817367_);" d="M2752.112,1312.43l50.992,147.466
				c0.845,2.443-0.16,5.148-2.422,6.399c-13.9,7.685-63.979,29.899-124.328-8.364c-6.287-3.986-10.567-10.486-11.522-17.869
				l-16.513-127.632H2752.112z"/>
			<g>
				
					<linearGradient id="SVGID_00000008148219829945526510000009862304485034762428_" gradientUnits="userSpaceOnUse" x1="1167.1718" y1="-8227.3691" x2="1000.2501" y2="-7958.0688" gradientTransform="matrix(-0.746 -0.6659 -0.6659 0.746 -349.0451 -803.1727)">
					<stop  offset="0" style="stop-color:#A22B25"/>
					<stop  offset="1" style="stop-color:#C0423C"/>
				</linearGradient>
				<path style="fill:url(#SVGID_00000008148219829945526510000009862304485034762428_);" d="M2644.488,1164.867
					c0,0-59.324,116.409-52.146,158.987c7.178,42.578,76.574,39.521,137.174,4.941l42.346-113.813L2644.488,1164.867z"/>
				
					<linearGradient id="SVGID_00000161594645618127693730000018080868204432408722_" gradientUnits="userSpaceOnUse" x1="3207.8428" y1="316.4879" x2="3027.5674" y2="663.6855">
					<stop  offset="0" style="stop-color:#09005D"/>
					<stop  offset="1" style="stop-color:#1A0F91"/>
				</linearGradient>
				<path style="fill:url(#SVGID_00000161594645618127693730000018080868204432408722_);" d="M2726.838,1272.901
					c-2.463-1.091-3.372-4.104-1.896-6.358c4.486-6.853,12.896-20.835,15.578-33.076c0,0,10.067-6.447-25.62-14.988
					c-35.686-8.542-44.701-28.392-55.886-58.768c-11.184-30.37,41.262-86.62,91.138-19.465c1.133-1.876-21.16-50.475,13.244-35.038
					c25.713,11.537,4.621,29.065,4.442,38.49c-0.052,2.736,2.625,4.764,5.315,4.259c13.058-2.452,55.182-7.381,58.305,27.31
					c3.844,42.695-7.774,52.718-10.326,53.998c13.78,1.206,16.303,16.803,16.3,30.799c-0.003,15.126-21.198,25.607-29.821,24.356
					c-1.394-0.202-2.776,0.303-3.72,1.348c-7.459,8.26-41.354,43.653-78.051,47.941c-3.192,0.373-5.688-2.745-4.642-5.784
					l15.869-46.129c0.737-2.142-0.288-4.493-2.359-5.41L2726.838,1272.901z"/>
				
					<linearGradient id="SVGID_00000078020973201417515480000000107358504745258395_" gradientUnits="userSpaceOnUse" x1="1117.9219" y1="-8257.9053" x2="951.0004" y2="-7988.606" gradientTransform="matrix(-0.746 -0.6659 -0.6659 0.746 -349.0451 -803.1727)">
					<stop  offset="0" style="stop-color:#A22B25"/>
					<stop  offset="1" style="stop-color:#C0423C"/>
				</linearGradient>
				<path style="fill:url(#SVGID_00000078020973201417515480000000107358504745258395_);" d="M2720.459,1279.449
					c0,0,39.869-27.354,42.782-4.318c2.913,23.035-35.902,33.366-55.128,24.778L2720.459,1279.449z"/>
			</g>
			
				<linearGradient id="SVGID_00000060718985571208416180000017226158774674868622_" gradientUnits="userSpaceOnUse" x1="2817.1072" y1="1046.3413" x2="2932.8394" y2="841.5845">
				<stop  offset="0" style="stop-color:#FE7062"/>
				<stop  offset="1" style="stop-color:#FF928E"/>
			</linearGradient>
			<path style="fill:url(#SVGID_00000060718985571208416180000017226158774674868622_);" d="M2658.86,1127.202
				c12.665-19.649,25.904-40.879,38.569-60.527c0,0,10.396-19.502,36.299-17.59c11.834,0.874,31.312,4.078,58.764,21.308
				c15.544,9.755,27.353,17.167,39.214,31.673c8.467,10.355,29.04,35.515,24.759,64.663c-1.497,10.195-5.932,18.508-14.801,35.136
				c-1.392,2.609-2.784,5.103-4.162,7.478c-8.163,14.071-25,20.631-40.47,15.6c-0.219-0.071-0.44-0.143-0.66-0.215
				c-43.629-14.267-107.951-35.291-132.188-86.994C2661.647,1132.319,2659.55,1129.37,2658.86,1127.202z"/>
			
				<linearGradient id="SVGID_00000132055162401855383150000008217831789590266759_" gradientUnits="userSpaceOnUse" x1="2650.522" y1="1198.3009" x2="2770.7053" y2="1158.2397">
				<stop  offset="0" style="stop-color:#FE7062"/>
				<stop  offset="0.3546" style="stop-color:#FE7265"/>
				<stop  offset="0.6144" style="stop-color:#FE7A6E"/>
				<stop  offset="0.8432" style="stop-color:#FF867E"/>
				<stop  offset="1" style="stop-color:#FF928E"/>
			</linearGradient>
			<path style="fill:url(#SVGID_00000132055162401855383150000008217831789590266759_);" d="M2590.323,1132.306
				c0.482-0.145,1.313-0.39,2.351-0.663c11.151-2.947,18.385-2.007,35.458-2.712c4.557-0.188,7.005-0.4,9.382-0.636
				c3.179-0.315,5.179-0.669,11.883-1.304c5.267-0.498,13.228-1.273,23.491,0.538c15.522,2.739,26.256,9.619,34.425,15.037
				c37.279,24.726,62.452,49.595,72.592,58.049c10.159,8.47,17.815,21.492,23.497,26.345c-17.566,13.243-28.49,14.74-39.719,19.158
				c-15.585,6.134-27.011,10.459-40.981,7.581c-2.769-0.571-13.006-2.942-26.315-14.529c-25.484-22.187-18.144-39.779-42.251-66.85
				c-14.364-16.13-32.456-25.523-39.279-29.202C2605.372,1138.003,2596.849,1134.583,2590.323,1132.306z"/>
			
				<linearGradient id="SVGID_00000150819746659342347790000010732397483604861601_" gradientUnits="userSpaceOnUse" x1="2700.4541" y1="1980.9828" x2="2443.1804" y2="1634.1219">
				<stop  offset="0" style="stop-color:#09005D"/>
				<stop  offset="1" style="stop-color:#1A0F91"/>
			</linearGradient>
			<path style="fill:url(#SVGID_00000150819746659342347790000010732397483604861601_);" d="M2721.38,1898.198l-393.266-29.065
				c-4.053-0.3-7.096-3.828-6.796-7.881l17.677-239.178c0.299-4.053,3.828-7.096,7.881-6.796l393.266,29.065
				c4.053,0.3,7.095,3.828,6.796,7.881l-17.677,239.178C2728.961,1895.455,2725.432,1898.498,2721.38,1898.198z"/>
			
				<linearGradient id="SVGID_00000072245643238344827260000005168304301109586612_" gradientUnits="userSpaceOnUse" x1="815.8801" y1="1841.5504" x2="948.0892" y2="1841.5504" gradientTransform="matrix(-0.9495 0.3139 0.3139 0.9495 2940.1165 -233.141)">
				<stop  offset="0" style="stop-color:#A22B25"/>
				<stop  offset="1" style="stop-color:#C0423C"/>
			</linearGradient>
			<path style="fill:url(#SVGID_00000072245643238344827260000005168304301109586612_);" d="M2731.864,1836.697
				c11.953-0.72,20.767-11.51,19.279-23.392c-2.333-18.636-6.962-46.996-14.48-58.247c-11.625-17.398-30.023-38.626-62.407-21.85
				c-32.385,16.776-67.957,44.515-67.957,44.515s10.283,24.268,33.61,7.629l-11.993,17.797c0,0,8.906,19.209,27.329,1.282
				l-9.521,21.492c0,0,14.85,13.285,27.521-2.574C2683.698,1810.269,2701.47,1838.526,2731.864,1836.697z"/>
		</g>
		<g>
			
				<linearGradient id="SVGID_00000170273177196985112940000000640890067460773506_" gradientUnits="userSpaceOnUse" x1="882.8963" y1="3262.6594" x2="1033.4149" y2="2996.9619">
				<stop  offset="0" style="stop-color:#FF928E"/>
				<stop  offset="1" style="stop-color:#FEB3B1"/>
			</linearGradient>
			<path style="fill:url(#SVGID_00000170273177196985112940000000640890067460773506_);" d="M1000.606,3031.94l39.698-66.813
				c-17.654-9.016-34.993-18.596-51.914-28.835c-5.782,14.379-10.94,27.017-15.074,37.059c-6.768,16.441-18.59,30.277-33.769,39.533
				l-27.079,7.45l23.012,169.951l92.165,6.985c-8.773-10.688-20.578-27.459-43.956-30.602c-5.506-48.852,4.55-94.651,9.633-116.563
				C994.808,3043.706,997.25,3037.588,1000.606,3031.94z"/>
			
				<linearGradient id="SVGID_00000095308743080273837650000009659225788450718362_" gradientUnits="userSpaceOnUse" x1="389.434" y1="3154.2505" x2="510.3529" y2="3154.2505" gradientTransform="matrix(0.974 -0.2267 0.2267 0.974 -197.5686 145.5127)">
				<stop  offset="0" style="stop-color:#4F52FF"/>
				<stop  offset="1" style="stop-color:#4042E2"/>
			</linearGradient>
			<path style="fill:url(#SVGID_00000095308743080273837650000009659225788450718362_);" d="M1031.138,3186.873
				c-11.57-7.197-46.336-22.43-46.336-22.43s-24.556,14.531-30.313-10.538c-8.821-38.406-37.892-134.664-37.892-134.664
				c-2.272-6.691-21.198,8.523-22.902,10.438c-4.474,5.027-8.342,15.566-11.041,21.73c-3.039,6.939,0.015,18.802,1.577,21.861
				c22.951,44.967,22.986,75.377,41.058,119.073c4.092,9.895,13.442,16.641,24.128,17.33c30.683,1.977,62.394,2.124,78.685-2.79
				C1037.108,3204.163,1039.126,3191.844,1031.138,3186.873z"/>
			
				<linearGradient id="SVGID_00000004517118009852908820000007934085586074283188_" gradientUnits="userSpaceOnUse" x1="1755.3041" y1="1818.5641" x2="1484.905" y2="2103.9858">
				<stop  offset="0" style="stop-color:#4F52FF"/>
				<stop  offset="1" style="stop-color:#4042E2"/>
			</linearGradient>
			<path style="fill:url(#SVGID_00000004517118009852908820000007934085586074283188_);" d="M1218.151,2060.106l-24.113,165.581
				c-1.535,10.54-0.678,21.267,2.31,31.491c29.325,100.36,45.51,203.609,63.962,309.271c0.455,2.604,0.482,5.27-0.031,7.863
				c-19.075,96.388-150.763,274.014-241.599,450.329c-4.979,9.665-17.598,12.065-26.004,5.17
				c-14.877-12.201-25.424-26.916-31.907-43.99c-1.901-5.006-2.006-10.503-0.445-15.625
				c51.866-170.214,101.565-361.845,166.304-404.811l-125.191-380.581L1218.151,2060.106z"/>
			
				<linearGradient id="SVGID_00000098923103541793257890000004202894630895667633_" gradientUnits="userSpaceOnUse" x1="1274.4438" y1="3068.9199" x2="897.2014" y2="3476.2078">
				<stop  offset="0" style="stop-color:#4F52FF"/>
				<stop  offset="1" style="stop-color:#4042E2"/>
			</linearGradient>
			<path style="fill:url(#SVGID_00000098923103541793257890000004202894630895667633_);" d="M1264.215,3196.221l-68.016-14.58
				l-132.521-35.152c-21.771,22.913-22.378,70.159-5.545,76.147c13.037,4.64,138.269,12.873,201.658,8.732
				C1267.908,3230.842,1285.853,3205.736,1264.215,3196.221z"/>
			
				<linearGradient id="SVGID_00000041985426946674486970000009387075832483182721_" gradientUnits="userSpaceOnUse" x1="1015.1624" y1="2875.72" x2="1210.9933" y2="2875.72">
				<stop  offset="0" style="stop-color:#FF928E"/>
				<stop  offset="1" style="stop-color:#FEB3B1"/>
			</linearGradient>
			<path style="fill:url(#SVGID_00000041985426946674486970000009387075832483182721_);" d="M1209.015,3185.547l-61.855-33.525
				c-7.448-40.56-9.26-81.342-8.67-107.788c1.327-59.319,11.111-476.982,11.111-476.982s-31.702-31.442-79.726,27.344
				c-48.024,58.784-63.704,123.872-49.9,176.462c11.695,44.551,54.567,251.443,67.397,313.625
				c2.371,11.49,0.862,23.431-4.286,33.974l-8.126,16.642l-8.921,12.452c0,0,9.661,6.573,20.901,16.45
				c4.106,6.137,80.318,21.005,119.634,28.314C1210.761,3193.294,1212.761,3187.577,1209.015,3185.547z"/>
			
				<linearGradient id="SVGID_00000176008717750716459200000003711319984469529782_" gradientUnits="userSpaceOnUse" x1="-605.4441" y1="1307.1729" x2="238.3962" y2="1707.7061" gradientTransform="matrix(-0.9999 -0.015 -0.015 0.9999 1223.1461 17.0219)">
				<stop  offset="0" style="stop-color:#09005D"/>
				<stop  offset="1" style="stop-color:#1A0F91"/>
			</linearGradient>
			<path style="fill:url(#SVGID_00000176008717750716459200000003711319984469529782_);" d="M1241.237,1285.075
				c0,0,46.641-114.281-129.281-91.24c-175.921,23.041-133.165,89.457-147.07,141.358c-13.905,51.901-87.71,110.718-293.092,190.795
				s-144.49,298.394-52.239,370.855s142.561,24.298,164.018,149.363c21.457,125.065,107.05,226.634,213.842,120.616
				c106.792-106.017,228.172-231.384,194.227-395.771c-33.946-164.388,4.496-133.29,70.762-208.704
				S1188.214,1413.935,1241.237,1285.075z"/>
			
				<linearGradient id="SVGID_00000041978602939794107850000015660794758714299302_" gradientUnits="userSpaceOnUse" x1="-58.1669" y1="1419.6675" x2="-390.6558" y2="1828.4158" gradientTransform="matrix(-1 0 0 1 1144.8313 0)">
				<stop  offset="0" style="stop-color:#FF928E"/>
				<stop  offset="1" style="stop-color:#FEB3B1"/>
			</linearGradient>
			<path style="fill:url(#SVGID_00000041978602939794107850000015660794758714299302_);" d="M1181.711,1584.442
				c27.931-28.332,75.368,46.402,82.62,63.467c18.314,43.091,37.353,81.767,76.009,111.296
				c23.914,18.268,56.232,29.982,86.49,21.204c108.978-31.615,109.484-119.153,111.937-184.723
				c-2.526-18.599,8.629-37.032,22.142-42.782c15.69-6.679,21.695-22.913,21.695-22.913s10.663,23.64-2.443,34.722
				c-4.579,3.874-5.924,8.451-5.781,12.783c1.531-0.256,3.105-0.489,4.755-0.698c32.758-4.095-0.121,42.794-0.121,42.794
				s31.71,171.634-113.543,239.844c-71.903,33.765-127.05,25.762-164.524,9.054c-18.928-6.611-35.258-18.484-49.222-33.628
				c-5.624-5.614-8.495-9.405-8.495-9.405l-0.009-0.541C1185.254,1751.202,1154.927,1611.613,1181.711,1584.442z"/>
			
				<linearGradient id="SVGID_00000095334959723371734020000011117625006019562893_" gradientUnits="userSpaceOnUse" x1="597.3025" y1="1311.6917" x2="162.8772" y2="1845.7565" gradientTransform="matrix(-1 0 0 1 1144.8313 0)">
				<stop  offset="0" style="stop-color:#FF928E"/>
				<stop  offset="1" style="stop-color:#FEB3B1"/>
			</linearGradient>
			<path style="fill:url(#SVGID_00000095334959723371734020000011117625006019562893_);" d="M641.422,1428.441
				c2.784-5.323,10.66-4.483,12.267,1.302c5.953,21.424,20.357,58.806,50.584,72.078c1.17,0.516,2.52,0.396,3.58-0.316
				c1.06-0.712,1.679-1.917,1.645-3.196c-0.071-2.651-0.865-5.466-2.76-8.362c-3.965-6.061-3.237-13.056-1.069-19.12
				c0.929-2.597,3.342-4.375,6.1-4.489c2.759-0.114,5.31,1.455,6.451,3.971c2.12,4.665,5.37,9.698,10.34,13.816
				c11.31,9.368,16.74,30.216,9.012,47.319c-16.36,63.546-40.858,147.589,54.568,208.987
				c95.423,61.398,229.806-115.872,229.806-115.872l6.009,160.471c0,0-175.655,126.94-295.401,20.114
				c-119.748-106.827-40.376-262.274-40.376-262.274S600.842,1506.025,641.422,1428.441z"/>
			<g>
				
					<linearGradient id="SVGID_00000043431059623053507250000013595774066643380356_" gradientUnits="userSpaceOnUse" x1="-385.942" y1="1569.748" x2="-374.039" y2="1852.4479" gradientTransform="matrix(-1 0 0 1 1144.8313 0)">
					<stop  offset="0" style="stop-color:#09005D"/>
					<stop  offset="1" style="stop-color:#1A0F91"/>
				</linearGradient>
				<path style="fill:url(#SVGID_00000043431059623053507250000013595774066643380356_);" d="M1459.57,1689.368
					c-3.837-8.446-2.879-19.514-2.014-28.267c2.005-20.282,1.84-40.504,2.169-60.879c0.852-52.791,0.386-105.715,4.57-158.379
					c0.903-11.366-0.312-22.767,0.575-34.085c2.25-28.728,19.099-37.205,47.128-43.2c23.707-5.069,49.555-12.049,74.05-6.843
					c9.649,2.05,18.931,7.328,20.137,17.399c4.866,40.66,3.653,307.098-45.422,314.429c-16.573,2.476-33.02,5.377-49.494,8.345
					c-11.714,2.11-27.375,6.556-39.172,2.588C1465.657,1698.309,1461.802,1694.282,1459.57,1689.368z"/>
				
					<linearGradient id="SVGID_00000034785804077516108150000013377354663386487687_" gradientUnits="userSpaceOnUse" x1="2299.3552" y1="1288.769" x2="2021.1526" y2="1377.7941">
					<stop  offset="0" style="stop-color:#09005D"/>
					<stop  offset="1" style="stop-color:#1A0F91"/>
				</linearGradient>
				<path style="fill:url(#SVGID_00000034785804077516108150000013377354663386487687_);" d="M1479.036,1689.368
					c-3.836-8.446-2.879-19.514-2.013-28.267c2.005-20.282,1.84-40.504,2.169-60.879c0.852-52.791,0.385-105.715,4.569-158.379
					c0.904-11.366-0.312-22.767,0.575-34.085c2.25-28.728,19.099-37.205,47.129-43.2c23.707-5.069,49.555-12.049,74.051-6.843
					c9.649,2.05,18.931,7.328,20.137,17.399c4.866,40.66,3.653,307.098-45.421,314.429c-16.574,2.476-33.02,5.377-49.494,8.345
					c-11.714,2.11-27.375,6.556-39.172,2.588C1485.124,1698.309,1481.268,1694.282,1479.036,1689.368z"/>
			</g>
			
				<linearGradient id="SVGID_00000062913621030754557130000012408613689214453155_" gradientUnits="userSpaceOnUse" x1="-412.4019" y1="1483.0773" x2="-508.2057" y2="1600.8546" gradientTransform="matrix(-1 0 0 1 1144.8313 0)">
				<stop  offset="0" style="stop-color:#FF928E"/>
				<stop  offset="1" style="stop-color:#FEB3B1"/>
			</linearGradient>
			<path style="fill:url(#SVGID_00000062913621030754557130000012408613689214453155_);" d="M1620.555,1614.764
				c0,0,8.905-6.05,16.224-42.197c7.319-36.148,14.583-58.043,0-74.813c-14.583-16.77-37.186-17.499-37.186,0
				c0,17.499,3.788,49.734,1.165,74.813C1598.135,1597.645,1604.331,1656.962,1620.555,1614.764z"/>
			<path style="fill:#BDD0FB;" d="M613.389,1610.478c-14.043,20.638-23.946,44.038-30.348,68.313
				c-6.337,24.323-8.164,49.923-5.088,75.041c3.69,25.027,12.591,49.299,26.329,70.45c3.645,5.138,7.034,10.447,11.141,15.218
				c1.999,2.421,3.889,4.933,5.974,7.274l6.41,6.878c4.178,4.677,9.12,8.587,13.626,12.896c4.694,4.116,9.711,7.858,14.586,11.717
				c-18.543-16.619-35.139-35.326-47.93-56.36c-6.005-10.718-11.821-21.575-15.774-33.207c-4.042-11.569-6.942-23.517-8.589-35.653
				c-3.448-24.292-1.628-49.156,3.659-73.212c2.605-12.056,6.211-23.91,10.581-35.494
				C602.211,1632.702,607.368,1621.38,613.389,1610.478z"/>
			
				<linearGradient id="SVGID_00000167385312522527683290000017678344701501954717_" gradientUnits="userSpaceOnUse" x1="1084.6521" y1="2534.4211" x2="633.9868" y2="2940.0198">
				<stop  offset="0" style="stop-color:#4F52FF"/>
				<stop  offset="1" style="stop-color:#4042E2"/>
			</linearGradient>
			<path style="fill:url(#SVGID_00000167385312522527683290000017678344701501954717_);" d="M1043.166,2031.236
				c-62.525,14.654-86.587,69.779-103.125,132.821c-8.53,32.514-8.946,66.635-1.96,99.516
				c34.331,161.584,81.217,201.469,101.746,340.204c-50.671,56.948-22.176,206.601,24.009,427.406
				c0.666,3.184,3.002,5.761,6.087,6.795c21.261,7.128,46.912,6.557,77.25-2.24c5.65-1.638,9.596-6.784,9.745-12.664l11.439-451.011
				l-26.164-312.425c-1.451-17.331,1.543-34.745,8.7-50.595c20.855-45.281,29.179-96.07,31.651-149.429L1043.166,2031.236z"/>
			
				<linearGradient id="SVGID_00000031178309484649131940000005206069385589420469_" gradientUnits="userSpaceOnUse" x1="911.8347" y1="1862.1686" x2="1152.1891" y2="1476.5994">
				<stop  offset="0" style="stop-color:#FE7062"/>
				<stop  offset="1" style="stop-color:#FF928E"/>
			</linearGradient>
			<path style="fill:url(#SVGID_00000031178309484649131940000005206069385589420469_);" d="M921.228,1727.099
				c23.284,27.116,40.013,54.557,48.308,82.413c2.988,10.034,13.951,15.432,23.846,12.014c15.309-5.288,30.109-12.788,44.483-22.14
				c12.674-8.246,20.232-22.437,20.054-37.557l-1.956-166.259c-44.207,20.094-87.406,60.851-133.145,103.157
				C914.729,1706.21,914.049,1718.74,921.228,1727.099z"/>
			
				<linearGradient id="SVGID_00000177474189558040547120000012130342895420122252_" gradientUnits="userSpaceOnUse" x1="1395.9076" y1="1549.1885" x2="1836.5586" y2="1003.3818">
				<stop  offset="0" style="stop-color:#FE7062"/>
				<stop  offset="1" style="stop-color:#FF928E"/>
			</linearGradient>
			<path style="fill:url(#SVGID_00000177474189558040547120000012130342895420122252_);" d="M1312.306,1860.274
				c4.704-36.181,18.457-67.527,38.82-95.341c4.57-6.242,3.217-14.955-2.962-19.612c-47.339-35.682-108.587-178.684-147.399-165.129
				l79.986,285.791l13.823,5.12C1302.596,1874.074,1311.203,1868.757,1312.306,1860.274z"/>
			
				<linearGradient id="SVGID_00000003089885911730692840000002050487135546420895_" gradientUnits="userSpaceOnUse" x1="1054.8822" y1="1951.3412" x2="1295.2368" y2="1565.7716">
				<stop  offset="0" style="stop-color:#FE7062"/>
				<stop  offset="1" style="stop-color:#FF928E"/>
			</linearGradient>
			<path style="fill:url(#SVGID_00000003089885911730692840000002050487135546420895_);" d="M1200.766,1580.193
				c-28.544-8.558-111.656-24.357-190.71,48.598c-13.408,12.372-18.888,31.174-14.105,48.78
				c21.233,78.171,92.443,254.293,43.321,354.221c0,0,62.317,87.912,178.05,56.753c0,0,30.138-168.079,85.636-249.149
				c38.317-55.971-61.096-210.179-86.25-247.434C1212.898,1586.322,1207.285,1582.147,1200.766,1580.193z"/>
			
				<linearGradient id="SVGID_00000154427613272994175500000008570693745307773578_" gradientUnits="userSpaceOnUse" x1="1161.551" y1="1349.9897" x2="1083.6541" y2="1815.1447">
				<stop  offset="0" style="stop-color:#FF928E"/>
				<stop  offset="1" style="stop-color:#FEB3B1"/>
			</linearGradient>
			<path style="fill:url(#SVGID_00000154427613272994175500000008570693745307773578_);" d="M1121.952,1424.887
				c0,0-42.215,119.409-45.391,172.087c0,0,46.657,21.216,90.62-14.593c0,0,4.613-119.27,11.279-140.626L1121.952,1424.887z"/>
			
				<linearGradient id="SVGID_00000100355739372984283020000003023220960723772310_" gradientUnits="userSpaceOnUse" x1="-2334.7502" y1="17187.7188" x2="-2490.543" y2="16842.748" gradientTransform="matrix(-0.9602 0.2794 0.2794 0.9602 -8055.5967 797.6744)">
				<stop  offset="0" style="stop-color:#FF928E"/>
				<stop  offset="1" style="stop-color:#FEB3B1"/>
			</linearGradient>
			<path style="fill:url(#SVGID_00000100355739372984283020000003023220960723772310_);" d="M1180.59,1262.076
				c0,0,110.416,154.522,44.412,199.405c-66.003,44.884-144.605-64.929-144.605-64.929s-25.62-84.575,1.169-113.266
				C1108.357,1254.595,1180.59,1262.076,1180.59,1262.076z"/>
			
				<linearGradient id="SVGID_00000083084464178684602760000002480720919807539358_" gradientUnits="userSpaceOnUse" x1="-495.9244" y1="1045.0439" x2="347.924" y2="1445.5811" gradientTransform="matrix(-1 0 0 1 1144.8313 0)">
				<stop  offset="0" style="stop-color:#09005D"/>
				<stop  offset="1" style="stop-color:#1A0F91"/>
			</linearGradient>
			<path style="fill:url(#SVGID_00000083084464178684602760000002480720919807539358_);" d="M1043.535,1260.567
				c20.896-50.318,85.946-35.417,85.946-35.417s50.725,12.019,57.835,34.97c3.198,10.324-11.041,20.313-29.692,28.271
				c-41.535,17.727-71.721,55.066-80.266,99.409l-1.968,10.208C1075.39,1398.008,1022.639,1310.886,1043.535,1260.567z"/>
			
				<linearGradient id="SVGID_00000139282235874218376010000005674575985800127679_" gradientUnits="userSpaceOnUse" x1="-2257.8423" y1="17153" x2="-2413.6353" y2="16808.0273" gradientTransform="matrix(-0.9602 0.2794 0.2794 0.9602 -8055.5967 797.6744)">
				<stop  offset="0" style="stop-color:#FF928E"/>
				<stop  offset="1" style="stop-color:#FEB3B1"/>
			</linearGradient>
			<path style="fill:url(#SVGID_00000139282235874218376010000005674575985800127679_);" d="M1101.802,1385.182
				c0,0-42.977-49.773-60.072-17.324c-17.094,32.448,38.685,56.809,57.993,40.878L1101.802,1385.182z"/>
			<path style="fill:#BDD0FB;" d="M1060.017,1248.342c-16.853,3.58-33.101,11.572-45.57,24.067
				c-6.101,6.366-10.871,14.03-13.984,22.341l-2.07,6.343l-1.186,6.557c-0.838,4.417-1.241,8.496-1.952,12.743
				c-6.168,33.489-20.88,65.459-42.745,91.54c-10.779,13.153-23.331,24.856-37.246,34.656c-13.85,9.954-29.29,17.26-44.869,24.711
				c-15.557,7.374-31.344,14.272-47.359,20.607c-15.965,6.468-32.191,12.338-48.819,16.981
				c33.848-7.189,66.316-19.786,98.034-33.503c15.827-6.784,31.676-14.449,46.061-24.449c14.399-9.929,27.464-21.834,38.687-35.286
				c22.114-27.14,37.284-59.974,42.666-94.548c0.588-4.284,0.908-8.821,1.573-12.902l0.92-6.215l1.768-6.018
				c2.683-7.918,6.985-15.295,12.603-21.62C1027.841,1261.668,1043.529,1253.166,1060.017,1248.342z"/>
		</g>
		<g>
			<g>
				
					<linearGradient id="SVGID_00000054960915950820445090000010115692720245217153_" gradientUnits="userSpaceOnUse" x1="1568.499" y1="1281.663" x2="2184.4077" y2="525.5474">
					<stop  offset="0" style="stop-color:#FF928E"/>
					<stop  offset="1" style="stop-color:#FEB3B1"/>
				</linearGradient>
				
					<circle style="fill:url(#SVGID_00000054960915950820445090000010115692720245217153_);" cx="1695.485" cy="1125.77" r="187.074"/>
				<g>
					<path style="fill:#FFFFFF;" d="M1656.412,1224.052c-4.299-83.093-5.072-143.722-2.894-151.14
						c0.462-1.573,1.344-3.626,2.417-7.125c11.766-38.329-0.256-62.158,11.371-70.993c5.159-3.919,12.057-2.674,17.797-1.637
						c27.623,4.989,47.617,42.264,43.203,71.727c-0.687,4.584-1.843,8.163-2.532,10.095c1.888-0.038,3.35-0.081,4.814-0.095
						c12.242-0.112,24.537-0.986,36.718-0.164c24.361,1.643,43.512,21.639,44.589,46.028c0.578,13.067,1.424,26.277,0.181,39.234
						c-1.988,20.718-14.248,35.668-30.819,47.258c-9.613,6.723-19.987,11.43-31.141,13.753c-6.472,1.348-11.531,1.542-14.173,1.631
						C1707.27,1223.598,1662.638,1223.998,1656.412,1224.052z"/>
					<path style="fill:#FFFFFF;" d="M1633.477,1076.833c0.993,49.454,1.976,98.375,2.966,147.645
						c-10.533,0.212-20.898,0.696-31.252,0.505c-4.769-0.088-7.875-4.364-8.042-9.779c-0.297-9.569-0.446-19.144-0.637-28.717
						c-0.643-32.237-1.287-64.475-1.909-96.713c-0.165-8.575,3.265-12.188,11.731-12.389
						C1615.301,1077.173,1624.271,1077.018,1633.477,1076.833z"/>
				</g>
			</g>
			<g>
				
					<linearGradient id="SVGID_00000096017465136367607880000008717219414681538731_" gradientUnits="userSpaceOnUse" x1="1299.7659" y1="1137.8475" x2="1279.7366" y2="141.3753">
					<stop  offset="0" style="stop-color:#FF928E"/>
					<stop  offset="1" style="stop-color:#FEB3B1"/>
				</linearGradient>
				
					<circle style="fill:url(#SVGID_00000096017465136367607880000008717219414681538731_);" cx="1295.246" cy="912.997" r="187.074"/>
				<path style="fill:#FFFFFF;" d="M1419.651,898.942c-2.034-38.164-27.968-70.227-60.267-74.286
					c-25.688-3.228-48.545,11.292-60.712,34.785c-12.196-24.648-35.265-41.455-61.439-40.741
					c-33.287,0.907-60.326,31.131-62.458,70.024c-1.409,25.699,7.917,49.319,23.228,65.243l93.963,76.534
					c4.059,3.306,9.352,3.454,13.403,0.381l92.037-69.829C1412.09,946.534,1420.994,924.143,1419.651,898.942z"/>
			</g>
			<g>
				
					<linearGradient id="SVGID_00000093858801073174330660000006440569584616970130_" gradientUnits="userSpaceOnUse" x1="850.8596" y1="1207.6163" x2="705.6458" y2="406.4334">
					<stop  offset="0" style="stop-color:#FF928E"/>
					<stop  offset="1" style="stop-color:#FEB3B1"/>
				</linearGradient>
				
					<circle style="fill:url(#SVGID_00000093858801073174330660000006440569584616970130_);" cx="820.091" cy="1037.855" r="187.074"/>
				<g>
					<path style="fill:#FFFFFF;" d="M753.571,1143.503l9.278-62.218l-28.974,0.546v-31.964l34.672-0.518l5.691-38.808l-30.326,0.31
						v-32.273l35.299-0.222l8.865-60.113l31.406,0.034l-8.797,59.882l31.932-0.201l9.078-59.646l30.92,0.033l-9.009,59.418
						l27.654-0.174v31.654l-32.513,0.332l-5.56,38.358l28.761-0.43v31.35l-33.981,0.64l-8.715,61.484l-31.529,0.832l8.783-61.723
						l-32.06,0.604l-8.853,61.968L753.571,1143.503z M832.121,1048.398l5.603-38.506l-31.971,0.326l-5.647,38.658L832.121,1048.398z
						"/>
				</g>
			</g>
		</g>
	</g>
</g>
</svg>
