<svg xmlns="http://www.w3.org/2000/svg" xml:space="preserve" style="enable-background:new 0 0 3710 3710" viewBox="0 0 3710 3710"><path d="M0 0h3710v3710H0z" style="fill:#fff"/><linearGradient id="a" x1="3423.394" x2="1371.966" y1="3604.433" y2="1390.193" gradientUnits="userSpaceOnUse"><stop offset="0" style="stop-color:#dae3fe"/><stop offset="1" style="stop-color:#e9effd"/></linearGradient><path d="M3137.514 2342.62c-281.881 658.864-1025.956 941.862-1608.951 893.61-159.181-13.175-479.457-39.683-729.532-276.169-480.25-454.158-406.287-1403.475 53.45-1962.38 59.205-71.975 469.011-554.203 1107.617-547.749 467.552 4.726 795.723 268.84 835.627 301.744 50.41 41.566 161.594 140.34 261.797 297.039 235.443 368.188 256.14 882.181 79.992 1293.905z" style="fill:url(#a)"/><path d="M2350.67 2398.395a4.182 4.182 0 0 1-3.33-6.7 449.157 449.157 0 0 1 10.425-13.253c1.457-1.792 4.093-2.045 5.878-.592a4.179 4.179 0 0 1 .59 5.88 437.37 437.37 0 0 0-10.225 13.008 4.177 4.177 0 0 1-3.338 1.657zM3131.6 2577.245a4.183 4.183 0 0 1-4.095-3.362 432.262 432.262 0 0 0-7.958-33.075 4.177 4.177 0 0 1 2.885-5.158c2.212-.657 4.529.661 5.158 2.881a441.71 441.71 0 0 1 8.114 33.72 4.175 4.175 0 0 1-4.104 4.994zm-26.614-86.002a4.182 4.182 0 0 1-3.846-2.538 436.031 436.031 0 0 0-14.577-30.741 4.178 4.178 0 0 1 1.767-5.639c2.044-1.077 4.568-.277 5.639 1.763a445.848 445.848 0 0 1 14.858 31.337 4.18 4.18 0 0 1-3.841 5.818zm-43.623-78.763a4.167 4.167 0 0 1-3.436-1.795 438.762 438.762 0 0 0-20.475-27.167 4.179 4.179 0 0 1 6.471-5.288 447.628 447.628 0 0 1 20.867 27.689 4.177 4.177 0 0 1-1.049 5.814 4.134 4.134 0 0 1-2.378.747zm-662.358-68.051a4.177 4.177 0 0 1-2.871-7.214 447.2 447.2 0 0 1 26.112-22.813 4.18 4.18 0 0 1 5.248 6.504 438.797 438.797 0 0 0-25.618 22.38 4.17 4.17 0 0 1-2.871 1.143zm603.724-.245a4.165 4.165 0 0 1-2.875-1.146 430.003 430.003 0 0 0-25.578-22.385 4.177 4.177 0 0 1-.624-5.875 4.182 4.182 0 0 1 5.875-.628 440.41 440.41 0 0 1 26.075 22.826 4.174 4.174 0 0 1-2.873 7.208zm-532.299-54.587a4.178 4.178 0 0 1-2.199-7.732 450.497 450.497 0 0 1 30.184-17.068 4.172 4.172 0 0 1 5.627 1.799 4.174 4.174 0 0 1-1.799 5.627 442.99 442.99 0 0 0-29.621 16.75 4.147 4.147 0 0 1-2.192.624zm460.925-.22c-.747 0-1.503-.2-2.187-.621a435.337 435.337 0 0 0-29.638-16.676 4.179 4.179 0 0 1-1.814-5.623 4.18 4.18 0 0 1 5.625-1.812 441.895 441.895 0 0 1 30.209 16.995 4.179 4.179 0 0 1-2.195 7.737zm-379.904-39.045a4.177 4.177 0 0 1-3.927-2.75 4.184 4.184 0 0 1 2.501-5.358 443.325 443.325 0 0 1 33.038-10.543 4.178 4.178 0 1 1 2.223 8.054 435.443 435.443 0 0 0-32.41 10.344 4.16 4.16 0 0 1-1.425.253zm298.816-.009c-.471 0-.949-.078-1.418-.249a441.97 441.97 0 0 0-32.422-10.291 4.177 4.177 0 1 1 2.216-8.054 445.933 445.933 0 0 1 33.042 10.487 4.173 4.173 0 0 1 2.511 5.345 4.172 4.172 0 0 1-3.929 2.762zm-87.34-21.756c-.198 0-.398-.013-.6-.041a435.466 435.466 0 0 0-33.84-3.505 4.18 4.18 0 0 1-3.903-4.439c.149-2.301 2.169-3.987 4.437-3.901a447.2 447.2 0 0 1 34.493 3.57 4.18 4.18 0 0 1-.587 8.316zm-124.138-.069a4.18 4.18 0 0 1-4.131-3.591 4.18 4.18 0 0 1 3.548-4.725 442.427 442.427 0 0 1 34.495-3.537c2.338-.041 4.289 1.607 4.433 3.909a4.179 4.179 0 0 1-3.907 4.431 433.938 433.938 0 0 0-33.842 3.472c-.2.028-.398.041-.596.041zM3139.828 2649.41a4.18 4.18 0 0 1-4.175-4.052 437.372 437.372 0 0 0-.818-16.521 4.18 4.18 0 0 1 3.883-4.456c2.291-.049 4.297 1.583 4.454 3.885.384 5.586.665 11.254.835 16.84a4.183 4.183 0 0 1-4.05 4.305l-.129-.001zM3016.245 2968.823a4.174 4.174 0 0 1-2.997-7.087 425.194 425.194 0 0 0 11.298-12.094 4.195 4.195 0 0 1 5.9-.314 4.182 4.182 0 0 1 .314 5.904 441.452 441.452 0 0 1-11.519 12.323 4.163 4.163 0 0 1-2.996 1.268zM2701.393 3102.238l-3.784-.016a4.178 4.178 0 0 1 .04-8.356h.041l3.703.016c9.868 0 19.879-.343 29.756-1.02 2.313-.049 4.296 1.583 4.453 3.885a4.182 4.182 0 0 1-3.882 4.456 449.278 449.278 0 0 1-30.327 1.035zm-58.491-3.905a4.24 4.24 0 0 1-.561-.037 450.031 450.031 0 0 1-33.614-5.823 4.178 4.178 0 0 1-3.215-4.958c.481-2.26 2.691-3.677 4.958-3.219a437.428 437.428 0 0 0 32.981 5.716 4.18 4.18 0 0 1-.549 8.321zm142.952-4.313a4.179 4.179 0 0 1-.801-8.279 433.94 433.94 0 0 0 32.569-7.728c2.218-.633 4.525.677 5.147 2.901a4.175 4.175 0 0 1-2.903 5.145 442.18 442.18 0 0 1-33.202 7.884 4.296 4.296 0 0 1-.81.077zm-229.133-16.195c-.455 0-.918-.073-1.371-.232a444.653 444.653 0 0 1-31.771-12.417 4.178 4.178 0 0 1-2.158-5.5 4.169 4.169 0 0 1 5.498-2.163 438.595 438.595 0 0 0 31.174 12.188 4.179 4.179 0 0 1 2.577 5.317 4.184 4.184 0 0 1-3.949 2.807zm313.878-9.658a4.179 4.179 0 0 1-1.62-8.031 434.624 434.624 0 0 0 30.341-14.146 4.178 4.178 0 1 1 3.819 7.434 444.552 444.552 0 0 1-30.925 14.416 4.101 4.101 0 0 1-1.615.327zm-394.206-27.669a4.144 4.144 0 0 1-2.13-.587 443.466 443.466 0 0 1-28.624-18.541 4.175 4.175 0 0 1-1.012-5.819 4.172 4.172 0 0 1 5.822-1.012 437.936 437.936 0 0 0 28.081 18.19 4.178 4.178 0 0 1-2.137 7.769zm472.031-14.685a4.178 4.178 0 0 1-2.358-7.63 442.855 442.855 0 0 0 26.926-19.896 4.179 4.179 0 0 1 5.219 6.529 452.468 452.468 0 0 1-27.436 20.271 4.185 4.185 0 0 1-2.351.726zm-543.18-38.041a4.144 4.144 0 0 1-2.813-1.093 441.225 441.225 0 0 1-24.292-23.948 4.177 4.177 0 0 1 .186-5.904 4.172 4.172 0 0 1 5.906.184 435.963 435.963 0 0 0 23.831 23.499 4.174 4.174 0 0 1 .271 5.9 4.162 4.162 0 0 1-3.089 1.362zm-59.046-66.016a4.17 4.17 0 0 1-3.383-1.722 450.876 450.876 0 0 1-19.011-28.335 4.175 4.175 0 0 1 1.363-5.749c1.961-1.216 4.535-.6 5.749 1.359a444.998 444.998 0 0 0 18.655 27.811 4.176 4.176 0 0 1-.92 5.835 4.158 4.158 0 0 1-2.453.801zm-44.729-76.478a4.182 4.182 0 0 1-3.803-2.44 443.607 443.607 0 0 1-12.981-31.557 4.179 4.179 0 0 1 2.485-5.362c2.16-.804 4.564.318 5.362 2.481a434.032 434.032 0 0 0 12.737 30.962 4.18 4.18 0 0 1-3.8 5.916zm-28.489-83.888a4.18 4.18 0 0 1-4.068-3.244 442.36 442.36 0 0 1-6.337-33.532 4.183 4.183 0 0 1 3.517-4.75c2.252-.339 4.409 1.232 4.749 3.517a433.896 433.896 0 0 0 6.215 32.896 4.178 4.178 0 0 1-4.076 5.113zM2262.031 2673.312a4.177 4.177 0 0 1-4.174-4.084 444.69 444.69 0 0 1-.055-16.864c.037-2.31 1.951-4.06 4.244-4.113a4.18 4.18 0 0 1 4.113 4.243 438.373 438.373 0 0 0 .051 16.546 4.177 4.177 0 0 1-4.082 4.272h-.097zM2367.095 2611.488a5.27 5.27 0 0 0 2.218 5.701l53.632 35.158c-.543 29.944 3.684 60.19 13.001 89.568l-41.362 48.953a5.27 5.27 0 0 0-.503 6.097l39.362 66.088a5.273 5.273 0 0 0 5.6 2.463l62.745-13.053c21.396 22.183 45.975 40.307 72.564 54.09l5.37 63.904a5.268 5.268 0 0 0 3.956 4.666l74.564 18.898a5.269 5.269 0 0 0 5.701-2.219l35.159-53.631c29.943.543 60.189-3.685 89.567-13.001l48.953 41.363a5.27 5.27 0 0 0 6.097.503l66.088-39.363a5.269 5.269 0 0 0 2.462-5.6l-13.054-62.745c22.185-21.395 40.308-45.974 54.091-72.563l63.905-5.37a5.268 5.268 0 0 0 4.665-3.956l18.898-74.564a5.267 5.267 0 0 0-2.219-5.701l-53.632-35.159c.545-29.943-3.684-60.189-13-89.568l41.364-48.953a5.27 5.27 0 0 0 .502-6.096l-39.363-66.089a5.269 5.269 0 0 0-5.6-2.462l-62.744 13.054c-21.395-22.185-45.976-40.308-72.564-54.092l-5.37-63.903a5.268 5.268 0 0 0-3.956-4.667l-74.564-18.897a5.27 5.27 0 0 0-5.701 2.218l-35.158 53.631c-29.944-.544-60.189 3.685-89.567 13.001l-48.954-41.364a5.266 5.266 0 0 0-6.095-.501l-66.088 39.362a5.27 5.27 0 0 0-2.463 5.6l13.054 62.744c-22.184 21.395-40.306 45.976-54.091 72.563l-63.904 5.371a5.27 5.27 0 0 0-4.667 3.956l-18.899 74.565z" style="fill:#91b3fa"/><path d="M2703.935 2731.751h-.047c-19.943-.021-38.661-7.794-52.732-21.891-14.071-14.097-21.812-32.83-21.791-52.746.018-19.92 7.793-38.641 21.891-52.71 29.101-29.052 76.413-29.003 105.457.098 14.071 14.097 21.811 32.83 21.791 52.747-.018 19.92-7.793 38.641-21.891 52.71-14.08 14.051-32.786 21.792-52.678 21.792zm-.002-136.606c-16.55 0-32.108 6.439-43.823 18.129-11.729 11.707-18.196 27.277-18.211 43.848-.016 16.57 6.423 32.157 18.127 43.884 11.707 11.727 27.279 18.194 43.85 18.21h.059c16.55 0 32.108-6.439 43.823-18.129 11.729-11.706 18.196-27.277 18.211-43.847.016-16.57-6.423-32.157-18.127-43.884-11.706-11.727-27.279-18.194-43.849-18.21h-.06z" style="fill:#bdd0fb"/><path d="M2705.865 2849.285c-65.453.004-129.312-33.447-165.17-93.648a193.057 193.057 0 0 1-17.083-37.107l11.878-3.999a180.667 180.667 0 0 0 15.972 34.691c39.757 66.746 116.363 98.324 188.561 84.235.135-.025.27-.053.404-.078.141-.029.273-.053.414-.082 19.425-3.88 38.514-11.07 56.478-21.769 41.156-24.511 70.304-63.584 82.074-110.018 3.729-14.718 5.572-29.615 5.57-44.41-.006-31.892-8.589-63.311-25.333-91.424-50.606-84.961-160.896-112.915-245.857-62.311-27.936 16.64-50.798 40.486-66.112 68.958l-11.037-5.941c16.386-30.468 40.848-55.982 70.735-73.789 90.896-54.13 208.899-24.233 263.039 66.669 17.917 30.08 27.097 63.694 27.104 97.814.002 15.832-1.969 31.77-5.959 47.511-12.59 49.682-43.776 91.49-87.809 117.714-30.696 18.285-64.494 26.984-97.869 26.984z" style="fill:#bdd0fb"/><path d="M665.205 668.331a4.936 4.936 0 0 1-3.93-7.908 528.432 528.432 0 0 1 12.305-15.643 4.932 4.932 0 1 1 7.634 6.242 518.287 518.287 0 0 0-12.07 15.354 4.929 4.929 0 0 1-3.939 1.955zM1586.972 879.435a4.936 4.936 0 0 1-4.833-3.969 509.971 509.971 0 0 0-9.394-39.04 4.93 4.93 0 0 1 3.405-6.088c2.61-.775 5.346.78 6.088 3.4a520.943 520.943 0 0 1 9.577 39.802 4.929 4.929 0 0 1-3.875 5.798c-.325.068-.65.097-.968.097zm-31.414-101.511a4.934 4.934 0 0 1-4.539-2.996 515.194 515.194 0 0 0-17.206-36.285 4.931 4.931 0 0 1 2.086-6.656c2.413-1.271 5.391-.327 6.656 2.081a526.315 526.315 0 0 1 17.538 36.989 4.934 4.934 0 0 1-4.535 6.867zm-51.49-92.967a4.917 4.917 0 0 1-4.055-2.119 517.885 517.885 0 0 0-24.168-32.066 4.931 4.931 0 0 1 .701-6.94 4.93 4.93 0 0 1 6.938.698 528.301 528.301 0 0 1 24.63 32.683 4.932 4.932 0 0 1-4.046 7.744zm-781.81-80.325a4.93 4.93 0 0 1-3.388-8.515 528.832 528.832 0 0 1 30.821-26.928 4.927 4.927 0 0 1 6.936.742 4.933 4.933 0 0 1-.742 6.936 517.704 517.704 0 0 0-30.238 26.417 4.927 4.927 0 0 1-3.389 1.348zm712.601-.289a4.91 4.91 0 0 1-3.393-1.353 507.581 507.581 0 0 0-30.191-26.422 4.93 4.93 0 0 1-.737-6.935 4.938 4.938 0 0 1 6.935-.742 520.028 520.028 0 0 1 30.778 26.942 4.928 4.928 0 0 1 .188 6.969 4.908 4.908 0 0 1-3.58 1.541zm-628.296-64.431a4.926 4.926 0 0 1-4.202-2.341 4.933 4.933 0 0 1 1.606-6.786 531.475 531.475 0 0 1 35.628-20.146 4.924 4.924 0 0 1 6.642 2.124 4.926 4.926 0 0 1-2.124 6.642 523.024 523.024 0 0 0-34.964 19.771 4.89 4.89 0 0 1-2.586.736zm544.051-.26a4.915 4.915 0 0 1-2.581-.732 513.9 513.9 0 0 0-34.983-19.684 4.931 4.931 0 1 1 4.498-8.775 521.282 521.282 0 0 1 35.657 20.06 4.932 4.932 0 0 1-2.591 9.131zm-448.418-46.086a4.93 4.93 0 0 1-4.635-3.246 4.938 4.938 0 0 1 2.952-6.324 523.12 523.12 0 0 1 38.997-12.445 4.93 4.93 0 0 1 6.066 3.439 4.933 4.933 0 0 1-3.441 6.068 514.17 514.17 0 0 0-38.255 12.209 4.93 4.93 0 0 1-1.684.299zm352.706-.01c-.556 0-1.12-.092-1.674-.294a521.342 521.342 0 0 0-38.269-12.147 4.93 4.93 0 1 1 2.616-9.507 526.778 526.778 0 0 1 39.002 12.378 4.927 4.927 0 0 1 2.964 6.309 4.929 4.929 0 0 1-4.639 3.261zm-103.091-25.68c-.234 0-.469-.015-.708-.048a514.106 514.106 0 0 0-39.943-4.137 4.933 4.933 0 0 1-4.607-5.24c.176-2.716 2.56-4.705 5.237-4.604a527.51 527.51 0 0 1 40.714 4.214 4.933 4.933 0 0 1-.693 9.815zm-146.526-.082a4.934 4.934 0 0 1-4.876-4.238 4.934 4.934 0 0 1 4.188-5.577 522.051 522.051 0 0 1 40.716-4.175c2.76-.048 5.062 1.897 5.233 4.614a4.932 4.932 0 0 1-4.612 5.23 512.12 512.12 0 0 0-39.946 4.099c-.236.032-.47.047-.703.047zM1596.684 964.615a4.933 4.933 0 0 1-4.927-4.783 515.664 515.664 0 0 0-.966-19.501 4.933 4.933 0 0 1 4.583-5.259c2.705-.058 5.072 1.869 5.257 4.585a522.41 522.41 0 0 1 .985 19.877 4.937 4.937 0 0 1-4.78 5.081h-.152zM1450.813 1341.632a4.921 4.921 0 0 1-3.437-1.392 4.933 4.933 0 0 1-.101-6.974 500.747 500.747 0 0 0 13.336-14.276 4.951 4.951 0 0 1 6.964-.371 4.936 4.936 0 0 1 .371 6.969 521.17 521.17 0 0 1-13.596 14.545 4.901 4.901 0 0 1-3.537 1.499zM1079.18 1499.108l-4.467-.019a4.936 4.936 0 0 1-4.884-4.98 4.933 4.933 0 0 1 4.932-4.883h.048l4.37.019c11.648 0 23.465-.404 35.122-1.204 2.731-.058 5.071 1.869 5.257 4.585a4.936 4.936 0 0 1-4.583 5.259 529.205 529.205 0 0 1-35.795 1.223zm-69.04-4.609c-.219 0-.441-.014-.662-.043a531.11 531.11 0 0 1-39.676-6.873 4.932 4.932 0 0 1-3.795-5.852c.568-2.668 3.176-4.339 5.852-3.8a516.43 516.43 0 0 0 38.93 6.747 4.934 4.934 0 0 1 4.233 5.543 4.935 4.935 0 0 1-4.882 4.278zm168.733-5.091a4.933 4.933 0 0 1-.946-9.772 512.866 512.866 0 0 0 38.443-9.122c2.618-.747 5.341.8 6.075 3.424a4.928 4.928 0 0 1-3.427 6.073 521.343 521.343 0 0 1-39.19 9.305c-.319.063-.64.092-.955.092zm-270.457-19.116a4.868 4.868 0 0 1-1.618-.274 524.925 524.925 0 0 1-37.501-14.656 4.934 4.934 0 0 1-2.548-6.492 4.921 4.921 0 0 1 6.49-2.553 517.465 517.465 0 0 0 36.796 14.386 4.932 4.932 0 0 1 3.042 6.276 4.937 4.937 0 0 1-4.661 3.313zm370.485-11.399a4.933 4.933 0 0 1-1.912-9.479 512.674 512.674 0 0 0 35.813-16.698 4.933 4.933 0 1 1 4.508 8.775 524.714 524.714 0 0 1-36.502 17.016 4.866 4.866 0 0 1-1.907.386zm-465.299-32.659a4.881 4.881 0 0 1-2.514-.693 523.085 523.085 0 0 1-33.786-21.885 4.928 4.928 0 0 1-1.195-6.868 4.924 4.924 0 0 1 6.872-1.194 517.06 517.06 0 0 0 33.145 21.471 4.93 4.93 0 0 1-2.522 9.169zm557.158-17.334a4.92 4.92 0 0 1-4.079-2.153 4.934 4.934 0 0 1 1.296-6.854 522.833 522.833 0 0 0 31.782-23.484 4.933 4.933 0 0 1 6.16 7.706 533.894 533.894 0 0 1-32.384 23.927 4.922 4.922 0 0 1-2.775.858zm-641.138-44.901a4.893 4.893 0 0 1-3.321-1.291 520.877 520.877 0 0 1-28.674-28.267 4.931 4.931 0 0 1 .219-6.969 4.926 4.926 0 0 1 6.972.217 514.351 514.351 0 0 0 28.129 27.736 4.929 4.929 0 0 1 .321 6.964 4.91 4.91 0 0 1-3.646 1.61zm-69.695-77.922a4.923 4.923 0 0 1-3.993-2.032 532.333 532.333 0 0 1-22.438-33.444 4.93 4.93 0 0 1 1.609-6.786c2.314-1.436 5.353-.708 6.786 1.604a524.88 524.88 0 0 0 22.02 32.827 4.93 4.93 0 0 1-3.984 7.831zm-52.796-90.27a4.936 4.936 0 0 1-4.489-2.88 524.552 524.552 0 0 1-15.323-37.248 4.931 4.931 0 0 1 2.933-6.328c2.55-.949 5.387.375 6.328 2.928a512.152 512.152 0 0 0 15.034 36.546 4.934 4.934 0 0 1-4.483 6.982zm-33.627-99.016a4.933 4.933 0 0 1-4.802-3.829 521.412 521.412 0 0 1-7.479-39.58 4.936 4.936 0 0 1 4.152-5.606c2.659-.4 5.204 1.454 5.606 4.152a511.96 511.96 0 0 0 7.335 38.828 4.93 4.93 0 0 1-4.812 6.035zM560.58 992.828a4.93 4.93 0 0 1-4.927-4.821 525.726 525.726 0 0 1-.065-19.905c.043-2.726 2.302-4.792 5.009-4.855a4.934 4.934 0 0 1 4.855 5.009 516.416 516.416 0 0 0 .06 19.53 4.93 4.93 0 0 1-4.818 5.043l-.114-.001zM684.593 919.854a6.22 6.22 0 0 0 2.618 6.729l63.305 41.499c-.642 35.344 4.348 71.044 15.345 105.721l-48.822 57.781a6.219 6.219 0 0 0-.593 7.196l46.461 78.007a6.225 6.225 0 0 0 6.61 2.907l74.06-15.407c25.254 26.184 54.266 47.576 85.65 63.845l6.339 75.429a6.22 6.22 0 0 0 4.669 5.507l88.012 22.306a6.217 6.217 0 0 0 6.729-2.619l41.5-63.304c35.343.642 71.044-4.349 105.72-15.346l57.782 48.822a6.22 6.22 0 0 0 7.196.593l78.007-46.462a6.218 6.218 0 0 0 2.906-6.609l-15.408-74.06c26.186-25.253 47.577-54.266 63.846-85.65l75.43-6.338a6.22 6.22 0 0 0 5.506-4.67l22.306-88.011a6.216 6.216 0 0 0-2.619-6.729l-63.304-41.5c.643-35.343-4.348-71.044-15.345-105.721l48.823-57.782a6.22 6.22 0 0 0 .593-7.195l-46.462-78.008a6.22 6.22 0 0 0-6.61-2.906l-74.06 15.409c-25.253-26.186-54.267-47.578-85.651-63.847l-6.339-75.427a6.216 6.216 0 0 0-4.669-5.508l-88.011-22.306a6.22 6.22 0 0 0-6.729 2.618l-41.499 63.303c-35.344-.642-71.044 4.349-105.72 15.346l-57.783-48.823a6.215 6.215 0 0 0-7.195-.591l-78.006 46.461a6.222 6.222 0 0 0-2.907 6.61l15.408 74.06c-26.185 25.253-47.576 54.267-63.846 85.649l-75.428 6.34a6.22 6.22 0 0 0-5.508 4.669l-22.307 88.012z" style="fill:#91b3fa"/><path d="M1082.18 1061.806h-.084c-23.51-.024-45.604-9.199-62.213-25.839s-25.745-38.751-25.721-62.259c.022-23.513 9.199-45.609 25.839-62.216 34.349-34.292 90.193-34.234 124.475.115 16.608 16.64 25.745 38.751 25.721 62.259-.022 23.513-9.199 45.61-25.839 62.216-16.619 16.587-38.698 25.724-62.178 25.724zm-.002-161.242c-19.534 0-37.898 7.6-51.726 21.399-13.845 13.818-21.478 32.196-21.495 51.755-.019 19.559 7.581 37.956 21.396 51.798 13.818 13.842 32.199 21.475 51.758 21.495h.048c19.557 0 37.921-7.6 51.748-21.399 13.844-13.817 21.478-32.196 21.495-51.755.019-19.559-7.581-37.957-21.396-51.799-13.817-13.841-32.199-21.475-51.757-21.495l-.071.001z" style="fill:#bdd0fb"/><path d="M1084.458 1200.537c-77.257.004-152.633-39.479-194.957-110.537-8.267-13.881-15.053-28.618-20.163-43.799l14.02-4.72a213.253 213.253 0 0 0 18.853 40.947c46.927 78.783 137.349 116.056 222.567 99.426.159-.029.318-.063.477-.092.166-.034.323-.063.489-.096 22.928-4.58 45.46-13.066 66.664-25.695 48.579-28.931 82.983-75.051 96.876-129.859 4.402-17.372 6.577-34.956 6.574-52.42-.007-37.643-10.138-74.729-29.901-107.912-59.733-100.283-189.913-133.279-290.196-73.548-32.974 19.64-59.959 47.787-78.034 81.394l-13.028-7.012c19.342-35.963 48.215-66.079 83.491-87.097 107.288-63.892 246.573-28.603 310.477 78.692 21.148 35.505 31.984 75.181 31.992 115.454.002 18.687-2.324 37.499-7.034 56.08-14.861 58.642-51.671 107.989-103.645 138.943-36.235 21.582-76.128 31.851-115.522 31.851z" style="fill:#bdd0fb"/><linearGradient id="b" x1="1901.803" x2="1872.158" y1="3185.11" y2="2598.146" gradientUnits="userSpaceOnUse"><stop offset="0" style="stop-color:#09005d"/><stop offset="1" style="stop-color:#1a0f91"/></linearGradient><path d="m1654.07 2518.751-49.237 441.579h571.234l-74.404-441.579z" style="fill:url(#b)"/><linearGradient id="c" x1="455.822" x2="3194.669" y1="1860.654" y2="1860.654" gradientUnits="userSpaceOnUse"><stop offset="0" style="stop-color:#09005d"/><stop offset="1" style="stop-color:#1a0f91"/></linearGradient><path d="M455.822 1211.962v1214.751c0 99.93 79.632 181.648 179.528 184.224 443.687 11.441 1995.488 39.183 2417.848 32.957 72.593-1.07 131.399-59.161 133.494-131.731 8.144-282.203 21.371-960.808-27.578-1275.857-10.309-66.346-66.311-115.958-133.418-118.105-371.753-11.893-2016.765-49.656-2438.927-40.175-72.809 1.635-130.947 61.109-130.947 133.936z" style="fill:url(#c)"/><linearGradient id="d" x1="3380.88" x2="-2560.282" y1="1022.788" y2="3993.376" gradientUnits="userSpaceOnUse"><stop offset="0" style="stop-color:#4f52ff"/><stop offset="1" style="stop-color:#4042e2"/></linearGradient><path d="M532.044 1206.049v1154.098c0 58.344 46.835 105.884 105.173 106.757l2355.218 29.098c57.838.865 105.247-45.668 105.462-103.512l3.94-1143.786c.155-41.359-32.797-75.248-74.144-76.254l-2411.307-48.715c-46.245-1.126-84.342 36.055-84.342 82.314z" style="fill:url(#d)"/><path d="M3115.629 2543.409h-.056l-2583.584-44.022a3.376 3.376 0 0 1-3.319-3.432c.033-1.864 1.645-3.241 3.431-3.317l2583.583 44.022a3.374 3.374 0 0 1-.055 6.749zM1849.321 2597.173c-16.682 0-30.256-13.573-30.256-30.257s13.574-30.256 30.256-30.256 30.256 13.573 30.256 30.256c.001 16.684-13.574 30.257-30.256 30.257zm0-53.764c-12.961 0-23.507 10.546-23.507 23.507 0 12.961 10.546 23.507 23.507 23.507 12.961 0 23.507-10.546 23.507-23.507 0-12.961-10.545-23.507-23.507-23.507z" style="fill:#91b3fa"/><linearGradient id="e" x1="1903.648" x2="1630.917" y1="2963.625" y2="3562.448" gradientUnits="userSpaceOnUse"><stop offset="0" style="stop-color:#09005d"/><stop offset="1" style="stop-color:#1a0f91"/></linearGradient><path d="M2299.111 3050.676h-836.04c-22.713 0-39.769-16.169-35.377-33.537l10.727-42.427c3.226-12.759 17.263-22.126 33.935-22.646l805.973-25.15c17.418-.543 32.84 8.702 36.635 21.963l19.339 67.576c5.025 17.557-12.113 34.221-35.192 34.221z" style="fill:url(#e)"/><path d="M1913.126 2964.21a3.375 3.375 0 0 1-.05-6.749l34.537-.506h.049a3.375 3.375 0 0 1 .05 6.749l-34.537.506h-.049zM1458.645 3027.936a3.373 3.373 0 0 1-3.335-3.907l4.927-30.858a35.075 35.075 0 0 1 34.178-29.589l366.316-5.357c1.921-.087 3.398 1.462 3.424 3.325a3.377 3.377 0 0 1-3.325 3.424l-366.316 5.357a28.337 28.337 0 0 0-27.613 23.904l-4.927 30.858a3.375 3.375 0 0 1-3.329 2.843z" style="fill:#91b3fa"/><path d="M2927.891 1225.693 677.12 1197.982c-35.467-.436-64.313 28.583-64.819 64.87l-14.465 1048.19c-.499 35.822 27.167 65.472 62.162 66.71l2263.537 80.091c31.488 1.115 60.995-10.905 83.656-33.302 22.661-22.397 34.385-53.251 34.385-85.486v-994.51c0-65.087-50.074-118.069-113.685-118.852z" style="opacity:.03;fill:#fff"/><path d="M659.71 1168.69h1150.63c31.373 0 56.646 31.744 56.077 70.438l-16.188 1101.123c-.762 51.824-35.314 93.157-77.331 92.507l-1114.427-17.251c-30.712-.475-55.401-31.333-55.383-69.219l.535-1108.456c.02-38.192 25.125-69.142 56.087-69.142z" style="fill:#7d97f4"/><path d="M677.91 1201.161h1104.875c30.126 0 54.393 30.425 53.847 67.509l-15.545 1055.341c-.732 49.669-33.91 89.283-74.256 88.66L676.72 2396.138c-29.49-.456-53.198-30.03-53.18-66.341l.514-1062.369c.018-36.605 24.125-66.267 53.856-66.267z" style="fill:#91b3fa"/><path d="M1438.585 1328.346c-.112 0-.227 0-.339-.002l-729.655-8.137c-19.875-.222-36.047-15.937-36.05-35.028l-.003-28.612c-.003-7.521 3.052-14.581 8.601-19.879 5.487-5.233 12.764-8.117 20.488-8.117h741.905c7.857 0 15.361 3.24 20.587 8.886 5.016 5.416 7.468 12.386 6.907 19.627l-3.503 45.403c-1.12 14.561-13.801 25.859-28.938 25.859zm-736.958-89.651c-5.111 0-9.903 1.888-13.495 5.317-3.53 3.366-5.471 7.825-5.471 12.553l.003 28.612c.003 13.573 11.683 24.746 26.038 24.906l729.655 8.137c.076.002.152.002.227.002 9.873 0 18.129-7.214 18.847-16.512l3.503-45.404c.339-4.396-1.17-8.647-4.245-11.971-3.319-3.584-8.114-5.639-13.159-5.639H701.627z" style="fill:#fff"/><path d="m1429.682 1313.003-707.827-5.96c-16.686-.141-30.111-9.926-30.114-21.949l-.005-20.954c-.002-9.277 10.434-16.798 23.309-16.798h719.71c12.692 0 22.71 7.769 21.778 16.89l-3.399 33.255c-.901 8.823-11.174 15.619-23.452 15.516z" style="opacity:.4;fill:#fff"/><path d="M1672.042 1435.824H677.874c-6.596 0-11.943-5.894-11.943-13.165v-35.215c0-7.316 5.411-13.229 12.048-13.164l994.169 9.69c6.554.064 11.837 5.939 11.837 13.165v25.525c0 7.27-5.347 13.164-11.943 13.164z" style="opacity:.59;fill:#fff"/><path d="m1750.726 1675.621-1046.967-13.965c-18.615-.248-33.576-15.409-33.576-34.026v-143.751c0-19.146 15.63-34.61 34.775-34.405l1043.924 11.164c20.589.22 37.164 16.973 37.164 37.563v142.568c0 19.431-15.89 35.111-35.32 34.852z" style="opacity:.4;fill:#fff"/><path d="M1581.681 1782.65H676.389c-6.006 0-10.875-5.894-10.875-13.165v-35.215c0-7.316 4.928-13.229 10.971-13.164l905.292 9.69c5.968.064 10.779 5.939 10.779 13.165v25.525c0 7.27-4.869 13.164-10.875 13.164z" style="opacity:.59;fill:#fff"/><path d="M1750.309 2043.932 703.342 2028.64c-18.615-.272-33.576-16.873-33.576-37.259v-157.407c0-20.965 15.63-37.898 34.775-37.674l1043.924 12.225c20.589.241 37.164 18.586 37.164 41.132v156.113c0 21.277-15.89 38.446-35.32 38.162z" style="opacity:.4;fill:#fff"/><path d="M1777.129 2156.873H680.81c-7.273 0-13.17-5.894-13.17-13.165v-35.215c0-7.316 5.968-13.229 13.286-13.165l1096.319 9.69c7.228.064 13.053 5.939 13.053 13.165v25.525c0 7.271-5.896 13.165-13.169 13.165z" style="opacity:.59;fill:#fff"/><path d="M1752.435 2385.708 705.468 2372.42c-18.615-.236-33.576-14.663-33.576-32.377V2203.26c0-18.218 15.63-32.932 34.775-32.738l1043.924 10.623c20.589.21 37.164 16.151 37.164 35.743v135.658c0 18.489-15.89 33.409-35.32 33.162z" style="opacity:.4;fill:#fff"/><path d="M2053.341 870.86h1127.661c30.747 0 55.515 31.382 54.958 69.633l-15.865 1088.546c-.747 51.232-34.61 92.093-103.918 91.45l-1049.795-16.392c-36.477-.569-67.036-29.147-68.464-65.6a89.738 89.738 0 0 1-.068-3.49l.525-1095.794c.017-37.757 24.621-68.353 54.966-68.353z" style="fill:#7d97f4"/><path d="M2078.21 900.338h1082.82c29.524 0 53.308 29.817 52.772 66.162l-15.234 1034.274c-.717 48.677-33.233 87.501-72.774 86.891l-1048.75-16.203c-28.902-.447-52.136-29.431-52.119-65.017l.504-1041.162c.017-35.874 23.643-64.945 52.781-64.945z" style="fill:#bdd0fb"/><path d="M3107.847 1109.491h-991.433c-12.138 0-21.978-9.84-21.978-21.978v-53.479c0-12.736 10.324-23.06 23.06-23.06h986.457c12.425 0 22.498 10.073 22.498 22.498v57.416c-.001 10.274-8.329 18.603-18.604 18.603z" style="fill:#7d97f4"/><path d="M3042.897 1079.515h-378.24c-6.236 2.344-11.291-3.253-11.291-10.158v-18.53c0-6.905 5.055-12.503 11.291-12.503h378.24c6.236 0 11.291 5.598 11.291 12.503v18.53c0 6.904-5.055 12.502-11.291 10.158z" style="opacity:.27;fill:#fff"/><path d="M2836.176 1599.113c0 25.938-20.999 46.981-46.937 47.034l-658.716 1.357c-17.216 0-31.173-14.276-31.173-31.885V1265.67c0-17.804 14.254-32.158 31.658-31.882l674.481 10.729c17.025.271 30.688 14.465 30.688 31.882v322.714z" style="fill:#7d97f4"/><path d="m2751.852 2029.896-281.842-2.343c-9.524-.079-17.18-7.864-17.101-17.388l2.346-282.281c.078-9.35 7.594-16.935 16.943-17.099l278.317 5.28c11.787.224 21.197 9.896 21.095 21.685l-2.37 275.044c-.079 9.525-7.864 17.182-17.388 17.102zM2393.38 2029.896l-281.842-2.343c-9.524-.079-17.18-7.864-17.101-17.388l2.346-282.281c.078-9.35 7.593-16.935 16.943-17.099l278.317 5.28c11.787.224 21.197 9.896 21.095 21.685l-2.37 275.044c-.08 9.525-7.864 17.182-17.388 17.102zM3106.692 2036.573l-281.842-2.342c-9.524-.079-17.18-7.864-17.101-17.388l2.346-282.281c.078-9.35 7.593-16.935 16.943-17.099l278.317 5.28c11.787.224 21.197 9.896 21.095 21.685l-2.37 275.044c-.08 9.524-7.864 17.18-17.388 17.101zM3102.756 1663.239H2898.98c-13.086 0-23.695-10.679-23.695-23.853V1267.06c0-11.067 8.603-20.056 19.253-20.116l209.251-1.179c12.672.557 22.661 11.061 22.661 23.83v369.79c0 13.175-10.608 23.854-23.694 23.854z" style="fill:#91b3fa"/><path d="M2331.106 989.726c-18.271 0-33.137-14.866-33.137-33.138s14.866-33.137 33.137-33.137 33.137 14.865 33.137 33.137c0 18.271-14.866 33.138-33.137 33.138zm0-59.526c-14.55 0-26.387 11.838-26.387 26.387 0 14.551 11.838 26.389 26.387 26.389s26.387-11.838 26.387-26.389c0-14.549-11.837-26.387-26.387-26.387zM2228.094 992.138c-18.271 0-33.137-14.865-33.137-33.137s14.866-33.137 33.137-33.137c18.27 0 33.136 14.865 33.136 33.137.001 18.272-14.865 33.137-33.136 33.137zm0-59.524c-14.55 0-26.387 11.837-26.387 26.387s11.838 26.387 26.387 26.387 26.387-11.838 26.387-26.387-11.837-26.387-26.387-26.387zM2129.113 992.138c-18.274 0-33.14-14.865-33.14-33.137s14.866-33.137 33.14-33.137c18.27 0 33.136 14.865 33.136 33.137s-14.866 33.137-33.136 33.137zm0-59.524c-14.553 0-26.391 11.837-26.391 26.387s11.838 26.387 26.391 26.387c14.55 0 26.387-11.838 26.387-26.387s-11.837-26.387-26.387-26.387zM2483.085 1509.932c-43.844 0-79.445-35.601-79.445-79.36 0-43.844 35.601-79.446 79.36-79.446 43.844 0 79.446 35.602 79.446 79.361v.085c0 43.759-35.602 79.36-79.361 79.36zm0-154.118c-41.259 0-74.757 33.498-74.757 74.673 0 41.259 33.498 74.756 74.672 74.756 41.26 0 74.757-33.498 74.757-74.672v-.085c0-41.174-33.497-74.672-74.672-74.672z" style="fill:#fff"/><path d="M2461.151 1470.411a4.11 4.11 0 0 1-4.107-4l-1.878-70.101a6.582 6.582 0 0 1 2.989-5.714 6.575 6.575 0 0 1 6.432-.461l69.247 32.389a6.583 6.583 0 0 1 3.813 5.821 6.585 6.585 0 0 1-3.502 6.015l-61.126 32.587a4.11 4.11 0 0 1-3.867-7.253l58.299-31.08-63.998-29.932 1.808 67.509a4.112 4.112 0 0 1-3.999 4.22h-.111z" style="fill:#fff"/><linearGradient id="f" x1="822.774" x2="1146.725" y1="1628.198" y2="1300.872" gradientTransform="rotate(9.816 254.499 367.816)" gradientUnits="userSpaceOnUse"><stop offset="0" style="stop-color:#ff928e"/><stop offset="1" style="stop-color:#fe7062"/></linearGradient><path d="M1582.373 915.554c107.286-163.794 327.261-223.471 463.386-198.635l27.312 63.707c-138.843 22.253-236.461 47.328-309.297 167.892-3.949 6.537-11.483 10.02-19.01 8.73l-155.827-26.721c-6.924-1.188-10.413-9.097-6.564-14.973z" style="fill:url(#f)"/><linearGradient id="g" x1="849.592" x2="1173.543" y1="1654.742" y2="1327.417" gradientTransform="rotate(9.816 254.499 367.816)" gradientUnits="userSpaceOnUse"><stop offset="0" style="stop-color:#ff928e"/><stop offset="1" style="stop-color:#fe7062"/></linearGradient><path d="m2012.917 625.2 187.243 83.112c12.848 5.703 13.587 23.661 1.25 30.399l-164.068 89.619c-5.235 2.333-11.24-1.027-11.992-6.708l-25.06-189.488c-.923-6.988 7.225-11.463 12.627-6.934z" style="fill:url(#g)"/><path d="M1105.885 2808.223h33.213v359.178h-33.213z" style="fill:#91b3fa" transform="rotate(-180 1122.491 2987.812)"/><path d="M977.042 3174.326h290.898v-19.722a1.897 1.897 0 0 0-1.897-1.897H979.088c-1.13 0-2.045.916-2.045 2.045v19.574zM922.032 2794.974c0 20.877 17.082 37.959 37.959 37.959h312.784c20.877 0 37.959-17.082 37.959-37.959v-34.323c0-20.877-17.082-37.959-37.959-37.959H959.991c-20.878 0-37.959 17.082-37.959 37.959v34.323z" style="fill:#91b3fa"/><linearGradient id="h" x1="1388.319" x2="1329.688" y1="3034.867" y2="3150.173" gradientUnits="userSpaceOnUse"><stop offset="0" style="stop-color:#09005d"/><stop offset="1" style="stop-color:#1a0f91"/></linearGradient><path d="M1307.482 3103.771s94.841 68.361 78.373 114.288c0 0-103.769-44.772-116.305-80.039-12.537-35.267 2.121-50.844 2.121-50.844l35.811 16.595z" style="fill:url(#h)"/><linearGradient id="i" x1="1276.829" x2="1335.235" y1="3080.754" y2="3080.754" gradientUnits="userSpaceOnUse"><stop offset="0" style="stop-color:#febbba"/><stop offset="1" style="stop-color:#ff928e"/></linearGradient><path d="m1293.23 3046.479-15.508 44.832c-2.34 6.765 0 14.469 6.052 18.293 3.031 1.915 7.173 3.686 12.834 4.969 7.989 1.811 16.236-1.879 20.078-9.114l18.55-34.931-42.006-24.049z" style="fill:url(#i)"/><linearGradient id="j" x1="1196.005" x2="1444.206" y1="2926.213" y2="2578.34" gradientUnits="userSpaceOnUse"><stop offset="0" style="stop-color:#09005d"/><stop offset="1" style="stop-color:#1a0f91"/></linearGradient><path d="M1142.313 2642.95s194.8 33.761 278.362 110.955c83.562 77.193-76.698 323.428-76.698 323.428s-26.257-.162-58.077-27.436c0 0 95.022-185.191 13.131-239.196-92.067-60.716-198.168-74.39-198.168-74.39l39.567-87.409 1.883-5.952z" style="fill:url(#j)"/><linearGradient id="k" x1="1354.294" x2="1151.041" y1="3151.45" y2="3417.241" gradientUnits="userSpaceOnUse"><stop offset="0" style="stop-color:#09005d"/><stop offset="1" style="stop-color:#1a0f91"/></linearGradient><path d="M1369.376 3192.658c-20.86-9.657-79.917-50.99-89.871-52.815-9.955-1.824-27.222 9.875-27.222 9.875s-4.199 7.554.292 20.729c13.862 16.772 44.639 48.745 86.014 60.659 30.436 8.764 51.723.594 64.982-8.966-7.294-11.11-20.303-23.05-34.195-29.482z" style="fill:url(#k)"/><linearGradient id="l" x1="1252.575" x2="1409.628" y1="3209.014" y2="3209.014" gradientUnits="userSpaceOnUse"><stop offset="0" style="stop-color:#4f52ff"/><stop offset="1" style="stop-color:#4042e2"/></linearGradient><path d="M1338.589 3231.106c-41.375-11.914-72.152-43.887-86.014-60.659 3.036 8.903 10.035 20.369 24.994 33.815 37.096 33.341 107.947 45.36 123.032 43.044 12.089-1.856 10.949-13.014 2.97-25.166-13.258 9.56-34.546 17.73-64.982 8.966z" style="fill:url(#l)"/><linearGradient id="m" x1="1234.594" x2="1289.41" y1="3134.654" y2="3134.654" gradientUnits="userSpaceOnUse"><stop offset="0" style="stop-color:#febbba"/><stop offset="1" style="stop-color:#ff928e"/></linearGradient><path d="M1234.594 3120.539c.234 5.747 11.981 25.457 18.846 36.516a17.902 17.902 0 0 0 15.164 8.483c3.923.01 8.433-.331 12.528-1.507 6.149-1.765 9.6-8.314 7.802-14.453l-13.415-45.807-40.925 16.768z" style="fill:url(#m)"/><linearGradient id="n" x1="1106.543" x2="1120.223" y1="3099.563" y2="2634.428" gradientUnits="userSpaceOnUse"><stop offset="0" style="stop-color:#09005d"/><stop offset="1" style="stop-color:#1a0f91"/></linearGradient><path d="M954.799 2584.477s-43.262 115.679 0 150.857 146.467 74.785 169.521 144.853 62.179 206.24 114.536 254.467c0 0 36.787-3.564 50.553-18.221 0 0-29.819-203.286-49.486-255.447-17.031-45.171-42.125-110.371-90.214-146.813-13.766-10.432-11.368-26.956-4.985-43.005l11.623-29.226-201.548-57.465z" style="fill:url(#n)"/><linearGradient id="o" x1="1422.016" x2="1347.774" y1="1602.541" y2="2311.213" gradientUnits="userSpaceOnUse"><stop offset="0" style="stop-color:#ff928e"/><stop offset="1" style="stop-color:#fe7062"/></linearGradient><path d="M1405.997 2493.811c-72.538 4.373-49.935-111.513-48.628-116.123l-110.094 77.763s5.829 61.973 97.362 94.481c23.158 8.224 44.324 8.588 63.037 4.565-7.979-23.27-6.356-44.151-1.677-60.686z" style="fill:url(#o)"/><linearGradient id="p" x1="1551.817" x2="1497.671" y1="2172.815" y2="2525.937" gradientUnits="userSpaceOnUse"><stop offset="0" style="stop-color:#febbba"/><stop offset="1" style="stop-color:#ff928e"/></linearGradient><path d="M1546.256 2458.932c-27.031-18.802-57.653 0-57.653 0-36.142 23.637-62.881 33.691-82.606 34.88-4.68 16.535-6.302 37.416 1.678 60.687 40.489-8.703 69.456-38.006 82.043-53.041 4.531-5.412 12.556-6.353 18.097-1.979 5.629 4.443 11.095 10.529 10.104 16.935-1.954 12.632 12.703 16.647 13.808 12.067 1.105-4.582-5.014-31.739-5.014-31.739s29.315 29.479 40.759 40.806c11.444 11.328 25.834 0 25.834 0s-20.019-59.813-47.05-78.616z" style="fill:url(#p)"/><linearGradient id="q" x1="1255.998" x2="1181.756" y1="1585.15" y2="2293.821" gradientUnits="userSpaceOnUse"><stop offset="0" style="stop-color:#ff928e"/><stop offset="1" style="stop-color:#fe7062"/></linearGradient><path d="M1067.763 2198.721s105.53-42.253 301.925 119.888c0 0 16.404 33.956-1.492 64.179s-188.412 177.488-211.849 259.155c0 0-101.587 33.009-206.645-45.266.001-.001 9.272-227.289 118.061-397.956z" style="fill:url(#q)"/><linearGradient id="r" x1="1219.64" x2="1346.51" y1="2220.336" y2="2220.336" gradientUnits="userSpaceOnUse"><stop offset="0" style="stop-color:#febbba"/><stop offset="1" style="stop-color:#ff928e"/></linearGradient><path d="m1276.384 2161.013-51.95 62.978c-5.158 6.253-6.294 14.951-2.726 22.229 7.21 14.709 24.319 36.123 62.264 33.162a31.889 31.889 0 0 0 26.214-17.884l36.325-75.091-70.127-25.394z" style="fill:url(#r)"/><linearGradient id="s" x1="1063.417" x2="989.175" y1="1564.974" y2="2273.645" gradientUnits="userSpaceOnUse"><stop offset="0" style="stop-color:#ff928e"/><stop offset="1" style="stop-color:#fe7062"/></linearGradient><path d="M986.06 2468.446c-12.251-49.893 111.839-161.125 111.839-161.125l-30.136-108.6s-267.95 178.377-199.666 321.823c9.789 20.563 22.79 34.969 37.864 44.601 21.576-58.079 55.96-84.714 80.099-96.699z" style="fill:url(#s)"/><linearGradient id="t" x1="1001.591" x2="1025.214" y1="2181.966" y2="2296.703" gradientUnits="userSpaceOnUse"><stop offset="0" style="stop-color:#e1473d"/><stop offset="1" style="stop-color:#e9605a"/></linearGradient><path d="M985.972 2461.181a2.93 2.93 0 0 1-2.844-2.233c-12.528-51.011 107.611-159.413 112.73-164.005a2.937 2.937 0 0 1 4.141.225 2.938 2.938 0 0 1-.225 4.142c-1.229 1.099-122.647 110.619-110.951 158.241a2.932 2.932 0 0 1-2.851 3.63z" style="fill:url(#t)"/><linearGradient id="u" x1="1133.123" x2="647.397" y1="2504.838" y2="3348.888" gradientUnits="userSpaceOnUse"><stop offset="0" style="stop-color:#febbba"/><stop offset="1" style="stop-color:#ff928e"/></linearGradient><path d="M1174.01 2464.152s-147.124 57.121-183.035 14.156c-2.435-2.914-4.023-6.231-4.914-9.861-24.139 11.986-58.524 38.62-80.1 96.698 77.379 49.445 209.64-27.507 245.403-50.192 5.883-3.732 12.941-5.041 19.762-3.626 13.794 2.86 37.622 7.066 50.473 5.086 18.801-2.896 45.805 63.422 76.277 42.966 0-.001-26.093-115.276-123.866-95.227z" style="fill:url(#u)"/><linearGradient id="v" x1="11780.237" x2="11773.175" y1="2105.758" y2="2312.915" gradientTransform="rotate(29.926 4556.478 -18004.3)" gradientUnits="userSpaceOnUse"><stop offset="0" style="stop-color:#febbba"/><stop offset="1" style="stop-color:#ff928e"/></linearGradient><path d="M1401.843 2104.74s-7.63 67.979-22.464 97.424c-14.835 29.445-19.344 51.496-55.64 38.251-36.296-13.246-54.625-45.677-53.32-82.763 0 0 1.621-57.37 17.236-72.257 15.615-14.889 114.188 19.345 114.188 19.345z" style="fill:url(#v)"/><linearGradient id="w" x1="11750.491" x2="11891.82" y1="958.278" y2="1140.238" gradientTransform="rotate(29.926 4556.478 -18004.3)" gradientUnits="userSpaceOnUse"><stop offset="0" style="stop-color:#09005d"/><stop offset="1" style="stop-color:#1a0f91"/></linearGradient><path d="m1293.454 2143.708 4.17 2.401s3.107-45.137 21.769-42.637c18.662 2.499 85.488 24.731 110.608 10.939 24.216-13.297 28.335-46.109 15.994-63.059-.78-1.072-2.303-1.291-3.426-.583l-2.873 1.809c-1.967 1.24-4.443-.544-3.889-2.803.526-2.142-1.718-3.968-3.663-2.927-7.603 4.072-24.238 8.234-55.972-2.985-45.027-15.92-81.419-14.937-98.274 12.812-1.068 1.758-3.538 1.644-4.527-.16-1.951-3.561-6.264-7.189-15.802-5.485-16.586 2.964-26.046 29.974-13.09 64.132.616 1.623-.44 3.436-2.173 3.531-6.106.335-16.687 3.403-4.81 22.45 12.15 19.485 23.125 24.441 27.621 25.694a2.586 2.586 0 0 0 3.031-1.341l12.811-25.816a2.585 2.585 0 0 1 3.605-1.091l8.89 5.119z" style="fill:url(#w)"/><linearGradient id="x" x1="11729.12" x2="11722.058" y1="2104.028" y2="2311.188" gradientTransform="rotate(29.926 4556.478 -18004.3)" gradientUnits="userSpaceOnUse"><stop offset="0" style="stop-color:#febbba"/><stop offset="1" style="stop-color:#ff928e"/></linearGradient><path d="M1291.476 2149.513s10.962-39.919-10.21-39.145c-21.172.773-14.318 43.554-2.551 52.059l12.761-12.914z" style="fill:url(#x)"/><linearGradient id="y" x1="12378.582" x2="12129.872" y1="3165.107" y2="3233.272" gradientTransform="scale(-1 1) rotate(-2.832 -7971.747 277476.984)" gradientUnits="userSpaceOnUse"><stop offset="0" style="stop-color:#09005d"/><stop offset="1" style="stop-color:#1a0f91"/></linearGradient><path d="M1249.383 2576.792c.236.011.472.018.71.016l308.686-.337c7.631-.006 13.81-6.199 13.802-13.83-.008-7.634-6.222-13.939-13.833-13.802l-308.686.337c-7.631.006-13.81 6.199-13.802 13.83.009 7.393 5.823 13.425 13.123 13.786z" style="fill:url(#y)"/><linearGradient id="z" x1="12141.998" x2="11965.527" y1="2334.106" y2="2520.624" gradientTransform="matrix(-1 0 0 1 13675.626 0)" gradientUnits="userSpaceOnUse"><stop offset="0" style="stop-color:#09005d"/><stop offset="1" style="stop-color:#1a0f91"/></linearGradient><path d="M1836.274 2296.524h-257.076a48.996 48.996 0 0 0-44.315 28.097l-118.846 252.006h319.477a29.776 29.776 0 0 0 27.693-18.833l92.16-233.194c5.326-13.475-4.605-28.076-19.093-28.076z" style="fill:url(#z)"/><linearGradient id="A" x1="12035.314" x2="11955.242" y1="2380.547" y2="2501.126" gradientTransform="matrix(-1 0 0 1 13675.626 0)" gradientUnits="userSpaceOnUse"><stop offset="0" style="stop-color:#53d8ff"/><stop offset="1" style="stop-color:#3840f7"/></linearGradient><path d="M1655.162 2425.735c-5.571 17.308-1.455 34.117 9.192 37.544 10.648 3.427 23.795-7.825 29.366-25.133 5.571-17.308 1.455-34.117-9.192-37.544-10.648-3.428-23.795 7.825-29.366 25.133z" style="fill:url(#A)"/><path d="M1794.597 3238.865c1.71 0 3.448-.331 5.12-1.026 6.581-2.741 9.621-10.128 6.79-16.499l-272.05-612.273c-2.829-6.369-10.455-9.31-17.042-6.573-6.581 2.741-9.621 10.128-6.79 16.499l272.05 612.273c2.111 4.751 6.895 7.599 11.922 7.599z" style="fill:#7d97f4"/><path d="M1488.12 3238.865c5.027 0 9.811-2.845 11.922-7.599l272.05-612.273c2.831-6.371-.209-13.758-6.79-16.499-6.577-2.741-14.209.2-17.042 6.573l-272.05 612.273c-2.831 6.371.209 13.758 6.79 16.499a13.335 13.335 0 0 0 5.12 1.026zM952.484 3238.865c1.71 0 3.448-.331 5.12-1.026 6.581-2.741 9.621-10.128 6.79-16.499l-272.05-612.273c-2.831-6.369-10.453-9.31-17.042-6.573-6.581 2.741-9.621 10.128-6.79 16.499l272.05 612.273c2.111 4.751 6.895 7.599 11.922 7.599z" style="fill:#7d97f4"/><path d="M646.01 3238.865c5.027 0 9.811-2.845 11.922-7.599l272.05-612.273c2.831-6.371-.209-13.758-6.79-16.499-6.576-2.741-14.209.2-17.042 6.573L634.1 3221.34c-2.831 6.371.209 13.758 6.79 16.499 1.67.694 3.41 1.026 5.12 1.026z" style="fill:#7d97f4"/><path d="M614.1 2590.164c-.694-4.016.251-8.169 2.576-11.324 2.325-3.155 5.787-4.983 9.441-4.983h1237.631c4.805 0 9.278 2.741 11.867 7.273 2.589 4.532 2.936 10.228.921 15.111l-13.412 32.498c-3.071 7.442-9.725 12.207-17.048 12.207H634.609c-6.811 0-12.666-5.407-13.96-12.895l-6.549-37.887z" style="fill:#7d97f4"/></svg>